M48
; DRILL file {KiCad 8.0.1} date 2024-03-24T21:19:32-0500
; FORMAT={-:-/ absolute / metric / decimal}
; #@! TF.CreationDate,2024-03-24T21:19:32-05:00
; #@! TF.GenerationSoftware,Kicad,Pcbnew,8.0.1
; #@! TF.FileFunction,NonPlated,1,2,NPTH
FMAT,2
METRIC
; #@! TA.AperFunction,NonPlated,NPTH,ComponentDrill
T1C1.700
; #@! TA.AperFunction,NonPlated,NPTH,ComponentDrill
T2C2.200
%
G90
G05
T1
X126.468Y-89.6
X126.468Y-98.6
X126.468Y-119.575
X126.468Y-128.575
X133.468Y-89.6
X133.468Y-98.6
X133.468Y-119.575
X133.468Y-128.575
X156.468Y-89.6
X156.468Y-98.6
X156.468Y-119.575
X156.468Y-128.575
X163.468Y-89.6
X163.468Y-98.6
X163.468Y-119.575
X163.468Y-128.575
T2
X122.5Y-82.5
X122.5Y-105.5
X122.5Y-112.475
X122.5Y-135.475
X145.5Y-82.5
X145.5Y-105.5
X145.5Y-112.475
X145.5Y-135.475
X152.5Y-82.5
X152.5Y-105.5
X152.5Y-112.475
X152.5Y-135.475
X175.5Y-82.5
X175.5Y-105.5
X175.5Y-112.475
X175.5Y-135.475
M30
