G04 #@! TF.GenerationSoftware,KiCad,Pcbnew,8.0.1*
G04 #@! TF.CreationDate,2024-03-24T21:19:35-05:00*
G04 #@! TF.ProjectId,minimidi_v1,6d696e69-6d69-4646-995f-76312e6b6963,rev?*
G04 #@! TF.SameCoordinates,Original*
G04 #@! TF.FileFunction,Soldermask,Bot*
G04 #@! TF.FilePolarity,Negative*
%FSLAX46Y46*%
G04 Gerber Fmt 4.6, Leading zero omitted, Abs format (unit mm)*
G04 Created by KiCad (PCBNEW 8.0.1) date 2024-03-24 21:19:35*
%MOMM*%
%LPD*%
G01*
G04 APERTURE LIST*
G04 Aperture macros list*
%AMFreePoly0*
4,1,6,1.000000,0.000000,0.500000,-0.750000,-0.500000,-0.750000,-0.500000,0.750000,0.500000,0.750000,1.000000,0.000000,1.000000,0.000000,$1*%
%AMFreePoly1*
4,1,19,0.550000,-0.750000,0.000000,-0.750000,0.000000,-0.744911,-0.071157,-0.744911,-0.207708,-0.704816,-0.327430,-0.627875,-0.420627,-0.520320,-0.479746,-0.390866,-0.500000,-0.250000,-0.500000,0.250000,-0.479746,0.390866,-0.420627,0.520320,-0.327430,0.627875,-0.207708,0.704816,-0.071157,0.744911,0.000000,0.744911,0.000000,0.750000,0.550000,0.750000,0.550000,-0.750000,0.550000,-0.750000,
$1*%
%AMFreePoly2*
4,1,19,0.000000,0.744911,0.071157,0.744911,0.207708,0.704816,0.327430,0.627875,0.420627,0.520320,0.479746,0.390866,0.500000,0.250000,0.500000,-0.250000,0.479746,-0.390866,0.420627,-0.520320,0.327430,-0.627875,0.207708,-0.704816,0.071157,-0.744911,0.000000,-0.744911,0.000000,-0.750000,-0.550000,-0.750000,-0.550000,0.750000,0.000000,0.750000,0.000000,0.744911,0.000000,0.744911,
$1*%
G04 Aperture macros list end*
%ADD10R,1.500000X1.500000*%
%ADD11FreePoly0,180.000000*%
%ADD12FreePoly0,0.000000*%
%ADD13C,1.700000*%
%ADD14FreePoly1,180.000000*%
%ADD15R,1.000000X1.500000*%
%ADD16FreePoly2,180.000000*%
%ADD17C,2.200000*%
%ADD18R,1.700000X1.700000*%
%ADD19O,1.700000X1.700000*%
G04 APERTURE END LIST*
D10*
X132100000Y-84900000D03*
X129700000Y-84900000D03*
D11*
X132900000Y-84900000D03*
D12*
X128900000Y-84900000D03*
D10*
X132100000Y-87500000D03*
X129700000Y-87500000D03*
D11*
X132900000Y-87500000D03*
D12*
X128900000Y-87500000D03*
D10*
X131200000Y-101300000D03*
X128800000Y-101300000D03*
D11*
X132000000Y-101300000D03*
D12*
X128000000Y-101300000D03*
D10*
X131200000Y-103900000D03*
X128800000Y-103900000D03*
D11*
X132000000Y-103900000D03*
D12*
X128000000Y-103900000D03*
D13*
X156468098Y-128575000D03*
X163468098Y-128575000D03*
D14*
X132200000Y-117475000D03*
D15*
X130900000Y-117475000D03*
D16*
X129600000Y-117475000D03*
D17*
X152500000Y-135475000D03*
D14*
X162200000Y-117475000D03*
D15*
X160900000Y-117475000D03*
D16*
X159600000Y-117475000D03*
D14*
X132200000Y-114875000D03*
D15*
X130900000Y-114875000D03*
D16*
X129600000Y-114875000D03*
D17*
X145500000Y-135475000D03*
D18*
X140300000Y-132635000D03*
D19*
X140300000Y-135175000D03*
D14*
X131300000Y-133875000D03*
D15*
X130000000Y-133875000D03*
D16*
X128700000Y-133875000D03*
D13*
X126468098Y-128575000D03*
X133468098Y-128575000D03*
D14*
X161300000Y-133875000D03*
D15*
X160000000Y-133875000D03*
D16*
X158700000Y-133875000D03*
D17*
X152500000Y-112475000D03*
D18*
X170300000Y-115475000D03*
D19*
X170300000Y-112935000D03*
D14*
X161300000Y-131275000D03*
D15*
X160000000Y-131275000D03*
D16*
X158700000Y-131275000D03*
D17*
X175500000Y-112475000D03*
X145500000Y-112475000D03*
D13*
X126468098Y-119575000D03*
X133468098Y-119575000D03*
D18*
X170300000Y-132635000D03*
D19*
X170300000Y-135175000D03*
D13*
X156468098Y-119575000D03*
X163468098Y-119575000D03*
D14*
X162200000Y-114875000D03*
D15*
X160900000Y-114875000D03*
D16*
X159600000Y-114875000D03*
D14*
X131300000Y-131275000D03*
D15*
X130000000Y-131275000D03*
D16*
X128700000Y-131275000D03*
D17*
X122500000Y-112475000D03*
X122500000Y-135475000D03*
X175500000Y-135475000D03*
D18*
X140300000Y-115475000D03*
D19*
X140300000Y-112935000D03*
D14*
X162200000Y-87500000D03*
D15*
X160900000Y-87500000D03*
D16*
X159600000Y-87500000D03*
D14*
X162200000Y-84900000D03*
D15*
X160900000Y-84900000D03*
D16*
X159600000Y-84900000D03*
D17*
X175500000Y-105500000D03*
D18*
X170300000Y-102660000D03*
D19*
X170300000Y-105200000D03*
D14*
X161300000Y-103900000D03*
D15*
X160000000Y-103900000D03*
D16*
X158700000Y-103900000D03*
D13*
X156468098Y-98600000D03*
X163468098Y-98600000D03*
D17*
X175500000Y-82500000D03*
D13*
X156468098Y-89600000D03*
X163468098Y-89600000D03*
D14*
X161300000Y-101300000D03*
D15*
X160000000Y-101300000D03*
D16*
X158700000Y-101300000D03*
D17*
X152500000Y-82500000D03*
X152500000Y-105500000D03*
D18*
X170300000Y-85500000D03*
D19*
X170300000Y-82960000D03*
D17*
X145500000Y-105500000D03*
X145500000Y-82500000D03*
X122500000Y-105500000D03*
X122500000Y-82500000D03*
D13*
X126468098Y-89600000D03*
X133468098Y-89600000D03*
D18*
X140300000Y-85500000D03*
D19*
X140300000Y-82960000D03*
D13*
X133468098Y-98600000D03*
X126468098Y-98600000D03*
D18*
X140300000Y-102660000D03*
D19*
X140300000Y-105200000D03*
M02*
