%TF.GenerationSoftware,KiCad,Pcbnew,8.0.1*%
%TF.CreationDate,2024-03-24T21:19:31-05:00*%
%TF.ProjectId,minimidi_v1,6d696e69-6d69-4646-995f-76312e6b6963,rev?*%
%TF.SameCoordinates,Original*%
%TF.FileFunction,Drillmap*%
%TF.FilePolarity,Positive*%
%FSLAX45Y45*%
G04 Gerber Fmt 4.5, Leading zero omitted, Abs format (unit mm)*
G04 Created by KiCad (PCBNEW 8.0.1) date 2024-03-24 21:19:31*
%MOMM*%
%LPD*%
G01*
G04 APERTURE LIST*
%ADD10C,0.050000*%
%ADD11C,0.200000*%
%ADD12C,0.100000*%
G04 APERTURE END LIST*
D10*
X11900000Y-7900000D02*
X17900000Y-7900000D01*
X17900000Y-13900000D01*
X11900000Y-13900000D01*
X11900000Y-7900000D01*
D11*
D12*
X12305000Y-9475000D02*
X12335000Y-9505000D01*
X12335000Y-9475000D02*
X12305000Y-9505000D01*
X12305000Y-9662500D02*
X12335000Y-9692500D01*
X12335000Y-9662500D02*
X12305000Y-9692500D01*
X12305000Y-12472500D02*
X12335000Y-12502500D01*
X12335000Y-12472500D02*
X12305000Y-12502500D01*
X12305000Y-12660000D02*
X12335000Y-12690000D01*
X12335000Y-12660000D02*
X12305000Y-12690000D01*
X12325000Y-9135000D02*
X12355000Y-9165000D01*
X12355000Y-9135000D02*
X12325000Y-9165000D01*
X12325000Y-12132500D02*
X12355000Y-12162500D01*
X12355000Y-12132500D02*
X12325000Y-12162500D01*
X12795000Y-8375000D02*
X12825000Y-8405000D01*
X12825000Y-8375000D02*
X12795000Y-8405000D01*
X12795000Y-11372500D02*
X12825000Y-11402500D01*
X12825000Y-11372500D02*
X12795000Y-11402500D01*
X12845000Y-8575000D02*
X12875000Y-8605000D01*
X12875000Y-8575000D02*
X12845000Y-8605000D01*
X12845000Y-11572500D02*
X12875000Y-11602500D01*
X12875000Y-11572500D02*
X12845000Y-11602500D01*
X12875000Y-9975000D02*
X12905000Y-10005000D01*
X12905000Y-9975000D02*
X12875000Y-10005000D01*
X12875000Y-12972500D02*
X12905000Y-13002500D01*
X12905000Y-12972500D02*
X12875000Y-13002500D01*
X12915000Y-9525000D02*
X12945000Y-9555000D01*
X12945000Y-9525000D02*
X12915000Y-9555000D01*
X12915000Y-12522500D02*
X12945000Y-12552500D01*
X12945000Y-12522500D02*
X12915000Y-12552500D01*
X13045000Y-10505000D02*
X13075000Y-10535000D01*
X13075000Y-10505000D02*
X13045000Y-10535000D01*
X13045000Y-13502500D02*
X13075000Y-13532500D01*
X13075000Y-13502500D02*
X13045000Y-13532500D01*
X13285000Y-10245000D02*
X13315000Y-10275000D01*
X13315000Y-10245000D02*
X13285000Y-10275000D01*
X13285000Y-13242500D02*
X13315000Y-13272500D01*
X13315000Y-13242500D02*
X13285000Y-13272500D01*
X13345000Y-8745000D02*
X13375000Y-8775000D01*
X13375000Y-8745000D02*
X13345000Y-8775000D01*
X13345000Y-11742500D02*
X13375000Y-11772500D01*
X13375000Y-11742500D02*
X13345000Y-11772500D01*
X13705000Y-9265000D02*
X13735000Y-9295000D01*
X13735000Y-9265000D02*
X13705000Y-9295000D01*
X13705000Y-12262500D02*
X13735000Y-12292500D01*
X13735000Y-12262500D02*
X13705000Y-12292500D01*
X13715000Y-8635000D02*
X13745000Y-8665000D01*
X13745000Y-8635000D02*
X13715000Y-8665000D01*
X13715000Y-11632500D02*
X13745000Y-11662500D01*
X13745000Y-11632500D02*
X13715000Y-11662500D01*
X14105000Y-9545000D02*
X14135000Y-9575000D01*
X14135000Y-9545000D02*
X14105000Y-9575000D01*
X14105000Y-12542500D02*
X14135000Y-12572500D01*
X14135000Y-12542500D02*
X14105000Y-12572500D01*
X15305000Y-9475000D02*
X15335000Y-9505000D01*
X15335000Y-9475000D02*
X15305000Y-9505000D01*
X15305000Y-9662500D02*
X15335000Y-9692500D01*
X15335000Y-9662500D02*
X15305000Y-9692500D01*
X15305000Y-12472500D02*
X15335000Y-12502500D01*
X15335000Y-12472500D02*
X15305000Y-12502500D01*
X15305000Y-12660000D02*
X15335000Y-12690000D01*
X15335000Y-12660000D02*
X15305000Y-12690000D01*
X15325000Y-9135000D02*
X15355000Y-9165000D01*
X15355000Y-9135000D02*
X15325000Y-9165000D01*
X15325000Y-12132500D02*
X15355000Y-12162500D01*
X15355000Y-12132500D02*
X15325000Y-12162500D01*
X15795000Y-8375000D02*
X15825000Y-8405000D01*
X15825000Y-8375000D02*
X15795000Y-8405000D01*
X15795000Y-11372500D02*
X15825000Y-11402500D01*
X15825000Y-11372500D02*
X15795000Y-11402500D01*
X15845000Y-8575000D02*
X15875000Y-8605000D01*
X15875000Y-8575000D02*
X15845000Y-8605000D01*
X15845000Y-11572500D02*
X15875000Y-11602500D01*
X15875000Y-11572500D02*
X15845000Y-11602500D01*
X15875000Y-9975000D02*
X15905000Y-10005000D01*
X15905000Y-9975000D02*
X15875000Y-10005000D01*
X15875000Y-12972500D02*
X15905000Y-13002500D01*
X15905000Y-12972500D02*
X15875000Y-13002500D01*
X15915000Y-9525000D02*
X15945000Y-9555000D01*
X15945000Y-9525000D02*
X15915000Y-9555000D01*
X15915000Y-12522500D02*
X15945000Y-12552500D01*
X15945000Y-12522500D02*
X15915000Y-12552500D01*
X16045000Y-10505000D02*
X16075000Y-10535000D01*
X16075000Y-10505000D02*
X16045000Y-10535000D01*
X16045000Y-13502500D02*
X16075000Y-13532500D01*
X16075000Y-13502500D02*
X16045000Y-13532500D01*
X16285000Y-10245000D02*
X16315000Y-10275000D01*
X16315000Y-10245000D02*
X16285000Y-10275000D01*
X16285000Y-13242500D02*
X16315000Y-13272500D01*
X16315000Y-13242500D02*
X16285000Y-13272500D01*
X16345000Y-8745000D02*
X16375000Y-8775000D01*
X16375000Y-8745000D02*
X16345000Y-8775000D01*
X16345000Y-11742500D02*
X16375000Y-11772500D01*
X16375000Y-11742500D02*
X16345000Y-11772500D01*
X16705000Y-9265000D02*
X16735000Y-9295000D01*
X16735000Y-9265000D02*
X16705000Y-9295000D01*
X16705000Y-12262500D02*
X16735000Y-12292500D01*
X16735000Y-12262500D02*
X16705000Y-12292500D01*
X16715000Y-8635000D02*
X16745000Y-8665000D01*
X16745000Y-8635000D02*
X16715000Y-8665000D01*
X16715000Y-11632500D02*
X16745000Y-11662500D01*
X16745000Y-11632500D02*
X16715000Y-11662500D01*
X17105000Y-9545000D02*
X17135000Y-9575000D01*
X17135000Y-9545000D02*
X17105000Y-9575000D01*
X17105000Y-12542500D02*
X17135000Y-12572500D01*
X17135000Y-12542500D02*
X17105000Y-12572500D01*
X14080000Y-8296000D02*
G75*
G02*
X13980000Y-8296000I-50000J0D01*
G01*
X13980000Y-8296000D02*
G75*
G02*
X14080000Y-8296000I50000J0D01*
G01*
X14080000Y-8550000D02*
G75*
G02*
X13980000Y-8550000I-50000J0D01*
G01*
X13980000Y-8550000D02*
G75*
G02*
X14080000Y-8550000I50000J0D01*
G01*
X14080000Y-10266000D02*
G75*
G02*
X13980000Y-10266000I-50000J0D01*
G01*
X13980000Y-10266000D02*
G75*
G02*
X14080000Y-10266000I50000J0D01*
G01*
X14080000Y-10520000D02*
G75*
G02*
X13980000Y-10520000I-50000J0D01*
G01*
X13980000Y-10520000D02*
G75*
G02*
X14080000Y-10520000I50000J0D01*
G01*
X14080000Y-11293500D02*
G75*
G02*
X13980000Y-11293500I-50000J0D01*
G01*
X13980000Y-11293500D02*
G75*
G02*
X14080000Y-11293500I50000J0D01*
G01*
X14080000Y-11547500D02*
G75*
G02*
X13980000Y-11547500I-50000J0D01*
G01*
X13980000Y-11547500D02*
G75*
G02*
X14080000Y-11547500I50000J0D01*
G01*
X14080000Y-13263500D02*
G75*
G02*
X13980000Y-13263500I-50000J0D01*
G01*
X13980000Y-13263500D02*
G75*
G02*
X14080000Y-13263500I50000J0D01*
G01*
X14080000Y-13517500D02*
G75*
G02*
X13980000Y-13517500I-50000J0D01*
G01*
X13980000Y-13517500D02*
G75*
G02*
X14080000Y-13517500I50000J0D01*
G01*
X17080000Y-8296000D02*
G75*
G02*
X16980000Y-8296000I-50000J0D01*
G01*
X16980000Y-8296000D02*
G75*
G02*
X17080000Y-8296000I50000J0D01*
G01*
X17080000Y-8550000D02*
G75*
G02*
X16980000Y-8550000I-50000J0D01*
G01*
X16980000Y-8550000D02*
G75*
G02*
X17080000Y-8550000I50000J0D01*
G01*
X17080000Y-10266000D02*
G75*
G02*
X16980000Y-10266000I-50000J0D01*
G01*
X16980000Y-10266000D02*
G75*
G02*
X17080000Y-10266000I50000J0D01*
G01*
X17080000Y-10520000D02*
G75*
G02*
X16980000Y-10520000I-50000J0D01*
G01*
X16980000Y-10520000D02*
G75*
G02*
X17080000Y-10520000I50000J0D01*
G01*
X17080000Y-11293500D02*
G75*
G02*
X16980000Y-11293500I-50000J0D01*
G01*
X16980000Y-11293500D02*
G75*
G02*
X17080000Y-11293500I50000J0D01*
G01*
X17080000Y-11547500D02*
G75*
G02*
X16980000Y-11547500I-50000J0D01*
G01*
X16980000Y-11547500D02*
G75*
G02*
X17080000Y-11547500I50000J0D01*
G01*
X17080000Y-13263500D02*
G75*
G02*
X16980000Y-13263500I-50000J0D01*
G01*
X16980000Y-13263500D02*
G75*
G02*
X17080000Y-13263500I50000J0D01*
G01*
X17080000Y-13517500D02*
G75*
G02*
X16980000Y-13517500I-50000J0D01*
G01*
X16980000Y-13517500D02*
G75*
G02*
X17080000Y-13517500I50000J0D01*
G01*
D11*
X12158277Y-14213984D02*
X12158277Y-14013984D01*
X12158277Y-14013984D02*
X12205896Y-14013984D01*
X12205896Y-14013984D02*
X12234467Y-14023508D01*
X12234467Y-14023508D02*
X12253515Y-14042555D01*
X12253515Y-14042555D02*
X12263039Y-14061603D01*
X12263039Y-14061603D02*
X12272562Y-14099698D01*
X12272562Y-14099698D02*
X12272562Y-14128269D01*
X12272562Y-14128269D02*
X12263039Y-14166365D01*
X12263039Y-14166365D02*
X12253515Y-14185412D01*
X12253515Y-14185412D02*
X12234467Y-14204460D01*
X12234467Y-14204460D02*
X12205896Y-14213984D01*
X12205896Y-14213984D02*
X12158277Y-14213984D01*
X12358277Y-14213984D02*
X12358277Y-14080650D01*
X12358277Y-14118746D02*
X12367801Y-14099698D01*
X12367801Y-14099698D02*
X12377324Y-14090174D01*
X12377324Y-14090174D02*
X12396372Y-14080650D01*
X12396372Y-14080650D02*
X12415420Y-14080650D01*
X12482086Y-14213984D02*
X12482086Y-14080650D01*
X12482086Y-14013984D02*
X12472562Y-14023508D01*
X12472562Y-14023508D02*
X12482086Y-14033031D01*
X12482086Y-14033031D02*
X12491610Y-14023508D01*
X12491610Y-14023508D02*
X12482086Y-14013984D01*
X12482086Y-14013984D02*
X12482086Y-14033031D01*
X12605896Y-14213984D02*
X12586848Y-14204460D01*
X12586848Y-14204460D02*
X12577324Y-14185412D01*
X12577324Y-14185412D02*
X12577324Y-14013984D01*
X12710658Y-14213984D02*
X12691610Y-14204460D01*
X12691610Y-14204460D02*
X12682086Y-14185412D01*
X12682086Y-14185412D02*
X12682086Y-14013984D01*
X12939229Y-14213984D02*
X12939229Y-14013984D01*
X12939229Y-14013984D02*
X13005896Y-14156841D01*
X13005896Y-14156841D02*
X13072562Y-14013984D01*
X13072562Y-14013984D02*
X13072562Y-14213984D01*
X13253515Y-14213984D02*
X13253515Y-14109222D01*
X13253515Y-14109222D02*
X13243991Y-14090174D01*
X13243991Y-14090174D02*
X13224943Y-14080650D01*
X13224943Y-14080650D02*
X13186848Y-14080650D01*
X13186848Y-14080650D02*
X13167801Y-14090174D01*
X13253515Y-14204460D02*
X13234467Y-14213984D01*
X13234467Y-14213984D02*
X13186848Y-14213984D01*
X13186848Y-14213984D02*
X13167801Y-14204460D01*
X13167801Y-14204460D02*
X13158277Y-14185412D01*
X13158277Y-14185412D02*
X13158277Y-14166365D01*
X13158277Y-14166365D02*
X13167801Y-14147317D01*
X13167801Y-14147317D02*
X13186848Y-14137793D01*
X13186848Y-14137793D02*
X13234467Y-14137793D01*
X13234467Y-14137793D02*
X13253515Y-14128269D01*
X13348753Y-14080650D02*
X13348753Y-14280650D01*
X13348753Y-14090174D02*
X13367801Y-14080650D01*
X13367801Y-14080650D02*
X13405896Y-14080650D01*
X13405896Y-14080650D02*
X13424943Y-14090174D01*
X13424943Y-14090174D02*
X13434467Y-14099698D01*
X13434467Y-14099698D02*
X13443991Y-14118746D01*
X13443991Y-14118746D02*
X13443991Y-14175888D01*
X13443991Y-14175888D02*
X13434467Y-14194936D01*
X13434467Y-14194936D02*
X13424943Y-14204460D01*
X13424943Y-14204460D02*
X13405896Y-14213984D01*
X13405896Y-14213984D02*
X13367801Y-14213984D01*
X13367801Y-14213984D02*
X13348753Y-14204460D01*
X13529705Y-14194936D02*
X13539229Y-14204460D01*
X13539229Y-14204460D02*
X13529705Y-14213984D01*
X13529705Y-14213984D02*
X13520182Y-14204460D01*
X13520182Y-14204460D02*
X13529705Y-14194936D01*
X13529705Y-14194936D02*
X13529705Y-14213984D01*
X13529705Y-14090174D02*
X13539229Y-14099698D01*
X13539229Y-14099698D02*
X13529705Y-14109222D01*
X13529705Y-14109222D02*
X13520182Y-14099698D01*
X13520182Y-14099698D02*
X13529705Y-14090174D01*
X13529705Y-14090174D02*
X13529705Y-14109222D01*
D12*
X11867500Y-14527500D02*
X11897500Y-14557500D01*
X11897500Y-14527500D02*
X11867500Y-14557500D01*
D11*
X12196372Y-14433984D02*
X12215420Y-14433984D01*
X12215420Y-14433984D02*
X12234467Y-14443508D01*
X12234467Y-14443508D02*
X12243991Y-14453031D01*
X12243991Y-14453031D02*
X12253515Y-14472079D01*
X12253515Y-14472079D02*
X12263039Y-14510174D01*
X12263039Y-14510174D02*
X12263039Y-14557793D01*
X12263039Y-14557793D02*
X12253515Y-14595888D01*
X12253515Y-14595888D02*
X12243991Y-14614936D01*
X12243991Y-14614936D02*
X12234467Y-14624460D01*
X12234467Y-14624460D02*
X12215420Y-14633984D01*
X12215420Y-14633984D02*
X12196372Y-14633984D01*
X12196372Y-14633984D02*
X12177324Y-14624460D01*
X12177324Y-14624460D02*
X12167801Y-14614936D01*
X12167801Y-14614936D02*
X12158277Y-14595888D01*
X12158277Y-14595888D02*
X12148753Y-14557793D01*
X12148753Y-14557793D02*
X12148753Y-14510174D01*
X12148753Y-14510174D02*
X12158277Y-14472079D01*
X12158277Y-14472079D02*
X12167801Y-14453031D01*
X12167801Y-14453031D02*
X12177324Y-14443508D01*
X12177324Y-14443508D02*
X12196372Y-14433984D01*
X12348753Y-14614936D02*
X12358277Y-14624460D01*
X12358277Y-14624460D02*
X12348753Y-14633984D01*
X12348753Y-14633984D02*
X12339229Y-14624460D01*
X12339229Y-14624460D02*
X12348753Y-14614936D01*
X12348753Y-14614936D02*
X12348753Y-14633984D01*
X12424943Y-14433984D02*
X12548753Y-14433984D01*
X12548753Y-14433984D02*
X12482086Y-14510174D01*
X12482086Y-14510174D02*
X12510658Y-14510174D01*
X12510658Y-14510174D02*
X12529705Y-14519698D01*
X12529705Y-14519698D02*
X12539229Y-14529222D01*
X12539229Y-14529222D02*
X12548753Y-14548269D01*
X12548753Y-14548269D02*
X12548753Y-14595888D01*
X12548753Y-14595888D02*
X12539229Y-14614936D01*
X12539229Y-14614936D02*
X12529705Y-14624460D01*
X12529705Y-14624460D02*
X12510658Y-14633984D01*
X12510658Y-14633984D02*
X12453515Y-14633984D01*
X12453515Y-14633984D02*
X12434467Y-14624460D01*
X12434467Y-14624460D02*
X12424943Y-14614936D01*
X12672562Y-14433984D02*
X12691610Y-14433984D01*
X12691610Y-14433984D02*
X12710658Y-14443508D01*
X12710658Y-14443508D02*
X12720182Y-14453031D01*
X12720182Y-14453031D02*
X12729705Y-14472079D01*
X12729705Y-14472079D02*
X12739229Y-14510174D01*
X12739229Y-14510174D02*
X12739229Y-14557793D01*
X12739229Y-14557793D02*
X12729705Y-14595888D01*
X12729705Y-14595888D02*
X12720182Y-14614936D01*
X12720182Y-14614936D02*
X12710658Y-14624460D01*
X12710658Y-14624460D02*
X12691610Y-14633984D01*
X12691610Y-14633984D02*
X12672562Y-14633984D01*
X12672562Y-14633984D02*
X12653515Y-14624460D01*
X12653515Y-14624460D02*
X12643991Y-14614936D01*
X12643991Y-14614936D02*
X12634467Y-14595888D01*
X12634467Y-14595888D02*
X12624943Y-14557793D01*
X12624943Y-14557793D02*
X12624943Y-14510174D01*
X12624943Y-14510174D02*
X12634467Y-14472079D01*
X12634467Y-14472079D02*
X12643991Y-14453031D01*
X12643991Y-14453031D02*
X12653515Y-14443508D01*
X12653515Y-14443508D02*
X12672562Y-14433984D01*
X12863039Y-14433984D02*
X12882086Y-14433984D01*
X12882086Y-14433984D02*
X12901134Y-14443508D01*
X12901134Y-14443508D02*
X12910658Y-14453031D01*
X12910658Y-14453031D02*
X12920182Y-14472079D01*
X12920182Y-14472079D02*
X12929705Y-14510174D01*
X12929705Y-14510174D02*
X12929705Y-14557793D01*
X12929705Y-14557793D02*
X12920182Y-14595888D01*
X12920182Y-14595888D02*
X12910658Y-14614936D01*
X12910658Y-14614936D02*
X12901134Y-14624460D01*
X12901134Y-14624460D02*
X12882086Y-14633984D01*
X12882086Y-14633984D02*
X12863039Y-14633984D01*
X12863039Y-14633984D02*
X12843991Y-14624460D01*
X12843991Y-14624460D02*
X12834467Y-14614936D01*
X12834467Y-14614936D02*
X12824943Y-14595888D01*
X12824943Y-14595888D02*
X12815420Y-14557793D01*
X12815420Y-14557793D02*
X12815420Y-14510174D01*
X12815420Y-14510174D02*
X12824943Y-14472079D01*
X12824943Y-14472079D02*
X12834467Y-14453031D01*
X12834467Y-14453031D02*
X12843991Y-14443508D01*
X12843991Y-14443508D02*
X12863039Y-14433984D01*
X13015420Y-14633984D02*
X13015420Y-14500650D01*
X13015420Y-14519698D02*
X13024943Y-14510174D01*
X13024943Y-14510174D02*
X13043991Y-14500650D01*
X13043991Y-14500650D02*
X13072563Y-14500650D01*
X13072563Y-14500650D02*
X13091610Y-14510174D01*
X13091610Y-14510174D02*
X13101134Y-14529222D01*
X13101134Y-14529222D02*
X13101134Y-14633984D01*
X13101134Y-14529222D02*
X13110658Y-14510174D01*
X13110658Y-14510174D02*
X13129705Y-14500650D01*
X13129705Y-14500650D02*
X13158277Y-14500650D01*
X13158277Y-14500650D02*
X13177324Y-14510174D01*
X13177324Y-14510174D02*
X13186848Y-14529222D01*
X13186848Y-14529222D02*
X13186848Y-14633984D01*
X13282086Y-14633984D02*
X13282086Y-14500650D01*
X13282086Y-14519698D02*
X13291610Y-14510174D01*
X13291610Y-14510174D02*
X13310658Y-14500650D01*
X13310658Y-14500650D02*
X13339229Y-14500650D01*
X13339229Y-14500650D02*
X13358277Y-14510174D01*
X13358277Y-14510174D02*
X13367801Y-14529222D01*
X13367801Y-14529222D02*
X13367801Y-14633984D01*
X13367801Y-14529222D02*
X13377324Y-14510174D01*
X13377324Y-14510174D02*
X13396372Y-14500650D01*
X13396372Y-14500650D02*
X13424943Y-14500650D01*
X13424943Y-14500650D02*
X13443991Y-14510174D01*
X13443991Y-14510174D02*
X13453515Y-14529222D01*
X13453515Y-14529222D02*
X13453515Y-14633984D01*
X13843991Y-14424460D02*
X13672563Y-14681603D01*
X14101134Y-14433984D02*
X14120182Y-14433984D01*
X14120182Y-14433984D02*
X14139229Y-14443508D01*
X14139229Y-14443508D02*
X14148753Y-14453031D01*
X14148753Y-14453031D02*
X14158277Y-14472079D01*
X14158277Y-14472079D02*
X14167801Y-14510174D01*
X14167801Y-14510174D02*
X14167801Y-14557793D01*
X14167801Y-14557793D02*
X14158277Y-14595888D01*
X14158277Y-14595888D02*
X14148753Y-14614936D01*
X14148753Y-14614936D02*
X14139229Y-14624460D01*
X14139229Y-14624460D02*
X14120182Y-14633984D01*
X14120182Y-14633984D02*
X14101134Y-14633984D01*
X14101134Y-14633984D02*
X14082086Y-14624460D01*
X14082086Y-14624460D02*
X14072563Y-14614936D01*
X14072563Y-14614936D02*
X14063039Y-14595888D01*
X14063039Y-14595888D02*
X14053515Y-14557793D01*
X14053515Y-14557793D02*
X14053515Y-14510174D01*
X14053515Y-14510174D02*
X14063039Y-14472079D01*
X14063039Y-14472079D02*
X14072563Y-14453031D01*
X14072563Y-14453031D02*
X14082086Y-14443508D01*
X14082086Y-14443508D02*
X14101134Y-14433984D01*
X14253515Y-14614936D02*
X14263039Y-14624460D01*
X14263039Y-14624460D02*
X14253515Y-14633984D01*
X14253515Y-14633984D02*
X14243991Y-14624460D01*
X14243991Y-14624460D02*
X14253515Y-14614936D01*
X14253515Y-14614936D02*
X14253515Y-14633984D01*
X14386848Y-14433984D02*
X14405896Y-14433984D01*
X14405896Y-14433984D02*
X14424944Y-14443508D01*
X14424944Y-14443508D02*
X14434467Y-14453031D01*
X14434467Y-14453031D02*
X14443991Y-14472079D01*
X14443991Y-14472079D02*
X14453515Y-14510174D01*
X14453515Y-14510174D02*
X14453515Y-14557793D01*
X14453515Y-14557793D02*
X14443991Y-14595888D01*
X14443991Y-14595888D02*
X14434467Y-14614936D01*
X14434467Y-14614936D02*
X14424944Y-14624460D01*
X14424944Y-14624460D02*
X14405896Y-14633984D01*
X14405896Y-14633984D02*
X14386848Y-14633984D01*
X14386848Y-14633984D02*
X14367801Y-14624460D01*
X14367801Y-14624460D02*
X14358277Y-14614936D01*
X14358277Y-14614936D02*
X14348753Y-14595888D01*
X14348753Y-14595888D02*
X14339229Y-14557793D01*
X14339229Y-14557793D02*
X14339229Y-14510174D01*
X14339229Y-14510174D02*
X14348753Y-14472079D01*
X14348753Y-14472079D02*
X14358277Y-14453031D01*
X14358277Y-14453031D02*
X14367801Y-14443508D01*
X14367801Y-14443508D02*
X14386848Y-14433984D01*
X14643991Y-14633984D02*
X14529706Y-14633984D01*
X14586848Y-14633984D02*
X14586848Y-14433984D01*
X14586848Y-14433984D02*
X14567801Y-14462555D01*
X14567801Y-14462555D02*
X14548753Y-14481603D01*
X14548753Y-14481603D02*
X14529706Y-14491127D01*
X14834467Y-14633984D02*
X14720182Y-14633984D01*
X14777325Y-14633984D02*
X14777325Y-14433984D01*
X14777325Y-14433984D02*
X14758277Y-14462555D01*
X14758277Y-14462555D02*
X14739229Y-14481603D01*
X14739229Y-14481603D02*
X14720182Y-14491127D01*
X14948753Y-14519698D02*
X14929706Y-14510174D01*
X14929706Y-14510174D02*
X14920182Y-14500650D01*
X14920182Y-14500650D02*
X14910658Y-14481603D01*
X14910658Y-14481603D02*
X14910658Y-14472079D01*
X14910658Y-14472079D02*
X14920182Y-14453031D01*
X14920182Y-14453031D02*
X14929706Y-14443508D01*
X14929706Y-14443508D02*
X14948753Y-14433984D01*
X14948753Y-14433984D02*
X14986848Y-14433984D01*
X14986848Y-14433984D02*
X15005896Y-14443508D01*
X15005896Y-14443508D02*
X15015420Y-14453031D01*
X15015420Y-14453031D02*
X15024944Y-14472079D01*
X15024944Y-14472079D02*
X15024944Y-14481603D01*
X15024944Y-14481603D02*
X15015420Y-14500650D01*
X15015420Y-14500650D02*
X15005896Y-14510174D01*
X15005896Y-14510174D02*
X14986848Y-14519698D01*
X14986848Y-14519698D02*
X14948753Y-14519698D01*
X14948753Y-14519698D02*
X14929706Y-14529222D01*
X14929706Y-14529222D02*
X14920182Y-14538746D01*
X14920182Y-14538746D02*
X14910658Y-14557793D01*
X14910658Y-14557793D02*
X14910658Y-14595888D01*
X14910658Y-14595888D02*
X14920182Y-14614936D01*
X14920182Y-14614936D02*
X14929706Y-14624460D01*
X14929706Y-14624460D02*
X14948753Y-14633984D01*
X14948753Y-14633984D02*
X14986848Y-14633984D01*
X14986848Y-14633984D02*
X15005896Y-14624460D01*
X15005896Y-14624460D02*
X15015420Y-14614936D01*
X15015420Y-14614936D02*
X15024944Y-14595888D01*
X15024944Y-14595888D02*
X15024944Y-14557793D01*
X15024944Y-14557793D02*
X15015420Y-14538746D01*
X15015420Y-14538746D02*
X15005896Y-14529222D01*
X15005896Y-14529222D02*
X14986848Y-14519698D01*
X15101134Y-14433984D02*
X15101134Y-14472079D01*
X15177325Y-14433984D02*
X15177325Y-14472079D01*
X15472563Y-14710174D02*
X15463039Y-14700650D01*
X15463039Y-14700650D02*
X15443991Y-14672079D01*
X15443991Y-14672079D02*
X15434468Y-14653031D01*
X15434468Y-14653031D02*
X15424944Y-14624460D01*
X15424944Y-14624460D02*
X15415420Y-14576841D01*
X15415420Y-14576841D02*
X15415420Y-14538746D01*
X15415420Y-14538746D02*
X15424944Y-14491127D01*
X15424944Y-14491127D02*
X15434468Y-14462555D01*
X15434468Y-14462555D02*
X15443991Y-14443508D01*
X15443991Y-14443508D02*
X15463039Y-14414936D01*
X15463039Y-14414936D02*
X15472563Y-14405412D01*
X15643991Y-14433984D02*
X15548753Y-14433984D01*
X15548753Y-14433984D02*
X15539229Y-14529222D01*
X15539229Y-14529222D02*
X15548753Y-14519698D01*
X15548753Y-14519698D02*
X15567801Y-14510174D01*
X15567801Y-14510174D02*
X15615420Y-14510174D01*
X15615420Y-14510174D02*
X15634468Y-14519698D01*
X15634468Y-14519698D02*
X15643991Y-14529222D01*
X15643991Y-14529222D02*
X15653515Y-14548269D01*
X15653515Y-14548269D02*
X15653515Y-14595888D01*
X15653515Y-14595888D02*
X15643991Y-14614936D01*
X15643991Y-14614936D02*
X15634468Y-14624460D01*
X15634468Y-14624460D02*
X15615420Y-14633984D01*
X15615420Y-14633984D02*
X15567801Y-14633984D01*
X15567801Y-14633984D02*
X15548753Y-14624460D01*
X15548753Y-14624460D02*
X15539229Y-14614936D01*
X15729706Y-14453031D02*
X15739229Y-14443508D01*
X15739229Y-14443508D02*
X15758277Y-14433984D01*
X15758277Y-14433984D02*
X15805896Y-14433984D01*
X15805896Y-14433984D02*
X15824944Y-14443508D01*
X15824944Y-14443508D02*
X15834468Y-14453031D01*
X15834468Y-14453031D02*
X15843991Y-14472079D01*
X15843991Y-14472079D02*
X15843991Y-14491127D01*
X15843991Y-14491127D02*
X15834468Y-14519698D01*
X15834468Y-14519698D02*
X15720182Y-14633984D01*
X15720182Y-14633984D02*
X15843991Y-14633984D01*
X16082087Y-14633984D02*
X16082087Y-14433984D01*
X16167801Y-14633984D02*
X16167801Y-14529222D01*
X16167801Y-14529222D02*
X16158277Y-14510174D01*
X16158277Y-14510174D02*
X16139230Y-14500650D01*
X16139230Y-14500650D02*
X16110658Y-14500650D01*
X16110658Y-14500650D02*
X16091610Y-14510174D01*
X16091610Y-14510174D02*
X16082087Y-14519698D01*
X16291610Y-14633984D02*
X16272563Y-14624460D01*
X16272563Y-14624460D02*
X16263039Y-14614936D01*
X16263039Y-14614936D02*
X16253515Y-14595888D01*
X16253515Y-14595888D02*
X16253515Y-14538746D01*
X16253515Y-14538746D02*
X16263039Y-14519698D01*
X16263039Y-14519698D02*
X16272563Y-14510174D01*
X16272563Y-14510174D02*
X16291610Y-14500650D01*
X16291610Y-14500650D02*
X16320182Y-14500650D01*
X16320182Y-14500650D02*
X16339230Y-14510174D01*
X16339230Y-14510174D02*
X16348753Y-14519698D01*
X16348753Y-14519698D02*
X16358277Y-14538746D01*
X16358277Y-14538746D02*
X16358277Y-14595888D01*
X16358277Y-14595888D02*
X16348753Y-14614936D01*
X16348753Y-14614936D02*
X16339230Y-14624460D01*
X16339230Y-14624460D02*
X16320182Y-14633984D01*
X16320182Y-14633984D02*
X16291610Y-14633984D01*
X16472563Y-14633984D02*
X16453515Y-14624460D01*
X16453515Y-14624460D02*
X16443991Y-14605412D01*
X16443991Y-14605412D02*
X16443991Y-14433984D01*
X16624944Y-14624460D02*
X16605896Y-14633984D01*
X16605896Y-14633984D02*
X16567801Y-14633984D01*
X16567801Y-14633984D02*
X16548753Y-14624460D01*
X16548753Y-14624460D02*
X16539230Y-14605412D01*
X16539230Y-14605412D02*
X16539230Y-14529222D01*
X16539230Y-14529222D02*
X16548753Y-14510174D01*
X16548753Y-14510174D02*
X16567801Y-14500650D01*
X16567801Y-14500650D02*
X16605896Y-14500650D01*
X16605896Y-14500650D02*
X16624944Y-14510174D01*
X16624944Y-14510174D02*
X16634468Y-14529222D01*
X16634468Y-14529222D02*
X16634468Y-14548269D01*
X16634468Y-14548269D02*
X16539230Y-14567317D01*
X16710658Y-14624460D02*
X16729706Y-14633984D01*
X16729706Y-14633984D02*
X16767801Y-14633984D01*
X16767801Y-14633984D02*
X16786849Y-14624460D01*
X16786849Y-14624460D02*
X16796373Y-14605412D01*
X16796373Y-14605412D02*
X16796373Y-14595888D01*
X16796373Y-14595888D02*
X16786849Y-14576841D01*
X16786849Y-14576841D02*
X16767801Y-14567317D01*
X16767801Y-14567317D02*
X16739230Y-14567317D01*
X16739230Y-14567317D02*
X16720182Y-14557793D01*
X16720182Y-14557793D02*
X16710658Y-14538746D01*
X16710658Y-14538746D02*
X16710658Y-14529222D01*
X16710658Y-14529222D02*
X16720182Y-14510174D01*
X16720182Y-14510174D02*
X16739230Y-14500650D01*
X16739230Y-14500650D02*
X16767801Y-14500650D01*
X16767801Y-14500650D02*
X16786849Y-14510174D01*
X16863039Y-14710174D02*
X16872563Y-14700650D01*
X16872563Y-14700650D02*
X16891611Y-14672079D01*
X16891611Y-14672079D02*
X16901134Y-14653031D01*
X16901134Y-14653031D02*
X16910658Y-14624460D01*
X16910658Y-14624460D02*
X16920182Y-14576841D01*
X16920182Y-14576841D02*
X16920182Y-14538746D01*
X16920182Y-14538746D02*
X16910658Y-14491127D01*
X16910658Y-14491127D02*
X16901134Y-14462555D01*
X16901134Y-14462555D02*
X16891611Y-14443508D01*
X16891611Y-14443508D02*
X16872563Y-14414936D01*
X16872563Y-14414936D02*
X16863039Y-14405412D01*
D12*
X11897500Y-14806500D02*
G75*
G02*
X11797500Y-14806500I-50000J0D01*
G01*
X11797500Y-14806500D02*
G75*
G02*
X11897500Y-14806500I50000J0D01*
G01*
D11*
X12263039Y-14897984D02*
X12148753Y-14897984D01*
X12205896Y-14897984D02*
X12205896Y-14697984D01*
X12205896Y-14697984D02*
X12186848Y-14726555D01*
X12186848Y-14726555D02*
X12167801Y-14745603D01*
X12167801Y-14745603D02*
X12148753Y-14755127D01*
X12348753Y-14878936D02*
X12358277Y-14888460D01*
X12358277Y-14888460D02*
X12348753Y-14897984D01*
X12348753Y-14897984D02*
X12339229Y-14888460D01*
X12339229Y-14888460D02*
X12348753Y-14878936D01*
X12348753Y-14878936D02*
X12348753Y-14897984D01*
X12482086Y-14697984D02*
X12501134Y-14697984D01*
X12501134Y-14697984D02*
X12520182Y-14707508D01*
X12520182Y-14707508D02*
X12529705Y-14717031D01*
X12529705Y-14717031D02*
X12539229Y-14736079D01*
X12539229Y-14736079D02*
X12548753Y-14774174D01*
X12548753Y-14774174D02*
X12548753Y-14821793D01*
X12548753Y-14821793D02*
X12539229Y-14859888D01*
X12539229Y-14859888D02*
X12529705Y-14878936D01*
X12529705Y-14878936D02*
X12520182Y-14888460D01*
X12520182Y-14888460D02*
X12501134Y-14897984D01*
X12501134Y-14897984D02*
X12482086Y-14897984D01*
X12482086Y-14897984D02*
X12463039Y-14888460D01*
X12463039Y-14888460D02*
X12453515Y-14878936D01*
X12453515Y-14878936D02*
X12443991Y-14859888D01*
X12443991Y-14859888D02*
X12434467Y-14821793D01*
X12434467Y-14821793D02*
X12434467Y-14774174D01*
X12434467Y-14774174D02*
X12443991Y-14736079D01*
X12443991Y-14736079D02*
X12453515Y-14717031D01*
X12453515Y-14717031D02*
X12463039Y-14707508D01*
X12463039Y-14707508D02*
X12482086Y-14697984D01*
X12672562Y-14697984D02*
X12691610Y-14697984D01*
X12691610Y-14697984D02*
X12710658Y-14707508D01*
X12710658Y-14707508D02*
X12720182Y-14717031D01*
X12720182Y-14717031D02*
X12729705Y-14736079D01*
X12729705Y-14736079D02*
X12739229Y-14774174D01*
X12739229Y-14774174D02*
X12739229Y-14821793D01*
X12739229Y-14821793D02*
X12729705Y-14859888D01*
X12729705Y-14859888D02*
X12720182Y-14878936D01*
X12720182Y-14878936D02*
X12710658Y-14888460D01*
X12710658Y-14888460D02*
X12691610Y-14897984D01*
X12691610Y-14897984D02*
X12672562Y-14897984D01*
X12672562Y-14897984D02*
X12653515Y-14888460D01*
X12653515Y-14888460D02*
X12643991Y-14878936D01*
X12643991Y-14878936D02*
X12634467Y-14859888D01*
X12634467Y-14859888D02*
X12624943Y-14821793D01*
X12624943Y-14821793D02*
X12624943Y-14774174D01*
X12624943Y-14774174D02*
X12634467Y-14736079D01*
X12634467Y-14736079D02*
X12643991Y-14717031D01*
X12643991Y-14717031D02*
X12653515Y-14707508D01*
X12653515Y-14707508D02*
X12672562Y-14697984D01*
X12863039Y-14697984D02*
X12882086Y-14697984D01*
X12882086Y-14697984D02*
X12901134Y-14707508D01*
X12901134Y-14707508D02*
X12910658Y-14717031D01*
X12910658Y-14717031D02*
X12920182Y-14736079D01*
X12920182Y-14736079D02*
X12929705Y-14774174D01*
X12929705Y-14774174D02*
X12929705Y-14821793D01*
X12929705Y-14821793D02*
X12920182Y-14859888D01*
X12920182Y-14859888D02*
X12910658Y-14878936D01*
X12910658Y-14878936D02*
X12901134Y-14888460D01*
X12901134Y-14888460D02*
X12882086Y-14897984D01*
X12882086Y-14897984D02*
X12863039Y-14897984D01*
X12863039Y-14897984D02*
X12843991Y-14888460D01*
X12843991Y-14888460D02*
X12834467Y-14878936D01*
X12834467Y-14878936D02*
X12824943Y-14859888D01*
X12824943Y-14859888D02*
X12815420Y-14821793D01*
X12815420Y-14821793D02*
X12815420Y-14774174D01*
X12815420Y-14774174D02*
X12824943Y-14736079D01*
X12824943Y-14736079D02*
X12834467Y-14717031D01*
X12834467Y-14717031D02*
X12843991Y-14707508D01*
X12843991Y-14707508D02*
X12863039Y-14697984D01*
X13015420Y-14897984D02*
X13015420Y-14764650D01*
X13015420Y-14783698D02*
X13024943Y-14774174D01*
X13024943Y-14774174D02*
X13043991Y-14764650D01*
X13043991Y-14764650D02*
X13072563Y-14764650D01*
X13072563Y-14764650D02*
X13091610Y-14774174D01*
X13091610Y-14774174D02*
X13101134Y-14793222D01*
X13101134Y-14793222D02*
X13101134Y-14897984D01*
X13101134Y-14793222D02*
X13110658Y-14774174D01*
X13110658Y-14774174D02*
X13129705Y-14764650D01*
X13129705Y-14764650D02*
X13158277Y-14764650D01*
X13158277Y-14764650D02*
X13177324Y-14774174D01*
X13177324Y-14774174D02*
X13186848Y-14793222D01*
X13186848Y-14793222D02*
X13186848Y-14897984D01*
X13282086Y-14897984D02*
X13282086Y-14764650D01*
X13282086Y-14783698D02*
X13291610Y-14774174D01*
X13291610Y-14774174D02*
X13310658Y-14764650D01*
X13310658Y-14764650D02*
X13339229Y-14764650D01*
X13339229Y-14764650D02*
X13358277Y-14774174D01*
X13358277Y-14774174D02*
X13367801Y-14793222D01*
X13367801Y-14793222D02*
X13367801Y-14897984D01*
X13367801Y-14793222D02*
X13377324Y-14774174D01*
X13377324Y-14774174D02*
X13396372Y-14764650D01*
X13396372Y-14764650D02*
X13424943Y-14764650D01*
X13424943Y-14764650D02*
X13443991Y-14774174D01*
X13443991Y-14774174D02*
X13453515Y-14793222D01*
X13453515Y-14793222D02*
X13453515Y-14897984D01*
X13843991Y-14688460D02*
X13672563Y-14945603D01*
X14101134Y-14697984D02*
X14120182Y-14697984D01*
X14120182Y-14697984D02*
X14139229Y-14707508D01*
X14139229Y-14707508D02*
X14148753Y-14717031D01*
X14148753Y-14717031D02*
X14158277Y-14736079D01*
X14158277Y-14736079D02*
X14167801Y-14774174D01*
X14167801Y-14774174D02*
X14167801Y-14821793D01*
X14167801Y-14821793D02*
X14158277Y-14859888D01*
X14158277Y-14859888D02*
X14148753Y-14878936D01*
X14148753Y-14878936D02*
X14139229Y-14888460D01*
X14139229Y-14888460D02*
X14120182Y-14897984D01*
X14120182Y-14897984D02*
X14101134Y-14897984D01*
X14101134Y-14897984D02*
X14082086Y-14888460D01*
X14082086Y-14888460D02*
X14072563Y-14878936D01*
X14072563Y-14878936D02*
X14063039Y-14859888D01*
X14063039Y-14859888D02*
X14053515Y-14821793D01*
X14053515Y-14821793D02*
X14053515Y-14774174D01*
X14053515Y-14774174D02*
X14063039Y-14736079D01*
X14063039Y-14736079D02*
X14072563Y-14717031D01*
X14072563Y-14717031D02*
X14082086Y-14707508D01*
X14082086Y-14707508D02*
X14101134Y-14697984D01*
X14253515Y-14878936D02*
X14263039Y-14888460D01*
X14263039Y-14888460D02*
X14253515Y-14897984D01*
X14253515Y-14897984D02*
X14243991Y-14888460D01*
X14243991Y-14888460D02*
X14253515Y-14878936D01*
X14253515Y-14878936D02*
X14253515Y-14897984D01*
X14386848Y-14697984D02*
X14405896Y-14697984D01*
X14405896Y-14697984D02*
X14424944Y-14707508D01*
X14424944Y-14707508D02*
X14434467Y-14717031D01*
X14434467Y-14717031D02*
X14443991Y-14736079D01*
X14443991Y-14736079D02*
X14453515Y-14774174D01*
X14453515Y-14774174D02*
X14453515Y-14821793D01*
X14453515Y-14821793D02*
X14443991Y-14859888D01*
X14443991Y-14859888D02*
X14434467Y-14878936D01*
X14434467Y-14878936D02*
X14424944Y-14888460D01*
X14424944Y-14888460D02*
X14405896Y-14897984D01*
X14405896Y-14897984D02*
X14386848Y-14897984D01*
X14386848Y-14897984D02*
X14367801Y-14888460D01*
X14367801Y-14888460D02*
X14358277Y-14878936D01*
X14358277Y-14878936D02*
X14348753Y-14859888D01*
X14348753Y-14859888D02*
X14339229Y-14821793D01*
X14339229Y-14821793D02*
X14339229Y-14774174D01*
X14339229Y-14774174D02*
X14348753Y-14736079D01*
X14348753Y-14736079D02*
X14358277Y-14717031D01*
X14358277Y-14717031D02*
X14367801Y-14707508D01*
X14367801Y-14707508D02*
X14386848Y-14697984D01*
X14520182Y-14697984D02*
X14643991Y-14697984D01*
X14643991Y-14697984D02*
X14577325Y-14774174D01*
X14577325Y-14774174D02*
X14605896Y-14774174D01*
X14605896Y-14774174D02*
X14624944Y-14783698D01*
X14624944Y-14783698D02*
X14634467Y-14793222D01*
X14634467Y-14793222D02*
X14643991Y-14812269D01*
X14643991Y-14812269D02*
X14643991Y-14859888D01*
X14643991Y-14859888D02*
X14634467Y-14878936D01*
X14634467Y-14878936D02*
X14624944Y-14888460D01*
X14624944Y-14888460D02*
X14605896Y-14897984D01*
X14605896Y-14897984D02*
X14548753Y-14897984D01*
X14548753Y-14897984D02*
X14529706Y-14888460D01*
X14529706Y-14888460D02*
X14520182Y-14878936D01*
X14739229Y-14897984D02*
X14777325Y-14897984D01*
X14777325Y-14897984D02*
X14796372Y-14888460D01*
X14796372Y-14888460D02*
X14805896Y-14878936D01*
X14805896Y-14878936D02*
X14824944Y-14850365D01*
X14824944Y-14850365D02*
X14834467Y-14812269D01*
X14834467Y-14812269D02*
X14834467Y-14736079D01*
X14834467Y-14736079D02*
X14824944Y-14717031D01*
X14824944Y-14717031D02*
X14815420Y-14707508D01*
X14815420Y-14707508D02*
X14796372Y-14697984D01*
X14796372Y-14697984D02*
X14758277Y-14697984D01*
X14758277Y-14697984D02*
X14739229Y-14707508D01*
X14739229Y-14707508D02*
X14729706Y-14717031D01*
X14729706Y-14717031D02*
X14720182Y-14736079D01*
X14720182Y-14736079D02*
X14720182Y-14783698D01*
X14720182Y-14783698D02*
X14729706Y-14802746D01*
X14729706Y-14802746D02*
X14739229Y-14812269D01*
X14739229Y-14812269D02*
X14758277Y-14821793D01*
X14758277Y-14821793D02*
X14796372Y-14821793D01*
X14796372Y-14821793D02*
X14815420Y-14812269D01*
X14815420Y-14812269D02*
X14824944Y-14802746D01*
X14824944Y-14802746D02*
X14834467Y-14783698D01*
X15005896Y-14764650D02*
X15005896Y-14897984D01*
X14958277Y-14688460D02*
X14910658Y-14831317D01*
X14910658Y-14831317D02*
X15034467Y-14831317D01*
X15101134Y-14697984D02*
X15101134Y-14736079D01*
X15177325Y-14697984D02*
X15177325Y-14736079D01*
X15472563Y-14974174D02*
X15463039Y-14964650D01*
X15463039Y-14964650D02*
X15443991Y-14936079D01*
X15443991Y-14936079D02*
X15434468Y-14917031D01*
X15434468Y-14917031D02*
X15424944Y-14888460D01*
X15424944Y-14888460D02*
X15415420Y-14840841D01*
X15415420Y-14840841D02*
X15415420Y-14802746D01*
X15415420Y-14802746D02*
X15424944Y-14755127D01*
X15424944Y-14755127D02*
X15434468Y-14726555D01*
X15434468Y-14726555D02*
X15443991Y-14707508D01*
X15443991Y-14707508D02*
X15463039Y-14678936D01*
X15463039Y-14678936D02*
X15472563Y-14669412D01*
X15653515Y-14897984D02*
X15539229Y-14897984D01*
X15596372Y-14897984D02*
X15596372Y-14697984D01*
X15596372Y-14697984D02*
X15577325Y-14726555D01*
X15577325Y-14726555D02*
X15558277Y-14745603D01*
X15558277Y-14745603D02*
X15539229Y-14755127D01*
X15824944Y-14697984D02*
X15786848Y-14697984D01*
X15786848Y-14697984D02*
X15767801Y-14707508D01*
X15767801Y-14707508D02*
X15758277Y-14717031D01*
X15758277Y-14717031D02*
X15739229Y-14745603D01*
X15739229Y-14745603D02*
X15729706Y-14783698D01*
X15729706Y-14783698D02*
X15729706Y-14859888D01*
X15729706Y-14859888D02*
X15739229Y-14878936D01*
X15739229Y-14878936D02*
X15748753Y-14888460D01*
X15748753Y-14888460D02*
X15767801Y-14897984D01*
X15767801Y-14897984D02*
X15805896Y-14897984D01*
X15805896Y-14897984D02*
X15824944Y-14888460D01*
X15824944Y-14888460D02*
X15834468Y-14878936D01*
X15834468Y-14878936D02*
X15843991Y-14859888D01*
X15843991Y-14859888D02*
X15843991Y-14812269D01*
X15843991Y-14812269D02*
X15834468Y-14793222D01*
X15834468Y-14793222D02*
X15824944Y-14783698D01*
X15824944Y-14783698D02*
X15805896Y-14774174D01*
X15805896Y-14774174D02*
X15767801Y-14774174D01*
X15767801Y-14774174D02*
X15748753Y-14783698D01*
X15748753Y-14783698D02*
X15739229Y-14793222D01*
X15739229Y-14793222D02*
X15729706Y-14812269D01*
X16082087Y-14897984D02*
X16082087Y-14697984D01*
X16167801Y-14897984D02*
X16167801Y-14793222D01*
X16167801Y-14793222D02*
X16158277Y-14774174D01*
X16158277Y-14774174D02*
X16139230Y-14764650D01*
X16139230Y-14764650D02*
X16110658Y-14764650D01*
X16110658Y-14764650D02*
X16091610Y-14774174D01*
X16091610Y-14774174D02*
X16082087Y-14783698D01*
X16291610Y-14897984D02*
X16272563Y-14888460D01*
X16272563Y-14888460D02*
X16263039Y-14878936D01*
X16263039Y-14878936D02*
X16253515Y-14859888D01*
X16253515Y-14859888D02*
X16253515Y-14802746D01*
X16253515Y-14802746D02*
X16263039Y-14783698D01*
X16263039Y-14783698D02*
X16272563Y-14774174D01*
X16272563Y-14774174D02*
X16291610Y-14764650D01*
X16291610Y-14764650D02*
X16320182Y-14764650D01*
X16320182Y-14764650D02*
X16339230Y-14774174D01*
X16339230Y-14774174D02*
X16348753Y-14783698D01*
X16348753Y-14783698D02*
X16358277Y-14802746D01*
X16358277Y-14802746D02*
X16358277Y-14859888D01*
X16358277Y-14859888D02*
X16348753Y-14878936D01*
X16348753Y-14878936D02*
X16339230Y-14888460D01*
X16339230Y-14888460D02*
X16320182Y-14897984D01*
X16320182Y-14897984D02*
X16291610Y-14897984D01*
X16472563Y-14897984D02*
X16453515Y-14888460D01*
X16453515Y-14888460D02*
X16443991Y-14869412D01*
X16443991Y-14869412D02*
X16443991Y-14697984D01*
X16624944Y-14888460D02*
X16605896Y-14897984D01*
X16605896Y-14897984D02*
X16567801Y-14897984D01*
X16567801Y-14897984D02*
X16548753Y-14888460D01*
X16548753Y-14888460D02*
X16539230Y-14869412D01*
X16539230Y-14869412D02*
X16539230Y-14793222D01*
X16539230Y-14793222D02*
X16548753Y-14774174D01*
X16548753Y-14774174D02*
X16567801Y-14764650D01*
X16567801Y-14764650D02*
X16605896Y-14764650D01*
X16605896Y-14764650D02*
X16624944Y-14774174D01*
X16624944Y-14774174D02*
X16634468Y-14793222D01*
X16634468Y-14793222D02*
X16634468Y-14812269D01*
X16634468Y-14812269D02*
X16539230Y-14831317D01*
X16710658Y-14888460D02*
X16729706Y-14897984D01*
X16729706Y-14897984D02*
X16767801Y-14897984D01*
X16767801Y-14897984D02*
X16786849Y-14888460D01*
X16786849Y-14888460D02*
X16796373Y-14869412D01*
X16796373Y-14869412D02*
X16796373Y-14859888D01*
X16796373Y-14859888D02*
X16786849Y-14840841D01*
X16786849Y-14840841D02*
X16767801Y-14831317D01*
X16767801Y-14831317D02*
X16739230Y-14831317D01*
X16739230Y-14831317D02*
X16720182Y-14821793D01*
X16720182Y-14821793D02*
X16710658Y-14802746D01*
X16710658Y-14802746D02*
X16710658Y-14793222D01*
X16710658Y-14793222D02*
X16720182Y-14774174D01*
X16720182Y-14774174D02*
X16739230Y-14764650D01*
X16739230Y-14764650D02*
X16767801Y-14764650D01*
X16767801Y-14764650D02*
X16786849Y-14774174D01*
X16863039Y-14974174D02*
X16872563Y-14964650D01*
X16872563Y-14964650D02*
X16891611Y-14936079D01*
X16891611Y-14936079D02*
X16901134Y-14917031D01*
X16901134Y-14917031D02*
X16910658Y-14888460D01*
X16910658Y-14888460D02*
X16920182Y-14840841D01*
X16920182Y-14840841D02*
X16920182Y-14802746D01*
X16920182Y-14802746D02*
X16910658Y-14755127D01*
X16910658Y-14755127D02*
X16901134Y-14726555D01*
X16901134Y-14726555D02*
X16891611Y-14707508D01*
X16891611Y-14707508D02*
X16872563Y-14678936D01*
X16872563Y-14678936D02*
X16863039Y-14669412D01*
M02*
