G04 #@! TF.GenerationSoftware,KiCad,Pcbnew,8.0.1*
G04 #@! TF.CreationDate,2024-03-24T21:19:35-05:00*
G04 #@! TF.ProjectId,minimidi_v1,6d696e69-6d69-4646-995f-76312e6b6963,rev?*
G04 #@! TF.SameCoordinates,Original*
G04 #@! TF.FileFunction,Copper,L1,Top*
G04 #@! TF.FilePolarity,Positive*
%FSLAX46Y46*%
G04 Gerber Fmt 4.6, Leading zero omitted, Abs format (unit mm)*
G04 Created by KiCad (PCBNEW 8.0.1) date 2024-03-24 21:19:35*
%MOMM*%
%LPD*%
G01*
G04 APERTURE LIST*
G04 Aperture macros list*
%AMRoundRect*
0 Rectangle with rounded corners*
0 $1 Rounding radius*
0 $2 $3 $4 $5 $6 $7 $8 $9 X,Y pos of 4 corners*
0 Add a 4 corners polygon primitive as box body*
4,1,4,$2,$3,$4,$5,$6,$7,$8,$9,$2,$3,0*
0 Add four circle primitives for the rounded corners*
1,1,$1+$1,$2,$3*
1,1,$1+$1,$4,$5*
1,1,$1+$1,$6,$7*
1,1,$1+$1,$8,$9*
0 Add four rect primitives between the rounded corners*
20,1,$1+$1,$2,$3,$4,$5,0*
20,1,$1+$1,$4,$5,$6,$7,0*
20,1,$1+$1,$6,$7,$8,$9,0*
20,1,$1+$1,$8,$9,$2,$3,0*%
G04 Aperture macros list end*
G04 #@! TA.AperFunction,SMDPad,CuDef*
%ADD10R,1.400000X2.800000*%
G04 #@! TD*
G04 #@! TA.AperFunction,SMDPad,CuDef*
%ADD11R,1.600000X2.800000*%
G04 #@! TD*
G04 #@! TA.AperFunction,SMDPad,CuDef*
%ADD12RoundRect,0.112500X0.112500X-0.187500X0.112500X0.187500X-0.112500X0.187500X-0.112500X-0.187500X0*%
G04 #@! TD*
G04 #@! TA.AperFunction,SMDPad,CuDef*
%ADD13RoundRect,0.243750X-0.456250X0.243750X-0.456250X-0.243750X0.456250X-0.243750X0.456250X0.243750X0*%
G04 #@! TD*
G04 #@! TA.AperFunction,SMDPad,CuDef*
%ADD14R,1.780000X2.000000*%
G04 #@! TD*
G04 #@! TA.AperFunction,SMDPad,CuDef*
%ADD15RoundRect,0.250000X-0.400000X-0.625000X0.400000X-0.625000X0.400000X0.625000X-0.400000X0.625000X0*%
G04 #@! TD*
G04 #@! TA.AperFunction,ComponentPad*
%ADD16R,1.700000X1.700000*%
G04 #@! TD*
G04 #@! TA.AperFunction,ComponentPad*
%ADD17O,1.700000X1.700000*%
G04 #@! TD*
G04 #@! TA.AperFunction,SMDPad,CuDef*
%ADD18RoundRect,0.250000X0.400000X0.625000X-0.400000X0.625000X-0.400000X-0.625000X0.400000X-0.625000X0*%
G04 #@! TD*
G04 #@! TA.AperFunction,SMDPad,CuDef*
%ADD19RoundRect,0.250000X0.262500X0.450000X-0.262500X0.450000X-0.262500X-0.450000X0.262500X-0.450000X0*%
G04 #@! TD*
G04 #@! TA.AperFunction,SMDPad,CuDef*
%ADD20RoundRect,0.250000X-0.625000X0.400000X-0.625000X-0.400000X0.625000X-0.400000X0.625000X0.400000X0*%
G04 #@! TD*
G04 #@! TA.AperFunction,SMDPad,CuDef*
%ADD21RoundRect,0.250000X0.625000X-0.400000X0.625000X0.400000X-0.625000X0.400000X-0.625000X-0.400000X0*%
G04 #@! TD*
G04 #@! TA.AperFunction,ViaPad*
%ADD22C,0.600000*%
G04 #@! TD*
G04 #@! TA.AperFunction,Conductor*
%ADD23C,0.200000*%
G04 #@! TD*
G04 APERTURE END LIST*
D10*
X155368098Y-132275000D03*
X164768098Y-132275000D03*
X157368098Y-124875000D03*
D11*
X168768098Y-127825000D03*
D12*
X168700000Y-124875000D03*
X168700000Y-122775000D03*
D13*
X121500000Y-124875000D03*
X121500000Y-126750000D03*
D14*
X176380000Y-119010000D03*
X173840000Y-119010000D03*
X171300000Y-119010000D03*
X171300000Y-128540000D03*
X173840000Y-128540000D03*
X176380000Y-128540000D03*
D15*
X164100000Y-134875000D03*
X167200000Y-134875000D03*
D16*
X140300000Y-132635000D03*
D17*
X140300000Y-135175000D03*
D13*
X121500000Y-121500000D03*
X121500000Y-123375000D03*
D10*
X125368098Y-132275000D03*
X134768098Y-132275000D03*
X127368098Y-124875000D03*
D11*
X138768098Y-127825000D03*
D18*
X162300000Y-112975000D03*
X159200000Y-112975000D03*
D19*
X131112500Y-124075000D03*
X129287500Y-124075000D03*
D20*
X137300000Y-112075000D03*
X137300000Y-115175000D03*
X167300000Y-112075000D03*
X167300000Y-115175000D03*
D16*
X170300000Y-115475000D03*
D17*
X170300000Y-112935000D03*
D19*
X161112500Y-124075000D03*
X159287500Y-124075000D03*
D18*
X132300000Y-112975000D03*
X129200000Y-112975000D03*
D13*
X151500000Y-124875000D03*
X151500000Y-126750000D03*
D19*
X159112500Y-134775000D03*
X157287500Y-134775000D03*
D14*
X146380000Y-119010000D03*
X143840000Y-119010000D03*
X141300000Y-119010000D03*
X141300000Y-128540000D03*
X143840000Y-128540000D03*
X146380000Y-128540000D03*
D19*
X129112500Y-134775000D03*
X127287500Y-134775000D03*
D10*
X125368098Y-123275000D03*
X134768098Y-123275000D03*
X127368098Y-115875000D03*
D11*
X138768098Y-118825000D03*
D15*
X134100000Y-134875000D03*
X137200000Y-134875000D03*
D13*
X151500000Y-121500000D03*
X151500000Y-123375000D03*
D16*
X170300000Y-132635000D03*
D17*
X170300000Y-135175000D03*
D10*
X155368098Y-123275000D03*
X164768098Y-123275000D03*
X157368098Y-115875000D03*
D11*
X168768098Y-118825000D03*
D21*
X164900000Y-115175000D03*
X164900000Y-112075000D03*
D12*
X138700000Y-124875000D03*
X138700000Y-122775000D03*
D21*
X134900000Y-115175000D03*
X134900000Y-112075000D03*
D16*
X140300000Y-115475000D03*
D17*
X140300000Y-112935000D03*
D13*
X151500000Y-94900000D03*
X151500000Y-96775000D03*
D16*
X170300000Y-102660000D03*
D17*
X170300000Y-105200000D03*
D13*
X151500000Y-91525000D03*
X151500000Y-93400000D03*
D10*
X155368098Y-102300000D03*
X164768098Y-102300000D03*
X157368098Y-94900000D03*
D11*
X168768098Y-97850000D03*
D19*
X161112500Y-94100000D03*
X159287500Y-94100000D03*
D20*
X167300000Y-82100000D03*
X167300000Y-85200000D03*
D18*
X162300000Y-83000000D03*
X159200000Y-83000000D03*
D14*
X176380000Y-89035000D03*
X173840000Y-89035000D03*
X171300000Y-89035000D03*
X171300000Y-98565000D03*
X173840000Y-98565000D03*
X176380000Y-98565000D03*
D19*
X159112500Y-104800000D03*
X157287500Y-104800000D03*
D10*
X155368098Y-93300000D03*
X164768098Y-93300000D03*
X157368098Y-85900000D03*
D11*
X168768098Y-88850000D03*
D15*
X164100000Y-104900000D03*
X167200000Y-104900000D03*
D12*
X168700000Y-94900000D03*
X168700000Y-92800000D03*
D21*
X164900000Y-85200000D03*
X164900000Y-82100000D03*
D16*
X170300000Y-85500000D03*
D17*
X170300000Y-82960000D03*
D13*
X121500000Y-93400000D03*
X121500000Y-91525000D03*
D19*
X131112500Y-94100000D03*
X129287500Y-94100000D03*
X129112500Y-104800000D03*
X127287500Y-104800000D03*
D14*
X146380000Y-98565000D03*
X143840000Y-98565000D03*
X141300000Y-98565000D03*
X141300000Y-89035000D03*
X143840000Y-89035000D03*
X146380000Y-89035000D03*
D21*
X134900000Y-82100000D03*
X134900000Y-85200000D03*
D15*
X134100000Y-104900000D03*
X137200000Y-104900000D03*
D20*
X137300000Y-82100000D03*
X137300000Y-85200000D03*
D18*
X129200000Y-83000000D03*
X132300000Y-83000000D03*
D10*
X125368098Y-93300000D03*
X134768098Y-93300000D03*
X127368098Y-85900000D03*
D11*
X138768098Y-88850000D03*
D16*
X140300000Y-85500000D03*
D17*
X140300000Y-82960000D03*
D11*
X138768098Y-97850000D03*
D10*
X127368098Y-94900000D03*
X134768098Y-102300000D03*
X125368098Y-102300000D03*
D16*
X140300000Y-102660000D03*
D17*
X140300000Y-105200000D03*
D13*
X121500000Y-96775000D03*
X121500000Y-94900000D03*
D12*
X138700000Y-92800000D03*
X138700000Y-94900000D03*
D22*
X130600000Y-135175000D03*
X129300000Y-125375000D03*
X141200000Y-125575000D03*
X137200000Y-122775000D03*
X153200000Y-126750000D03*
X153200000Y-124875000D03*
X167200000Y-122775000D03*
X158600000Y-115875000D03*
X137300000Y-116475000D03*
X133000000Y-132575000D03*
X158900000Y-129875000D03*
X159300000Y-125375000D03*
X133600000Y-117575000D03*
X123200000Y-124875000D03*
X160600000Y-135175000D03*
X158100000Y-113875000D03*
X167300000Y-116475000D03*
X163000000Y-132575000D03*
X163600000Y-117575000D03*
X123400000Y-121475000D03*
X123200000Y-126750000D03*
X128100000Y-113875000D03*
X171200000Y-125575000D03*
X128900000Y-129875000D03*
X153400000Y-121475000D03*
X128600000Y-115875000D03*
X160600000Y-105200000D03*
X159300000Y-95400000D03*
X171200000Y-95600000D03*
X167200000Y-92800000D03*
X167300000Y-86500000D03*
X163000000Y-102600000D03*
X163600000Y-87600000D03*
X153200000Y-94900000D03*
X153400000Y-91500000D03*
X153200000Y-96775000D03*
X158100000Y-83900000D03*
X158900000Y-99900000D03*
X158600000Y-85900000D03*
X141200000Y-95600000D03*
X123200000Y-94900000D03*
X137200000Y-92800000D03*
X128900000Y-99900000D03*
X128100000Y-83900000D03*
X137300000Y-86500000D03*
X128600000Y-85900000D03*
X133600000Y-87600000D03*
X129300000Y-95400000D03*
X123200000Y-96775000D03*
X130600000Y-105200000D03*
X133000000Y-102600000D03*
X123400000Y-91500000D03*
D23*
X168700000Y-124875000D02*
X170434314Y-124875000D01*
X167200000Y-134875000D02*
X167200000Y-126375000D01*
X162300000Y-112975000D02*
X162268098Y-113006902D01*
X172505000Y-117675000D02*
X173840000Y-119010000D01*
X132268098Y-113006902D02*
X132268098Y-122919402D01*
X134768098Y-118743098D02*
X133600000Y-117575000D01*
X167200000Y-126375000D02*
X168700000Y-124875000D01*
X135850000Y-114175000D02*
X139000000Y-114175000D01*
X161112500Y-132775000D02*
X159112500Y-134775000D01*
X123375000Y-121500000D02*
X123400000Y-121475000D01*
X137200000Y-126375000D02*
X138700000Y-124875000D01*
X170100000Y-121375000D02*
X170100000Y-117675000D01*
X140100000Y-117675000D02*
X142505000Y-117675000D01*
X128100000Y-113875000D02*
X128300000Y-113875000D01*
X137300000Y-116475000D02*
X137300000Y-115125000D01*
X157287500Y-131494402D02*
X157287500Y-134775000D01*
X167200000Y-122775000D02*
X168700000Y-122775000D01*
X140300000Y-112935000D02*
X139390000Y-112025000D01*
X139390000Y-112025000D02*
X137300000Y-112025000D01*
X171450000Y-134025000D02*
X170300000Y-135175000D01*
X173840000Y-129835000D02*
X171450000Y-132225000D01*
X141450000Y-134025000D02*
X140300000Y-135175000D01*
X141300000Y-128540000D02*
X141300000Y-125675000D01*
X170434314Y-124875000D02*
X176299314Y-119010000D01*
X127368098Y-124175000D02*
X128498706Y-123044392D01*
X130100000Y-123114641D02*
X130100000Y-128675000D01*
X127368098Y-124875000D02*
X127368098Y-124175000D01*
X121500000Y-124875000D02*
X123200000Y-124875000D01*
X160029751Y-123044392D02*
X160100000Y-123114641D01*
X129300000Y-125375000D02*
X129300000Y-124087500D01*
X167300000Y-116475000D02*
X167300000Y-115125000D01*
X159300000Y-124087500D02*
X159287500Y-124075000D01*
X142650000Y-127240000D02*
X143015000Y-126875000D01*
X168700000Y-122775000D02*
X170100000Y-121375000D01*
X153800000Y-128006902D02*
X157287500Y-131494402D01*
X139000000Y-114175000D02*
X140300000Y-115475000D01*
X162268098Y-122919402D02*
X161112500Y-124075000D01*
X134100000Y-134875000D02*
X130900000Y-134875000D01*
X151500000Y-123375000D02*
X152768098Y-123375000D01*
X141450000Y-132225000D02*
X141450000Y-134025000D01*
X163950000Y-112975000D02*
X164900000Y-112025000D01*
X138700000Y-124875000D02*
X140434314Y-124875000D01*
X163000000Y-132575000D02*
X164468098Y-132575000D01*
X121500000Y-123375000D02*
X122768098Y-123375000D01*
X138150000Y-134785000D02*
X138150000Y-135734744D01*
X140100000Y-121375000D02*
X140100000Y-117675000D01*
X134468098Y-132575000D02*
X134768098Y-132275000D01*
X138700000Y-122775000D02*
X140100000Y-121375000D01*
X137834744Y-136050000D02*
X130387500Y-136050000D01*
X167834744Y-136050000D02*
X160387500Y-136050000D01*
X168150000Y-135734744D02*
X167834744Y-136050000D01*
X155368098Y-123275000D02*
X155368098Y-125777944D01*
X158100000Y-135475000D02*
X159100000Y-136475000D01*
X169000000Y-136475000D02*
X170300000Y-135175000D01*
X137200000Y-122775000D02*
X138700000Y-122775000D01*
X153200000Y-126750000D02*
X151500000Y-126750000D01*
X130100000Y-128675000D02*
X128900000Y-129875000D01*
X173840000Y-128540000D02*
X173840000Y-129835000D01*
X170300000Y-132635000D02*
X172650000Y-130285000D01*
X143015000Y-126875000D02*
X144715000Y-126875000D01*
X159100000Y-136475000D02*
X169000000Y-136475000D01*
X125368098Y-123275000D02*
X125368098Y-125777944D01*
X171300000Y-128540000D02*
X171300000Y-125675000D01*
X164468098Y-132575000D02*
X164768098Y-132275000D01*
X158100000Y-113875000D02*
X158300000Y-113875000D01*
X160100000Y-123114641D02*
X160100000Y-128675000D01*
X173015000Y-126875000D02*
X174715000Y-126875000D01*
X123800000Y-124406902D02*
X123800000Y-128006902D01*
X169000000Y-114175000D02*
X170300000Y-115475000D01*
X164768098Y-118743098D02*
X163600000Y-117575000D01*
X129300000Y-124087500D02*
X129287500Y-124075000D01*
X162300000Y-112975000D02*
X163950000Y-112975000D01*
X170100000Y-117675000D02*
X172505000Y-117675000D01*
X168150000Y-134785000D02*
X168150000Y-135734744D01*
X123200000Y-126750000D02*
X121500000Y-126750000D01*
X123800000Y-128006902D02*
X127287500Y-131494402D01*
X142505000Y-117675000D02*
X143840000Y-119010000D01*
X127368098Y-115875000D02*
X128600000Y-115875000D01*
X161112500Y-124075000D02*
X161112500Y-132775000D01*
X158300000Y-113875000D02*
X159200000Y-112975000D01*
X169390000Y-112025000D02*
X167300000Y-112025000D01*
X125368098Y-125777944D02*
X128100000Y-128509846D01*
X160900000Y-134875000D02*
X160600000Y-135175000D01*
X164100000Y-134875000D02*
X160900000Y-134875000D01*
X172650000Y-130285000D02*
X172650000Y-127240000D01*
X164900000Y-115125000D02*
X165850000Y-114175000D01*
X132268098Y-122919402D02*
X131112500Y-124075000D01*
X174715000Y-126875000D02*
X176380000Y-128540000D01*
X134900000Y-115125000D02*
X135850000Y-114175000D01*
X155368098Y-125777944D02*
X158100000Y-128509846D01*
X157368098Y-124175000D02*
X158498706Y-123044392D01*
X137200000Y-134875000D02*
X137200000Y-126375000D01*
X131112500Y-124075000D02*
X131112500Y-132775000D01*
X158498706Y-123044392D02*
X160029751Y-123044392D01*
X176299314Y-119010000D02*
X176380000Y-119010000D01*
X170300000Y-112935000D02*
X169390000Y-112025000D01*
X153800000Y-124406902D02*
X153800000Y-128006902D01*
X151500000Y-124875000D02*
X153200000Y-124875000D01*
X134768098Y-123275000D02*
X134768098Y-118743098D01*
X171450000Y-132225000D02*
X171450000Y-134025000D01*
X157368098Y-124875000D02*
X157368098Y-124175000D01*
X142650000Y-130285000D02*
X142650000Y-127240000D01*
X140300000Y-132635000D02*
X138150000Y-134785000D01*
X128100000Y-128509846D02*
X128100000Y-135475000D01*
X165850000Y-114175000D02*
X169000000Y-114175000D01*
X153375000Y-121500000D02*
X153400000Y-121475000D01*
X170300000Y-132635000D02*
X168150000Y-134785000D01*
X157368098Y-115875000D02*
X158600000Y-115875000D01*
X160100000Y-128675000D02*
X158900000Y-129875000D01*
X128498706Y-123044392D02*
X130029751Y-123044392D01*
X130900000Y-134875000D02*
X130600000Y-135175000D01*
X140434314Y-124875000D02*
X146299314Y-119010000D01*
X130029751Y-123044392D02*
X130100000Y-123114641D01*
X128100000Y-135475000D02*
X129100000Y-136475000D01*
X138150000Y-135734744D02*
X137834744Y-136050000D01*
X129100000Y-136475000D02*
X139000000Y-136475000D01*
X151500000Y-121500000D02*
X153375000Y-121500000D01*
X143840000Y-129835000D02*
X141450000Y-132225000D01*
X143840000Y-128540000D02*
X143840000Y-129835000D01*
X133000000Y-132575000D02*
X134468098Y-132575000D01*
X140300000Y-132635000D02*
X142650000Y-130285000D01*
X146299314Y-119010000D02*
X146380000Y-119010000D01*
X127287500Y-131494402D02*
X127287500Y-134775000D01*
X164768098Y-123275000D02*
X164768098Y-118743098D01*
X141300000Y-125675000D02*
X141200000Y-125575000D01*
X171300000Y-125675000D02*
X171200000Y-125575000D01*
X172650000Y-127240000D02*
X173015000Y-126875000D01*
X121500000Y-121500000D02*
X123375000Y-121500000D01*
X139000000Y-136475000D02*
X140300000Y-135175000D01*
X128300000Y-113875000D02*
X129200000Y-112975000D01*
X130387500Y-136050000D02*
X129112500Y-134775000D01*
X132300000Y-112975000D02*
X133950000Y-112975000D01*
X159300000Y-125375000D02*
X159300000Y-124087500D01*
X160387500Y-136050000D02*
X159112500Y-134775000D01*
X158100000Y-128509846D02*
X158100000Y-135475000D01*
X162268098Y-113006902D02*
X162268098Y-122919402D01*
X131112500Y-132775000D02*
X129112500Y-134775000D01*
X144715000Y-126875000D02*
X146380000Y-128540000D01*
X152768098Y-123375000D02*
X153800000Y-124406902D01*
X132300000Y-112975000D02*
X132268098Y-113006902D01*
X122768098Y-123375000D02*
X123800000Y-124406902D01*
X133950000Y-112975000D02*
X134900000Y-112025000D01*
X162268098Y-83031902D02*
X162268098Y-92944402D01*
X164768098Y-88768098D02*
X163600000Y-87600000D01*
X165850000Y-84200000D02*
X169000000Y-84200000D01*
X153375000Y-91525000D02*
X153400000Y-91500000D01*
X167200000Y-96400000D02*
X168700000Y-94900000D01*
X170100000Y-87700000D02*
X172505000Y-87700000D01*
X158100000Y-83900000D02*
X158300000Y-83900000D01*
X167300000Y-86500000D02*
X167300000Y-85150000D01*
X170300000Y-82960000D02*
X169390000Y-82050000D01*
X169390000Y-82050000D02*
X167300000Y-82050000D01*
X171450000Y-104050000D02*
X170300000Y-105200000D01*
X171300000Y-98565000D02*
X171300000Y-95700000D01*
X157368098Y-94200000D02*
X158498706Y-93069392D01*
X160100000Y-93139641D02*
X160100000Y-98700000D01*
X157368098Y-94900000D02*
X157368098Y-94200000D01*
X151500000Y-94900000D02*
X153200000Y-94900000D01*
X159300000Y-95400000D02*
X159300000Y-94112500D01*
X172650000Y-97265000D02*
X173015000Y-96900000D01*
X169000000Y-84200000D02*
X170300000Y-85500000D01*
X164100000Y-104900000D02*
X160900000Y-104900000D01*
X171450000Y-102250000D02*
X171450000Y-104050000D01*
X168700000Y-94900000D02*
X170434314Y-94900000D01*
X151500000Y-93400000D02*
X152768098Y-93400000D01*
X168150000Y-104810000D02*
X168150000Y-105759744D01*
X170100000Y-91400000D02*
X170100000Y-87700000D01*
X164468098Y-102600000D02*
X164768098Y-102300000D01*
X168700000Y-92800000D02*
X170100000Y-91400000D01*
X167834744Y-106075000D02*
X160387500Y-106075000D01*
X167200000Y-92800000D02*
X168700000Y-92800000D01*
X160100000Y-98700000D02*
X158900000Y-99900000D01*
X173015000Y-96900000D02*
X174715000Y-96900000D01*
X155368098Y-93300000D02*
X155368098Y-95802944D01*
X153800000Y-94431902D02*
X153800000Y-98031902D01*
X159300000Y-94112500D02*
X159287500Y-94100000D01*
X153200000Y-96775000D02*
X151500000Y-96775000D01*
X153800000Y-98031902D02*
X157287500Y-101519402D01*
X172505000Y-87700000D02*
X173840000Y-89035000D01*
X157368098Y-85900000D02*
X158600000Y-85900000D01*
X155368098Y-95802944D02*
X158100000Y-98534846D01*
X162268098Y-92944402D02*
X161112500Y-94100000D01*
X164900000Y-85150000D02*
X165850000Y-84200000D01*
X167200000Y-104900000D02*
X167200000Y-96400000D01*
X161112500Y-94100000D02*
X161112500Y-102800000D01*
X164768098Y-93300000D02*
X164768098Y-88768098D01*
X172650000Y-100310000D02*
X172650000Y-97265000D01*
X170300000Y-102660000D02*
X168150000Y-104810000D01*
X158100000Y-98534846D02*
X158100000Y-105500000D01*
X158498706Y-93069392D02*
X160029751Y-93069392D01*
X160900000Y-104900000D02*
X160600000Y-105200000D01*
X170434314Y-94900000D02*
X176299314Y-89035000D01*
X160029751Y-93069392D02*
X160100000Y-93139641D01*
X158100000Y-105500000D02*
X159100000Y-106500000D01*
X168150000Y-105759744D02*
X167834744Y-106075000D01*
X159100000Y-106500000D02*
X169000000Y-106500000D01*
X173840000Y-99860000D02*
X171450000Y-102250000D01*
X173840000Y-98565000D02*
X173840000Y-99860000D01*
X163000000Y-102600000D02*
X164468098Y-102600000D01*
X170300000Y-102660000D02*
X172650000Y-100310000D01*
X176299314Y-89035000D02*
X176380000Y-89035000D01*
X157287500Y-101519402D02*
X157287500Y-104800000D01*
X171300000Y-95700000D02*
X171200000Y-95600000D01*
X151500000Y-91525000D02*
X153375000Y-91525000D01*
X169000000Y-106500000D02*
X170300000Y-105200000D01*
X158300000Y-83900000D02*
X159200000Y-83000000D01*
X160387500Y-106075000D02*
X159112500Y-104800000D01*
X162300000Y-83000000D02*
X163950000Y-83000000D01*
X161112500Y-102800000D02*
X159112500Y-104800000D01*
X174715000Y-96900000D02*
X176380000Y-98565000D01*
X162300000Y-83000000D02*
X162268098Y-83031902D01*
X152768098Y-93400000D02*
X153800000Y-94431902D01*
X163950000Y-83000000D02*
X164900000Y-82050000D01*
X141300000Y-95700000D02*
X141200000Y-95600000D01*
X141300000Y-98565000D02*
X141300000Y-95700000D01*
X146299314Y-89035000D02*
X146380000Y-89035000D01*
X140434314Y-94900000D02*
X146299314Y-89035000D01*
X138700000Y-94900000D02*
X140434314Y-94900000D01*
X138700000Y-92800000D02*
X140100000Y-91400000D01*
X140100000Y-91400000D02*
X140100000Y-87700000D01*
X140100000Y-87700000D02*
X142505000Y-87700000D01*
X142505000Y-87700000D02*
X143840000Y-89035000D01*
X121500000Y-94900000D02*
X123200000Y-94900000D01*
X137200000Y-92800000D02*
X138700000Y-92800000D01*
X121500000Y-93400000D02*
X122768098Y-93400000D01*
X122768098Y-93400000D02*
X123800000Y-94431902D01*
X123800000Y-94431902D02*
X123800000Y-98031902D01*
X123800000Y-98031902D02*
X127287500Y-101519402D01*
X127287500Y-101519402D02*
X127287500Y-104800000D01*
X123200000Y-96775000D02*
X121500000Y-96775000D01*
X132300000Y-83000000D02*
X132268098Y-83031902D01*
X132268098Y-83031902D02*
X132268098Y-92944402D01*
X132268098Y-92944402D02*
X131112500Y-94100000D01*
X130100000Y-93139641D02*
X130100000Y-98700000D01*
X130029751Y-93069392D02*
X130100000Y-93139641D01*
X128498706Y-93069392D02*
X130029751Y-93069392D01*
X130100000Y-98700000D02*
X128900000Y-99900000D01*
X127368098Y-94200000D02*
X128498706Y-93069392D01*
X127368098Y-94900000D02*
X127368098Y-94200000D01*
X128100000Y-83900000D02*
X128300000Y-83900000D01*
X128300000Y-83900000D02*
X129200000Y-83000000D01*
X137300000Y-86500000D02*
X137300000Y-85150000D01*
X127368098Y-85900000D02*
X128600000Y-85900000D01*
X134768098Y-88768098D02*
X133600000Y-87600000D01*
X134768098Y-93300000D02*
X134768098Y-88768098D01*
X134900000Y-85150000D02*
X135850000Y-84200000D01*
X135850000Y-84200000D02*
X139000000Y-84200000D01*
X139000000Y-84200000D02*
X140300000Y-85500000D01*
X132300000Y-83000000D02*
X133950000Y-83000000D01*
X133950000Y-83000000D02*
X134900000Y-82050000D01*
X129300000Y-94112500D02*
X129287500Y-94100000D01*
X129300000Y-95400000D02*
X129300000Y-94112500D01*
X130900000Y-104900000D02*
X130600000Y-105200000D01*
X134100000Y-104900000D02*
X130900000Y-104900000D01*
X125368098Y-93300000D02*
X125368098Y-95802944D01*
X125368098Y-95802944D02*
X128100000Y-98534846D01*
X128100000Y-98534846D02*
X128100000Y-105500000D01*
X128100000Y-105500000D02*
X129100000Y-106500000D01*
X129100000Y-106500000D02*
X139000000Y-106500000D01*
X139000000Y-106500000D02*
X140300000Y-105200000D01*
X133000000Y-102600000D02*
X134468098Y-102600000D01*
X134468098Y-102600000D02*
X134768098Y-102300000D01*
X140300000Y-102660000D02*
X138150000Y-104810000D01*
X138150000Y-104810000D02*
X138150000Y-105759744D01*
X130387500Y-106075000D02*
X129112500Y-104800000D01*
X138150000Y-105759744D02*
X137834744Y-106075000D01*
X137834744Y-106075000D02*
X130387500Y-106075000D01*
X131112500Y-94100000D02*
X131112500Y-102800000D01*
X131112500Y-102800000D02*
X129112500Y-104800000D01*
X137200000Y-104900000D02*
X137200000Y-96400000D01*
X137200000Y-96400000D02*
X138700000Y-94900000D01*
X123375000Y-91525000D02*
X123400000Y-91500000D01*
X121500000Y-91525000D02*
X123375000Y-91525000D01*
X140300000Y-102660000D02*
X142650000Y-100310000D01*
X143015000Y-96900000D02*
X144715000Y-96900000D01*
X142650000Y-100310000D02*
X142650000Y-97265000D01*
X144715000Y-96900000D02*
X146380000Y-98565000D01*
X142650000Y-97265000D02*
X143015000Y-96900000D01*
X143840000Y-98565000D02*
X143840000Y-99860000D01*
X141450000Y-102250000D02*
X141450000Y-104050000D01*
X143840000Y-99860000D02*
X141450000Y-102250000D01*
X141450000Y-104050000D02*
X140300000Y-105200000D01*
X140300000Y-82960000D02*
X139390000Y-82050000D01*
X139390000Y-82050000D02*
X137300000Y-82050000D01*
G04 #@! TA.AperFunction,Conductor*
G36*
X144033039Y-98334685D02*
G01*
X144078794Y-98387489D01*
X144090000Y-98439000D01*
X144090000Y-100065000D01*
X144777828Y-100065000D01*
X144777844Y-100064999D01*
X144837372Y-100058598D01*
X144837379Y-100058596D01*
X144972086Y-100008354D01*
X144972089Y-100008352D01*
X145035271Y-99961054D01*
X145100735Y-99936636D01*
X145169008Y-99951487D01*
X145183887Y-99961049D01*
X145247076Y-100008352D01*
X145247668Y-100008795D01*
X145247671Y-100008797D01*
X145382517Y-100059091D01*
X145382516Y-100059091D01*
X145389444Y-100059835D01*
X145442127Y-100065500D01*
X147317872Y-100065499D01*
X147377483Y-100059091D01*
X147512331Y-100008796D01*
X147627546Y-99922546D01*
X147713796Y-99807331D01*
X147759818Y-99683940D01*
X147801689Y-99628006D01*
X147867153Y-99603589D01*
X147935426Y-99618440D01*
X147984832Y-99667845D01*
X148000000Y-99727273D01*
X148000000Y-107876000D01*
X147980315Y-107943039D01*
X147927511Y-107988794D01*
X147876000Y-108000000D01*
X138026556Y-108000000D01*
X137959517Y-107980315D01*
X137913762Y-107927511D01*
X137902582Y-107873470D01*
X137923459Y-106850500D01*
X137925202Y-106765067D01*
X137946250Y-106698446D01*
X137999977Y-106653778D01*
X138017072Y-106647829D01*
X138066529Y-106634577D01*
X138116648Y-106605639D01*
X138203460Y-106555520D01*
X138315264Y-106443716D01*
X138315264Y-106443714D01*
X138325472Y-106433507D01*
X138325474Y-106433504D01*
X138508506Y-106250472D01*
X138508511Y-106250468D01*
X138518714Y-106240264D01*
X138518716Y-106240264D01*
X138630520Y-106128460D01*
X138694056Y-106018412D01*
X138709577Y-105991529D01*
X138750500Y-105838802D01*
X138750500Y-105680687D01*
X138750500Y-105575061D01*
X138770185Y-105508022D01*
X138822989Y-105462267D01*
X138892147Y-105452323D01*
X138955703Y-105481348D01*
X138993477Y-105540126D01*
X138994275Y-105542968D01*
X139026566Y-105663483D01*
X139026570Y-105663492D01*
X139126399Y-105877578D01*
X139261894Y-106071082D01*
X139428917Y-106238105D01*
X139622421Y-106373600D01*
X139836507Y-106473429D01*
X139836516Y-106473433D01*
X140050000Y-106530634D01*
X140050000Y-105633012D01*
X140107007Y-105665925D01*
X140234174Y-105700000D01*
X140365826Y-105700000D01*
X140492993Y-105665925D01*
X140550000Y-105633012D01*
X140550000Y-106530633D01*
X140763483Y-106473433D01*
X140763492Y-106473429D01*
X140977578Y-106373600D01*
X141171082Y-106238105D01*
X141338105Y-106071082D01*
X141473600Y-105877578D01*
X141573429Y-105663492D01*
X141573432Y-105663486D01*
X141588759Y-105606287D01*
X144149500Y-105606287D01*
X144182754Y-105816243D01*
X144190084Y-105838801D01*
X144248443Y-106018412D01*
X144344951Y-106207820D01*
X144469890Y-106379786D01*
X144620213Y-106530109D01*
X144792179Y-106655048D01*
X144792181Y-106655049D01*
X144792184Y-106655051D01*
X144981588Y-106751557D01*
X145183757Y-106817246D01*
X145393713Y-106850500D01*
X145393714Y-106850500D01*
X145606286Y-106850500D01*
X145606287Y-106850500D01*
X145816243Y-106817246D01*
X146018412Y-106751557D01*
X146207816Y-106655051D01*
X146275822Y-106605642D01*
X146379786Y-106530109D01*
X146379788Y-106530106D01*
X146379792Y-106530104D01*
X146530104Y-106379792D01*
X146530106Y-106379788D01*
X146530109Y-106379786D01*
X146655048Y-106207820D01*
X146655047Y-106207820D01*
X146655051Y-106207816D01*
X146751557Y-106018412D01*
X146817246Y-105816243D01*
X146850500Y-105606287D01*
X146850500Y-105393713D01*
X146817246Y-105183757D01*
X146751557Y-104981588D01*
X146655051Y-104792184D01*
X146655049Y-104792181D01*
X146655048Y-104792179D01*
X146530109Y-104620213D01*
X146379786Y-104469890D01*
X146207820Y-104344951D01*
X146018414Y-104248444D01*
X146018413Y-104248443D01*
X146018412Y-104248443D01*
X145816243Y-104182754D01*
X145816241Y-104182753D01*
X145816240Y-104182753D01*
X145654957Y-104157208D01*
X145606287Y-104149500D01*
X145393713Y-104149500D01*
X145345042Y-104157208D01*
X145183760Y-104182753D01*
X145183757Y-104182754D01*
X145053766Y-104224991D01*
X144981585Y-104248444D01*
X144792179Y-104344951D01*
X144620213Y-104469890D01*
X144469890Y-104620213D01*
X144344951Y-104792179D01*
X144248444Y-104981585D01*
X144182753Y-105183760D01*
X144169755Y-105265826D01*
X144149500Y-105393713D01*
X144149500Y-105606287D01*
X141588759Y-105606287D01*
X141630636Y-105450000D01*
X140733012Y-105450000D01*
X140765925Y-105392993D01*
X140800000Y-105265826D01*
X140800000Y-105134174D01*
X140765925Y-105007007D01*
X140733012Y-104950000D01*
X141630636Y-104950000D01*
X141630635Y-104949999D01*
X141573432Y-104736513D01*
X141573429Y-104736507D01*
X141473600Y-104522422D01*
X141473599Y-104522420D01*
X141338113Y-104328926D01*
X141338108Y-104328920D01*
X141216053Y-104206865D01*
X141182568Y-104145542D01*
X141187552Y-104075850D01*
X141229424Y-104019917D01*
X141260400Y-104003002D01*
X141349847Y-103969641D01*
X141392326Y-103953798D01*
X141392326Y-103953797D01*
X141392331Y-103953796D01*
X141507546Y-103867546D01*
X141593796Y-103752331D01*
X141644091Y-103617483D01*
X141650500Y-103557873D01*
X141650499Y-102210095D01*
X141670184Y-102143057D01*
X141686813Y-102122420D01*
X143018713Y-100790521D01*
X143018716Y-100790520D01*
X143130520Y-100678716D01*
X143180639Y-100591904D01*
X143209577Y-100541785D01*
X143250501Y-100389057D01*
X143250501Y-100230943D01*
X143250501Y-100223348D01*
X143250500Y-100223330D01*
X143250500Y-100189000D01*
X143270185Y-100121961D01*
X143322989Y-100076206D01*
X143374500Y-100065000D01*
X143590000Y-100065000D01*
X143590000Y-98439000D01*
X143609685Y-98371961D01*
X143662489Y-98326206D01*
X143714000Y-98315000D01*
X143966000Y-98315000D01*
X144033039Y-98334685D01*
G37*
G04 #@! TD.AperFunction*
G04 #@! TA.AperFunction,Conductor*
G36*
X174033039Y-98334685D02*
G01*
X174078794Y-98387489D01*
X174090000Y-98439000D01*
X174090000Y-100065000D01*
X174777828Y-100065000D01*
X174777844Y-100064999D01*
X174837372Y-100058598D01*
X174837379Y-100058596D01*
X174972086Y-100008354D01*
X174972089Y-100008352D01*
X175035271Y-99961054D01*
X175100735Y-99936636D01*
X175169008Y-99951487D01*
X175183887Y-99961049D01*
X175247076Y-100008352D01*
X175247668Y-100008795D01*
X175247671Y-100008797D01*
X175382517Y-100059091D01*
X175382516Y-100059091D01*
X175389444Y-100059835D01*
X175442127Y-100065500D01*
X177317872Y-100065499D01*
X177377483Y-100059091D01*
X177512331Y-100008796D01*
X177627546Y-99922546D01*
X177713796Y-99807331D01*
X177759818Y-99683940D01*
X177801689Y-99628006D01*
X177867153Y-99603589D01*
X177935426Y-99618440D01*
X177984832Y-99667845D01*
X178000000Y-99727273D01*
X178000000Y-107876000D01*
X177980315Y-107943039D01*
X177927511Y-107988794D01*
X177876000Y-108000000D01*
X168026556Y-108000000D01*
X167959517Y-107980315D01*
X167913762Y-107927511D01*
X167902582Y-107873470D01*
X167923459Y-106850500D01*
X167925202Y-106765067D01*
X167946250Y-106698446D01*
X167999977Y-106653778D01*
X168017072Y-106647829D01*
X168066529Y-106634577D01*
X168116648Y-106605639D01*
X168203460Y-106555520D01*
X168315264Y-106443716D01*
X168315264Y-106443714D01*
X168325472Y-106433507D01*
X168325474Y-106433504D01*
X168508506Y-106250472D01*
X168508511Y-106250468D01*
X168518714Y-106240264D01*
X168518716Y-106240264D01*
X168630520Y-106128460D01*
X168694056Y-106018412D01*
X168709577Y-105991529D01*
X168750500Y-105838802D01*
X168750500Y-105680687D01*
X168750500Y-105575061D01*
X168770185Y-105508022D01*
X168822989Y-105462267D01*
X168892147Y-105452323D01*
X168955703Y-105481348D01*
X168993477Y-105540126D01*
X168994275Y-105542968D01*
X169026566Y-105663483D01*
X169026570Y-105663492D01*
X169126399Y-105877578D01*
X169261894Y-106071082D01*
X169428917Y-106238105D01*
X169622421Y-106373600D01*
X169836507Y-106473429D01*
X169836516Y-106473433D01*
X170050000Y-106530634D01*
X170050000Y-105633012D01*
X170107007Y-105665925D01*
X170234174Y-105700000D01*
X170365826Y-105700000D01*
X170492993Y-105665925D01*
X170550000Y-105633012D01*
X170550000Y-106530633D01*
X170763483Y-106473433D01*
X170763492Y-106473429D01*
X170977578Y-106373600D01*
X171171082Y-106238105D01*
X171338105Y-106071082D01*
X171473600Y-105877578D01*
X171573429Y-105663492D01*
X171573432Y-105663486D01*
X171588759Y-105606287D01*
X174149500Y-105606287D01*
X174182754Y-105816243D01*
X174190084Y-105838801D01*
X174248443Y-106018412D01*
X174344951Y-106207820D01*
X174469890Y-106379786D01*
X174620213Y-106530109D01*
X174792179Y-106655048D01*
X174792181Y-106655049D01*
X174792184Y-106655051D01*
X174981588Y-106751557D01*
X175183757Y-106817246D01*
X175393713Y-106850500D01*
X175393714Y-106850500D01*
X175606286Y-106850500D01*
X175606287Y-106850500D01*
X175816243Y-106817246D01*
X176018412Y-106751557D01*
X176207816Y-106655051D01*
X176275822Y-106605642D01*
X176379786Y-106530109D01*
X176379788Y-106530106D01*
X176379792Y-106530104D01*
X176530104Y-106379792D01*
X176530106Y-106379788D01*
X176530109Y-106379786D01*
X176655048Y-106207820D01*
X176655047Y-106207820D01*
X176655051Y-106207816D01*
X176751557Y-106018412D01*
X176817246Y-105816243D01*
X176850500Y-105606287D01*
X176850500Y-105393713D01*
X176817246Y-105183757D01*
X176751557Y-104981588D01*
X176655051Y-104792184D01*
X176655049Y-104792181D01*
X176655048Y-104792179D01*
X176530109Y-104620213D01*
X176379786Y-104469890D01*
X176207820Y-104344951D01*
X176018414Y-104248444D01*
X176018413Y-104248443D01*
X176018412Y-104248443D01*
X175816243Y-104182754D01*
X175816241Y-104182753D01*
X175816240Y-104182753D01*
X175654957Y-104157208D01*
X175606287Y-104149500D01*
X175393713Y-104149500D01*
X175345042Y-104157208D01*
X175183760Y-104182753D01*
X175183757Y-104182754D01*
X175053766Y-104224991D01*
X174981585Y-104248444D01*
X174792179Y-104344951D01*
X174620213Y-104469890D01*
X174469890Y-104620213D01*
X174344951Y-104792179D01*
X174248444Y-104981585D01*
X174182753Y-105183760D01*
X174169755Y-105265826D01*
X174149500Y-105393713D01*
X174149500Y-105606287D01*
X171588759Y-105606287D01*
X171630636Y-105450000D01*
X170733012Y-105450000D01*
X170765925Y-105392993D01*
X170800000Y-105265826D01*
X170800000Y-105134174D01*
X170765925Y-105007007D01*
X170733012Y-104950000D01*
X171630636Y-104950000D01*
X171630635Y-104949999D01*
X171573432Y-104736513D01*
X171573429Y-104736507D01*
X171473600Y-104522422D01*
X171473599Y-104522420D01*
X171338113Y-104328926D01*
X171338108Y-104328920D01*
X171216053Y-104206865D01*
X171182568Y-104145542D01*
X171187552Y-104075850D01*
X171229424Y-104019917D01*
X171260400Y-104003002D01*
X171349847Y-103969641D01*
X171392326Y-103953798D01*
X171392326Y-103953797D01*
X171392331Y-103953796D01*
X171507546Y-103867546D01*
X171593796Y-103752331D01*
X171644091Y-103617483D01*
X171650500Y-103557873D01*
X171650499Y-102210095D01*
X171670184Y-102143057D01*
X171686813Y-102122420D01*
X173018713Y-100790521D01*
X173018716Y-100790520D01*
X173130520Y-100678716D01*
X173180639Y-100591904D01*
X173209577Y-100541785D01*
X173250501Y-100389057D01*
X173250501Y-100230943D01*
X173250501Y-100223348D01*
X173250500Y-100223330D01*
X173250500Y-100189000D01*
X173270185Y-100121961D01*
X173322989Y-100076206D01*
X173374500Y-100065000D01*
X173590000Y-100065000D01*
X173590000Y-98439000D01*
X173609685Y-98371961D01*
X173662489Y-98326206D01*
X173714000Y-98315000D01*
X173966000Y-98315000D01*
X174033039Y-98334685D01*
G37*
G04 #@! TD.AperFunction*
G04 #@! TA.AperFunction,Conductor*
G36*
X174033039Y-128309685D02*
G01*
X174078794Y-128362489D01*
X174090000Y-128414000D01*
X174090000Y-130040000D01*
X174777828Y-130040000D01*
X174777844Y-130039999D01*
X174837372Y-130033598D01*
X174837379Y-130033596D01*
X174972086Y-129983354D01*
X174972089Y-129983352D01*
X175035271Y-129936054D01*
X175100735Y-129911636D01*
X175169008Y-129926487D01*
X175183887Y-129936049D01*
X175247076Y-129983352D01*
X175247668Y-129983795D01*
X175247671Y-129983797D01*
X175382517Y-130034091D01*
X175382516Y-130034091D01*
X175389444Y-130034835D01*
X175442127Y-130040500D01*
X177317872Y-130040499D01*
X177377483Y-130034091D01*
X177512331Y-129983796D01*
X177627546Y-129897546D01*
X177713796Y-129782331D01*
X177759818Y-129658940D01*
X177801689Y-129603006D01*
X177867153Y-129578589D01*
X177935426Y-129593440D01*
X177984832Y-129642845D01*
X178000000Y-129702273D01*
X178000000Y-137851000D01*
X177980315Y-137918039D01*
X177927511Y-137963794D01*
X177876000Y-137975000D01*
X168026556Y-137975000D01*
X167959517Y-137955315D01*
X167913762Y-137902511D01*
X167902582Y-137848470D01*
X167923459Y-136825500D01*
X167925202Y-136740067D01*
X167946250Y-136673446D01*
X167999977Y-136628778D01*
X168017072Y-136622829D01*
X168066529Y-136609577D01*
X168116648Y-136580639D01*
X168203460Y-136530520D01*
X168315264Y-136418716D01*
X168315264Y-136418714D01*
X168325472Y-136408507D01*
X168325474Y-136408504D01*
X168508506Y-136225472D01*
X168508511Y-136225468D01*
X168518714Y-136215264D01*
X168518716Y-136215264D01*
X168630520Y-136103460D01*
X168694056Y-135993412D01*
X168709577Y-135966529D01*
X168750500Y-135813802D01*
X168750500Y-135655687D01*
X168750500Y-135550061D01*
X168770185Y-135483022D01*
X168822989Y-135437267D01*
X168892147Y-135427323D01*
X168955703Y-135456348D01*
X168993477Y-135515126D01*
X168994275Y-135517968D01*
X169026566Y-135638483D01*
X169026570Y-135638492D01*
X169126399Y-135852578D01*
X169261894Y-136046082D01*
X169428917Y-136213105D01*
X169622421Y-136348600D01*
X169836507Y-136448429D01*
X169836516Y-136448433D01*
X170050000Y-136505634D01*
X170050000Y-135608012D01*
X170107007Y-135640925D01*
X170234174Y-135675000D01*
X170365826Y-135675000D01*
X170492993Y-135640925D01*
X170550000Y-135608012D01*
X170550000Y-136505633D01*
X170763483Y-136448433D01*
X170763492Y-136448429D01*
X170977578Y-136348600D01*
X171171082Y-136213105D01*
X171338105Y-136046082D01*
X171473600Y-135852578D01*
X171573429Y-135638492D01*
X171573432Y-135638486D01*
X171588759Y-135581287D01*
X174149500Y-135581287D01*
X174182754Y-135791243D01*
X174190084Y-135813801D01*
X174248443Y-135993412D01*
X174344951Y-136182820D01*
X174469890Y-136354786D01*
X174620213Y-136505109D01*
X174792179Y-136630048D01*
X174792181Y-136630049D01*
X174792184Y-136630051D01*
X174981588Y-136726557D01*
X175183757Y-136792246D01*
X175393713Y-136825500D01*
X175393714Y-136825500D01*
X175606286Y-136825500D01*
X175606287Y-136825500D01*
X175816243Y-136792246D01*
X176018412Y-136726557D01*
X176207816Y-136630051D01*
X176275822Y-136580642D01*
X176379786Y-136505109D01*
X176379788Y-136505106D01*
X176379792Y-136505104D01*
X176530104Y-136354792D01*
X176530106Y-136354788D01*
X176530109Y-136354786D01*
X176655048Y-136182820D01*
X176655047Y-136182820D01*
X176655051Y-136182816D01*
X176751557Y-135993412D01*
X176817246Y-135791243D01*
X176850500Y-135581287D01*
X176850500Y-135368713D01*
X176817246Y-135158757D01*
X176751557Y-134956588D01*
X176655051Y-134767184D01*
X176655049Y-134767181D01*
X176655048Y-134767179D01*
X176530109Y-134595213D01*
X176379786Y-134444890D01*
X176207820Y-134319951D01*
X176018414Y-134223444D01*
X176018413Y-134223443D01*
X176018412Y-134223443D01*
X175816243Y-134157754D01*
X175816241Y-134157753D01*
X175816240Y-134157753D01*
X175654957Y-134132208D01*
X175606287Y-134124500D01*
X175393713Y-134124500D01*
X175345042Y-134132208D01*
X175183760Y-134157753D01*
X175183757Y-134157754D01*
X175053766Y-134199991D01*
X174981585Y-134223444D01*
X174792179Y-134319951D01*
X174620213Y-134444890D01*
X174469890Y-134595213D01*
X174344951Y-134767179D01*
X174248444Y-134956585D01*
X174182753Y-135158760D01*
X174169755Y-135240826D01*
X174149500Y-135368713D01*
X174149500Y-135581287D01*
X171588759Y-135581287D01*
X171630636Y-135425000D01*
X170733012Y-135425000D01*
X170765925Y-135367993D01*
X170800000Y-135240826D01*
X170800000Y-135109174D01*
X170765925Y-134982007D01*
X170733012Y-134925000D01*
X171630636Y-134925000D01*
X171630635Y-134924999D01*
X171573432Y-134711513D01*
X171573429Y-134711507D01*
X171473600Y-134497422D01*
X171473599Y-134497420D01*
X171338113Y-134303926D01*
X171338108Y-134303920D01*
X171216053Y-134181865D01*
X171182568Y-134120542D01*
X171187552Y-134050850D01*
X171229424Y-133994917D01*
X171260400Y-133978002D01*
X171349847Y-133944641D01*
X171392326Y-133928798D01*
X171392326Y-133928797D01*
X171392331Y-133928796D01*
X171507546Y-133842546D01*
X171593796Y-133727331D01*
X171644091Y-133592483D01*
X171650500Y-133532873D01*
X171650499Y-132185095D01*
X171670184Y-132118057D01*
X171686813Y-132097420D01*
X173018713Y-130765521D01*
X173018716Y-130765520D01*
X173130520Y-130653716D01*
X173180639Y-130566904D01*
X173209577Y-130516785D01*
X173250501Y-130364057D01*
X173250501Y-130205943D01*
X173250501Y-130198348D01*
X173250500Y-130198330D01*
X173250500Y-130164000D01*
X173270185Y-130096961D01*
X173322989Y-130051206D01*
X173374500Y-130040000D01*
X173590000Y-130040000D01*
X173590000Y-128414000D01*
X173609685Y-128346961D01*
X173662489Y-128301206D01*
X173714000Y-128290000D01*
X173966000Y-128290000D01*
X174033039Y-128309685D01*
G37*
G04 #@! TD.AperFunction*
G04 #@! TA.AperFunction,Conductor*
G36*
X144033039Y-128309685D02*
G01*
X144078794Y-128362489D01*
X144090000Y-128414000D01*
X144090000Y-130040000D01*
X144777828Y-130040000D01*
X144777844Y-130039999D01*
X144837372Y-130033598D01*
X144837379Y-130033596D01*
X144972086Y-129983354D01*
X144972089Y-129983352D01*
X145035271Y-129936054D01*
X145100735Y-129911636D01*
X145169008Y-129926487D01*
X145183887Y-129936049D01*
X145247076Y-129983352D01*
X145247668Y-129983795D01*
X145247671Y-129983797D01*
X145382517Y-130034091D01*
X145382516Y-130034091D01*
X145389444Y-130034835D01*
X145442127Y-130040500D01*
X147317872Y-130040499D01*
X147377483Y-130034091D01*
X147512331Y-129983796D01*
X147627546Y-129897546D01*
X147713796Y-129782331D01*
X147759818Y-129658940D01*
X147801689Y-129603006D01*
X147867153Y-129578589D01*
X147935426Y-129593440D01*
X147984832Y-129642845D01*
X148000000Y-129702273D01*
X148000000Y-137851000D01*
X147980315Y-137918039D01*
X147927511Y-137963794D01*
X147876000Y-137975000D01*
X138026556Y-137975000D01*
X137959517Y-137955315D01*
X137913762Y-137902511D01*
X137902582Y-137848470D01*
X137923459Y-136825500D01*
X137925202Y-136740067D01*
X137946250Y-136673446D01*
X137999977Y-136628778D01*
X138017072Y-136622829D01*
X138066529Y-136609577D01*
X138116648Y-136580639D01*
X138203460Y-136530520D01*
X138315264Y-136418716D01*
X138315264Y-136418714D01*
X138325472Y-136408507D01*
X138325474Y-136408504D01*
X138508506Y-136225472D01*
X138508511Y-136225468D01*
X138518714Y-136215264D01*
X138518716Y-136215264D01*
X138630520Y-136103460D01*
X138694056Y-135993412D01*
X138709577Y-135966529D01*
X138750500Y-135813802D01*
X138750500Y-135655687D01*
X138750500Y-135550061D01*
X138770185Y-135483022D01*
X138822989Y-135437267D01*
X138892147Y-135427323D01*
X138955703Y-135456348D01*
X138993477Y-135515126D01*
X138994275Y-135517968D01*
X139026566Y-135638483D01*
X139026570Y-135638492D01*
X139126399Y-135852578D01*
X139261894Y-136046082D01*
X139428917Y-136213105D01*
X139622421Y-136348600D01*
X139836507Y-136448429D01*
X139836516Y-136448433D01*
X140050000Y-136505634D01*
X140050000Y-135608012D01*
X140107007Y-135640925D01*
X140234174Y-135675000D01*
X140365826Y-135675000D01*
X140492993Y-135640925D01*
X140550000Y-135608012D01*
X140550000Y-136505633D01*
X140763483Y-136448433D01*
X140763492Y-136448429D01*
X140977578Y-136348600D01*
X141171082Y-136213105D01*
X141338105Y-136046082D01*
X141473600Y-135852578D01*
X141573429Y-135638492D01*
X141573432Y-135638486D01*
X141588759Y-135581287D01*
X144149500Y-135581287D01*
X144182754Y-135791243D01*
X144190084Y-135813801D01*
X144248443Y-135993412D01*
X144344951Y-136182820D01*
X144469890Y-136354786D01*
X144620213Y-136505109D01*
X144792179Y-136630048D01*
X144792181Y-136630049D01*
X144792184Y-136630051D01*
X144981588Y-136726557D01*
X145183757Y-136792246D01*
X145393713Y-136825500D01*
X145393714Y-136825500D01*
X145606286Y-136825500D01*
X145606287Y-136825500D01*
X145816243Y-136792246D01*
X146018412Y-136726557D01*
X146207816Y-136630051D01*
X146275822Y-136580642D01*
X146379786Y-136505109D01*
X146379788Y-136505106D01*
X146379792Y-136505104D01*
X146530104Y-136354792D01*
X146530106Y-136354788D01*
X146530109Y-136354786D01*
X146655048Y-136182820D01*
X146655047Y-136182820D01*
X146655051Y-136182816D01*
X146751557Y-135993412D01*
X146817246Y-135791243D01*
X146850500Y-135581287D01*
X146850500Y-135368713D01*
X146817246Y-135158757D01*
X146751557Y-134956588D01*
X146655051Y-134767184D01*
X146655049Y-134767181D01*
X146655048Y-134767179D01*
X146530109Y-134595213D01*
X146379786Y-134444890D01*
X146207820Y-134319951D01*
X146018414Y-134223444D01*
X146018413Y-134223443D01*
X146018412Y-134223443D01*
X145816243Y-134157754D01*
X145816241Y-134157753D01*
X145816240Y-134157753D01*
X145654957Y-134132208D01*
X145606287Y-134124500D01*
X145393713Y-134124500D01*
X145345042Y-134132208D01*
X145183760Y-134157753D01*
X145183757Y-134157754D01*
X145053766Y-134199991D01*
X144981585Y-134223444D01*
X144792179Y-134319951D01*
X144620213Y-134444890D01*
X144469890Y-134595213D01*
X144344951Y-134767179D01*
X144248444Y-134956585D01*
X144182753Y-135158760D01*
X144169755Y-135240826D01*
X144149500Y-135368713D01*
X144149500Y-135581287D01*
X141588759Y-135581287D01*
X141630636Y-135425000D01*
X140733012Y-135425000D01*
X140765925Y-135367993D01*
X140800000Y-135240826D01*
X140800000Y-135109174D01*
X140765925Y-134982007D01*
X140733012Y-134925000D01*
X141630636Y-134925000D01*
X141630635Y-134924999D01*
X141573432Y-134711513D01*
X141573429Y-134711507D01*
X141473600Y-134497422D01*
X141473599Y-134497420D01*
X141338113Y-134303926D01*
X141338108Y-134303920D01*
X141216053Y-134181865D01*
X141182568Y-134120542D01*
X141187552Y-134050850D01*
X141229424Y-133994917D01*
X141260400Y-133978002D01*
X141349847Y-133944641D01*
X141392326Y-133928798D01*
X141392326Y-133928797D01*
X141392331Y-133928796D01*
X141507546Y-133842546D01*
X141593796Y-133727331D01*
X141644091Y-133592483D01*
X141650500Y-133532873D01*
X141650499Y-132185095D01*
X141670184Y-132118057D01*
X141686813Y-132097420D01*
X143018713Y-130765521D01*
X143018716Y-130765520D01*
X143130520Y-130653716D01*
X143180639Y-130566904D01*
X143209577Y-130516785D01*
X143250501Y-130364057D01*
X143250501Y-130205943D01*
X143250501Y-130198348D01*
X143250500Y-130198330D01*
X143250500Y-130164000D01*
X143270185Y-130096961D01*
X143322989Y-130051206D01*
X143374500Y-130040000D01*
X143590000Y-130040000D01*
X143590000Y-128414000D01*
X143609685Y-128346961D01*
X143662489Y-128301206D01*
X143714000Y-128290000D01*
X143966000Y-128290000D01*
X144033039Y-128309685D01*
G37*
G04 #@! TD.AperFunction*
M02*
