M48
; DRILL file {KiCad 8.0.1} date 2024-03-24T21:19:32-0500
; FORMAT={-:-/ absolute / metric / decimal}
; #@! TF.CreationDate,2024-03-24T21:19:32-05:00
; #@! TF.GenerationSoftware,Kicad,Pcbnew,8.0.1
; #@! TF.FileFunction,Plated,1,2,PTH
FMAT,2
METRIC
; #@! TA.AperFunction,Plated,PTH,ViaDrill
T1C0.300
; #@! TA.AperFunction,Plated,PTH,ComponentDrill
T2C1.000
%
G90
G05
T1
X123.2Y-94.9
X123.2Y-96.775
X123.2Y-124.875
X123.2Y-126.75
X123.4Y-91.5
X123.4Y-121.475
X128.1Y-83.9
X128.1Y-113.875
X128.6Y-85.9
X128.6Y-115.875
X128.9Y-99.9
X128.9Y-129.875
X129.3Y-95.4
X129.3Y-125.375
X130.6Y-105.2
X130.6Y-135.175
X133.0Y-102.6
X133.0Y-132.575
X133.6Y-87.6
X133.6Y-117.575
X137.2Y-92.8
X137.2Y-122.775
X137.3Y-86.5
X137.3Y-116.475
X141.2Y-95.6
X141.2Y-125.575
X153.2Y-94.9
X153.2Y-96.775
X153.2Y-124.875
X153.2Y-126.75
X153.4Y-91.5
X153.4Y-121.475
X158.1Y-83.9
X158.1Y-113.875
X158.6Y-85.9
X158.6Y-115.875
X158.9Y-99.9
X158.9Y-129.875
X159.3Y-95.4
X159.3Y-125.375
X160.6Y-105.2
X160.6Y-135.175
X163.0Y-102.6
X163.0Y-132.575
X163.6Y-87.6
X163.6Y-117.575
X167.2Y-92.8
X167.2Y-122.775
X167.3Y-86.5
X167.3Y-116.475
X171.2Y-95.6
X171.2Y-125.575
T2
X140.3Y-82.96
X140.3Y-85.5
X140.3Y-102.66
X140.3Y-105.2
X140.3Y-112.935
X140.3Y-115.475
X140.3Y-132.635
X140.3Y-135.175
X170.3Y-82.96
X170.3Y-85.5
X170.3Y-102.66
X170.3Y-105.2
X170.3Y-112.935
X170.3Y-115.475
X170.3Y-132.635
X170.3Y-135.175
M30
