G04 #@! TF.GenerationSoftware,KiCad,Pcbnew,8.0.1*
G04 #@! TF.CreationDate,2024-03-24T21:19:35-05:00*
G04 #@! TF.ProjectId,minimidi_v1,6d696e69-6d69-4646-995f-76312e6b6963,rev?*
G04 #@! TF.SameCoordinates,Original*
G04 #@! TF.FileFunction,Soldermask,Top*
G04 #@! TF.FilePolarity,Negative*
%FSLAX46Y46*%
G04 Gerber Fmt 4.6, Leading zero omitted, Abs format (unit mm)*
G04 Created by KiCad (PCBNEW 8.0.1) date 2024-03-24 21:19:35*
%MOMM*%
%LPD*%
G01*
G04 APERTURE LIST*
G04 Aperture macros list*
%AMRoundRect*
0 Rectangle with rounded corners*
0 $1 Rounding radius*
0 $2 $3 $4 $5 $6 $7 $8 $9 X,Y pos of 4 corners*
0 Add a 4 corners polygon primitive as box body*
4,1,4,$2,$3,$4,$5,$6,$7,$8,$9,$2,$3,0*
0 Add four circle primitives for the rounded corners*
1,1,$1+$1,$2,$3*
1,1,$1+$1,$4,$5*
1,1,$1+$1,$6,$7*
1,1,$1+$1,$8,$9*
0 Add four rect primitives between the rounded corners*
20,1,$1+$1,$2,$3,$4,$5,0*
20,1,$1+$1,$4,$5,$6,$7,0*
20,1,$1+$1,$6,$7,$8,$9,0*
20,1,$1+$1,$8,$9,$2,$3,0*%
G04 Aperture macros list end*
%ADD10C,0.100000*%
%ADD11C,1.700000*%
%ADD12RoundRect,0.102000X-0.700000X-1.400000X0.700000X-1.400000X0.700000X1.400000X-0.700000X1.400000X0*%
%ADD13RoundRect,0.102000X-0.800000X-1.400000X0.800000X-1.400000X0.800000X1.400000X-0.800000X1.400000X0*%
%ADD14RoundRect,0.112500X0.112500X-0.187500X0.112500X0.187500X-0.112500X0.187500X-0.112500X-0.187500X0*%
%ADD15RoundRect,0.243750X-0.456250X0.243750X-0.456250X-0.243750X0.456250X-0.243750X0.456250X0.243750X0*%
%ADD16R,1.780000X2.000000*%
%ADD17C,2.200000*%
%ADD18RoundRect,0.250000X-0.400000X-0.625000X0.400000X-0.625000X0.400000X0.625000X-0.400000X0.625000X0*%
%ADD19R,1.700000X1.700000*%
%ADD20O,1.700000X1.700000*%
%ADD21RoundRect,0.250000X0.400000X0.625000X-0.400000X0.625000X-0.400000X-0.625000X0.400000X-0.625000X0*%
%ADD22RoundRect,0.250000X0.262500X0.450000X-0.262500X0.450000X-0.262500X-0.450000X0.262500X-0.450000X0*%
%ADD23RoundRect,0.250000X-0.625000X0.400000X-0.625000X-0.400000X0.625000X-0.400000X0.625000X0.400000X0*%
%ADD24RoundRect,0.250000X0.625000X-0.400000X0.625000X0.400000X-0.625000X0.400000X-0.625000X-0.400000X0*%
G04 APERTURE END LIST*
D10*
X120000000Y-109000000D02*
X178000000Y-109000000D01*
X149100000Y-79200000D02*
X149000000Y-139000000D01*
X120000000Y-110000000D02*
X148000000Y-110000000D01*
X148000000Y-138000000D01*
X120000000Y-138000000D01*
X120000000Y-110000000D01*
X150000000Y-110000000D02*
X178000000Y-110000000D01*
X178000000Y-138000000D01*
X150000000Y-138000000D01*
X150000000Y-110000000D01*
X150000000Y-80000000D02*
X178000000Y-80000000D01*
X178000000Y-108000000D01*
X150000000Y-108000000D01*
X150000000Y-80000000D01*
X120000000Y-80000000D02*
X148000000Y-80000000D01*
X148000000Y-108000000D01*
X120000000Y-108000000D01*
X120000000Y-80000000D01*
D11*
X156468098Y-128575000D03*
X163468098Y-128575000D03*
D12*
X155368098Y-132275000D03*
X164768098Y-132275000D03*
X157368098Y-124875000D03*
D13*
X168768098Y-127825000D03*
D14*
X168700000Y-124875000D03*
X168700000Y-122775000D03*
D15*
X121500000Y-124875000D03*
X121500000Y-126750000D03*
D16*
X176380000Y-119010000D03*
X173840000Y-119010000D03*
X171300000Y-119010000D03*
X171300000Y-128540000D03*
X173840000Y-128540000D03*
X176380000Y-128540000D03*
D17*
X152500000Y-135475000D03*
X145500000Y-135475000D03*
D18*
X164100000Y-134875000D03*
X167200000Y-134875000D03*
D19*
X140300000Y-132635000D03*
D20*
X140300000Y-135175000D03*
D15*
X121500000Y-121500000D03*
X121500000Y-123375000D03*
D11*
X126468098Y-128575000D03*
X133468098Y-128575000D03*
D12*
X125368098Y-132275000D03*
X134768098Y-132275000D03*
X127368098Y-124875000D03*
D13*
X138768098Y-127825000D03*
D17*
X152500000Y-112475000D03*
D21*
X162300000Y-112975000D03*
X159200000Y-112975000D03*
D22*
X131112500Y-124075000D03*
X129287500Y-124075000D03*
D23*
X137300000Y-112075000D03*
X137300000Y-115175000D03*
X167300000Y-112075000D03*
X167300000Y-115175000D03*
D19*
X170300000Y-115475000D03*
D20*
X170300000Y-112935000D03*
D22*
X161112500Y-124075000D03*
X159287500Y-124075000D03*
D17*
X175500000Y-112475000D03*
D21*
X132300000Y-112975000D03*
X129200000Y-112975000D03*
D15*
X151500000Y-124875000D03*
X151500000Y-126750000D03*
D17*
X145500000Y-112475000D03*
D22*
X159112500Y-134775000D03*
X157287500Y-134775000D03*
D16*
X146380000Y-119010000D03*
X143840000Y-119010000D03*
X141300000Y-119010000D03*
X141300000Y-128540000D03*
X143840000Y-128540000D03*
X146380000Y-128540000D03*
D22*
X129112500Y-134775000D03*
X127287500Y-134775000D03*
D11*
X126468098Y-119575000D03*
X133468098Y-119575000D03*
D12*
X125368098Y-123275000D03*
X134768098Y-123275000D03*
X127368098Y-115875000D03*
D13*
X138768098Y-118825000D03*
D18*
X134100000Y-134875000D03*
X137200000Y-134875000D03*
D15*
X151500000Y-121500000D03*
X151500000Y-123375000D03*
D19*
X170300000Y-132635000D03*
D20*
X170300000Y-135175000D03*
D11*
X156468098Y-119575000D03*
X163468098Y-119575000D03*
D12*
X155368098Y-123275000D03*
X164768098Y-123275000D03*
X157368098Y-115875000D03*
D13*
X168768098Y-118825000D03*
D17*
X122500000Y-112475000D03*
D24*
X164900000Y-115175000D03*
X164900000Y-112075000D03*
D17*
X122500000Y-135475000D03*
X175500000Y-135475000D03*
D14*
X138700000Y-124875000D03*
X138700000Y-122775000D03*
D24*
X134900000Y-115175000D03*
X134900000Y-112075000D03*
D19*
X140300000Y-115475000D03*
D20*
X140300000Y-112935000D03*
D15*
X151500000Y-94900000D03*
X151500000Y-96775000D03*
D17*
X175500000Y-105500000D03*
D19*
X170300000Y-102660000D03*
D20*
X170300000Y-105200000D03*
D15*
X151500000Y-91525000D03*
X151500000Y-93400000D03*
D11*
X156468098Y-98600000D03*
X163468098Y-98600000D03*
D12*
X155368098Y-102300000D03*
X164768098Y-102300000D03*
X157368098Y-94900000D03*
D13*
X168768098Y-97850000D03*
D22*
X161112500Y-94100000D03*
X159287500Y-94100000D03*
D23*
X167300000Y-82100000D03*
X167300000Y-85200000D03*
D21*
X162300000Y-83000000D03*
X159200000Y-83000000D03*
D17*
X175500000Y-82500000D03*
D16*
X176380000Y-89035000D03*
X173840000Y-89035000D03*
X171300000Y-89035000D03*
X171300000Y-98565000D03*
X173840000Y-98565000D03*
X176380000Y-98565000D03*
D22*
X159112500Y-104800000D03*
X157287500Y-104800000D03*
D11*
X156468098Y-89600000D03*
X163468098Y-89600000D03*
D12*
X155368098Y-93300000D03*
X164768098Y-93300000D03*
X157368098Y-85900000D03*
D13*
X168768098Y-88850000D03*
D18*
X164100000Y-104900000D03*
X167200000Y-104900000D03*
D17*
X152500000Y-82500000D03*
X152500000Y-105500000D03*
D14*
X168700000Y-94900000D03*
X168700000Y-92800000D03*
D24*
X164900000Y-85200000D03*
X164900000Y-82100000D03*
D19*
X170300000Y-85500000D03*
D20*
X170300000Y-82960000D03*
D15*
X121500000Y-93400000D03*
X121500000Y-91525000D03*
D17*
X145500000Y-105500000D03*
X145500000Y-82500000D03*
X122500000Y-105500000D03*
X122500000Y-82500000D03*
D22*
X131112500Y-94100000D03*
X129287500Y-94100000D03*
X129112500Y-104800000D03*
X127287500Y-104800000D03*
D16*
X146380000Y-98565000D03*
X143840000Y-98565000D03*
X141300000Y-98565000D03*
X141300000Y-89035000D03*
X143840000Y-89035000D03*
X146380000Y-89035000D03*
D24*
X134900000Y-82100000D03*
X134900000Y-85200000D03*
D18*
X134100000Y-104900000D03*
X137200000Y-104900000D03*
D23*
X137300000Y-82100000D03*
X137300000Y-85200000D03*
D21*
X129200000Y-83000000D03*
X132300000Y-83000000D03*
D11*
X126468098Y-89600000D03*
X133468098Y-89600000D03*
D12*
X125368098Y-93300000D03*
X134768098Y-93300000D03*
X127368098Y-85900000D03*
D13*
X138768098Y-88850000D03*
D19*
X140300000Y-85500000D03*
D20*
X140300000Y-82960000D03*
D13*
X138768098Y-97850000D03*
D12*
X127368098Y-94900000D03*
X134768098Y-102300000D03*
X125368098Y-102300000D03*
D11*
X133468098Y-98600000D03*
X126468098Y-98600000D03*
D19*
X140300000Y-102660000D03*
D20*
X140300000Y-105200000D03*
D15*
X121500000Y-96775000D03*
X121500000Y-94900000D03*
D14*
X138700000Y-92800000D03*
X138700000Y-94900000D03*
M02*
