G04 #@! TF.GenerationSoftware,KiCad,Pcbnew,8.0.1*
G04 #@! TF.CreationDate,2024-03-31T17:01:24-05:00*
G04 #@! TF.ProjectId,minimidi_v1,6d696e69-6d69-4646-995f-76312e6b6963,rev?*
G04 #@! TF.SameCoordinates,Original*
G04 #@! TF.FileFunction,Legend,Bot*
G04 #@! TF.FilePolarity,Positive*
%FSLAX46Y46*%
G04 Gerber Fmt 4.6, Leading zero omitted, Abs format (unit mm)*
G04 Created by KiCad (PCBNEW 8.0.1) date 2024-03-31 17:01:24*
%MOMM*%
%LPD*%
G01*
G04 APERTURE LIST*
G04 Aperture macros list*
%AMFreePoly0*
4,1,19,0.550000,-0.750000,0.000000,-0.750000,0.000000,-0.744911,-0.071157,-0.744911,-0.207708,-0.704816,-0.327430,-0.627875,-0.420627,-0.520320,-0.479746,-0.390866,-0.500000,-0.250000,-0.500000,0.250000,-0.479746,0.390866,-0.420627,0.520320,-0.327430,0.627875,-0.207708,0.704816,-0.071157,0.744911,0.000000,0.744911,0.000000,0.750000,0.550000,0.750000,0.550000,-0.750000,0.550000,-0.750000,
$1*%
%AMFreePoly1*
4,1,19,0.000000,0.744911,0.071157,0.744911,0.207708,0.704816,0.327430,0.627875,0.420627,0.520320,0.479746,0.390866,0.500000,0.250000,0.500000,-0.250000,0.479746,-0.390866,0.420627,-0.520320,0.327430,-0.627875,0.207708,-0.704816,0.071157,-0.744911,0.000000,-0.744911,0.000000,-0.750000,-0.550000,-0.750000,-0.550000,0.750000,0.000000,0.750000,0.000000,0.744911,0.000000,0.744911,
$1*%
G04 Aperture macros list end*
%ADD10C,0.100000*%
%ADD11C,0.200000*%
%ADD12C,0.120000*%
%ADD13C,1.700000*%
%ADD14R,1.700000X1.700000*%
%ADD15O,1.700000X1.700000*%
%ADD16FreePoly0,270.000000*%
%ADD17R,1.500000X1.000000*%
%ADD18FreePoly1,270.000000*%
G04 APERTURE END LIST*
D10*
X143867619Y-93501879D02*
X143867619Y-94149498D01*
X143867619Y-94149498D02*
X143829524Y-94225688D01*
X143829524Y-94225688D02*
X143791429Y-94263784D01*
X143791429Y-94263784D02*
X143715238Y-94301879D01*
X143715238Y-94301879D02*
X143562857Y-94301879D01*
X143562857Y-94301879D02*
X143486667Y-94263784D01*
X143486667Y-94263784D02*
X143448572Y-94225688D01*
X143448572Y-94225688D02*
X143410476Y-94149498D01*
X143410476Y-94149498D02*
X143410476Y-93501879D01*
X143067620Y-94263784D02*
X142991429Y-94301879D01*
X142991429Y-94301879D02*
X142839048Y-94301879D01*
X142839048Y-94301879D02*
X142762858Y-94263784D01*
X142762858Y-94263784D02*
X142724762Y-94187593D01*
X142724762Y-94187593D02*
X142724762Y-94149498D01*
X142724762Y-94149498D02*
X142762858Y-94073307D01*
X142762858Y-94073307D02*
X142839048Y-94035212D01*
X142839048Y-94035212D02*
X142953334Y-94035212D01*
X142953334Y-94035212D02*
X143029524Y-93997117D01*
X143029524Y-93997117D02*
X143067620Y-93920926D01*
X143067620Y-93920926D02*
X143067620Y-93882831D01*
X143067620Y-93882831D02*
X143029524Y-93806641D01*
X143029524Y-93806641D02*
X142953334Y-93768545D01*
X142953334Y-93768545D02*
X142839048Y-93768545D01*
X142839048Y-93768545D02*
X142762858Y-93806641D01*
X142077143Y-94263784D02*
X142153334Y-94301879D01*
X142153334Y-94301879D02*
X142305715Y-94301879D01*
X142305715Y-94301879D02*
X142381905Y-94263784D01*
X142381905Y-94263784D02*
X142420001Y-94187593D01*
X142420001Y-94187593D02*
X142420001Y-93882831D01*
X142420001Y-93882831D02*
X142381905Y-93806641D01*
X142381905Y-93806641D02*
X142305715Y-93768545D01*
X142305715Y-93768545D02*
X142153334Y-93768545D01*
X142153334Y-93768545D02*
X142077143Y-93806641D01*
X142077143Y-93806641D02*
X142039048Y-93882831D01*
X142039048Y-93882831D02*
X142039048Y-93959022D01*
X142039048Y-93959022D02*
X142420001Y-94035212D01*
X141200953Y-93768545D02*
X140896191Y-93768545D01*
X141086667Y-93501879D02*
X141086667Y-94187593D01*
X141086667Y-94187593D02*
X141048572Y-94263784D01*
X141048572Y-94263784D02*
X140972382Y-94301879D01*
X140972382Y-94301879D02*
X140896191Y-94301879D01*
X140629524Y-94301879D02*
X140629524Y-93501879D01*
X140286667Y-94301879D02*
X140286667Y-93882831D01*
X140286667Y-93882831D02*
X140324762Y-93806641D01*
X140324762Y-93806641D02*
X140400953Y-93768545D01*
X140400953Y-93768545D02*
X140515239Y-93768545D01*
X140515239Y-93768545D02*
X140591429Y-93806641D01*
X140591429Y-93806641D02*
X140629524Y-93844736D01*
X139600952Y-94263784D02*
X139677143Y-94301879D01*
X139677143Y-94301879D02*
X139829524Y-94301879D01*
X139829524Y-94301879D02*
X139905714Y-94263784D01*
X139905714Y-94263784D02*
X139943810Y-94187593D01*
X139943810Y-94187593D02*
X139943810Y-93882831D01*
X139943810Y-93882831D02*
X139905714Y-93806641D01*
X139905714Y-93806641D02*
X139829524Y-93768545D01*
X139829524Y-93768545D02*
X139677143Y-93768545D01*
X139677143Y-93768545D02*
X139600952Y-93806641D01*
X139600952Y-93806641D02*
X139562857Y-93882831D01*
X139562857Y-93882831D02*
X139562857Y-93959022D01*
X139562857Y-93959022D02*
X139943810Y-94035212D01*
X138648572Y-94263784D02*
X138572381Y-94301879D01*
X138572381Y-94301879D02*
X138420000Y-94301879D01*
X138420000Y-94301879D02*
X138343810Y-94263784D01*
X138343810Y-94263784D02*
X138305714Y-94187593D01*
X138305714Y-94187593D02*
X138305714Y-94149498D01*
X138305714Y-94149498D02*
X138343810Y-94073307D01*
X138343810Y-94073307D02*
X138420000Y-94035212D01*
X138420000Y-94035212D02*
X138534286Y-94035212D01*
X138534286Y-94035212D02*
X138610476Y-93997117D01*
X138610476Y-93997117D02*
X138648572Y-93920926D01*
X138648572Y-93920926D02*
X138648572Y-93882831D01*
X138648572Y-93882831D02*
X138610476Y-93806641D01*
X138610476Y-93806641D02*
X138534286Y-93768545D01*
X138534286Y-93768545D02*
X138420000Y-93768545D01*
X138420000Y-93768545D02*
X138343810Y-93806641D01*
X137620000Y-94301879D02*
X137620000Y-93882831D01*
X137620000Y-93882831D02*
X137658095Y-93806641D01*
X137658095Y-93806641D02*
X137734286Y-93768545D01*
X137734286Y-93768545D02*
X137886667Y-93768545D01*
X137886667Y-93768545D02*
X137962857Y-93806641D01*
X137620000Y-94263784D02*
X137696191Y-94301879D01*
X137696191Y-94301879D02*
X137886667Y-94301879D01*
X137886667Y-94301879D02*
X137962857Y-94263784D01*
X137962857Y-94263784D02*
X138000953Y-94187593D01*
X138000953Y-94187593D02*
X138000953Y-94111403D01*
X138000953Y-94111403D02*
X137962857Y-94035212D01*
X137962857Y-94035212D02*
X137886667Y-93997117D01*
X137886667Y-93997117D02*
X137696191Y-93997117D01*
X137696191Y-93997117D02*
X137620000Y-93959022D01*
X137239047Y-94301879D02*
X137239047Y-93768545D01*
X137239047Y-93844736D02*
X137200952Y-93806641D01*
X137200952Y-93806641D02*
X137124762Y-93768545D01*
X137124762Y-93768545D02*
X137010476Y-93768545D01*
X137010476Y-93768545D02*
X136934285Y-93806641D01*
X136934285Y-93806641D02*
X136896190Y-93882831D01*
X136896190Y-93882831D02*
X136896190Y-94301879D01*
X136896190Y-93882831D02*
X136858095Y-93806641D01*
X136858095Y-93806641D02*
X136781904Y-93768545D01*
X136781904Y-93768545D02*
X136667619Y-93768545D01*
X136667619Y-93768545D02*
X136591428Y-93806641D01*
X136591428Y-93806641D02*
X136553333Y-93882831D01*
X136553333Y-93882831D02*
X136553333Y-94301879D01*
X135867618Y-94263784D02*
X135943809Y-94301879D01*
X135943809Y-94301879D02*
X136096190Y-94301879D01*
X136096190Y-94301879D02*
X136172380Y-94263784D01*
X136172380Y-94263784D02*
X136210476Y-94187593D01*
X136210476Y-94187593D02*
X136210476Y-93882831D01*
X136210476Y-93882831D02*
X136172380Y-93806641D01*
X136172380Y-93806641D02*
X136096190Y-93768545D01*
X136096190Y-93768545D02*
X135943809Y-93768545D01*
X135943809Y-93768545D02*
X135867618Y-93806641D01*
X135867618Y-93806641D02*
X135829523Y-93882831D01*
X135829523Y-93882831D02*
X135829523Y-93959022D01*
X135829523Y-93959022D02*
X136210476Y-94035212D01*
X134915238Y-94263784D02*
X134839047Y-94301879D01*
X134839047Y-94301879D02*
X134686666Y-94301879D01*
X134686666Y-94301879D02*
X134610476Y-94263784D01*
X134610476Y-94263784D02*
X134572380Y-94187593D01*
X134572380Y-94187593D02*
X134572380Y-94149498D01*
X134572380Y-94149498D02*
X134610476Y-94073307D01*
X134610476Y-94073307D02*
X134686666Y-94035212D01*
X134686666Y-94035212D02*
X134800952Y-94035212D01*
X134800952Y-94035212D02*
X134877142Y-93997117D01*
X134877142Y-93997117D02*
X134915238Y-93920926D01*
X134915238Y-93920926D02*
X134915238Y-93882831D01*
X134915238Y-93882831D02*
X134877142Y-93806641D01*
X134877142Y-93806641D02*
X134800952Y-93768545D01*
X134800952Y-93768545D02*
X134686666Y-93768545D01*
X134686666Y-93768545D02*
X134610476Y-93806641D01*
X133924761Y-94263784D02*
X134000952Y-94301879D01*
X134000952Y-94301879D02*
X134153333Y-94301879D01*
X134153333Y-94301879D02*
X134229523Y-94263784D01*
X134229523Y-94263784D02*
X134267619Y-94187593D01*
X134267619Y-94187593D02*
X134267619Y-93882831D01*
X134267619Y-93882831D02*
X134229523Y-93806641D01*
X134229523Y-93806641D02*
X134153333Y-93768545D01*
X134153333Y-93768545D02*
X134000952Y-93768545D01*
X134000952Y-93768545D02*
X133924761Y-93806641D01*
X133924761Y-93806641D02*
X133886666Y-93882831D01*
X133886666Y-93882831D02*
X133886666Y-93959022D01*
X133886666Y-93959022D02*
X134267619Y-94035212D01*
X133658095Y-93768545D02*
X133353333Y-93768545D01*
X133543809Y-93501879D02*
X133543809Y-94187593D01*
X133543809Y-94187593D02*
X133505714Y-94263784D01*
X133505714Y-94263784D02*
X133429524Y-94301879D01*
X133429524Y-94301879D02*
X133353333Y-94301879D01*
X133200952Y-93768545D02*
X132896190Y-93768545D01*
X133086666Y-93501879D02*
X133086666Y-94187593D01*
X133086666Y-94187593D02*
X133048571Y-94263784D01*
X133048571Y-94263784D02*
X132972381Y-94301879D01*
X132972381Y-94301879D02*
X132896190Y-94301879D01*
X132629523Y-94301879D02*
X132629523Y-93768545D01*
X132629523Y-93501879D02*
X132667619Y-93539974D01*
X132667619Y-93539974D02*
X132629523Y-93578069D01*
X132629523Y-93578069D02*
X132591428Y-93539974D01*
X132591428Y-93539974D02*
X132629523Y-93501879D01*
X132629523Y-93501879D02*
X132629523Y-93578069D01*
X132248571Y-93768545D02*
X132248571Y-94301879D01*
X132248571Y-93844736D02*
X132210476Y-93806641D01*
X132210476Y-93806641D02*
X132134286Y-93768545D01*
X132134286Y-93768545D02*
X132020000Y-93768545D01*
X132020000Y-93768545D02*
X131943809Y-93806641D01*
X131943809Y-93806641D02*
X131905714Y-93882831D01*
X131905714Y-93882831D02*
X131905714Y-94301879D01*
X131181904Y-93768545D02*
X131181904Y-94416164D01*
X131181904Y-94416164D02*
X131219999Y-94492355D01*
X131219999Y-94492355D02*
X131258095Y-94530450D01*
X131258095Y-94530450D02*
X131334285Y-94568545D01*
X131334285Y-94568545D02*
X131448571Y-94568545D01*
X131448571Y-94568545D02*
X131524761Y-94530450D01*
X131181904Y-94263784D02*
X131258095Y-94301879D01*
X131258095Y-94301879D02*
X131410476Y-94301879D01*
X131410476Y-94301879D02*
X131486666Y-94263784D01*
X131486666Y-94263784D02*
X131524761Y-94225688D01*
X131524761Y-94225688D02*
X131562857Y-94149498D01*
X131562857Y-94149498D02*
X131562857Y-93920926D01*
X131562857Y-93920926D02*
X131524761Y-93844736D01*
X131524761Y-93844736D02*
X131486666Y-93806641D01*
X131486666Y-93806641D02*
X131410476Y-93768545D01*
X131410476Y-93768545D02*
X131258095Y-93768545D01*
X131258095Y-93768545D02*
X131181904Y-93806641D01*
X130077142Y-94301879D02*
X130153332Y-94263784D01*
X130153332Y-94263784D02*
X130191427Y-94225688D01*
X130191427Y-94225688D02*
X130229523Y-94149498D01*
X130229523Y-94149498D02*
X130229523Y-93920926D01*
X130229523Y-93920926D02*
X130191427Y-93844736D01*
X130191427Y-93844736D02*
X130153332Y-93806641D01*
X130153332Y-93806641D02*
X130077142Y-93768545D01*
X130077142Y-93768545D02*
X129962856Y-93768545D01*
X129962856Y-93768545D02*
X129886665Y-93806641D01*
X129886665Y-93806641D02*
X129848570Y-93844736D01*
X129848570Y-93844736D02*
X129810475Y-93920926D01*
X129810475Y-93920926D02*
X129810475Y-94149498D01*
X129810475Y-94149498D02*
X129848570Y-94225688D01*
X129848570Y-94225688D02*
X129886665Y-94263784D01*
X129886665Y-94263784D02*
X129962856Y-94301879D01*
X129962856Y-94301879D02*
X130077142Y-94301879D01*
X129467617Y-93768545D02*
X129467617Y-94301879D01*
X129467617Y-93844736D02*
X129429522Y-93806641D01*
X129429522Y-93806641D02*
X129353332Y-93768545D01*
X129353332Y-93768545D02*
X129239046Y-93768545D01*
X129239046Y-93768545D02*
X129162855Y-93806641D01*
X129162855Y-93806641D02*
X129124760Y-93882831D01*
X129124760Y-93882831D02*
X129124760Y-94301879D01*
X127791426Y-94301879D02*
X127791426Y-93882831D01*
X127791426Y-93882831D02*
X127829521Y-93806641D01*
X127829521Y-93806641D02*
X127905712Y-93768545D01*
X127905712Y-93768545D02*
X128058093Y-93768545D01*
X128058093Y-93768545D02*
X128134283Y-93806641D01*
X127791426Y-94263784D02*
X127867617Y-94301879D01*
X127867617Y-94301879D02*
X128058093Y-94301879D01*
X128058093Y-94301879D02*
X128134283Y-94263784D01*
X128134283Y-94263784D02*
X128172379Y-94187593D01*
X128172379Y-94187593D02*
X128172379Y-94111403D01*
X128172379Y-94111403D02*
X128134283Y-94035212D01*
X128134283Y-94035212D02*
X128058093Y-93997117D01*
X128058093Y-93997117D02*
X127867617Y-93997117D01*
X127867617Y-93997117D02*
X127791426Y-93959022D01*
X127296188Y-94301879D02*
X127372378Y-94263784D01*
X127372378Y-94263784D02*
X127410473Y-94187593D01*
X127410473Y-94187593D02*
X127410473Y-93501879D01*
X126877140Y-94301879D02*
X126953330Y-94263784D01*
X126953330Y-94263784D02*
X126991425Y-94187593D01*
X126991425Y-94187593D02*
X126991425Y-93501879D01*
X125962853Y-93768545D02*
X125962853Y-94454260D01*
X125962853Y-94454260D02*
X126000949Y-94530450D01*
X126000949Y-94530450D02*
X126077139Y-94568545D01*
X126077139Y-94568545D02*
X126115234Y-94568545D01*
X125962853Y-93501879D02*
X126000949Y-93539974D01*
X126000949Y-93539974D02*
X125962853Y-93578069D01*
X125962853Y-93578069D02*
X125924758Y-93539974D01*
X125924758Y-93539974D02*
X125962853Y-93501879D01*
X125962853Y-93501879D02*
X125962853Y-93578069D01*
X125239044Y-93768545D02*
X125239044Y-94301879D01*
X125581901Y-93768545D02*
X125581901Y-94187593D01*
X125581901Y-94187593D02*
X125543806Y-94263784D01*
X125543806Y-94263784D02*
X125467616Y-94301879D01*
X125467616Y-94301879D02*
X125353330Y-94301879D01*
X125353330Y-94301879D02*
X125277139Y-94263784D01*
X125277139Y-94263784D02*
X125239044Y-94225688D01*
X124858091Y-94301879D02*
X124858091Y-93768545D01*
X124858091Y-93844736D02*
X124819996Y-93806641D01*
X124819996Y-93806641D02*
X124743806Y-93768545D01*
X124743806Y-93768545D02*
X124629520Y-93768545D01*
X124629520Y-93768545D02*
X124553329Y-93806641D01*
X124553329Y-93806641D02*
X124515234Y-93882831D01*
X124515234Y-93882831D02*
X124515234Y-94301879D01*
X124515234Y-93882831D02*
X124477139Y-93806641D01*
X124477139Y-93806641D02*
X124400948Y-93768545D01*
X124400948Y-93768545D02*
X124286663Y-93768545D01*
X124286663Y-93768545D02*
X124210472Y-93806641D01*
X124210472Y-93806641D02*
X124172377Y-93882831D01*
X124172377Y-93882831D02*
X124172377Y-94301879D01*
X123791424Y-93768545D02*
X123791424Y-94568545D01*
X123791424Y-93806641D02*
X123715234Y-93768545D01*
X123715234Y-93768545D02*
X123562853Y-93768545D01*
X123562853Y-93768545D02*
X123486662Y-93806641D01*
X123486662Y-93806641D02*
X123448567Y-93844736D01*
X123448567Y-93844736D02*
X123410472Y-93920926D01*
X123410472Y-93920926D02*
X123410472Y-94149498D01*
X123410472Y-94149498D02*
X123448567Y-94225688D01*
X123448567Y-94225688D02*
X123486662Y-94263784D01*
X123486662Y-94263784D02*
X123562853Y-94301879D01*
X123562853Y-94301879D02*
X123715234Y-94301879D01*
X123715234Y-94301879D02*
X123791424Y-94263784D01*
X122762852Y-94263784D02*
X122839043Y-94301879D01*
X122839043Y-94301879D02*
X122991424Y-94301879D01*
X122991424Y-94301879D02*
X123067614Y-94263784D01*
X123067614Y-94263784D02*
X123105710Y-94187593D01*
X123105710Y-94187593D02*
X123105710Y-93882831D01*
X123105710Y-93882831D02*
X123067614Y-93806641D01*
X123067614Y-93806641D02*
X122991424Y-93768545D01*
X122991424Y-93768545D02*
X122839043Y-93768545D01*
X122839043Y-93768545D02*
X122762852Y-93806641D01*
X122762852Y-93806641D02*
X122724757Y-93882831D01*
X122724757Y-93882831D02*
X122724757Y-93959022D01*
X122724757Y-93959022D02*
X123105710Y-94035212D01*
X122381900Y-94301879D02*
X122381900Y-93768545D01*
X122381900Y-93920926D02*
X122343805Y-93844736D01*
X122343805Y-93844736D02*
X122305710Y-93806641D01*
X122305710Y-93806641D02*
X122229519Y-93768545D01*
X122229519Y-93768545D02*
X122153329Y-93768545D01*
X121924758Y-94263784D02*
X121848567Y-94301879D01*
X121848567Y-94301879D02*
X121696186Y-94301879D01*
X121696186Y-94301879D02*
X121619996Y-94263784D01*
X121619996Y-94263784D02*
X121581900Y-94187593D01*
X121581900Y-94187593D02*
X121581900Y-94149498D01*
X121581900Y-94149498D02*
X121619996Y-94073307D01*
X121619996Y-94073307D02*
X121696186Y-94035212D01*
X121696186Y-94035212D02*
X121810472Y-94035212D01*
X121810472Y-94035212D02*
X121886662Y-93997117D01*
X121886662Y-93997117D02*
X121924758Y-93920926D01*
X121924758Y-93920926D02*
X121924758Y-93882831D01*
X121924758Y-93882831D02*
X121886662Y-93806641D01*
X121886662Y-93806641D02*
X121810472Y-93768545D01*
X121810472Y-93768545D02*
X121696186Y-93768545D01*
X121696186Y-93768545D02*
X121619996Y-93806641D01*
X146108940Y-87356265D02*
X145575606Y-87356265D01*
X145651797Y-87356265D02*
X145613702Y-87394360D01*
X145613702Y-87394360D02*
X145575606Y-87470550D01*
X145575606Y-87470550D02*
X145575606Y-87584836D01*
X145575606Y-87584836D02*
X145613702Y-87661027D01*
X145613702Y-87661027D02*
X145689892Y-87699122D01*
X145689892Y-87699122D02*
X146108940Y-87699122D01*
X145689892Y-87699122D02*
X145613702Y-87737217D01*
X145613702Y-87737217D02*
X145575606Y-87813408D01*
X145575606Y-87813408D02*
X145575606Y-87927693D01*
X145575606Y-87927693D02*
X145613702Y-88003884D01*
X145613702Y-88003884D02*
X145689892Y-88041979D01*
X145689892Y-88041979D02*
X146108940Y-88041979D01*
X146108940Y-88422932D02*
X145575606Y-88422932D01*
X145308940Y-88422932D02*
X145347035Y-88384836D01*
X145347035Y-88384836D02*
X145385130Y-88422932D01*
X145385130Y-88422932D02*
X145347035Y-88461027D01*
X145347035Y-88461027D02*
X145308940Y-88422932D01*
X145308940Y-88422932D02*
X145385130Y-88422932D01*
X145575606Y-88803884D02*
X146108940Y-88803884D01*
X145651797Y-88803884D02*
X145613702Y-88841979D01*
X145613702Y-88841979D02*
X145575606Y-88918169D01*
X145575606Y-88918169D02*
X145575606Y-89032455D01*
X145575606Y-89032455D02*
X145613702Y-89108646D01*
X145613702Y-89108646D02*
X145689892Y-89146741D01*
X145689892Y-89146741D02*
X146108940Y-89146741D01*
X146108940Y-89527694D02*
X145575606Y-89527694D01*
X145308940Y-89527694D02*
X145347035Y-89489598D01*
X145347035Y-89489598D02*
X145385130Y-89527694D01*
X145385130Y-89527694D02*
X145347035Y-89565789D01*
X145347035Y-89565789D02*
X145308940Y-89527694D01*
X145308940Y-89527694D02*
X145385130Y-89527694D01*
X145804178Y-89908646D02*
X145804178Y-90518170D01*
X146108940Y-90899122D02*
X145575606Y-90899122D01*
X145651797Y-90899122D02*
X145613702Y-90937217D01*
X145613702Y-90937217D02*
X145575606Y-91013407D01*
X145575606Y-91013407D02*
X145575606Y-91127693D01*
X145575606Y-91127693D02*
X145613702Y-91203884D01*
X145613702Y-91203884D02*
X145689892Y-91241979D01*
X145689892Y-91241979D02*
X146108940Y-91241979D01*
X145689892Y-91241979D02*
X145613702Y-91280074D01*
X145613702Y-91280074D02*
X145575606Y-91356265D01*
X145575606Y-91356265D02*
X145575606Y-91470550D01*
X145575606Y-91470550D02*
X145613702Y-91546741D01*
X145613702Y-91546741D02*
X145689892Y-91584836D01*
X145689892Y-91584836D02*
X146108940Y-91584836D01*
X146108940Y-91965789D02*
X145575606Y-91965789D01*
X145308940Y-91965789D02*
X145347035Y-91927693D01*
X145347035Y-91927693D02*
X145385130Y-91965789D01*
X145385130Y-91965789D02*
X145347035Y-92003884D01*
X145347035Y-92003884D02*
X145308940Y-91965789D01*
X145308940Y-91965789D02*
X145385130Y-91965789D01*
X146108940Y-92689598D02*
X145308940Y-92689598D01*
X146070845Y-92689598D02*
X146108940Y-92613407D01*
X146108940Y-92613407D02*
X146108940Y-92461026D01*
X146108940Y-92461026D02*
X146070845Y-92384836D01*
X146070845Y-92384836D02*
X146032749Y-92346741D01*
X146032749Y-92346741D02*
X145956559Y-92308645D01*
X145956559Y-92308645D02*
X145727987Y-92308645D01*
X145727987Y-92308645D02*
X145651797Y-92346741D01*
X145651797Y-92346741D02*
X145613702Y-92384836D01*
X145613702Y-92384836D02*
X145575606Y-92461026D01*
X145575606Y-92461026D02*
X145575606Y-92613407D01*
X145575606Y-92613407D02*
X145613702Y-92689598D01*
X146108940Y-93070551D02*
X145575606Y-93070551D01*
X145308940Y-93070551D02*
X145347035Y-93032455D01*
X145347035Y-93032455D02*
X145385130Y-93070551D01*
X145385130Y-93070551D02*
X145347035Y-93108646D01*
X145347035Y-93108646D02*
X145308940Y-93070551D01*
X145308940Y-93070551D02*
X145385130Y-93070551D01*
X145804178Y-94061027D02*
X145804178Y-94670551D01*
X146108940Y-95661027D02*
X145575606Y-95661027D01*
X145727987Y-95661027D02*
X145651797Y-95699122D01*
X145651797Y-95699122D02*
X145613702Y-95737217D01*
X145613702Y-95737217D02*
X145575606Y-95813408D01*
X145575606Y-95813408D02*
X145575606Y-95889598D01*
X146070845Y-96461027D02*
X146108940Y-96384836D01*
X146108940Y-96384836D02*
X146108940Y-96232455D01*
X146108940Y-96232455D02*
X146070845Y-96156265D01*
X146070845Y-96156265D02*
X145994654Y-96118169D01*
X145994654Y-96118169D02*
X145689892Y-96118169D01*
X145689892Y-96118169D02*
X145613702Y-96156265D01*
X145613702Y-96156265D02*
X145575606Y-96232455D01*
X145575606Y-96232455D02*
X145575606Y-96384836D01*
X145575606Y-96384836D02*
X145613702Y-96461027D01*
X145613702Y-96461027D02*
X145689892Y-96499122D01*
X145689892Y-96499122D02*
X145766083Y-96499122D01*
X145766083Y-96499122D02*
X145842273Y-96118169D01*
X145575606Y-96765788D02*
X146108940Y-96956264D01*
X146108940Y-96956264D02*
X145575606Y-97146741D01*
X146108940Y-98480074D02*
X146108940Y-98022931D01*
X146108940Y-98251503D02*
X145308940Y-98251503D01*
X145308940Y-98251503D02*
X145423225Y-98175312D01*
X145423225Y-98175312D02*
X145499416Y-98099122D01*
X145499416Y-98099122D02*
X145537511Y-98022931D01*
X147396895Y-87356265D02*
X146596895Y-87356265D01*
X146901657Y-87356265D02*
X146863561Y-87432455D01*
X146863561Y-87432455D02*
X146863561Y-87584836D01*
X146863561Y-87584836D02*
X146901657Y-87661027D01*
X146901657Y-87661027D02*
X146939752Y-87699122D01*
X146939752Y-87699122D02*
X147015942Y-87737217D01*
X147015942Y-87737217D02*
X147244514Y-87737217D01*
X147244514Y-87737217D02*
X147320704Y-87699122D01*
X147320704Y-87699122D02*
X147358800Y-87661027D01*
X147358800Y-87661027D02*
X147396895Y-87584836D01*
X147396895Y-87584836D02*
X147396895Y-87432455D01*
X147396895Y-87432455D02*
X147358800Y-87356265D01*
X146863561Y-88080075D02*
X147549276Y-88080075D01*
X147549276Y-88080075D02*
X147625466Y-88041979D01*
X147625466Y-88041979D02*
X147663561Y-87965789D01*
X147663561Y-87965789D02*
X147663561Y-87927694D01*
X146596895Y-88080075D02*
X146634990Y-88041979D01*
X146634990Y-88041979D02*
X146673085Y-88080075D01*
X146673085Y-88080075D02*
X146634990Y-88118170D01*
X146634990Y-88118170D02*
X146596895Y-88080075D01*
X146596895Y-88080075D02*
X146673085Y-88080075D01*
X147396895Y-88575312D02*
X147358800Y-88499122D01*
X147358800Y-88499122D02*
X147320704Y-88461027D01*
X147320704Y-88461027D02*
X147244514Y-88422931D01*
X147244514Y-88422931D02*
X147015942Y-88422931D01*
X147015942Y-88422931D02*
X146939752Y-88461027D01*
X146939752Y-88461027D02*
X146901657Y-88499122D01*
X146901657Y-88499122D02*
X146863561Y-88575312D01*
X146863561Y-88575312D02*
X146863561Y-88689598D01*
X146863561Y-88689598D02*
X146901657Y-88765789D01*
X146901657Y-88765789D02*
X146939752Y-88803884D01*
X146939752Y-88803884D02*
X147015942Y-88841979D01*
X147015942Y-88841979D02*
X147244514Y-88841979D01*
X147244514Y-88841979D02*
X147320704Y-88803884D01*
X147320704Y-88803884D02*
X147358800Y-88765789D01*
X147358800Y-88765789D02*
X147396895Y-88689598D01*
X147396895Y-88689598D02*
X147396895Y-88575312D01*
X146863561Y-89184837D02*
X147396895Y-89184837D01*
X146939752Y-89184837D02*
X146901657Y-89222932D01*
X146901657Y-89222932D02*
X146863561Y-89299122D01*
X146863561Y-89299122D02*
X146863561Y-89413408D01*
X146863561Y-89413408D02*
X146901657Y-89489599D01*
X146901657Y-89489599D02*
X146977847Y-89527694D01*
X146977847Y-89527694D02*
X147396895Y-89527694D01*
X146863561Y-89908647D02*
X147396895Y-89908647D01*
X146939752Y-89908647D02*
X146901657Y-89946742D01*
X146901657Y-89946742D02*
X146863561Y-90022932D01*
X146863561Y-90022932D02*
X146863561Y-90137218D01*
X146863561Y-90137218D02*
X146901657Y-90213409D01*
X146901657Y-90213409D02*
X146977847Y-90251504D01*
X146977847Y-90251504D02*
X147396895Y-90251504D01*
X147396895Y-90632457D02*
X146596895Y-90632457D01*
X147396895Y-90975314D02*
X146977847Y-90975314D01*
X146977847Y-90975314D02*
X146901657Y-90937219D01*
X146901657Y-90937219D02*
X146863561Y-90861028D01*
X146863561Y-90861028D02*
X146863561Y-90746742D01*
X146863561Y-90746742D02*
X146901657Y-90670552D01*
X146901657Y-90670552D02*
X146939752Y-90632457D01*
X147092133Y-91356267D02*
X147092133Y-91965791D01*
X147396895Y-92346743D02*
X146863561Y-92346743D01*
X146939752Y-92346743D02*
X146901657Y-92384838D01*
X146901657Y-92384838D02*
X146863561Y-92461028D01*
X146863561Y-92461028D02*
X146863561Y-92575314D01*
X146863561Y-92575314D02*
X146901657Y-92651505D01*
X146901657Y-92651505D02*
X146977847Y-92689600D01*
X146977847Y-92689600D02*
X147396895Y-92689600D01*
X146977847Y-92689600D02*
X146901657Y-92727695D01*
X146901657Y-92727695D02*
X146863561Y-92803886D01*
X146863561Y-92803886D02*
X146863561Y-92918171D01*
X146863561Y-92918171D02*
X146901657Y-92994362D01*
X146901657Y-92994362D02*
X146977847Y-93032457D01*
X146977847Y-93032457D02*
X147396895Y-93032457D01*
X147396895Y-93413410D02*
X146863561Y-93413410D01*
X146596895Y-93413410D02*
X146634990Y-93375314D01*
X146634990Y-93375314D02*
X146673085Y-93413410D01*
X146673085Y-93413410D02*
X146634990Y-93451505D01*
X146634990Y-93451505D02*
X146596895Y-93413410D01*
X146596895Y-93413410D02*
X146673085Y-93413410D01*
X147396895Y-94137219D02*
X146596895Y-94137219D01*
X147358800Y-94137219D02*
X147396895Y-94061028D01*
X147396895Y-94061028D02*
X147396895Y-93908647D01*
X147396895Y-93908647D02*
X147358800Y-93832457D01*
X147358800Y-93832457D02*
X147320704Y-93794362D01*
X147320704Y-93794362D02*
X147244514Y-93756266D01*
X147244514Y-93756266D02*
X147015942Y-93756266D01*
X147015942Y-93756266D02*
X146939752Y-93794362D01*
X146939752Y-93794362D02*
X146901657Y-93832457D01*
X146901657Y-93832457D02*
X146863561Y-93908647D01*
X146863561Y-93908647D02*
X146863561Y-94061028D01*
X146863561Y-94061028D02*
X146901657Y-94137219D01*
X147396895Y-94518172D02*
X146863561Y-94518172D01*
X146596895Y-94518172D02*
X146634990Y-94480076D01*
X146634990Y-94480076D02*
X146673085Y-94518172D01*
X146673085Y-94518172D02*
X146634990Y-94556267D01*
X146634990Y-94556267D02*
X146596895Y-94518172D01*
X146596895Y-94518172D02*
X146673085Y-94518172D01*
X147015942Y-95394362D02*
X146977847Y-95356267D01*
X146977847Y-95356267D02*
X146939752Y-95280076D01*
X146939752Y-95280076D02*
X146939752Y-95203886D01*
X146939752Y-95203886D02*
X146977847Y-95127695D01*
X146977847Y-95127695D02*
X147015942Y-95089600D01*
X147015942Y-95089600D02*
X147092133Y-95051505D01*
X147092133Y-95051505D02*
X147168323Y-95051505D01*
X147168323Y-95051505D02*
X147244514Y-95089600D01*
X147244514Y-95089600D02*
X147282609Y-95127695D01*
X147282609Y-95127695D02*
X147320704Y-95203886D01*
X147320704Y-95203886D02*
X147320704Y-95280076D01*
X147320704Y-95280076D02*
X147282609Y-95356267D01*
X147282609Y-95356267D02*
X147244514Y-95394362D01*
X146939752Y-95394362D02*
X147244514Y-95394362D01*
X147244514Y-95394362D02*
X147282609Y-95432457D01*
X147282609Y-95432457D02*
X147282609Y-95470552D01*
X147282609Y-95470552D02*
X147244514Y-95546743D01*
X147244514Y-95546743D02*
X147168323Y-95584838D01*
X147168323Y-95584838D02*
X146977847Y-95584838D01*
X146977847Y-95584838D02*
X146863561Y-95508648D01*
X146863561Y-95508648D02*
X146787371Y-95394362D01*
X146787371Y-95394362D02*
X146749276Y-95241981D01*
X146749276Y-95241981D02*
X146787371Y-95089600D01*
X146787371Y-95089600D02*
X146863561Y-94975314D01*
X146863561Y-94975314D02*
X146977847Y-94899124D01*
X146977847Y-94899124D02*
X147130228Y-94861028D01*
X147130228Y-94861028D02*
X147282609Y-94899124D01*
X147282609Y-94899124D02*
X147396895Y-94975314D01*
X147396895Y-94975314D02*
X147473085Y-95089600D01*
X147473085Y-95089600D02*
X147511180Y-95241981D01*
X147511180Y-95241981D02*
X147473085Y-95394362D01*
X147473085Y-95394362D02*
X147396895Y-95508648D01*
X147396895Y-95927695D02*
X146596895Y-95927695D01*
X146901657Y-95927695D02*
X146863561Y-96003885D01*
X146863561Y-96003885D02*
X146863561Y-96156266D01*
X146863561Y-96156266D02*
X146901657Y-96232457D01*
X146901657Y-96232457D02*
X146939752Y-96270552D01*
X146939752Y-96270552D02*
X147015942Y-96308647D01*
X147015942Y-96308647D02*
X147244514Y-96308647D01*
X147244514Y-96308647D02*
X147320704Y-96270552D01*
X147320704Y-96270552D02*
X147358800Y-96232457D01*
X147358800Y-96232457D02*
X147396895Y-96156266D01*
X147396895Y-96156266D02*
X147396895Y-96003885D01*
X147396895Y-96003885D02*
X147358800Y-95927695D01*
X146863561Y-96651505D02*
X147549276Y-96651505D01*
X147549276Y-96651505D02*
X147625466Y-96613409D01*
X147625466Y-96613409D02*
X147663561Y-96537219D01*
X147663561Y-96537219D02*
X147663561Y-96499124D01*
X146596895Y-96651505D02*
X146634990Y-96613409D01*
X146634990Y-96613409D02*
X146673085Y-96651505D01*
X146673085Y-96651505D02*
X146634990Y-96689600D01*
X146634990Y-96689600D02*
X146596895Y-96651505D01*
X146596895Y-96651505D02*
X146673085Y-96651505D01*
X147396895Y-97146742D02*
X147358800Y-97070552D01*
X147358800Y-97070552D02*
X147320704Y-97032457D01*
X147320704Y-97032457D02*
X147244514Y-96994361D01*
X147244514Y-96994361D02*
X147015942Y-96994361D01*
X147015942Y-96994361D02*
X146939752Y-97032457D01*
X146939752Y-97032457D02*
X146901657Y-97070552D01*
X146901657Y-97070552D02*
X146863561Y-97146742D01*
X146863561Y-97146742D02*
X146863561Y-97261028D01*
X146863561Y-97261028D02*
X146901657Y-97337219D01*
X146901657Y-97337219D02*
X146939752Y-97375314D01*
X146939752Y-97375314D02*
X147015942Y-97413409D01*
X147015942Y-97413409D02*
X147244514Y-97413409D01*
X147244514Y-97413409D02*
X147320704Y-97375314D01*
X147320704Y-97375314D02*
X147358800Y-97337219D01*
X147358800Y-97337219D02*
X147396895Y-97261028D01*
X147396895Y-97261028D02*
X147396895Y-97146742D01*
X146863561Y-97756267D02*
X147396895Y-97756267D01*
X146939752Y-97756267D02*
X146901657Y-97794362D01*
X146901657Y-97794362D02*
X146863561Y-97870552D01*
X146863561Y-97870552D02*
X146863561Y-97984838D01*
X146863561Y-97984838D02*
X146901657Y-98061029D01*
X146901657Y-98061029D02*
X146977847Y-98099124D01*
X146977847Y-98099124D02*
X147396895Y-98099124D01*
X146863561Y-98480077D02*
X147396895Y-98480077D01*
X146939752Y-98480077D02*
X146901657Y-98518172D01*
X146901657Y-98518172D02*
X146863561Y-98594362D01*
X146863561Y-98594362D02*
X146863561Y-98708648D01*
X146863561Y-98708648D02*
X146901657Y-98784839D01*
X146901657Y-98784839D02*
X146977847Y-98822934D01*
X146977847Y-98822934D02*
X147396895Y-98822934D01*
X147396895Y-99203887D02*
X146596895Y-99203887D01*
X147396895Y-99546744D02*
X146977847Y-99546744D01*
X146977847Y-99546744D02*
X146901657Y-99508649D01*
X146901657Y-99508649D02*
X146863561Y-99432458D01*
X146863561Y-99432458D02*
X146863561Y-99318172D01*
X146863561Y-99318172D02*
X146901657Y-99241982D01*
X146901657Y-99241982D02*
X146939752Y-99203887D01*
X147320704Y-99927697D02*
X147358800Y-99965792D01*
X147358800Y-99965792D02*
X147396895Y-99927697D01*
X147396895Y-99927697D02*
X147358800Y-99889601D01*
X147358800Y-99889601D02*
X147320704Y-99927697D01*
X147320704Y-99927697D02*
X147396895Y-99927697D01*
X146863561Y-100308649D02*
X147396895Y-100308649D01*
X146939752Y-100308649D02*
X146901657Y-100346744D01*
X146901657Y-100346744D02*
X146863561Y-100422934D01*
X146863561Y-100422934D02*
X146863561Y-100537220D01*
X146863561Y-100537220D02*
X146901657Y-100613411D01*
X146901657Y-100613411D02*
X146977847Y-100651506D01*
X146977847Y-100651506D02*
X147396895Y-100651506D01*
X147358800Y-101337221D02*
X147396895Y-101261030D01*
X147396895Y-101261030D02*
X147396895Y-101108649D01*
X147396895Y-101108649D02*
X147358800Y-101032459D01*
X147358800Y-101032459D02*
X147282609Y-100994363D01*
X147282609Y-100994363D02*
X146977847Y-100994363D01*
X146977847Y-100994363D02*
X146901657Y-101032459D01*
X146901657Y-101032459D02*
X146863561Y-101108649D01*
X146863561Y-101108649D02*
X146863561Y-101261030D01*
X146863561Y-101261030D02*
X146901657Y-101337221D01*
X146901657Y-101337221D02*
X146977847Y-101375316D01*
X146977847Y-101375316D02*
X147054038Y-101375316D01*
X147054038Y-101375316D02*
X147130228Y-100994363D01*
X146863561Y-101603887D02*
X146863561Y-101908649D01*
X146596895Y-101718173D02*
X147282609Y-101718173D01*
X147282609Y-101718173D02*
X147358800Y-101756268D01*
X147358800Y-101756268D02*
X147396895Y-101832458D01*
X147396895Y-101832458D02*
X147396895Y-101908649D01*
X141410401Y-83872419D02*
X141410401Y-84586704D01*
X141410401Y-84586704D02*
X141458020Y-84729561D01*
X141458020Y-84729561D02*
X141553258Y-84824800D01*
X141553258Y-84824800D02*
X141696115Y-84872419D01*
X141696115Y-84872419D02*
X141791353Y-84872419D01*
X140458020Y-84872419D02*
X140934210Y-84872419D01*
X140934210Y-84872419D02*
X140934210Y-83872419D01*
X139553258Y-84777180D02*
X139600877Y-84824800D01*
X139600877Y-84824800D02*
X139743734Y-84872419D01*
X139743734Y-84872419D02*
X139838972Y-84872419D01*
X139838972Y-84872419D02*
X139981829Y-84824800D01*
X139981829Y-84824800D02*
X140077067Y-84729561D01*
X140077067Y-84729561D02*
X140124686Y-84634323D01*
X140124686Y-84634323D02*
X140172305Y-84443847D01*
X140172305Y-84443847D02*
X140172305Y-84300990D01*
X140172305Y-84300990D02*
X140124686Y-84110514D01*
X140124686Y-84110514D02*
X140077067Y-84015276D01*
X140077067Y-84015276D02*
X139981829Y-83920038D01*
X139981829Y-83920038D02*
X139838972Y-83872419D01*
X139838972Y-83872419D02*
X139743734Y-83872419D01*
X139743734Y-83872419D02*
X139600877Y-83920038D01*
X139600877Y-83920038D02*
X139553258Y-83967657D01*
X138838972Y-83872419D02*
X138838972Y-84586704D01*
X138838972Y-84586704D02*
X138886591Y-84729561D01*
X138886591Y-84729561D02*
X138981829Y-84824800D01*
X138981829Y-84824800D02*
X139124686Y-84872419D01*
X139124686Y-84872419D02*
X139219924Y-84872419D01*
X137886591Y-84872419D02*
X138362781Y-84872419D01*
X138362781Y-84872419D02*
X138362781Y-83872419D01*
X136981829Y-84777180D02*
X137029448Y-84824800D01*
X137029448Y-84824800D02*
X137172305Y-84872419D01*
X137172305Y-84872419D02*
X137267543Y-84872419D01*
X137267543Y-84872419D02*
X137410400Y-84824800D01*
X137410400Y-84824800D02*
X137505638Y-84729561D01*
X137505638Y-84729561D02*
X137553257Y-84634323D01*
X137553257Y-84634323D02*
X137600876Y-84443847D01*
X137600876Y-84443847D02*
X137600876Y-84300990D01*
X137600876Y-84300990D02*
X137553257Y-84110514D01*
X137553257Y-84110514D02*
X137505638Y-84015276D01*
X137505638Y-84015276D02*
X137410400Y-83920038D01*
X137410400Y-83920038D02*
X137267543Y-83872419D01*
X137267543Y-83872419D02*
X137172305Y-83872419D01*
X137172305Y-83872419D02*
X137029448Y-83920038D01*
X137029448Y-83920038D02*
X136981829Y-83967657D01*
X136267543Y-83872419D02*
X136267543Y-84586704D01*
X136267543Y-84586704D02*
X136315162Y-84729561D01*
X136315162Y-84729561D02*
X136410400Y-84824800D01*
X136410400Y-84824800D02*
X136553257Y-84872419D01*
X136553257Y-84872419D02*
X136648495Y-84872419D01*
X135315162Y-84872419D02*
X135791352Y-84872419D01*
X135791352Y-84872419D02*
X135791352Y-83872419D01*
X134410400Y-84777180D02*
X134458019Y-84824800D01*
X134458019Y-84824800D02*
X134600876Y-84872419D01*
X134600876Y-84872419D02*
X134696114Y-84872419D01*
X134696114Y-84872419D02*
X134838971Y-84824800D01*
X134838971Y-84824800D02*
X134934209Y-84729561D01*
X134934209Y-84729561D02*
X134981828Y-84634323D01*
X134981828Y-84634323D02*
X135029447Y-84443847D01*
X135029447Y-84443847D02*
X135029447Y-84300990D01*
X135029447Y-84300990D02*
X134981828Y-84110514D01*
X134981828Y-84110514D02*
X134934209Y-84015276D01*
X134934209Y-84015276D02*
X134838971Y-83920038D01*
X134838971Y-83920038D02*
X134696114Y-83872419D01*
X134696114Y-83872419D02*
X134600876Y-83872419D01*
X134600876Y-83872419D02*
X134458019Y-83920038D01*
X134458019Y-83920038D02*
X134410400Y-83967657D01*
X133696114Y-83872419D02*
X133696114Y-84586704D01*
X133696114Y-84586704D02*
X133743733Y-84729561D01*
X133743733Y-84729561D02*
X133838971Y-84824800D01*
X133838971Y-84824800D02*
X133981828Y-84872419D01*
X133981828Y-84872419D02*
X134077066Y-84872419D01*
X132743733Y-84872419D02*
X133219923Y-84872419D01*
X133219923Y-84872419D02*
X133219923Y-83872419D01*
X131838971Y-84777180D02*
X131886590Y-84824800D01*
X131886590Y-84824800D02*
X132029447Y-84872419D01*
X132029447Y-84872419D02*
X132124685Y-84872419D01*
X132124685Y-84872419D02*
X132267542Y-84824800D01*
X132267542Y-84824800D02*
X132362780Y-84729561D01*
X132362780Y-84729561D02*
X132410399Y-84634323D01*
X132410399Y-84634323D02*
X132458018Y-84443847D01*
X132458018Y-84443847D02*
X132458018Y-84300990D01*
X132458018Y-84300990D02*
X132410399Y-84110514D01*
X132410399Y-84110514D02*
X132362780Y-84015276D01*
X132362780Y-84015276D02*
X132267542Y-83920038D01*
X132267542Y-83920038D02*
X132124685Y-83872419D01*
X132124685Y-83872419D02*
X132029447Y-83872419D01*
X132029447Y-83872419D02*
X131886590Y-83920038D01*
X131886590Y-83920038D02*
X131838971Y-83967657D01*
D11*
X124091695Y-85066665D02*
X124091695Y-85523808D01*
X124891695Y-85295236D02*
X124091695Y-85295236D01*
X124358361Y-85714284D02*
X124891695Y-85904760D01*
X124358361Y-86095237D02*
X124891695Y-85904760D01*
X124891695Y-85904760D02*
X125082171Y-85828570D01*
X125082171Y-85828570D02*
X125120266Y-85790475D01*
X125120266Y-85790475D02*
X125158361Y-85714284D01*
X124358361Y-86399999D02*
X125158361Y-86399999D01*
X124396457Y-86399999D02*
X124358361Y-86476189D01*
X124358361Y-86476189D02*
X124358361Y-86628570D01*
X124358361Y-86628570D02*
X124396457Y-86704761D01*
X124396457Y-86704761D02*
X124434552Y-86742856D01*
X124434552Y-86742856D02*
X124510742Y-86780951D01*
X124510742Y-86780951D02*
X124739314Y-86780951D01*
X124739314Y-86780951D02*
X124815504Y-86742856D01*
X124815504Y-86742856D02*
X124853600Y-86704761D01*
X124853600Y-86704761D02*
X124891695Y-86628570D01*
X124891695Y-86628570D02*
X124891695Y-86476189D01*
X124891695Y-86476189D02*
X124853600Y-86399999D01*
X124853600Y-87428571D02*
X124891695Y-87352380D01*
X124891695Y-87352380D02*
X124891695Y-87199999D01*
X124891695Y-87199999D02*
X124853600Y-87123809D01*
X124853600Y-87123809D02*
X124777409Y-87085713D01*
X124777409Y-87085713D02*
X124472647Y-87085713D01*
X124472647Y-87085713D02*
X124396457Y-87123809D01*
X124396457Y-87123809D02*
X124358361Y-87199999D01*
X124358361Y-87199999D02*
X124358361Y-87352380D01*
X124358361Y-87352380D02*
X124396457Y-87428571D01*
X124396457Y-87428571D02*
X124472647Y-87466666D01*
X124472647Y-87466666D02*
X124548838Y-87466666D01*
X124548838Y-87466666D02*
X124625028Y-87085713D01*
X124663123Y-88380951D02*
X124663123Y-88761904D01*
X124891695Y-88304761D02*
X124091695Y-88571428D01*
X124091695Y-88571428D02*
X124891695Y-88838094D01*
X124815504Y-89104761D02*
X124853600Y-89142856D01*
X124853600Y-89142856D02*
X124891695Y-89104761D01*
X124891695Y-89104761D02*
X124853600Y-89066665D01*
X124853600Y-89066665D02*
X124815504Y-89104761D01*
X124815504Y-89104761D02*
X124891695Y-89104761D01*
X124396457Y-89104761D02*
X124434552Y-89142856D01*
X124434552Y-89142856D02*
X124472647Y-89104761D01*
X124472647Y-89104761D02*
X124434552Y-89066665D01*
X124434552Y-89066665D02*
X124396457Y-89104761D01*
X124396457Y-89104761D02*
X124472647Y-89104761D01*
X124891695Y-90514284D02*
X124891695Y-90057141D01*
X124891695Y-90285713D02*
X124091695Y-90285713D01*
X124091695Y-90285713D02*
X124205980Y-90209522D01*
X124205980Y-90209522D02*
X124282171Y-90133332D01*
X124282171Y-90133332D02*
X124320266Y-90057141D01*
X124586933Y-90857142D02*
X124586933Y-91466666D01*
X124167885Y-91809522D02*
X124129790Y-91847618D01*
X124129790Y-91847618D02*
X124091695Y-91923808D01*
X124091695Y-91923808D02*
X124091695Y-92114284D01*
X124091695Y-92114284D02*
X124129790Y-92190475D01*
X124129790Y-92190475D02*
X124167885Y-92228570D01*
X124167885Y-92228570D02*
X124244076Y-92266665D01*
X124244076Y-92266665D02*
X124320266Y-92266665D01*
X124320266Y-92266665D02*
X124434552Y-92228570D01*
X124434552Y-92228570D02*
X124891695Y-91771427D01*
X124891695Y-91771427D02*
X124891695Y-92266665D01*
X124091695Y-95542857D02*
X124091695Y-96000000D01*
X124891695Y-95771428D02*
X124091695Y-95771428D01*
X124358361Y-96190476D02*
X124891695Y-96380952D01*
X124358361Y-96571429D02*
X124891695Y-96380952D01*
X124891695Y-96380952D02*
X125082171Y-96304762D01*
X125082171Y-96304762D02*
X125120266Y-96266667D01*
X125120266Y-96266667D02*
X125158361Y-96190476D01*
X124358361Y-96876191D02*
X125158361Y-96876191D01*
X124396457Y-96876191D02*
X124358361Y-96952381D01*
X124358361Y-96952381D02*
X124358361Y-97104762D01*
X124358361Y-97104762D02*
X124396457Y-97180953D01*
X124396457Y-97180953D02*
X124434552Y-97219048D01*
X124434552Y-97219048D02*
X124510742Y-97257143D01*
X124510742Y-97257143D02*
X124739314Y-97257143D01*
X124739314Y-97257143D02*
X124815504Y-97219048D01*
X124815504Y-97219048D02*
X124853600Y-97180953D01*
X124853600Y-97180953D02*
X124891695Y-97104762D01*
X124891695Y-97104762D02*
X124891695Y-96952381D01*
X124891695Y-96952381D02*
X124853600Y-96876191D01*
X124853600Y-97904763D02*
X124891695Y-97828572D01*
X124891695Y-97828572D02*
X124891695Y-97676191D01*
X124891695Y-97676191D02*
X124853600Y-97600001D01*
X124853600Y-97600001D02*
X124777409Y-97561905D01*
X124777409Y-97561905D02*
X124472647Y-97561905D01*
X124472647Y-97561905D02*
X124396457Y-97600001D01*
X124396457Y-97600001D02*
X124358361Y-97676191D01*
X124358361Y-97676191D02*
X124358361Y-97828572D01*
X124358361Y-97828572D02*
X124396457Y-97904763D01*
X124396457Y-97904763D02*
X124472647Y-97942858D01*
X124472647Y-97942858D02*
X124548838Y-97942858D01*
X124548838Y-97942858D02*
X124625028Y-97561905D01*
X124472647Y-99161905D02*
X124510742Y-99276191D01*
X124510742Y-99276191D02*
X124548838Y-99314286D01*
X124548838Y-99314286D02*
X124625028Y-99352382D01*
X124625028Y-99352382D02*
X124739314Y-99352382D01*
X124739314Y-99352382D02*
X124815504Y-99314286D01*
X124815504Y-99314286D02*
X124853600Y-99276191D01*
X124853600Y-99276191D02*
X124891695Y-99200001D01*
X124891695Y-99200001D02*
X124891695Y-98895239D01*
X124891695Y-98895239D02*
X124091695Y-98895239D01*
X124091695Y-98895239D02*
X124091695Y-99161905D01*
X124091695Y-99161905D02*
X124129790Y-99238096D01*
X124129790Y-99238096D02*
X124167885Y-99276191D01*
X124167885Y-99276191D02*
X124244076Y-99314286D01*
X124244076Y-99314286D02*
X124320266Y-99314286D01*
X124320266Y-99314286D02*
X124396457Y-99276191D01*
X124396457Y-99276191D02*
X124434552Y-99238096D01*
X124434552Y-99238096D02*
X124472647Y-99161905D01*
X124472647Y-99161905D02*
X124472647Y-98895239D01*
X124815504Y-99695239D02*
X124853600Y-99733334D01*
X124853600Y-99733334D02*
X124891695Y-99695239D01*
X124891695Y-99695239D02*
X124853600Y-99657143D01*
X124853600Y-99657143D02*
X124815504Y-99695239D01*
X124815504Y-99695239D02*
X124891695Y-99695239D01*
X124396457Y-99695239D02*
X124434552Y-99733334D01*
X124434552Y-99733334D02*
X124472647Y-99695239D01*
X124472647Y-99695239D02*
X124434552Y-99657143D01*
X124434552Y-99657143D02*
X124396457Y-99695239D01*
X124396457Y-99695239D02*
X124472647Y-99695239D01*
X124167885Y-100647619D02*
X124129790Y-100685715D01*
X124129790Y-100685715D02*
X124091695Y-100761905D01*
X124091695Y-100761905D02*
X124091695Y-100952381D01*
X124091695Y-100952381D02*
X124129790Y-101028572D01*
X124129790Y-101028572D02*
X124167885Y-101066667D01*
X124167885Y-101066667D02*
X124244076Y-101104762D01*
X124244076Y-101104762D02*
X124320266Y-101104762D01*
X124320266Y-101104762D02*
X124434552Y-101066667D01*
X124434552Y-101066667D02*
X124891695Y-100609524D01*
X124891695Y-100609524D02*
X124891695Y-101104762D01*
X124586933Y-101447620D02*
X124586933Y-102057144D01*
X124091695Y-102361905D02*
X124091695Y-102857143D01*
X124091695Y-102857143D02*
X124396457Y-102590477D01*
X124396457Y-102590477D02*
X124396457Y-102704762D01*
X124396457Y-102704762D02*
X124434552Y-102780953D01*
X124434552Y-102780953D02*
X124472647Y-102819048D01*
X124472647Y-102819048D02*
X124548838Y-102857143D01*
X124548838Y-102857143D02*
X124739314Y-102857143D01*
X124739314Y-102857143D02*
X124815504Y-102819048D01*
X124815504Y-102819048D02*
X124853600Y-102780953D01*
X124853600Y-102780953D02*
X124891695Y-102704762D01*
X124891695Y-102704762D02*
X124891695Y-102476191D01*
X124891695Y-102476191D02*
X124853600Y-102400000D01*
X124853600Y-102400000D02*
X124815504Y-102361905D01*
D12*
X129000000Y-99900000D02*
X129000000Y-97100000D01*
X129700000Y-96450000D02*
X130300000Y-96450000D01*
X130300000Y-100550000D02*
X129700000Y-100550000D01*
X131000000Y-97100000D02*
X131000000Y-99900000D01*
X129000000Y-97150000D02*
G75*
G02*
X129700000Y-96450000I699999J1D01*
G01*
X129700000Y-100550000D02*
G75*
G02*
X129000000Y-99850000I0J700000D01*
G01*
X130300000Y-96450000D02*
G75*
G02*
X131000000Y-97150000I1J-699999D01*
G01*
X131000000Y-99850000D02*
G75*
G02*
X130300000Y-100550000I-700000J0D01*
G01*
X135000000Y-90900000D02*
X135000000Y-88100000D01*
X135700000Y-87450000D02*
X136300000Y-87450000D01*
X136300000Y-91550000D02*
X135700000Y-91550000D01*
X137000000Y-88100000D02*
X137000000Y-90900000D01*
X135000000Y-88150000D02*
G75*
G02*
X135700000Y-87450000I699999J1D01*
G01*
X135700000Y-91550000D02*
G75*
G02*
X135000000Y-90850000I0J700000D01*
G01*
X136300000Y-87450000D02*
G75*
G02*
X137000000Y-88150000I1J-699999D01*
G01*
X137000000Y-90850000D02*
G75*
G02*
X136300000Y-91550000I-700000J0D01*
G01*
X135000000Y-99900000D02*
X135000000Y-97100000D01*
X135700000Y-96450000D02*
X136300000Y-96450000D01*
X136300000Y-100550000D02*
X135700000Y-100550000D01*
X137000000Y-97100000D02*
X137000000Y-99900000D01*
X135000000Y-97150000D02*
G75*
G02*
X135700000Y-96450000I699999J1D01*
G01*
X135700000Y-100550000D02*
G75*
G02*
X135000000Y-99850000I0J700000D01*
G01*
X136300000Y-96450000D02*
G75*
G02*
X137000000Y-97150000I1J-699999D01*
G01*
X137000000Y-99850000D02*
G75*
G02*
X136300000Y-100550000I-700000J0D01*
G01*
X129000000Y-90900000D02*
X129000000Y-88100000D01*
X129700000Y-87450000D02*
X130300000Y-87450000D01*
X130300000Y-91550000D02*
X129700000Y-91550000D01*
X131000000Y-88100000D02*
X131000000Y-90900000D01*
X129000000Y-88150000D02*
G75*
G02*
X129700000Y-87450000I699999J1D01*
G01*
X129700000Y-91550000D02*
G75*
G02*
X129000000Y-90850000I0J700000D01*
G01*
X130300000Y-87450000D02*
G75*
G02*
X131000000Y-88150000I1J-699999D01*
G01*
X131000000Y-90850000D02*
G75*
G02*
X130300000Y-91550000I-700000J0D01*
G01*
%LPC*%
D13*
X126468098Y-89600000D03*
X133468098Y-89600000D03*
X126468098Y-98600000D03*
X133468098Y-98600000D03*
D14*
X145635686Y-85882340D03*
D15*
X143095686Y-85882340D03*
D14*
X145294475Y-101670687D03*
D15*
X142754475Y-101670687D03*
D16*
X130000000Y-97200000D03*
D17*
X130000000Y-98500000D03*
D18*
X130000000Y-99800000D03*
D16*
X136000000Y-88200000D03*
D17*
X136000000Y-89500000D03*
D18*
X136000000Y-90800000D03*
D16*
X136000000Y-97200000D03*
D17*
X136000000Y-98500000D03*
D18*
X136000000Y-99800000D03*
D16*
X130000000Y-88200000D03*
D17*
X130000000Y-89500000D03*
D18*
X130000000Y-90800000D03*
%LPD*%
M02*
