%TF.GenerationSoftware,KiCad,Pcbnew,8.0.1*%
%TF.CreationDate,2024-03-31T17:01:06-05:00*%
%TF.ProjectId,minimidi_v1,6d696e69-6d69-4646-995f-76312e6b6963,rev?*%
%TF.SameCoordinates,Original*%
%TF.FileFunction,Drillmap*%
%TF.FilePolarity,Positive*%
%FSLAX45Y45*%
G04 Gerber Fmt 4.5, Leading zero omitted, Abs format (unit mm)*
G04 Created by KiCad (PCBNEW 8.0.1) date 2024-03-31 17:01:06*
%MOMM*%
%LPD*%
G01*
G04 APERTURE LIST*
%ADD10C,0.050000*%
%ADD11C,0.200000*%
%ADD12C,0.100000*%
G04 APERTURE END LIST*
D10*
X12050000Y-8350000D02*
X14900000Y-8350000D01*
X14900000Y-10500000D01*
X12050000Y-10500000D01*
X12050000Y-8350000D01*
D11*
D12*
X12385000Y-9385000D02*
X12415000Y-9415000D01*
X12415000Y-9385000D02*
X12385000Y-9415000D01*
X12751810Y-9685000D02*
X12781810Y-9715000D01*
X12781810Y-9685000D02*
X12751810Y-9715000D01*
X12785000Y-9135000D02*
X12815000Y-9165000D01*
X12815000Y-9135000D02*
X12785000Y-9165000D01*
X12835000Y-9835000D02*
X12865000Y-9865000D01*
X12865000Y-9835000D02*
X12835000Y-9865000D01*
X13135000Y-9985000D02*
X13165000Y-10015000D01*
X13165000Y-9985000D02*
X13135000Y-10015000D01*
X13235000Y-8735000D02*
X13265000Y-8765000D01*
X13265000Y-8735000D02*
X13235000Y-8765000D01*
X13285000Y-10135000D02*
X13315000Y-10165000D01*
X13315000Y-10135000D02*
X13285000Y-10165000D01*
X13435000Y-8835000D02*
X13465000Y-8865000D01*
X13465000Y-8835000D02*
X13435000Y-8865000D01*
X13435000Y-9635000D02*
X13465000Y-9665000D01*
X13465000Y-9635000D02*
X13435000Y-9665000D01*
X13435000Y-10035000D02*
X13465000Y-10065000D01*
X13465000Y-10035000D02*
X13435000Y-10065000D01*
X13585000Y-9285000D02*
X13615000Y-9315000D01*
X13615000Y-9285000D02*
X13585000Y-9315000D01*
X13585000Y-9835000D02*
X13615000Y-9865000D01*
X13615000Y-9835000D02*
X13585000Y-9865000D01*
X14325447Y-10167069D02*
G75*
G02*
X14225447Y-10167069I-50000J0D01*
G01*
X14225447Y-10167069D02*
G75*
G02*
X14325447Y-10167069I50000J0D01*
G01*
X14359569Y-8588234D02*
G75*
G02*
X14259569Y-8588234I-50000J0D01*
G01*
X14259569Y-8588234D02*
G75*
G02*
X14359569Y-8588234I50000J0D01*
G01*
X14579447Y-10167069D02*
G75*
G02*
X14479447Y-10167069I-50000J0D01*
G01*
X14479447Y-10167069D02*
G75*
G02*
X14579447Y-10167069I50000J0D01*
G01*
X14613569Y-8588234D02*
G75*
G02*
X14513569Y-8588234I-50000J0D01*
G01*
X14513569Y-8588234D02*
G75*
G02*
X14613569Y-8588234I50000J0D01*
G01*
D11*
X12308277Y-10813984D02*
X12308277Y-10613984D01*
X12308277Y-10613984D02*
X12355896Y-10613984D01*
X12355896Y-10613984D02*
X12384467Y-10623508D01*
X12384467Y-10623508D02*
X12403515Y-10642555D01*
X12403515Y-10642555D02*
X12413039Y-10661603D01*
X12413039Y-10661603D02*
X12422562Y-10699698D01*
X12422562Y-10699698D02*
X12422562Y-10728270D01*
X12422562Y-10728270D02*
X12413039Y-10766365D01*
X12413039Y-10766365D02*
X12403515Y-10785412D01*
X12403515Y-10785412D02*
X12384467Y-10804460D01*
X12384467Y-10804460D02*
X12355896Y-10813984D01*
X12355896Y-10813984D02*
X12308277Y-10813984D01*
X12508277Y-10813984D02*
X12508277Y-10680650D01*
X12508277Y-10718746D02*
X12517801Y-10699698D01*
X12517801Y-10699698D02*
X12527324Y-10690174D01*
X12527324Y-10690174D02*
X12546372Y-10680650D01*
X12546372Y-10680650D02*
X12565420Y-10680650D01*
X12632086Y-10813984D02*
X12632086Y-10680650D01*
X12632086Y-10613984D02*
X12622562Y-10623508D01*
X12622562Y-10623508D02*
X12632086Y-10633031D01*
X12632086Y-10633031D02*
X12641610Y-10623508D01*
X12641610Y-10623508D02*
X12632086Y-10613984D01*
X12632086Y-10613984D02*
X12632086Y-10633031D01*
X12755896Y-10813984D02*
X12736848Y-10804460D01*
X12736848Y-10804460D02*
X12727324Y-10785412D01*
X12727324Y-10785412D02*
X12727324Y-10613984D01*
X12860658Y-10813984D02*
X12841610Y-10804460D01*
X12841610Y-10804460D02*
X12832086Y-10785412D01*
X12832086Y-10785412D02*
X12832086Y-10613984D01*
X13089229Y-10813984D02*
X13089229Y-10613984D01*
X13089229Y-10613984D02*
X13155896Y-10756841D01*
X13155896Y-10756841D02*
X13222562Y-10613984D01*
X13222562Y-10613984D02*
X13222562Y-10813984D01*
X13403515Y-10813984D02*
X13403515Y-10709222D01*
X13403515Y-10709222D02*
X13393991Y-10690174D01*
X13393991Y-10690174D02*
X13374943Y-10680650D01*
X13374943Y-10680650D02*
X13336848Y-10680650D01*
X13336848Y-10680650D02*
X13317801Y-10690174D01*
X13403515Y-10804460D02*
X13384467Y-10813984D01*
X13384467Y-10813984D02*
X13336848Y-10813984D01*
X13336848Y-10813984D02*
X13317801Y-10804460D01*
X13317801Y-10804460D02*
X13308277Y-10785412D01*
X13308277Y-10785412D02*
X13308277Y-10766365D01*
X13308277Y-10766365D02*
X13317801Y-10747317D01*
X13317801Y-10747317D02*
X13336848Y-10737793D01*
X13336848Y-10737793D02*
X13384467Y-10737793D01*
X13384467Y-10737793D02*
X13403515Y-10728270D01*
X13498753Y-10680650D02*
X13498753Y-10880650D01*
X13498753Y-10690174D02*
X13517801Y-10680650D01*
X13517801Y-10680650D02*
X13555896Y-10680650D01*
X13555896Y-10680650D02*
X13574943Y-10690174D01*
X13574943Y-10690174D02*
X13584467Y-10699698D01*
X13584467Y-10699698D02*
X13593991Y-10718746D01*
X13593991Y-10718746D02*
X13593991Y-10775889D01*
X13593991Y-10775889D02*
X13584467Y-10794936D01*
X13584467Y-10794936D02*
X13574943Y-10804460D01*
X13574943Y-10804460D02*
X13555896Y-10813984D01*
X13555896Y-10813984D02*
X13517801Y-10813984D01*
X13517801Y-10813984D02*
X13498753Y-10804460D01*
X13679705Y-10794936D02*
X13689229Y-10804460D01*
X13689229Y-10804460D02*
X13679705Y-10813984D01*
X13679705Y-10813984D02*
X13670182Y-10804460D01*
X13670182Y-10804460D02*
X13679705Y-10794936D01*
X13679705Y-10794936D02*
X13679705Y-10813984D01*
X13679705Y-10690174D02*
X13689229Y-10699698D01*
X13689229Y-10699698D02*
X13679705Y-10709222D01*
X13679705Y-10709222D02*
X13670182Y-10699698D01*
X13670182Y-10699698D02*
X13679705Y-10690174D01*
X13679705Y-10690174D02*
X13679705Y-10709222D01*
D12*
X12017500Y-11127500D02*
X12047500Y-11157500D01*
X12047500Y-11127500D02*
X12017500Y-11157500D01*
D11*
X12346372Y-11033984D02*
X12365420Y-11033984D01*
X12365420Y-11033984D02*
X12384467Y-11043508D01*
X12384467Y-11043508D02*
X12393991Y-11053031D01*
X12393991Y-11053031D02*
X12403515Y-11072079D01*
X12403515Y-11072079D02*
X12413039Y-11110174D01*
X12413039Y-11110174D02*
X12413039Y-11157793D01*
X12413039Y-11157793D02*
X12403515Y-11195888D01*
X12403515Y-11195888D02*
X12393991Y-11214936D01*
X12393991Y-11214936D02*
X12384467Y-11224460D01*
X12384467Y-11224460D02*
X12365420Y-11233984D01*
X12365420Y-11233984D02*
X12346372Y-11233984D01*
X12346372Y-11233984D02*
X12327324Y-11224460D01*
X12327324Y-11224460D02*
X12317801Y-11214936D01*
X12317801Y-11214936D02*
X12308277Y-11195888D01*
X12308277Y-11195888D02*
X12298753Y-11157793D01*
X12298753Y-11157793D02*
X12298753Y-11110174D01*
X12298753Y-11110174D02*
X12308277Y-11072079D01*
X12308277Y-11072079D02*
X12317801Y-11053031D01*
X12317801Y-11053031D02*
X12327324Y-11043508D01*
X12327324Y-11043508D02*
X12346372Y-11033984D01*
X12498753Y-11214936D02*
X12508277Y-11224460D01*
X12508277Y-11224460D02*
X12498753Y-11233984D01*
X12498753Y-11233984D02*
X12489229Y-11224460D01*
X12489229Y-11224460D02*
X12498753Y-11214936D01*
X12498753Y-11214936D02*
X12498753Y-11233984D01*
X12574943Y-11033984D02*
X12698753Y-11033984D01*
X12698753Y-11033984D02*
X12632086Y-11110174D01*
X12632086Y-11110174D02*
X12660658Y-11110174D01*
X12660658Y-11110174D02*
X12679705Y-11119698D01*
X12679705Y-11119698D02*
X12689229Y-11129222D01*
X12689229Y-11129222D02*
X12698753Y-11148270D01*
X12698753Y-11148270D02*
X12698753Y-11195888D01*
X12698753Y-11195888D02*
X12689229Y-11214936D01*
X12689229Y-11214936D02*
X12679705Y-11224460D01*
X12679705Y-11224460D02*
X12660658Y-11233984D01*
X12660658Y-11233984D02*
X12603515Y-11233984D01*
X12603515Y-11233984D02*
X12584467Y-11224460D01*
X12584467Y-11224460D02*
X12574943Y-11214936D01*
X12822562Y-11033984D02*
X12841610Y-11033984D01*
X12841610Y-11033984D02*
X12860658Y-11043508D01*
X12860658Y-11043508D02*
X12870182Y-11053031D01*
X12870182Y-11053031D02*
X12879705Y-11072079D01*
X12879705Y-11072079D02*
X12889229Y-11110174D01*
X12889229Y-11110174D02*
X12889229Y-11157793D01*
X12889229Y-11157793D02*
X12879705Y-11195888D01*
X12879705Y-11195888D02*
X12870182Y-11214936D01*
X12870182Y-11214936D02*
X12860658Y-11224460D01*
X12860658Y-11224460D02*
X12841610Y-11233984D01*
X12841610Y-11233984D02*
X12822562Y-11233984D01*
X12822562Y-11233984D02*
X12803515Y-11224460D01*
X12803515Y-11224460D02*
X12793991Y-11214936D01*
X12793991Y-11214936D02*
X12784467Y-11195888D01*
X12784467Y-11195888D02*
X12774943Y-11157793D01*
X12774943Y-11157793D02*
X12774943Y-11110174D01*
X12774943Y-11110174D02*
X12784467Y-11072079D01*
X12784467Y-11072079D02*
X12793991Y-11053031D01*
X12793991Y-11053031D02*
X12803515Y-11043508D01*
X12803515Y-11043508D02*
X12822562Y-11033984D01*
X13013039Y-11033984D02*
X13032086Y-11033984D01*
X13032086Y-11033984D02*
X13051134Y-11043508D01*
X13051134Y-11043508D02*
X13060658Y-11053031D01*
X13060658Y-11053031D02*
X13070182Y-11072079D01*
X13070182Y-11072079D02*
X13079705Y-11110174D01*
X13079705Y-11110174D02*
X13079705Y-11157793D01*
X13079705Y-11157793D02*
X13070182Y-11195888D01*
X13070182Y-11195888D02*
X13060658Y-11214936D01*
X13060658Y-11214936D02*
X13051134Y-11224460D01*
X13051134Y-11224460D02*
X13032086Y-11233984D01*
X13032086Y-11233984D02*
X13013039Y-11233984D01*
X13013039Y-11233984D02*
X12993991Y-11224460D01*
X12993991Y-11224460D02*
X12984467Y-11214936D01*
X12984467Y-11214936D02*
X12974943Y-11195888D01*
X12974943Y-11195888D02*
X12965420Y-11157793D01*
X12965420Y-11157793D02*
X12965420Y-11110174D01*
X12965420Y-11110174D02*
X12974943Y-11072079D01*
X12974943Y-11072079D02*
X12984467Y-11053031D01*
X12984467Y-11053031D02*
X12993991Y-11043508D01*
X12993991Y-11043508D02*
X13013039Y-11033984D01*
X13165420Y-11233984D02*
X13165420Y-11100650D01*
X13165420Y-11119698D02*
X13174943Y-11110174D01*
X13174943Y-11110174D02*
X13193991Y-11100650D01*
X13193991Y-11100650D02*
X13222563Y-11100650D01*
X13222563Y-11100650D02*
X13241610Y-11110174D01*
X13241610Y-11110174D02*
X13251134Y-11129222D01*
X13251134Y-11129222D02*
X13251134Y-11233984D01*
X13251134Y-11129222D02*
X13260658Y-11110174D01*
X13260658Y-11110174D02*
X13279705Y-11100650D01*
X13279705Y-11100650D02*
X13308277Y-11100650D01*
X13308277Y-11100650D02*
X13327324Y-11110174D01*
X13327324Y-11110174D02*
X13336848Y-11129222D01*
X13336848Y-11129222D02*
X13336848Y-11233984D01*
X13432086Y-11233984D02*
X13432086Y-11100650D01*
X13432086Y-11119698D02*
X13441610Y-11110174D01*
X13441610Y-11110174D02*
X13460658Y-11100650D01*
X13460658Y-11100650D02*
X13489229Y-11100650D01*
X13489229Y-11100650D02*
X13508277Y-11110174D01*
X13508277Y-11110174D02*
X13517801Y-11129222D01*
X13517801Y-11129222D02*
X13517801Y-11233984D01*
X13517801Y-11129222D02*
X13527324Y-11110174D01*
X13527324Y-11110174D02*
X13546372Y-11100650D01*
X13546372Y-11100650D02*
X13574943Y-11100650D01*
X13574943Y-11100650D02*
X13593991Y-11110174D01*
X13593991Y-11110174D02*
X13603515Y-11129222D01*
X13603515Y-11129222D02*
X13603515Y-11233984D01*
X13993991Y-11024460D02*
X13822563Y-11281603D01*
X14251134Y-11033984D02*
X14270182Y-11033984D01*
X14270182Y-11033984D02*
X14289229Y-11043508D01*
X14289229Y-11043508D02*
X14298753Y-11053031D01*
X14298753Y-11053031D02*
X14308277Y-11072079D01*
X14308277Y-11072079D02*
X14317801Y-11110174D01*
X14317801Y-11110174D02*
X14317801Y-11157793D01*
X14317801Y-11157793D02*
X14308277Y-11195888D01*
X14308277Y-11195888D02*
X14298753Y-11214936D01*
X14298753Y-11214936D02*
X14289229Y-11224460D01*
X14289229Y-11224460D02*
X14270182Y-11233984D01*
X14270182Y-11233984D02*
X14251134Y-11233984D01*
X14251134Y-11233984D02*
X14232086Y-11224460D01*
X14232086Y-11224460D02*
X14222563Y-11214936D01*
X14222563Y-11214936D02*
X14213039Y-11195888D01*
X14213039Y-11195888D02*
X14203515Y-11157793D01*
X14203515Y-11157793D02*
X14203515Y-11110174D01*
X14203515Y-11110174D02*
X14213039Y-11072079D01*
X14213039Y-11072079D02*
X14222563Y-11053031D01*
X14222563Y-11053031D02*
X14232086Y-11043508D01*
X14232086Y-11043508D02*
X14251134Y-11033984D01*
X14403515Y-11214936D02*
X14413039Y-11224460D01*
X14413039Y-11224460D02*
X14403515Y-11233984D01*
X14403515Y-11233984D02*
X14393991Y-11224460D01*
X14393991Y-11224460D02*
X14403515Y-11214936D01*
X14403515Y-11214936D02*
X14403515Y-11233984D01*
X14536848Y-11033984D02*
X14555896Y-11033984D01*
X14555896Y-11033984D02*
X14574944Y-11043508D01*
X14574944Y-11043508D02*
X14584467Y-11053031D01*
X14584467Y-11053031D02*
X14593991Y-11072079D01*
X14593991Y-11072079D02*
X14603515Y-11110174D01*
X14603515Y-11110174D02*
X14603515Y-11157793D01*
X14603515Y-11157793D02*
X14593991Y-11195888D01*
X14593991Y-11195888D02*
X14584467Y-11214936D01*
X14584467Y-11214936D02*
X14574944Y-11224460D01*
X14574944Y-11224460D02*
X14555896Y-11233984D01*
X14555896Y-11233984D02*
X14536848Y-11233984D01*
X14536848Y-11233984D02*
X14517801Y-11224460D01*
X14517801Y-11224460D02*
X14508277Y-11214936D01*
X14508277Y-11214936D02*
X14498753Y-11195888D01*
X14498753Y-11195888D02*
X14489229Y-11157793D01*
X14489229Y-11157793D02*
X14489229Y-11110174D01*
X14489229Y-11110174D02*
X14498753Y-11072079D01*
X14498753Y-11072079D02*
X14508277Y-11053031D01*
X14508277Y-11053031D02*
X14517801Y-11043508D01*
X14517801Y-11043508D02*
X14536848Y-11033984D01*
X14793991Y-11233984D02*
X14679706Y-11233984D01*
X14736848Y-11233984D02*
X14736848Y-11033984D01*
X14736848Y-11033984D02*
X14717801Y-11062555D01*
X14717801Y-11062555D02*
X14698753Y-11081603D01*
X14698753Y-11081603D02*
X14679706Y-11091127D01*
X14984467Y-11233984D02*
X14870182Y-11233984D01*
X14927325Y-11233984D02*
X14927325Y-11033984D01*
X14927325Y-11033984D02*
X14908277Y-11062555D01*
X14908277Y-11062555D02*
X14889229Y-11081603D01*
X14889229Y-11081603D02*
X14870182Y-11091127D01*
X15098753Y-11119698D02*
X15079706Y-11110174D01*
X15079706Y-11110174D02*
X15070182Y-11100650D01*
X15070182Y-11100650D02*
X15060658Y-11081603D01*
X15060658Y-11081603D02*
X15060658Y-11072079D01*
X15060658Y-11072079D02*
X15070182Y-11053031D01*
X15070182Y-11053031D02*
X15079706Y-11043508D01*
X15079706Y-11043508D02*
X15098753Y-11033984D01*
X15098753Y-11033984D02*
X15136848Y-11033984D01*
X15136848Y-11033984D02*
X15155896Y-11043508D01*
X15155896Y-11043508D02*
X15165420Y-11053031D01*
X15165420Y-11053031D02*
X15174944Y-11072079D01*
X15174944Y-11072079D02*
X15174944Y-11081603D01*
X15174944Y-11081603D02*
X15165420Y-11100650D01*
X15165420Y-11100650D02*
X15155896Y-11110174D01*
X15155896Y-11110174D02*
X15136848Y-11119698D01*
X15136848Y-11119698D02*
X15098753Y-11119698D01*
X15098753Y-11119698D02*
X15079706Y-11129222D01*
X15079706Y-11129222D02*
X15070182Y-11138746D01*
X15070182Y-11138746D02*
X15060658Y-11157793D01*
X15060658Y-11157793D02*
X15060658Y-11195888D01*
X15060658Y-11195888D02*
X15070182Y-11214936D01*
X15070182Y-11214936D02*
X15079706Y-11224460D01*
X15079706Y-11224460D02*
X15098753Y-11233984D01*
X15098753Y-11233984D02*
X15136848Y-11233984D01*
X15136848Y-11233984D02*
X15155896Y-11224460D01*
X15155896Y-11224460D02*
X15165420Y-11214936D01*
X15165420Y-11214936D02*
X15174944Y-11195888D01*
X15174944Y-11195888D02*
X15174944Y-11157793D01*
X15174944Y-11157793D02*
X15165420Y-11138746D01*
X15165420Y-11138746D02*
X15155896Y-11129222D01*
X15155896Y-11129222D02*
X15136848Y-11119698D01*
X15251134Y-11033984D02*
X15251134Y-11072079D01*
X15327325Y-11033984D02*
X15327325Y-11072079D01*
X15622563Y-11310174D02*
X15613039Y-11300650D01*
X15613039Y-11300650D02*
X15593991Y-11272079D01*
X15593991Y-11272079D02*
X15584468Y-11253031D01*
X15584468Y-11253031D02*
X15574944Y-11224460D01*
X15574944Y-11224460D02*
X15565420Y-11176841D01*
X15565420Y-11176841D02*
X15565420Y-11138746D01*
X15565420Y-11138746D02*
X15574944Y-11091127D01*
X15574944Y-11091127D02*
X15584468Y-11062555D01*
X15584468Y-11062555D02*
X15593991Y-11043508D01*
X15593991Y-11043508D02*
X15613039Y-11014936D01*
X15613039Y-11014936D02*
X15622563Y-11005412D01*
X15803515Y-11233984D02*
X15689229Y-11233984D01*
X15746372Y-11233984D02*
X15746372Y-11033984D01*
X15746372Y-11033984D02*
X15727325Y-11062555D01*
X15727325Y-11062555D02*
X15708277Y-11081603D01*
X15708277Y-11081603D02*
X15689229Y-11091127D01*
X15879706Y-11053031D02*
X15889229Y-11043508D01*
X15889229Y-11043508D02*
X15908277Y-11033984D01*
X15908277Y-11033984D02*
X15955896Y-11033984D01*
X15955896Y-11033984D02*
X15974944Y-11043508D01*
X15974944Y-11043508D02*
X15984468Y-11053031D01*
X15984468Y-11053031D02*
X15993991Y-11072079D01*
X15993991Y-11072079D02*
X15993991Y-11091127D01*
X15993991Y-11091127D02*
X15984468Y-11119698D01*
X15984468Y-11119698D02*
X15870182Y-11233984D01*
X15870182Y-11233984D02*
X15993991Y-11233984D01*
X16232087Y-11233984D02*
X16232087Y-11033984D01*
X16317801Y-11233984D02*
X16317801Y-11129222D01*
X16317801Y-11129222D02*
X16308277Y-11110174D01*
X16308277Y-11110174D02*
X16289230Y-11100650D01*
X16289230Y-11100650D02*
X16260658Y-11100650D01*
X16260658Y-11100650D02*
X16241610Y-11110174D01*
X16241610Y-11110174D02*
X16232087Y-11119698D01*
X16441610Y-11233984D02*
X16422563Y-11224460D01*
X16422563Y-11224460D02*
X16413039Y-11214936D01*
X16413039Y-11214936D02*
X16403515Y-11195888D01*
X16403515Y-11195888D02*
X16403515Y-11138746D01*
X16403515Y-11138746D02*
X16413039Y-11119698D01*
X16413039Y-11119698D02*
X16422563Y-11110174D01*
X16422563Y-11110174D02*
X16441610Y-11100650D01*
X16441610Y-11100650D02*
X16470182Y-11100650D01*
X16470182Y-11100650D02*
X16489230Y-11110174D01*
X16489230Y-11110174D02*
X16498753Y-11119698D01*
X16498753Y-11119698D02*
X16508277Y-11138746D01*
X16508277Y-11138746D02*
X16508277Y-11195888D01*
X16508277Y-11195888D02*
X16498753Y-11214936D01*
X16498753Y-11214936D02*
X16489230Y-11224460D01*
X16489230Y-11224460D02*
X16470182Y-11233984D01*
X16470182Y-11233984D02*
X16441610Y-11233984D01*
X16622563Y-11233984D02*
X16603515Y-11224460D01*
X16603515Y-11224460D02*
X16593991Y-11205412D01*
X16593991Y-11205412D02*
X16593991Y-11033984D01*
X16774944Y-11224460D02*
X16755896Y-11233984D01*
X16755896Y-11233984D02*
X16717801Y-11233984D01*
X16717801Y-11233984D02*
X16698753Y-11224460D01*
X16698753Y-11224460D02*
X16689230Y-11205412D01*
X16689230Y-11205412D02*
X16689230Y-11129222D01*
X16689230Y-11129222D02*
X16698753Y-11110174D01*
X16698753Y-11110174D02*
X16717801Y-11100650D01*
X16717801Y-11100650D02*
X16755896Y-11100650D01*
X16755896Y-11100650D02*
X16774944Y-11110174D01*
X16774944Y-11110174D02*
X16784468Y-11129222D01*
X16784468Y-11129222D02*
X16784468Y-11148270D01*
X16784468Y-11148270D02*
X16689230Y-11167317D01*
X16860658Y-11224460D02*
X16879706Y-11233984D01*
X16879706Y-11233984D02*
X16917801Y-11233984D01*
X16917801Y-11233984D02*
X16936849Y-11224460D01*
X16936849Y-11224460D02*
X16946373Y-11205412D01*
X16946373Y-11205412D02*
X16946373Y-11195888D01*
X16946373Y-11195888D02*
X16936849Y-11176841D01*
X16936849Y-11176841D02*
X16917801Y-11167317D01*
X16917801Y-11167317D02*
X16889230Y-11167317D01*
X16889230Y-11167317D02*
X16870182Y-11157793D01*
X16870182Y-11157793D02*
X16860658Y-11138746D01*
X16860658Y-11138746D02*
X16860658Y-11129222D01*
X16860658Y-11129222D02*
X16870182Y-11110174D01*
X16870182Y-11110174D02*
X16889230Y-11100650D01*
X16889230Y-11100650D02*
X16917801Y-11100650D01*
X16917801Y-11100650D02*
X16936849Y-11110174D01*
X17013039Y-11310174D02*
X17022563Y-11300650D01*
X17022563Y-11300650D02*
X17041611Y-11272079D01*
X17041611Y-11272079D02*
X17051134Y-11253031D01*
X17051134Y-11253031D02*
X17060658Y-11224460D01*
X17060658Y-11224460D02*
X17070182Y-11176841D01*
X17070182Y-11176841D02*
X17070182Y-11138746D01*
X17070182Y-11138746D02*
X17060658Y-11091127D01*
X17060658Y-11091127D02*
X17051134Y-11062555D01*
X17051134Y-11062555D02*
X17041611Y-11043508D01*
X17041611Y-11043508D02*
X17022563Y-11014936D01*
X17022563Y-11014936D02*
X17013039Y-11005412D01*
D12*
X12047500Y-11406500D02*
G75*
G02*
X11947500Y-11406500I-50000J0D01*
G01*
X11947500Y-11406500D02*
G75*
G02*
X12047500Y-11406500I50000J0D01*
G01*
D11*
X12413039Y-11497984D02*
X12298753Y-11497984D01*
X12355896Y-11497984D02*
X12355896Y-11297984D01*
X12355896Y-11297984D02*
X12336848Y-11326555D01*
X12336848Y-11326555D02*
X12317801Y-11345603D01*
X12317801Y-11345603D02*
X12298753Y-11355127D01*
X12498753Y-11478936D02*
X12508277Y-11488460D01*
X12508277Y-11488460D02*
X12498753Y-11497984D01*
X12498753Y-11497984D02*
X12489229Y-11488460D01*
X12489229Y-11488460D02*
X12498753Y-11478936D01*
X12498753Y-11478936D02*
X12498753Y-11497984D01*
X12632086Y-11297984D02*
X12651134Y-11297984D01*
X12651134Y-11297984D02*
X12670182Y-11307508D01*
X12670182Y-11307508D02*
X12679705Y-11317031D01*
X12679705Y-11317031D02*
X12689229Y-11336079D01*
X12689229Y-11336079D02*
X12698753Y-11374174D01*
X12698753Y-11374174D02*
X12698753Y-11421793D01*
X12698753Y-11421793D02*
X12689229Y-11459888D01*
X12689229Y-11459888D02*
X12679705Y-11478936D01*
X12679705Y-11478936D02*
X12670182Y-11488460D01*
X12670182Y-11488460D02*
X12651134Y-11497984D01*
X12651134Y-11497984D02*
X12632086Y-11497984D01*
X12632086Y-11497984D02*
X12613039Y-11488460D01*
X12613039Y-11488460D02*
X12603515Y-11478936D01*
X12603515Y-11478936D02*
X12593991Y-11459888D01*
X12593991Y-11459888D02*
X12584467Y-11421793D01*
X12584467Y-11421793D02*
X12584467Y-11374174D01*
X12584467Y-11374174D02*
X12593991Y-11336079D01*
X12593991Y-11336079D02*
X12603515Y-11317031D01*
X12603515Y-11317031D02*
X12613039Y-11307508D01*
X12613039Y-11307508D02*
X12632086Y-11297984D01*
X12822562Y-11297984D02*
X12841610Y-11297984D01*
X12841610Y-11297984D02*
X12860658Y-11307508D01*
X12860658Y-11307508D02*
X12870182Y-11317031D01*
X12870182Y-11317031D02*
X12879705Y-11336079D01*
X12879705Y-11336079D02*
X12889229Y-11374174D01*
X12889229Y-11374174D02*
X12889229Y-11421793D01*
X12889229Y-11421793D02*
X12879705Y-11459888D01*
X12879705Y-11459888D02*
X12870182Y-11478936D01*
X12870182Y-11478936D02*
X12860658Y-11488460D01*
X12860658Y-11488460D02*
X12841610Y-11497984D01*
X12841610Y-11497984D02*
X12822562Y-11497984D01*
X12822562Y-11497984D02*
X12803515Y-11488460D01*
X12803515Y-11488460D02*
X12793991Y-11478936D01*
X12793991Y-11478936D02*
X12784467Y-11459888D01*
X12784467Y-11459888D02*
X12774943Y-11421793D01*
X12774943Y-11421793D02*
X12774943Y-11374174D01*
X12774943Y-11374174D02*
X12784467Y-11336079D01*
X12784467Y-11336079D02*
X12793991Y-11317031D01*
X12793991Y-11317031D02*
X12803515Y-11307508D01*
X12803515Y-11307508D02*
X12822562Y-11297984D01*
X13013039Y-11297984D02*
X13032086Y-11297984D01*
X13032086Y-11297984D02*
X13051134Y-11307508D01*
X13051134Y-11307508D02*
X13060658Y-11317031D01*
X13060658Y-11317031D02*
X13070182Y-11336079D01*
X13070182Y-11336079D02*
X13079705Y-11374174D01*
X13079705Y-11374174D02*
X13079705Y-11421793D01*
X13079705Y-11421793D02*
X13070182Y-11459888D01*
X13070182Y-11459888D02*
X13060658Y-11478936D01*
X13060658Y-11478936D02*
X13051134Y-11488460D01*
X13051134Y-11488460D02*
X13032086Y-11497984D01*
X13032086Y-11497984D02*
X13013039Y-11497984D01*
X13013039Y-11497984D02*
X12993991Y-11488460D01*
X12993991Y-11488460D02*
X12984467Y-11478936D01*
X12984467Y-11478936D02*
X12974943Y-11459888D01*
X12974943Y-11459888D02*
X12965420Y-11421793D01*
X12965420Y-11421793D02*
X12965420Y-11374174D01*
X12965420Y-11374174D02*
X12974943Y-11336079D01*
X12974943Y-11336079D02*
X12984467Y-11317031D01*
X12984467Y-11317031D02*
X12993991Y-11307508D01*
X12993991Y-11307508D02*
X13013039Y-11297984D01*
X13165420Y-11497984D02*
X13165420Y-11364650D01*
X13165420Y-11383698D02*
X13174943Y-11374174D01*
X13174943Y-11374174D02*
X13193991Y-11364650D01*
X13193991Y-11364650D02*
X13222563Y-11364650D01*
X13222563Y-11364650D02*
X13241610Y-11374174D01*
X13241610Y-11374174D02*
X13251134Y-11393222D01*
X13251134Y-11393222D02*
X13251134Y-11497984D01*
X13251134Y-11393222D02*
X13260658Y-11374174D01*
X13260658Y-11374174D02*
X13279705Y-11364650D01*
X13279705Y-11364650D02*
X13308277Y-11364650D01*
X13308277Y-11364650D02*
X13327324Y-11374174D01*
X13327324Y-11374174D02*
X13336848Y-11393222D01*
X13336848Y-11393222D02*
X13336848Y-11497984D01*
X13432086Y-11497984D02*
X13432086Y-11364650D01*
X13432086Y-11383698D02*
X13441610Y-11374174D01*
X13441610Y-11374174D02*
X13460658Y-11364650D01*
X13460658Y-11364650D02*
X13489229Y-11364650D01*
X13489229Y-11364650D02*
X13508277Y-11374174D01*
X13508277Y-11374174D02*
X13517801Y-11393222D01*
X13517801Y-11393222D02*
X13517801Y-11497984D01*
X13517801Y-11393222D02*
X13527324Y-11374174D01*
X13527324Y-11374174D02*
X13546372Y-11364650D01*
X13546372Y-11364650D02*
X13574943Y-11364650D01*
X13574943Y-11364650D02*
X13593991Y-11374174D01*
X13593991Y-11374174D02*
X13603515Y-11393222D01*
X13603515Y-11393222D02*
X13603515Y-11497984D01*
X13993991Y-11288460D02*
X13822563Y-11545603D01*
X14251134Y-11297984D02*
X14270182Y-11297984D01*
X14270182Y-11297984D02*
X14289229Y-11307508D01*
X14289229Y-11307508D02*
X14298753Y-11317031D01*
X14298753Y-11317031D02*
X14308277Y-11336079D01*
X14308277Y-11336079D02*
X14317801Y-11374174D01*
X14317801Y-11374174D02*
X14317801Y-11421793D01*
X14317801Y-11421793D02*
X14308277Y-11459888D01*
X14308277Y-11459888D02*
X14298753Y-11478936D01*
X14298753Y-11478936D02*
X14289229Y-11488460D01*
X14289229Y-11488460D02*
X14270182Y-11497984D01*
X14270182Y-11497984D02*
X14251134Y-11497984D01*
X14251134Y-11497984D02*
X14232086Y-11488460D01*
X14232086Y-11488460D02*
X14222563Y-11478936D01*
X14222563Y-11478936D02*
X14213039Y-11459888D01*
X14213039Y-11459888D02*
X14203515Y-11421793D01*
X14203515Y-11421793D02*
X14203515Y-11374174D01*
X14203515Y-11374174D02*
X14213039Y-11336079D01*
X14213039Y-11336079D02*
X14222563Y-11317031D01*
X14222563Y-11317031D02*
X14232086Y-11307508D01*
X14232086Y-11307508D02*
X14251134Y-11297984D01*
X14403515Y-11478936D02*
X14413039Y-11488460D01*
X14413039Y-11488460D02*
X14403515Y-11497984D01*
X14403515Y-11497984D02*
X14393991Y-11488460D01*
X14393991Y-11488460D02*
X14403515Y-11478936D01*
X14403515Y-11478936D02*
X14403515Y-11497984D01*
X14536848Y-11297984D02*
X14555896Y-11297984D01*
X14555896Y-11297984D02*
X14574944Y-11307508D01*
X14574944Y-11307508D02*
X14584467Y-11317031D01*
X14584467Y-11317031D02*
X14593991Y-11336079D01*
X14593991Y-11336079D02*
X14603515Y-11374174D01*
X14603515Y-11374174D02*
X14603515Y-11421793D01*
X14603515Y-11421793D02*
X14593991Y-11459888D01*
X14593991Y-11459888D02*
X14584467Y-11478936D01*
X14584467Y-11478936D02*
X14574944Y-11488460D01*
X14574944Y-11488460D02*
X14555896Y-11497984D01*
X14555896Y-11497984D02*
X14536848Y-11497984D01*
X14536848Y-11497984D02*
X14517801Y-11488460D01*
X14517801Y-11488460D02*
X14508277Y-11478936D01*
X14508277Y-11478936D02*
X14498753Y-11459888D01*
X14498753Y-11459888D02*
X14489229Y-11421793D01*
X14489229Y-11421793D02*
X14489229Y-11374174D01*
X14489229Y-11374174D02*
X14498753Y-11336079D01*
X14498753Y-11336079D02*
X14508277Y-11317031D01*
X14508277Y-11317031D02*
X14517801Y-11307508D01*
X14517801Y-11307508D02*
X14536848Y-11297984D01*
X14670182Y-11297984D02*
X14793991Y-11297984D01*
X14793991Y-11297984D02*
X14727325Y-11374174D01*
X14727325Y-11374174D02*
X14755896Y-11374174D01*
X14755896Y-11374174D02*
X14774944Y-11383698D01*
X14774944Y-11383698D02*
X14784467Y-11393222D01*
X14784467Y-11393222D02*
X14793991Y-11412269D01*
X14793991Y-11412269D02*
X14793991Y-11459888D01*
X14793991Y-11459888D02*
X14784467Y-11478936D01*
X14784467Y-11478936D02*
X14774944Y-11488460D01*
X14774944Y-11488460D02*
X14755896Y-11497984D01*
X14755896Y-11497984D02*
X14698753Y-11497984D01*
X14698753Y-11497984D02*
X14679706Y-11488460D01*
X14679706Y-11488460D02*
X14670182Y-11478936D01*
X14889229Y-11497984D02*
X14927325Y-11497984D01*
X14927325Y-11497984D02*
X14946372Y-11488460D01*
X14946372Y-11488460D02*
X14955896Y-11478936D01*
X14955896Y-11478936D02*
X14974944Y-11450365D01*
X14974944Y-11450365D02*
X14984467Y-11412269D01*
X14984467Y-11412269D02*
X14984467Y-11336079D01*
X14984467Y-11336079D02*
X14974944Y-11317031D01*
X14974944Y-11317031D02*
X14965420Y-11307508D01*
X14965420Y-11307508D02*
X14946372Y-11297984D01*
X14946372Y-11297984D02*
X14908277Y-11297984D01*
X14908277Y-11297984D02*
X14889229Y-11307508D01*
X14889229Y-11307508D02*
X14879706Y-11317031D01*
X14879706Y-11317031D02*
X14870182Y-11336079D01*
X14870182Y-11336079D02*
X14870182Y-11383698D01*
X14870182Y-11383698D02*
X14879706Y-11402746D01*
X14879706Y-11402746D02*
X14889229Y-11412269D01*
X14889229Y-11412269D02*
X14908277Y-11421793D01*
X14908277Y-11421793D02*
X14946372Y-11421793D01*
X14946372Y-11421793D02*
X14965420Y-11412269D01*
X14965420Y-11412269D02*
X14974944Y-11402746D01*
X14974944Y-11402746D02*
X14984467Y-11383698D01*
X15155896Y-11364650D02*
X15155896Y-11497984D01*
X15108277Y-11288460D02*
X15060658Y-11431317D01*
X15060658Y-11431317D02*
X15184467Y-11431317D01*
X15251134Y-11297984D02*
X15251134Y-11336079D01*
X15327325Y-11297984D02*
X15327325Y-11336079D01*
X15622563Y-11574174D02*
X15613039Y-11564650D01*
X15613039Y-11564650D02*
X15593991Y-11536079D01*
X15593991Y-11536079D02*
X15584468Y-11517031D01*
X15584468Y-11517031D02*
X15574944Y-11488460D01*
X15574944Y-11488460D02*
X15565420Y-11440841D01*
X15565420Y-11440841D02*
X15565420Y-11402746D01*
X15565420Y-11402746D02*
X15574944Y-11355127D01*
X15574944Y-11355127D02*
X15584468Y-11326555D01*
X15584468Y-11326555D02*
X15593991Y-11307508D01*
X15593991Y-11307508D02*
X15613039Y-11278936D01*
X15613039Y-11278936D02*
X15622563Y-11269412D01*
X15784468Y-11364650D02*
X15784468Y-11497984D01*
X15736848Y-11288460D02*
X15689229Y-11431317D01*
X15689229Y-11431317D02*
X15813039Y-11431317D01*
X16041610Y-11497984D02*
X16041610Y-11297984D01*
X16127325Y-11497984D02*
X16127325Y-11393222D01*
X16127325Y-11393222D02*
X16117801Y-11374174D01*
X16117801Y-11374174D02*
X16098753Y-11364650D01*
X16098753Y-11364650D02*
X16070182Y-11364650D01*
X16070182Y-11364650D02*
X16051134Y-11374174D01*
X16051134Y-11374174D02*
X16041610Y-11383698D01*
X16251134Y-11497984D02*
X16232087Y-11488460D01*
X16232087Y-11488460D02*
X16222563Y-11478936D01*
X16222563Y-11478936D02*
X16213039Y-11459888D01*
X16213039Y-11459888D02*
X16213039Y-11402746D01*
X16213039Y-11402746D02*
X16222563Y-11383698D01*
X16222563Y-11383698D02*
X16232087Y-11374174D01*
X16232087Y-11374174D02*
X16251134Y-11364650D01*
X16251134Y-11364650D02*
X16279706Y-11364650D01*
X16279706Y-11364650D02*
X16298753Y-11374174D01*
X16298753Y-11374174D02*
X16308277Y-11383698D01*
X16308277Y-11383698D02*
X16317801Y-11402746D01*
X16317801Y-11402746D02*
X16317801Y-11459888D01*
X16317801Y-11459888D02*
X16308277Y-11478936D01*
X16308277Y-11478936D02*
X16298753Y-11488460D01*
X16298753Y-11488460D02*
X16279706Y-11497984D01*
X16279706Y-11497984D02*
X16251134Y-11497984D01*
X16432087Y-11497984D02*
X16413039Y-11488460D01*
X16413039Y-11488460D02*
X16403515Y-11469412D01*
X16403515Y-11469412D02*
X16403515Y-11297984D01*
X16584468Y-11488460D02*
X16565420Y-11497984D01*
X16565420Y-11497984D02*
X16527325Y-11497984D01*
X16527325Y-11497984D02*
X16508277Y-11488460D01*
X16508277Y-11488460D02*
X16498753Y-11469412D01*
X16498753Y-11469412D02*
X16498753Y-11393222D01*
X16498753Y-11393222D02*
X16508277Y-11374174D01*
X16508277Y-11374174D02*
X16527325Y-11364650D01*
X16527325Y-11364650D02*
X16565420Y-11364650D01*
X16565420Y-11364650D02*
X16584468Y-11374174D01*
X16584468Y-11374174D02*
X16593991Y-11393222D01*
X16593991Y-11393222D02*
X16593991Y-11412269D01*
X16593991Y-11412269D02*
X16498753Y-11431317D01*
X16670182Y-11488460D02*
X16689230Y-11497984D01*
X16689230Y-11497984D02*
X16727325Y-11497984D01*
X16727325Y-11497984D02*
X16746372Y-11488460D01*
X16746372Y-11488460D02*
X16755896Y-11469412D01*
X16755896Y-11469412D02*
X16755896Y-11459888D01*
X16755896Y-11459888D02*
X16746372Y-11440841D01*
X16746372Y-11440841D02*
X16727325Y-11431317D01*
X16727325Y-11431317D02*
X16698753Y-11431317D01*
X16698753Y-11431317D02*
X16679706Y-11421793D01*
X16679706Y-11421793D02*
X16670182Y-11402746D01*
X16670182Y-11402746D02*
X16670182Y-11393222D01*
X16670182Y-11393222D02*
X16679706Y-11374174D01*
X16679706Y-11374174D02*
X16698753Y-11364650D01*
X16698753Y-11364650D02*
X16727325Y-11364650D01*
X16727325Y-11364650D02*
X16746372Y-11374174D01*
X16822563Y-11574174D02*
X16832087Y-11564650D01*
X16832087Y-11564650D02*
X16851134Y-11536079D01*
X16851134Y-11536079D02*
X16860658Y-11517031D01*
X16860658Y-11517031D02*
X16870182Y-11488460D01*
X16870182Y-11488460D02*
X16879706Y-11440841D01*
X16879706Y-11440841D02*
X16879706Y-11402746D01*
X16879706Y-11402746D02*
X16870182Y-11355127D01*
X16870182Y-11355127D02*
X16860658Y-11326555D01*
X16860658Y-11326555D02*
X16851134Y-11307508D01*
X16851134Y-11307508D02*
X16832087Y-11278936D01*
X16832087Y-11278936D02*
X16822563Y-11269412D01*
M02*
