G04 #@! TF.GenerationSoftware,KiCad,Pcbnew,8.0.1*
G04 #@! TF.CreationDate,2024-03-31T17:01:24-05:00*
G04 #@! TF.ProjectId,minimidi_v1,6d696e69-6d69-4646-995f-76312e6b6963,rev?*
G04 #@! TF.SameCoordinates,Original*
G04 #@! TF.FileFunction,Copper,L2,Bot*
G04 #@! TF.FilePolarity,Positive*
%FSLAX46Y46*%
G04 Gerber Fmt 4.6, Leading zero omitted, Abs format (unit mm)*
G04 Created by KiCad (PCBNEW 8.0.1) date 2024-03-31 17:01:24*
%MOMM*%
%LPD*%
G01*
G04 APERTURE LIST*
G04 Aperture macros list*
%AMFreePoly0*
4,1,19,0.550000,-0.750000,0.000000,-0.750000,0.000000,-0.744911,-0.071157,-0.744911,-0.207708,-0.704816,-0.327430,-0.627875,-0.420627,-0.520320,-0.479746,-0.390866,-0.500000,-0.250000,-0.500000,0.250000,-0.479746,0.390866,-0.420627,0.520320,-0.327430,0.627875,-0.207708,0.704816,-0.071157,0.744911,0.000000,0.744911,0.000000,0.750000,0.550000,0.750000,0.550000,-0.750000,0.550000,-0.750000,
$1*%
%AMFreePoly1*
4,1,19,0.000000,0.744911,0.071157,0.744911,0.207708,0.704816,0.327430,0.627875,0.420627,0.520320,0.479746,0.390866,0.500000,0.250000,0.500000,-0.250000,0.479746,-0.390866,0.420627,-0.520320,0.327430,-0.627875,0.207708,-0.704816,0.071157,-0.744911,0.000000,-0.744911,0.000000,-0.750000,-0.550000,-0.750000,-0.550000,0.750000,0.000000,0.750000,0.000000,0.744911,0.000000,0.744911,
$1*%
G04 Aperture macros list end*
G04 #@! TA.AperFunction,ComponentPad*
%ADD10R,1.700000X1.700000*%
G04 #@! TD*
G04 #@! TA.AperFunction,ComponentPad*
%ADD11O,1.700000X1.700000*%
G04 #@! TD*
G04 #@! TA.AperFunction,SMDPad,CuDef*
%ADD12FreePoly0,270.000000*%
G04 #@! TD*
G04 #@! TA.AperFunction,SMDPad,CuDef*
%ADD13R,1.500000X1.000000*%
G04 #@! TD*
G04 #@! TA.AperFunction,SMDPad,CuDef*
%ADD14FreePoly1,270.000000*%
G04 #@! TD*
G04 #@! TA.AperFunction,ViaPad*
%ADD15C,0.600000*%
G04 #@! TD*
G04 #@! TA.AperFunction,Conductor*
%ADD16C,0.200000*%
G04 #@! TD*
G04 APERTURE END LIST*
D10*
X145635686Y-85882340D03*
D11*
X143095686Y-85882340D03*
D10*
X145294475Y-101670687D03*
D11*
X142754475Y-101670687D03*
D12*
X130000000Y-97200000D03*
D13*
X130000000Y-98500000D03*
D14*
X130000000Y-99800000D03*
D12*
X136000000Y-88200000D03*
D13*
X136000000Y-89500000D03*
D14*
X136000000Y-90800000D03*
D12*
X136000000Y-97200000D03*
D13*
X136000000Y-98500000D03*
D14*
X136000000Y-99800000D03*
D12*
X130000000Y-88200000D03*
D13*
X130000000Y-89500000D03*
D14*
X130000000Y-90800000D03*
D15*
X128500000Y-98500000D03*
X134500000Y-100500000D03*
X134500000Y-96500000D03*
X127668098Y-97000000D03*
X131500000Y-100000000D03*
X128000000Y-91500000D03*
X136000000Y-93000000D03*
X134500000Y-88500000D03*
X132500000Y-87500000D03*
X136000000Y-98500000D03*
X133000000Y-101500000D03*
X124000000Y-94000000D03*
D16*
X130000000Y-98500000D02*
X128500000Y-98500000D01*
X130755000Y-97200000D02*
X132268098Y-98713098D01*
X130000000Y-97200000D02*
X130755000Y-97200000D01*
X132268098Y-99268098D02*
X133500000Y-100500000D01*
X133500000Y-100500000D02*
X134500000Y-100500000D01*
X135200000Y-99800000D02*
X134500000Y-100500000D01*
X132268098Y-98713098D02*
X132268098Y-99268098D01*
X136000000Y-99800000D02*
X135200000Y-99800000D01*
X128951471Y-99800000D02*
X130000000Y-99800000D01*
X127668098Y-98516627D02*
X128951471Y-99800000D01*
X135200000Y-97200000D02*
X134500000Y-96500000D01*
X130000000Y-99800000D02*
X131300000Y-99800000D01*
X136000000Y-97200000D02*
X135200000Y-97200000D01*
X127668098Y-97000000D02*
X127668098Y-98516627D01*
X131300000Y-99800000D02*
X131500000Y-100000000D01*
X132268098Y-89102944D02*
X133471042Y-87900000D01*
X132268098Y-89986902D02*
X132268098Y-89102944D01*
X133471042Y-87900000D02*
X135700000Y-87900000D01*
X128000000Y-91500000D02*
X129300000Y-91500000D01*
X130000000Y-90800000D02*
X131455000Y-90800000D01*
X129300000Y-91500000D02*
X130000000Y-90800000D01*
X131455000Y-90800000D02*
X132268098Y-89986902D01*
X131505000Y-86695000D02*
X136876336Y-86695000D01*
X137200000Y-90800000D02*
X136000000Y-90800000D01*
X137500000Y-87318664D02*
X137500000Y-90500000D01*
X136876336Y-86695000D02*
X137500000Y-87318664D01*
X130000000Y-88200000D02*
X131505000Y-86695000D01*
X136000000Y-90800000D02*
X136000000Y-93000000D01*
X137500000Y-90500000D02*
X137200000Y-90800000D01*
X135500000Y-89500000D02*
X134500000Y-88500000D01*
X132500000Y-88000000D02*
X132500000Y-87500000D01*
X131000000Y-89500000D02*
X132500000Y-88000000D01*
X130000000Y-89500000D02*
X131000000Y-89500000D01*
X140000000Y-101500000D02*
X141500000Y-100000000D01*
X141500000Y-100000000D02*
X143623788Y-100000000D01*
X133000000Y-101500000D02*
X140000000Y-101500000D01*
X143623788Y-100000000D02*
X145294475Y-101670687D01*
G04 #@! TA.AperFunction,Conductor*
G36*
X148442539Y-84020185D02*
G01*
X148488294Y-84072989D01*
X148499500Y-84124500D01*
X148499500Y-104375500D01*
X148479815Y-104442539D01*
X148427011Y-104488294D01*
X148375500Y-104499500D01*
X121124500Y-104499500D01*
X121057461Y-104479815D01*
X121011706Y-104427011D01*
X121000500Y-104375500D01*
X121000500Y-98686611D01*
X125367598Y-98686611D01*
X125394696Y-98857701D01*
X125441075Y-99000441D01*
X125448226Y-99022447D01*
X125461179Y-99047868D01*
X125526866Y-99176788D01*
X125628684Y-99316928D01*
X125751170Y-99439414D01*
X125891310Y-99541232D01*
X126045653Y-99619873D01*
X126210397Y-99673402D01*
X126381487Y-99700500D01*
X126381488Y-99700500D01*
X126554708Y-99700500D01*
X126554709Y-99700500D01*
X126725799Y-99673402D01*
X126890543Y-99619873D01*
X127044886Y-99541232D01*
X127185026Y-99439414D01*
X127307512Y-99316928D01*
X127353321Y-99253876D01*
X127408650Y-99211213D01*
X127478263Y-99205234D01*
X127540058Y-99237840D01*
X127541312Y-99239076D01*
X128582755Y-100280520D01*
X128582757Y-100280521D01*
X128582761Y-100280524D01*
X128672703Y-100332451D01*
X128719687Y-100359577D01*
X128872414Y-100400501D01*
X128883244Y-100400501D01*
X128950283Y-100420186D01*
X128976956Y-100443297D01*
X129037209Y-100512832D01*
X129081161Y-100550916D01*
X129145864Y-100606981D01*
X129145867Y-100606984D01*
X129145869Y-100606985D01*
X129145870Y-100606986D01*
X129266906Y-100684770D01*
X129266914Y-100684774D01*
X129266923Y-100684779D01*
X129391642Y-100741736D01*
X129395941Y-100743985D01*
X129443171Y-100757853D01*
X129535744Y-100785035D01*
X129535745Y-100785035D01*
X129535748Y-100785036D01*
X129578183Y-100791136D01*
X129678059Y-100805497D01*
X129734399Y-100805497D01*
X129734409Y-100805500D01*
X129785764Y-100805500D01*
X130265573Y-100805500D01*
X130265601Y-100805497D01*
X130321940Y-100805497D01*
X130321941Y-100805497D01*
X130455479Y-100786297D01*
X130455481Y-100786297D01*
X130461940Y-100785368D01*
X130464256Y-100785035D01*
X130464257Y-100785035D01*
X130602309Y-100744498D01*
X130733094Y-100684770D01*
X130843594Y-100613756D01*
X130910632Y-100594072D01*
X130977671Y-100613757D01*
X130992262Y-100625515D01*
X130992295Y-100625475D01*
X130997737Y-100629815D01*
X130997738Y-100629816D01*
X131063575Y-100671184D01*
X131132721Y-100714632D01*
X131150478Y-100725789D01*
X131288860Y-100774211D01*
X131320745Y-100785368D01*
X131320750Y-100785369D01*
X131499996Y-100805565D01*
X131500000Y-100805565D01*
X131500004Y-100805565D01*
X131679249Y-100785369D01*
X131679252Y-100785368D01*
X131679255Y-100785368D01*
X131849522Y-100725789D01*
X132002262Y-100629816D01*
X132129816Y-100502262D01*
X132225789Y-100349522D01*
X132231762Y-100332449D01*
X132272482Y-100275674D01*
X132337434Y-100249924D01*
X132405996Y-100263379D01*
X132436486Y-100285721D01*
X132714277Y-100563513D01*
X132747762Y-100624836D01*
X132742778Y-100694528D01*
X132700906Y-100750461D01*
X132667555Y-100768234D01*
X132650480Y-100774209D01*
X132497737Y-100870184D01*
X132370184Y-100997737D01*
X132274211Y-101150476D01*
X132214631Y-101320745D01*
X132214630Y-101320750D01*
X132194435Y-101499996D01*
X132194435Y-101500003D01*
X132214630Y-101679249D01*
X132214631Y-101679254D01*
X132274211Y-101849523D01*
X132370184Y-102002262D01*
X132497738Y-102129816D01*
X132650478Y-102225789D01*
X132820745Y-102285368D01*
X132820750Y-102285369D01*
X132999996Y-102305565D01*
X133000000Y-102305565D01*
X133000004Y-102305565D01*
X133179249Y-102285369D01*
X133179252Y-102285368D01*
X133179255Y-102285368D01*
X133349522Y-102225789D01*
X133502262Y-102129816D01*
X133502267Y-102129810D01*
X133505097Y-102127555D01*
X133507275Y-102126665D01*
X133508158Y-102126111D01*
X133508255Y-102126265D01*
X133569783Y-102101145D01*
X133582412Y-102100500D01*
X139913331Y-102100500D01*
X139913347Y-102100501D01*
X139920943Y-102100501D01*
X140079054Y-102100501D01*
X140079057Y-102100501D01*
X140231785Y-102059577D01*
X140281904Y-102030639D01*
X140368716Y-101980520D01*
X140480520Y-101868716D01*
X140480520Y-101868714D01*
X140490728Y-101858507D01*
X140490729Y-101858504D01*
X141279983Y-101069251D01*
X141341305Y-101035767D01*
X141410997Y-101040751D01*
X141466930Y-101082623D01*
X141491347Y-101148087D01*
X141481475Y-101201598D01*
X141482894Y-101202115D01*
X141481042Y-101207200D01*
X141423839Y-101420686D01*
X141423839Y-101420687D01*
X142321463Y-101420687D01*
X142288550Y-101477694D01*
X142254475Y-101604861D01*
X142254475Y-101736513D01*
X142288550Y-101863680D01*
X142321463Y-101920687D01*
X141423839Y-101920687D01*
X141481042Y-102134173D01*
X141481045Y-102134179D01*
X141580874Y-102348265D01*
X141716369Y-102541769D01*
X141883392Y-102708792D01*
X142076896Y-102844287D01*
X142290982Y-102944116D01*
X142290991Y-102944120D01*
X142504475Y-103001321D01*
X142504475Y-102103699D01*
X142561482Y-102136612D01*
X142688649Y-102170687D01*
X142820301Y-102170687D01*
X142947468Y-102136612D01*
X143004475Y-102103699D01*
X143004475Y-103001320D01*
X143217958Y-102944120D01*
X143217967Y-102944116D01*
X143432053Y-102844287D01*
X143625553Y-102708795D01*
X143747608Y-102586740D01*
X143808931Y-102553255D01*
X143878623Y-102558239D01*
X143934557Y-102600110D01*
X143951472Y-102631088D01*
X144000677Y-102763015D01*
X144000681Y-102763022D01*
X144086927Y-102878231D01*
X144086930Y-102878234D01*
X144202139Y-102964480D01*
X144202146Y-102964484D01*
X144336992Y-103014778D01*
X144336991Y-103014778D01*
X144343919Y-103015522D01*
X144396602Y-103021187D01*
X146192347Y-103021186D01*
X146251958Y-103014778D01*
X146386806Y-102964483D01*
X146502021Y-102878233D01*
X146588271Y-102763018D01*
X146638566Y-102628170D01*
X146644975Y-102568560D01*
X146644974Y-100772815D01*
X146638566Y-100713204D01*
X146631600Y-100694528D01*
X146588272Y-100578358D01*
X146588268Y-100578351D01*
X146502022Y-100463142D01*
X146502019Y-100463139D01*
X146386810Y-100376893D01*
X146386803Y-100376889D01*
X146251957Y-100326595D01*
X146251958Y-100326595D01*
X146192358Y-100320188D01*
X146192356Y-100320187D01*
X146192348Y-100320187D01*
X146192340Y-100320187D01*
X144844572Y-100320187D01*
X144777533Y-100300502D01*
X144756891Y-100283868D01*
X144111378Y-99638355D01*
X144111376Y-99638352D01*
X143992505Y-99519481D01*
X143992497Y-99519475D01*
X143890724Y-99460717D01*
X143890722Y-99460716D01*
X143855578Y-99440425D01*
X143855577Y-99440424D01*
X143843051Y-99437067D01*
X143702845Y-99399499D01*
X143544731Y-99399499D01*
X143537135Y-99399499D01*
X143537119Y-99399500D01*
X141420940Y-99399500D01*
X141380019Y-99410464D01*
X141380019Y-99410465D01*
X141342751Y-99420451D01*
X141268214Y-99440423D01*
X141268209Y-99440426D01*
X141131290Y-99519475D01*
X141131282Y-99519481D01*
X141030893Y-99619871D01*
X141019480Y-99631284D01*
X141019478Y-99631286D01*
X140387386Y-100263379D01*
X139787584Y-100863181D01*
X139726261Y-100896666D01*
X139699903Y-100899500D01*
X136821273Y-100899500D01*
X136754234Y-100879815D01*
X136708479Y-100827011D01*
X136698535Y-100757853D01*
X136727560Y-100694297D01*
X136754232Y-100671185D01*
X136854130Y-100606986D01*
X136861616Y-100600500D01*
X136918839Y-100550916D01*
X136962791Y-100512832D01*
X136962794Y-100512829D01*
X137057015Y-100404091D01*
X137125059Y-100298210D01*
X137134744Y-100283142D01*
X137134744Y-100283140D01*
X137134747Y-100283137D01*
X137194517Y-100152259D01*
X137235024Y-100014304D01*
X137255500Y-99871889D01*
X137255500Y-99250000D01*
X137250355Y-99178060D01*
X137246892Y-99166269D01*
X137245539Y-99115441D01*
X137243261Y-99115197D01*
X137244089Y-99107485D01*
X137244091Y-99107483D01*
X137250500Y-99047873D01*
X137250499Y-97952128D01*
X137244091Y-97892517D01*
X137244089Y-97892513D01*
X137243853Y-97891511D01*
X137243760Y-97889442D01*
X137243262Y-97884804D01*
X137243552Y-97884772D01*
X137241791Y-97845346D01*
X137255500Y-97750000D01*
X137255500Y-97128111D01*
X137235024Y-96985696D01*
X137194517Y-96847741D01*
X137134747Y-96716863D01*
X137110577Y-96679254D01*
X137060623Y-96601523D01*
X137059802Y-96600081D01*
X137057011Y-96595901D01*
X136962792Y-96487169D01*
X136962789Y-96487166D01*
X136854135Y-96393018D01*
X136854132Y-96393015D01*
X136818605Y-96370184D01*
X136733094Y-96315230D01*
X136733087Y-96315227D01*
X136733081Y-96315223D01*
X136608356Y-96258263D01*
X136604057Y-96256014D01*
X136464261Y-96214966D01*
X136464251Y-96214963D01*
X136336300Y-96196567D01*
X136321941Y-96194503D01*
X136321940Y-96194503D01*
X136265601Y-96194503D01*
X136265591Y-96194500D01*
X136214236Y-96194500D01*
X135785764Y-96194500D01*
X135734427Y-96194500D01*
X135734399Y-96194503D01*
X135678059Y-96194503D01*
X135544521Y-96213703D01*
X135544519Y-96213703D01*
X135535744Y-96214964D01*
X135397684Y-96255504D01*
X135396709Y-96255868D01*
X135396361Y-96255892D01*
X135393442Y-96256750D01*
X135393255Y-96256114D01*
X135327017Y-96260847D01*
X135265697Y-96227358D01*
X135236342Y-96180637D01*
X135225788Y-96150476D01*
X135129815Y-95997737D01*
X135002262Y-95870184D01*
X134849523Y-95774211D01*
X134679254Y-95714631D01*
X134679249Y-95714630D01*
X134500004Y-95694435D01*
X134499996Y-95694435D01*
X134320750Y-95714630D01*
X134320745Y-95714631D01*
X134150476Y-95774211D01*
X133997737Y-95870184D01*
X133870184Y-95997737D01*
X133774211Y-96150476D01*
X133714631Y-96320745D01*
X133714630Y-96320750D01*
X133694435Y-96499996D01*
X133694435Y-96500003D01*
X133714630Y-96679249D01*
X133714631Y-96679254D01*
X133774211Y-96849523D01*
X133859772Y-96985691D01*
X133870184Y-97002262D01*
X133997738Y-97129816D01*
X134150478Y-97225789D01*
X134320745Y-97285368D01*
X134407669Y-97295161D01*
X134472080Y-97322226D01*
X134481465Y-97330700D01*
X134708181Y-97557416D01*
X134741666Y-97618739D01*
X134744500Y-97645097D01*
X134744500Y-97750002D01*
X134749645Y-97821941D01*
X134753107Y-97833732D01*
X134754470Y-97884561D01*
X134756738Y-97884805D01*
X134755909Y-97892517D01*
X134749501Y-97952123D01*
X134749500Y-97952135D01*
X134749500Y-98199554D01*
X134729815Y-98266593D01*
X134677011Y-98312348D01*
X134607853Y-98322292D01*
X134544297Y-98293267D01*
X134507569Y-98237872D01*
X134487971Y-98177555D01*
X134409330Y-98023212D01*
X134307512Y-97883072D01*
X134185026Y-97760586D01*
X134044886Y-97658768D01*
X133890543Y-97580127D01*
X133725799Y-97526598D01*
X133725797Y-97526597D01*
X133725796Y-97526597D01*
X133585413Y-97504363D01*
X133554709Y-97499500D01*
X133381487Y-97499500D01*
X133350783Y-97504363D01*
X133210400Y-97526597D01*
X133045650Y-97580128D01*
X132891309Y-97658768D01*
X132825686Y-97706447D01*
X132751170Y-97760586D01*
X132751168Y-97760588D01*
X132751167Y-97760588D01*
X132628683Y-97883072D01*
X132570366Y-97963338D01*
X132515036Y-98006003D01*
X132445422Y-98011981D01*
X132383628Y-97979374D01*
X132382368Y-97978132D01*
X131242590Y-96838355D01*
X131242588Y-96838352D01*
X131162038Y-96757802D01*
X131136924Y-96721632D01*
X131134747Y-96716863D01*
X131060623Y-96601523D01*
X131059802Y-96600081D01*
X131057011Y-96595901D01*
X130962792Y-96487169D01*
X130962789Y-96487166D01*
X130854135Y-96393018D01*
X130854132Y-96393015D01*
X130818605Y-96370184D01*
X130733094Y-96315230D01*
X130733087Y-96315227D01*
X130733081Y-96315223D01*
X130608356Y-96258263D01*
X130604057Y-96256014D01*
X130464261Y-96214966D01*
X130464251Y-96214963D01*
X130336300Y-96196567D01*
X130321941Y-96194503D01*
X130321940Y-96194503D01*
X130265601Y-96194503D01*
X130265591Y-96194500D01*
X130214236Y-96194500D01*
X129785764Y-96194500D01*
X129734427Y-96194500D01*
X129734399Y-96194503D01*
X129678059Y-96194503D01*
X129544521Y-96213703D01*
X129544519Y-96213703D01*
X129535744Y-96214964D01*
X129397686Y-96255503D01*
X129266918Y-96315223D01*
X129266908Y-96315228D01*
X129266906Y-96315230D01*
X129258317Y-96320750D01*
X129145867Y-96393015D01*
X129145863Y-96393018D01*
X129037226Y-96487152D01*
X129037207Y-96487169D01*
X129037206Y-96487171D01*
X128942985Y-96595909D01*
X128942983Y-96595911D01*
X128942983Y-96595912D01*
X128942981Y-96595915D01*
X128865255Y-96716857D01*
X128865252Y-96716863D01*
X128805483Y-96847741D01*
X128764977Y-96985691D01*
X128764974Y-96985703D01*
X128744500Y-97128110D01*
X128744500Y-97583227D01*
X128724815Y-97650266D01*
X128672011Y-97696021D01*
X128606617Y-97706447D01*
X128500004Y-97694435D01*
X128499996Y-97694435D01*
X128407059Y-97704906D01*
X128338237Y-97692851D01*
X128286858Y-97645502D01*
X128269234Y-97577892D01*
X128290961Y-97511486D01*
X128296237Y-97504363D01*
X128297900Y-97502275D01*
X128297914Y-97502262D01*
X128393887Y-97349522D01*
X128453466Y-97179255D01*
X128453467Y-97179249D01*
X128473663Y-97000003D01*
X128473663Y-96999996D01*
X128453467Y-96820750D01*
X128453466Y-96820745D01*
X128431441Y-96757802D01*
X128393887Y-96650478D01*
X128359596Y-96595905D01*
X128299335Y-96500000D01*
X128297914Y-96497738D01*
X128170360Y-96370184D01*
X128017621Y-96274211D01*
X127847352Y-96214631D01*
X127847347Y-96214630D01*
X127668102Y-96194435D01*
X127668094Y-96194435D01*
X127488848Y-96214630D01*
X127488843Y-96214631D01*
X127318574Y-96274211D01*
X127165835Y-96370184D01*
X127038282Y-96497737D01*
X126942309Y-96650476D01*
X126882729Y-96820745D01*
X126882728Y-96820750D01*
X126862533Y-96999996D01*
X126862533Y-97000003D01*
X126882728Y-97179249D01*
X126882729Y-97179254D01*
X126942309Y-97349524D01*
X126955697Y-97370831D01*
X126974696Y-97438068D01*
X126954327Y-97504903D01*
X126901058Y-97550116D01*
X126831801Y-97559352D01*
X126812393Y-97554734D01*
X126725799Y-97526598D01*
X126554709Y-97499500D01*
X126381487Y-97499500D01*
X126350783Y-97504363D01*
X126210400Y-97526597D01*
X126045650Y-97580128D01*
X125891309Y-97658768D01*
X125825686Y-97706447D01*
X125751170Y-97760586D01*
X125751168Y-97760588D01*
X125751167Y-97760588D01*
X125628686Y-97883069D01*
X125628686Y-97883070D01*
X125628684Y-97883072D01*
X125584957Y-97943256D01*
X125526866Y-98023211D01*
X125448226Y-98177552D01*
X125394695Y-98342302D01*
X125367598Y-98513389D01*
X125367598Y-98686611D01*
X121000500Y-98686611D01*
X121000500Y-91500003D01*
X127194435Y-91500003D01*
X127214630Y-91679249D01*
X127214631Y-91679254D01*
X127274211Y-91849523D01*
X127370184Y-92002262D01*
X127497738Y-92129816D01*
X127650478Y-92225789D01*
X127820745Y-92285368D01*
X127820750Y-92285369D01*
X127999996Y-92305565D01*
X128000000Y-92305565D01*
X128000004Y-92305565D01*
X128179249Y-92285369D01*
X128179252Y-92285368D01*
X128179255Y-92285368D01*
X128349522Y-92225789D01*
X128502262Y-92129816D01*
X128502267Y-92129810D01*
X128505097Y-92127555D01*
X128507275Y-92126665D01*
X128508158Y-92126111D01*
X128508255Y-92126265D01*
X128569783Y-92101145D01*
X128582412Y-92100500D01*
X129213331Y-92100500D01*
X129213347Y-92100501D01*
X129220943Y-92100501D01*
X129379054Y-92100501D01*
X129379057Y-92100501D01*
X129531785Y-92059577D01*
X129581904Y-92030639D01*
X129668716Y-91980520D01*
X129780520Y-91868716D01*
X129780520Y-91868714D01*
X129790728Y-91858507D01*
X129790729Y-91858504D01*
X129807418Y-91841815D01*
X129868743Y-91808333D01*
X129895097Y-91805500D01*
X130265573Y-91805500D01*
X130265601Y-91805497D01*
X130321940Y-91805497D01*
X130321941Y-91805497D01*
X130455479Y-91786297D01*
X130455481Y-91786297D01*
X130461612Y-91785415D01*
X130464256Y-91785035D01*
X130464257Y-91785035D01*
X130602309Y-91744498D01*
X130733094Y-91684770D01*
X130854130Y-91606986D01*
X130962791Y-91512832D01*
X130962794Y-91512829D01*
X130990671Y-91480656D01*
X131023043Y-91443298D01*
X131081821Y-91405523D01*
X131116756Y-91400500D01*
X131368331Y-91400500D01*
X131368347Y-91400501D01*
X131375943Y-91400501D01*
X131534054Y-91400501D01*
X131534057Y-91400501D01*
X131686785Y-91359577D01*
X131736904Y-91330639D01*
X131823716Y-91280520D01*
X131935520Y-91168716D01*
X131935520Y-91168714D01*
X131945728Y-91158507D01*
X131945730Y-91158504D01*
X132626271Y-90477962D01*
X132687592Y-90444479D01*
X132757284Y-90449463D01*
X132786835Y-90465327D01*
X132880046Y-90533048D01*
X132891310Y-90541232D01*
X133045653Y-90619873D01*
X133210397Y-90673402D01*
X133381487Y-90700500D01*
X133381488Y-90700500D01*
X133554708Y-90700500D01*
X133554709Y-90700500D01*
X133725799Y-90673402D01*
X133890543Y-90619873D01*
X134044886Y-90541232D01*
X134185026Y-90439414D01*
X134307512Y-90316928D01*
X134409330Y-90176788D01*
X134487971Y-90022445D01*
X134507570Y-89962123D01*
X134547005Y-89904450D01*
X134611364Y-89877251D01*
X134680210Y-89889165D01*
X134731687Y-89936408D01*
X134749500Y-90000441D01*
X134749500Y-90047868D01*
X134749501Y-90047874D01*
X134755909Y-90107490D01*
X134756147Y-90108494D01*
X134756238Y-90110550D01*
X134756738Y-90115194D01*
X134756447Y-90115225D01*
X134758208Y-90154652D01*
X134744500Y-90249999D01*
X134744500Y-90871889D01*
X134764974Y-91014296D01*
X134764976Y-91014304D01*
X134805483Y-91152259D01*
X134812999Y-91168716D01*
X134865252Y-91283136D01*
X134865253Y-91283138D01*
X134939376Y-91398476D01*
X134940196Y-91399917D01*
X134942988Y-91404098D01*
X135037207Y-91512830D01*
X135037210Y-91512833D01*
X135145864Y-91606981D01*
X135145867Y-91606984D01*
X135145869Y-91606985D01*
X135145870Y-91606986D01*
X135266906Y-91684770D01*
X135266914Y-91684774D01*
X135266923Y-91684779D01*
X135327011Y-91712220D01*
X135379815Y-91757975D01*
X135399500Y-91825014D01*
X135399500Y-92417587D01*
X135379815Y-92484626D01*
X135372450Y-92494896D01*
X135370186Y-92497734D01*
X135274211Y-92650476D01*
X135214631Y-92820745D01*
X135214630Y-92820750D01*
X135194435Y-92999996D01*
X135194435Y-93000003D01*
X135214630Y-93179249D01*
X135214631Y-93179254D01*
X135274211Y-93349523D01*
X135370184Y-93502262D01*
X135497738Y-93629816D01*
X135650478Y-93725789D01*
X135820745Y-93785368D01*
X135820750Y-93785369D01*
X135999996Y-93805565D01*
X136000000Y-93805565D01*
X136000004Y-93805565D01*
X136179249Y-93785369D01*
X136179252Y-93785368D01*
X136179255Y-93785368D01*
X136349522Y-93725789D01*
X136502262Y-93629816D01*
X136629816Y-93502262D01*
X136725789Y-93349522D01*
X136785368Y-93179255D01*
X136805565Y-93000000D01*
X136785368Y-92820745D01*
X136725789Y-92650478D01*
X136629816Y-92497738D01*
X136629814Y-92497736D01*
X136629813Y-92497734D01*
X136627550Y-92494896D01*
X136626659Y-92492715D01*
X136626111Y-92491842D01*
X136626264Y-92491745D01*
X136601144Y-92430209D01*
X136600500Y-92417587D01*
X136600500Y-91825014D01*
X136620185Y-91757975D01*
X136672989Y-91712220D01*
X136733076Y-91684779D01*
X136733081Y-91684775D01*
X136733094Y-91684770D01*
X136854130Y-91606986D01*
X136962791Y-91512832D01*
X136962794Y-91512829D01*
X136973908Y-91500003D01*
X137023042Y-91443299D01*
X137081819Y-91405524D01*
X137116755Y-91400501D01*
X137279054Y-91400501D01*
X137279057Y-91400501D01*
X137431785Y-91359577D01*
X137481904Y-91330639D01*
X137568716Y-91280520D01*
X137680520Y-91168716D01*
X137680520Y-91168714D01*
X137690728Y-91158507D01*
X137690730Y-91158504D01*
X137858506Y-90990728D01*
X137858511Y-90990724D01*
X137868714Y-90980520D01*
X137868716Y-90980520D01*
X137980520Y-90868716D01*
X138035082Y-90774211D01*
X138059577Y-90731785D01*
X138100500Y-90579057D01*
X138100500Y-90420943D01*
X138100500Y-87239607D01*
X138096970Y-87226431D01*
X138059577Y-87086879D01*
X138008111Y-86997738D01*
X137980520Y-86949948D01*
X137868716Y-86838144D01*
X137868715Y-86838143D01*
X137864385Y-86833813D01*
X137864374Y-86833803D01*
X137363926Y-86333355D01*
X137363924Y-86333352D01*
X137245053Y-86214481D01*
X137245052Y-86214480D01*
X137158240Y-86164360D01*
X137158240Y-86164359D01*
X137158236Y-86164358D01*
X137108121Y-86135423D01*
X136955393Y-86094499D01*
X136797279Y-86094499D01*
X136789683Y-86094499D01*
X136789667Y-86094500D01*
X131425940Y-86094500D01*
X131385019Y-86105464D01*
X131385019Y-86105465D01*
X131347751Y-86115451D01*
X131273214Y-86135423D01*
X131273209Y-86135426D01*
X131136290Y-86214475D01*
X131136282Y-86214481D01*
X131024480Y-86326284D01*
X131024478Y-86326286D01*
X130597023Y-86753742D01*
X130192584Y-87158181D01*
X130131261Y-87191666D01*
X130104903Y-87194500D01*
X129734427Y-87194500D01*
X129734399Y-87194503D01*
X129678059Y-87194503D01*
X129544521Y-87213703D01*
X129544519Y-87213703D01*
X129535744Y-87214964D01*
X129397686Y-87255503D01*
X129266918Y-87315223D01*
X129266908Y-87315228D01*
X129266906Y-87315230D01*
X129233253Y-87336857D01*
X129145867Y-87393015D01*
X129145863Y-87393018D01*
X129037226Y-87487152D01*
X129037207Y-87487169D01*
X129037206Y-87487171D01*
X128942985Y-87595909D01*
X128942983Y-87595911D01*
X128942983Y-87595912D01*
X128942981Y-87595915D01*
X128865255Y-87716857D01*
X128865252Y-87716863D01*
X128805483Y-87847741D01*
X128764977Y-87985691D01*
X128764974Y-87985703D01*
X128744500Y-88128110D01*
X128744500Y-88750002D01*
X128749645Y-88821941D01*
X128753107Y-88833732D01*
X128754470Y-88884561D01*
X128756738Y-88884805D01*
X128749501Y-88952116D01*
X128749500Y-88952135D01*
X128749500Y-90047870D01*
X128749501Y-90047874D01*
X128755909Y-90107490D01*
X128756147Y-90108494D01*
X128756238Y-90110550D01*
X128756738Y-90115194D01*
X128756447Y-90115225D01*
X128758208Y-90154652D01*
X128744500Y-90249999D01*
X128744500Y-90775500D01*
X128724815Y-90842539D01*
X128672011Y-90888294D01*
X128620500Y-90899500D01*
X128582412Y-90899500D01*
X128515373Y-90879815D01*
X128505097Y-90872445D01*
X128502263Y-90870185D01*
X128502262Y-90870184D01*
X128445496Y-90834515D01*
X128349523Y-90774211D01*
X128179254Y-90714631D01*
X128179249Y-90714630D01*
X128000004Y-90694435D01*
X127999996Y-90694435D01*
X127820750Y-90714630D01*
X127820745Y-90714631D01*
X127650476Y-90774211D01*
X127497737Y-90870184D01*
X127370184Y-90997737D01*
X127274211Y-91150476D01*
X127214631Y-91320745D01*
X127214630Y-91320750D01*
X127194435Y-91499996D01*
X127194435Y-91500003D01*
X121000500Y-91500003D01*
X121000500Y-89686611D01*
X125367598Y-89686611D01*
X125394696Y-89857701D01*
X125448225Y-90022445D01*
X125526866Y-90176788D01*
X125628684Y-90316928D01*
X125751170Y-90439414D01*
X125891310Y-90541232D01*
X126045653Y-90619873D01*
X126210397Y-90673402D01*
X126381487Y-90700500D01*
X126381488Y-90700500D01*
X126554708Y-90700500D01*
X126554709Y-90700500D01*
X126725799Y-90673402D01*
X126890543Y-90619873D01*
X127044886Y-90541232D01*
X127185026Y-90439414D01*
X127307512Y-90316928D01*
X127409330Y-90176788D01*
X127487971Y-90022445D01*
X127541500Y-89857701D01*
X127568598Y-89686611D01*
X127568598Y-89513389D01*
X127541500Y-89342299D01*
X127487971Y-89177555D01*
X127409330Y-89023212D01*
X127307512Y-88883072D01*
X127185026Y-88760586D01*
X127044886Y-88658768D01*
X126890543Y-88580127D01*
X126725799Y-88526598D01*
X126725797Y-88526597D01*
X126725796Y-88526597D01*
X126594369Y-88505781D01*
X126554709Y-88499500D01*
X126381487Y-88499500D01*
X126341826Y-88505781D01*
X126210400Y-88526597D01*
X126045650Y-88580128D01*
X125891309Y-88658768D01*
X125811354Y-88716859D01*
X125751170Y-88760586D01*
X125751168Y-88760588D01*
X125751167Y-88760588D01*
X125628686Y-88883069D01*
X125628686Y-88883070D01*
X125628684Y-88883072D01*
X125627425Y-88884805D01*
X125526866Y-89023211D01*
X125448226Y-89177552D01*
X125394695Y-89342302D01*
X125367598Y-89513389D01*
X125367598Y-89686611D01*
X121000500Y-89686611D01*
X121000500Y-85882340D01*
X141740027Y-85882340D01*
X141760622Y-86117743D01*
X141760624Y-86117753D01*
X141821780Y-86345995D01*
X141821782Y-86345999D01*
X141821783Y-86346003D01*
X141906185Y-86527003D01*
X141921651Y-86560170D01*
X141921653Y-86560174D01*
X142029967Y-86714861D01*
X142057191Y-86753741D01*
X142224285Y-86920835D01*
X142321070Y-86988605D01*
X142417851Y-87056372D01*
X142417853Y-87056373D01*
X142417856Y-87056375D01*
X142632023Y-87156243D01*
X142632029Y-87156244D01*
X142632030Y-87156245D01*
X142686971Y-87170966D01*
X142860278Y-87217403D01*
X143036720Y-87232840D01*
X143095685Y-87237999D01*
X143095686Y-87237999D01*
X143095687Y-87237999D01*
X143154652Y-87232840D01*
X143331094Y-87217403D01*
X143559349Y-87156243D01*
X143773516Y-87056375D01*
X143967087Y-86920835D01*
X144089015Y-86798906D01*
X144150334Y-86765424D01*
X144220026Y-86770408D01*
X144275960Y-86812279D01*
X144292875Y-86843257D01*
X144341888Y-86974668D01*
X144341892Y-86974675D01*
X144428138Y-87089884D01*
X144428141Y-87089887D01*
X144543350Y-87176133D01*
X144543357Y-87176137D01*
X144678203Y-87226431D01*
X144678202Y-87226431D01*
X144685130Y-87227175D01*
X144737813Y-87232840D01*
X146533558Y-87232839D01*
X146593169Y-87226431D01*
X146728017Y-87176136D01*
X146843232Y-87089886D01*
X146929482Y-86974671D01*
X146979777Y-86839823D01*
X146986186Y-86780213D01*
X146986185Y-84984468D01*
X146979777Y-84924857D01*
X146978496Y-84921423D01*
X146929483Y-84790011D01*
X146929479Y-84790004D01*
X146843233Y-84674795D01*
X146843230Y-84674792D01*
X146728021Y-84588546D01*
X146728014Y-84588542D01*
X146593168Y-84538248D01*
X146593169Y-84538248D01*
X146533569Y-84531841D01*
X146533567Y-84531840D01*
X146533559Y-84531840D01*
X146533550Y-84531840D01*
X144737815Y-84531840D01*
X144737809Y-84531841D01*
X144678202Y-84538248D01*
X144543357Y-84588542D01*
X144543350Y-84588546D01*
X144428141Y-84674792D01*
X144428138Y-84674795D01*
X144341892Y-84790004D01*
X144341889Y-84790009D01*
X144292875Y-84921423D01*
X144251003Y-84977356D01*
X144185539Y-85001773D01*
X144117266Y-84986921D01*
X144089012Y-84965770D01*
X143967088Y-84843846D01*
X143967081Y-84843841D01*
X143773520Y-84708307D01*
X143773516Y-84708305D01*
X143773514Y-84708304D01*
X143559349Y-84608437D01*
X143559345Y-84608436D01*
X143559341Y-84608434D01*
X143331099Y-84547278D01*
X143331089Y-84547276D01*
X143095687Y-84526681D01*
X143095685Y-84526681D01*
X142860282Y-84547276D01*
X142860272Y-84547278D01*
X142632030Y-84608434D01*
X142632021Y-84608438D01*
X142417857Y-84708304D01*
X142417855Y-84708305D01*
X142224283Y-84843845D01*
X142057191Y-85010937D01*
X141921651Y-85204509D01*
X141921650Y-85204511D01*
X141821784Y-85418675D01*
X141821780Y-85418684D01*
X141760624Y-85646926D01*
X141760622Y-85646936D01*
X141740027Y-85882339D01*
X141740027Y-85882340D01*
X121000500Y-85882340D01*
X121000500Y-84124500D01*
X121020185Y-84057461D01*
X121072989Y-84011706D01*
X121124500Y-84000500D01*
X148375500Y-84000500D01*
X148442539Y-84020185D01*
G37*
G04 #@! TD.AperFunction*
M02*
