G04 #@! TF.GenerationSoftware,KiCad,Pcbnew,8.0.1*
G04 #@! TF.CreationDate,2024-03-31T18:38:23-05:00*
G04 #@! TF.ProjectId,dinoctopus_v2,64696e6f-6374-46f7-9075-735f76322e6b,rev?*
G04 #@! TF.SameCoordinates,Original*
G04 #@! TF.FileFunction,Legend,Top*
G04 #@! TF.FilePolarity,Positive*
%FSLAX46Y46*%
G04 Gerber Fmt 4.6, Leading zero omitted, Abs format (unit mm)*
G04 Created by KiCad (PCBNEW 8.0.1) date 2024-03-31 18:38:23*
%MOMM*%
%LPD*%
G01*
G04 APERTURE LIST*
G04 Aperture macros list*
%AMRoundRect*
0 Rectangle with rounded corners*
0 $1 Rounding radius*
0 $2 $3 $4 $5 $6 $7 $8 $9 X,Y pos of 4 corners*
0 Add a 4 corners polygon primitive as box body*
4,1,4,$2,$3,$4,$5,$6,$7,$8,$9,$2,$3,0*
0 Add four circle primitives for the rounded corners*
1,1,$1+$1,$2,$3*
1,1,$1+$1,$4,$5*
1,1,$1+$1,$6,$7*
1,1,$1+$1,$8,$9*
0 Add four rect primitives between the rounded corners*
20,1,$1+$1,$2,$3,$4,$5,0*
20,1,$1+$1,$4,$5,$6,$7,0*
20,1,$1+$1,$6,$7,$8,$9,0*
20,1,$1+$1,$8,$9,$2,$3,0*%
G04 Aperture macros list end*
%ADD10C,0.150000*%
%ADD11C,0.120000*%
%ADD12C,0.127000*%
%ADD13RoundRect,0.250000X0.450000X-0.262500X0.450000X0.262500X-0.450000X0.262500X-0.450000X-0.262500X0*%
%ADD14RoundRect,0.218750X0.256250X-0.218750X0.256250X0.218750X-0.256250X0.218750X-0.256250X-0.218750X0*%
%ADD15RoundRect,0.250000X0.262500X0.450000X-0.262500X0.450000X-0.262500X-0.450000X0.262500X-0.450000X0*%
%ADD16RoundRect,0.250000X-0.262500X-0.450000X0.262500X-0.450000X0.262500X0.450000X-0.262500X0.450000X0*%
%ADD17C,1.700000*%
%ADD18RoundRect,0.102000X-0.700000X-1.400000X0.700000X-1.400000X0.700000X1.400000X-0.700000X1.400000X0*%
%ADD19RoundRect,0.102000X-0.800000X-1.400000X0.800000X-1.400000X0.800000X1.400000X-0.800000X1.400000X0*%
%ADD20RoundRect,0.112500X-0.112500X0.187500X-0.112500X-0.187500X0.112500X-0.187500X0.112500X0.187500X0*%
%ADD21R,2.000000X1.780000*%
%ADD22R,1.700000X1.700000*%
%ADD23O,1.700000X1.700000*%
%ADD24RoundRect,0.250000X-0.450000X0.262500X-0.450000X-0.262500X0.450000X-0.262500X0.450000X0.262500X0*%
%ADD25RoundRect,0.150000X-0.150000X-0.625000X0.150000X-0.625000X0.150000X0.625000X-0.150000X0.625000X0*%
%ADD26RoundRect,0.250000X-0.350000X-0.650000X0.350000X-0.650000X0.350000X0.650000X-0.350000X0.650000X0*%
G04 APERTURE END LIST*
D10*
X45804819Y-54230357D02*
X45328628Y-54563690D01*
X45804819Y-54801785D02*
X44804819Y-54801785D01*
X44804819Y-54801785D02*
X44804819Y-54420833D01*
X44804819Y-54420833D02*
X44852438Y-54325595D01*
X44852438Y-54325595D02*
X44900057Y-54277976D01*
X44900057Y-54277976D02*
X44995295Y-54230357D01*
X44995295Y-54230357D02*
X45138152Y-54230357D01*
X45138152Y-54230357D02*
X45233390Y-54277976D01*
X45233390Y-54277976D02*
X45281009Y-54325595D01*
X45281009Y-54325595D02*
X45328628Y-54420833D01*
X45328628Y-54420833D02*
X45328628Y-54801785D01*
X44900057Y-53849404D02*
X44852438Y-53801785D01*
X44852438Y-53801785D02*
X44804819Y-53706547D01*
X44804819Y-53706547D02*
X44804819Y-53468452D01*
X44804819Y-53468452D02*
X44852438Y-53373214D01*
X44852438Y-53373214D02*
X44900057Y-53325595D01*
X44900057Y-53325595D02*
X44995295Y-53277976D01*
X44995295Y-53277976D02*
X45090533Y-53277976D01*
X45090533Y-53277976D02*
X45233390Y-53325595D01*
X45233390Y-53325595D02*
X45804819Y-53897023D01*
X45804819Y-53897023D02*
X45804819Y-53277976D01*
X44900057Y-52897023D02*
X44852438Y-52849404D01*
X44852438Y-52849404D02*
X44804819Y-52754166D01*
X44804819Y-52754166D02*
X44804819Y-52516071D01*
X44804819Y-52516071D02*
X44852438Y-52420833D01*
X44852438Y-52420833D02*
X44900057Y-52373214D01*
X44900057Y-52373214D02*
X44995295Y-52325595D01*
X44995295Y-52325595D02*
X45090533Y-52325595D01*
X45090533Y-52325595D02*
X45233390Y-52373214D01*
X45233390Y-52373214D02*
X45804819Y-52944642D01*
X45804819Y-52944642D02*
X45804819Y-52325595D01*
X29429840Y-91021184D02*
X28429840Y-91021184D01*
X28429840Y-91021184D02*
X28429840Y-90783089D01*
X28429840Y-90783089D02*
X28477459Y-90640232D01*
X28477459Y-90640232D02*
X28572697Y-90544994D01*
X28572697Y-90544994D02*
X28667935Y-90497375D01*
X28667935Y-90497375D02*
X28858411Y-90449756D01*
X28858411Y-90449756D02*
X29001268Y-90449756D01*
X29001268Y-90449756D02*
X29191744Y-90497375D01*
X29191744Y-90497375D02*
X29286982Y-90544994D01*
X29286982Y-90544994D02*
X29382221Y-90640232D01*
X29382221Y-90640232D02*
X29429840Y-90783089D01*
X29429840Y-90783089D02*
X29429840Y-91021184D01*
X28429840Y-90164041D02*
X28429840Y-89592613D01*
X29429840Y-89878327D02*
X28429840Y-89878327D01*
X29429840Y-88735470D02*
X29429840Y-89306898D01*
X29429840Y-89021184D02*
X28429840Y-89021184D01*
X28429840Y-89021184D02*
X28572697Y-89116422D01*
X28572697Y-89116422D02*
X28667935Y-89211660D01*
X28667935Y-89211660D02*
X28715554Y-89306898D01*
X32357142Y-30706046D02*
X32023809Y-30229855D01*
X31785714Y-30706046D02*
X31785714Y-29706046D01*
X31785714Y-29706046D02*
X32166666Y-29706046D01*
X32166666Y-29706046D02*
X32261904Y-29753665D01*
X32261904Y-29753665D02*
X32309523Y-29801284D01*
X32309523Y-29801284D02*
X32357142Y-29896522D01*
X32357142Y-29896522D02*
X32357142Y-30039379D01*
X32357142Y-30039379D02*
X32309523Y-30134617D01*
X32309523Y-30134617D02*
X32261904Y-30182236D01*
X32261904Y-30182236D02*
X32166666Y-30229855D01*
X32166666Y-30229855D02*
X31785714Y-30229855D01*
X33309523Y-30706046D02*
X32738095Y-30706046D01*
X33023809Y-30706046D02*
X33023809Y-29706046D01*
X33023809Y-29706046D02*
X32928571Y-29848903D01*
X32928571Y-29848903D02*
X32833333Y-29944141D01*
X32833333Y-29944141D02*
X32738095Y-29991760D01*
X33642857Y-29706046D02*
X34261904Y-29706046D01*
X34261904Y-29706046D02*
X33928571Y-30086998D01*
X33928571Y-30086998D02*
X34071428Y-30086998D01*
X34071428Y-30086998D02*
X34166666Y-30134617D01*
X34166666Y-30134617D02*
X34214285Y-30182236D01*
X34214285Y-30182236D02*
X34261904Y-30277474D01*
X34261904Y-30277474D02*
X34261904Y-30515569D01*
X34261904Y-30515569D02*
X34214285Y-30610807D01*
X34214285Y-30610807D02*
X34166666Y-30658427D01*
X34166666Y-30658427D02*
X34071428Y-30706046D01*
X34071428Y-30706046D02*
X33785714Y-30706046D01*
X33785714Y-30706046D02*
X33690476Y-30658427D01*
X33690476Y-30658427D02*
X33642857Y-30610807D01*
X36357142Y-61454819D02*
X36023809Y-60978628D01*
X35785714Y-61454819D02*
X35785714Y-60454819D01*
X35785714Y-60454819D02*
X36166666Y-60454819D01*
X36166666Y-60454819D02*
X36261904Y-60502438D01*
X36261904Y-60502438D02*
X36309523Y-60550057D01*
X36309523Y-60550057D02*
X36357142Y-60645295D01*
X36357142Y-60645295D02*
X36357142Y-60788152D01*
X36357142Y-60788152D02*
X36309523Y-60883390D01*
X36309523Y-60883390D02*
X36261904Y-60931009D01*
X36261904Y-60931009D02*
X36166666Y-60978628D01*
X36166666Y-60978628D02*
X35785714Y-60978628D01*
X37309523Y-61454819D02*
X36738095Y-61454819D01*
X37023809Y-61454819D02*
X37023809Y-60454819D01*
X37023809Y-60454819D02*
X36928571Y-60597676D01*
X36928571Y-60597676D02*
X36833333Y-60692914D01*
X36833333Y-60692914D02*
X36738095Y-60740533D01*
X37785714Y-61454819D02*
X37976190Y-61454819D01*
X37976190Y-61454819D02*
X38071428Y-61407200D01*
X38071428Y-61407200D02*
X38119047Y-61359580D01*
X38119047Y-61359580D02*
X38214285Y-61216723D01*
X38214285Y-61216723D02*
X38261904Y-61026247D01*
X38261904Y-61026247D02*
X38261904Y-60645295D01*
X38261904Y-60645295D02*
X38214285Y-60550057D01*
X38214285Y-60550057D02*
X38166666Y-60502438D01*
X38166666Y-60502438D02*
X38071428Y-60454819D01*
X38071428Y-60454819D02*
X37880952Y-60454819D01*
X37880952Y-60454819D02*
X37785714Y-60502438D01*
X37785714Y-60502438D02*
X37738095Y-60550057D01*
X37738095Y-60550057D02*
X37690476Y-60645295D01*
X37690476Y-60645295D02*
X37690476Y-60883390D01*
X37690476Y-60883390D02*
X37738095Y-60978628D01*
X37738095Y-60978628D02*
X37785714Y-61026247D01*
X37785714Y-61026247D02*
X37880952Y-61073866D01*
X37880952Y-61073866D02*
X38071428Y-61073866D01*
X38071428Y-61073866D02*
X38166666Y-61026247D01*
X38166666Y-61026247D02*
X38214285Y-60978628D01*
X38214285Y-60978628D02*
X38261904Y-60883390D01*
X34930512Y-75453909D02*
X34930512Y-76169404D01*
X34930512Y-76169404D02*
X34882812Y-76312503D01*
X34882812Y-76312503D02*
X34787413Y-76407903D01*
X34787413Y-76407903D02*
X34644314Y-76455602D01*
X34644314Y-76455602D02*
X34548915Y-76455602D01*
X35932205Y-76455602D02*
X35359809Y-76455602D01*
X35646007Y-76455602D02*
X35646007Y-75453909D01*
X35646007Y-75453909D02*
X35550608Y-75597008D01*
X35550608Y-75597008D02*
X35455209Y-75692408D01*
X35455209Y-75692408D02*
X35359809Y-75740107D01*
X36361502Y-76074005D02*
X37124697Y-76074005D01*
X37601693Y-76455602D02*
X37601693Y-75453909D01*
X38507987Y-75787807D02*
X38507987Y-76455602D01*
X38269489Y-75406210D02*
X38030990Y-76121705D01*
X38030990Y-76121705D02*
X38651086Y-76121705D01*
X59769642Y-92804819D02*
X59436309Y-92328628D01*
X59198214Y-92804819D02*
X59198214Y-91804819D01*
X59198214Y-91804819D02*
X59579166Y-91804819D01*
X59579166Y-91804819D02*
X59674404Y-91852438D01*
X59674404Y-91852438D02*
X59722023Y-91900057D01*
X59722023Y-91900057D02*
X59769642Y-91995295D01*
X59769642Y-91995295D02*
X59769642Y-92138152D01*
X59769642Y-92138152D02*
X59722023Y-92233390D01*
X59722023Y-92233390D02*
X59674404Y-92281009D01*
X59674404Y-92281009D02*
X59579166Y-92328628D01*
X59579166Y-92328628D02*
X59198214Y-92328628D01*
X60150595Y-91900057D02*
X60198214Y-91852438D01*
X60198214Y-91852438D02*
X60293452Y-91804819D01*
X60293452Y-91804819D02*
X60531547Y-91804819D01*
X60531547Y-91804819D02*
X60626785Y-91852438D01*
X60626785Y-91852438D02*
X60674404Y-91900057D01*
X60674404Y-91900057D02*
X60722023Y-91995295D01*
X60722023Y-91995295D02*
X60722023Y-92090533D01*
X60722023Y-92090533D02*
X60674404Y-92233390D01*
X60674404Y-92233390D02*
X60102976Y-92804819D01*
X60102976Y-92804819D02*
X60722023Y-92804819D01*
X61198214Y-92804819D02*
X61388690Y-92804819D01*
X61388690Y-92804819D02*
X61483928Y-92757200D01*
X61483928Y-92757200D02*
X61531547Y-92709580D01*
X61531547Y-92709580D02*
X61626785Y-92566723D01*
X61626785Y-92566723D02*
X61674404Y-92376247D01*
X61674404Y-92376247D02*
X61674404Y-91995295D01*
X61674404Y-91995295D02*
X61626785Y-91900057D01*
X61626785Y-91900057D02*
X61579166Y-91852438D01*
X61579166Y-91852438D02*
X61483928Y-91804819D01*
X61483928Y-91804819D02*
X61293452Y-91804819D01*
X61293452Y-91804819D02*
X61198214Y-91852438D01*
X61198214Y-91852438D02*
X61150595Y-91900057D01*
X61150595Y-91900057D02*
X61102976Y-91995295D01*
X61102976Y-91995295D02*
X61102976Y-92233390D01*
X61102976Y-92233390D02*
X61150595Y-92328628D01*
X61150595Y-92328628D02*
X61198214Y-92376247D01*
X61198214Y-92376247D02*
X61293452Y-92423866D01*
X61293452Y-92423866D02*
X61483928Y-92423866D01*
X61483928Y-92423866D02*
X61579166Y-92376247D01*
X61579166Y-92376247D02*
X61626785Y-92328628D01*
X61626785Y-92328628D02*
X61674404Y-92233390D01*
X59769642Y-54179819D02*
X59436309Y-53703628D01*
X59198214Y-54179819D02*
X59198214Y-53179819D01*
X59198214Y-53179819D02*
X59579166Y-53179819D01*
X59579166Y-53179819D02*
X59674404Y-53227438D01*
X59674404Y-53227438D02*
X59722023Y-53275057D01*
X59722023Y-53275057D02*
X59769642Y-53370295D01*
X59769642Y-53370295D02*
X59769642Y-53513152D01*
X59769642Y-53513152D02*
X59722023Y-53608390D01*
X59722023Y-53608390D02*
X59674404Y-53656009D01*
X59674404Y-53656009D02*
X59579166Y-53703628D01*
X59579166Y-53703628D02*
X59198214Y-53703628D01*
X60722023Y-54179819D02*
X60150595Y-54179819D01*
X60436309Y-54179819D02*
X60436309Y-53179819D01*
X60436309Y-53179819D02*
X60341071Y-53322676D01*
X60341071Y-53322676D02*
X60245833Y-53417914D01*
X60245833Y-53417914D02*
X60150595Y-53465533D01*
X61626785Y-53179819D02*
X61150595Y-53179819D01*
X61150595Y-53179819D02*
X61102976Y-53656009D01*
X61102976Y-53656009D02*
X61150595Y-53608390D01*
X61150595Y-53608390D02*
X61245833Y-53560771D01*
X61245833Y-53560771D02*
X61483928Y-53560771D01*
X61483928Y-53560771D02*
X61579166Y-53608390D01*
X61579166Y-53608390D02*
X61626785Y-53656009D01*
X61626785Y-53656009D02*
X61674404Y-53751247D01*
X61674404Y-53751247D02*
X61674404Y-53989342D01*
X61674404Y-53989342D02*
X61626785Y-54084580D01*
X61626785Y-54084580D02*
X61579166Y-54132200D01*
X61579166Y-54132200D02*
X61483928Y-54179819D01*
X61483928Y-54179819D02*
X61245833Y-54179819D01*
X61245833Y-54179819D02*
X61150595Y-54132200D01*
X61150595Y-54132200D02*
X61102976Y-54084580D01*
X30732171Y-73896379D02*
X30398838Y-73420188D01*
X30160743Y-73896379D02*
X30160743Y-72896379D01*
X30160743Y-72896379D02*
X30541695Y-72896379D01*
X30541695Y-72896379D02*
X30636933Y-72943998D01*
X30636933Y-72943998D02*
X30684552Y-72991617D01*
X30684552Y-72991617D02*
X30732171Y-73086855D01*
X30732171Y-73086855D02*
X30732171Y-73229712D01*
X30732171Y-73229712D02*
X30684552Y-73324950D01*
X30684552Y-73324950D02*
X30636933Y-73372569D01*
X30636933Y-73372569D02*
X30541695Y-73420188D01*
X30541695Y-73420188D02*
X30160743Y-73420188D01*
X31113124Y-72991617D02*
X31160743Y-72943998D01*
X31160743Y-72943998D02*
X31255981Y-72896379D01*
X31255981Y-72896379D02*
X31494076Y-72896379D01*
X31494076Y-72896379D02*
X31589314Y-72943998D01*
X31589314Y-72943998D02*
X31636933Y-72991617D01*
X31636933Y-72991617D02*
X31684552Y-73086855D01*
X31684552Y-73086855D02*
X31684552Y-73182093D01*
X31684552Y-73182093D02*
X31636933Y-73324950D01*
X31636933Y-73324950D02*
X31065505Y-73896379D01*
X31065505Y-73896379D02*
X31684552Y-73896379D01*
X32017886Y-72896379D02*
X32684552Y-72896379D01*
X32684552Y-72896379D02*
X32255981Y-73896379D01*
X47761230Y-36618812D02*
X46761230Y-36618812D01*
X46761230Y-36618812D02*
X46761230Y-36380717D01*
X46761230Y-36380717D02*
X46808849Y-36237860D01*
X46808849Y-36237860D02*
X46904087Y-36142622D01*
X46904087Y-36142622D02*
X46999325Y-36095003D01*
X46999325Y-36095003D02*
X47189801Y-36047384D01*
X47189801Y-36047384D02*
X47332658Y-36047384D01*
X47332658Y-36047384D02*
X47523134Y-36095003D01*
X47523134Y-36095003D02*
X47618372Y-36142622D01*
X47618372Y-36142622D02*
X47713611Y-36237860D01*
X47713611Y-36237860D02*
X47761230Y-36380717D01*
X47761230Y-36380717D02*
X47761230Y-36618812D01*
X47761230Y-35095003D02*
X47761230Y-35666431D01*
X47761230Y-35380717D02*
X46761230Y-35380717D01*
X46761230Y-35380717D02*
X46904087Y-35475955D01*
X46904087Y-35475955D02*
X46999325Y-35571193D01*
X46999325Y-35571193D02*
X47046944Y-35666431D01*
X28538971Y-75896029D02*
X27538971Y-75896029D01*
X27538971Y-75896029D02*
X27538971Y-75657934D01*
X27538971Y-75657934D02*
X27586590Y-75515077D01*
X27586590Y-75515077D02*
X27681828Y-75419839D01*
X27681828Y-75419839D02*
X27777066Y-75372220D01*
X27777066Y-75372220D02*
X27967542Y-75324601D01*
X27967542Y-75324601D02*
X28110399Y-75324601D01*
X28110399Y-75324601D02*
X28300875Y-75372220D01*
X28300875Y-75372220D02*
X28396113Y-75419839D01*
X28396113Y-75419839D02*
X28491352Y-75515077D01*
X28491352Y-75515077D02*
X28538971Y-75657934D01*
X28538971Y-75657934D02*
X28538971Y-75896029D01*
X28538971Y-74324601D02*
X28062780Y-74657934D01*
X28538971Y-74896029D02*
X27538971Y-74896029D01*
X27538971Y-74896029D02*
X27538971Y-74515077D01*
X27538971Y-74515077D02*
X27586590Y-74419839D01*
X27586590Y-74419839D02*
X27634209Y-74372220D01*
X27634209Y-74372220D02*
X27729447Y-74324601D01*
X27729447Y-74324601D02*
X27872304Y-74324601D01*
X27872304Y-74324601D02*
X27967542Y-74372220D01*
X27967542Y-74372220D02*
X28015161Y-74419839D01*
X28015161Y-74419839D02*
X28062780Y-74515077D01*
X28062780Y-74515077D02*
X28062780Y-74896029D01*
X27872304Y-73467458D02*
X28538971Y-73467458D01*
X27491352Y-73705553D02*
X28205637Y-73943648D01*
X28205637Y-73943648D02*
X28205637Y-73324601D01*
X29457216Y-45418444D02*
X29457216Y-44418444D01*
X29457216Y-44418444D02*
X29695311Y-44418444D01*
X29695311Y-44418444D02*
X29838168Y-44466063D01*
X29838168Y-44466063D02*
X29933406Y-44561301D01*
X29933406Y-44561301D02*
X29981025Y-44656539D01*
X29981025Y-44656539D02*
X30028644Y-44847015D01*
X30028644Y-44847015D02*
X30028644Y-44989872D01*
X30028644Y-44989872D02*
X29981025Y-45180348D01*
X29981025Y-45180348D02*
X29933406Y-45275586D01*
X29933406Y-45275586D02*
X29838168Y-45370825D01*
X29838168Y-45370825D02*
X29695311Y-45418444D01*
X29695311Y-45418444D02*
X29457216Y-45418444D01*
X31028644Y-45418444D02*
X30695311Y-44942253D01*
X30457216Y-45418444D02*
X30457216Y-44418444D01*
X30457216Y-44418444D02*
X30838168Y-44418444D01*
X30838168Y-44418444D02*
X30933406Y-44466063D01*
X30933406Y-44466063D02*
X30981025Y-44513682D01*
X30981025Y-44513682D02*
X31028644Y-44608920D01*
X31028644Y-44608920D02*
X31028644Y-44751777D01*
X31028644Y-44751777D02*
X30981025Y-44847015D01*
X30981025Y-44847015D02*
X30933406Y-44894634D01*
X30933406Y-44894634D02*
X30838168Y-44942253D01*
X30838168Y-44942253D02*
X30457216Y-44942253D01*
X31409597Y-44513682D02*
X31457216Y-44466063D01*
X31457216Y-44466063D02*
X31552454Y-44418444D01*
X31552454Y-44418444D02*
X31790549Y-44418444D01*
X31790549Y-44418444D02*
X31885787Y-44466063D01*
X31885787Y-44466063D02*
X31933406Y-44513682D01*
X31933406Y-44513682D02*
X31981025Y-44608920D01*
X31981025Y-44608920D02*
X31981025Y-44704158D01*
X31981025Y-44704158D02*
X31933406Y-44847015D01*
X31933406Y-44847015D02*
X31361978Y-45418444D01*
X31361978Y-45418444D02*
X31981025Y-45418444D01*
X28255106Y-62763447D02*
X27255106Y-62763447D01*
X27255106Y-62763447D02*
X27255106Y-62525352D01*
X27255106Y-62525352D02*
X27302725Y-62382495D01*
X27302725Y-62382495D02*
X27397963Y-62287257D01*
X27397963Y-62287257D02*
X27493201Y-62239638D01*
X27493201Y-62239638D02*
X27683677Y-62192019D01*
X27683677Y-62192019D02*
X27826534Y-62192019D01*
X27826534Y-62192019D02*
X28017010Y-62239638D01*
X28017010Y-62239638D02*
X28112248Y-62287257D01*
X28112248Y-62287257D02*
X28207487Y-62382495D01*
X28207487Y-62382495D02*
X28255106Y-62525352D01*
X28255106Y-62525352D02*
X28255106Y-62763447D01*
X28255106Y-61192019D02*
X27778915Y-61525352D01*
X28255106Y-61763447D02*
X27255106Y-61763447D01*
X27255106Y-61763447D02*
X27255106Y-61382495D01*
X27255106Y-61382495D02*
X27302725Y-61287257D01*
X27302725Y-61287257D02*
X27350344Y-61239638D01*
X27350344Y-61239638D02*
X27445582Y-61192019D01*
X27445582Y-61192019D02*
X27588439Y-61192019D01*
X27588439Y-61192019D02*
X27683677Y-61239638D01*
X27683677Y-61239638D02*
X27731296Y-61287257D01*
X27731296Y-61287257D02*
X27778915Y-61382495D01*
X27778915Y-61382495D02*
X27778915Y-61763447D01*
X27255106Y-60858685D02*
X27255106Y-60239638D01*
X27255106Y-60239638D02*
X27636058Y-60572971D01*
X27636058Y-60572971D02*
X27636058Y-60430114D01*
X27636058Y-60430114D02*
X27683677Y-60334876D01*
X27683677Y-60334876D02*
X27731296Y-60287257D01*
X27731296Y-60287257D02*
X27826534Y-60239638D01*
X27826534Y-60239638D02*
X28064629Y-60239638D01*
X28064629Y-60239638D02*
X28159867Y-60287257D01*
X28159867Y-60287257D02*
X28207487Y-60334876D01*
X28207487Y-60334876D02*
X28255106Y-60430114D01*
X28255106Y-60430114D02*
X28255106Y-60715828D01*
X28255106Y-60715828D02*
X28207487Y-60811066D01*
X28207487Y-60811066D02*
X28159867Y-60858685D01*
X59473095Y-82454819D02*
X59473095Y-83264342D01*
X59473095Y-83264342D02*
X59520714Y-83359580D01*
X59520714Y-83359580D02*
X59568333Y-83407200D01*
X59568333Y-83407200D02*
X59663571Y-83454819D01*
X59663571Y-83454819D02*
X59854047Y-83454819D01*
X59854047Y-83454819D02*
X59949285Y-83407200D01*
X59949285Y-83407200D02*
X59996904Y-83359580D01*
X59996904Y-83359580D02*
X60044523Y-83264342D01*
X60044523Y-83264342D02*
X60044523Y-82454819D01*
X60949285Y-82454819D02*
X60758809Y-82454819D01*
X60758809Y-82454819D02*
X60663571Y-82502438D01*
X60663571Y-82502438D02*
X60615952Y-82550057D01*
X60615952Y-82550057D02*
X60520714Y-82692914D01*
X60520714Y-82692914D02*
X60473095Y-82883390D01*
X60473095Y-82883390D02*
X60473095Y-83264342D01*
X60473095Y-83264342D02*
X60520714Y-83359580D01*
X60520714Y-83359580D02*
X60568333Y-83407200D01*
X60568333Y-83407200D02*
X60663571Y-83454819D01*
X60663571Y-83454819D02*
X60854047Y-83454819D01*
X60854047Y-83454819D02*
X60949285Y-83407200D01*
X60949285Y-83407200D02*
X60996904Y-83359580D01*
X60996904Y-83359580D02*
X61044523Y-83264342D01*
X61044523Y-83264342D02*
X61044523Y-83026247D01*
X61044523Y-83026247D02*
X60996904Y-82931009D01*
X60996904Y-82931009D02*
X60949285Y-82883390D01*
X60949285Y-82883390D02*
X60854047Y-82835771D01*
X60854047Y-82835771D02*
X60663571Y-82835771D01*
X60663571Y-82835771D02*
X60568333Y-82883390D01*
X60568333Y-82883390D02*
X60520714Y-82931009D01*
X60520714Y-82931009D02*
X60473095Y-83026247D01*
X48454819Y-49738094D02*
X47454819Y-49738094D01*
X47454819Y-49738094D02*
X47454819Y-49499999D01*
X47454819Y-49499999D02*
X47502438Y-49357142D01*
X47502438Y-49357142D02*
X47597676Y-49261904D01*
X47597676Y-49261904D02*
X47692914Y-49214285D01*
X47692914Y-49214285D02*
X47883390Y-49166666D01*
X47883390Y-49166666D02*
X48026247Y-49166666D01*
X48026247Y-49166666D02*
X48216723Y-49214285D01*
X48216723Y-49214285D02*
X48311961Y-49261904D01*
X48311961Y-49261904D02*
X48407200Y-49357142D01*
X48407200Y-49357142D02*
X48454819Y-49499999D01*
X48454819Y-49499999D02*
X48454819Y-49738094D01*
X47550057Y-48785713D02*
X47502438Y-48738094D01*
X47502438Y-48738094D02*
X47454819Y-48642856D01*
X47454819Y-48642856D02*
X47454819Y-48404761D01*
X47454819Y-48404761D02*
X47502438Y-48309523D01*
X47502438Y-48309523D02*
X47550057Y-48261904D01*
X47550057Y-48261904D02*
X47645295Y-48214285D01*
X47645295Y-48214285D02*
X47740533Y-48214285D01*
X47740533Y-48214285D02*
X47883390Y-48261904D01*
X47883390Y-48261904D02*
X48454819Y-48833332D01*
X48454819Y-48833332D02*
X48454819Y-48214285D01*
X34930512Y-36853909D02*
X34930512Y-37569404D01*
X34930512Y-37569404D02*
X34882812Y-37712503D01*
X34882812Y-37712503D02*
X34787413Y-37807903D01*
X34787413Y-37807903D02*
X34644314Y-37855602D01*
X34644314Y-37855602D02*
X34548915Y-37855602D01*
X35932205Y-37855602D02*
X35359809Y-37855602D01*
X35646007Y-37855602D02*
X35646007Y-36853909D01*
X35646007Y-36853909D02*
X35550608Y-36997008D01*
X35550608Y-36997008D02*
X35455209Y-37092408D01*
X35455209Y-37092408D02*
X35359809Y-37140107D01*
X36361502Y-37474005D02*
X37124697Y-37474005D01*
X37601693Y-37855602D02*
X37601693Y-36853909D01*
X38603386Y-37855602D02*
X38030990Y-37855602D01*
X38317188Y-37855602D02*
X38317188Y-36853909D01*
X38317188Y-36853909D02*
X38221789Y-36997008D01*
X38221789Y-36997008D02*
X38126390Y-37092408D01*
X38126390Y-37092408D02*
X38030990Y-37140107D01*
X66666666Y-30954819D02*
X66666666Y-31669104D01*
X66666666Y-31669104D02*
X66619047Y-31811961D01*
X66619047Y-31811961D02*
X66523809Y-31907200D01*
X66523809Y-31907200D02*
X66380952Y-31954819D01*
X66380952Y-31954819D02*
X66285714Y-31954819D01*
X67571428Y-31288152D02*
X67571428Y-31954819D01*
X67333333Y-30907200D02*
X67095238Y-31621485D01*
X67095238Y-31621485D02*
X67714285Y-31621485D01*
X48454819Y-62738094D02*
X47454819Y-62738094D01*
X47454819Y-62738094D02*
X47454819Y-62499999D01*
X47454819Y-62499999D02*
X47502438Y-62357142D01*
X47502438Y-62357142D02*
X47597676Y-62261904D01*
X47597676Y-62261904D02*
X47692914Y-62214285D01*
X47692914Y-62214285D02*
X47883390Y-62166666D01*
X47883390Y-62166666D02*
X48026247Y-62166666D01*
X48026247Y-62166666D02*
X48216723Y-62214285D01*
X48216723Y-62214285D02*
X48311961Y-62261904D01*
X48311961Y-62261904D02*
X48407200Y-62357142D01*
X48407200Y-62357142D02*
X48454819Y-62499999D01*
X48454819Y-62499999D02*
X48454819Y-62738094D01*
X47454819Y-61833332D02*
X47454819Y-61214285D01*
X47454819Y-61214285D02*
X47835771Y-61547618D01*
X47835771Y-61547618D02*
X47835771Y-61404761D01*
X47835771Y-61404761D02*
X47883390Y-61309523D01*
X47883390Y-61309523D02*
X47931009Y-61261904D01*
X47931009Y-61261904D02*
X48026247Y-61214285D01*
X48026247Y-61214285D02*
X48264342Y-61214285D01*
X48264342Y-61214285D02*
X48359580Y-61261904D01*
X48359580Y-61261904D02*
X48407200Y-61309523D01*
X48407200Y-61309523D02*
X48454819Y-61404761D01*
X48454819Y-61404761D02*
X48454819Y-61690475D01*
X48454819Y-61690475D02*
X48407200Y-61785713D01*
X48407200Y-61785713D02*
X48359580Y-61833332D01*
X27570693Y-30720144D02*
X27570693Y-29720144D01*
X27570693Y-29720144D02*
X27808788Y-29720144D01*
X27808788Y-29720144D02*
X27951645Y-29767763D01*
X27951645Y-29767763D02*
X28046883Y-29863001D01*
X28046883Y-29863001D02*
X28094502Y-29958239D01*
X28094502Y-29958239D02*
X28142121Y-30148715D01*
X28142121Y-30148715D02*
X28142121Y-30291572D01*
X28142121Y-30291572D02*
X28094502Y-30482048D01*
X28094502Y-30482048D02*
X28046883Y-30577286D01*
X28046883Y-30577286D02*
X27951645Y-30672525D01*
X27951645Y-30672525D02*
X27808788Y-30720144D01*
X27808788Y-30720144D02*
X27570693Y-30720144D01*
X29142121Y-30720144D02*
X28808788Y-30243953D01*
X28570693Y-30720144D02*
X28570693Y-29720144D01*
X28570693Y-29720144D02*
X28951645Y-29720144D01*
X28951645Y-29720144D02*
X29046883Y-29767763D01*
X29046883Y-29767763D02*
X29094502Y-29815382D01*
X29094502Y-29815382D02*
X29142121Y-29910620D01*
X29142121Y-29910620D02*
X29142121Y-30053477D01*
X29142121Y-30053477D02*
X29094502Y-30148715D01*
X29094502Y-30148715D02*
X29046883Y-30196334D01*
X29046883Y-30196334D02*
X28951645Y-30243953D01*
X28951645Y-30243953D02*
X28570693Y-30243953D01*
X30094502Y-30720144D02*
X29523074Y-30720144D01*
X29808788Y-30720144D02*
X29808788Y-29720144D01*
X29808788Y-29720144D02*
X29713550Y-29863001D01*
X29713550Y-29863001D02*
X29618312Y-29958239D01*
X29618312Y-29958239D02*
X29523074Y-30005858D01*
X36301680Y-48578468D02*
X35968347Y-48102277D01*
X35730252Y-48578468D02*
X35730252Y-47578468D01*
X35730252Y-47578468D02*
X36111204Y-47578468D01*
X36111204Y-47578468D02*
X36206442Y-47626087D01*
X36206442Y-47626087D02*
X36254061Y-47673706D01*
X36254061Y-47673706D02*
X36301680Y-47768944D01*
X36301680Y-47768944D02*
X36301680Y-47911801D01*
X36301680Y-47911801D02*
X36254061Y-48007039D01*
X36254061Y-48007039D02*
X36206442Y-48054658D01*
X36206442Y-48054658D02*
X36111204Y-48102277D01*
X36111204Y-48102277D02*
X35730252Y-48102277D01*
X37254061Y-48578468D02*
X36682633Y-48578468D01*
X36968347Y-48578468D02*
X36968347Y-47578468D01*
X36968347Y-47578468D02*
X36873109Y-47721325D01*
X36873109Y-47721325D02*
X36777871Y-47816563D01*
X36777871Y-47816563D02*
X36682633Y-47864182D01*
X38111204Y-47578468D02*
X37920728Y-47578468D01*
X37920728Y-47578468D02*
X37825490Y-47626087D01*
X37825490Y-47626087D02*
X37777871Y-47673706D01*
X37777871Y-47673706D02*
X37682633Y-47816563D01*
X37682633Y-47816563D02*
X37635014Y-48007039D01*
X37635014Y-48007039D02*
X37635014Y-48387991D01*
X37635014Y-48387991D02*
X37682633Y-48483229D01*
X37682633Y-48483229D02*
X37730252Y-48530849D01*
X37730252Y-48530849D02*
X37825490Y-48578468D01*
X37825490Y-48578468D02*
X38015966Y-48578468D01*
X38015966Y-48578468D02*
X38111204Y-48530849D01*
X38111204Y-48530849D02*
X38158823Y-48483229D01*
X38158823Y-48483229D02*
X38206442Y-48387991D01*
X38206442Y-48387991D02*
X38206442Y-48149896D01*
X38206442Y-48149896D02*
X38158823Y-48054658D01*
X38158823Y-48054658D02*
X38111204Y-48007039D01*
X38111204Y-48007039D02*
X38015966Y-47959420D01*
X38015966Y-47959420D02*
X37825490Y-47959420D01*
X37825490Y-47959420D02*
X37730252Y-48007039D01*
X37730252Y-48007039D02*
X37682633Y-48054658D01*
X37682633Y-48054658D02*
X37635014Y-48149896D01*
X48454819Y-75738094D02*
X47454819Y-75738094D01*
X47454819Y-75738094D02*
X47454819Y-75499999D01*
X47454819Y-75499999D02*
X47502438Y-75357142D01*
X47502438Y-75357142D02*
X47597676Y-75261904D01*
X47597676Y-75261904D02*
X47692914Y-75214285D01*
X47692914Y-75214285D02*
X47883390Y-75166666D01*
X47883390Y-75166666D02*
X48026247Y-75166666D01*
X48026247Y-75166666D02*
X48216723Y-75214285D01*
X48216723Y-75214285D02*
X48311961Y-75261904D01*
X48311961Y-75261904D02*
X48407200Y-75357142D01*
X48407200Y-75357142D02*
X48454819Y-75499999D01*
X48454819Y-75499999D02*
X48454819Y-75738094D01*
X47788152Y-74309523D02*
X48454819Y-74309523D01*
X47407200Y-74547618D02*
X48121485Y-74785713D01*
X48121485Y-74785713D02*
X48121485Y-74166666D01*
X28374538Y-88869942D02*
X27374538Y-88869942D01*
X27374538Y-88869942D02*
X27374538Y-88631847D01*
X27374538Y-88631847D02*
X27422157Y-88488990D01*
X27422157Y-88488990D02*
X27517395Y-88393752D01*
X27517395Y-88393752D02*
X27612633Y-88346133D01*
X27612633Y-88346133D02*
X27803109Y-88298514D01*
X27803109Y-88298514D02*
X27945966Y-88298514D01*
X27945966Y-88298514D02*
X28136442Y-88346133D01*
X28136442Y-88346133D02*
X28231680Y-88393752D01*
X28231680Y-88393752D02*
X28326919Y-88488990D01*
X28326919Y-88488990D02*
X28374538Y-88631847D01*
X28374538Y-88631847D02*
X28374538Y-88869942D01*
X28374538Y-87298514D02*
X27898347Y-87631847D01*
X28374538Y-87869942D02*
X27374538Y-87869942D01*
X27374538Y-87869942D02*
X27374538Y-87488990D01*
X27374538Y-87488990D02*
X27422157Y-87393752D01*
X27422157Y-87393752D02*
X27469776Y-87346133D01*
X27469776Y-87346133D02*
X27565014Y-87298514D01*
X27565014Y-87298514D02*
X27707871Y-87298514D01*
X27707871Y-87298514D02*
X27803109Y-87346133D01*
X27803109Y-87346133D02*
X27850728Y-87393752D01*
X27850728Y-87393752D02*
X27898347Y-87488990D01*
X27898347Y-87488990D02*
X27898347Y-87869942D01*
X27374538Y-86393752D02*
X27374538Y-86869942D01*
X27374538Y-86869942D02*
X27850728Y-86917561D01*
X27850728Y-86917561D02*
X27803109Y-86869942D01*
X27803109Y-86869942D02*
X27755490Y-86774704D01*
X27755490Y-86774704D02*
X27755490Y-86536609D01*
X27755490Y-86536609D02*
X27803109Y-86441371D01*
X27803109Y-86441371D02*
X27850728Y-86393752D01*
X27850728Y-86393752D02*
X27945966Y-86346133D01*
X27945966Y-86346133D02*
X28184061Y-86346133D01*
X28184061Y-86346133D02*
X28279299Y-86393752D01*
X28279299Y-86393752D02*
X28326919Y-86441371D01*
X28326919Y-86441371D02*
X28374538Y-86536609D01*
X28374538Y-86536609D02*
X28374538Y-86774704D01*
X28374538Y-86774704D02*
X28326919Y-86869942D01*
X28326919Y-86869942D02*
X28279299Y-86917561D01*
X59473095Y-30954819D02*
X59473095Y-31764342D01*
X59473095Y-31764342D02*
X59520714Y-31859580D01*
X59520714Y-31859580D02*
X59568333Y-31907200D01*
X59568333Y-31907200D02*
X59663571Y-31954819D01*
X59663571Y-31954819D02*
X59854047Y-31954819D01*
X59854047Y-31954819D02*
X59949285Y-31907200D01*
X59949285Y-31907200D02*
X59996904Y-31859580D01*
X59996904Y-31859580D02*
X60044523Y-31764342D01*
X60044523Y-31764342D02*
X60044523Y-30954819D01*
X60473095Y-31050057D02*
X60520714Y-31002438D01*
X60520714Y-31002438D02*
X60615952Y-30954819D01*
X60615952Y-30954819D02*
X60854047Y-30954819D01*
X60854047Y-30954819D02*
X60949285Y-31002438D01*
X60949285Y-31002438D02*
X60996904Y-31050057D01*
X60996904Y-31050057D02*
X61044523Y-31145295D01*
X61044523Y-31145295D02*
X61044523Y-31240533D01*
X61044523Y-31240533D02*
X60996904Y-31383390D01*
X60996904Y-31383390D02*
X60425476Y-31954819D01*
X60425476Y-31954819D02*
X61044523Y-31954819D01*
X41944642Y-69804819D02*
X41611309Y-69328628D01*
X41373214Y-69804819D02*
X41373214Y-68804819D01*
X41373214Y-68804819D02*
X41754166Y-68804819D01*
X41754166Y-68804819D02*
X41849404Y-68852438D01*
X41849404Y-68852438D02*
X41897023Y-68900057D01*
X41897023Y-68900057D02*
X41944642Y-68995295D01*
X41944642Y-68995295D02*
X41944642Y-69138152D01*
X41944642Y-69138152D02*
X41897023Y-69233390D01*
X41897023Y-69233390D02*
X41849404Y-69281009D01*
X41849404Y-69281009D02*
X41754166Y-69328628D01*
X41754166Y-69328628D02*
X41373214Y-69328628D01*
X42325595Y-68900057D02*
X42373214Y-68852438D01*
X42373214Y-68852438D02*
X42468452Y-68804819D01*
X42468452Y-68804819D02*
X42706547Y-68804819D01*
X42706547Y-68804819D02*
X42801785Y-68852438D01*
X42801785Y-68852438D02*
X42849404Y-68900057D01*
X42849404Y-68900057D02*
X42897023Y-68995295D01*
X42897023Y-68995295D02*
X42897023Y-69090533D01*
X42897023Y-69090533D02*
X42849404Y-69233390D01*
X42849404Y-69233390D02*
X42277976Y-69804819D01*
X42277976Y-69804819D02*
X42897023Y-69804819D01*
X43516071Y-68804819D02*
X43611309Y-68804819D01*
X43611309Y-68804819D02*
X43706547Y-68852438D01*
X43706547Y-68852438D02*
X43754166Y-68900057D01*
X43754166Y-68900057D02*
X43801785Y-68995295D01*
X43801785Y-68995295D02*
X43849404Y-69185771D01*
X43849404Y-69185771D02*
X43849404Y-69423866D01*
X43849404Y-69423866D02*
X43801785Y-69614342D01*
X43801785Y-69614342D02*
X43754166Y-69709580D01*
X43754166Y-69709580D02*
X43706547Y-69757200D01*
X43706547Y-69757200D02*
X43611309Y-69804819D01*
X43611309Y-69804819D02*
X43516071Y-69804819D01*
X43516071Y-69804819D02*
X43420833Y-69757200D01*
X43420833Y-69757200D02*
X43373214Y-69709580D01*
X43373214Y-69709580D02*
X43325595Y-69614342D01*
X43325595Y-69614342D02*
X43277976Y-69423866D01*
X43277976Y-69423866D02*
X43277976Y-69185771D01*
X43277976Y-69185771D02*
X43325595Y-68995295D01*
X43325595Y-68995295D02*
X43373214Y-68900057D01*
X43373214Y-68900057D02*
X43420833Y-68852438D01*
X43420833Y-68852438D02*
X43516071Y-68804819D01*
X41944642Y-43804819D02*
X41611309Y-43328628D01*
X41373214Y-43804819D02*
X41373214Y-42804819D01*
X41373214Y-42804819D02*
X41754166Y-42804819D01*
X41754166Y-42804819D02*
X41849404Y-42852438D01*
X41849404Y-42852438D02*
X41897023Y-42900057D01*
X41897023Y-42900057D02*
X41944642Y-42995295D01*
X41944642Y-42995295D02*
X41944642Y-43138152D01*
X41944642Y-43138152D02*
X41897023Y-43233390D01*
X41897023Y-43233390D02*
X41849404Y-43281009D01*
X41849404Y-43281009D02*
X41754166Y-43328628D01*
X41754166Y-43328628D02*
X41373214Y-43328628D01*
X42897023Y-43804819D02*
X42325595Y-43804819D01*
X42611309Y-43804819D02*
X42611309Y-42804819D01*
X42611309Y-42804819D02*
X42516071Y-42947676D01*
X42516071Y-42947676D02*
X42420833Y-43042914D01*
X42420833Y-43042914D02*
X42325595Y-43090533D01*
X43754166Y-43138152D02*
X43754166Y-43804819D01*
X43516071Y-42757200D02*
X43277976Y-43471485D01*
X43277976Y-43471485D02*
X43897023Y-43471485D01*
X59473095Y-43954819D02*
X59473095Y-44764342D01*
X59473095Y-44764342D02*
X59520714Y-44859580D01*
X59520714Y-44859580D02*
X59568333Y-44907200D01*
X59568333Y-44907200D02*
X59663571Y-44954819D01*
X59663571Y-44954819D02*
X59854047Y-44954819D01*
X59854047Y-44954819D02*
X59949285Y-44907200D01*
X59949285Y-44907200D02*
X59996904Y-44859580D01*
X59996904Y-44859580D02*
X60044523Y-44764342D01*
X60044523Y-44764342D02*
X60044523Y-43954819D01*
X60425476Y-43954819D02*
X61044523Y-43954819D01*
X61044523Y-43954819D02*
X60711190Y-44335771D01*
X60711190Y-44335771D02*
X60854047Y-44335771D01*
X60854047Y-44335771D02*
X60949285Y-44383390D01*
X60949285Y-44383390D02*
X60996904Y-44431009D01*
X60996904Y-44431009D02*
X61044523Y-44526247D01*
X61044523Y-44526247D02*
X61044523Y-44764342D01*
X61044523Y-44764342D02*
X60996904Y-44859580D01*
X60996904Y-44859580D02*
X60949285Y-44907200D01*
X60949285Y-44907200D02*
X60854047Y-44954819D01*
X60854047Y-44954819D02*
X60568333Y-44954819D01*
X60568333Y-44954819D02*
X60473095Y-44907200D01*
X60473095Y-44907200D02*
X60425476Y-44859580D01*
X59467448Y-69419420D02*
X59467448Y-70228943D01*
X59467448Y-70228943D02*
X59515067Y-70324181D01*
X59515067Y-70324181D02*
X59562686Y-70371801D01*
X59562686Y-70371801D02*
X59657924Y-70419420D01*
X59657924Y-70419420D02*
X59848400Y-70419420D01*
X59848400Y-70419420D02*
X59943638Y-70371801D01*
X59943638Y-70371801D02*
X59991257Y-70324181D01*
X59991257Y-70324181D02*
X60038876Y-70228943D01*
X60038876Y-70228943D02*
X60038876Y-69419420D01*
X60991257Y-69419420D02*
X60515067Y-69419420D01*
X60515067Y-69419420D02*
X60467448Y-69895610D01*
X60467448Y-69895610D02*
X60515067Y-69847991D01*
X60515067Y-69847991D02*
X60610305Y-69800372D01*
X60610305Y-69800372D02*
X60848400Y-69800372D01*
X60848400Y-69800372D02*
X60943638Y-69847991D01*
X60943638Y-69847991D02*
X60991257Y-69895610D01*
X60991257Y-69895610D02*
X61038876Y-69990848D01*
X61038876Y-69990848D02*
X61038876Y-70228943D01*
X61038876Y-70228943D02*
X60991257Y-70324181D01*
X60991257Y-70324181D02*
X60943638Y-70371801D01*
X60943638Y-70371801D02*
X60848400Y-70419420D01*
X60848400Y-70419420D02*
X60610305Y-70419420D01*
X60610305Y-70419420D02*
X60515067Y-70371801D01*
X60515067Y-70371801D02*
X60467448Y-70324181D01*
X34930512Y-49898353D02*
X34930512Y-50613848D01*
X34930512Y-50613848D02*
X34882812Y-50756947D01*
X34882812Y-50756947D02*
X34787413Y-50852347D01*
X34787413Y-50852347D02*
X34644314Y-50900046D01*
X34644314Y-50900046D02*
X34548915Y-50900046D01*
X35932205Y-50900046D02*
X35359809Y-50900046D01*
X35646007Y-50900046D02*
X35646007Y-49898353D01*
X35646007Y-49898353D02*
X35550608Y-50041452D01*
X35550608Y-50041452D02*
X35455209Y-50136852D01*
X35455209Y-50136852D02*
X35359809Y-50184551D01*
X36361502Y-50518449D02*
X37124697Y-50518449D01*
X37601693Y-50900046D02*
X37601693Y-49898353D01*
X38030990Y-49993753D02*
X38078690Y-49946053D01*
X38078690Y-49946053D02*
X38174089Y-49898353D01*
X38174089Y-49898353D02*
X38412588Y-49898353D01*
X38412588Y-49898353D02*
X38507987Y-49946053D01*
X38507987Y-49946053D02*
X38555687Y-49993753D01*
X38555687Y-49993753D02*
X38603386Y-50089152D01*
X38603386Y-50089152D02*
X38603386Y-50184551D01*
X38603386Y-50184551D02*
X38555687Y-50327650D01*
X38555687Y-50327650D02*
X37983291Y-50900046D01*
X37983291Y-50900046D02*
X38603386Y-50900046D01*
X53166666Y-30954819D02*
X53166666Y-31669104D01*
X53166666Y-31669104D02*
X53119047Y-31811961D01*
X53119047Y-31811961D02*
X53023809Y-31907200D01*
X53023809Y-31907200D02*
X52880952Y-31954819D01*
X52880952Y-31954819D02*
X52785714Y-31954819D01*
X53547619Y-30954819D02*
X54166666Y-30954819D01*
X54166666Y-30954819D02*
X53833333Y-31335771D01*
X53833333Y-31335771D02*
X53976190Y-31335771D01*
X53976190Y-31335771D02*
X54071428Y-31383390D01*
X54071428Y-31383390D02*
X54119047Y-31431009D01*
X54119047Y-31431009D02*
X54166666Y-31526247D01*
X54166666Y-31526247D02*
X54166666Y-31764342D01*
X54166666Y-31764342D02*
X54119047Y-31859580D01*
X54119047Y-31859580D02*
X54071428Y-31907200D01*
X54071428Y-31907200D02*
X53976190Y-31954819D01*
X53976190Y-31954819D02*
X53690476Y-31954819D01*
X53690476Y-31954819D02*
X53595238Y-31907200D01*
X53595238Y-31907200D02*
X53547619Y-31859580D01*
X41944642Y-56804819D02*
X41611309Y-56328628D01*
X41373214Y-56804819D02*
X41373214Y-55804819D01*
X41373214Y-55804819D02*
X41754166Y-55804819D01*
X41754166Y-55804819D02*
X41849404Y-55852438D01*
X41849404Y-55852438D02*
X41897023Y-55900057D01*
X41897023Y-55900057D02*
X41944642Y-55995295D01*
X41944642Y-55995295D02*
X41944642Y-56138152D01*
X41944642Y-56138152D02*
X41897023Y-56233390D01*
X41897023Y-56233390D02*
X41849404Y-56281009D01*
X41849404Y-56281009D02*
X41754166Y-56328628D01*
X41754166Y-56328628D02*
X41373214Y-56328628D01*
X42897023Y-56804819D02*
X42325595Y-56804819D01*
X42611309Y-56804819D02*
X42611309Y-55804819D01*
X42611309Y-55804819D02*
X42516071Y-55947676D01*
X42516071Y-55947676D02*
X42420833Y-56042914D01*
X42420833Y-56042914D02*
X42325595Y-56090533D01*
X43230357Y-55804819D02*
X43897023Y-55804819D01*
X43897023Y-55804819D02*
X43468452Y-56804819D01*
X36306818Y-87622296D02*
X35973485Y-87146105D01*
X35735390Y-87622296D02*
X35735390Y-86622296D01*
X35735390Y-86622296D02*
X36116342Y-86622296D01*
X36116342Y-86622296D02*
X36211580Y-86669915D01*
X36211580Y-86669915D02*
X36259199Y-86717534D01*
X36259199Y-86717534D02*
X36306818Y-86812772D01*
X36306818Y-86812772D02*
X36306818Y-86955629D01*
X36306818Y-86955629D02*
X36259199Y-87050867D01*
X36259199Y-87050867D02*
X36211580Y-87098486D01*
X36211580Y-87098486D02*
X36116342Y-87146105D01*
X36116342Y-87146105D02*
X35735390Y-87146105D01*
X36640152Y-86622296D02*
X37259199Y-86622296D01*
X37259199Y-86622296D02*
X36925866Y-87003248D01*
X36925866Y-87003248D02*
X37068723Y-87003248D01*
X37068723Y-87003248D02*
X37163961Y-87050867D01*
X37163961Y-87050867D02*
X37211580Y-87098486D01*
X37211580Y-87098486D02*
X37259199Y-87193724D01*
X37259199Y-87193724D02*
X37259199Y-87431819D01*
X37259199Y-87431819D02*
X37211580Y-87527057D01*
X37211580Y-87527057D02*
X37163961Y-87574677D01*
X37163961Y-87574677D02*
X37068723Y-87622296D01*
X37068723Y-87622296D02*
X36783009Y-87622296D01*
X36783009Y-87622296D02*
X36687771Y-87574677D01*
X36687771Y-87574677D02*
X36640152Y-87527057D01*
X37878247Y-86622296D02*
X37973485Y-86622296D01*
X37973485Y-86622296D02*
X38068723Y-86669915D01*
X38068723Y-86669915D02*
X38116342Y-86717534D01*
X38116342Y-86717534D02*
X38163961Y-86812772D01*
X38163961Y-86812772D02*
X38211580Y-87003248D01*
X38211580Y-87003248D02*
X38211580Y-87241343D01*
X38211580Y-87241343D02*
X38163961Y-87431819D01*
X38163961Y-87431819D02*
X38116342Y-87527057D01*
X38116342Y-87527057D02*
X38068723Y-87574677D01*
X38068723Y-87574677D02*
X37973485Y-87622296D01*
X37973485Y-87622296D02*
X37878247Y-87622296D01*
X37878247Y-87622296D02*
X37783009Y-87574677D01*
X37783009Y-87574677D02*
X37735390Y-87527057D01*
X37735390Y-87527057D02*
X37687771Y-87431819D01*
X37687771Y-87431819D02*
X37640152Y-87241343D01*
X37640152Y-87241343D02*
X37640152Y-87003248D01*
X37640152Y-87003248D02*
X37687771Y-86812772D01*
X37687771Y-86812772D02*
X37735390Y-86717534D01*
X37735390Y-86717534D02*
X37783009Y-86669915D01*
X37783009Y-86669915D02*
X37878247Y-86622296D01*
X48454819Y-89738094D02*
X47454819Y-89738094D01*
X47454819Y-89738094D02*
X47454819Y-89499999D01*
X47454819Y-89499999D02*
X47502438Y-89357142D01*
X47502438Y-89357142D02*
X47597676Y-89261904D01*
X47597676Y-89261904D02*
X47692914Y-89214285D01*
X47692914Y-89214285D02*
X47883390Y-89166666D01*
X47883390Y-89166666D02*
X48026247Y-89166666D01*
X48026247Y-89166666D02*
X48216723Y-89214285D01*
X48216723Y-89214285D02*
X48311961Y-89261904D01*
X48311961Y-89261904D02*
X48407200Y-89357142D01*
X48407200Y-89357142D02*
X48454819Y-89499999D01*
X48454819Y-89499999D02*
X48454819Y-89738094D01*
X47454819Y-88261904D02*
X47454819Y-88738094D01*
X47454819Y-88738094D02*
X47931009Y-88785713D01*
X47931009Y-88785713D02*
X47883390Y-88738094D01*
X47883390Y-88738094D02*
X47835771Y-88642856D01*
X47835771Y-88642856D02*
X47835771Y-88404761D01*
X47835771Y-88404761D02*
X47883390Y-88309523D01*
X47883390Y-88309523D02*
X47931009Y-88261904D01*
X47931009Y-88261904D02*
X48026247Y-88214285D01*
X48026247Y-88214285D02*
X48264342Y-88214285D01*
X48264342Y-88214285D02*
X48359580Y-88261904D01*
X48359580Y-88261904D02*
X48407200Y-88309523D01*
X48407200Y-88309523D02*
X48454819Y-88404761D01*
X48454819Y-88404761D02*
X48454819Y-88642856D01*
X48454819Y-88642856D02*
X48407200Y-88738094D01*
X48407200Y-88738094D02*
X48359580Y-88785713D01*
X39526534Y-30678682D02*
X39193201Y-30202491D01*
X38955106Y-30678682D02*
X38955106Y-29678682D01*
X38955106Y-29678682D02*
X39336058Y-29678682D01*
X39336058Y-29678682D02*
X39431296Y-29726301D01*
X39431296Y-29726301D02*
X39478915Y-29773920D01*
X39478915Y-29773920D02*
X39526534Y-29869158D01*
X39526534Y-29869158D02*
X39526534Y-30012015D01*
X39526534Y-30012015D02*
X39478915Y-30107253D01*
X39478915Y-30107253D02*
X39431296Y-30154872D01*
X39431296Y-30154872D02*
X39336058Y-30202491D01*
X39336058Y-30202491D02*
X38955106Y-30202491D01*
X40478915Y-30678682D02*
X39907487Y-30678682D01*
X40193201Y-30678682D02*
X40193201Y-29678682D01*
X40193201Y-29678682D02*
X40097963Y-29821539D01*
X40097963Y-29821539D02*
X40002725Y-29916777D01*
X40002725Y-29916777D02*
X39907487Y-29964396D01*
X41431296Y-30678682D02*
X40859868Y-30678682D01*
X41145582Y-30678682D02*
X41145582Y-29678682D01*
X41145582Y-29678682D02*
X41050344Y-29821539D01*
X41050344Y-29821539D02*
X40955106Y-29916777D01*
X40955106Y-29916777D02*
X40859868Y-29964396D01*
X34930512Y-89031685D02*
X34930512Y-89747180D01*
X34930512Y-89747180D02*
X34882812Y-89890279D01*
X34882812Y-89890279D02*
X34787413Y-89985679D01*
X34787413Y-89985679D02*
X34644314Y-90033378D01*
X34644314Y-90033378D02*
X34548915Y-90033378D01*
X35932205Y-90033378D02*
X35359809Y-90033378D01*
X35646007Y-90033378D02*
X35646007Y-89031685D01*
X35646007Y-89031685D02*
X35550608Y-89174784D01*
X35550608Y-89174784D02*
X35455209Y-89270184D01*
X35455209Y-89270184D02*
X35359809Y-89317883D01*
X36361502Y-89651781D02*
X37124697Y-89651781D01*
X37601693Y-90033378D02*
X37601693Y-89031685D01*
X38555687Y-89031685D02*
X38078690Y-89031685D01*
X38078690Y-89031685D02*
X38030990Y-89508682D01*
X38030990Y-89508682D02*
X38078690Y-89460982D01*
X38078690Y-89460982D02*
X38174089Y-89413283D01*
X38174089Y-89413283D02*
X38412588Y-89413283D01*
X38412588Y-89413283D02*
X38507987Y-89460982D01*
X38507987Y-89460982D02*
X38555687Y-89508682D01*
X38555687Y-89508682D02*
X38603386Y-89604081D01*
X38603386Y-89604081D02*
X38603386Y-89842580D01*
X38603386Y-89842580D02*
X38555687Y-89937979D01*
X38555687Y-89937979D02*
X38507987Y-89985679D01*
X38507987Y-89985679D02*
X38412588Y-90033378D01*
X38412588Y-90033378D02*
X38174089Y-90033378D01*
X38174089Y-90033378D02*
X38078690Y-89985679D01*
X38078690Y-89985679D02*
X38030990Y-89937979D01*
X59769642Y-67054819D02*
X59436309Y-66578628D01*
X59198214Y-67054819D02*
X59198214Y-66054819D01*
X59198214Y-66054819D02*
X59579166Y-66054819D01*
X59579166Y-66054819D02*
X59674404Y-66102438D01*
X59674404Y-66102438D02*
X59722023Y-66150057D01*
X59722023Y-66150057D02*
X59769642Y-66245295D01*
X59769642Y-66245295D02*
X59769642Y-66388152D01*
X59769642Y-66388152D02*
X59722023Y-66483390D01*
X59722023Y-66483390D02*
X59674404Y-66531009D01*
X59674404Y-66531009D02*
X59579166Y-66578628D01*
X59579166Y-66578628D02*
X59198214Y-66578628D01*
X60722023Y-67054819D02*
X60150595Y-67054819D01*
X60436309Y-67054819D02*
X60436309Y-66054819D01*
X60436309Y-66054819D02*
X60341071Y-66197676D01*
X60341071Y-66197676D02*
X60245833Y-66292914D01*
X60245833Y-66292914D02*
X60150595Y-66340533D01*
X61293452Y-66483390D02*
X61198214Y-66435771D01*
X61198214Y-66435771D02*
X61150595Y-66388152D01*
X61150595Y-66388152D02*
X61102976Y-66292914D01*
X61102976Y-66292914D02*
X61102976Y-66245295D01*
X61102976Y-66245295D02*
X61150595Y-66150057D01*
X61150595Y-66150057D02*
X61198214Y-66102438D01*
X61198214Y-66102438D02*
X61293452Y-66054819D01*
X61293452Y-66054819D02*
X61483928Y-66054819D01*
X61483928Y-66054819D02*
X61579166Y-66102438D01*
X61579166Y-66102438D02*
X61626785Y-66150057D01*
X61626785Y-66150057D02*
X61674404Y-66245295D01*
X61674404Y-66245295D02*
X61674404Y-66292914D01*
X61674404Y-66292914D02*
X61626785Y-66388152D01*
X61626785Y-66388152D02*
X61579166Y-66435771D01*
X61579166Y-66435771D02*
X61483928Y-66483390D01*
X61483928Y-66483390D02*
X61293452Y-66483390D01*
X61293452Y-66483390D02*
X61198214Y-66531009D01*
X61198214Y-66531009D02*
X61150595Y-66578628D01*
X61150595Y-66578628D02*
X61102976Y-66673866D01*
X61102976Y-66673866D02*
X61102976Y-66864342D01*
X61102976Y-66864342D02*
X61150595Y-66959580D01*
X61150595Y-66959580D02*
X61198214Y-67007200D01*
X61198214Y-67007200D02*
X61293452Y-67054819D01*
X61293452Y-67054819D02*
X61483928Y-67054819D01*
X61483928Y-67054819D02*
X61579166Y-67007200D01*
X61579166Y-67007200D02*
X61626785Y-66959580D01*
X61626785Y-66959580D02*
X61674404Y-66864342D01*
X61674404Y-66864342D02*
X61674404Y-66673866D01*
X61674404Y-66673866D02*
X61626785Y-66578628D01*
X61626785Y-66578628D02*
X61579166Y-66531009D01*
X61579166Y-66531009D02*
X61483928Y-66483390D01*
X34930512Y-62942797D02*
X34930512Y-63658292D01*
X34930512Y-63658292D02*
X34882812Y-63801391D01*
X34882812Y-63801391D02*
X34787413Y-63896791D01*
X34787413Y-63896791D02*
X34644314Y-63944490D01*
X34644314Y-63944490D02*
X34548915Y-63944490D01*
X35932205Y-63944490D02*
X35359809Y-63944490D01*
X35646007Y-63944490D02*
X35646007Y-62942797D01*
X35646007Y-62942797D02*
X35550608Y-63085896D01*
X35550608Y-63085896D02*
X35455209Y-63181296D01*
X35455209Y-63181296D02*
X35359809Y-63228995D01*
X36361502Y-63562893D02*
X37124697Y-63562893D01*
X37601693Y-63944490D02*
X37601693Y-62942797D01*
X37983291Y-62942797D02*
X38603386Y-62942797D01*
X38603386Y-62942797D02*
X38269489Y-63324395D01*
X38269489Y-63324395D02*
X38412588Y-63324395D01*
X38412588Y-63324395D02*
X38507987Y-63372094D01*
X38507987Y-63372094D02*
X38555687Y-63419794D01*
X38555687Y-63419794D02*
X38603386Y-63515193D01*
X38603386Y-63515193D02*
X38603386Y-63753692D01*
X38603386Y-63753692D02*
X38555687Y-63849091D01*
X38555687Y-63849091D02*
X38507987Y-63896791D01*
X38507987Y-63896791D02*
X38412588Y-63944490D01*
X38412588Y-63944490D02*
X38126390Y-63944490D01*
X38126390Y-63944490D02*
X38030990Y-63896791D01*
X38030990Y-63896791D02*
X37983291Y-63849091D01*
X41944642Y-82804819D02*
X41611309Y-82328628D01*
X41373214Y-82804819D02*
X41373214Y-81804819D01*
X41373214Y-81804819D02*
X41754166Y-81804819D01*
X41754166Y-81804819D02*
X41849404Y-81852438D01*
X41849404Y-81852438D02*
X41897023Y-81900057D01*
X41897023Y-81900057D02*
X41944642Y-81995295D01*
X41944642Y-81995295D02*
X41944642Y-82138152D01*
X41944642Y-82138152D02*
X41897023Y-82233390D01*
X41897023Y-82233390D02*
X41849404Y-82281009D01*
X41849404Y-82281009D02*
X41754166Y-82328628D01*
X41754166Y-82328628D02*
X41373214Y-82328628D01*
X42325595Y-81900057D02*
X42373214Y-81852438D01*
X42373214Y-81852438D02*
X42468452Y-81804819D01*
X42468452Y-81804819D02*
X42706547Y-81804819D01*
X42706547Y-81804819D02*
X42801785Y-81852438D01*
X42801785Y-81852438D02*
X42849404Y-81900057D01*
X42849404Y-81900057D02*
X42897023Y-81995295D01*
X42897023Y-81995295D02*
X42897023Y-82090533D01*
X42897023Y-82090533D02*
X42849404Y-82233390D01*
X42849404Y-82233390D02*
X42277976Y-82804819D01*
X42277976Y-82804819D02*
X42897023Y-82804819D01*
X43468452Y-82233390D02*
X43373214Y-82185771D01*
X43373214Y-82185771D02*
X43325595Y-82138152D01*
X43325595Y-82138152D02*
X43277976Y-82042914D01*
X43277976Y-82042914D02*
X43277976Y-81995295D01*
X43277976Y-81995295D02*
X43325595Y-81900057D01*
X43325595Y-81900057D02*
X43373214Y-81852438D01*
X43373214Y-81852438D02*
X43468452Y-81804819D01*
X43468452Y-81804819D02*
X43658928Y-81804819D01*
X43658928Y-81804819D02*
X43754166Y-81852438D01*
X43754166Y-81852438D02*
X43801785Y-81900057D01*
X43801785Y-81900057D02*
X43849404Y-81995295D01*
X43849404Y-81995295D02*
X43849404Y-82042914D01*
X43849404Y-82042914D02*
X43801785Y-82138152D01*
X43801785Y-82138152D02*
X43754166Y-82185771D01*
X43754166Y-82185771D02*
X43658928Y-82233390D01*
X43658928Y-82233390D02*
X43468452Y-82233390D01*
X43468452Y-82233390D02*
X43373214Y-82281009D01*
X43373214Y-82281009D02*
X43325595Y-82328628D01*
X43325595Y-82328628D02*
X43277976Y-82423866D01*
X43277976Y-82423866D02*
X43277976Y-82614342D01*
X43277976Y-82614342D02*
X43325595Y-82709580D01*
X43325595Y-82709580D02*
X43373214Y-82757200D01*
X43373214Y-82757200D02*
X43468452Y-82804819D01*
X43468452Y-82804819D02*
X43658928Y-82804819D01*
X43658928Y-82804819D02*
X43754166Y-82757200D01*
X43754166Y-82757200D02*
X43801785Y-82709580D01*
X43801785Y-82709580D02*
X43849404Y-82614342D01*
X43849404Y-82614342D02*
X43849404Y-82423866D01*
X43849404Y-82423866D02*
X43801785Y-82328628D01*
X43801785Y-82328628D02*
X43754166Y-82281009D01*
X43754166Y-82281009D02*
X43658928Y-82233390D01*
X62397147Y-42839541D02*
X61920956Y-43172874D01*
X62397147Y-43410969D02*
X61397147Y-43410969D01*
X61397147Y-43410969D02*
X61397147Y-43030017D01*
X61397147Y-43030017D02*
X61444766Y-42934779D01*
X61444766Y-42934779D02*
X61492385Y-42887160D01*
X61492385Y-42887160D02*
X61587623Y-42839541D01*
X61587623Y-42839541D02*
X61730480Y-42839541D01*
X61730480Y-42839541D02*
X61825718Y-42887160D01*
X61825718Y-42887160D02*
X61873337Y-42934779D01*
X61873337Y-42934779D02*
X61920956Y-43030017D01*
X61920956Y-43030017D02*
X61920956Y-43410969D01*
X62397147Y-41887160D02*
X62397147Y-42458588D01*
X62397147Y-42172874D02*
X61397147Y-42172874D01*
X61397147Y-42172874D02*
X61540004Y-42268112D01*
X61540004Y-42268112D02*
X61635242Y-42363350D01*
X61635242Y-42363350D02*
X61682861Y-42458588D01*
X61492385Y-41506207D02*
X61444766Y-41458588D01*
X61444766Y-41458588D02*
X61397147Y-41363350D01*
X61397147Y-41363350D02*
X61397147Y-41125255D01*
X61397147Y-41125255D02*
X61444766Y-41030017D01*
X61444766Y-41030017D02*
X61492385Y-40982398D01*
X61492385Y-40982398D02*
X61587623Y-40934779D01*
X61587623Y-40934779D02*
X61682861Y-40934779D01*
X61682861Y-40934779D02*
X61825718Y-40982398D01*
X61825718Y-40982398D02*
X62397147Y-41553826D01*
X62397147Y-41553826D02*
X62397147Y-40934779D01*
X59473095Y-56454819D02*
X59473095Y-57264342D01*
X59473095Y-57264342D02*
X59520714Y-57359580D01*
X59520714Y-57359580D02*
X59568333Y-57407200D01*
X59568333Y-57407200D02*
X59663571Y-57454819D01*
X59663571Y-57454819D02*
X59854047Y-57454819D01*
X59854047Y-57454819D02*
X59949285Y-57407200D01*
X59949285Y-57407200D02*
X59996904Y-57359580D01*
X59996904Y-57359580D02*
X60044523Y-57264342D01*
X60044523Y-57264342D02*
X60044523Y-56454819D01*
X60949285Y-56788152D02*
X60949285Y-57454819D01*
X60711190Y-56407200D02*
X60473095Y-57121485D01*
X60473095Y-57121485D02*
X61092142Y-57121485D01*
X68126666Y-88974819D02*
X68126666Y-89689104D01*
X68126666Y-89689104D02*
X68079047Y-89831961D01*
X68079047Y-89831961D02*
X67983809Y-89927200D01*
X67983809Y-89927200D02*
X67840952Y-89974819D01*
X67840952Y-89974819D02*
X67745714Y-89974819D01*
X69126666Y-89974819D02*
X68555238Y-89974819D01*
X68840952Y-89974819D02*
X68840952Y-88974819D01*
X68840952Y-88974819D02*
X68745714Y-89117676D01*
X68745714Y-89117676D02*
X68650476Y-89212914D01*
X68650476Y-89212914D02*
X68555238Y-89260533D01*
X59769642Y-79929819D02*
X59436309Y-79453628D01*
X59198214Y-79929819D02*
X59198214Y-78929819D01*
X59198214Y-78929819D02*
X59579166Y-78929819D01*
X59579166Y-78929819D02*
X59674404Y-78977438D01*
X59674404Y-78977438D02*
X59722023Y-79025057D01*
X59722023Y-79025057D02*
X59769642Y-79120295D01*
X59769642Y-79120295D02*
X59769642Y-79263152D01*
X59769642Y-79263152D02*
X59722023Y-79358390D01*
X59722023Y-79358390D02*
X59674404Y-79406009D01*
X59674404Y-79406009D02*
X59579166Y-79453628D01*
X59579166Y-79453628D02*
X59198214Y-79453628D01*
X60150595Y-79025057D02*
X60198214Y-78977438D01*
X60198214Y-78977438D02*
X60293452Y-78929819D01*
X60293452Y-78929819D02*
X60531547Y-78929819D01*
X60531547Y-78929819D02*
X60626785Y-78977438D01*
X60626785Y-78977438D02*
X60674404Y-79025057D01*
X60674404Y-79025057D02*
X60722023Y-79120295D01*
X60722023Y-79120295D02*
X60722023Y-79215533D01*
X60722023Y-79215533D02*
X60674404Y-79358390D01*
X60674404Y-79358390D02*
X60102976Y-79929819D01*
X60102976Y-79929819D02*
X60722023Y-79929819D01*
X61579166Y-78929819D02*
X61388690Y-78929819D01*
X61388690Y-78929819D02*
X61293452Y-78977438D01*
X61293452Y-78977438D02*
X61245833Y-79025057D01*
X61245833Y-79025057D02*
X61150595Y-79167914D01*
X61150595Y-79167914D02*
X61102976Y-79358390D01*
X61102976Y-79358390D02*
X61102976Y-79739342D01*
X61102976Y-79739342D02*
X61150595Y-79834580D01*
X61150595Y-79834580D02*
X61198214Y-79882200D01*
X61198214Y-79882200D02*
X61293452Y-79929819D01*
X61293452Y-79929819D02*
X61483928Y-79929819D01*
X61483928Y-79929819D02*
X61579166Y-79882200D01*
X61579166Y-79882200D02*
X61626785Y-79834580D01*
X61626785Y-79834580D02*
X61674404Y-79739342D01*
X61674404Y-79739342D02*
X61674404Y-79501247D01*
X61674404Y-79501247D02*
X61626785Y-79406009D01*
X61626785Y-79406009D02*
X61579166Y-79358390D01*
X61579166Y-79358390D02*
X61483928Y-79310771D01*
X61483928Y-79310771D02*
X61293452Y-79310771D01*
X61293452Y-79310771D02*
X61198214Y-79358390D01*
X61198214Y-79358390D02*
X61150595Y-79406009D01*
X61150595Y-79406009D02*
X61102976Y-79501247D01*
X36289090Y-41453167D02*
X35955757Y-40976976D01*
X35717662Y-41453167D02*
X35717662Y-40453167D01*
X35717662Y-40453167D02*
X36098614Y-40453167D01*
X36098614Y-40453167D02*
X36193852Y-40500786D01*
X36193852Y-40500786D02*
X36241471Y-40548405D01*
X36241471Y-40548405D02*
X36289090Y-40643643D01*
X36289090Y-40643643D02*
X36289090Y-40786500D01*
X36289090Y-40786500D02*
X36241471Y-40881738D01*
X36241471Y-40881738D02*
X36193852Y-40929357D01*
X36193852Y-40929357D02*
X36098614Y-40976976D01*
X36098614Y-40976976D02*
X35717662Y-40976976D01*
X36670043Y-40548405D02*
X36717662Y-40500786D01*
X36717662Y-40500786D02*
X36812900Y-40453167D01*
X36812900Y-40453167D02*
X37050995Y-40453167D01*
X37050995Y-40453167D02*
X37146233Y-40500786D01*
X37146233Y-40500786D02*
X37193852Y-40548405D01*
X37193852Y-40548405D02*
X37241471Y-40643643D01*
X37241471Y-40643643D02*
X37241471Y-40738881D01*
X37241471Y-40738881D02*
X37193852Y-40881738D01*
X37193852Y-40881738D02*
X36622424Y-41453167D01*
X36622424Y-41453167D02*
X37241471Y-41453167D01*
X38098614Y-40786500D02*
X38098614Y-41453167D01*
X37860519Y-40405548D02*
X37622424Y-41119833D01*
X37622424Y-41119833D02*
X38241471Y-41119833D01*
X30954819Y-64666666D02*
X30478628Y-64999999D01*
X30954819Y-65238094D02*
X29954819Y-65238094D01*
X29954819Y-65238094D02*
X29954819Y-64857142D01*
X29954819Y-64857142D02*
X30002438Y-64761904D01*
X30002438Y-64761904D02*
X30050057Y-64714285D01*
X30050057Y-64714285D02*
X30145295Y-64666666D01*
X30145295Y-64666666D02*
X30288152Y-64666666D01*
X30288152Y-64666666D02*
X30383390Y-64714285D01*
X30383390Y-64714285D02*
X30431009Y-64761904D01*
X30431009Y-64761904D02*
X30478628Y-64857142D01*
X30478628Y-64857142D02*
X30478628Y-65238094D01*
X29954819Y-64333332D02*
X29954819Y-63666666D01*
X29954819Y-63666666D02*
X30954819Y-64095237D01*
X36349755Y-78112994D02*
X36016422Y-77636803D01*
X35778327Y-78112994D02*
X35778327Y-77112994D01*
X35778327Y-77112994D02*
X36159279Y-77112994D01*
X36159279Y-77112994D02*
X36254517Y-77160613D01*
X36254517Y-77160613D02*
X36302136Y-77208232D01*
X36302136Y-77208232D02*
X36349755Y-77303470D01*
X36349755Y-77303470D02*
X36349755Y-77446327D01*
X36349755Y-77446327D02*
X36302136Y-77541565D01*
X36302136Y-77541565D02*
X36254517Y-77589184D01*
X36254517Y-77589184D02*
X36159279Y-77636803D01*
X36159279Y-77636803D02*
X35778327Y-77636803D01*
X37206898Y-77112994D02*
X37016422Y-77112994D01*
X37016422Y-77112994D02*
X36921184Y-77160613D01*
X36921184Y-77160613D02*
X36873565Y-77208232D01*
X36873565Y-77208232D02*
X36778327Y-77351089D01*
X36778327Y-77351089D02*
X36730708Y-77541565D01*
X36730708Y-77541565D02*
X36730708Y-77922517D01*
X36730708Y-77922517D02*
X36778327Y-78017755D01*
X36778327Y-78017755D02*
X36825946Y-78065375D01*
X36825946Y-78065375D02*
X36921184Y-78112994D01*
X36921184Y-78112994D02*
X37111660Y-78112994D01*
X37111660Y-78112994D02*
X37206898Y-78065375D01*
X37206898Y-78065375D02*
X37254517Y-78017755D01*
X37254517Y-78017755D02*
X37302136Y-77922517D01*
X37302136Y-77922517D02*
X37302136Y-77684422D01*
X37302136Y-77684422D02*
X37254517Y-77589184D01*
X37254517Y-77589184D02*
X37206898Y-77541565D01*
X37206898Y-77541565D02*
X37111660Y-77493946D01*
X37111660Y-77493946D02*
X36921184Y-77493946D01*
X36921184Y-77493946D02*
X36825946Y-77541565D01*
X36825946Y-77541565D02*
X36778327Y-77589184D01*
X36778327Y-77589184D02*
X36730708Y-77684422D01*
X36758895Y-71702692D02*
X36425562Y-71226501D01*
X36187467Y-71702692D02*
X36187467Y-70702692D01*
X36187467Y-70702692D02*
X36568419Y-70702692D01*
X36568419Y-70702692D02*
X36663657Y-70750311D01*
X36663657Y-70750311D02*
X36711276Y-70797930D01*
X36711276Y-70797930D02*
X36758895Y-70893168D01*
X36758895Y-70893168D02*
X36758895Y-71036025D01*
X36758895Y-71036025D02*
X36711276Y-71131263D01*
X36711276Y-71131263D02*
X36663657Y-71178882D01*
X36663657Y-71178882D02*
X36568419Y-71226501D01*
X36568419Y-71226501D02*
X36187467Y-71226501D01*
X37330324Y-71131263D02*
X37235086Y-71083644D01*
X37235086Y-71083644D02*
X37187467Y-71036025D01*
X37187467Y-71036025D02*
X37139848Y-70940787D01*
X37139848Y-70940787D02*
X37139848Y-70893168D01*
X37139848Y-70893168D02*
X37187467Y-70797930D01*
X37187467Y-70797930D02*
X37235086Y-70750311D01*
X37235086Y-70750311D02*
X37330324Y-70702692D01*
X37330324Y-70702692D02*
X37520800Y-70702692D01*
X37520800Y-70702692D02*
X37616038Y-70750311D01*
X37616038Y-70750311D02*
X37663657Y-70797930D01*
X37663657Y-70797930D02*
X37711276Y-70893168D01*
X37711276Y-70893168D02*
X37711276Y-70940787D01*
X37711276Y-70940787D02*
X37663657Y-71036025D01*
X37663657Y-71036025D02*
X37616038Y-71083644D01*
X37616038Y-71083644D02*
X37520800Y-71131263D01*
X37520800Y-71131263D02*
X37330324Y-71131263D01*
X37330324Y-71131263D02*
X37235086Y-71178882D01*
X37235086Y-71178882D02*
X37187467Y-71226501D01*
X37187467Y-71226501D02*
X37139848Y-71321739D01*
X37139848Y-71321739D02*
X37139848Y-71512215D01*
X37139848Y-71512215D02*
X37187467Y-71607453D01*
X37187467Y-71607453D02*
X37235086Y-71655073D01*
X37235086Y-71655073D02*
X37330324Y-71702692D01*
X37330324Y-71702692D02*
X37520800Y-71702692D01*
X37520800Y-71702692D02*
X37616038Y-71655073D01*
X37616038Y-71655073D02*
X37663657Y-71607453D01*
X37663657Y-71607453D02*
X37711276Y-71512215D01*
X37711276Y-71512215D02*
X37711276Y-71321739D01*
X37711276Y-71321739D02*
X37663657Y-71226501D01*
X37663657Y-71226501D02*
X37616038Y-71178882D01*
X37616038Y-71178882D02*
X37520800Y-71131263D01*
X36805780Y-65182404D02*
X36472447Y-64706213D01*
X36234352Y-65182404D02*
X36234352Y-64182404D01*
X36234352Y-64182404D02*
X36615304Y-64182404D01*
X36615304Y-64182404D02*
X36710542Y-64230023D01*
X36710542Y-64230023D02*
X36758161Y-64277642D01*
X36758161Y-64277642D02*
X36805780Y-64372880D01*
X36805780Y-64372880D02*
X36805780Y-64515737D01*
X36805780Y-64515737D02*
X36758161Y-64610975D01*
X36758161Y-64610975D02*
X36710542Y-64658594D01*
X36710542Y-64658594D02*
X36615304Y-64706213D01*
X36615304Y-64706213D02*
X36234352Y-64706213D01*
X37281971Y-65182404D02*
X37472447Y-65182404D01*
X37472447Y-65182404D02*
X37567685Y-65134785D01*
X37567685Y-65134785D02*
X37615304Y-65087165D01*
X37615304Y-65087165D02*
X37710542Y-64944308D01*
X37710542Y-64944308D02*
X37758161Y-64753832D01*
X37758161Y-64753832D02*
X37758161Y-64372880D01*
X37758161Y-64372880D02*
X37710542Y-64277642D01*
X37710542Y-64277642D02*
X37662923Y-64230023D01*
X37662923Y-64230023D02*
X37567685Y-64182404D01*
X37567685Y-64182404D02*
X37377209Y-64182404D01*
X37377209Y-64182404D02*
X37281971Y-64230023D01*
X37281971Y-64230023D02*
X37234352Y-64277642D01*
X37234352Y-64277642D02*
X37186733Y-64372880D01*
X37186733Y-64372880D02*
X37186733Y-64610975D01*
X37186733Y-64610975D02*
X37234352Y-64706213D01*
X37234352Y-64706213D02*
X37281971Y-64753832D01*
X37281971Y-64753832D02*
X37377209Y-64801451D01*
X37377209Y-64801451D02*
X37567685Y-64801451D01*
X37567685Y-64801451D02*
X37662923Y-64753832D01*
X37662923Y-64753832D02*
X37710542Y-64706213D01*
X37710542Y-64706213D02*
X37758161Y-64610975D01*
X31954819Y-96666666D02*
X31478628Y-96999999D01*
X31954819Y-97238094D02*
X30954819Y-97238094D01*
X30954819Y-97238094D02*
X30954819Y-96857142D01*
X30954819Y-96857142D02*
X31002438Y-96761904D01*
X31002438Y-96761904D02*
X31050057Y-96714285D01*
X31050057Y-96714285D02*
X31145295Y-96666666D01*
X31145295Y-96666666D02*
X31288152Y-96666666D01*
X31288152Y-96666666D02*
X31383390Y-96714285D01*
X31383390Y-96714285D02*
X31431009Y-96761904D01*
X31431009Y-96761904D02*
X31478628Y-96857142D01*
X31478628Y-96857142D02*
X31478628Y-97238094D01*
X31954819Y-95714285D02*
X31954819Y-96285713D01*
X31954819Y-95999999D02*
X30954819Y-95999999D01*
X30954819Y-95999999D02*
X31097676Y-96095237D01*
X31097676Y-96095237D02*
X31192914Y-96190475D01*
X31192914Y-96190475D02*
X31240533Y-96285713D01*
X27172243Y-82641234D02*
X27172243Y-81641234D01*
X27172243Y-81641234D02*
X27410338Y-81641234D01*
X27410338Y-81641234D02*
X27553195Y-81688853D01*
X27553195Y-81688853D02*
X27648433Y-81784091D01*
X27648433Y-81784091D02*
X27696052Y-81879329D01*
X27696052Y-81879329D02*
X27743671Y-82069805D01*
X27743671Y-82069805D02*
X27743671Y-82212662D01*
X27743671Y-82212662D02*
X27696052Y-82403138D01*
X27696052Y-82403138D02*
X27648433Y-82498376D01*
X27648433Y-82498376D02*
X27553195Y-82593615D01*
X27553195Y-82593615D02*
X27410338Y-82641234D01*
X27410338Y-82641234D02*
X27172243Y-82641234D01*
X28029386Y-81641234D02*
X28600814Y-81641234D01*
X28315100Y-82641234D02*
X28315100Y-81641234D01*
X28886529Y-81736472D02*
X28934148Y-81688853D01*
X28934148Y-81688853D02*
X29029386Y-81641234D01*
X29029386Y-81641234D02*
X29267481Y-81641234D01*
X29267481Y-81641234D02*
X29362719Y-81688853D01*
X29362719Y-81688853D02*
X29410338Y-81736472D01*
X29410338Y-81736472D02*
X29457957Y-81831710D01*
X29457957Y-81831710D02*
X29457957Y-81926948D01*
X29457957Y-81926948D02*
X29410338Y-82069805D01*
X29410338Y-82069805D02*
X28838910Y-82641234D01*
X28838910Y-82641234D02*
X29457957Y-82641234D01*
X30454819Y-97666666D02*
X29978628Y-97999999D01*
X30454819Y-98238094D02*
X29454819Y-98238094D01*
X29454819Y-98238094D02*
X29454819Y-97857142D01*
X29454819Y-97857142D02*
X29502438Y-97761904D01*
X29502438Y-97761904D02*
X29550057Y-97714285D01*
X29550057Y-97714285D02*
X29645295Y-97666666D01*
X29645295Y-97666666D02*
X29788152Y-97666666D01*
X29788152Y-97666666D02*
X29883390Y-97714285D01*
X29883390Y-97714285D02*
X29931009Y-97761904D01*
X29931009Y-97761904D02*
X29978628Y-97857142D01*
X29978628Y-97857142D02*
X29978628Y-98238094D01*
X29454819Y-97333332D02*
X29454819Y-96714285D01*
X29454819Y-96714285D02*
X29835771Y-97047618D01*
X29835771Y-97047618D02*
X29835771Y-96904761D01*
X29835771Y-96904761D02*
X29883390Y-96809523D01*
X29883390Y-96809523D02*
X29931009Y-96761904D01*
X29931009Y-96761904D02*
X30026247Y-96714285D01*
X30026247Y-96714285D02*
X30264342Y-96714285D01*
X30264342Y-96714285D02*
X30359580Y-96761904D01*
X30359580Y-96761904D02*
X30407200Y-96809523D01*
X30407200Y-96809523D02*
X30454819Y-96904761D01*
X30454819Y-96904761D02*
X30454819Y-97190475D01*
X30454819Y-97190475D02*
X30407200Y-97285713D01*
X30407200Y-97285713D02*
X30359580Y-97333332D01*
X30995049Y-51540200D02*
X30518858Y-51873533D01*
X30995049Y-52111628D02*
X29995049Y-52111628D01*
X29995049Y-52111628D02*
X29995049Y-51730676D01*
X29995049Y-51730676D02*
X30042668Y-51635438D01*
X30042668Y-51635438D02*
X30090287Y-51587819D01*
X30090287Y-51587819D02*
X30185525Y-51540200D01*
X30185525Y-51540200D02*
X30328382Y-51540200D01*
X30328382Y-51540200D02*
X30423620Y-51587819D01*
X30423620Y-51587819D02*
X30471239Y-51635438D01*
X30471239Y-51635438D02*
X30518858Y-51730676D01*
X30518858Y-51730676D02*
X30518858Y-52111628D01*
X30995049Y-50587819D02*
X30995049Y-51159247D01*
X30995049Y-50873533D02*
X29995049Y-50873533D01*
X29995049Y-50873533D02*
X30137906Y-50968771D01*
X30137906Y-50968771D02*
X30233144Y-51064009D01*
X30233144Y-51064009D02*
X30280763Y-51159247D01*
X29995049Y-49968771D02*
X29995049Y-49873533D01*
X29995049Y-49873533D02*
X30042668Y-49778295D01*
X30042668Y-49778295D02*
X30090287Y-49730676D01*
X30090287Y-49730676D02*
X30185525Y-49683057D01*
X30185525Y-49683057D02*
X30376001Y-49635438D01*
X30376001Y-49635438D02*
X30614096Y-49635438D01*
X30614096Y-49635438D02*
X30804572Y-49683057D01*
X30804572Y-49683057D02*
X30899810Y-49730676D01*
X30899810Y-49730676D02*
X30947430Y-49778295D01*
X30947430Y-49778295D02*
X30995049Y-49873533D01*
X30995049Y-49873533D02*
X30995049Y-49968771D01*
X30995049Y-49968771D02*
X30947430Y-50064009D01*
X30947430Y-50064009D02*
X30899810Y-50111628D01*
X30899810Y-50111628D02*
X30804572Y-50159247D01*
X30804572Y-50159247D02*
X30614096Y-50206866D01*
X30614096Y-50206866D02*
X30376001Y-50206866D01*
X30376001Y-50206866D02*
X30185525Y-50159247D01*
X30185525Y-50159247D02*
X30090287Y-50111628D01*
X30090287Y-50111628D02*
X30042668Y-50064009D01*
X30042668Y-50064009D02*
X29995049Y-49968771D01*
X45769642Y-40454819D02*
X45436309Y-39978628D01*
X45198214Y-40454819D02*
X45198214Y-39454819D01*
X45198214Y-39454819D02*
X45579166Y-39454819D01*
X45579166Y-39454819D02*
X45674404Y-39502438D01*
X45674404Y-39502438D02*
X45722023Y-39550057D01*
X45722023Y-39550057D02*
X45769642Y-39645295D01*
X45769642Y-39645295D02*
X45769642Y-39788152D01*
X45769642Y-39788152D02*
X45722023Y-39883390D01*
X45722023Y-39883390D02*
X45674404Y-39931009D01*
X45674404Y-39931009D02*
X45579166Y-39978628D01*
X45579166Y-39978628D02*
X45198214Y-39978628D01*
X46150595Y-39550057D02*
X46198214Y-39502438D01*
X46198214Y-39502438D02*
X46293452Y-39454819D01*
X46293452Y-39454819D02*
X46531547Y-39454819D01*
X46531547Y-39454819D02*
X46626785Y-39502438D01*
X46626785Y-39502438D02*
X46674404Y-39550057D01*
X46674404Y-39550057D02*
X46722023Y-39645295D01*
X46722023Y-39645295D02*
X46722023Y-39740533D01*
X46722023Y-39740533D02*
X46674404Y-39883390D01*
X46674404Y-39883390D02*
X46102976Y-40454819D01*
X46102976Y-40454819D02*
X46722023Y-40454819D01*
X47626785Y-39454819D02*
X47150595Y-39454819D01*
X47150595Y-39454819D02*
X47102976Y-39931009D01*
X47102976Y-39931009D02*
X47150595Y-39883390D01*
X47150595Y-39883390D02*
X47245833Y-39835771D01*
X47245833Y-39835771D02*
X47483928Y-39835771D01*
X47483928Y-39835771D02*
X47579166Y-39883390D01*
X47579166Y-39883390D02*
X47626785Y-39931009D01*
X47626785Y-39931009D02*
X47674404Y-40026247D01*
X47674404Y-40026247D02*
X47674404Y-40264342D01*
X47674404Y-40264342D02*
X47626785Y-40359580D01*
X47626785Y-40359580D02*
X47579166Y-40407200D01*
X47579166Y-40407200D02*
X47483928Y-40454819D01*
X47483928Y-40454819D02*
X47245833Y-40454819D01*
X47245833Y-40454819D02*
X47150595Y-40407200D01*
X47150595Y-40407200D02*
X47102976Y-40359580D01*
X29423319Y-64900812D02*
X28423319Y-64900812D01*
X28423319Y-64900812D02*
X28423319Y-64662717D01*
X28423319Y-64662717D02*
X28470938Y-64519860D01*
X28470938Y-64519860D02*
X28566176Y-64424622D01*
X28566176Y-64424622D02*
X28661414Y-64377003D01*
X28661414Y-64377003D02*
X28851890Y-64329384D01*
X28851890Y-64329384D02*
X28994747Y-64329384D01*
X28994747Y-64329384D02*
X29185223Y-64377003D01*
X29185223Y-64377003D02*
X29280461Y-64424622D01*
X29280461Y-64424622D02*
X29375700Y-64519860D01*
X29375700Y-64519860D02*
X29423319Y-64662717D01*
X29423319Y-64662717D02*
X29423319Y-64900812D01*
X28423319Y-64043669D02*
X28423319Y-63472241D01*
X29423319Y-63757955D02*
X28423319Y-63757955D01*
X28423319Y-63234145D02*
X28423319Y-62615098D01*
X28423319Y-62615098D02*
X28804271Y-62948431D01*
X28804271Y-62948431D02*
X28804271Y-62805574D01*
X28804271Y-62805574D02*
X28851890Y-62710336D01*
X28851890Y-62710336D02*
X28899509Y-62662717D01*
X28899509Y-62662717D02*
X28994747Y-62615098D01*
X28994747Y-62615098D02*
X29232842Y-62615098D01*
X29232842Y-62615098D02*
X29328080Y-62662717D01*
X29328080Y-62662717D02*
X29375700Y-62710336D01*
X29375700Y-62710336D02*
X29423319Y-62805574D01*
X29423319Y-62805574D02*
X29423319Y-63091288D01*
X29423319Y-63091288D02*
X29375700Y-63186526D01*
X29375700Y-63186526D02*
X29328080Y-63234145D01*
X58112707Y-68914951D02*
X57636516Y-69248284D01*
X58112707Y-69486379D02*
X57112707Y-69486379D01*
X57112707Y-69486379D02*
X57112707Y-69105427D01*
X57112707Y-69105427D02*
X57160326Y-69010189D01*
X57160326Y-69010189D02*
X57207945Y-68962570D01*
X57207945Y-68962570D02*
X57303183Y-68914951D01*
X57303183Y-68914951D02*
X57446040Y-68914951D01*
X57446040Y-68914951D02*
X57541278Y-68962570D01*
X57541278Y-68962570D02*
X57588897Y-69010189D01*
X57588897Y-69010189D02*
X57636516Y-69105427D01*
X57636516Y-69105427D02*
X57636516Y-69486379D01*
X57446040Y-68057808D02*
X58112707Y-68057808D01*
X57065088Y-68295903D02*
X57779373Y-68533998D01*
X57779373Y-68533998D02*
X57779373Y-67914951D01*
X35104451Y-52230282D02*
X34771118Y-51754091D01*
X34533023Y-52230282D02*
X34533023Y-51230282D01*
X34533023Y-51230282D02*
X34913975Y-51230282D01*
X34913975Y-51230282D02*
X35009213Y-51277901D01*
X35009213Y-51277901D02*
X35056832Y-51325520D01*
X35056832Y-51325520D02*
X35104451Y-51420758D01*
X35104451Y-51420758D02*
X35104451Y-51563615D01*
X35104451Y-51563615D02*
X35056832Y-51658853D01*
X35056832Y-51658853D02*
X35009213Y-51706472D01*
X35009213Y-51706472D02*
X34913975Y-51754091D01*
X34913975Y-51754091D02*
X34533023Y-51754091D01*
X35485404Y-51325520D02*
X35533023Y-51277901D01*
X35533023Y-51277901D02*
X35628261Y-51230282D01*
X35628261Y-51230282D02*
X35866356Y-51230282D01*
X35866356Y-51230282D02*
X35961594Y-51277901D01*
X35961594Y-51277901D02*
X36009213Y-51325520D01*
X36009213Y-51325520D02*
X36056832Y-51420758D01*
X36056832Y-51420758D02*
X36056832Y-51515996D01*
X36056832Y-51515996D02*
X36009213Y-51658853D01*
X36009213Y-51658853D02*
X35437785Y-52230282D01*
X35437785Y-52230282D02*
X36056832Y-52230282D01*
X37009213Y-52230282D02*
X36437785Y-52230282D01*
X36723499Y-52230282D02*
X36723499Y-51230282D01*
X36723499Y-51230282D02*
X36628261Y-51373139D01*
X36628261Y-51373139D02*
X36533023Y-51468377D01*
X36533023Y-51468377D02*
X36437785Y-51515996D01*
X27047078Y-43780692D02*
X27047078Y-42780692D01*
X27047078Y-42780692D02*
X27285173Y-42780692D01*
X27285173Y-42780692D02*
X27428030Y-42828311D01*
X27428030Y-42828311D02*
X27523268Y-42923549D01*
X27523268Y-42923549D02*
X27570887Y-43018787D01*
X27570887Y-43018787D02*
X27618506Y-43209263D01*
X27618506Y-43209263D02*
X27618506Y-43352120D01*
X27618506Y-43352120D02*
X27570887Y-43542596D01*
X27570887Y-43542596D02*
X27523268Y-43637834D01*
X27523268Y-43637834D02*
X27428030Y-43733073D01*
X27428030Y-43733073D02*
X27285173Y-43780692D01*
X27285173Y-43780692D02*
X27047078Y-43780692D01*
X27904221Y-42780692D02*
X28475649Y-42780692D01*
X28189935Y-43780692D02*
X28189935Y-42780692D01*
X29285173Y-42780692D02*
X28808983Y-42780692D01*
X28808983Y-42780692D02*
X28761364Y-43256882D01*
X28761364Y-43256882D02*
X28808983Y-43209263D01*
X28808983Y-43209263D02*
X28904221Y-43161644D01*
X28904221Y-43161644D02*
X29142316Y-43161644D01*
X29142316Y-43161644D02*
X29237554Y-43209263D01*
X29237554Y-43209263D02*
X29285173Y-43256882D01*
X29285173Y-43256882D02*
X29332792Y-43352120D01*
X29332792Y-43352120D02*
X29332792Y-43590215D01*
X29332792Y-43590215D02*
X29285173Y-43685453D01*
X29285173Y-43685453D02*
X29237554Y-43733073D01*
X29237554Y-43733073D02*
X29142316Y-43780692D01*
X29142316Y-43780692D02*
X28904221Y-43780692D01*
X28904221Y-43780692D02*
X28808983Y-43733073D01*
X28808983Y-43733073D02*
X28761364Y-43685453D01*
X28535638Y-51680470D02*
X27535638Y-51680470D01*
X27535638Y-51680470D02*
X27535638Y-51442375D01*
X27535638Y-51442375D02*
X27583257Y-51299518D01*
X27583257Y-51299518D02*
X27678495Y-51204280D01*
X27678495Y-51204280D02*
X27773733Y-51156661D01*
X27773733Y-51156661D02*
X27964209Y-51109042D01*
X27964209Y-51109042D02*
X28107066Y-51109042D01*
X28107066Y-51109042D02*
X28297542Y-51156661D01*
X28297542Y-51156661D02*
X28392780Y-51204280D01*
X28392780Y-51204280D02*
X28488019Y-51299518D01*
X28488019Y-51299518D02*
X28535638Y-51442375D01*
X28535638Y-51442375D02*
X28535638Y-51680470D01*
X27535638Y-50823327D02*
X27535638Y-50251899D01*
X28535638Y-50537613D02*
X27535638Y-50537613D01*
X27868971Y-49489994D02*
X28535638Y-49489994D01*
X27488019Y-49728089D02*
X28202304Y-49966184D01*
X28202304Y-49966184D02*
X28202304Y-49347137D01*
X36343694Y-95608121D02*
X36010361Y-95131930D01*
X35772266Y-95608121D02*
X35772266Y-94608121D01*
X35772266Y-94608121D02*
X36153218Y-94608121D01*
X36153218Y-94608121D02*
X36248456Y-94655740D01*
X36248456Y-94655740D02*
X36296075Y-94703359D01*
X36296075Y-94703359D02*
X36343694Y-94798597D01*
X36343694Y-94798597D02*
X36343694Y-94941454D01*
X36343694Y-94941454D02*
X36296075Y-95036692D01*
X36296075Y-95036692D02*
X36248456Y-95084311D01*
X36248456Y-95084311D02*
X36153218Y-95131930D01*
X36153218Y-95131930D02*
X35772266Y-95131930D01*
X36724647Y-94703359D02*
X36772266Y-94655740D01*
X36772266Y-94655740D02*
X36867504Y-94608121D01*
X36867504Y-94608121D02*
X37105599Y-94608121D01*
X37105599Y-94608121D02*
X37200837Y-94655740D01*
X37200837Y-94655740D02*
X37248456Y-94703359D01*
X37248456Y-94703359D02*
X37296075Y-94798597D01*
X37296075Y-94798597D02*
X37296075Y-94893835D01*
X37296075Y-94893835D02*
X37248456Y-95036692D01*
X37248456Y-95036692D02*
X36677028Y-95608121D01*
X36677028Y-95608121D02*
X37296075Y-95608121D01*
X30945429Y-38468385D02*
X30469238Y-38801718D01*
X30945429Y-39039813D02*
X29945429Y-39039813D01*
X29945429Y-39039813D02*
X29945429Y-38658861D01*
X29945429Y-38658861D02*
X29993048Y-38563623D01*
X29993048Y-38563623D02*
X30040667Y-38516004D01*
X30040667Y-38516004D02*
X30135905Y-38468385D01*
X30135905Y-38468385D02*
X30278762Y-38468385D01*
X30278762Y-38468385D02*
X30374000Y-38516004D01*
X30374000Y-38516004D02*
X30421619Y-38563623D01*
X30421619Y-38563623D02*
X30469238Y-38658861D01*
X30469238Y-38658861D02*
X30469238Y-39039813D01*
X30040667Y-38087432D02*
X29993048Y-38039813D01*
X29993048Y-38039813D02*
X29945429Y-37944575D01*
X29945429Y-37944575D02*
X29945429Y-37706480D01*
X29945429Y-37706480D02*
X29993048Y-37611242D01*
X29993048Y-37611242D02*
X30040667Y-37563623D01*
X30040667Y-37563623D02*
X30135905Y-37516004D01*
X30135905Y-37516004D02*
X30231143Y-37516004D01*
X30231143Y-37516004D02*
X30374000Y-37563623D01*
X30374000Y-37563623D02*
X30945429Y-38135051D01*
X30945429Y-38135051D02*
X30945429Y-37516004D01*
X29945429Y-37182670D02*
X29945429Y-36563623D01*
X29945429Y-36563623D02*
X30326381Y-36896956D01*
X30326381Y-36896956D02*
X30326381Y-36754099D01*
X30326381Y-36754099D02*
X30374000Y-36658861D01*
X30374000Y-36658861D02*
X30421619Y-36611242D01*
X30421619Y-36611242D02*
X30516857Y-36563623D01*
X30516857Y-36563623D02*
X30754952Y-36563623D01*
X30754952Y-36563623D02*
X30850190Y-36611242D01*
X30850190Y-36611242D02*
X30897810Y-36658861D01*
X30897810Y-36658861D02*
X30945429Y-36754099D01*
X30945429Y-36754099D02*
X30945429Y-37039813D01*
X30945429Y-37039813D02*
X30897810Y-37135051D01*
X30897810Y-37135051D02*
X30850190Y-37182670D01*
X34191820Y-80913366D02*
X33858487Y-80437175D01*
X33620392Y-80913366D02*
X33620392Y-79913366D01*
X33620392Y-79913366D02*
X34001344Y-79913366D01*
X34001344Y-79913366D02*
X34096582Y-79960985D01*
X34096582Y-79960985D02*
X34144201Y-80008604D01*
X34144201Y-80008604D02*
X34191820Y-80103842D01*
X34191820Y-80103842D02*
X34191820Y-80246699D01*
X34191820Y-80246699D02*
X34144201Y-80341937D01*
X34144201Y-80341937D02*
X34096582Y-80389556D01*
X34096582Y-80389556D02*
X34001344Y-80437175D01*
X34001344Y-80437175D02*
X33620392Y-80437175D01*
X35096582Y-79913366D02*
X34620392Y-79913366D01*
X34620392Y-79913366D02*
X34572773Y-80389556D01*
X34572773Y-80389556D02*
X34620392Y-80341937D01*
X34620392Y-80341937D02*
X34715630Y-80294318D01*
X34715630Y-80294318D02*
X34953725Y-80294318D01*
X34953725Y-80294318D02*
X35048963Y-80341937D01*
X35048963Y-80341937D02*
X35096582Y-80389556D01*
X35096582Y-80389556D02*
X35144201Y-80484794D01*
X35144201Y-80484794D02*
X35144201Y-80722889D01*
X35144201Y-80722889D02*
X35096582Y-80818127D01*
X35096582Y-80818127D02*
X35048963Y-80865747D01*
X35048963Y-80865747D02*
X34953725Y-80913366D01*
X34953725Y-80913366D02*
X34715630Y-80913366D01*
X34715630Y-80913366D02*
X34620392Y-80865747D01*
X34620392Y-80865747D02*
X34572773Y-80818127D01*
D11*
X46265000Y-53814564D02*
X46265000Y-53360436D01*
X47735000Y-53814564D02*
X47735000Y-53360436D01*
X27265000Y-92200000D02*
X27265000Y-94485000D01*
X28735000Y-94485000D02*
X28735000Y-92200000D01*
X27265000Y-94485000D02*
X28735000Y-94485000D01*
X30952927Y-32486227D02*
X30498799Y-32486227D01*
X30952927Y-31016227D02*
X30498799Y-31016227D01*
X36860436Y-57265000D02*
X37314564Y-57265000D01*
X36860436Y-58735000D02*
X37314564Y-58735000D01*
D12*
X27100000Y-73133332D02*
X27100000Y-78133332D01*
X27100000Y-78133332D02*
X29600000Y-78133332D01*
X29600000Y-72633332D02*
X32700000Y-72633332D01*
X29600000Y-73133332D02*
X27100000Y-73133332D01*
X29600000Y-73133332D02*
X29600000Y-72633332D01*
X29600000Y-78133332D02*
X29600000Y-73133332D01*
X29600000Y-78633332D02*
X29600000Y-78133332D01*
X29600000Y-78633332D02*
X30700000Y-78633332D01*
X33300000Y-78633332D02*
X39800000Y-78633332D01*
X35300000Y-72633332D02*
X44100000Y-72633332D01*
X43000000Y-78633332D02*
X44100000Y-78633332D01*
X44100000Y-72633332D02*
X44100000Y-78633332D01*
D11*
X60185436Y-93265000D02*
X60639564Y-93265000D01*
X60185436Y-94735000D02*
X60639564Y-94735000D01*
X60185436Y-54640000D02*
X60639564Y-54640000D01*
X60185436Y-56110000D02*
X60639564Y-56110000D01*
X31139564Y-71735000D02*
X30685436Y-71735000D01*
X31139564Y-70265000D02*
X30685436Y-70265000D01*
X48156411Y-31220718D02*
X48156411Y-33880718D01*
X48156411Y-31220718D02*
X46456411Y-31220718D01*
X46456411Y-31220718D02*
X46456411Y-33880718D01*
X28735000Y-72985000D02*
X28735000Y-70700000D01*
X27265000Y-72985000D02*
X28735000Y-72985000D01*
X27265000Y-70700000D02*
X27265000Y-72985000D01*
X27265000Y-44412500D02*
X27265000Y-46697500D01*
X27265000Y-46697500D02*
X28735000Y-46697500D01*
X28735000Y-46697500D02*
X28735000Y-44412500D01*
X28735000Y-59772500D02*
X28735000Y-57487500D01*
X27265000Y-59772500D02*
X28735000Y-59772500D01*
X27265000Y-57487500D02*
X27265000Y-59772500D01*
X57000000Y-83240000D02*
X57000000Y-90980000D01*
X57000000Y-90980000D02*
X63470000Y-90980000D01*
X59235000Y-83240000D02*
X57000000Y-83240000D01*
X63470000Y-83240000D02*
X61235000Y-83240000D01*
X63470000Y-90980000D02*
X63470000Y-83240000D01*
X61235000Y-83240000D02*
G75*
G02*
X59235000Y-83240000I-1000000J0D01*
G01*
X47150000Y-44440000D02*
X47150000Y-47100000D01*
X48850000Y-44440000D02*
X47150000Y-44440000D01*
X48850000Y-44440000D02*
X48850000Y-47100000D01*
D12*
X27100000Y-34000000D02*
X27100000Y-39000000D01*
X27100000Y-39000000D02*
X29600000Y-39000000D01*
X29600000Y-33500000D02*
X32700000Y-33500000D01*
X29600000Y-34000000D02*
X27100000Y-34000000D01*
X29600000Y-34000000D02*
X29600000Y-33500000D01*
X29600000Y-39000000D02*
X29600000Y-34000000D01*
X29600000Y-39500000D02*
X29600000Y-39000000D01*
X29600000Y-39500000D02*
X30700000Y-39500000D01*
X33300000Y-39500000D02*
X39800000Y-39500000D01*
X35300000Y-33500000D02*
X44100000Y-33500000D01*
X43000000Y-39500000D02*
X44100000Y-39500000D01*
X44100000Y-33500000D02*
X44100000Y-39500000D01*
D11*
X67670000Y-33136932D02*
X67670000Y-81456932D01*
X67670000Y-33136932D02*
X70330000Y-33136932D01*
X67670000Y-81456932D02*
X70330000Y-81456932D01*
X69000000Y-30536932D02*
X70330000Y-30536932D01*
X70330000Y-30536932D02*
X70330000Y-31866932D01*
X70330000Y-33136932D02*
X70330000Y-81456932D01*
X47150000Y-57440000D02*
X47150000Y-60100000D01*
X48850000Y-57440000D02*
X47150000Y-57440000D01*
X48850000Y-57440000D02*
X48850000Y-60100000D01*
X28735000Y-33772500D02*
X28735000Y-31487500D01*
X27265000Y-33772500D02*
X28735000Y-33772500D01*
X27265000Y-31487500D02*
X27265000Y-33772500D01*
X36842918Y-44171343D02*
X37297046Y-44171343D01*
X36842918Y-45641343D02*
X37297046Y-45641343D01*
X47150000Y-70390000D02*
X47150000Y-73050000D01*
X48850000Y-70390000D02*
X47150000Y-70390000D01*
X48850000Y-70390000D02*
X48850000Y-73050000D01*
X28735000Y-85985000D02*
X28735000Y-83700000D01*
X27265000Y-85985000D02*
X28735000Y-85985000D01*
X27265000Y-83700000D02*
X27265000Y-85985000D01*
X61235000Y-32100000D02*
G75*
G02*
X59235000Y-32100000I-1000000J0D01*
G01*
X63470000Y-39840000D02*
X63470000Y-32100000D01*
X63470000Y-32100000D02*
X61235000Y-32100000D01*
X59235000Y-32100000D02*
X57000000Y-32100000D01*
X57000000Y-39840000D02*
X63470000Y-39840000D01*
X57000000Y-32100000D02*
X57000000Y-39840000D01*
X42360436Y-70265000D02*
X42814564Y-70265000D01*
X42360436Y-71735000D02*
X42814564Y-71735000D01*
X42360436Y-44265000D02*
X42814564Y-44265000D01*
X42360436Y-45735000D02*
X42814564Y-45735000D01*
X61235000Y-44885000D02*
G75*
G02*
X59235000Y-44885000I-1000000J0D01*
G01*
X63470000Y-52625000D02*
X63470000Y-44885000D01*
X63470000Y-44885000D02*
X61235000Y-44885000D01*
X59235000Y-44885000D02*
X57000000Y-44885000D01*
X57000000Y-52625000D02*
X63470000Y-52625000D01*
X57000000Y-44885000D02*
X57000000Y-52625000D01*
X57000000Y-70455000D02*
X57000000Y-78195000D01*
X57000000Y-78195000D02*
X63470000Y-78195000D01*
X59235000Y-70455000D02*
X57000000Y-70455000D01*
X63470000Y-70455000D02*
X61235000Y-70455000D01*
X63470000Y-78195000D02*
X63470000Y-70455000D01*
X61235000Y-70455000D02*
G75*
G02*
X59235000Y-70455000I-1000000J0D01*
G01*
D12*
X27100000Y-47044444D02*
X27100000Y-52044444D01*
X27100000Y-52044444D02*
X29600000Y-52044444D01*
X29600000Y-46544444D02*
X32700000Y-46544444D01*
X29600000Y-47044444D02*
X27100000Y-47044444D01*
X29600000Y-47044444D02*
X29600000Y-46544444D01*
X29600000Y-52044444D02*
X29600000Y-47044444D01*
X29600000Y-52544444D02*
X29600000Y-52044444D01*
X29600000Y-52544444D02*
X30700000Y-52544444D01*
X33300000Y-52544444D02*
X39800000Y-52544444D01*
X35300000Y-46544444D02*
X44100000Y-46544444D01*
X43000000Y-52544444D02*
X44100000Y-52544444D01*
X44100000Y-46544444D02*
X44100000Y-52544444D01*
D11*
X52547784Y-33135663D02*
X52547784Y-81455663D01*
X52547784Y-30535663D02*
X52547784Y-31865663D01*
X51217784Y-30535663D02*
X52547784Y-30535663D01*
X49887784Y-81455663D02*
X52547784Y-81455663D01*
X49887784Y-33135663D02*
X52547784Y-33135663D01*
X49887784Y-33135663D02*
X49887784Y-81455663D01*
X42360436Y-57265000D02*
X42814564Y-57265000D01*
X42360436Y-58735000D02*
X42814564Y-58735000D01*
X36693929Y-83356404D02*
X37148057Y-83356404D01*
X36693929Y-84826404D02*
X37148057Y-84826404D01*
X47150000Y-84840000D02*
X47150000Y-87500000D01*
X48850000Y-84840000D02*
X47150000Y-84840000D01*
X48850000Y-84840000D02*
X48850000Y-87500000D01*
X36511133Y-30995496D02*
X36965261Y-30995496D01*
X36511133Y-32465496D02*
X36965261Y-32465496D01*
D12*
X27100000Y-86177776D02*
X27100000Y-91177776D01*
X27100000Y-91177776D02*
X29600000Y-91177776D01*
X29600000Y-85677776D02*
X32700000Y-85677776D01*
X29600000Y-86177776D02*
X27100000Y-86177776D01*
X29600000Y-86177776D02*
X29600000Y-85677776D01*
X29600000Y-91177776D02*
X29600000Y-86177776D01*
X29600000Y-91677776D02*
X29600000Y-91177776D01*
X29600000Y-91677776D02*
X30700000Y-91677776D01*
X33300000Y-91677776D02*
X39800000Y-91677776D01*
X35300000Y-85677776D02*
X44100000Y-85677776D01*
X43000000Y-91677776D02*
X44100000Y-91677776D01*
X44100000Y-85677776D02*
X44100000Y-91677776D01*
D11*
X60185436Y-67515000D02*
X60639564Y-67515000D01*
X60185436Y-68985000D02*
X60639564Y-68985000D01*
D12*
X27100000Y-60088888D02*
X27100000Y-65088888D01*
X27100000Y-65088888D02*
X29600000Y-65088888D01*
X29600000Y-59588888D02*
X32700000Y-59588888D01*
X29600000Y-60088888D02*
X27100000Y-60088888D01*
X29600000Y-60088888D02*
X29600000Y-59588888D01*
X29600000Y-65088888D02*
X29600000Y-60088888D01*
X29600000Y-65588888D02*
X29600000Y-65088888D01*
X29600000Y-65588888D02*
X30700000Y-65588888D01*
X33300000Y-65588888D02*
X39800000Y-65588888D01*
X35300000Y-59588888D02*
X44100000Y-59588888D01*
X43000000Y-65588888D02*
X44100000Y-65588888D01*
X44100000Y-59588888D02*
X44100000Y-65588888D01*
D11*
X42360436Y-83265000D02*
X42814564Y-83265000D01*
X42360436Y-84735000D02*
X42814564Y-84735000D01*
X61027328Y-41969620D02*
X61027328Y-42423748D01*
X59557328Y-41969620D02*
X59557328Y-42423748D01*
X57000000Y-57670000D02*
X57000000Y-65410000D01*
X57000000Y-65410000D02*
X63470000Y-65410000D01*
X59235000Y-57670000D02*
X57000000Y-57670000D01*
X63470000Y-57670000D02*
X61235000Y-57670000D01*
X63470000Y-65410000D02*
X63470000Y-57670000D01*
X61235000Y-57670000D02*
G75*
G02*
X59235000Y-57670000I-1000000J0D01*
G01*
X64890000Y-92715000D02*
X65940000Y-92715000D01*
X64890000Y-95215000D02*
X64890000Y-92715000D01*
X65940000Y-92715000D02*
X65940000Y-91725000D01*
X66060000Y-97185000D02*
X69940000Y-97185000D01*
X71110000Y-92715000D02*
X70060000Y-92715000D01*
X71110000Y-95215000D02*
X71110000Y-92715000D01*
X60185436Y-80390000D02*
X60639564Y-80390000D01*
X60185436Y-81860000D02*
X60639564Y-81860000D01*
X36842918Y-42201895D02*
X37297046Y-42201895D01*
X36842918Y-43671895D02*
X37297046Y-43671895D01*
X29249360Y-68219957D02*
X29249360Y-67765829D01*
X30719360Y-68219957D02*
X30719360Y-67765829D01*
X36701858Y-80893175D02*
X37155986Y-80893175D01*
X36701858Y-79423175D02*
X37155986Y-79423175D01*
X37217667Y-69855171D02*
X36763539Y-69855171D01*
X37217667Y-68385171D02*
X36763539Y-68385171D01*
X36749591Y-66430349D02*
X37203719Y-66430349D01*
X36749591Y-67900349D02*
X37203719Y-67900349D01*
X30603590Y-94160024D02*
X30603590Y-93705896D01*
X29133590Y-94160024D02*
X29133590Y-93705896D01*
X28630079Y-81279702D02*
X28630079Y-78994702D01*
X27160079Y-81279702D02*
X28630079Y-81279702D01*
X27160079Y-78994702D02*
X27160079Y-81279702D01*
X27265000Y-97360436D02*
X27265000Y-97814564D01*
X28735000Y-97360436D02*
X28735000Y-97814564D01*
X29262278Y-55069581D02*
X29262278Y-54615453D01*
X30732278Y-55069581D02*
X30732278Y-54615453D01*
X46639564Y-37765000D02*
X46185436Y-37765000D01*
X46639564Y-39235000D02*
X46185436Y-39235000D01*
X28735000Y-68197500D02*
X28735000Y-65912500D01*
X27265000Y-68197500D02*
X28735000Y-68197500D01*
X27265000Y-65912500D02*
X27265000Y-68197500D01*
X56667088Y-68291094D02*
X56667088Y-68745222D01*
X55197088Y-68291094D02*
X55197088Y-68745222D01*
X36860436Y-54765000D02*
X37314564Y-54765000D01*
X36860436Y-56235000D02*
X37314564Y-56235000D01*
X28735000Y-42485000D02*
X28735000Y-40200000D01*
X27265000Y-42485000D02*
X28735000Y-42485000D01*
X27265000Y-40200000D02*
X27265000Y-42485000D01*
X28735000Y-55272500D02*
X28735000Y-52987500D01*
X27265000Y-55272500D02*
X28735000Y-55272500D01*
X27265000Y-52987500D02*
X27265000Y-55272500D01*
X36185436Y-92765000D02*
X36639564Y-92765000D01*
X36185436Y-94235000D02*
X36639564Y-94235000D01*
X29380931Y-42120618D02*
X29380931Y-41666490D01*
X30850931Y-42120618D02*
X30850931Y-41666490D01*
X36718923Y-81373547D02*
X37173051Y-81373547D01*
X36718923Y-82843547D02*
X37173051Y-82843547D01*
%LPC*%
D13*
X47000000Y-54500000D03*
X47000000Y-52675000D03*
D14*
X28000000Y-92212500D03*
X28000000Y-93787500D03*
D15*
X31638363Y-31751227D03*
X29813363Y-31751227D03*
D16*
X36175000Y-58000000D03*
X38000000Y-58000000D03*
D17*
X33100000Y-75633332D03*
X40100000Y-75633332D03*
D18*
X32000000Y-79333332D03*
X41400000Y-79333332D03*
X34000000Y-71933332D03*
D19*
X45400000Y-74883332D03*
D16*
X59500000Y-94000000D03*
X61325000Y-94000000D03*
X59500000Y-55375000D03*
X61325000Y-55375000D03*
D15*
X31825000Y-71000000D03*
X30000000Y-71000000D03*
D20*
X47306411Y-33880718D03*
X47306411Y-31780718D03*
D14*
X28000000Y-72287500D03*
X28000000Y-70712500D03*
X28000000Y-44425000D03*
X28000000Y-46000000D03*
X28000000Y-59075000D03*
X28000000Y-57500000D03*
D21*
X55470000Y-84570000D03*
X55470000Y-87110000D03*
X55470000Y-89650000D03*
X65000000Y-89650000D03*
X65000000Y-87110000D03*
X65000000Y-84570000D03*
D20*
X48000000Y-45000000D03*
X48000000Y-47100000D03*
D17*
X33100000Y-36500000D03*
X40100000Y-36500000D03*
D18*
X32000000Y-40200000D03*
X41400000Y-40200000D03*
X34000000Y-32800000D03*
D19*
X45400000Y-35750000D03*
D22*
X69000000Y-31866932D03*
D23*
X69000000Y-34406932D03*
X69000000Y-36946932D03*
X69000000Y-39486932D03*
X69000000Y-42026932D03*
X69000000Y-44566932D03*
X69000000Y-47106932D03*
X69000000Y-49646932D03*
X69000000Y-52186932D03*
X69000000Y-54726932D03*
X69000000Y-57266932D03*
X69000000Y-59806932D03*
X69000000Y-62346932D03*
X69000000Y-64886932D03*
X69000000Y-67426932D03*
X69000000Y-69966932D03*
X69000000Y-72506932D03*
X69000000Y-75046932D03*
X69000000Y-77586932D03*
X69000000Y-80126932D03*
D20*
X48000000Y-58000000D03*
X48000000Y-60100000D03*
D14*
X28000000Y-33075000D03*
X28000000Y-31500000D03*
D16*
X36157482Y-44906343D03*
X37982482Y-44906343D03*
D20*
X48000000Y-70950000D03*
X48000000Y-73050000D03*
D14*
X28000000Y-85287500D03*
X28000000Y-83712500D03*
D21*
X65000000Y-33430000D03*
X65000000Y-35970000D03*
X65000000Y-38510000D03*
X55470000Y-38510000D03*
X55470000Y-35970000D03*
X55470000Y-33430000D03*
D16*
X41675000Y-71000000D03*
X43500000Y-71000000D03*
X41675000Y-45000000D03*
X43500000Y-45000000D03*
D21*
X65000000Y-46215000D03*
X65000000Y-48755000D03*
X65000000Y-51295000D03*
X55470000Y-51295000D03*
X55470000Y-48755000D03*
X55470000Y-46215000D03*
X55470000Y-71785000D03*
X55470000Y-74325000D03*
X55470000Y-76865000D03*
X65000000Y-76865000D03*
X65000000Y-74325000D03*
X65000000Y-71785000D03*
D17*
X33100000Y-49544444D03*
X40100000Y-49544444D03*
D18*
X32000000Y-53244444D03*
X41400000Y-53244444D03*
X34000000Y-45844444D03*
D19*
X45400000Y-48794444D03*
D23*
X51217784Y-80125663D03*
X51217784Y-77585663D03*
X51217784Y-75045663D03*
X51217784Y-72505663D03*
X51217784Y-69965663D03*
X51217784Y-67425663D03*
X51217784Y-64885663D03*
X51217784Y-62345663D03*
X51217784Y-59805663D03*
X51217784Y-57265663D03*
X51217784Y-54725663D03*
X51217784Y-52185663D03*
X51217784Y-49645663D03*
X51217784Y-47105663D03*
X51217784Y-44565663D03*
X51217784Y-42025663D03*
X51217784Y-39485663D03*
X51217784Y-36945663D03*
X51217784Y-34405663D03*
D22*
X51217784Y-31865663D03*
D16*
X41675000Y-58000000D03*
X43500000Y-58000000D03*
X36008493Y-84091404D03*
X37833493Y-84091404D03*
D20*
X48000000Y-85400000D03*
X48000000Y-87500000D03*
D16*
X35825697Y-31730496D03*
X37650697Y-31730496D03*
D17*
X33100000Y-88677776D03*
X40100000Y-88677776D03*
D18*
X32000000Y-92377776D03*
X41400000Y-92377776D03*
X34000000Y-84977776D03*
D19*
X45400000Y-87927776D03*
D16*
X59500000Y-68250000D03*
X61325000Y-68250000D03*
D17*
X33100000Y-62588888D03*
X40100000Y-62588888D03*
D18*
X32000000Y-66288888D03*
X41400000Y-66288888D03*
X34000000Y-58888888D03*
D19*
X45400000Y-61838888D03*
D16*
X41675000Y-84000000D03*
X43500000Y-84000000D03*
D24*
X60292328Y-41284184D03*
X60292328Y-43109184D03*
D21*
X55470000Y-59000000D03*
X55470000Y-61540000D03*
X55470000Y-64080000D03*
X65000000Y-64080000D03*
X65000000Y-61540000D03*
X65000000Y-59000000D03*
D25*
X66500000Y-92500000D03*
X67500000Y-92500000D03*
X68500000Y-92500000D03*
X69500000Y-92500000D03*
D26*
X65200000Y-96375000D03*
X70800000Y-96375000D03*
D16*
X59500000Y-81125000D03*
X61325000Y-81125000D03*
D17*
X33100000Y-43022222D03*
X40100000Y-43022222D03*
D16*
X36157482Y-42936895D03*
X37982482Y-42936895D03*
D13*
X29984360Y-68905393D03*
X29984360Y-67080393D03*
D16*
X36016422Y-80158175D03*
X37841422Y-80158175D03*
D17*
X33100000Y-56066666D03*
X40100000Y-56066666D03*
X33100000Y-69111110D03*
X40100000Y-69111110D03*
D15*
X37903103Y-69120171D03*
X36078103Y-69120171D03*
D17*
X40100000Y-95199998D03*
X33100000Y-95199998D03*
D16*
X37889155Y-67165349D03*
X36064155Y-67165349D03*
D13*
X29868590Y-93020460D03*
X29868590Y-94845460D03*
D14*
X27895079Y-80582202D03*
X27895079Y-79007202D03*
D24*
X28000000Y-96675000D03*
X28000000Y-98500000D03*
D13*
X29997278Y-55755017D03*
X29997278Y-53930017D03*
D15*
X47325000Y-38500000D03*
X45500000Y-38500000D03*
D14*
X28000000Y-67500000D03*
X28000000Y-65925000D03*
D17*
X33100000Y-82155554D03*
X40100000Y-82155554D03*
D24*
X55932088Y-67605658D03*
X55932088Y-69430658D03*
D16*
X36175000Y-55500000D03*
X38000000Y-55500000D03*
D14*
X28000000Y-41787500D03*
X28000000Y-40212500D03*
X28000000Y-54575000D03*
X28000000Y-53000000D03*
D16*
X35500000Y-93500000D03*
X37325000Y-93500000D03*
D13*
X30115931Y-42806054D03*
X30115931Y-40981054D03*
D16*
X36033487Y-82108547D03*
X37858487Y-82108547D03*
%LPD*%
M02*
