G04 #@! TF.GenerationSoftware,KiCad,Pcbnew,8.0.1*
G04 #@! TF.CreationDate,2024-03-31T18:38:23-05:00*
G04 #@! TF.ProjectId,dinoctopus_v2,64696e6f-6374-46f7-9075-735f76322e6b,rev?*
G04 #@! TF.SameCoordinates,Original*
G04 #@! TF.FileFunction,Soldermask,Bot*
G04 #@! TF.FilePolarity,Negative*
%FSLAX46Y46*%
G04 Gerber Fmt 4.6, Leading zero omitted, Abs format (unit mm)*
G04 Created by KiCad (PCBNEW 8.0.1) date 2024-03-31 18:38:23*
%MOMM*%
%LPD*%
G01*
G04 APERTURE LIST*
G04 Aperture macros list*
%AMRoundRect*
0 Rectangle with rounded corners*
0 $1 Rounding radius*
0 $2 $3 $4 $5 $6 $7 $8 $9 X,Y pos of 4 corners*
0 Add a 4 corners polygon primitive as box body*
4,1,4,$2,$3,$4,$5,$6,$7,$8,$9,$2,$3,0*
0 Add four circle primitives for the rounded corners*
1,1,$1+$1,$2,$3*
1,1,$1+$1,$4,$5*
1,1,$1+$1,$6,$7*
1,1,$1+$1,$8,$9*
0 Add four rect primitives between the rounded corners*
20,1,$1+$1,$2,$3,$4,$5,0*
20,1,$1+$1,$4,$5,$6,$7,0*
20,1,$1+$1,$6,$7,$8,$9,0*
20,1,$1+$1,$8,$9,$2,$3,0*%
G04 Aperture macros list end*
%ADD10C,1.700000*%
%ADD11R,1.700000X1.700000*%
%ADD12O,1.700000X1.700000*%
%ADD13RoundRect,0.102000X-0.700000X-1.400000X0.700000X-1.400000X0.700000X1.400000X-0.700000X1.400000X0*%
%ADD14RoundRect,0.102000X-0.800000X-1.400000X0.800000X-1.400000X0.800000X1.400000X-0.800000X1.400000X0*%
G04 APERTURE END LIST*
D10*
X33100000Y-75633332D03*
X40100000Y-75633332D03*
X33100000Y-36500000D03*
X40100000Y-36500000D03*
D11*
X69000000Y-31866932D03*
D12*
X69000000Y-34406932D03*
X69000000Y-36946932D03*
X69000000Y-39486932D03*
X69000000Y-42026932D03*
X69000000Y-44566932D03*
X69000000Y-47106932D03*
X69000000Y-49646932D03*
X69000000Y-52186932D03*
X69000000Y-54726932D03*
X69000000Y-57266932D03*
X69000000Y-59806932D03*
X69000000Y-62346932D03*
X69000000Y-64886932D03*
X69000000Y-67426932D03*
X69000000Y-69966932D03*
X69000000Y-72506932D03*
X69000000Y-75046932D03*
X69000000Y-77586932D03*
X69000000Y-80126932D03*
D10*
X33100000Y-49544444D03*
X40100000Y-49544444D03*
D12*
X51217784Y-80125663D03*
X51217784Y-77585663D03*
X51217784Y-75045663D03*
X51217784Y-72505663D03*
X51217784Y-69965663D03*
X51217784Y-67425663D03*
X51217784Y-64885663D03*
X51217784Y-62345663D03*
X51217784Y-59805663D03*
X51217784Y-57265663D03*
X51217784Y-54725663D03*
X51217784Y-52185663D03*
X51217784Y-49645663D03*
X51217784Y-47105663D03*
X51217784Y-44565663D03*
X51217784Y-42025663D03*
X51217784Y-39485663D03*
X51217784Y-36945663D03*
X51217784Y-34405663D03*
D11*
X51217784Y-31865663D03*
D10*
X33100000Y-88677776D03*
X40100000Y-88677776D03*
X33100000Y-62588888D03*
X40100000Y-62588888D03*
X33100000Y-43022222D03*
X40100000Y-43022222D03*
D13*
X32000000Y-39322222D03*
X41400000Y-39322222D03*
X34000000Y-46722222D03*
D14*
X45400000Y-43772222D03*
D10*
X33100000Y-56066666D03*
X40100000Y-56066666D03*
D13*
X32000000Y-52366666D03*
X41400000Y-52366666D03*
X34000000Y-59766666D03*
D14*
X45400000Y-56816666D03*
D10*
X33100000Y-69111110D03*
X40100000Y-69111110D03*
D13*
X32000000Y-65411110D03*
X41400000Y-65411110D03*
X34000000Y-72811110D03*
D14*
X45400000Y-69861110D03*
X45400000Y-95949998D03*
D13*
X34000000Y-98899998D03*
X41400000Y-91499998D03*
X32000000Y-91499998D03*
D10*
X40100000Y-95199998D03*
X33100000Y-95199998D03*
X33100000Y-82155554D03*
X40100000Y-82155554D03*
D13*
X32000000Y-78455554D03*
X41400000Y-78455554D03*
X34000000Y-85855554D03*
D14*
X45400000Y-82905554D03*
M02*
