G04 #@! TF.GenerationSoftware,KiCad,Pcbnew,8.0.1*
G04 #@! TF.CreationDate,2024-03-31T18:38:23-05:00*
G04 #@! TF.ProjectId,dinoctopus_v2,64696e6f-6374-46f7-9075-735f76322e6b,rev?*
G04 #@! TF.SameCoordinates,Original*
G04 #@! TF.FileFunction,Legend,Bot*
G04 #@! TF.FilePolarity,Positive*
%FSLAX46Y46*%
G04 Gerber Fmt 4.6, Leading zero omitted, Abs format (unit mm)*
G04 Created by KiCad (PCBNEW 8.0.1) date 2024-03-31 18:38:23*
%MOMM*%
%LPD*%
G01*
G04 APERTURE LIST*
G04 Aperture macros list*
%AMRoundRect*
0 Rectangle with rounded corners*
0 $1 Rounding radius*
0 $2 $3 $4 $5 $6 $7 $8 $9 X,Y pos of 4 corners*
0 Add a 4 corners polygon primitive as box body*
4,1,4,$2,$3,$4,$5,$6,$7,$8,$9,$2,$3,0*
0 Add four circle primitives for the rounded corners*
1,1,$1+$1,$2,$3*
1,1,$1+$1,$4,$5*
1,1,$1+$1,$6,$7*
1,1,$1+$1,$8,$9*
0 Add four rect primitives between the rounded corners*
20,1,$1+$1,$2,$3,$4,$5,0*
20,1,$1+$1,$4,$5,$6,$7,0*
20,1,$1+$1,$6,$7,$8,$9,0*
20,1,$1+$1,$8,$9,$2,$3,0*%
G04 Aperture macros list end*
%ADD10C,0.100000*%
%ADD11C,0.150000*%
%ADD12C,0.127000*%
%ADD13C,1.700000*%
%ADD14R,1.700000X1.700000*%
%ADD15O,1.700000X1.700000*%
%ADD16RoundRect,0.102000X-0.700000X-1.400000X0.700000X-1.400000X0.700000X1.400000X-0.700000X1.400000X0*%
%ADD17RoundRect,0.102000X-0.800000X-1.400000X0.800000X-1.400000X0.800000X1.400000X-0.800000X1.400000X0*%
G04 APERTURE END LIST*
D10*
X70410401Y-98872419D02*
X70410401Y-99586704D01*
X70410401Y-99586704D02*
X70458020Y-99729561D01*
X70458020Y-99729561D02*
X70553258Y-99824800D01*
X70553258Y-99824800D02*
X70696115Y-99872419D01*
X70696115Y-99872419D02*
X70791353Y-99872419D01*
X69458020Y-99872419D02*
X69934210Y-99872419D01*
X69934210Y-99872419D02*
X69934210Y-98872419D01*
X68553258Y-99777180D02*
X68600877Y-99824800D01*
X68600877Y-99824800D02*
X68743734Y-99872419D01*
X68743734Y-99872419D02*
X68838972Y-99872419D01*
X68838972Y-99872419D02*
X68981829Y-99824800D01*
X68981829Y-99824800D02*
X69077067Y-99729561D01*
X69077067Y-99729561D02*
X69124686Y-99634323D01*
X69124686Y-99634323D02*
X69172305Y-99443847D01*
X69172305Y-99443847D02*
X69172305Y-99300990D01*
X69172305Y-99300990D02*
X69124686Y-99110514D01*
X69124686Y-99110514D02*
X69077067Y-99015276D01*
X69077067Y-99015276D02*
X68981829Y-98920038D01*
X68981829Y-98920038D02*
X68838972Y-98872419D01*
X68838972Y-98872419D02*
X68743734Y-98872419D01*
X68743734Y-98872419D02*
X68600877Y-98920038D01*
X68600877Y-98920038D02*
X68553258Y-98967657D01*
X67838972Y-98872419D02*
X67838972Y-99586704D01*
X67838972Y-99586704D02*
X67886591Y-99729561D01*
X67886591Y-99729561D02*
X67981829Y-99824800D01*
X67981829Y-99824800D02*
X68124686Y-99872419D01*
X68124686Y-99872419D02*
X68219924Y-99872419D01*
X66886591Y-99872419D02*
X67362781Y-99872419D01*
X67362781Y-99872419D02*
X67362781Y-98872419D01*
X65981829Y-99777180D02*
X66029448Y-99824800D01*
X66029448Y-99824800D02*
X66172305Y-99872419D01*
X66172305Y-99872419D02*
X66267543Y-99872419D01*
X66267543Y-99872419D02*
X66410400Y-99824800D01*
X66410400Y-99824800D02*
X66505638Y-99729561D01*
X66505638Y-99729561D02*
X66553257Y-99634323D01*
X66553257Y-99634323D02*
X66600876Y-99443847D01*
X66600876Y-99443847D02*
X66600876Y-99300990D01*
X66600876Y-99300990D02*
X66553257Y-99110514D01*
X66553257Y-99110514D02*
X66505638Y-99015276D01*
X66505638Y-99015276D02*
X66410400Y-98920038D01*
X66410400Y-98920038D02*
X66267543Y-98872419D01*
X66267543Y-98872419D02*
X66172305Y-98872419D01*
X66172305Y-98872419D02*
X66029448Y-98920038D01*
X66029448Y-98920038D02*
X65981829Y-98967657D01*
X65267543Y-98872419D02*
X65267543Y-99586704D01*
X65267543Y-99586704D02*
X65315162Y-99729561D01*
X65315162Y-99729561D02*
X65410400Y-99824800D01*
X65410400Y-99824800D02*
X65553257Y-99872419D01*
X65553257Y-99872419D02*
X65648495Y-99872419D01*
X64315162Y-99872419D02*
X64791352Y-99872419D01*
X64791352Y-99872419D02*
X64791352Y-98872419D01*
X63410400Y-99777180D02*
X63458019Y-99824800D01*
X63458019Y-99824800D02*
X63600876Y-99872419D01*
X63600876Y-99872419D02*
X63696114Y-99872419D01*
X63696114Y-99872419D02*
X63838971Y-99824800D01*
X63838971Y-99824800D02*
X63934209Y-99729561D01*
X63934209Y-99729561D02*
X63981828Y-99634323D01*
X63981828Y-99634323D02*
X64029447Y-99443847D01*
X64029447Y-99443847D02*
X64029447Y-99300990D01*
X64029447Y-99300990D02*
X63981828Y-99110514D01*
X63981828Y-99110514D02*
X63934209Y-99015276D01*
X63934209Y-99015276D02*
X63838971Y-98920038D01*
X63838971Y-98920038D02*
X63696114Y-98872419D01*
X63696114Y-98872419D02*
X63600876Y-98872419D01*
X63600876Y-98872419D02*
X63458019Y-98920038D01*
X63458019Y-98920038D02*
X63410400Y-98967657D01*
X62696114Y-98872419D02*
X62696114Y-99586704D01*
X62696114Y-99586704D02*
X62743733Y-99729561D01*
X62743733Y-99729561D02*
X62838971Y-99824800D01*
X62838971Y-99824800D02*
X62981828Y-99872419D01*
X62981828Y-99872419D02*
X63077066Y-99872419D01*
X61743733Y-99872419D02*
X62219923Y-99872419D01*
X62219923Y-99872419D02*
X62219923Y-98872419D01*
X60838971Y-99777180D02*
X60886590Y-99824800D01*
X60886590Y-99824800D02*
X61029447Y-99872419D01*
X61029447Y-99872419D02*
X61124685Y-99872419D01*
X61124685Y-99872419D02*
X61267542Y-99824800D01*
X61267542Y-99824800D02*
X61362780Y-99729561D01*
X61362780Y-99729561D02*
X61410399Y-99634323D01*
X61410399Y-99634323D02*
X61458018Y-99443847D01*
X61458018Y-99443847D02*
X61458018Y-99300990D01*
X61458018Y-99300990D02*
X61410399Y-99110514D01*
X61410399Y-99110514D02*
X61362780Y-99015276D01*
X61362780Y-99015276D02*
X61267542Y-98920038D01*
X61267542Y-98920038D02*
X61124685Y-98872419D01*
X61124685Y-98872419D02*
X61029447Y-98872419D01*
X61029447Y-98872419D02*
X60886590Y-98920038D01*
X60886590Y-98920038D02*
X60838971Y-98967657D01*
X69608940Y-83199122D02*
X68808940Y-83199122D01*
X69570845Y-83199122D02*
X69608940Y-83122931D01*
X69608940Y-83122931D02*
X69608940Y-82970550D01*
X69608940Y-82970550D02*
X69570845Y-82894360D01*
X69570845Y-82894360D02*
X69532749Y-82856265D01*
X69532749Y-82856265D02*
X69456559Y-82818169D01*
X69456559Y-82818169D02*
X69227987Y-82818169D01*
X69227987Y-82818169D02*
X69151797Y-82856265D01*
X69151797Y-82856265D02*
X69113702Y-82894360D01*
X69113702Y-82894360D02*
X69075606Y-82970550D01*
X69075606Y-82970550D02*
X69075606Y-83122931D01*
X69075606Y-83122931D02*
X69113702Y-83199122D01*
X69608940Y-83580075D02*
X69075606Y-83580075D01*
X68808940Y-83580075D02*
X68847035Y-83541979D01*
X68847035Y-83541979D02*
X68885130Y-83580075D01*
X68885130Y-83580075D02*
X68847035Y-83618170D01*
X68847035Y-83618170D02*
X68808940Y-83580075D01*
X68808940Y-83580075D02*
X68885130Y-83580075D01*
X69075606Y-83961027D02*
X69608940Y-83961027D01*
X69151797Y-83961027D02*
X69113702Y-83999122D01*
X69113702Y-83999122D02*
X69075606Y-84075312D01*
X69075606Y-84075312D02*
X69075606Y-84189598D01*
X69075606Y-84189598D02*
X69113702Y-84265789D01*
X69113702Y-84265789D02*
X69189892Y-84303884D01*
X69189892Y-84303884D02*
X69608940Y-84303884D01*
X69608940Y-84799122D02*
X69570845Y-84722932D01*
X69570845Y-84722932D02*
X69532749Y-84684837D01*
X69532749Y-84684837D02*
X69456559Y-84646741D01*
X69456559Y-84646741D02*
X69227987Y-84646741D01*
X69227987Y-84646741D02*
X69151797Y-84684837D01*
X69151797Y-84684837D02*
X69113702Y-84722932D01*
X69113702Y-84722932D02*
X69075606Y-84799122D01*
X69075606Y-84799122D02*
X69075606Y-84913408D01*
X69075606Y-84913408D02*
X69113702Y-84989599D01*
X69113702Y-84989599D02*
X69151797Y-85027694D01*
X69151797Y-85027694D02*
X69227987Y-85065789D01*
X69227987Y-85065789D02*
X69456559Y-85065789D01*
X69456559Y-85065789D02*
X69532749Y-85027694D01*
X69532749Y-85027694D02*
X69570845Y-84989599D01*
X69570845Y-84989599D02*
X69608940Y-84913408D01*
X69608940Y-84913408D02*
X69608940Y-84799122D01*
X69570845Y-85751504D02*
X69608940Y-85675313D01*
X69608940Y-85675313D02*
X69608940Y-85522932D01*
X69608940Y-85522932D02*
X69570845Y-85446742D01*
X69570845Y-85446742D02*
X69532749Y-85408647D01*
X69532749Y-85408647D02*
X69456559Y-85370551D01*
X69456559Y-85370551D02*
X69227987Y-85370551D01*
X69227987Y-85370551D02*
X69151797Y-85408647D01*
X69151797Y-85408647D02*
X69113702Y-85446742D01*
X69113702Y-85446742D02*
X69075606Y-85522932D01*
X69075606Y-85522932D02*
X69075606Y-85675313D01*
X69075606Y-85675313D02*
X69113702Y-85751504D01*
X69075606Y-85980075D02*
X69075606Y-86284837D01*
X68808940Y-86094361D02*
X69494654Y-86094361D01*
X69494654Y-86094361D02*
X69570845Y-86132456D01*
X69570845Y-86132456D02*
X69608940Y-86208646D01*
X69608940Y-86208646D02*
X69608940Y-86284837D01*
X69608940Y-86665789D02*
X69570845Y-86589599D01*
X69570845Y-86589599D02*
X69532749Y-86551504D01*
X69532749Y-86551504D02*
X69456559Y-86513408D01*
X69456559Y-86513408D02*
X69227987Y-86513408D01*
X69227987Y-86513408D02*
X69151797Y-86551504D01*
X69151797Y-86551504D02*
X69113702Y-86589599D01*
X69113702Y-86589599D02*
X69075606Y-86665789D01*
X69075606Y-86665789D02*
X69075606Y-86780075D01*
X69075606Y-86780075D02*
X69113702Y-86856266D01*
X69113702Y-86856266D02*
X69151797Y-86894361D01*
X69151797Y-86894361D02*
X69227987Y-86932456D01*
X69227987Y-86932456D02*
X69456559Y-86932456D01*
X69456559Y-86932456D02*
X69532749Y-86894361D01*
X69532749Y-86894361D02*
X69570845Y-86856266D01*
X69570845Y-86856266D02*
X69608940Y-86780075D01*
X69608940Y-86780075D02*
X69608940Y-86665789D01*
X69075606Y-87275314D02*
X69875606Y-87275314D01*
X69113702Y-87275314D02*
X69075606Y-87351504D01*
X69075606Y-87351504D02*
X69075606Y-87503885D01*
X69075606Y-87503885D02*
X69113702Y-87580076D01*
X69113702Y-87580076D02*
X69151797Y-87618171D01*
X69151797Y-87618171D02*
X69227987Y-87656266D01*
X69227987Y-87656266D02*
X69456559Y-87656266D01*
X69456559Y-87656266D02*
X69532749Y-87618171D01*
X69532749Y-87618171D02*
X69570845Y-87580076D01*
X69570845Y-87580076D02*
X69608940Y-87503885D01*
X69608940Y-87503885D02*
X69608940Y-87351504D01*
X69608940Y-87351504D02*
X69570845Y-87275314D01*
X69075606Y-88341981D02*
X69608940Y-88341981D01*
X69075606Y-87999124D02*
X69494654Y-87999124D01*
X69494654Y-87999124D02*
X69570845Y-88037219D01*
X69570845Y-88037219D02*
X69608940Y-88113409D01*
X69608940Y-88113409D02*
X69608940Y-88227695D01*
X69608940Y-88227695D02*
X69570845Y-88303886D01*
X69570845Y-88303886D02*
X69532749Y-88341981D01*
X69570845Y-88684838D02*
X69608940Y-88761029D01*
X69608940Y-88761029D02*
X69608940Y-88913410D01*
X69608940Y-88913410D02*
X69570845Y-88989600D01*
X69570845Y-88989600D02*
X69494654Y-89027696D01*
X69494654Y-89027696D02*
X69456559Y-89027696D01*
X69456559Y-89027696D02*
X69380368Y-88989600D01*
X69380368Y-88989600D02*
X69342273Y-88913410D01*
X69342273Y-88913410D02*
X69342273Y-88799124D01*
X69342273Y-88799124D02*
X69304178Y-88722934D01*
X69304178Y-88722934D02*
X69227987Y-88684838D01*
X69227987Y-88684838D02*
X69189892Y-88684838D01*
X69189892Y-88684838D02*
X69113702Y-88722934D01*
X69113702Y-88722934D02*
X69075606Y-88799124D01*
X69075606Y-88799124D02*
X69075606Y-88913410D01*
X69075606Y-88913410D02*
X69113702Y-88989600D01*
X69304178Y-89980077D02*
X69304178Y-90589601D01*
X69608940Y-91580077D02*
X69075606Y-91580077D01*
X69227987Y-91580077D02*
X69151797Y-91618172D01*
X69151797Y-91618172D02*
X69113702Y-91656267D01*
X69113702Y-91656267D02*
X69075606Y-91732458D01*
X69075606Y-91732458D02*
X69075606Y-91808648D01*
X69570845Y-92380077D02*
X69608940Y-92303886D01*
X69608940Y-92303886D02*
X69608940Y-92151505D01*
X69608940Y-92151505D02*
X69570845Y-92075315D01*
X69570845Y-92075315D02*
X69494654Y-92037219D01*
X69494654Y-92037219D02*
X69189892Y-92037219D01*
X69189892Y-92037219D02*
X69113702Y-92075315D01*
X69113702Y-92075315D02*
X69075606Y-92151505D01*
X69075606Y-92151505D02*
X69075606Y-92303886D01*
X69075606Y-92303886D02*
X69113702Y-92380077D01*
X69113702Y-92380077D02*
X69189892Y-92418172D01*
X69189892Y-92418172D02*
X69266083Y-92418172D01*
X69266083Y-92418172D02*
X69342273Y-92037219D01*
X69075606Y-92684838D02*
X69608940Y-92875314D01*
X69608940Y-92875314D02*
X69075606Y-93065791D01*
X68885130Y-93941981D02*
X68847035Y-93980077D01*
X68847035Y-93980077D02*
X68808940Y-94056267D01*
X68808940Y-94056267D02*
X68808940Y-94246743D01*
X68808940Y-94246743D02*
X68847035Y-94322934D01*
X68847035Y-94322934D02*
X68885130Y-94361029D01*
X68885130Y-94361029D02*
X68961321Y-94399124D01*
X68961321Y-94399124D02*
X69037511Y-94399124D01*
X69037511Y-94399124D02*
X69151797Y-94361029D01*
X69151797Y-94361029D02*
X69608940Y-93903886D01*
X69608940Y-93903886D02*
X69608940Y-94399124D01*
X70896895Y-82856265D02*
X70096895Y-82856265D01*
X70401657Y-82856265D02*
X70363561Y-82932455D01*
X70363561Y-82932455D02*
X70363561Y-83084836D01*
X70363561Y-83084836D02*
X70401657Y-83161027D01*
X70401657Y-83161027D02*
X70439752Y-83199122D01*
X70439752Y-83199122D02*
X70515942Y-83237217D01*
X70515942Y-83237217D02*
X70744514Y-83237217D01*
X70744514Y-83237217D02*
X70820704Y-83199122D01*
X70820704Y-83199122D02*
X70858800Y-83161027D01*
X70858800Y-83161027D02*
X70896895Y-83084836D01*
X70896895Y-83084836D02*
X70896895Y-82932455D01*
X70896895Y-82932455D02*
X70858800Y-82856265D01*
X70363561Y-83580075D02*
X71049276Y-83580075D01*
X71049276Y-83580075D02*
X71125466Y-83541979D01*
X71125466Y-83541979D02*
X71163561Y-83465789D01*
X71163561Y-83465789D02*
X71163561Y-83427694D01*
X70096895Y-83580075D02*
X70134990Y-83541979D01*
X70134990Y-83541979D02*
X70173085Y-83580075D01*
X70173085Y-83580075D02*
X70134990Y-83618170D01*
X70134990Y-83618170D02*
X70096895Y-83580075D01*
X70096895Y-83580075D02*
X70173085Y-83580075D01*
X70896895Y-84075312D02*
X70858800Y-83999122D01*
X70858800Y-83999122D02*
X70820704Y-83961027D01*
X70820704Y-83961027D02*
X70744514Y-83922931D01*
X70744514Y-83922931D02*
X70515942Y-83922931D01*
X70515942Y-83922931D02*
X70439752Y-83961027D01*
X70439752Y-83961027D02*
X70401657Y-83999122D01*
X70401657Y-83999122D02*
X70363561Y-84075312D01*
X70363561Y-84075312D02*
X70363561Y-84189598D01*
X70363561Y-84189598D02*
X70401657Y-84265789D01*
X70401657Y-84265789D02*
X70439752Y-84303884D01*
X70439752Y-84303884D02*
X70515942Y-84341979D01*
X70515942Y-84341979D02*
X70744514Y-84341979D01*
X70744514Y-84341979D02*
X70820704Y-84303884D01*
X70820704Y-84303884D02*
X70858800Y-84265789D01*
X70858800Y-84265789D02*
X70896895Y-84189598D01*
X70896895Y-84189598D02*
X70896895Y-84075312D01*
X70363561Y-84684837D02*
X70896895Y-84684837D01*
X70439752Y-84684837D02*
X70401657Y-84722932D01*
X70401657Y-84722932D02*
X70363561Y-84799122D01*
X70363561Y-84799122D02*
X70363561Y-84913408D01*
X70363561Y-84913408D02*
X70401657Y-84989599D01*
X70401657Y-84989599D02*
X70477847Y-85027694D01*
X70477847Y-85027694D02*
X70896895Y-85027694D01*
X70363561Y-85408647D02*
X70896895Y-85408647D01*
X70439752Y-85408647D02*
X70401657Y-85446742D01*
X70401657Y-85446742D02*
X70363561Y-85522932D01*
X70363561Y-85522932D02*
X70363561Y-85637218D01*
X70363561Y-85637218D02*
X70401657Y-85713409D01*
X70401657Y-85713409D02*
X70477847Y-85751504D01*
X70477847Y-85751504D02*
X70896895Y-85751504D01*
X70896895Y-86132457D02*
X70096895Y-86132457D01*
X70896895Y-86475314D02*
X70477847Y-86475314D01*
X70477847Y-86475314D02*
X70401657Y-86437219D01*
X70401657Y-86437219D02*
X70363561Y-86361028D01*
X70363561Y-86361028D02*
X70363561Y-86246742D01*
X70363561Y-86246742D02*
X70401657Y-86170552D01*
X70401657Y-86170552D02*
X70439752Y-86132457D01*
X70592133Y-86856267D02*
X70592133Y-87465791D01*
X70896895Y-87846743D02*
X70363561Y-87846743D01*
X70439752Y-87846743D02*
X70401657Y-87884838D01*
X70401657Y-87884838D02*
X70363561Y-87961028D01*
X70363561Y-87961028D02*
X70363561Y-88075314D01*
X70363561Y-88075314D02*
X70401657Y-88151505D01*
X70401657Y-88151505D02*
X70477847Y-88189600D01*
X70477847Y-88189600D02*
X70896895Y-88189600D01*
X70477847Y-88189600D02*
X70401657Y-88227695D01*
X70401657Y-88227695D02*
X70363561Y-88303886D01*
X70363561Y-88303886D02*
X70363561Y-88418171D01*
X70363561Y-88418171D02*
X70401657Y-88494362D01*
X70401657Y-88494362D02*
X70477847Y-88532457D01*
X70477847Y-88532457D02*
X70896895Y-88532457D01*
X70896895Y-88913410D02*
X70363561Y-88913410D01*
X70096895Y-88913410D02*
X70134990Y-88875314D01*
X70134990Y-88875314D02*
X70173085Y-88913410D01*
X70173085Y-88913410D02*
X70134990Y-88951505D01*
X70134990Y-88951505D02*
X70096895Y-88913410D01*
X70096895Y-88913410D02*
X70173085Y-88913410D01*
X70896895Y-89637219D02*
X70096895Y-89637219D01*
X70858800Y-89637219D02*
X70896895Y-89561028D01*
X70896895Y-89561028D02*
X70896895Y-89408647D01*
X70896895Y-89408647D02*
X70858800Y-89332457D01*
X70858800Y-89332457D02*
X70820704Y-89294362D01*
X70820704Y-89294362D02*
X70744514Y-89256266D01*
X70744514Y-89256266D02*
X70515942Y-89256266D01*
X70515942Y-89256266D02*
X70439752Y-89294362D01*
X70439752Y-89294362D02*
X70401657Y-89332457D01*
X70401657Y-89332457D02*
X70363561Y-89408647D01*
X70363561Y-89408647D02*
X70363561Y-89561028D01*
X70363561Y-89561028D02*
X70401657Y-89637219D01*
X70896895Y-90018172D02*
X70363561Y-90018172D01*
X70096895Y-90018172D02*
X70134990Y-89980076D01*
X70134990Y-89980076D02*
X70173085Y-90018172D01*
X70173085Y-90018172D02*
X70134990Y-90056267D01*
X70134990Y-90056267D02*
X70096895Y-90018172D01*
X70096895Y-90018172D02*
X70173085Y-90018172D01*
X70515942Y-90894362D02*
X70477847Y-90856267D01*
X70477847Y-90856267D02*
X70439752Y-90780076D01*
X70439752Y-90780076D02*
X70439752Y-90703886D01*
X70439752Y-90703886D02*
X70477847Y-90627695D01*
X70477847Y-90627695D02*
X70515942Y-90589600D01*
X70515942Y-90589600D02*
X70592133Y-90551505D01*
X70592133Y-90551505D02*
X70668323Y-90551505D01*
X70668323Y-90551505D02*
X70744514Y-90589600D01*
X70744514Y-90589600D02*
X70782609Y-90627695D01*
X70782609Y-90627695D02*
X70820704Y-90703886D01*
X70820704Y-90703886D02*
X70820704Y-90780076D01*
X70820704Y-90780076D02*
X70782609Y-90856267D01*
X70782609Y-90856267D02*
X70744514Y-90894362D01*
X70439752Y-90894362D02*
X70744514Y-90894362D01*
X70744514Y-90894362D02*
X70782609Y-90932457D01*
X70782609Y-90932457D02*
X70782609Y-90970552D01*
X70782609Y-90970552D02*
X70744514Y-91046743D01*
X70744514Y-91046743D02*
X70668323Y-91084838D01*
X70668323Y-91084838D02*
X70477847Y-91084838D01*
X70477847Y-91084838D02*
X70363561Y-91008648D01*
X70363561Y-91008648D02*
X70287371Y-90894362D01*
X70287371Y-90894362D02*
X70249276Y-90741981D01*
X70249276Y-90741981D02*
X70287371Y-90589600D01*
X70287371Y-90589600D02*
X70363561Y-90475314D01*
X70363561Y-90475314D02*
X70477847Y-90399124D01*
X70477847Y-90399124D02*
X70630228Y-90361028D01*
X70630228Y-90361028D02*
X70782609Y-90399124D01*
X70782609Y-90399124D02*
X70896895Y-90475314D01*
X70896895Y-90475314D02*
X70973085Y-90589600D01*
X70973085Y-90589600D02*
X71011180Y-90741981D01*
X71011180Y-90741981D02*
X70973085Y-90894362D01*
X70973085Y-90894362D02*
X70896895Y-91008648D01*
X70896895Y-91427695D02*
X70096895Y-91427695D01*
X70401657Y-91427695D02*
X70363561Y-91503885D01*
X70363561Y-91503885D02*
X70363561Y-91656266D01*
X70363561Y-91656266D02*
X70401657Y-91732457D01*
X70401657Y-91732457D02*
X70439752Y-91770552D01*
X70439752Y-91770552D02*
X70515942Y-91808647D01*
X70515942Y-91808647D02*
X70744514Y-91808647D01*
X70744514Y-91808647D02*
X70820704Y-91770552D01*
X70820704Y-91770552D02*
X70858800Y-91732457D01*
X70858800Y-91732457D02*
X70896895Y-91656266D01*
X70896895Y-91656266D02*
X70896895Y-91503885D01*
X70896895Y-91503885D02*
X70858800Y-91427695D01*
X70363561Y-92151505D02*
X71049276Y-92151505D01*
X71049276Y-92151505D02*
X71125466Y-92113409D01*
X71125466Y-92113409D02*
X71163561Y-92037219D01*
X71163561Y-92037219D02*
X71163561Y-91999124D01*
X70096895Y-92151505D02*
X70134990Y-92113409D01*
X70134990Y-92113409D02*
X70173085Y-92151505D01*
X70173085Y-92151505D02*
X70134990Y-92189600D01*
X70134990Y-92189600D02*
X70096895Y-92151505D01*
X70096895Y-92151505D02*
X70173085Y-92151505D01*
X70896895Y-92646742D02*
X70858800Y-92570552D01*
X70858800Y-92570552D02*
X70820704Y-92532457D01*
X70820704Y-92532457D02*
X70744514Y-92494361D01*
X70744514Y-92494361D02*
X70515942Y-92494361D01*
X70515942Y-92494361D02*
X70439752Y-92532457D01*
X70439752Y-92532457D02*
X70401657Y-92570552D01*
X70401657Y-92570552D02*
X70363561Y-92646742D01*
X70363561Y-92646742D02*
X70363561Y-92761028D01*
X70363561Y-92761028D02*
X70401657Y-92837219D01*
X70401657Y-92837219D02*
X70439752Y-92875314D01*
X70439752Y-92875314D02*
X70515942Y-92913409D01*
X70515942Y-92913409D02*
X70744514Y-92913409D01*
X70744514Y-92913409D02*
X70820704Y-92875314D01*
X70820704Y-92875314D02*
X70858800Y-92837219D01*
X70858800Y-92837219D02*
X70896895Y-92761028D01*
X70896895Y-92761028D02*
X70896895Y-92646742D01*
X70363561Y-93256267D02*
X70896895Y-93256267D01*
X70439752Y-93256267D02*
X70401657Y-93294362D01*
X70401657Y-93294362D02*
X70363561Y-93370552D01*
X70363561Y-93370552D02*
X70363561Y-93484838D01*
X70363561Y-93484838D02*
X70401657Y-93561029D01*
X70401657Y-93561029D02*
X70477847Y-93599124D01*
X70477847Y-93599124D02*
X70896895Y-93599124D01*
X70363561Y-93980077D02*
X70896895Y-93980077D01*
X70439752Y-93980077D02*
X70401657Y-94018172D01*
X70401657Y-94018172D02*
X70363561Y-94094362D01*
X70363561Y-94094362D02*
X70363561Y-94208648D01*
X70363561Y-94208648D02*
X70401657Y-94284839D01*
X70401657Y-94284839D02*
X70477847Y-94322934D01*
X70477847Y-94322934D02*
X70896895Y-94322934D01*
X70896895Y-94703887D02*
X70096895Y-94703887D01*
X70896895Y-95046744D02*
X70477847Y-95046744D01*
X70477847Y-95046744D02*
X70401657Y-95008649D01*
X70401657Y-95008649D02*
X70363561Y-94932458D01*
X70363561Y-94932458D02*
X70363561Y-94818172D01*
X70363561Y-94818172D02*
X70401657Y-94741982D01*
X70401657Y-94741982D02*
X70439752Y-94703887D01*
X70820704Y-95427697D02*
X70858800Y-95465792D01*
X70858800Y-95465792D02*
X70896895Y-95427697D01*
X70896895Y-95427697D02*
X70858800Y-95389601D01*
X70858800Y-95389601D02*
X70820704Y-95427697D01*
X70820704Y-95427697D02*
X70896895Y-95427697D01*
X70363561Y-95808649D02*
X70896895Y-95808649D01*
X70439752Y-95808649D02*
X70401657Y-95846744D01*
X70401657Y-95846744D02*
X70363561Y-95922934D01*
X70363561Y-95922934D02*
X70363561Y-96037220D01*
X70363561Y-96037220D02*
X70401657Y-96113411D01*
X70401657Y-96113411D02*
X70477847Y-96151506D01*
X70477847Y-96151506D02*
X70896895Y-96151506D01*
X70858800Y-96837221D02*
X70896895Y-96761030D01*
X70896895Y-96761030D02*
X70896895Y-96608649D01*
X70896895Y-96608649D02*
X70858800Y-96532459D01*
X70858800Y-96532459D02*
X70782609Y-96494363D01*
X70782609Y-96494363D02*
X70477847Y-96494363D01*
X70477847Y-96494363D02*
X70401657Y-96532459D01*
X70401657Y-96532459D02*
X70363561Y-96608649D01*
X70363561Y-96608649D02*
X70363561Y-96761030D01*
X70363561Y-96761030D02*
X70401657Y-96837221D01*
X70401657Y-96837221D02*
X70477847Y-96875316D01*
X70477847Y-96875316D02*
X70554038Y-96875316D01*
X70554038Y-96875316D02*
X70630228Y-96494363D01*
X70363561Y-97103887D02*
X70363561Y-97408649D01*
X70096895Y-97218173D02*
X70782609Y-97218173D01*
X70782609Y-97218173D02*
X70858800Y-97256268D01*
X70858800Y-97256268D02*
X70896895Y-97332458D01*
X70896895Y-97332458D02*
X70896895Y-97408649D01*
D11*
X39057610Y-41027397D02*
X39057610Y-41742892D01*
X39057610Y-41742892D02*
X39105310Y-41885991D01*
X39105310Y-41885991D02*
X39200709Y-41981391D01*
X39200709Y-41981391D02*
X39343808Y-42029090D01*
X39343808Y-42029090D02*
X39439208Y-42029090D01*
X38055917Y-42029090D02*
X38628313Y-42029090D01*
X38342115Y-42029090D02*
X38342115Y-41027397D01*
X38342115Y-41027397D02*
X38437514Y-41170496D01*
X38437514Y-41170496D02*
X38532914Y-41265896D01*
X38532914Y-41265896D02*
X38628313Y-41313595D01*
X37101924Y-42029090D02*
X37674320Y-42029090D01*
X37388122Y-42029090D02*
X37388122Y-41027397D01*
X37388122Y-41027397D02*
X37483521Y-41170496D01*
X37483521Y-41170496D02*
X37578921Y-41265896D01*
X37578921Y-41265896D02*
X37674320Y-41313595D01*
X36672627Y-41647493D02*
X35909433Y-41647493D01*
X35241638Y-41027397D02*
X35050839Y-41027397D01*
X35050839Y-41027397D02*
X34955440Y-41075097D01*
X34955440Y-41075097D02*
X34860040Y-41170496D01*
X34860040Y-41170496D02*
X34812341Y-41361295D01*
X34812341Y-41361295D02*
X34812341Y-41695193D01*
X34812341Y-41695193D02*
X34860040Y-41885991D01*
X34860040Y-41885991D02*
X34955440Y-41981391D01*
X34955440Y-41981391D02*
X35050839Y-42029090D01*
X35050839Y-42029090D02*
X35241638Y-42029090D01*
X35241638Y-42029090D02*
X35337037Y-41981391D01*
X35337037Y-41981391D02*
X35432436Y-41885991D01*
X35432436Y-41885991D02*
X35480136Y-41695193D01*
X35480136Y-41695193D02*
X35480136Y-41361295D01*
X35480136Y-41361295D02*
X35432436Y-41170496D01*
X35432436Y-41170496D02*
X35337037Y-41075097D01*
X35337037Y-41075097D02*
X35241638Y-41027397D01*
X33906047Y-41027397D02*
X34383043Y-41027397D01*
X34383043Y-41027397D02*
X34430743Y-41504394D01*
X34430743Y-41504394D02*
X34383043Y-41456694D01*
X34383043Y-41456694D02*
X34287644Y-41408995D01*
X34287644Y-41408995D02*
X34049146Y-41408995D01*
X34049146Y-41408995D02*
X33953746Y-41456694D01*
X33953746Y-41456694D02*
X33906047Y-41504394D01*
X33906047Y-41504394D02*
X33858347Y-41599793D01*
X33858347Y-41599793D02*
X33858347Y-41838292D01*
X33858347Y-41838292D02*
X33906047Y-41933691D01*
X33906047Y-41933691D02*
X33953746Y-41981391D01*
X33953746Y-41981391D02*
X34049146Y-42029090D01*
X34049146Y-42029090D02*
X34287644Y-42029090D01*
X34287644Y-42029090D02*
X34383043Y-41981391D01*
X34383043Y-41981391D02*
X34430743Y-41933691D01*
X39032682Y-53953909D02*
X39032682Y-54669404D01*
X39032682Y-54669404D02*
X39080382Y-54812503D01*
X39080382Y-54812503D02*
X39175781Y-54907903D01*
X39175781Y-54907903D02*
X39318880Y-54955602D01*
X39318880Y-54955602D02*
X39414280Y-54955602D01*
X38030989Y-54955602D02*
X38603385Y-54955602D01*
X38317187Y-54955602D02*
X38317187Y-53953909D01*
X38317187Y-53953909D02*
X38412586Y-54097008D01*
X38412586Y-54097008D02*
X38507986Y-54192408D01*
X38507986Y-54192408D02*
X38603385Y-54240107D01*
X37076996Y-54955602D02*
X37649392Y-54955602D01*
X37363194Y-54955602D02*
X37363194Y-53953909D01*
X37363194Y-53953909D02*
X37458593Y-54097008D01*
X37458593Y-54097008D02*
X37553993Y-54192408D01*
X37553993Y-54192408D02*
X37649392Y-54240107D01*
X36647699Y-54574005D02*
X35884505Y-54574005D01*
X35216710Y-53953909D02*
X35025911Y-53953909D01*
X35025911Y-53953909D02*
X34930512Y-54001609D01*
X34930512Y-54001609D02*
X34835112Y-54097008D01*
X34835112Y-54097008D02*
X34787413Y-54287807D01*
X34787413Y-54287807D02*
X34787413Y-54621705D01*
X34787413Y-54621705D02*
X34835112Y-54812503D01*
X34835112Y-54812503D02*
X34930512Y-54907903D01*
X34930512Y-54907903D02*
X35025911Y-54955602D01*
X35025911Y-54955602D02*
X35216710Y-54955602D01*
X35216710Y-54955602D02*
X35312109Y-54907903D01*
X35312109Y-54907903D02*
X35407508Y-54812503D01*
X35407508Y-54812503D02*
X35455208Y-54621705D01*
X35455208Y-54621705D02*
X35455208Y-54287807D01*
X35455208Y-54287807D02*
X35407508Y-54097008D01*
X35407508Y-54097008D02*
X35312109Y-54001609D01*
X35312109Y-54001609D02*
X35216710Y-53953909D01*
X33928818Y-54287807D02*
X33928818Y-54955602D01*
X34167317Y-53906210D02*
X34405815Y-54621705D01*
X34405815Y-54621705D02*
X33785719Y-54621705D01*
X38932682Y-66953909D02*
X38932682Y-67669404D01*
X38932682Y-67669404D02*
X38980382Y-67812503D01*
X38980382Y-67812503D02*
X39075781Y-67907903D01*
X39075781Y-67907903D02*
X39218880Y-67955602D01*
X39218880Y-67955602D02*
X39314280Y-67955602D01*
X37930989Y-67955602D02*
X38503385Y-67955602D01*
X38217187Y-67955602D02*
X38217187Y-66953909D01*
X38217187Y-66953909D02*
X38312586Y-67097008D01*
X38312586Y-67097008D02*
X38407986Y-67192408D01*
X38407986Y-67192408D02*
X38503385Y-67240107D01*
X36976996Y-67955602D02*
X37549392Y-67955602D01*
X37263194Y-67955602D02*
X37263194Y-66953909D01*
X37263194Y-66953909D02*
X37358593Y-67097008D01*
X37358593Y-67097008D02*
X37453993Y-67192408D01*
X37453993Y-67192408D02*
X37549392Y-67240107D01*
X36547699Y-67574005D02*
X35784505Y-67574005D01*
X35116710Y-66953909D02*
X34925911Y-66953909D01*
X34925911Y-66953909D02*
X34830512Y-67001609D01*
X34830512Y-67001609D02*
X34735112Y-67097008D01*
X34735112Y-67097008D02*
X34687413Y-67287807D01*
X34687413Y-67287807D02*
X34687413Y-67621705D01*
X34687413Y-67621705D02*
X34735112Y-67812503D01*
X34735112Y-67812503D02*
X34830512Y-67907903D01*
X34830512Y-67907903D02*
X34925911Y-67955602D01*
X34925911Y-67955602D02*
X35116710Y-67955602D01*
X35116710Y-67955602D02*
X35212109Y-67907903D01*
X35212109Y-67907903D02*
X35307508Y-67812503D01*
X35307508Y-67812503D02*
X35355208Y-67621705D01*
X35355208Y-67621705D02*
X35355208Y-67287807D01*
X35355208Y-67287807D02*
X35307508Y-67097008D01*
X35307508Y-67097008D02*
X35212109Y-67001609D01*
X35212109Y-67001609D02*
X35116710Y-66953909D01*
X34353515Y-66953909D02*
X33733419Y-66953909D01*
X33733419Y-66953909D02*
X34067317Y-67335507D01*
X34067317Y-67335507D02*
X33924218Y-67335507D01*
X33924218Y-67335507D02*
X33828818Y-67383206D01*
X33828818Y-67383206D02*
X33781119Y-67430906D01*
X33781119Y-67430906D02*
X33733419Y-67526305D01*
X33733419Y-67526305D02*
X33733419Y-67764804D01*
X33733419Y-67764804D02*
X33781119Y-67860203D01*
X33781119Y-67860203D02*
X33828818Y-67907903D01*
X33828818Y-67907903D02*
X33924218Y-67955602D01*
X33924218Y-67955602D02*
X34210416Y-67955602D01*
X34210416Y-67955602D02*
X34305815Y-67907903D01*
X34305815Y-67907903D02*
X34353515Y-67860203D01*
X39032682Y-95953909D02*
X39032682Y-96669404D01*
X39032682Y-96669404D02*
X39080382Y-96812503D01*
X39080382Y-96812503D02*
X39175781Y-96907903D01*
X39175781Y-96907903D02*
X39318880Y-96955602D01*
X39318880Y-96955602D02*
X39414280Y-96955602D01*
X38030989Y-96955602D02*
X38603385Y-96955602D01*
X38317187Y-96955602D02*
X38317187Y-95953909D01*
X38317187Y-95953909D02*
X38412586Y-96097008D01*
X38412586Y-96097008D02*
X38507986Y-96192408D01*
X38507986Y-96192408D02*
X38603385Y-96240107D01*
X37076996Y-96955602D02*
X37649392Y-96955602D01*
X37363194Y-96955602D02*
X37363194Y-95953909D01*
X37363194Y-95953909D02*
X37458593Y-96097008D01*
X37458593Y-96097008D02*
X37553993Y-96192408D01*
X37553993Y-96192408D02*
X37649392Y-96240107D01*
X36647699Y-96574005D02*
X35884505Y-96574005D01*
X35216710Y-95953909D02*
X35025911Y-95953909D01*
X35025911Y-95953909D02*
X34930512Y-96001609D01*
X34930512Y-96001609D02*
X34835112Y-96097008D01*
X34835112Y-96097008D02*
X34787413Y-96287807D01*
X34787413Y-96287807D02*
X34787413Y-96621705D01*
X34787413Y-96621705D02*
X34835112Y-96812503D01*
X34835112Y-96812503D02*
X34930512Y-96907903D01*
X34930512Y-96907903D02*
X35025911Y-96955602D01*
X35025911Y-96955602D02*
X35216710Y-96955602D01*
X35216710Y-96955602D02*
X35312109Y-96907903D01*
X35312109Y-96907903D02*
X35407508Y-96812503D01*
X35407508Y-96812503D02*
X35455208Y-96621705D01*
X35455208Y-96621705D02*
X35455208Y-96287807D01*
X35455208Y-96287807D02*
X35407508Y-96097008D01*
X35407508Y-96097008D02*
X35312109Y-96001609D01*
X35312109Y-96001609D02*
X35216710Y-95953909D01*
X33833419Y-96955602D02*
X34405815Y-96955602D01*
X34119617Y-96955602D02*
X34119617Y-95953909D01*
X34119617Y-95953909D02*
X34215016Y-96097008D01*
X34215016Y-96097008D02*
X34310416Y-96192408D01*
X34310416Y-96192408D02*
X34405815Y-96240107D01*
X39032682Y-82953909D02*
X39032682Y-83669404D01*
X39032682Y-83669404D02*
X39080382Y-83812503D01*
X39080382Y-83812503D02*
X39175781Y-83907903D01*
X39175781Y-83907903D02*
X39318880Y-83955602D01*
X39318880Y-83955602D02*
X39414280Y-83955602D01*
X38030989Y-83955602D02*
X38603385Y-83955602D01*
X38317187Y-83955602D02*
X38317187Y-82953909D01*
X38317187Y-82953909D02*
X38412586Y-83097008D01*
X38412586Y-83097008D02*
X38507986Y-83192408D01*
X38507986Y-83192408D02*
X38603385Y-83240107D01*
X37076996Y-83955602D02*
X37649392Y-83955602D01*
X37363194Y-83955602D02*
X37363194Y-82953909D01*
X37363194Y-82953909D02*
X37458593Y-83097008D01*
X37458593Y-83097008D02*
X37553993Y-83192408D01*
X37553993Y-83192408D02*
X37649392Y-83240107D01*
X36647699Y-83574005D02*
X35884505Y-83574005D01*
X35216710Y-82953909D02*
X35025911Y-82953909D01*
X35025911Y-82953909D02*
X34930512Y-83001609D01*
X34930512Y-83001609D02*
X34835112Y-83097008D01*
X34835112Y-83097008D02*
X34787413Y-83287807D01*
X34787413Y-83287807D02*
X34787413Y-83621705D01*
X34787413Y-83621705D02*
X34835112Y-83812503D01*
X34835112Y-83812503D02*
X34930512Y-83907903D01*
X34930512Y-83907903D02*
X35025911Y-83955602D01*
X35025911Y-83955602D02*
X35216710Y-83955602D01*
X35216710Y-83955602D02*
X35312109Y-83907903D01*
X35312109Y-83907903D02*
X35407508Y-83812503D01*
X35407508Y-83812503D02*
X35455208Y-83621705D01*
X35455208Y-83621705D02*
X35455208Y-83287807D01*
X35455208Y-83287807D02*
X35407508Y-83097008D01*
X35407508Y-83097008D02*
X35312109Y-83001609D01*
X35312109Y-83001609D02*
X35216710Y-82953909D01*
X34405815Y-83049309D02*
X34358115Y-83001609D01*
X34358115Y-83001609D02*
X34262716Y-82953909D01*
X34262716Y-82953909D02*
X34024218Y-82953909D01*
X34024218Y-82953909D02*
X33928818Y-83001609D01*
X33928818Y-83001609D02*
X33881119Y-83049309D01*
X33881119Y-83049309D02*
X33833419Y-83144708D01*
X33833419Y-83144708D02*
X33833419Y-83240107D01*
X33833419Y-83240107D02*
X33881119Y-83383206D01*
X33881119Y-83383206D02*
X34453515Y-83955602D01*
X34453515Y-83955602D02*
X33833419Y-83955602D01*
D12*
X27100000Y-40522222D02*
X27100000Y-45522222D01*
X27100000Y-45522222D02*
X29600000Y-45522222D01*
X29600000Y-40522222D02*
X27100000Y-40522222D01*
X29600000Y-40522222D02*
X29600000Y-40022222D01*
X29600000Y-45522222D02*
X29600000Y-40522222D01*
X29600000Y-46022222D02*
X29600000Y-45522222D01*
X30700000Y-40022222D02*
X29600000Y-40022222D01*
X32700000Y-46022222D02*
X29600000Y-46022222D01*
X39800000Y-40022222D02*
X33300000Y-40022222D01*
X44100000Y-40022222D02*
X43000000Y-40022222D01*
X44100000Y-40022222D02*
X44100000Y-46022222D01*
X44100000Y-46022222D02*
X35300000Y-46022222D01*
X27100000Y-53566666D02*
X27100000Y-58566666D01*
X27100000Y-58566666D02*
X29600000Y-58566666D01*
X29600000Y-53566666D02*
X27100000Y-53566666D01*
X29600000Y-53566666D02*
X29600000Y-53066666D01*
X29600000Y-58566666D02*
X29600000Y-53566666D01*
X29600000Y-59066666D02*
X29600000Y-58566666D01*
X30700000Y-53066666D02*
X29600000Y-53066666D01*
X32700000Y-59066666D02*
X29600000Y-59066666D01*
X39800000Y-53066666D02*
X33300000Y-53066666D01*
X44100000Y-53066666D02*
X43000000Y-53066666D01*
X44100000Y-53066666D02*
X44100000Y-59066666D01*
X44100000Y-59066666D02*
X35300000Y-59066666D01*
X27100000Y-66611110D02*
X27100000Y-71611110D01*
X27100000Y-71611110D02*
X29600000Y-71611110D01*
X29600000Y-66611110D02*
X27100000Y-66611110D01*
X29600000Y-66611110D02*
X29600000Y-66111110D01*
X29600000Y-71611110D02*
X29600000Y-66611110D01*
X29600000Y-72111110D02*
X29600000Y-71611110D01*
X30700000Y-66111110D02*
X29600000Y-66111110D01*
X32700000Y-72111110D02*
X29600000Y-72111110D01*
X39800000Y-66111110D02*
X33300000Y-66111110D01*
X44100000Y-66111110D02*
X43000000Y-66111110D01*
X44100000Y-66111110D02*
X44100000Y-72111110D01*
X44100000Y-72111110D02*
X35300000Y-72111110D01*
X44100000Y-98199998D02*
X35300000Y-98199998D01*
X44100000Y-92199998D02*
X44100000Y-98199998D01*
X44100000Y-92199998D02*
X43000000Y-92199998D01*
X39800000Y-92199998D02*
X33300000Y-92199998D01*
X32700000Y-98199998D02*
X29600000Y-98199998D01*
X30700000Y-92199998D02*
X29600000Y-92199998D01*
X29600000Y-98199998D02*
X29600000Y-97699998D01*
X29600000Y-97699998D02*
X29600000Y-92699998D01*
X29600000Y-92699998D02*
X29600000Y-92199998D01*
X29600000Y-92699998D02*
X27100000Y-92699998D01*
X27100000Y-97699998D02*
X29600000Y-97699998D01*
X27100000Y-92699998D02*
X27100000Y-97699998D01*
X27100000Y-79655554D02*
X27100000Y-84655554D01*
X27100000Y-84655554D02*
X29600000Y-84655554D01*
X29600000Y-79655554D02*
X27100000Y-79655554D01*
X29600000Y-79655554D02*
X29600000Y-79155554D01*
X29600000Y-84655554D02*
X29600000Y-79655554D01*
X29600000Y-85155554D02*
X29600000Y-84655554D01*
X30700000Y-79155554D02*
X29600000Y-79155554D01*
X32700000Y-85155554D02*
X29600000Y-85155554D01*
X39800000Y-79155554D02*
X33300000Y-79155554D01*
X44100000Y-79155554D02*
X43000000Y-79155554D01*
X44100000Y-79155554D02*
X44100000Y-85155554D01*
X44100000Y-85155554D02*
X35300000Y-85155554D01*
%LPC*%
D13*
X33100000Y-75633332D03*
X40100000Y-75633332D03*
X33100000Y-36500000D03*
X40100000Y-36500000D03*
D14*
X69000000Y-31866932D03*
D15*
X69000000Y-34406932D03*
X69000000Y-36946932D03*
X69000000Y-39486932D03*
X69000000Y-42026932D03*
X69000000Y-44566932D03*
X69000000Y-47106932D03*
X69000000Y-49646932D03*
X69000000Y-52186932D03*
X69000000Y-54726932D03*
X69000000Y-57266932D03*
X69000000Y-59806932D03*
X69000000Y-62346932D03*
X69000000Y-64886932D03*
X69000000Y-67426932D03*
X69000000Y-69966932D03*
X69000000Y-72506932D03*
X69000000Y-75046932D03*
X69000000Y-77586932D03*
X69000000Y-80126932D03*
D13*
X33100000Y-49544444D03*
X40100000Y-49544444D03*
D15*
X51217784Y-80125663D03*
X51217784Y-77585663D03*
X51217784Y-75045663D03*
X51217784Y-72505663D03*
X51217784Y-69965663D03*
X51217784Y-67425663D03*
X51217784Y-64885663D03*
X51217784Y-62345663D03*
X51217784Y-59805663D03*
X51217784Y-57265663D03*
X51217784Y-54725663D03*
X51217784Y-52185663D03*
X51217784Y-49645663D03*
X51217784Y-47105663D03*
X51217784Y-44565663D03*
X51217784Y-42025663D03*
X51217784Y-39485663D03*
X51217784Y-36945663D03*
X51217784Y-34405663D03*
D14*
X51217784Y-31865663D03*
D13*
X33100000Y-88677776D03*
X40100000Y-88677776D03*
X33100000Y-62588888D03*
X40100000Y-62588888D03*
X33100000Y-43022222D03*
X40100000Y-43022222D03*
D16*
X32000000Y-39322222D03*
X41400000Y-39322222D03*
X34000000Y-46722222D03*
D17*
X45400000Y-43772222D03*
D13*
X33100000Y-56066666D03*
X40100000Y-56066666D03*
D16*
X32000000Y-52366666D03*
X41400000Y-52366666D03*
X34000000Y-59766666D03*
D17*
X45400000Y-56816666D03*
D13*
X33100000Y-69111110D03*
X40100000Y-69111110D03*
D16*
X32000000Y-65411110D03*
X41400000Y-65411110D03*
X34000000Y-72811110D03*
D17*
X45400000Y-69861110D03*
X45400000Y-95949998D03*
D16*
X34000000Y-98899998D03*
X41400000Y-91499998D03*
X32000000Y-91499998D03*
D13*
X40100000Y-95199998D03*
X33100000Y-95199998D03*
X33100000Y-82155554D03*
X40100000Y-82155554D03*
D16*
X32000000Y-78455554D03*
X41400000Y-78455554D03*
X34000000Y-85855554D03*
D17*
X45400000Y-82905554D03*
%LPD*%
M02*
