G04 #@! TF.GenerationSoftware,KiCad,Pcbnew,8.0.1*
G04 #@! TF.CreationDate,2024-03-31T18:38:22-05:00*
G04 #@! TF.ProjectId,dinoctopus_v2,64696e6f-6374-46f7-9075-735f76322e6b,rev?*
G04 #@! TF.SameCoordinates,Original*
G04 #@! TF.FileFunction,Copper,L2,Inr*
G04 #@! TF.FilePolarity,Positive*
%FSLAX46Y46*%
G04 Gerber Fmt 4.6, Leading zero omitted, Abs format (unit mm)*
G04 Created by KiCad (PCBNEW 8.0.1) date 2024-03-31 18:38:22*
%MOMM*%
%LPD*%
G01*
G04 APERTURE LIST*
G04 #@! TA.AperFunction,ComponentPad*
%ADD10R,1.700000X1.700000*%
G04 #@! TD*
G04 #@! TA.AperFunction,ComponentPad*
%ADD11O,1.700000X1.700000*%
G04 #@! TD*
G04 #@! TA.AperFunction,ViaPad*
%ADD12C,0.600000*%
G04 #@! TD*
G04 APERTURE END LIST*
D10*
X69000000Y-31866932D03*
D11*
X69000000Y-34406932D03*
X69000000Y-36946932D03*
X69000000Y-39486932D03*
X69000000Y-42026932D03*
X69000000Y-44566932D03*
X69000000Y-47106932D03*
X69000000Y-49646932D03*
X69000000Y-52186932D03*
X69000000Y-54726932D03*
X69000000Y-57266932D03*
X69000000Y-59806932D03*
X69000000Y-62346932D03*
X69000000Y-64886932D03*
X69000000Y-67426932D03*
X69000000Y-69966932D03*
X69000000Y-72506932D03*
X69000000Y-75046932D03*
X69000000Y-77586932D03*
X69000000Y-80126932D03*
X51217784Y-80125663D03*
X51217784Y-77585663D03*
X51217784Y-75045663D03*
X51217784Y-72505663D03*
X51217784Y-69965663D03*
X51217784Y-67425663D03*
X51217784Y-64885663D03*
X51217784Y-62345663D03*
X51217784Y-59805663D03*
X51217784Y-57265663D03*
X51217784Y-54725663D03*
X51217784Y-52185663D03*
X51217784Y-49645663D03*
X51217784Y-47105663D03*
X51217784Y-44565663D03*
X51217784Y-42025663D03*
X51217784Y-39485663D03*
X51217784Y-36945663D03*
X51217784Y-34405663D03*
D10*
X51217784Y-31865663D03*
D12*
X47000000Y-52500000D03*
X34500000Y-83000000D03*
X41675000Y-84000000D03*
X34500000Y-56500000D03*
X65000000Y-68500000D03*
X32000000Y-71000000D03*
X36078103Y-69120171D03*
X38000000Y-69000000D03*
X36106555Y-74606555D03*
X48000000Y-74000000D03*
X48000000Y-77500000D03*
X43000000Y-89500000D03*
X34000000Y-87277776D03*
X36000000Y-82000000D03*
X36000000Y-84000000D03*
X30000000Y-94500000D03*
X37500000Y-80000000D03*
X49000000Y-61000000D03*
X55470000Y-61540000D03*
X41400000Y-64388886D03*
X30000000Y-69000000D03*
X30000000Y-55500000D03*
X59500000Y-81125000D03*
X59500000Y-68250000D03*
X60292328Y-41284184D03*
X55500000Y-79500000D03*
X56000000Y-67500000D03*
X34000000Y-78000000D03*
X37500000Y-93500000D03*
X35500000Y-93500000D03*
X41400000Y-90477774D03*
X36175000Y-58000000D03*
X36175000Y-55500000D03*
X43500000Y-51000000D03*
X59500000Y-55375000D03*
X39500000Y-40500000D03*
X39000000Y-34000000D03*
X60500000Y-43000000D03*
X61500000Y-55500000D03*
X61500000Y-68000000D03*
X61500000Y-81000000D03*
X61500000Y-94000000D03*
X65000000Y-87500000D03*
X65000000Y-84500000D03*
X65000000Y-74500000D03*
X65000000Y-71500000D03*
X65000000Y-61500000D03*
X65000000Y-59000000D03*
X65000000Y-48500000D03*
X65000000Y-46000000D03*
X65000000Y-36000000D03*
X65000000Y-33500000D03*
X28000000Y-85287500D03*
X38000000Y-43000000D03*
X36000000Y-45000000D03*
X36000000Y-43000000D03*
X34000000Y-91000000D03*
X33500000Y-65000000D03*
X33500000Y-52000000D03*
X34000000Y-39000000D03*
X47325000Y-38500000D03*
X45500000Y-38500000D03*
X30000000Y-43000000D03*
X31500000Y-31500000D03*
G04 #@! TA.AperFunction,Conductor*
G36*
X49947921Y-30519685D02*
G01*
X49993676Y-30572489D01*
X50003620Y-30641647D01*
X49980149Y-30698311D01*
X49923987Y-30773332D01*
X49923986Y-30773334D01*
X49873692Y-30908180D01*
X49867285Y-30967779D01*
X49867285Y-30967786D01*
X49867284Y-30967798D01*
X49867284Y-32763533D01*
X49867285Y-32763539D01*
X49873692Y-32823146D01*
X49923986Y-32957991D01*
X49923990Y-32957998D01*
X50010236Y-33073207D01*
X50010239Y-33073210D01*
X50125448Y-33159456D01*
X50125455Y-33159460D01*
X50256865Y-33208473D01*
X50312799Y-33250344D01*
X50337216Y-33315808D01*
X50322364Y-33384081D01*
X50301214Y-33412336D01*
X50179287Y-33534263D01*
X50043749Y-33727832D01*
X50043748Y-33727834D01*
X49943882Y-33941998D01*
X49943878Y-33942007D01*
X49882722Y-34170249D01*
X49882720Y-34170259D01*
X49862125Y-34405662D01*
X49862125Y-34405663D01*
X49882720Y-34641066D01*
X49882722Y-34641076D01*
X49943878Y-34869318D01*
X49943880Y-34869322D01*
X49943881Y-34869326D01*
X50043749Y-35083493D01*
X50043751Y-35083497D01*
X50179285Y-35277058D01*
X50179290Y-35277065D01*
X50346381Y-35444156D01*
X50346387Y-35444161D01*
X50531942Y-35574088D01*
X50575567Y-35628665D01*
X50582761Y-35698163D01*
X50551238Y-35760518D01*
X50531942Y-35777238D01*
X50346381Y-35907168D01*
X50179289Y-36074260D01*
X50043749Y-36267832D01*
X50043748Y-36267834D01*
X49943882Y-36481998D01*
X49943878Y-36482007D01*
X49882722Y-36710249D01*
X49882720Y-36710259D01*
X49862125Y-36945662D01*
X49862125Y-36945663D01*
X49882720Y-37181066D01*
X49882722Y-37181076D01*
X49943878Y-37409318D01*
X49943880Y-37409322D01*
X49943881Y-37409326D01*
X49995429Y-37519871D01*
X50043749Y-37623493D01*
X50043751Y-37623497D01*
X50179285Y-37817058D01*
X50179290Y-37817065D01*
X50346381Y-37984156D01*
X50346387Y-37984161D01*
X50531942Y-38114088D01*
X50575567Y-38168665D01*
X50582761Y-38238163D01*
X50551238Y-38300518D01*
X50531942Y-38317238D01*
X50346381Y-38447168D01*
X50179289Y-38614260D01*
X50043749Y-38807832D01*
X50043748Y-38807834D01*
X49943882Y-39021998D01*
X49943878Y-39022007D01*
X49882722Y-39250249D01*
X49882720Y-39250259D01*
X49862125Y-39485662D01*
X49862125Y-39485663D01*
X49882720Y-39721066D01*
X49882722Y-39721076D01*
X49943878Y-39949318D01*
X49943880Y-39949322D01*
X49943881Y-39949326D01*
X49966456Y-39997738D01*
X50043749Y-40163493D01*
X50043751Y-40163497D01*
X50179285Y-40357058D01*
X50179290Y-40357065D01*
X50346381Y-40524156D01*
X50346387Y-40524161D01*
X50531942Y-40654088D01*
X50575567Y-40708665D01*
X50582761Y-40778163D01*
X50551238Y-40840518D01*
X50531942Y-40857238D01*
X50346381Y-40987168D01*
X50179289Y-41154260D01*
X50043749Y-41347832D01*
X50043748Y-41347834D01*
X49943882Y-41561998D01*
X49943878Y-41562007D01*
X49882722Y-41790249D01*
X49882720Y-41790259D01*
X49862125Y-42025662D01*
X49862125Y-42025663D01*
X49882720Y-42261066D01*
X49882722Y-42261076D01*
X49943878Y-42489318D01*
X49943880Y-42489322D01*
X49943881Y-42489326D01*
X50019027Y-42650476D01*
X50043749Y-42703493D01*
X50043751Y-42703497D01*
X50179285Y-42897058D01*
X50179290Y-42897065D01*
X50346381Y-43064156D01*
X50346387Y-43064161D01*
X50531942Y-43194088D01*
X50575567Y-43248665D01*
X50582761Y-43318163D01*
X50551238Y-43380518D01*
X50531942Y-43397238D01*
X50346381Y-43527168D01*
X50179289Y-43694260D01*
X50043749Y-43887832D01*
X50043748Y-43887834D01*
X49943882Y-44101998D01*
X49943878Y-44102007D01*
X49882722Y-44330249D01*
X49882720Y-44330259D01*
X49862125Y-44565662D01*
X49862125Y-44565663D01*
X49882720Y-44801066D01*
X49882722Y-44801076D01*
X49943878Y-45029318D01*
X49943880Y-45029322D01*
X49943881Y-45029326D01*
X50043749Y-45243493D01*
X50043751Y-45243497D01*
X50179285Y-45437058D01*
X50179290Y-45437065D01*
X50346381Y-45604156D01*
X50346387Y-45604161D01*
X50531942Y-45734088D01*
X50575567Y-45788665D01*
X50582761Y-45858163D01*
X50551238Y-45920518D01*
X50531942Y-45937238D01*
X50346381Y-46067168D01*
X50179289Y-46234260D01*
X50043749Y-46427832D01*
X50043748Y-46427834D01*
X49943882Y-46641998D01*
X49943878Y-46642007D01*
X49882722Y-46870249D01*
X49882720Y-46870259D01*
X49862125Y-47105662D01*
X49862125Y-47105663D01*
X49882720Y-47341066D01*
X49882722Y-47341076D01*
X49943878Y-47569318D01*
X49943880Y-47569322D01*
X49943881Y-47569326D01*
X50039421Y-47774211D01*
X50043749Y-47783493D01*
X50043751Y-47783497D01*
X50179285Y-47977058D01*
X50179290Y-47977065D01*
X50346381Y-48144156D01*
X50346387Y-48144161D01*
X50531942Y-48274088D01*
X50575567Y-48328665D01*
X50582761Y-48398163D01*
X50551238Y-48460518D01*
X50531942Y-48477238D01*
X50346381Y-48607168D01*
X50179289Y-48774260D01*
X50043749Y-48967832D01*
X50043748Y-48967834D01*
X49943882Y-49181998D01*
X49943878Y-49182007D01*
X49882722Y-49410249D01*
X49882720Y-49410259D01*
X49862125Y-49645662D01*
X49862125Y-49645663D01*
X49882720Y-49881066D01*
X49882722Y-49881076D01*
X49943878Y-50109318D01*
X49943880Y-50109322D01*
X49943881Y-50109326D01*
X50020768Y-50274211D01*
X50043749Y-50323493D01*
X50043751Y-50323497D01*
X50179285Y-50517058D01*
X50179290Y-50517065D01*
X50346381Y-50684156D01*
X50346387Y-50684161D01*
X50531942Y-50814088D01*
X50575567Y-50868665D01*
X50582761Y-50938163D01*
X50551238Y-51000518D01*
X50531942Y-51017238D01*
X50346381Y-51147168D01*
X50179289Y-51314260D01*
X50043749Y-51507832D01*
X50043748Y-51507834D01*
X49943882Y-51721998D01*
X49943878Y-51722007D01*
X49882722Y-51950249D01*
X49882720Y-51950259D01*
X49862125Y-52185662D01*
X49862125Y-52185663D01*
X49882720Y-52421066D01*
X49882722Y-52421076D01*
X49943878Y-52649318D01*
X49943880Y-52649322D01*
X49943881Y-52649326D01*
X50007319Y-52785368D01*
X50043749Y-52863493D01*
X50043751Y-52863497D01*
X50179285Y-53057058D01*
X50179290Y-53057065D01*
X50346381Y-53224156D01*
X50346387Y-53224161D01*
X50531942Y-53354088D01*
X50575567Y-53408665D01*
X50582761Y-53478163D01*
X50551238Y-53540518D01*
X50531942Y-53557238D01*
X50346381Y-53687168D01*
X50179289Y-53854260D01*
X50043749Y-54047832D01*
X50043748Y-54047834D01*
X49943882Y-54261998D01*
X49943878Y-54262007D01*
X49882722Y-54490249D01*
X49882720Y-54490259D01*
X49862125Y-54725662D01*
X49862125Y-54725663D01*
X49882720Y-54961066D01*
X49882722Y-54961076D01*
X49943878Y-55189318D01*
X49943880Y-55189322D01*
X49943881Y-55189326D01*
X50030464Y-55375003D01*
X50043749Y-55403493D01*
X50043751Y-55403497D01*
X50179285Y-55597058D01*
X50179290Y-55597065D01*
X50346381Y-55764156D01*
X50346387Y-55764161D01*
X50531942Y-55894088D01*
X50575567Y-55948665D01*
X50582761Y-56018163D01*
X50551238Y-56080518D01*
X50531942Y-56097238D01*
X50346381Y-56227168D01*
X50179289Y-56394260D01*
X50043749Y-56587832D01*
X50043748Y-56587834D01*
X49943882Y-56801998D01*
X49943878Y-56802007D01*
X49882722Y-57030249D01*
X49882720Y-57030259D01*
X49862125Y-57265662D01*
X49862125Y-57265663D01*
X49882720Y-57501066D01*
X49882722Y-57501076D01*
X49943878Y-57729318D01*
X49943880Y-57729322D01*
X49943881Y-57729326D01*
X50043749Y-57943493D01*
X50043751Y-57943497D01*
X50179285Y-58137058D01*
X50179290Y-58137065D01*
X50346381Y-58304156D01*
X50346387Y-58304161D01*
X50531942Y-58434088D01*
X50575567Y-58488665D01*
X50582761Y-58558163D01*
X50551238Y-58620518D01*
X50531942Y-58637238D01*
X50346381Y-58767168D01*
X50179289Y-58934260D01*
X50043749Y-59127832D01*
X50043748Y-59127834D01*
X49943882Y-59341998D01*
X49943878Y-59342007D01*
X49882722Y-59570249D01*
X49882720Y-59570259D01*
X49862125Y-59805662D01*
X49862125Y-59805663D01*
X49882720Y-60041066D01*
X49882722Y-60041076D01*
X49943878Y-60269318D01*
X49943880Y-60269322D01*
X49943881Y-60269326D01*
X49946159Y-60274211D01*
X50043749Y-60483493D01*
X50043751Y-60483497D01*
X50179285Y-60677058D01*
X50179290Y-60677065D01*
X50346381Y-60844156D01*
X50346387Y-60844161D01*
X50531942Y-60974088D01*
X50575567Y-61028665D01*
X50582761Y-61098163D01*
X50551238Y-61160518D01*
X50531942Y-61177238D01*
X50346381Y-61307168D01*
X50179289Y-61474260D01*
X50043749Y-61667832D01*
X50043748Y-61667834D01*
X49943882Y-61881998D01*
X49943878Y-61882007D01*
X49882722Y-62110249D01*
X49882720Y-62110259D01*
X49862125Y-62345662D01*
X49862125Y-62345663D01*
X49882720Y-62581066D01*
X49882722Y-62581076D01*
X49943878Y-62809318D01*
X49943880Y-62809322D01*
X49943881Y-62809326D01*
X50038079Y-63011333D01*
X50043749Y-63023493D01*
X50043751Y-63023497D01*
X50179285Y-63217058D01*
X50179290Y-63217065D01*
X50346381Y-63384156D01*
X50346387Y-63384161D01*
X50531942Y-63514088D01*
X50575567Y-63568665D01*
X50582761Y-63638163D01*
X50551238Y-63700518D01*
X50531942Y-63717238D01*
X50346381Y-63847168D01*
X50179289Y-64014260D01*
X50043749Y-64207832D01*
X50043748Y-64207834D01*
X49943882Y-64421998D01*
X49943878Y-64422007D01*
X49882722Y-64650249D01*
X49882720Y-64650259D01*
X49862125Y-64885662D01*
X49862125Y-64885663D01*
X49882720Y-65121066D01*
X49882722Y-65121076D01*
X49943878Y-65349318D01*
X49943880Y-65349322D01*
X49943881Y-65349326D01*
X50043749Y-65563493D01*
X50043751Y-65563497D01*
X50179285Y-65757058D01*
X50179290Y-65757065D01*
X50346381Y-65924156D01*
X50346387Y-65924161D01*
X50531942Y-66054088D01*
X50575567Y-66108665D01*
X50582761Y-66178163D01*
X50551238Y-66240518D01*
X50531942Y-66257238D01*
X50346381Y-66387168D01*
X50179289Y-66554260D01*
X50043749Y-66747832D01*
X50043748Y-66747834D01*
X49943882Y-66961998D01*
X49943878Y-66962007D01*
X49882722Y-67190249D01*
X49882720Y-67190259D01*
X49862125Y-67425662D01*
X49862125Y-67425663D01*
X49882720Y-67661066D01*
X49882722Y-67661076D01*
X49943878Y-67889318D01*
X49943880Y-67889322D01*
X49943881Y-67889326D01*
X50013073Y-68037708D01*
X50043749Y-68103493D01*
X50043751Y-68103497D01*
X50179285Y-68297058D01*
X50179290Y-68297065D01*
X50346381Y-68464156D01*
X50346387Y-68464161D01*
X50531942Y-68594088D01*
X50575567Y-68648665D01*
X50582761Y-68718163D01*
X50551238Y-68780518D01*
X50531942Y-68797238D01*
X50346381Y-68927168D01*
X50179289Y-69094260D01*
X50043749Y-69287832D01*
X50043748Y-69287834D01*
X49943882Y-69501998D01*
X49943878Y-69502007D01*
X49882722Y-69730249D01*
X49882720Y-69730259D01*
X49862125Y-69965662D01*
X49862125Y-69965663D01*
X49882720Y-70201066D01*
X49882722Y-70201076D01*
X49943878Y-70429318D01*
X49943880Y-70429322D01*
X49943881Y-70429326D01*
X50043749Y-70643493D01*
X50043751Y-70643497D01*
X50179285Y-70837058D01*
X50179290Y-70837065D01*
X50346381Y-71004156D01*
X50346387Y-71004161D01*
X50531942Y-71134088D01*
X50575567Y-71188665D01*
X50582761Y-71258163D01*
X50551238Y-71320518D01*
X50531942Y-71337238D01*
X50346381Y-71467168D01*
X50179289Y-71634260D01*
X50043749Y-71827832D01*
X50043748Y-71827834D01*
X49943882Y-72041998D01*
X49943878Y-72042007D01*
X49882722Y-72270249D01*
X49882720Y-72270259D01*
X49862125Y-72505662D01*
X49862125Y-72505663D01*
X49882720Y-72741066D01*
X49882722Y-72741076D01*
X49943878Y-72969318D01*
X49943880Y-72969322D01*
X49943881Y-72969326D01*
X50043749Y-73183493D01*
X50043751Y-73183497D01*
X50179285Y-73377058D01*
X50179290Y-73377065D01*
X50346381Y-73544156D01*
X50346387Y-73544161D01*
X50531942Y-73674088D01*
X50575567Y-73728665D01*
X50582761Y-73798163D01*
X50551238Y-73860518D01*
X50531942Y-73877238D01*
X50346381Y-74007168D01*
X50179289Y-74174260D01*
X50043749Y-74367832D01*
X50043748Y-74367834D01*
X49943882Y-74581998D01*
X49943878Y-74582007D01*
X49882722Y-74810249D01*
X49882720Y-74810259D01*
X49862125Y-75045662D01*
X49862125Y-75045663D01*
X49882720Y-75281066D01*
X49882722Y-75281076D01*
X49943878Y-75509318D01*
X49943880Y-75509322D01*
X49943881Y-75509326D01*
X49961319Y-75546721D01*
X50043749Y-75723493D01*
X50043751Y-75723497D01*
X50179285Y-75917058D01*
X50179290Y-75917065D01*
X50346381Y-76084156D01*
X50346387Y-76084161D01*
X50531942Y-76214088D01*
X50575567Y-76268665D01*
X50582761Y-76338163D01*
X50551238Y-76400518D01*
X50531942Y-76417238D01*
X50346381Y-76547168D01*
X50179289Y-76714260D01*
X50043749Y-76907832D01*
X50043748Y-76907834D01*
X49943882Y-77121998D01*
X49943878Y-77122007D01*
X49882722Y-77350249D01*
X49882720Y-77350259D01*
X49862125Y-77585662D01*
X49862125Y-77585663D01*
X49882720Y-77821066D01*
X49882722Y-77821076D01*
X49943878Y-78049318D01*
X49943880Y-78049322D01*
X49943881Y-78049326D01*
X50004465Y-78179249D01*
X50043749Y-78263493D01*
X50043751Y-78263497D01*
X50179285Y-78457058D01*
X50179290Y-78457065D01*
X50346381Y-78624156D01*
X50346387Y-78624161D01*
X50531942Y-78754088D01*
X50575567Y-78808665D01*
X50582761Y-78878163D01*
X50551238Y-78940518D01*
X50531942Y-78957238D01*
X50346381Y-79087168D01*
X50179289Y-79254260D01*
X50043749Y-79447832D01*
X50043748Y-79447834D01*
X49943882Y-79661998D01*
X49943878Y-79662007D01*
X49882722Y-79890249D01*
X49882720Y-79890259D01*
X49862125Y-80125662D01*
X49862125Y-80125663D01*
X49882720Y-80361066D01*
X49882722Y-80361076D01*
X49943878Y-80589318D01*
X49943880Y-80589322D01*
X49943881Y-80589326D01*
X50007515Y-80725789D01*
X50043749Y-80803493D01*
X50043751Y-80803497D01*
X50152065Y-80958184D01*
X50179289Y-80997064D01*
X50346383Y-81164158D01*
X50348200Y-81165430D01*
X50539949Y-81299695D01*
X50539951Y-81299696D01*
X50539954Y-81299698D01*
X50754121Y-81399566D01*
X50754127Y-81399567D01*
X50754128Y-81399568D01*
X50758857Y-81400835D01*
X50982376Y-81460726D01*
X51140073Y-81474523D01*
X51217783Y-81481322D01*
X51217784Y-81481322D01*
X51217785Y-81481322D01*
X51257018Y-81477889D01*
X51453192Y-81460726D01*
X51681447Y-81399566D01*
X51895614Y-81299698D01*
X52089185Y-81164158D01*
X52128340Y-81125003D01*
X58694435Y-81125003D01*
X58714630Y-81304249D01*
X58714631Y-81304254D01*
X58774211Y-81474523D01*
X58839711Y-81578765D01*
X58870184Y-81627262D01*
X58997738Y-81754816D01*
X59150478Y-81850789D01*
X59284979Y-81897853D01*
X59320745Y-81910368D01*
X59320750Y-81910369D01*
X59499996Y-81930565D01*
X59500000Y-81930565D01*
X59500004Y-81930565D01*
X59679249Y-81910369D01*
X59679252Y-81910368D01*
X59679255Y-81910368D01*
X59849522Y-81850789D01*
X60002262Y-81754816D01*
X60129816Y-81627262D01*
X60225789Y-81474522D01*
X60285368Y-81304255D01*
X60285369Y-81304249D01*
X60305565Y-81125003D01*
X60305565Y-81124996D01*
X60285369Y-80945750D01*
X60285368Y-80945745D01*
X60229250Y-80785369D01*
X60225789Y-80775478D01*
X60129816Y-80622738D01*
X60002262Y-80495184D01*
X59849523Y-80399211D01*
X59679254Y-80339631D01*
X59679249Y-80339630D01*
X59500004Y-80319435D01*
X59499996Y-80319435D01*
X59320750Y-80339630D01*
X59320745Y-80339631D01*
X59150476Y-80399211D01*
X58997737Y-80495184D01*
X58870184Y-80622737D01*
X58774211Y-80775476D01*
X58714631Y-80945745D01*
X58714630Y-80945750D01*
X58694435Y-81124996D01*
X58694435Y-81125003D01*
X52128340Y-81125003D01*
X52256279Y-80997064D01*
X52391819Y-80803493D01*
X52491687Y-80589326D01*
X52552847Y-80361071D01*
X52573443Y-80125663D01*
X52552847Y-79890255D01*
X52492027Y-79663269D01*
X52491689Y-79662007D01*
X52491688Y-79662006D01*
X52491687Y-79662000D01*
X52391819Y-79447834D01*
X52337449Y-79370184D01*
X52256278Y-79254260D01*
X52089186Y-79087169D01*
X52089180Y-79087164D01*
X51903626Y-78957238D01*
X51860001Y-78902661D01*
X51852807Y-78833163D01*
X51884330Y-78770808D01*
X51903626Y-78754088D01*
X51944042Y-78725788D01*
X52089185Y-78624158D01*
X52256279Y-78457064D01*
X52391819Y-78263493D01*
X52491687Y-78049326D01*
X52552847Y-77821071D01*
X52573443Y-77585663D01*
X52552847Y-77350255D01*
X52492027Y-77123269D01*
X52491689Y-77122007D01*
X52491688Y-77122006D01*
X52491687Y-77122000D01*
X52391819Y-76907834D01*
X52365457Y-76870184D01*
X52256278Y-76714260D01*
X52089186Y-76547169D01*
X52089180Y-76547164D01*
X51903626Y-76417238D01*
X51860001Y-76362661D01*
X51852807Y-76293163D01*
X51884330Y-76230808D01*
X51903626Y-76214088D01*
X52087368Y-76085430D01*
X52089185Y-76084158D01*
X52256279Y-75917064D01*
X52391819Y-75723493D01*
X52491687Y-75509326D01*
X52552847Y-75281071D01*
X52573443Y-75045663D01*
X52552847Y-74810255D01*
X52492027Y-74583269D01*
X52491689Y-74582007D01*
X52491688Y-74582006D01*
X52491687Y-74582000D01*
X52453451Y-74500003D01*
X64194435Y-74500003D01*
X64214630Y-74679249D01*
X64214631Y-74679254D01*
X64274211Y-74849523D01*
X64370184Y-75002262D01*
X64497738Y-75129816D01*
X64588080Y-75186582D01*
X64626761Y-75210887D01*
X64650478Y-75225789D01*
X64812106Y-75282345D01*
X64820745Y-75285368D01*
X64820750Y-75285369D01*
X64999996Y-75305565D01*
X65000000Y-75305565D01*
X65000004Y-75305565D01*
X65179249Y-75285369D01*
X65179252Y-75285368D01*
X65179255Y-75285368D01*
X65349522Y-75225789D01*
X65502262Y-75129816D01*
X65629816Y-75002262D01*
X65725789Y-74849522D01*
X65785368Y-74679255D01*
X65785369Y-74679249D01*
X65805565Y-74500003D01*
X65805565Y-74499996D01*
X65785369Y-74320750D01*
X65785368Y-74320745D01*
X65763074Y-74257033D01*
X65725789Y-74150478D01*
X65629816Y-73997738D01*
X65502262Y-73870184D01*
X65486879Y-73860518D01*
X65349523Y-73774211D01*
X65179254Y-73714631D01*
X65179249Y-73714630D01*
X65000004Y-73694435D01*
X64999996Y-73694435D01*
X64820750Y-73714630D01*
X64820745Y-73714631D01*
X64650476Y-73774211D01*
X64497737Y-73870184D01*
X64370184Y-73997737D01*
X64274211Y-74150476D01*
X64214631Y-74320745D01*
X64214630Y-74320750D01*
X64194435Y-74499996D01*
X64194435Y-74500003D01*
X52453451Y-74500003D01*
X52391819Y-74367834D01*
X52314235Y-74257031D01*
X52256278Y-74174260D01*
X52089186Y-74007169D01*
X52089180Y-74007164D01*
X51903626Y-73877238D01*
X51860001Y-73822661D01*
X51852807Y-73753163D01*
X51884330Y-73690808D01*
X51903626Y-73674088D01*
X52087368Y-73545430D01*
X52089185Y-73544158D01*
X52256279Y-73377064D01*
X52391819Y-73183493D01*
X52491687Y-72969326D01*
X52552847Y-72741071D01*
X52573443Y-72505663D01*
X52552847Y-72270255D01*
X52492027Y-72043269D01*
X52491689Y-72042007D01*
X52491688Y-72042006D01*
X52491687Y-72042000D01*
X52391819Y-71827834D01*
X52257167Y-71635529D01*
X52256278Y-71634260D01*
X52089186Y-71467169D01*
X52089180Y-71467164D01*
X51903626Y-71337238D01*
X51860001Y-71282661D01*
X51852807Y-71213163D01*
X51884330Y-71150808D01*
X51903626Y-71134088D01*
X52087368Y-71005430D01*
X52089185Y-71004158D01*
X52256279Y-70837064D01*
X52391819Y-70643493D01*
X52491687Y-70429326D01*
X52552847Y-70201071D01*
X52573443Y-69965663D01*
X52572118Y-69950524D01*
X52552958Y-69731524D01*
X52552847Y-69730255D01*
X52492027Y-69503269D01*
X52491689Y-69502007D01*
X52491688Y-69502006D01*
X52491687Y-69502000D01*
X52391819Y-69287834D01*
X52390093Y-69285368D01*
X52256278Y-69094260D01*
X52089186Y-68927169D01*
X52089180Y-68927164D01*
X51903626Y-68797238D01*
X51860001Y-68742661D01*
X51852807Y-68673163D01*
X51884330Y-68610808D01*
X51903626Y-68594088D01*
X51925810Y-68578554D01*
X52089185Y-68464158D01*
X52256279Y-68297064D01*
X52289231Y-68250003D01*
X58694435Y-68250003D01*
X58714630Y-68429249D01*
X58714631Y-68429254D01*
X58774211Y-68599523D01*
X58864151Y-68742661D01*
X58870184Y-68752262D01*
X58997738Y-68879816D01*
X59150478Y-68975789D01*
X59289683Y-69024499D01*
X59320745Y-69035368D01*
X59320750Y-69035369D01*
X59499996Y-69055565D01*
X59500000Y-69055565D01*
X59500004Y-69055565D01*
X59679249Y-69035369D01*
X59679252Y-69035368D01*
X59679255Y-69035368D01*
X59849522Y-68975789D01*
X60002262Y-68879816D01*
X60129816Y-68752262D01*
X60225789Y-68599522D01*
X60260612Y-68500003D01*
X64194435Y-68500003D01*
X64214630Y-68679249D01*
X64214631Y-68679254D01*
X64274211Y-68849523D01*
X64331641Y-68940921D01*
X64370184Y-69002262D01*
X64497738Y-69129816D01*
X64650478Y-69225789D01*
X64820745Y-69285368D01*
X64820750Y-69285369D01*
X64999996Y-69305565D01*
X65000000Y-69305565D01*
X65000004Y-69305565D01*
X65179249Y-69285369D01*
X65179252Y-69285368D01*
X65179255Y-69285368D01*
X65349522Y-69225789D01*
X65502262Y-69129816D01*
X65629816Y-69002262D01*
X65725789Y-68849522D01*
X65785368Y-68679255D01*
X65785369Y-68679249D01*
X65805565Y-68500003D01*
X65805565Y-68499996D01*
X65785369Y-68320750D01*
X65785368Y-68320745D01*
X65725788Y-68150476D01*
X65686582Y-68088080D01*
X65629816Y-67997738D01*
X65502262Y-67870184D01*
X65349523Y-67774211D01*
X65179254Y-67714631D01*
X65179249Y-67714630D01*
X65000004Y-67694435D01*
X64999996Y-67694435D01*
X64820750Y-67714630D01*
X64820745Y-67714631D01*
X64650476Y-67774211D01*
X64497737Y-67870184D01*
X64370184Y-67997737D01*
X64274211Y-68150476D01*
X64214631Y-68320745D01*
X64214630Y-68320750D01*
X64194435Y-68499996D01*
X64194435Y-68500003D01*
X60260612Y-68500003D01*
X60285368Y-68429255D01*
X60285369Y-68429249D01*
X60305565Y-68250003D01*
X60305565Y-68249996D01*
X60285369Y-68070750D01*
X60285368Y-68070745D01*
X60273808Y-68037708D01*
X60225789Y-67900478D01*
X60218782Y-67889327D01*
X60129815Y-67747737D01*
X60002262Y-67620184D01*
X59849523Y-67524211D01*
X59679254Y-67464631D01*
X59679249Y-67464630D01*
X59500004Y-67444435D01*
X59499996Y-67444435D01*
X59320750Y-67464630D01*
X59320745Y-67464631D01*
X59150476Y-67524211D01*
X58997737Y-67620184D01*
X58870184Y-67747737D01*
X58774211Y-67900476D01*
X58714631Y-68070745D01*
X58714630Y-68070750D01*
X58694435Y-68249996D01*
X58694435Y-68250003D01*
X52289231Y-68250003D01*
X52391819Y-68103493D01*
X52491687Y-67889326D01*
X52552847Y-67661071D01*
X52573443Y-67425663D01*
X52552847Y-67190255D01*
X52492027Y-66963269D01*
X52491689Y-66962007D01*
X52491688Y-66962006D01*
X52491687Y-66962000D01*
X52391819Y-66747834D01*
X52257167Y-66555529D01*
X52256278Y-66554260D01*
X52089186Y-66387169D01*
X52089180Y-66387164D01*
X51903626Y-66257238D01*
X51860001Y-66202661D01*
X51852807Y-66133163D01*
X51884330Y-66070808D01*
X51903626Y-66054088D01*
X52087368Y-65925430D01*
X52089185Y-65924158D01*
X52256279Y-65757064D01*
X52391819Y-65563493D01*
X52491687Y-65349326D01*
X52552847Y-65121071D01*
X52573443Y-64885663D01*
X52552847Y-64650255D01*
X52492027Y-64423269D01*
X52491689Y-64422007D01*
X52491688Y-64422006D01*
X52491687Y-64422000D01*
X52391819Y-64207834D01*
X52273855Y-64039362D01*
X52256278Y-64014260D01*
X52089186Y-63847169D01*
X52089180Y-63847164D01*
X51903626Y-63717238D01*
X51860001Y-63662661D01*
X51852807Y-63593163D01*
X51884330Y-63530808D01*
X51903626Y-63514088D01*
X51925810Y-63498554D01*
X52089185Y-63384158D01*
X52256279Y-63217064D01*
X52391819Y-63023493D01*
X52491687Y-62809326D01*
X52552847Y-62581071D01*
X52573443Y-62345663D01*
X52573434Y-62345565D01*
X52557763Y-62166443D01*
X52552847Y-62110255D01*
X52493703Y-61889523D01*
X52491689Y-61882007D01*
X52491688Y-61882006D01*
X52491687Y-61882000D01*
X52391819Y-61667834D01*
X52377691Y-61647656D01*
X52302312Y-61540003D01*
X54664435Y-61540003D01*
X54684630Y-61719249D01*
X54684631Y-61719254D01*
X54744211Y-61889523D01*
X54815050Y-62002262D01*
X54840184Y-62042262D01*
X54967738Y-62169816D01*
X55120478Y-62265789D01*
X55290745Y-62325368D01*
X55290750Y-62325369D01*
X55469996Y-62345565D01*
X55470000Y-62345565D01*
X55470004Y-62345565D01*
X55649249Y-62325369D01*
X55649252Y-62325368D01*
X55649255Y-62325368D01*
X55819522Y-62265789D01*
X55972262Y-62169816D01*
X56099816Y-62042262D01*
X56195789Y-61889522D01*
X56255368Y-61719255D01*
X56261162Y-61667832D01*
X56275565Y-61540003D01*
X56275565Y-61539996D01*
X56271059Y-61500003D01*
X64194435Y-61500003D01*
X64214630Y-61679249D01*
X64214631Y-61679254D01*
X64274211Y-61849523D01*
X64299345Y-61889523D01*
X64370184Y-62002262D01*
X64497738Y-62129816D01*
X64650478Y-62225789D01*
X64820745Y-62285368D01*
X64820750Y-62285369D01*
X64999996Y-62305565D01*
X65000000Y-62305565D01*
X65000004Y-62305565D01*
X65179249Y-62285369D01*
X65179252Y-62285368D01*
X65179255Y-62285368D01*
X65349522Y-62225789D01*
X65502262Y-62129816D01*
X65629816Y-62002262D01*
X65725789Y-61849522D01*
X65785368Y-61679255D01*
X65786655Y-61667832D01*
X65805565Y-61500003D01*
X65805565Y-61499996D01*
X65785369Y-61320750D01*
X65785368Y-61320745D01*
X65780616Y-61307164D01*
X65725789Y-61150478D01*
X65708310Y-61122661D01*
X65664642Y-61053163D01*
X65629816Y-60997738D01*
X65502262Y-60870184D01*
X65349523Y-60774211D01*
X65179254Y-60714631D01*
X65179249Y-60714630D01*
X65000004Y-60694435D01*
X64999996Y-60694435D01*
X64820750Y-60714630D01*
X64820745Y-60714631D01*
X64650476Y-60774211D01*
X64497737Y-60870184D01*
X64370184Y-60997737D01*
X64274211Y-61150476D01*
X64214631Y-61320745D01*
X64214630Y-61320750D01*
X64194435Y-61499996D01*
X64194435Y-61500003D01*
X56271059Y-61500003D01*
X56255369Y-61360750D01*
X56255368Y-61360745D01*
X56195788Y-61190476D01*
X56138581Y-61099432D01*
X56099816Y-61037738D01*
X55972262Y-60910184D01*
X55819523Y-60814211D01*
X55649254Y-60754631D01*
X55649249Y-60754630D01*
X55470004Y-60734435D01*
X55469996Y-60734435D01*
X55290750Y-60754630D01*
X55290745Y-60754631D01*
X55120476Y-60814211D01*
X54967737Y-60910184D01*
X54840184Y-61037737D01*
X54744211Y-61190476D01*
X54684631Y-61360745D01*
X54684630Y-61360750D01*
X54664435Y-61539996D01*
X54664435Y-61540003D01*
X52302312Y-61540003D01*
X52256278Y-61474260D01*
X52089186Y-61307169D01*
X52089180Y-61307164D01*
X51903626Y-61177238D01*
X51860001Y-61122661D01*
X51852807Y-61053163D01*
X51884330Y-60990808D01*
X51903626Y-60974088D01*
X52087368Y-60845430D01*
X52089185Y-60844158D01*
X52256279Y-60677064D01*
X52391819Y-60483493D01*
X52491687Y-60269326D01*
X52552847Y-60041071D01*
X52573443Y-59805663D01*
X52552847Y-59570255D01*
X52492027Y-59343269D01*
X52491689Y-59342007D01*
X52491688Y-59342006D01*
X52491687Y-59342000D01*
X52391819Y-59127834D01*
X52257167Y-58935529D01*
X52256278Y-58934260D01*
X52089186Y-58767169D01*
X52089180Y-58767164D01*
X51903626Y-58637238D01*
X51860001Y-58582661D01*
X51852807Y-58513163D01*
X51884330Y-58450808D01*
X51903626Y-58434088D01*
X52087368Y-58305430D01*
X52089185Y-58304158D01*
X52256279Y-58137064D01*
X52391819Y-57943493D01*
X52491687Y-57729326D01*
X52552847Y-57501071D01*
X52573443Y-57265663D01*
X52552847Y-57030255D01*
X52492027Y-56803269D01*
X52491689Y-56802007D01*
X52491688Y-56802006D01*
X52491687Y-56802000D01*
X52391819Y-56587834D01*
X52330320Y-56500003D01*
X52256278Y-56394260D01*
X52089186Y-56227169D01*
X52089180Y-56227164D01*
X51903626Y-56097238D01*
X51860001Y-56042661D01*
X51852807Y-55973163D01*
X51884330Y-55910808D01*
X51903626Y-55894088D01*
X51937764Y-55870184D01*
X52089185Y-55764158D01*
X52256279Y-55597064D01*
X52391819Y-55403493D01*
X52405104Y-55375003D01*
X58694435Y-55375003D01*
X58714630Y-55554249D01*
X58714631Y-55554254D01*
X58774211Y-55724523D01*
X58827270Y-55808965D01*
X58870184Y-55877262D01*
X58997738Y-56004816D01*
X59057968Y-56042661D01*
X59144826Y-56097238D01*
X59150478Y-56100789D01*
X59292475Y-56150476D01*
X59320745Y-56160368D01*
X59320750Y-56160369D01*
X59499996Y-56180565D01*
X59500000Y-56180565D01*
X59500004Y-56180565D01*
X59679249Y-56160369D01*
X59679252Y-56160368D01*
X59679255Y-56160368D01*
X59849522Y-56100789D01*
X60002262Y-56004816D01*
X60129816Y-55877262D01*
X60225789Y-55724522D01*
X60285368Y-55554255D01*
X60285369Y-55554249D01*
X60305565Y-55375003D01*
X60305565Y-55374996D01*
X60285369Y-55195750D01*
X60285368Y-55195745D01*
X60225788Y-55025476D01*
X60186114Y-54962335D01*
X60129816Y-54872738D01*
X60002262Y-54745184D01*
X59971193Y-54725662D01*
X59849523Y-54649211D01*
X59679254Y-54589631D01*
X59679249Y-54589630D01*
X59500004Y-54569435D01*
X59499996Y-54569435D01*
X59320750Y-54589630D01*
X59320745Y-54589631D01*
X59150476Y-54649211D01*
X58997737Y-54745184D01*
X58870184Y-54872737D01*
X58774211Y-55025476D01*
X58714631Y-55195745D01*
X58714630Y-55195750D01*
X58694435Y-55374996D01*
X58694435Y-55375003D01*
X52405104Y-55375003D01*
X52491687Y-55189326D01*
X52552847Y-54961071D01*
X52573443Y-54725663D01*
X52552847Y-54490255D01*
X52492027Y-54263269D01*
X52491689Y-54262007D01*
X52491688Y-54262006D01*
X52491687Y-54262000D01*
X52391819Y-54047834D01*
X52257167Y-53855529D01*
X52256278Y-53854260D01*
X52089186Y-53687169D01*
X52089180Y-53687164D01*
X51903626Y-53557238D01*
X51860001Y-53502661D01*
X51852807Y-53433163D01*
X51884330Y-53370808D01*
X51903626Y-53354088D01*
X51972924Y-53305565D01*
X52089185Y-53224158D01*
X52256279Y-53057064D01*
X52391819Y-52863493D01*
X52491687Y-52649326D01*
X52552847Y-52421071D01*
X52573443Y-52185663D01*
X52552847Y-51950255D01*
X52492027Y-51723269D01*
X52491689Y-51722007D01*
X52491688Y-51722006D01*
X52491687Y-51722000D01*
X52391819Y-51507834D01*
X52387918Y-51502262D01*
X52256278Y-51314260D01*
X52089186Y-51147169D01*
X52089180Y-51147164D01*
X51903626Y-51017238D01*
X51860001Y-50962661D01*
X51852807Y-50893163D01*
X51884330Y-50830808D01*
X51903626Y-50814088D01*
X52087368Y-50685430D01*
X52089185Y-50684158D01*
X52256279Y-50517064D01*
X52391819Y-50323493D01*
X52491687Y-50109326D01*
X52552847Y-49881071D01*
X52573443Y-49645663D01*
X52552847Y-49410255D01*
X52492027Y-49183269D01*
X52491689Y-49182007D01*
X52491688Y-49182006D01*
X52491687Y-49182000D01*
X52391819Y-48967834D01*
X52391695Y-48967656D01*
X52256278Y-48774260D01*
X52089186Y-48607169D01*
X52089180Y-48607164D01*
X51936138Y-48500003D01*
X64194435Y-48500003D01*
X64214630Y-48679249D01*
X64214631Y-48679254D01*
X64274211Y-48849523D01*
X64349349Y-48969103D01*
X64370184Y-49002262D01*
X64497738Y-49129816D01*
X64650478Y-49225789D01*
X64820745Y-49285368D01*
X64820750Y-49285369D01*
X64999996Y-49305565D01*
X65000000Y-49305565D01*
X65000004Y-49305565D01*
X65179249Y-49285369D01*
X65179252Y-49285368D01*
X65179255Y-49285368D01*
X65349522Y-49225789D01*
X65502262Y-49129816D01*
X65629816Y-49002262D01*
X65725789Y-48849522D01*
X65785368Y-48679255D01*
X65793347Y-48608438D01*
X65805565Y-48500003D01*
X65805565Y-48499996D01*
X65785369Y-48320750D01*
X65785368Y-48320745D01*
X65725788Y-48150476D01*
X65629815Y-47997737D01*
X65502262Y-47870184D01*
X65349523Y-47774211D01*
X65179254Y-47714631D01*
X65179249Y-47714630D01*
X65000004Y-47694435D01*
X64999996Y-47694435D01*
X64820750Y-47714630D01*
X64820745Y-47714631D01*
X64650476Y-47774211D01*
X64497737Y-47870184D01*
X64370184Y-47997737D01*
X64274211Y-48150476D01*
X64214631Y-48320745D01*
X64214630Y-48320750D01*
X64194435Y-48499996D01*
X64194435Y-48500003D01*
X51936138Y-48500003D01*
X51903626Y-48477238D01*
X51860001Y-48422661D01*
X51852807Y-48353163D01*
X51884330Y-48290808D01*
X51903626Y-48274088D01*
X51925810Y-48258554D01*
X52089185Y-48144158D01*
X52256279Y-47977064D01*
X52391819Y-47783493D01*
X52491687Y-47569326D01*
X52552847Y-47341071D01*
X52573443Y-47105663D01*
X52552847Y-46870255D01*
X52492027Y-46643269D01*
X52491689Y-46642007D01*
X52491688Y-46642006D01*
X52491687Y-46642000D01*
X52391819Y-46427834D01*
X52257167Y-46235529D01*
X52256278Y-46234260D01*
X52089186Y-46067169D01*
X52089180Y-46067164D01*
X51903626Y-45937238D01*
X51860001Y-45882661D01*
X51852807Y-45813163D01*
X51884330Y-45750808D01*
X51903626Y-45734088D01*
X52087368Y-45605430D01*
X52089185Y-45604158D01*
X52256279Y-45437064D01*
X52391819Y-45243493D01*
X52491687Y-45029326D01*
X52552847Y-44801071D01*
X52573443Y-44565663D01*
X52552847Y-44330255D01*
X52492027Y-44103269D01*
X52491689Y-44102007D01*
X52491688Y-44102006D01*
X52491687Y-44102000D01*
X52391819Y-43887834D01*
X52287712Y-43739152D01*
X52256278Y-43694260D01*
X52089186Y-43527169D01*
X52089180Y-43527164D01*
X51903626Y-43397238D01*
X51860001Y-43342661D01*
X51852807Y-43273163D01*
X51884330Y-43210808D01*
X51903626Y-43194088D01*
X52012279Y-43118008D01*
X52089185Y-43064158D01*
X52256279Y-42897064D01*
X52391819Y-42703493D01*
X52491687Y-42489326D01*
X52552847Y-42261071D01*
X52573443Y-42025663D01*
X52552847Y-41790255D01*
X52491687Y-41562000D01*
X52391819Y-41347834D01*
X52347254Y-41284187D01*
X59486763Y-41284187D01*
X59506958Y-41463433D01*
X59506959Y-41463438D01*
X59566539Y-41633707D01*
X59620714Y-41719925D01*
X59662512Y-41786446D01*
X59790066Y-41914000D01*
X59942806Y-42009973D01*
X60113073Y-42069552D01*
X60113078Y-42069553D01*
X60292324Y-42089749D01*
X60292328Y-42089749D01*
X60292332Y-42089749D01*
X60471577Y-42069553D01*
X60471580Y-42069552D01*
X60471583Y-42069552D01*
X60641850Y-42009973D01*
X60794590Y-41914000D01*
X60922144Y-41786446D01*
X61018117Y-41633706D01*
X61077696Y-41463439D01*
X61077697Y-41463433D01*
X61097893Y-41284187D01*
X61097893Y-41284180D01*
X61077697Y-41104934D01*
X61077696Y-41104929D01*
X61036490Y-40987169D01*
X61018117Y-40934662D01*
X60922144Y-40781922D01*
X60794590Y-40654368D01*
X60794144Y-40654088D01*
X60641851Y-40558395D01*
X60471582Y-40498815D01*
X60471577Y-40498814D01*
X60292332Y-40478619D01*
X60292324Y-40478619D01*
X60113078Y-40498814D01*
X60113073Y-40498815D01*
X59942804Y-40558395D01*
X59790065Y-40654368D01*
X59662512Y-40781921D01*
X59566539Y-40934660D01*
X59506959Y-41104929D01*
X59506958Y-41104934D01*
X59486763Y-41284180D01*
X59486763Y-41284187D01*
X52347254Y-41284187D01*
X52347249Y-41284180D01*
X52256278Y-41154260D01*
X52089186Y-40987169D01*
X52089180Y-40987164D01*
X51903626Y-40857238D01*
X51860001Y-40802661D01*
X51852807Y-40733163D01*
X51884330Y-40670808D01*
X51903626Y-40654088D01*
X51925810Y-40638554D01*
X52089185Y-40524158D01*
X52256279Y-40357064D01*
X52391819Y-40163493D01*
X52491687Y-39949326D01*
X52552847Y-39721071D01*
X52573443Y-39485663D01*
X52552847Y-39250255D01*
X52492027Y-39023269D01*
X52491689Y-39022007D01*
X52491688Y-39022006D01*
X52491687Y-39022000D01*
X52391819Y-38807834D01*
X52301788Y-38679255D01*
X52256278Y-38614260D01*
X52089186Y-38447169D01*
X52089180Y-38447164D01*
X51903626Y-38317238D01*
X51860001Y-38262661D01*
X51852807Y-38193163D01*
X51884330Y-38130808D01*
X51903626Y-38114088D01*
X51925810Y-38098554D01*
X52089185Y-37984158D01*
X52256279Y-37817064D01*
X52391819Y-37623493D01*
X52491687Y-37409326D01*
X52552847Y-37181071D01*
X52573443Y-36945663D01*
X52552847Y-36710255D01*
X52492027Y-36483269D01*
X52491689Y-36482007D01*
X52491688Y-36482006D01*
X52491687Y-36482000D01*
X52391819Y-36267834D01*
X52373942Y-36242302D01*
X52256278Y-36074260D01*
X52182021Y-36000003D01*
X64194435Y-36000003D01*
X64214630Y-36179249D01*
X64214631Y-36179254D01*
X64274211Y-36349523D01*
X64357457Y-36482007D01*
X64370184Y-36502262D01*
X64497738Y-36629816D01*
X64650478Y-36725789D01*
X64820745Y-36785368D01*
X64820750Y-36785369D01*
X64999996Y-36805565D01*
X65000000Y-36805565D01*
X65000004Y-36805565D01*
X65179249Y-36785369D01*
X65179252Y-36785368D01*
X65179255Y-36785368D01*
X65349522Y-36725789D01*
X65502262Y-36629816D01*
X65629816Y-36502262D01*
X65725789Y-36349522D01*
X65785368Y-36179255D01*
X65805565Y-36000000D01*
X65796913Y-35923212D01*
X65785369Y-35820750D01*
X65785368Y-35820745D01*
X65742919Y-35699432D01*
X65725789Y-35650478D01*
X65712880Y-35629934D01*
X65629815Y-35497737D01*
X65502262Y-35370184D01*
X65349523Y-35274211D01*
X65179254Y-35214631D01*
X65179249Y-35214630D01*
X65000004Y-35194435D01*
X64999996Y-35194435D01*
X64820750Y-35214630D01*
X64820745Y-35214631D01*
X64650476Y-35274211D01*
X64497737Y-35370184D01*
X64370184Y-35497737D01*
X64274211Y-35650476D01*
X64214631Y-35820745D01*
X64214630Y-35820750D01*
X64194435Y-35999996D01*
X64194435Y-36000003D01*
X52182021Y-36000003D01*
X52089186Y-35907169D01*
X52089180Y-35907164D01*
X51903626Y-35777238D01*
X51860001Y-35722661D01*
X51852807Y-35653163D01*
X51884330Y-35590808D01*
X51903626Y-35574088D01*
X52012666Y-35497737D01*
X52089185Y-35444158D01*
X52256279Y-35277064D01*
X52391819Y-35083493D01*
X52491687Y-34869326D01*
X52552847Y-34641071D01*
X52573443Y-34405663D01*
X52552847Y-34170255D01*
X52492027Y-33943269D01*
X52491689Y-33942007D01*
X52491688Y-33942006D01*
X52491687Y-33942000D01*
X52391819Y-33727834D01*
X52257168Y-33535532D01*
X52256280Y-33534263D01*
X52219754Y-33497737D01*
X52134351Y-33412334D01*
X52100868Y-33351014D01*
X52105852Y-33281322D01*
X52147723Y-33225388D01*
X52178699Y-33208473D01*
X52310115Y-33159459D01*
X52425330Y-33073209D01*
X52511580Y-32957994D01*
X52561875Y-32823146D01*
X52568284Y-32763536D01*
X52568283Y-30967791D01*
X52563083Y-30919420D01*
X52561875Y-30908179D01*
X52511581Y-30773334D01*
X52511580Y-30773332D01*
X52455419Y-30698311D01*
X52431002Y-30632847D01*
X52445853Y-30564574D01*
X52495258Y-30515168D01*
X52554686Y-30500000D01*
X67664048Y-30500000D01*
X67731087Y-30519685D01*
X67776842Y-30572489D01*
X67786786Y-30641647D01*
X67763315Y-30698311D01*
X67706203Y-30774601D01*
X67706202Y-30774603D01*
X67655908Y-30909449D01*
X67649501Y-30969048D01*
X67649501Y-30969055D01*
X67649500Y-30969067D01*
X67649500Y-32764802D01*
X67649501Y-32764808D01*
X67655908Y-32824415D01*
X67706202Y-32959260D01*
X67706206Y-32959267D01*
X67792452Y-33074476D01*
X67792455Y-33074479D01*
X67907664Y-33160725D01*
X67907671Y-33160729D01*
X68039081Y-33209742D01*
X68095015Y-33251613D01*
X68119432Y-33317077D01*
X68104580Y-33385350D01*
X68083430Y-33413605D01*
X67961503Y-33535532D01*
X67825965Y-33729101D01*
X67825964Y-33729103D01*
X67732401Y-33929748D01*
X67726686Y-33942007D01*
X67726098Y-33943267D01*
X67726094Y-33943276D01*
X67664938Y-34171518D01*
X67664936Y-34171528D01*
X67644341Y-34406931D01*
X67644341Y-34406932D01*
X67664936Y-34642335D01*
X67664938Y-34642345D01*
X67726094Y-34870587D01*
X67726096Y-34870591D01*
X67726097Y-34870595D01*
X67825373Y-35083493D01*
X67825965Y-35084762D01*
X67825967Y-35084766D01*
X67902759Y-35194435D01*
X67960616Y-35277064D01*
X67961501Y-35278327D01*
X67961506Y-35278334D01*
X68128597Y-35445425D01*
X68128603Y-35445430D01*
X68314158Y-35575357D01*
X68357783Y-35629934D01*
X68364977Y-35699432D01*
X68333454Y-35761787D01*
X68314158Y-35778507D01*
X68128597Y-35908437D01*
X67961505Y-36075529D01*
X67825965Y-36269101D01*
X67825964Y-36269103D01*
X67788464Y-36349523D01*
X67726686Y-36482007D01*
X67726098Y-36483267D01*
X67726094Y-36483276D01*
X67664938Y-36711518D01*
X67664936Y-36711528D01*
X67644341Y-36946931D01*
X67644341Y-36946932D01*
X67664936Y-37182335D01*
X67664938Y-37182345D01*
X67726094Y-37410587D01*
X67726096Y-37410591D01*
X67726097Y-37410595D01*
X67802015Y-37573402D01*
X67825965Y-37624762D01*
X67825967Y-37624766D01*
X67930610Y-37774211D01*
X67960616Y-37817064D01*
X67961501Y-37818327D01*
X67961506Y-37818334D01*
X68128597Y-37985425D01*
X68128603Y-37985430D01*
X68314158Y-38115357D01*
X68357783Y-38169934D01*
X68364977Y-38239432D01*
X68333454Y-38301787D01*
X68314158Y-38318507D01*
X68128597Y-38448437D01*
X67961505Y-38615529D01*
X67825965Y-38809101D01*
X67825964Y-38809103D01*
X67736949Y-38999996D01*
X67726686Y-39022007D01*
X67726098Y-39023267D01*
X67726094Y-39023276D01*
X67664938Y-39251518D01*
X67664936Y-39251528D01*
X67644341Y-39486931D01*
X67644341Y-39486932D01*
X67664936Y-39722335D01*
X67664938Y-39722345D01*
X67726094Y-39950587D01*
X67726096Y-39950591D01*
X67726097Y-39950595D01*
X67819303Y-40150476D01*
X67825965Y-40164762D01*
X67825967Y-40164766D01*
X67934281Y-40319453D01*
X67960616Y-40357064D01*
X67961501Y-40358327D01*
X67961506Y-40358334D01*
X68128597Y-40525425D01*
X68128603Y-40525430D01*
X68314594Y-40655662D01*
X68358219Y-40710239D01*
X68365413Y-40779737D01*
X68333890Y-40842092D01*
X68314595Y-40858812D01*
X68128922Y-40988822D01*
X68128920Y-40988823D01*
X67961891Y-41155852D01*
X67961886Y-41155858D01*
X67826400Y-41349352D01*
X67826399Y-41349354D01*
X67726570Y-41563439D01*
X67726567Y-41563445D01*
X67669364Y-41776931D01*
X67669364Y-41776932D01*
X68566988Y-41776932D01*
X68534075Y-41833939D01*
X68500000Y-41961106D01*
X68500000Y-42092758D01*
X68534075Y-42219925D01*
X68566988Y-42276932D01*
X67669364Y-42276932D01*
X67726567Y-42490418D01*
X67726570Y-42490424D01*
X67826399Y-42704510D01*
X67961894Y-42898014D01*
X68128917Y-43065037D01*
X68314595Y-43195051D01*
X68358219Y-43249628D01*
X68365412Y-43319127D01*
X68333890Y-43381481D01*
X68314595Y-43398201D01*
X68128594Y-43528440D01*
X67961505Y-43695529D01*
X67825965Y-43889101D01*
X67825964Y-43889103D01*
X67791294Y-43963454D01*
X67726686Y-44102007D01*
X67726098Y-44103267D01*
X67726094Y-44103276D01*
X67664938Y-44331518D01*
X67664936Y-44331528D01*
X67644341Y-44566931D01*
X67644341Y-44566932D01*
X67664936Y-44802335D01*
X67664938Y-44802345D01*
X67726094Y-45030587D01*
X67726096Y-45030591D01*
X67726097Y-45030595D01*
X67825373Y-45243493D01*
X67825965Y-45244762D01*
X67825967Y-45244766D01*
X67934281Y-45399453D01*
X67960616Y-45437064D01*
X67961501Y-45438327D01*
X67961506Y-45438334D01*
X68128597Y-45605425D01*
X68128603Y-45605430D01*
X68314158Y-45735357D01*
X68357783Y-45789934D01*
X68364977Y-45859432D01*
X68333454Y-45921787D01*
X68314158Y-45938507D01*
X68128597Y-46068437D01*
X67961505Y-46235529D01*
X67825965Y-46429101D01*
X67825964Y-46429103D01*
X67732401Y-46629748D01*
X67726686Y-46642007D01*
X67726098Y-46643267D01*
X67726094Y-46643276D01*
X67664938Y-46871518D01*
X67664936Y-46871528D01*
X67644341Y-47106931D01*
X67644341Y-47106932D01*
X67664936Y-47342335D01*
X67664938Y-47342345D01*
X67726094Y-47570587D01*
X67726096Y-47570591D01*
X67726097Y-47570595D01*
X67783845Y-47694435D01*
X67825965Y-47784762D01*
X67825967Y-47784766D01*
X67885778Y-47870184D01*
X67960616Y-47977064D01*
X67961501Y-47978327D01*
X67961506Y-47978334D01*
X68128597Y-48145425D01*
X68128603Y-48145430D01*
X68314158Y-48275357D01*
X68357783Y-48329934D01*
X68364977Y-48399432D01*
X68333454Y-48461787D01*
X68314158Y-48478507D01*
X68128597Y-48608437D01*
X67961505Y-48775529D01*
X67825965Y-48969101D01*
X67825964Y-48969103D01*
X67754669Y-49121996D01*
X67726686Y-49182007D01*
X67726098Y-49183267D01*
X67726094Y-49183276D01*
X67664938Y-49411518D01*
X67664936Y-49411528D01*
X67644341Y-49646931D01*
X67644341Y-49646932D01*
X67664936Y-49882335D01*
X67664938Y-49882345D01*
X67726094Y-50110587D01*
X67726096Y-50110591D01*
X67726097Y-50110595D01*
X67796406Y-50261372D01*
X67825965Y-50324762D01*
X67825967Y-50324766D01*
X67934281Y-50479453D01*
X67960616Y-50517064D01*
X67961501Y-50518327D01*
X67961506Y-50518334D01*
X68128597Y-50685425D01*
X68128603Y-50685430D01*
X68314158Y-50815357D01*
X68357783Y-50869934D01*
X68364977Y-50939432D01*
X68333454Y-51001787D01*
X68314158Y-51018507D01*
X68128597Y-51148437D01*
X67961505Y-51315529D01*
X67825965Y-51509101D01*
X67825964Y-51509103D01*
X67769675Y-51629816D01*
X67726686Y-51722007D01*
X67726098Y-51723267D01*
X67726094Y-51723276D01*
X67664938Y-51951518D01*
X67664936Y-51951528D01*
X67644341Y-52186931D01*
X67644341Y-52186932D01*
X67664936Y-52422335D01*
X67664938Y-52422345D01*
X67726094Y-52650587D01*
X67726096Y-52650591D01*
X67726097Y-52650595D01*
X67798361Y-52805565D01*
X67825965Y-52864762D01*
X67825967Y-52864766D01*
X67922244Y-53002262D01*
X67960616Y-53057064D01*
X67961501Y-53058327D01*
X67961506Y-53058334D01*
X68128597Y-53225425D01*
X68128603Y-53225430D01*
X68314158Y-53355357D01*
X68357783Y-53409934D01*
X68364977Y-53479432D01*
X68333454Y-53541787D01*
X68314158Y-53558507D01*
X68128597Y-53688437D01*
X67961505Y-53855529D01*
X67825965Y-54049101D01*
X67825964Y-54049103D01*
X67732401Y-54249748D01*
X67726686Y-54262007D01*
X67726098Y-54263267D01*
X67726094Y-54263276D01*
X67664938Y-54491518D01*
X67664936Y-54491528D01*
X67644341Y-54726931D01*
X67644341Y-54726932D01*
X67664936Y-54962335D01*
X67664938Y-54962345D01*
X67726094Y-55190587D01*
X67726096Y-55190591D01*
X67726097Y-55190595D01*
X67800306Y-55349736D01*
X67825965Y-55404762D01*
X67825967Y-55404766D01*
X67930641Y-55554255D01*
X67960616Y-55597064D01*
X67961501Y-55598327D01*
X67961506Y-55598334D01*
X68128597Y-55765425D01*
X68128603Y-55765430D01*
X68314158Y-55895357D01*
X68357783Y-55949934D01*
X68364977Y-56019432D01*
X68333454Y-56081787D01*
X68314158Y-56098507D01*
X68128597Y-56228437D01*
X67961505Y-56395529D01*
X67825965Y-56589101D01*
X67825964Y-56589103D01*
X67783926Y-56679255D01*
X67726686Y-56802007D01*
X67726098Y-56803267D01*
X67726094Y-56803276D01*
X67664938Y-57031518D01*
X67664936Y-57031528D01*
X67644341Y-57266931D01*
X67644341Y-57266932D01*
X67664936Y-57502335D01*
X67664938Y-57502345D01*
X67726094Y-57730587D01*
X67726096Y-57730591D01*
X67726097Y-57730595D01*
X67825373Y-57943493D01*
X67825965Y-57944762D01*
X67825967Y-57944766D01*
X67934281Y-58099453D01*
X67960616Y-58137064D01*
X67961501Y-58138327D01*
X67961506Y-58138334D01*
X68128597Y-58305425D01*
X68128603Y-58305430D01*
X68314158Y-58435357D01*
X68357783Y-58489934D01*
X68364977Y-58559432D01*
X68333454Y-58621787D01*
X68314158Y-58638507D01*
X68128597Y-58768437D01*
X67961505Y-58935529D01*
X67825965Y-59129101D01*
X67825964Y-59129103D01*
X67732401Y-59329748D01*
X67726686Y-59342007D01*
X67726098Y-59343267D01*
X67726094Y-59343276D01*
X67664938Y-59571518D01*
X67664936Y-59571528D01*
X67644341Y-59806931D01*
X67644341Y-59806932D01*
X67664936Y-60042335D01*
X67664938Y-60042345D01*
X67726094Y-60270587D01*
X67726096Y-60270591D01*
X67726097Y-60270595D01*
X67825373Y-60483493D01*
X67825965Y-60484762D01*
X67825967Y-60484766D01*
X67934281Y-60639453D01*
X67960616Y-60677064D01*
X67961501Y-60678327D01*
X67961506Y-60678334D01*
X68128597Y-60845425D01*
X68128603Y-60845430D01*
X68314158Y-60975357D01*
X68357783Y-61029934D01*
X68364977Y-61099432D01*
X68333454Y-61161787D01*
X68314158Y-61178507D01*
X68128597Y-61308437D01*
X67961505Y-61475529D01*
X67825965Y-61669101D01*
X67825964Y-61669103D01*
X67762331Y-61805565D01*
X67726686Y-61882007D01*
X67726098Y-61883267D01*
X67726094Y-61883276D01*
X67664938Y-62111518D01*
X67664936Y-62111528D01*
X67644341Y-62346931D01*
X67644341Y-62346932D01*
X67664936Y-62582335D01*
X67664938Y-62582345D01*
X67726094Y-62810587D01*
X67726096Y-62810591D01*
X67726097Y-62810595D01*
X67819703Y-63011333D01*
X67825965Y-63024762D01*
X67825967Y-63024766D01*
X67924634Y-63165676D01*
X67960616Y-63217064D01*
X67961501Y-63218327D01*
X67961506Y-63218334D01*
X68128597Y-63385425D01*
X68128603Y-63385430D01*
X68314158Y-63515357D01*
X68357783Y-63569934D01*
X68364977Y-63639432D01*
X68333454Y-63701787D01*
X68314158Y-63718507D01*
X68128597Y-63848437D01*
X67961505Y-64015529D01*
X67825965Y-64209101D01*
X67825964Y-64209103D01*
X67795604Y-64274211D01*
X67726686Y-64422007D01*
X67726098Y-64423267D01*
X67726094Y-64423276D01*
X67664938Y-64651518D01*
X67664936Y-64651528D01*
X67644341Y-64886931D01*
X67644341Y-64886932D01*
X67664936Y-65122335D01*
X67664938Y-65122345D01*
X67726094Y-65350587D01*
X67726096Y-65350591D01*
X67726097Y-65350595D01*
X67796821Y-65502262D01*
X67825965Y-65564762D01*
X67825967Y-65564766D01*
X67871516Y-65629816D01*
X67960616Y-65757064D01*
X67961501Y-65758327D01*
X67961506Y-65758334D01*
X68128597Y-65925425D01*
X68128603Y-65925430D01*
X68314158Y-66055357D01*
X68357783Y-66109934D01*
X68364977Y-66179432D01*
X68333454Y-66241787D01*
X68314158Y-66258507D01*
X68128597Y-66388437D01*
X67961505Y-66555529D01*
X67825965Y-66749101D01*
X67825964Y-66749103D01*
X67732401Y-66949748D01*
X67726686Y-66962007D01*
X67726098Y-66963267D01*
X67726094Y-66963276D01*
X67664938Y-67191518D01*
X67664936Y-67191528D01*
X67644341Y-67426931D01*
X67644341Y-67426932D01*
X67664936Y-67662335D01*
X67664938Y-67662345D01*
X67726094Y-67890587D01*
X67726096Y-67890591D01*
X67726097Y-67890595D01*
X67776059Y-67997738D01*
X67825965Y-68104762D01*
X67825967Y-68104766D01*
X67927659Y-68249996D01*
X67960616Y-68297064D01*
X67961501Y-68298327D01*
X67961506Y-68298334D01*
X68128597Y-68465425D01*
X68128603Y-68465430D01*
X68314158Y-68595357D01*
X68357783Y-68649934D01*
X68364977Y-68719432D01*
X68333454Y-68781787D01*
X68314158Y-68798507D01*
X68128597Y-68928437D01*
X67961505Y-69095529D01*
X67825965Y-69289101D01*
X67825964Y-69289103D01*
X67788798Y-69368807D01*
X67726686Y-69502007D01*
X67726098Y-69503267D01*
X67726094Y-69503276D01*
X67664938Y-69731518D01*
X67664936Y-69731528D01*
X67644341Y-69966931D01*
X67644341Y-69966932D01*
X67664936Y-70202335D01*
X67664938Y-70202345D01*
X67726094Y-70430587D01*
X67726096Y-70430591D01*
X67726097Y-70430595D01*
X67825373Y-70643493D01*
X67825965Y-70644762D01*
X67825967Y-70644766D01*
X67934281Y-70799453D01*
X67960616Y-70837064D01*
X67961501Y-70838327D01*
X67961506Y-70838334D01*
X68128597Y-71005425D01*
X68128603Y-71005430D01*
X68314158Y-71135357D01*
X68357783Y-71189934D01*
X68364977Y-71259432D01*
X68333454Y-71321787D01*
X68314158Y-71338507D01*
X68128597Y-71468437D01*
X67961505Y-71635529D01*
X67825965Y-71829101D01*
X67825964Y-71829103D01*
X67732401Y-72029748D01*
X67726686Y-72042007D01*
X67726098Y-72043267D01*
X67726094Y-72043276D01*
X67664938Y-72271518D01*
X67664936Y-72271528D01*
X67644341Y-72506931D01*
X67644341Y-72506932D01*
X67664936Y-72742335D01*
X67664938Y-72742345D01*
X67726094Y-72970587D01*
X67726096Y-72970591D01*
X67726097Y-72970595D01*
X67825373Y-73183493D01*
X67825965Y-73184762D01*
X67825967Y-73184766D01*
X67846880Y-73214632D01*
X67960616Y-73377064D01*
X67961501Y-73378327D01*
X67961506Y-73378334D01*
X68128597Y-73545425D01*
X68128603Y-73545430D01*
X68314158Y-73675357D01*
X68357783Y-73729934D01*
X68364977Y-73799432D01*
X68333454Y-73861787D01*
X68314158Y-73878507D01*
X68128597Y-74008437D01*
X67961505Y-74175529D01*
X67825965Y-74369101D01*
X67825964Y-74369103D01*
X67764928Y-74499996D01*
X67726686Y-74582007D01*
X67726098Y-74583267D01*
X67726094Y-74583276D01*
X67664938Y-74811518D01*
X67664936Y-74811528D01*
X67644341Y-75046931D01*
X67644341Y-75046932D01*
X67664936Y-75282335D01*
X67664938Y-75282345D01*
X67726094Y-75510587D01*
X67726096Y-75510591D01*
X67726097Y-75510595D01*
X67742943Y-75546721D01*
X67825965Y-75724762D01*
X67825967Y-75724766D01*
X67934281Y-75879453D01*
X67960616Y-75917064D01*
X67961501Y-75918327D01*
X67961506Y-75918334D01*
X68128597Y-76085425D01*
X68128603Y-76085430D01*
X68314158Y-76215357D01*
X68357783Y-76269934D01*
X68364977Y-76339432D01*
X68333454Y-76401787D01*
X68314158Y-76418507D01*
X68128597Y-76548437D01*
X67961505Y-76715529D01*
X67825965Y-76909101D01*
X67825964Y-76909103D01*
X67732401Y-77109748D01*
X67726686Y-77122007D01*
X67726098Y-77123267D01*
X67726094Y-77123276D01*
X67664938Y-77351518D01*
X67664936Y-77351528D01*
X67644341Y-77586931D01*
X67644341Y-77586932D01*
X67664936Y-77822335D01*
X67664938Y-77822345D01*
X67726094Y-78050587D01*
X67726096Y-78050591D01*
X67726097Y-78050595D01*
X67807791Y-78225788D01*
X67825965Y-78264762D01*
X67825967Y-78264766D01*
X67885315Y-78349523D01*
X67960616Y-78457064D01*
X67961501Y-78458327D01*
X67961506Y-78458334D01*
X68128597Y-78625425D01*
X68128603Y-78625430D01*
X68314158Y-78755357D01*
X68357783Y-78809934D01*
X68364977Y-78879432D01*
X68333454Y-78941787D01*
X68314158Y-78958507D01*
X68128597Y-79088437D01*
X67961505Y-79255529D01*
X67825965Y-79449101D01*
X67825964Y-79449103D01*
X67732401Y-79649748D01*
X67726686Y-79662007D01*
X67726098Y-79663267D01*
X67726094Y-79663276D01*
X67664938Y-79891518D01*
X67664936Y-79891528D01*
X67644341Y-80126931D01*
X67644341Y-80126932D01*
X67664936Y-80362335D01*
X67664938Y-80362345D01*
X67726094Y-80590587D01*
X67726096Y-80590591D01*
X67726097Y-80590595D01*
X67789139Y-80725788D01*
X67825965Y-80804762D01*
X67825967Y-80804766D01*
X67924682Y-80945745D01*
X67961505Y-80998333D01*
X68128599Y-81165427D01*
X68198428Y-81214322D01*
X68322165Y-81300964D01*
X68322167Y-81300965D01*
X68322170Y-81300967D01*
X68536337Y-81400835D01*
X68764592Y-81461995D01*
X68952918Y-81478471D01*
X68999999Y-81482591D01*
X69000000Y-81482591D01*
X69000001Y-81482591D01*
X69039234Y-81479158D01*
X69235408Y-81461995D01*
X69463663Y-81400835D01*
X69677830Y-81300967D01*
X69871401Y-81165427D01*
X70038495Y-80998333D01*
X70174035Y-80804762D01*
X70273903Y-80590595D01*
X70335063Y-80362340D01*
X70355659Y-80126932D01*
X70335063Y-79891524D01*
X70273903Y-79663269D01*
X70174035Y-79449103D01*
X70173147Y-79447834D01*
X70038494Y-79255529D01*
X69871402Y-79088438D01*
X69871396Y-79088433D01*
X69685842Y-78958507D01*
X69642217Y-78903930D01*
X69635023Y-78834432D01*
X69666546Y-78772077D01*
X69685842Y-78755357D01*
X69728071Y-78725788D01*
X69871401Y-78625427D01*
X70038495Y-78458333D01*
X70174035Y-78264762D01*
X70273903Y-78050595D01*
X70335063Y-77822340D01*
X70355659Y-77586932D01*
X70335063Y-77351524D01*
X70273903Y-77123269D01*
X70174035Y-76909103D01*
X70173147Y-76907834D01*
X70038494Y-76715529D01*
X69871402Y-76548438D01*
X69871396Y-76548433D01*
X69685842Y-76418507D01*
X69642217Y-76363930D01*
X69635023Y-76294432D01*
X69666546Y-76232077D01*
X69685842Y-76215357D01*
X69708026Y-76199823D01*
X69871401Y-76085427D01*
X70038495Y-75918333D01*
X70174035Y-75724762D01*
X70273903Y-75510595D01*
X70335063Y-75282340D01*
X70355659Y-75046932D01*
X70335063Y-74811524D01*
X70273903Y-74583269D01*
X70174035Y-74369103D01*
X70173147Y-74367834D01*
X70038494Y-74175529D01*
X69871402Y-74008438D01*
X69871396Y-74008433D01*
X69685842Y-73878507D01*
X69642217Y-73823930D01*
X69635023Y-73754432D01*
X69666546Y-73692077D01*
X69685842Y-73675357D01*
X69721376Y-73650476D01*
X69871401Y-73545427D01*
X70038495Y-73378333D01*
X70174035Y-73184762D01*
X70273903Y-72970595D01*
X70335063Y-72742340D01*
X70355659Y-72506932D01*
X70335063Y-72271524D01*
X70273903Y-72043269D01*
X70174035Y-71829103D01*
X70173147Y-71827834D01*
X70038494Y-71635529D01*
X69871402Y-71468438D01*
X69871396Y-71468433D01*
X69685842Y-71338507D01*
X69642217Y-71283930D01*
X69635023Y-71214432D01*
X69666546Y-71152077D01*
X69685842Y-71135357D01*
X69708026Y-71119823D01*
X69871401Y-71005427D01*
X70038495Y-70838333D01*
X70174035Y-70644762D01*
X70273903Y-70430595D01*
X70335063Y-70202340D01*
X70355659Y-69966932D01*
X70354223Y-69950524D01*
X70335063Y-69731528D01*
X70335063Y-69731524D01*
X70273903Y-69503269D01*
X70174035Y-69289103D01*
X70173147Y-69287834D01*
X70038494Y-69095529D01*
X69871402Y-68928438D01*
X69871396Y-68928433D01*
X69685842Y-68798507D01*
X69642217Y-68743930D01*
X69635023Y-68674432D01*
X69666546Y-68612077D01*
X69685842Y-68595357D01*
X69822021Y-68500003D01*
X69871401Y-68465427D01*
X70038495Y-68298333D01*
X70174035Y-68104762D01*
X70273903Y-67890595D01*
X70335063Y-67662340D01*
X70355659Y-67426932D01*
X70335063Y-67191524D01*
X70273903Y-66963269D01*
X70174035Y-66749103D01*
X70173147Y-66747834D01*
X70038494Y-66555529D01*
X69871402Y-66388438D01*
X69871396Y-66388433D01*
X69685842Y-66258507D01*
X69642217Y-66203930D01*
X69635023Y-66134432D01*
X69666546Y-66072077D01*
X69685842Y-66055357D01*
X69708026Y-66039823D01*
X69871401Y-65925427D01*
X70038495Y-65758333D01*
X70174035Y-65564762D01*
X70273903Y-65350595D01*
X70335063Y-65122340D01*
X70355659Y-64886932D01*
X70335063Y-64651524D01*
X70273903Y-64423269D01*
X70174035Y-64209103D01*
X70173147Y-64207834D01*
X70038494Y-64015529D01*
X69871402Y-63848438D01*
X69871396Y-63848433D01*
X69685842Y-63718507D01*
X69642217Y-63663930D01*
X69635023Y-63594432D01*
X69666546Y-63532077D01*
X69685842Y-63515357D01*
X69810173Y-63428299D01*
X69871401Y-63385427D01*
X70038495Y-63218333D01*
X70174035Y-63024762D01*
X70273903Y-62810595D01*
X70335063Y-62582340D01*
X70355659Y-62346932D01*
X70354281Y-62331187D01*
X70339868Y-62166443D01*
X70335063Y-62111524D01*
X70275579Y-61889523D01*
X70273905Y-61883276D01*
X70273904Y-61883275D01*
X70273903Y-61883269D01*
X70174035Y-61669103D01*
X70173147Y-61667834D01*
X70038494Y-61475529D01*
X69871402Y-61308438D01*
X69871396Y-61308433D01*
X69685842Y-61178507D01*
X69642217Y-61123930D01*
X69635023Y-61054432D01*
X69666546Y-60992077D01*
X69685842Y-60975357D01*
X69708026Y-60959823D01*
X69871401Y-60845427D01*
X70038495Y-60678333D01*
X70174035Y-60484762D01*
X70273903Y-60270595D01*
X70335063Y-60042340D01*
X70355659Y-59806932D01*
X70335063Y-59571524D01*
X70273903Y-59343269D01*
X70174035Y-59129103D01*
X70173147Y-59127834D01*
X70038494Y-58935529D01*
X69871402Y-58768438D01*
X69871396Y-58768433D01*
X69685842Y-58638507D01*
X69642217Y-58583930D01*
X69635023Y-58514432D01*
X69666546Y-58452077D01*
X69685842Y-58435357D01*
X69708026Y-58419823D01*
X69871401Y-58305427D01*
X70038495Y-58138333D01*
X70174035Y-57944762D01*
X70273903Y-57730595D01*
X70335063Y-57502340D01*
X70355659Y-57266932D01*
X70335063Y-57031524D01*
X70273903Y-56803269D01*
X70174035Y-56589103D01*
X70173147Y-56587834D01*
X70038494Y-56395529D01*
X69871402Y-56228438D01*
X69871396Y-56228433D01*
X69685842Y-56098507D01*
X69642217Y-56043930D01*
X69635023Y-55974432D01*
X69666546Y-55912077D01*
X69685842Y-55895357D01*
X69809222Y-55808965D01*
X69871401Y-55765427D01*
X70038495Y-55598333D01*
X70174035Y-55404762D01*
X70273903Y-55190595D01*
X70335063Y-54962340D01*
X70355659Y-54726932D01*
X70335063Y-54491524D01*
X70273903Y-54263269D01*
X70174035Y-54049103D01*
X70173147Y-54047834D01*
X70038494Y-53855529D01*
X69871402Y-53688438D01*
X69871396Y-53688433D01*
X69685842Y-53558507D01*
X69642217Y-53503930D01*
X69635023Y-53434432D01*
X69666546Y-53372077D01*
X69685842Y-53355357D01*
X69785796Y-53285368D01*
X69871401Y-53225427D01*
X70038495Y-53058333D01*
X70174035Y-52864762D01*
X70273903Y-52650595D01*
X70335063Y-52422340D01*
X70355659Y-52186932D01*
X70335063Y-51951524D01*
X70273903Y-51723269D01*
X70174035Y-51509103D01*
X70173147Y-51507834D01*
X70038494Y-51315529D01*
X69871402Y-51148438D01*
X69871396Y-51148433D01*
X69685842Y-51018507D01*
X69642217Y-50963930D01*
X69635023Y-50894432D01*
X69666546Y-50832077D01*
X69685842Y-50815357D01*
X69708026Y-50799823D01*
X69871401Y-50685427D01*
X70038495Y-50518333D01*
X70174035Y-50324762D01*
X70273903Y-50110595D01*
X70335063Y-49882340D01*
X70355659Y-49646932D01*
X70335063Y-49411524D01*
X70273903Y-49183269D01*
X70174035Y-48969103D01*
X70173147Y-48967834D01*
X70038494Y-48775529D01*
X69871402Y-48608438D01*
X69871396Y-48608433D01*
X69685842Y-48478507D01*
X69642217Y-48423930D01*
X69635023Y-48354432D01*
X69666546Y-48292077D01*
X69685842Y-48275357D01*
X69864190Y-48150476D01*
X69871401Y-48145427D01*
X70038495Y-47978333D01*
X70174035Y-47784762D01*
X70273903Y-47570595D01*
X70335063Y-47342340D01*
X70355659Y-47106932D01*
X70335063Y-46871524D01*
X70273903Y-46643269D01*
X70174035Y-46429103D01*
X70173147Y-46427834D01*
X70038494Y-46235529D01*
X69871402Y-46068438D01*
X69871396Y-46068433D01*
X69685842Y-45938507D01*
X69642217Y-45883930D01*
X69635023Y-45814432D01*
X69666546Y-45752077D01*
X69685842Y-45735357D01*
X69708026Y-45719823D01*
X69871401Y-45605427D01*
X70038495Y-45438333D01*
X70174035Y-45244762D01*
X70273903Y-45030595D01*
X70335063Y-44802340D01*
X70355659Y-44566932D01*
X70335063Y-44331524D01*
X70273903Y-44103269D01*
X70174035Y-43889103D01*
X70173147Y-43887834D01*
X70038494Y-43695529D01*
X69871402Y-43528438D01*
X69871401Y-43528437D01*
X69685405Y-43398201D01*
X69641781Y-43343624D01*
X69634588Y-43274125D01*
X69666110Y-43211771D01*
X69685405Y-43195051D01*
X69871082Y-43065037D01*
X70038105Y-42898014D01*
X70173600Y-42704510D01*
X70273429Y-42490424D01*
X70273432Y-42490418D01*
X70330636Y-42276932D01*
X69433012Y-42276932D01*
X69465925Y-42219925D01*
X69500000Y-42092758D01*
X69500000Y-41961106D01*
X69465925Y-41833939D01*
X69433012Y-41776932D01*
X70330636Y-41776932D01*
X70330635Y-41776931D01*
X70273432Y-41563445D01*
X70273429Y-41563439D01*
X70173600Y-41349354D01*
X70173599Y-41349352D01*
X70038113Y-41155858D01*
X70038108Y-41155852D01*
X69871078Y-40988822D01*
X69685405Y-40858811D01*
X69641780Y-40804234D01*
X69634588Y-40734736D01*
X69666110Y-40672381D01*
X69685406Y-40655662D01*
X69687654Y-40654088D01*
X69871401Y-40525427D01*
X70038495Y-40358333D01*
X70174035Y-40164762D01*
X70273903Y-39950595D01*
X70335063Y-39722340D01*
X70355659Y-39486932D01*
X70335063Y-39251524D01*
X70273903Y-39023269D01*
X70174035Y-38809103D01*
X70173147Y-38807834D01*
X70038494Y-38615529D01*
X69871402Y-38448438D01*
X69871396Y-38448433D01*
X69685842Y-38318507D01*
X69642217Y-38263930D01*
X69635023Y-38194432D01*
X69666546Y-38132077D01*
X69685842Y-38115357D01*
X69708026Y-38099823D01*
X69871401Y-37985427D01*
X70038495Y-37818333D01*
X70174035Y-37624762D01*
X70273903Y-37410595D01*
X70335063Y-37182340D01*
X70355659Y-36946932D01*
X70335063Y-36711524D01*
X70273903Y-36483269D01*
X70174035Y-36269103D01*
X70173147Y-36267834D01*
X70038494Y-36075529D01*
X69871402Y-35908438D01*
X69871396Y-35908433D01*
X69685842Y-35778507D01*
X69642217Y-35723930D01*
X69635023Y-35654432D01*
X69666546Y-35592077D01*
X69685842Y-35575357D01*
X69796693Y-35497738D01*
X69871401Y-35445427D01*
X70038495Y-35278333D01*
X70174035Y-35084762D01*
X70273903Y-34870595D01*
X70335063Y-34642340D01*
X70355659Y-34406932D01*
X70335063Y-34171524D01*
X70273903Y-33943269D01*
X70174035Y-33729103D01*
X70173146Y-33727834D01*
X70038496Y-33535532D01*
X70000701Y-33497737D01*
X69916567Y-33413603D01*
X69883084Y-33352283D01*
X69888068Y-33282591D01*
X69929939Y-33226657D01*
X69960915Y-33209742D01*
X70092331Y-33160728D01*
X70207546Y-33074478D01*
X70293796Y-32959263D01*
X70344091Y-32824415D01*
X70350500Y-32764805D01*
X70350499Y-30969060D01*
X70344091Y-30909449D01*
X70343617Y-30908179D01*
X70293797Y-30774603D01*
X70293796Y-30774601D01*
X70236685Y-30698311D01*
X70212268Y-30632847D01*
X70227119Y-30564574D01*
X70276524Y-30515168D01*
X70335952Y-30500000D01*
X71375500Y-30500000D01*
X71442539Y-30519685D01*
X71488294Y-30572489D01*
X71499500Y-30624000D01*
X71499500Y-100375500D01*
X71479815Y-100442539D01*
X71427011Y-100488294D01*
X71375500Y-100499500D01*
X27124500Y-100499500D01*
X27057461Y-100479815D01*
X27011706Y-100427011D01*
X27000500Y-100375500D01*
X27000500Y-95286609D01*
X31999500Y-95286609D01*
X32026598Y-95457699D01*
X32080127Y-95622443D01*
X32158768Y-95776786D01*
X32260586Y-95916926D01*
X32383072Y-96039412D01*
X32523212Y-96141230D01*
X32677555Y-96219871D01*
X32842299Y-96273400D01*
X33013389Y-96300498D01*
X33013390Y-96300498D01*
X33186610Y-96300498D01*
X33186611Y-96300498D01*
X33357701Y-96273400D01*
X33522445Y-96219871D01*
X33676788Y-96141230D01*
X33816928Y-96039412D01*
X33939414Y-95916926D01*
X34041232Y-95776786D01*
X34119873Y-95622443D01*
X34173402Y-95457699D01*
X34200500Y-95286609D01*
X38999500Y-95286609D01*
X39026598Y-95457699D01*
X39080127Y-95622443D01*
X39158768Y-95776786D01*
X39260586Y-95916926D01*
X39383072Y-96039412D01*
X39523212Y-96141230D01*
X39677555Y-96219871D01*
X39842299Y-96273400D01*
X40013389Y-96300498D01*
X40013390Y-96300498D01*
X40186610Y-96300498D01*
X40186611Y-96300498D01*
X40357701Y-96273400D01*
X40522445Y-96219871D01*
X40676788Y-96141230D01*
X40816928Y-96039412D01*
X40939414Y-95916926D01*
X41041232Y-95776786D01*
X41119873Y-95622443D01*
X41173402Y-95457699D01*
X41200500Y-95286609D01*
X41200500Y-95113387D01*
X41173402Y-94942297D01*
X41119873Y-94777553D01*
X41041232Y-94623210D01*
X40939414Y-94483070D01*
X40816928Y-94360584D01*
X40676788Y-94258766D01*
X40522445Y-94180125D01*
X40357701Y-94126596D01*
X40357699Y-94126595D01*
X40357698Y-94126595D01*
X40226271Y-94105779D01*
X40186611Y-94099498D01*
X40013389Y-94099498D01*
X39973728Y-94105779D01*
X39842302Y-94126595D01*
X39677552Y-94180126D01*
X39523211Y-94258766D01*
X39486596Y-94285369D01*
X39383072Y-94360584D01*
X39383070Y-94360586D01*
X39383069Y-94360586D01*
X39260588Y-94483067D01*
X39260588Y-94483068D01*
X39260586Y-94483070D01*
X39216859Y-94543254D01*
X39158768Y-94623209D01*
X39080128Y-94777550D01*
X39026597Y-94942300D01*
X38999500Y-95113387D01*
X38999500Y-95286609D01*
X34200500Y-95286609D01*
X34200500Y-95113387D01*
X34173402Y-94942297D01*
X34119873Y-94777553D01*
X34041232Y-94623210D01*
X33939414Y-94483070D01*
X33816928Y-94360584D01*
X33676788Y-94258766D01*
X33522445Y-94180125D01*
X33357701Y-94126596D01*
X33357699Y-94126595D01*
X33357698Y-94126595D01*
X33226271Y-94105779D01*
X33186611Y-94099498D01*
X33013389Y-94099498D01*
X32973728Y-94105779D01*
X32842302Y-94126595D01*
X32677552Y-94180126D01*
X32523211Y-94258766D01*
X32486596Y-94285369D01*
X32383072Y-94360584D01*
X32383070Y-94360586D01*
X32383069Y-94360586D01*
X32260588Y-94483067D01*
X32260588Y-94483068D01*
X32260586Y-94483070D01*
X32216859Y-94543254D01*
X32158768Y-94623209D01*
X32080128Y-94777550D01*
X32026597Y-94942300D01*
X31999500Y-95113387D01*
X31999500Y-95286609D01*
X27000500Y-95286609D01*
X27000500Y-93500003D01*
X36694435Y-93500003D01*
X36714630Y-93679249D01*
X36714631Y-93679254D01*
X36774211Y-93849523D01*
X36870184Y-94002262D01*
X36997738Y-94129816D01*
X37150478Y-94225789D01*
X37244721Y-94258766D01*
X37320745Y-94285368D01*
X37320750Y-94285369D01*
X37499996Y-94305565D01*
X37500000Y-94305565D01*
X37500004Y-94305565D01*
X37679249Y-94285369D01*
X37679252Y-94285368D01*
X37679255Y-94285368D01*
X37849522Y-94225789D01*
X38002262Y-94129816D01*
X38129816Y-94002262D01*
X38225789Y-93849522D01*
X38285368Y-93679255D01*
X38305565Y-93500000D01*
X38285368Y-93320745D01*
X38225789Y-93150478D01*
X38129816Y-92997738D01*
X38002262Y-92870184D01*
X37849523Y-92774211D01*
X37679254Y-92714631D01*
X37679249Y-92714630D01*
X37500004Y-92694435D01*
X37499996Y-92694435D01*
X37320750Y-92714630D01*
X37320745Y-92714631D01*
X37150476Y-92774211D01*
X36997737Y-92870184D01*
X36870184Y-92997737D01*
X36774211Y-93150476D01*
X36714631Y-93320745D01*
X36714630Y-93320750D01*
X36694435Y-93499996D01*
X36694435Y-93500003D01*
X27000500Y-93500003D01*
X27000500Y-91000003D01*
X33194435Y-91000003D01*
X33214630Y-91179249D01*
X33214631Y-91179254D01*
X33274211Y-91349523D01*
X33370184Y-91502262D01*
X33497738Y-91629816D01*
X33650478Y-91725789D01*
X33820745Y-91785368D01*
X33820750Y-91785369D01*
X33999996Y-91805565D01*
X34000000Y-91805565D01*
X34000004Y-91805565D01*
X34179249Y-91785369D01*
X34179252Y-91785368D01*
X34179255Y-91785368D01*
X34349522Y-91725789D01*
X34502262Y-91629816D01*
X34629816Y-91502262D01*
X34725789Y-91349522D01*
X34785368Y-91179255D01*
X34805565Y-91000000D01*
X34786106Y-90827297D01*
X34785369Y-90820750D01*
X34785368Y-90820745D01*
X34725788Y-90650476D01*
X34629815Y-90497737D01*
X34609855Y-90477777D01*
X40594435Y-90477777D01*
X40614630Y-90657023D01*
X40614631Y-90657028D01*
X40674211Y-90827297D01*
X40770184Y-90980036D01*
X40897738Y-91107590D01*
X40988080Y-91164356D01*
X41011782Y-91179249D01*
X41050478Y-91203563D01*
X41220745Y-91263142D01*
X41220750Y-91263143D01*
X41399996Y-91283339D01*
X41400000Y-91283339D01*
X41400004Y-91283339D01*
X41579249Y-91263143D01*
X41579252Y-91263142D01*
X41579255Y-91263142D01*
X41749522Y-91203563D01*
X41902262Y-91107590D01*
X42029816Y-90980036D01*
X42125789Y-90827296D01*
X42185368Y-90657029D01*
X42186106Y-90650478D01*
X42205565Y-90477777D01*
X42205565Y-90477770D01*
X42185369Y-90298524D01*
X42185368Y-90298519D01*
X42125788Y-90128250D01*
X42029815Y-89975511D01*
X41902262Y-89847958D01*
X41749523Y-89751985D01*
X41579254Y-89692405D01*
X41579249Y-89692404D01*
X41400004Y-89672209D01*
X41399996Y-89672209D01*
X41220750Y-89692404D01*
X41220745Y-89692405D01*
X41050476Y-89751985D01*
X40897737Y-89847958D01*
X40770184Y-89975511D01*
X40674211Y-90128250D01*
X40614631Y-90298519D01*
X40614630Y-90298524D01*
X40594435Y-90477770D01*
X40594435Y-90477777D01*
X34609855Y-90477777D01*
X34502262Y-90370184D01*
X34349523Y-90274211D01*
X34179254Y-90214631D01*
X34179249Y-90214630D01*
X34000004Y-90194435D01*
X33999996Y-90194435D01*
X33820750Y-90214630D01*
X33820745Y-90214631D01*
X33650476Y-90274211D01*
X33497737Y-90370184D01*
X33370184Y-90497737D01*
X33274211Y-90650476D01*
X33214631Y-90820745D01*
X33214630Y-90820750D01*
X33194435Y-90999996D01*
X33194435Y-91000003D01*
X27000500Y-91000003D01*
X27000500Y-88764386D01*
X31999500Y-88764386D01*
X32016256Y-88870184D01*
X32026598Y-88935477D01*
X32080127Y-89100221D01*
X32158768Y-89254564D01*
X32260586Y-89394704D01*
X32383072Y-89517190D01*
X32523212Y-89619008D01*
X32677555Y-89697649D01*
X32842299Y-89751178D01*
X33013389Y-89778276D01*
X33013390Y-89778276D01*
X33186610Y-89778276D01*
X33186611Y-89778276D01*
X33357701Y-89751178D01*
X33522445Y-89697649D01*
X33676788Y-89619008D01*
X33816928Y-89517190D01*
X33939414Y-89394704D01*
X34041232Y-89254564D01*
X34119873Y-89100221D01*
X34173402Y-88935477D01*
X34200500Y-88764387D01*
X34200500Y-88764386D01*
X38999500Y-88764386D01*
X39016256Y-88870184D01*
X39026598Y-88935477D01*
X39080127Y-89100221D01*
X39158768Y-89254564D01*
X39260586Y-89394704D01*
X39383072Y-89517190D01*
X39523212Y-89619008D01*
X39677555Y-89697649D01*
X39842299Y-89751178D01*
X40013389Y-89778276D01*
X40013390Y-89778276D01*
X40186610Y-89778276D01*
X40186611Y-89778276D01*
X40357701Y-89751178D01*
X40522445Y-89697649D01*
X40676788Y-89619008D01*
X40816928Y-89517190D01*
X40834115Y-89500003D01*
X42194435Y-89500003D01*
X42214630Y-89679249D01*
X42214631Y-89679254D01*
X42274211Y-89849523D01*
X42353375Y-89975511D01*
X42370184Y-90002262D01*
X42497738Y-90129816D01*
X42588080Y-90186582D01*
X42632721Y-90214632D01*
X42650478Y-90225789D01*
X42788860Y-90274211D01*
X42820745Y-90285368D01*
X42820750Y-90285369D01*
X42999996Y-90305565D01*
X43000000Y-90305565D01*
X43000004Y-90305565D01*
X43179249Y-90285369D01*
X43179252Y-90285368D01*
X43179255Y-90285368D01*
X43349522Y-90225789D01*
X43502262Y-90129816D01*
X43629816Y-90002262D01*
X43725789Y-89849522D01*
X43785368Y-89679255D01*
X43792156Y-89619008D01*
X43805565Y-89500003D01*
X43805565Y-89499996D01*
X43785369Y-89320750D01*
X43785368Y-89320745D01*
X43725788Y-89150476D01*
X43629815Y-88997737D01*
X43502262Y-88870184D01*
X43349523Y-88774211D01*
X43179254Y-88714631D01*
X43179249Y-88714630D01*
X43000004Y-88694435D01*
X42999996Y-88694435D01*
X42820750Y-88714630D01*
X42820745Y-88714631D01*
X42650476Y-88774211D01*
X42497737Y-88870184D01*
X42370184Y-88997737D01*
X42274211Y-89150476D01*
X42214631Y-89320745D01*
X42214630Y-89320750D01*
X42194435Y-89499996D01*
X42194435Y-89500003D01*
X40834115Y-89500003D01*
X40939414Y-89394704D01*
X41041232Y-89254564D01*
X41119873Y-89100221D01*
X41173402Y-88935477D01*
X41200500Y-88764387D01*
X41200500Y-88591165D01*
X41173402Y-88420075D01*
X41119873Y-88255331D01*
X41041232Y-88100988D01*
X40939414Y-87960848D01*
X40816928Y-87838362D01*
X40676788Y-87736544D01*
X40522445Y-87657903D01*
X40357701Y-87604374D01*
X40357699Y-87604373D01*
X40357698Y-87604373D01*
X40226271Y-87583557D01*
X40186611Y-87577276D01*
X40013389Y-87577276D01*
X39973728Y-87583557D01*
X39842302Y-87604373D01*
X39677552Y-87657904D01*
X39523211Y-87736544D01*
X39463348Y-87780038D01*
X39383072Y-87838362D01*
X39383070Y-87838364D01*
X39383069Y-87838364D01*
X39260588Y-87960845D01*
X39260588Y-87960846D01*
X39260586Y-87960848D01*
X39230497Y-88002262D01*
X39158768Y-88100987D01*
X39080128Y-88255328D01*
X39026597Y-88420078D01*
X38999500Y-88591165D01*
X38999500Y-88764386D01*
X34200500Y-88764386D01*
X34200500Y-88591165D01*
X34173402Y-88420075D01*
X34119873Y-88255331D01*
X34110186Y-88236319D01*
X34097290Y-88167650D01*
X34123566Y-88102909D01*
X34179716Y-88062982D01*
X34349522Y-88003565D01*
X34502262Y-87907592D01*
X34629816Y-87780038D01*
X34725789Y-87627298D01*
X34770331Y-87500003D01*
X64194435Y-87500003D01*
X64214630Y-87679249D01*
X64214631Y-87679254D01*
X64274211Y-87849523D01*
X64344162Y-87960848D01*
X64370184Y-88002262D01*
X64497738Y-88129816D01*
X64650478Y-88225789D01*
X64820745Y-88285368D01*
X64820750Y-88285369D01*
X64999996Y-88305565D01*
X65000000Y-88305565D01*
X65000004Y-88305565D01*
X65179249Y-88285369D01*
X65179252Y-88285368D01*
X65179255Y-88285368D01*
X65349522Y-88225789D01*
X65502262Y-88129816D01*
X65629816Y-88002262D01*
X65725789Y-87849522D01*
X65785368Y-87679255D01*
X65796858Y-87577276D01*
X65805565Y-87500003D01*
X65805565Y-87499996D01*
X65785369Y-87320750D01*
X65785368Y-87320745D01*
X65725789Y-87150478D01*
X65629816Y-86997738D01*
X65502262Y-86870184D01*
X65349523Y-86774211D01*
X65179254Y-86714631D01*
X65179249Y-86714630D01*
X65000004Y-86694435D01*
X64999996Y-86694435D01*
X64820750Y-86714630D01*
X64820745Y-86714631D01*
X64650476Y-86774211D01*
X64497737Y-86870184D01*
X64370184Y-86997737D01*
X64274211Y-87150476D01*
X64214631Y-87320745D01*
X64214630Y-87320750D01*
X64194435Y-87499996D01*
X64194435Y-87500003D01*
X34770331Y-87500003D01*
X34785368Y-87457031D01*
X34785369Y-87457025D01*
X34805565Y-87277779D01*
X34805565Y-87277772D01*
X34785369Y-87098526D01*
X34785368Y-87098521D01*
X34725789Y-86928254D01*
X34629816Y-86775514D01*
X34502262Y-86647960D01*
X34349523Y-86551987D01*
X34179254Y-86492407D01*
X34179249Y-86492406D01*
X34000004Y-86472211D01*
X33999996Y-86472211D01*
X33820750Y-86492406D01*
X33820745Y-86492407D01*
X33650476Y-86551987D01*
X33497737Y-86647960D01*
X33370184Y-86775513D01*
X33274211Y-86928252D01*
X33214631Y-87098521D01*
X33214630Y-87098526D01*
X33194435Y-87277772D01*
X33194435Y-87277779D01*
X33212644Y-87439393D01*
X33200589Y-87508215D01*
X33153240Y-87559594D01*
X33089424Y-87577276D01*
X33013389Y-87577276D01*
X32973728Y-87583557D01*
X32842302Y-87604373D01*
X32677552Y-87657904D01*
X32523211Y-87736544D01*
X32463348Y-87780038D01*
X32383072Y-87838362D01*
X32383070Y-87838364D01*
X32383069Y-87838364D01*
X32260588Y-87960845D01*
X32260588Y-87960846D01*
X32260586Y-87960848D01*
X32230497Y-88002262D01*
X32158768Y-88100987D01*
X32080128Y-88255328D01*
X32026597Y-88420078D01*
X31999500Y-88591165D01*
X31999500Y-88764386D01*
X27000500Y-88764386D01*
X27000500Y-85584614D01*
X27020185Y-85517575D01*
X27072989Y-85471820D01*
X27142147Y-85461876D01*
X27205703Y-85490901D01*
X27241542Y-85543660D01*
X27274210Y-85637021D01*
X27370184Y-85789762D01*
X27497738Y-85917316D01*
X27650478Y-86013289D01*
X27820745Y-86072868D01*
X27820750Y-86072869D01*
X27999996Y-86093065D01*
X28000000Y-86093065D01*
X28000004Y-86093065D01*
X28179249Y-86072869D01*
X28179252Y-86072868D01*
X28179255Y-86072868D01*
X28349522Y-86013289D01*
X28502262Y-85917316D01*
X28629816Y-85789762D01*
X28725789Y-85637022D01*
X28785368Y-85466755D01*
X28805565Y-85287500D01*
X28785368Y-85108245D01*
X28725789Y-84937978D01*
X28629816Y-84785238D01*
X28502262Y-84657684D01*
X28349523Y-84561711D01*
X28179254Y-84502131D01*
X28179249Y-84502130D01*
X28000004Y-84481935D01*
X27999996Y-84481935D01*
X27820750Y-84502130D01*
X27820745Y-84502131D01*
X27650476Y-84561711D01*
X27497737Y-84657684D01*
X27370184Y-84785237D01*
X27274209Y-84937980D01*
X27241541Y-85031340D01*
X27200820Y-85088116D01*
X27135867Y-85113863D01*
X27067305Y-85100407D01*
X27016903Y-85052019D01*
X27000500Y-84990385D01*
X27000500Y-84000003D01*
X40869435Y-84000003D01*
X40889630Y-84179249D01*
X40889631Y-84179254D01*
X40949211Y-84349523D01*
X41032412Y-84481935D01*
X41045184Y-84502262D01*
X41172738Y-84629816D01*
X41325478Y-84725789D01*
X41495371Y-84785237D01*
X41495745Y-84785368D01*
X41495750Y-84785369D01*
X41674996Y-84805565D01*
X41675000Y-84805565D01*
X41675004Y-84805565D01*
X41854249Y-84785369D01*
X41854252Y-84785368D01*
X41854255Y-84785368D01*
X42024522Y-84725789D01*
X42177262Y-84629816D01*
X42304816Y-84502262D01*
X42400789Y-84349522D01*
X42460368Y-84179255D01*
X42480565Y-84000000D01*
X42460368Y-83820745D01*
X42400789Y-83650478D01*
X42304816Y-83497738D01*
X42177262Y-83370184D01*
X42144374Y-83349519D01*
X42024523Y-83274211D01*
X41854254Y-83214631D01*
X41854249Y-83214630D01*
X41675004Y-83194435D01*
X41674996Y-83194435D01*
X41495750Y-83214630D01*
X41495745Y-83214631D01*
X41325476Y-83274211D01*
X41172737Y-83370184D01*
X41045184Y-83497737D01*
X40949211Y-83650476D01*
X40889631Y-83820745D01*
X40889630Y-83820750D01*
X40869435Y-83999996D01*
X40869435Y-84000003D01*
X27000500Y-84000003D01*
X27000500Y-82242165D01*
X31999500Y-82242165D01*
X32026598Y-82413255D01*
X32080127Y-82577999D01*
X32158768Y-82732342D01*
X32260586Y-82872482D01*
X32383072Y-82994968D01*
X32523212Y-83096786D01*
X32677555Y-83175427D01*
X32842299Y-83228956D01*
X33013389Y-83256054D01*
X33013390Y-83256054D01*
X33186610Y-83256054D01*
X33186611Y-83256054D01*
X33357701Y-83228956D01*
X33522445Y-83175427D01*
X33557953Y-83157335D01*
X33626622Y-83144438D01*
X33691363Y-83170714D01*
X33731290Y-83226864D01*
X33774209Y-83349519D01*
X33774211Y-83349522D01*
X33870184Y-83502262D01*
X33997738Y-83629816D01*
X34150478Y-83725789D01*
X34320745Y-83785368D01*
X34320750Y-83785369D01*
X34499996Y-83805565D01*
X34500000Y-83805565D01*
X34500004Y-83805565D01*
X34679249Y-83785369D01*
X34679252Y-83785368D01*
X34679255Y-83785368D01*
X34849522Y-83725789D01*
X35002262Y-83629816D01*
X35129816Y-83502262D01*
X35225789Y-83349522D01*
X35285368Y-83179255D01*
X35285369Y-83179249D01*
X35305565Y-83000003D01*
X35305565Y-82999996D01*
X35285369Y-82820750D01*
X35285368Y-82820745D01*
X35225788Y-82650476D01*
X35129815Y-82497737D01*
X35002262Y-82370184D01*
X34849523Y-82274211D01*
X34757941Y-82242165D01*
X38999500Y-82242165D01*
X39026598Y-82413255D01*
X39080127Y-82577999D01*
X39158768Y-82732342D01*
X39260586Y-82872482D01*
X39383072Y-82994968D01*
X39523212Y-83096786D01*
X39677555Y-83175427D01*
X39842299Y-83228956D01*
X40013389Y-83256054D01*
X40013390Y-83256054D01*
X40186610Y-83256054D01*
X40186611Y-83256054D01*
X40357701Y-83228956D01*
X40522445Y-83175427D01*
X40676788Y-83096786D01*
X40816928Y-82994968D01*
X40939414Y-82872482D01*
X41041232Y-82732342D01*
X41119873Y-82577999D01*
X41173402Y-82413255D01*
X41200500Y-82242165D01*
X41200500Y-82068943D01*
X41173402Y-81897853D01*
X41119873Y-81733109D01*
X41041232Y-81578766D01*
X40939414Y-81438626D01*
X40816928Y-81316140D01*
X40676788Y-81214322D01*
X40522445Y-81135681D01*
X40357701Y-81082152D01*
X40357699Y-81082151D01*
X40357698Y-81082151D01*
X40226271Y-81061335D01*
X40186611Y-81055054D01*
X40013389Y-81055054D01*
X39973728Y-81061335D01*
X39842302Y-81082151D01*
X39842299Y-81082152D01*
X39710428Y-81125000D01*
X39677552Y-81135682D01*
X39523211Y-81214322D01*
X39443256Y-81272413D01*
X39383072Y-81316140D01*
X39383070Y-81316142D01*
X39383069Y-81316142D01*
X39260588Y-81438623D01*
X39260588Y-81438624D01*
X39260586Y-81438626D01*
X39216859Y-81498810D01*
X39158768Y-81578765D01*
X39080128Y-81733106D01*
X39026597Y-81897856D01*
X39021417Y-81930565D01*
X38999500Y-82068943D01*
X38999500Y-82242165D01*
X34757941Y-82242165D01*
X34679254Y-82214631D01*
X34679249Y-82214630D01*
X34500004Y-82194435D01*
X34499996Y-82194435D01*
X34338383Y-82212644D01*
X34269561Y-82200589D01*
X34218182Y-82153240D01*
X34200500Y-82089424D01*
X34200500Y-82068943D01*
X34173402Y-81897856D01*
X34173402Y-81897853D01*
X34119873Y-81733109D01*
X34041232Y-81578766D01*
X33939414Y-81438626D01*
X33816928Y-81316140D01*
X33676788Y-81214322D01*
X33522445Y-81135681D01*
X33357701Y-81082152D01*
X33357699Y-81082151D01*
X33357698Y-81082151D01*
X33226271Y-81061335D01*
X33186611Y-81055054D01*
X33013389Y-81055054D01*
X32973728Y-81061335D01*
X32842302Y-81082151D01*
X32842299Y-81082152D01*
X32710428Y-81125000D01*
X32677552Y-81135682D01*
X32523211Y-81214322D01*
X32443256Y-81272413D01*
X32383072Y-81316140D01*
X32383070Y-81316142D01*
X32383069Y-81316142D01*
X32260588Y-81438623D01*
X32260588Y-81438624D01*
X32260586Y-81438626D01*
X32216859Y-81498810D01*
X32158768Y-81578765D01*
X32080128Y-81733106D01*
X32026597Y-81897856D01*
X32021417Y-81930565D01*
X31999500Y-82068943D01*
X31999500Y-82242165D01*
X27000500Y-82242165D01*
X27000500Y-80000003D01*
X36694435Y-80000003D01*
X36714630Y-80179249D01*
X36714631Y-80179254D01*
X36774211Y-80349523D01*
X36865737Y-80495184D01*
X36870184Y-80502262D01*
X36997738Y-80629816D01*
X37150478Y-80725789D01*
X37292475Y-80775476D01*
X37320745Y-80785368D01*
X37320750Y-80785369D01*
X37499996Y-80805565D01*
X37500000Y-80805565D01*
X37500004Y-80805565D01*
X37679249Y-80785369D01*
X37679252Y-80785368D01*
X37679255Y-80785368D01*
X37849522Y-80725789D01*
X38002262Y-80629816D01*
X38129816Y-80502262D01*
X38225789Y-80349522D01*
X38285368Y-80179255D01*
X38285369Y-80179249D01*
X38305565Y-80000003D01*
X38305565Y-79999996D01*
X38285369Y-79820750D01*
X38285368Y-79820745D01*
X38230267Y-79663276D01*
X38225789Y-79650478D01*
X38129816Y-79497738D01*
X38002262Y-79370184D01*
X37849523Y-79274211D01*
X37679254Y-79214631D01*
X37679249Y-79214630D01*
X37500004Y-79194435D01*
X37499996Y-79194435D01*
X37320750Y-79214630D01*
X37320745Y-79214631D01*
X37150476Y-79274211D01*
X36997737Y-79370184D01*
X36870184Y-79497737D01*
X36774211Y-79650476D01*
X36714631Y-79820745D01*
X36714630Y-79820750D01*
X36694435Y-79999996D01*
X36694435Y-80000003D01*
X27000500Y-80000003D01*
X27000500Y-78000003D01*
X33194435Y-78000003D01*
X33214630Y-78179249D01*
X33214631Y-78179254D01*
X33274211Y-78349523D01*
X33342582Y-78458334D01*
X33370184Y-78502262D01*
X33497738Y-78629816D01*
X33650478Y-78725789D01*
X33751011Y-78760967D01*
X33820745Y-78785368D01*
X33820750Y-78785369D01*
X33999996Y-78805565D01*
X34000000Y-78805565D01*
X34000004Y-78805565D01*
X34179249Y-78785369D01*
X34179252Y-78785368D01*
X34179255Y-78785368D01*
X34349522Y-78725789D01*
X34502262Y-78629816D01*
X34629816Y-78502262D01*
X34725789Y-78349522D01*
X34785368Y-78179255D01*
X34785369Y-78179249D01*
X34805565Y-78000003D01*
X34805565Y-77999996D01*
X34785369Y-77820750D01*
X34785368Y-77820745D01*
X34725789Y-77650478D01*
X34631239Y-77500003D01*
X47194435Y-77500003D01*
X47214630Y-77679249D01*
X47214631Y-77679254D01*
X47274211Y-77849523D01*
X47368760Y-77999996D01*
X47370184Y-78002262D01*
X47497738Y-78129816D01*
X47650478Y-78225789D01*
X47761868Y-78264766D01*
X47820745Y-78285368D01*
X47820750Y-78285369D01*
X47999996Y-78305565D01*
X48000000Y-78305565D01*
X48000004Y-78305565D01*
X48179249Y-78285369D01*
X48179252Y-78285368D01*
X48179255Y-78285368D01*
X48349522Y-78225789D01*
X48502262Y-78129816D01*
X48629816Y-78002262D01*
X48725789Y-77849522D01*
X48785368Y-77679255D01*
X48785369Y-77679249D01*
X48805565Y-77500003D01*
X48805565Y-77499996D01*
X48785369Y-77320750D01*
X48785368Y-77320745D01*
X48725788Y-77150476D01*
X48629815Y-76997737D01*
X48502262Y-76870184D01*
X48349523Y-76774211D01*
X48179254Y-76714631D01*
X48179249Y-76714630D01*
X48000004Y-76694435D01*
X47999996Y-76694435D01*
X47820750Y-76714630D01*
X47820745Y-76714631D01*
X47650476Y-76774211D01*
X47497737Y-76870184D01*
X47370184Y-76997737D01*
X47274211Y-77150476D01*
X47214631Y-77320745D01*
X47214630Y-77320750D01*
X47194435Y-77499996D01*
X47194435Y-77500003D01*
X34631239Y-77500003D01*
X34629816Y-77497738D01*
X34502262Y-77370184D01*
X34470536Y-77350249D01*
X34349523Y-77274211D01*
X34179254Y-77214631D01*
X34179249Y-77214630D01*
X34000004Y-77194435D01*
X33999996Y-77194435D01*
X33820750Y-77214630D01*
X33820745Y-77214631D01*
X33650476Y-77274211D01*
X33497737Y-77370184D01*
X33370184Y-77497737D01*
X33274211Y-77650476D01*
X33214631Y-77820745D01*
X33214630Y-77820750D01*
X33194435Y-77999996D01*
X33194435Y-78000003D01*
X27000500Y-78000003D01*
X27000500Y-75719943D01*
X31999500Y-75719943D01*
X32026598Y-75891033D01*
X32080127Y-76055777D01*
X32158768Y-76210120D01*
X32260586Y-76350260D01*
X32383072Y-76472746D01*
X32523212Y-76574564D01*
X32677555Y-76653205D01*
X32842299Y-76706734D01*
X33013389Y-76733832D01*
X33013390Y-76733832D01*
X33186610Y-76733832D01*
X33186611Y-76733832D01*
X33357701Y-76706734D01*
X33522445Y-76653205D01*
X33676788Y-76574564D01*
X33816928Y-76472746D01*
X33939414Y-76350260D01*
X34041232Y-76210120D01*
X34119873Y-76055777D01*
X34173402Y-75891033D01*
X34200500Y-75719943D01*
X38999500Y-75719943D01*
X39026598Y-75891033D01*
X39080127Y-76055777D01*
X39158768Y-76210120D01*
X39260586Y-76350260D01*
X39383072Y-76472746D01*
X39523212Y-76574564D01*
X39677555Y-76653205D01*
X39842299Y-76706734D01*
X40013389Y-76733832D01*
X40013390Y-76733832D01*
X40186610Y-76733832D01*
X40186611Y-76733832D01*
X40357701Y-76706734D01*
X40522445Y-76653205D01*
X40676788Y-76574564D01*
X40816928Y-76472746D01*
X40939414Y-76350260D01*
X41041232Y-76210120D01*
X41119873Y-76055777D01*
X41173402Y-75891033D01*
X41200500Y-75719943D01*
X41200500Y-75546721D01*
X41173402Y-75375631D01*
X41119873Y-75210887D01*
X41041232Y-75056544D01*
X40939414Y-74916404D01*
X40816928Y-74793918D01*
X40676788Y-74692100D01*
X40522445Y-74613459D01*
X40357701Y-74559930D01*
X40357699Y-74559929D01*
X40357698Y-74559929D01*
X40226271Y-74539113D01*
X40186611Y-74532832D01*
X40013389Y-74532832D01*
X39973728Y-74539113D01*
X39842302Y-74559929D01*
X39842299Y-74559930D01*
X39698816Y-74606551D01*
X39677552Y-74613460D01*
X39523211Y-74692100D01*
X39476843Y-74725789D01*
X39383072Y-74793918D01*
X39383070Y-74793920D01*
X39383069Y-74793920D01*
X39260588Y-74916401D01*
X39260588Y-74916402D01*
X39260586Y-74916404D01*
X39231762Y-74956077D01*
X39158768Y-75056543D01*
X39080128Y-75210884D01*
X39026597Y-75375634D01*
X39005424Y-75509318D01*
X38999500Y-75546721D01*
X38999500Y-75719943D01*
X34200500Y-75719943D01*
X34200500Y-75546721D01*
X34173402Y-75375631D01*
X34119873Y-75210887D01*
X34041232Y-75056544D01*
X33939414Y-74916404D01*
X33816928Y-74793918D01*
X33676788Y-74692100D01*
X33522445Y-74613459D01*
X33501206Y-74606558D01*
X35300990Y-74606558D01*
X35321185Y-74785804D01*
X35321186Y-74785809D01*
X35380766Y-74956078D01*
X35476739Y-75108817D01*
X35604293Y-75236371D01*
X35675425Y-75281066D01*
X35714414Y-75305565D01*
X35757033Y-75332344D01*
X35880740Y-75375631D01*
X35927300Y-75391923D01*
X35927305Y-75391924D01*
X36106551Y-75412120D01*
X36106555Y-75412120D01*
X36106559Y-75412120D01*
X36285804Y-75391924D01*
X36285807Y-75391923D01*
X36285810Y-75391923D01*
X36456077Y-75332344D01*
X36608817Y-75236371D01*
X36736371Y-75108817D01*
X36832344Y-74956077D01*
X36891923Y-74785810D01*
X36898686Y-74725788D01*
X36912120Y-74606558D01*
X36912120Y-74606551D01*
X36891924Y-74427305D01*
X36891923Y-74427300D01*
X36864707Y-74349522D01*
X36832344Y-74257033D01*
X36736371Y-74104293D01*
X36632081Y-74000003D01*
X47194435Y-74000003D01*
X47214630Y-74179249D01*
X47214631Y-74179254D01*
X47274211Y-74349523D01*
X47323082Y-74427300D01*
X47370184Y-74502262D01*
X47497738Y-74629816D01*
X47650478Y-74725789D01*
X47820745Y-74785368D01*
X47820750Y-74785369D01*
X47999996Y-74805565D01*
X48000000Y-74805565D01*
X48000004Y-74805565D01*
X48179249Y-74785369D01*
X48179252Y-74785368D01*
X48179255Y-74785368D01*
X48349522Y-74725789D01*
X48502262Y-74629816D01*
X48629816Y-74502262D01*
X48725789Y-74349522D01*
X48785368Y-74179255D01*
X48785931Y-74174260D01*
X48805565Y-74000003D01*
X48805565Y-73999996D01*
X48785369Y-73820750D01*
X48785368Y-73820745D01*
X48739901Y-73690808D01*
X48725789Y-73650478D01*
X48629816Y-73497738D01*
X48502262Y-73370184D01*
X48349523Y-73274211D01*
X48179254Y-73214631D01*
X48179249Y-73214630D01*
X48000004Y-73194435D01*
X47999996Y-73194435D01*
X47820750Y-73214630D01*
X47820745Y-73214631D01*
X47650476Y-73274211D01*
X47497737Y-73370184D01*
X47370184Y-73497737D01*
X47274211Y-73650476D01*
X47214631Y-73820745D01*
X47214630Y-73820750D01*
X47194435Y-73999996D01*
X47194435Y-74000003D01*
X36632081Y-74000003D01*
X36608817Y-73976739D01*
X36456078Y-73880766D01*
X36285809Y-73821186D01*
X36285804Y-73821185D01*
X36106559Y-73800990D01*
X36106551Y-73800990D01*
X35927305Y-73821185D01*
X35927300Y-73821186D01*
X35757031Y-73880766D01*
X35604292Y-73976739D01*
X35476739Y-74104292D01*
X35380766Y-74257031D01*
X35321186Y-74427300D01*
X35321185Y-74427305D01*
X35300990Y-74606551D01*
X35300990Y-74606558D01*
X33501206Y-74606558D01*
X33357701Y-74559930D01*
X33357699Y-74559929D01*
X33357698Y-74559929D01*
X33226271Y-74539113D01*
X33186611Y-74532832D01*
X33013389Y-74532832D01*
X32973728Y-74539113D01*
X32842302Y-74559929D01*
X32842299Y-74559930D01*
X32698816Y-74606551D01*
X32677552Y-74613460D01*
X32523211Y-74692100D01*
X32476843Y-74725789D01*
X32383072Y-74793918D01*
X32383070Y-74793920D01*
X32383069Y-74793920D01*
X32260588Y-74916401D01*
X32260588Y-74916402D01*
X32260586Y-74916404D01*
X32231762Y-74956077D01*
X32158768Y-75056543D01*
X32080128Y-75210884D01*
X32026597Y-75375634D01*
X32005424Y-75509318D01*
X31999500Y-75546721D01*
X31999500Y-75719943D01*
X27000500Y-75719943D01*
X27000500Y-69197720D01*
X31999500Y-69197720D01*
X32015607Y-69299420D01*
X32026598Y-69368811D01*
X32080127Y-69533555D01*
X32158768Y-69687898D01*
X32260586Y-69828038D01*
X32383072Y-69950524D01*
X32523212Y-70052342D01*
X32677555Y-70130983D01*
X32842299Y-70184512D01*
X33013389Y-70211610D01*
X33013390Y-70211610D01*
X33186610Y-70211610D01*
X33186611Y-70211610D01*
X33357701Y-70184512D01*
X33522445Y-70130983D01*
X33676788Y-70052342D01*
X33816928Y-69950524D01*
X33939414Y-69828038D01*
X34041232Y-69687898D01*
X34119873Y-69533555D01*
X34173402Y-69368811D01*
X34200500Y-69197721D01*
X34200500Y-69120174D01*
X35272538Y-69120174D01*
X35292733Y-69299420D01*
X35292734Y-69299425D01*
X35352314Y-69469694D01*
X35392441Y-69533555D01*
X35448287Y-69622433D01*
X35575841Y-69749987D01*
X35666183Y-69806753D01*
X35700061Y-69828040D01*
X35728581Y-69845960D01*
X35898848Y-69905539D01*
X35898853Y-69905540D01*
X36078099Y-69925736D01*
X36078103Y-69925736D01*
X36078107Y-69925736D01*
X36257352Y-69905540D01*
X36257355Y-69905539D01*
X36257358Y-69905539D01*
X36427625Y-69845960D01*
X36580365Y-69749987D01*
X36707919Y-69622433D01*
X36803892Y-69469693D01*
X36863471Y-69299426D01*
X36864634Y-69289103D01*
X36874931Y-69197720D01*
X38999500Y-69197720D01*
X39015607Y-69299420D01*
X39026598Y-69368811D01*
X39080127Y-69533555D01*
X39158768Y-69687898D01*
X39260586Y-69828038D01*
X39383072Y-69950524D01*
X39523212Y-70052342D01*
X39677555Y-70130983D01*
X39842299Y-70184512D01*
X40013389Y-70211610D01*
X40013390Y-70211610D01*
X40186610Y-70211610D01*
X40186611Y-70211610D01*
X40357701Y-70184512D01*
X40522445Y-70130983D01*
X40676788Y-70052342D01*
X40816928Y-69950524D01*
X40939414Y-69828038D01*
X41041232Y-69687898D01*
X41119873Y-69533555D01*
X41173402Y-69368811D01*
X41200500Y-69197721D01*
X41200500Y-69024499D01*
X41173402Y-68853409D01*
X41119873Y-68688665D01*
X41041232Y-68534322D01*
X40939414Y-68394182D01*
X40816928Y-68271696D01*
X40676788Y-68169878D01*
X40522445Y-68091237D01*
X40357701Y-68037708D01*
X40357699Y-68037707D01*
X40357698Y-68037707D01*
X40226271Y-68016891D01*
X40186611Y-68010610D01*
X40013389Y-68010610D01*
X39973728Y-68016891D01*
X39842302Y-68037707D01*
X39677552Y-68091238D01*
X39523211Y-68169878D01*
X39443256Y-68227969D01*
X39383072Y-68271696D01*
X39383070Y-68271698D01*
X39383069Y-68271698D01*
X39260588Y-68394179D01*
X39260588Y-68394180D01*
X39260586Y-68394182D01*
X39260441Y-68394382D01*
X39158768Y-68534321D01*
X39080128Y-68688662D01*
X39080127Y-68688664D01*
X39080127Y-68688665D01*
X39062170Y-68743930D01*
X39026597Y-68853412D01*
X38999500Y-69024499D01*
X38999500Y-69197720D01*
X36874931Y-69197720D01*
X36883668Y-69120174D01*
X36883668Y-69120167D01*
X36863472Y-68940921D01*
X36863471Y-68940916D01*
X36803891Y-68770647D01*
X36746465Y-68679254D01*
X36707919Y-68617909D01*
X36580365Y-68490355D01*
X36540697Y-68465430D01*
X36427626Y-68394382D01*
X36257357Y-68334802D01*
X36257352Y-68334801D01*
X36078107Y-68314606D01*
X36078099Y-68314606D01*
X35898853Y-68334801D01*
X35898848Y-68334802D01*
X35728579Y-68394382D01*
X35575840Y-68490355D01*
X35448287Y-68617908D01*
X35352314Y-68770647D01*
X35292734Y-68940916D01*
X35292733Y-68940921D01*
X35272538Y-69120167D01*
X35272538Y-69120174D01*
X34200500Y-69120174D01*
X34200500Y-69024499D01*
X34173402Y-68853409D01*
X34119873Y-68688665D01*
X34041232Y-68534322D01*
X33939414Y-68394182D01*
X33816928Y-68271696D01*
X33676788Y-68169878D01*
X33522445Y-68091237D01*
X33357701Y-68037708D01*
X33357699Y-68037707D01*
X33357698Y-68037707D01*
X33226271Y-68016891D01*
X33186611Y-68010610D01*
X33013389Y-68010610D01*
X32973728Y-68016891D01*
X32842302Y-68037707D01*
X32677552Y-68091238D01*
X32523211Y-68169878D01*
X32443256Y-68227969D01*
X32383072Y-68271696D01*
X32383070Y-68271698D01*
X32383069Y-68271698D01*
X32260588Y-68394179D01*
X32260588Y-68394180D01*
X32260586Y-68394182D01*
X32260441Y-68394382D01*
X32158768Y-68534321D01*
X32080128Y-68688662D01*
X32080127Y-68688664D01*
X32080127Y-68688665D01*
X32062170Y-68743930D01*
X32026597Y-68853412D01*
X31999500Y-69024499D01*
X31999500Y-69197720D01*
X27000500Y-69197720D01*
X27000500Y-65000003D01*
X32694435Y-65000003D01*
X32714630Y-65179249D01*
X32714631Y-65179254D01*
X32774211Y-65349523D01*
X32870184Y-65502262D01*
X32997738Y-65629816D01*
X33150478Y-65725789D01*
X33320745Y-65785368D01*
X33320750Y-65785369D01*
X33499996Y-65805565D01*
X33500000Y-65805565D01*
X33500004Y-65805565D01*
X33679249Y-65785369D01*
X33679252Y-65785368D01*
X33679255Y-65785368D01*
X33849522Y-65725789D01*
X34002262Y-65629816D01*
X34129816Y-65502262D01*
X34225789Y-65349522D01*
X34285368Y-65179255D01*
X34285369Y-65179249D01*
X34305565Y-65000003D01*
X34305565Y-64999996D01*
X34285369Y-64820750D01*
X34285368Y-64820745D01*
X34225788Y-64650476D01*
X34174053Y-64568141D01*
X34129816Y-64497738D01*
X34020967Y-64388889D01*
X40594435Y-64388889D01*
X40614630Y-64568135D01*
X40614631Y-64568140D01*
X40674211Y-64738409D01*
X40725947Y-64820745D01*
X40770184Y-64891148D01*
X40897738Y-65018702D01*
X41050478Y-65114675D01*
X41072398Y-65122345D01*
X41220745Y-65174254D01*
X41220750Y-65174255D01*
X41399996Y-65194451D01*
X41400000Y-65194451D01*
X41400004Y-65194451D01*
X41579249Y-65174255D01*
X41579252Y-65174254D01*
X41579255Y-65174254D01*
X41749522Y-65114675D01*
X41902262Y-65018702D01*
X42029816Y-64891148D01*
X42125789Y-64738408D01*
X42185368Y-64568141D01*
X42185369Y-64568135D01*
X42205565Y-64388889D01*
X42205565Y-64388882D01*
X42185369Y-64209636D01*
X42185368Y-64209631D01*
X42184739Y-64207834D01*
X42125789Y-64039364D01*
X42110812Y-64015529D01*
X42029815Y-63886623D01*
X41902262Y-63759070D01*
X41749523Y-63663097D01*
X41579254Y-63603517D01*
X41579249Y-63603516D01*
X41400004Y-63583321D01*
X41399996Y-63583321D01*
X41220750Y-63603516D01*
X41220745Y-63603517D01*
X41050476Y-63663097D01*
X40897737Y-63759070D01*
X40770184Y-63886623D01*
X40674211Y-64039362D01*
X40614631Y-64209631D01*
X40614630Y-64209636D01*
X40594435Y-64388882D01*
X40594435Y-64388889D01*
X34020967Y-64388889D01*
X34002262Y-64370184D01*
X33849523Y-64274211D01*
X33679254Y-64214631D01*
X33679249Y-64214630D01*
X33500004Y-64194435D01*
X33499996Y-64194435D01*
X33320750Y-64214630D01*
X33320745Y-64214631D01*
X33150476Y-64274211D01*
X32997737Y-64370184D01*
X32870184Y-64497737D01*
X32774211Y-64650476D01*
X32714631Y-64820745D01*
X32714630Y-64820750D01*
X32694435Y-64999996D01*
X32694435Y-65000003D01*
X27000500Y-65000003D01*
X27000500Y-62675499D01*
X31999500Y-62675499D01*
X32026598Y-62846589D01*
X32080127Y-63011333D01*
X32158768Y-63165676D01*
X32260586Y-63305816D01*
X32383072Y-63428302D01*
X32523212Y-63530120D01*
X32677555Y-63608761D01*
X32842299Y-63662290D01*
X33013389Y-63689388D01*
X33013390Y-63689388D01*
X33186610Y-63689388D01*
X33186611Y-63689388D01*
X33357701Y-63662290D01*
X33522445Y-63608761D01*
X33676788Y-63530120D01*
X33816928Y-63428302D01*
X33939414Y-63305816D01*
X34041232Y-63165676D01*
X34119873Y-63011333D01*
X34173402Y-62846589D01*
X34200500Y-62675499D01*
X38999500Y-62675499D01*
X39026598Y-62846589D01*
X39080127Y-63011333D01*
X39158768Y-63165676D01*
X39260586Y-63305816D01*
X39383072Y-63428302D01*
X39523212Y-63530120D01*
X39677555Y-63608761D01*
X39842299Y-63662290D01*
X40013389Y-63689388D01*
X40013390Y-63689388D01*
X40186610Y-63689388D01*
X40186611Y-63689388D01*
X40357701Y-63662290D01*
X40522445Y-63608761D01*
X40676788Y-63530120D01*
X40816928Y-63428302D01*
X40939414Y-63305816D01*
X41041232Y-63165676D01*
X41119873Y-63011333D01*
X41173402Y-62846589D01*
X41200500Y-62675499D01*
X41200500Y-62502277D01*
X41173402Y-62331187D01*
X41119873Y-62166443D01*
X41041232Y-62012100D01*
X40939414Y-61871960D01*
X40816928Y-61749474D01*
X40676788Y-61647656D01*
X40522445Y-61569015D01*
X40357701Y-61515486D01*
X40357699Y-61515485D01*
X40357698Y-61515485D01*
X40226271Y-61494669D01*
X40186611Y-61488388D01*
X40013389Y-61488388D01*
X39973728Y-61494669D01*
X39842302Y-61515485D01*
X39677552Y-61569016D01*
X39523211Y-61647656D01*
X39443256Y-61705747D01*
X39383072Y-61749474D01*
X39383070Y-61749476D01*
X39383069Y-61749476D01*
X39260588Y-61871957D01*
X39260588Y-61871958D01*
X39260586Y-61871960D01*
X39247826Y-61889523D01*
X39158768Y-62012099D01*
X39080128Y-62166440D01*
X39026597Y-62331190D01*
X39024305Y-62345662D01*
X38999500Y-62502277D01*
X38999500Y-62675499D01*
X34200500Y-62675499D01*
X34200500Y-62502277D01*
X34173402Y-62331187D01*
X34119873Y-62166443D01*
X34041232Y-62012100D01*
X33939414Y-61871960D01*
X33816928Y-61749474D01*
X33676788Y-61647656D01*
X33522445Y-61569015D01*
X33357701Y-61515486D01*
X33357699Y-61515485D01*
X33357698Y-61515485D01*
X33226271Y-61494669D01*
X33186611Y-61488388D01*
X33013389Y-61488388D01*
X32973728Y-61494669D01*
X32842302Y-61515485D01*
X32677552Y-61569016D01*
X32523211Y-61647656D01*
X32443256Y-61705747D01*
X32383072Y-61749474D01*
X32383070Y-61749476D01*
X32383069Y-61749476D01*
X32260588Y-61871957D01*
X32260588Y-61871958D01*
X32260586Y-61871960D01*
X32247826Y-61889523D01*
X32158768Y-62012099D01*
X32080128Y-62166440D01*
X32026597Y-62331190D01*
X32024305Y-62345662D01*
X31999500Y-62502277D01*
X31999500Y-62675499D01*
X27000500Y-62675499D01*
X27000500Y-61000003D01*
X48194435Y-61000003D01*
X48214630Y-61179249D01*
X48214631Y-61179254D01*
X48274211Y-61349523D01*
X48353388Y-61475531D01*
X48370184Y-61502262D01*
X48497738Y-61629816D01*
X48558240Y-61667832D01*
X48640077Y-61719254D01*
X48650478Y-61725789D01*
X48718166Y-61749474D01*
X48820745Y-61785368D01*
X48820750Y-61785369D01*
X48999996Y-61805565D01*
X49000000Y-61805565D01*
X49000004Y-61805565D01*
X49179249Y-61785369D01*
X49179252Y-61785368D01*
X49179255Y-61785368D01*
X49349522Y-61725789D01*
X49502262Y-61629816D01*
X49629816Y-61502262D01*
X49725789Y-61349522D01*
X49785368Y-61179255D01*
X49785369Y-61179249D01*
X49805565Y-61000003D01*
X49805565Y-60999996D01*
X49785369Y-60820750D01*
X49785368Y-60820745D01*
X49735092Y-60677064D01*
X49725789Y-60650478D01*
X49629816Y-60497738D01*
X49502262Y-60370184D01*
X49349523Y-60274211D01*
X49179254Y-60214631D01*
X49179249Y-60214630D01*
X49000004Y-60194435D01*
X48999996Y-60194435D01*
X48820750Y-60214630D01*
X48820745Y-60214631D01*
X48650476Y-60274211D01*
X48497737Y-60370184D01*
X48370184Y-60497737D01*
X48274211Y-60650476D01*
X48214631Y-60820745D01*
X48214630Y-60820750D01*
X48194435Y-60999996D01*
X48194435Y-61000003D01*
X27000500Y-61000003D01*
X27000500Y-56153276D01*
X31999500Y-56153276D01*
X32011403Y-56228433D01*
X32026598Y-56324367D01*
X32080127Y-56489111D01*
X32158768Y-56643454D01*
X32260586Y-56783594D01*
X32383072Y-56906080D01*
X32523212Y-57007898D01*
X32677555Y-57086539D01*
X32842299Y-57140068D01*
X33013389Y-57167166D01*
X33013390Y-57167166D01*
X33186610Y-57167166D01*
X33186611Y-57167166D01*
X33357701Y-57140068D01*
X33522445Y-57086539D01*
X33676788Y-57007898D01*
X33706384Y-56986394D01*
X33772188Y-56962913D01*
X33840243Y-56978737D01*
X33866952Y-56999030D01*
X33870184Y-57002262D01*
X33997738Y-57129816D01*
X34150478Y-57225789D01*
X34268055Y-57266931D01*
X34320745Y-57285368D01*
X34320750Y-57285369D01*
X34499996Y-57305565D01*
X34500000Y-57305565D01*
X34500004Y-57305565D01*
X34679249Y-57285369D01*
X34679252Y-57285368D01*
X34679255Y-57285368D01*
X34849522Y-57225789D01*
X35002262Y-57129816D01*
X35129816Y-57002262D01*
X35225789Y-56849522D01*
X35285368Y-56679255D01*
X35305565Y-56500000D01*
X35304338Y-56489113D01*
X35285369Y-56320750D01*
X35285368Y-56320745D01*
X35253068Y-56228437D01*
X35226768Y-56153276D01*
X38999500Y-56153276D01*
X39011403Y-56228433D01*
X39026598Y-56324367D01*
X39080127Y-56489111D01*
X39158768Y-56643454D01*
X39260586Y-56783594D01*
X39383072Y-56906080D01*
X39523212Y-57007898D01*
X39677555Y-57086539D01*
X39842299Y-57140068D01*
X40013389Y-57167166D01*
X40013390Y-57167166D01*
X40186610Y-57167166D01*
X40186611Y-57167166D01*
X40357701Y-57140068D01*
X40522445Y-57086539D01*
X40676788Y-57007898D01*
X40816928Y-56906080D01*
X40939414Y-56783594D01*
X41041232Y-56643454D01*
X41119873Y-56489111D01*
X41173402Y-56324367D01*
X41200500Y-56153277D01*
X41200500Y-55980055D01*
X41173402Y-55808965D01*
X41119873Y-55644221D01*
X41041232Y-55489878D01*
X40939414Y-55349738D01*
X40816928Y-55227252D01*
X40676788Y-55125434D01*
X40522445Y-55046793D01*
X40357701Y-54993264D01*
X40357699Y-54993263D01*
X40357698Y-54993263D01*
X40226271Y-54972447D01*
X40186611Y-54966166D01*
X40013389Y-54966166D01*
X39973728Y-54972447D01*
X39842302Y-54993263D01*
X39677552Y-55046794D01*
X39523211Y-55125434D01*
X39443256Y-55183525D01*
X39383072Y-55227252D01*
X39383070Y-55227254D01*
X39383069Y-55227254D01*
X39260588Y-55349735D01*
X39260588Y-55349736D01*
X39260586Y-55349738D01*
X39242235Y-55374996D01*
X39158768Y-55489877D01*
X39080128Y-55644218D01*
X39026597Y-55808968D01*
X38999500Y-55980055D01*
X38999500Y-56153276D01*
X35226768Y-56153276D01*
X35225789Y-56150478D01*
X35129816Y-55997738D01*
X35002262Y-55870184D01*
X34849523Y-55774211D01*
X34679254Y-55714631D01*
X34679249Y-55714630D01*
X34500004Y-55694435D01*
X34499996Y-55694435D01*
X34320746Y-55714631D01*
X34320742Y-55714632D01*
X34280616Y-55728672D01*
X34210837Y-55732233D01*
X34150211Y-55697503D01*
X34121733Y-55649947D01*
X34119873Y-55644221D01*
X34041232Y-55489878D01*
X33939414Y-55349738D01*
X33816928Y-55227252D01*
X33676788Y-55125434D01*
X33522445Y-55046793D01*
X33357701Y-54993264D01*
X33357699Y-54993263D01*
X33357698Y-54993263D01*
X33226271Y-54972447D01*
X33186611Y-54966166D01*
X33013389Y-54966166D01*
X32973728Y-54972447D01*
X32842302Y-54993263D01*
X32677552Y-55046794D01*
X32523211Y-55125434D01*
X32443256Y-55183525D01*
X32383072Y-55227252D01*
X32383070Y-55227254D01*
X32383069Y-55227254D01*
X32260588Y-55349735D01*
X32260588Y-55349736D01*
X32260586Y-55349738D01*
X32242235Y-55374996D01*
X32158768Y-55489877D01*
X32080128Y-55644218D01*
X32026597Y-55808968D01*
X31999500Y-55980055D01*
X31999500Y-56153276D01*
X27000500Y-56153276D01*
X27000500Y-52000003D01*
X32694435Y-52000003D01*
X32714630Y-52179249D01*
X32714631Y-52179254D01*
X32774211Y-52349523D01*
X32868760Y-52499996D01*
X32870184Y-52502262D01*
X32997738Y-52629816D01*
X33150478Y-52725789D01*
X33320745Y-52785368D01*
X33320750Y-52785369D01*
X33499996Y-52805565D01*
X33500000Y-52805565D01*
X33500004Y-52805565D01*
X33679249Y-52785369D01*
X33679252Y-52785368D01*
X33679255Y-52785368D01*
X33849522Y-52725789D01*
X34002262Y-52629816D01*
X34129816Y-52502262D01*
X34131235Y-52500003D01*
X46194435Y-52500003D01*
X46214630Y-52679249D01*
X46214631Y-52679254D01*
X46274211Y-52849523D01*
X46283789Y-52864766D01*
X46370184Y-53002262D01*
X46497738Y-53129816D01*
X46588080Y-53186582D01*
X46649906Y-53225430D01*
X46650478Y-53225789D01*
X46820745Y-53285368D01*
X46820750Y-53285369D01*
X46999996Y-53305565D01*
X47000000Y-53305565D01*
X47000004Y-53305565D01*
X47179249Y-53285369D01*
X47179252Y-53285368D01*
X47179255Y-53285368D01*
X47349522Y-53225789D01*
X47502262Y-53129816D01*
X47629816Y-53002262D01*
X47725789Y-52849522D01*
X47785368Y-52679255D01*
X47788597Y-52650596D01*
X47805565Y-52500003D01*
X47805565Y-52499996D01*
X47785369Y-52320750D01*
X47785368Y-52320745D01*
X47738100Y-52185662D01*
X47725789Y-52150478D01*
X47629816Y-51997738D01*
X47502262Y-51870184D01*
X47349523Y-51774211D01*
X47179254Y-51714631D01*
X47179249Y-51714630D01*
X47000004Y-51694435D01*
X46999996Y-51694435D01*
X46820750Y-51714630D01*
X46820745Y-51714631D01*
X46650476Y-51774211D01*
X46497737Y-51870184D01*
X46370184Y-51997737D01*
X46274211Y-52150476D01*
X46214631Y-52320745D01*
X46214630Y-52320750D01*
X46194435Y-52499996D01*
X46194435Y-52500003D01*
X34131235Y-52500003D01*
X34225789Y-52349522D01*
X34285368Y-52179255D01*
X34285369Y-52179249D01*
X34305565Y-52000003D01*
X34305565Y-51999996D01*
X34285369Y-51820750D01*
X34285368Y-51820745D01*
X34250818Y-51722007D01*
X34225789Y-51650478D01*
X34129816Y-51497738D01*
X34002262Y-51370184D01*
X33969379Y-51349522D01*
X33849523Y-51274211D01*
X33679254Y-51214631D01*
X33679249Y-51214630D01*
X33500004Y-51194435D01*
X33499996Y-51194435D01*
X33320750Y-51214630D01*
X33320745Y-51214631D01*
X33150476Y-51274211D01*
X32997737Y-51370184D01*
X32870184Y-51497737D01*
X32774211Y-51650476D01*
X32714631Y-51820745D01*
X32714630Y-51820750D01*
X32694435Y-51999996D01*
X32694435Y-52000003D01*
X27000500Y-52000003D01*
X27000500Y-51000003D01*
X42694435Y-51000003D01*
X42714630Y-51179249D01*
X42714631Y-51179254D01*
X42774211Y-51349523D01*
X42867341Y-51497737D01*
X42870184Y-51502262D01*
X42997738Y-51629816D01*
X43088080Y-51686582D01*
X43146478Y-51723276D01*
X43150478Y-51725789D01*
X43288860Y-51774211D01*
X43320745Y-51785368D01*
X43320750Y-51785369D01*
X43499996Y-51805565D01*
X43500000Y-51805565D01*
X43500004Y-51805565D01*
X43679249Y-51785369D01*
X43679252Y-51785368D01*
X43679255Y-51785368D01*
X43849522Y-51725789D01*
X44002262Y-51629816D01*
X44129816Y-51502262D01*
X44225789Y-51349522D01*
X44285368Y-51179255D01*
X44285369Y-51179249D01*
X44305565Y-51000003D01*
X44305565Y-50999996D01*
X44285369Y-50820750D01*
X44285368Y-50820745D01*
X44225788Y-50650476D01*
X44142757Y-50518334D01*
X44129816Y-50497738D01*
X44002262Y-50370184D01*
X43929980Y-50324766D01*
X43849523Y-50274211D01*
X43679254Y-50214631D01*
X43679249Y-50214630D01*
X43500004Y-50194435D01*
X43499996Y-50194435D01*
X43320750Y-50214630D01*
X43320745Y-50214631D01*
X43150476Y-50274211D01*
X42997737Y-50370184D01*
X42870184Y-50497737D01*
X42774211Y-50650476D01*
X42714631Y-50820745D01*
X42714630Y-50820750D01*
X42694435Y-50999996D01*
X42694435Y-51000003D01*
X27000500Y-51000003D01*
X27000500Y-49631055D01*
X31999500Y-49631055D01*
X32026598Y-49802145D01*
X32080127Y-49966889D01*
X32158768Y-50121232D01*
X32260586Y-50261372D01*
X32383072Y-50383858D01*
X32523212Y-50485676D01*
X32677555Y-50564317D01*
X32842299Y-50617846D01*
X33013389Y-50644944D01*
X33013390Y-50644944D01*
X33186610Y-50644944D01*
X33186611Y-50644944D01*
X33357701Y-50617846D01*
X33522445Y-50564317D01*
X33676788Y-50485676D01*
X33816928Y-50383858D01*
X33939414Y-50261372D01*
X34041232Y-50121232D01*
X34119873Y-49966889D01*
X34173402Y-49802145D01*
X34200500Y-49631055D01*
X38999500Y-49631055D01*
X39026598Y-49802145D01*
X39080127Y-49966889D01*
X39158768Y-50121232D01*
X39260586Y-50261372D01*
X39383072Y-50383858D01*
X39523212Y-50485676D01*
X39677555Y-50564317D01*
X39842299Y-50617846D01*
X40013389Y-50644944D01*
X40013390Y-50644944D01*
X40186610Y-50644944D01*
X40186611Y-50644944D01*
X40357701Y-50617846D01*
X40522445Y-50564317D01*
X40676788Y-50485676D01*
X40816928Y-50383858D01*
X40939414Y-50261372D01*
X41041232Y-50121232D01*
X41119873Y-49966889D01*
X41173402Y-49802145D01*
X41200500Y-49631055D01*
X41200500Y-49457833D01*
X41173402Y-49286743D01*
X41119873Y-49121999D01*
X41041232Y-48967656D01*
X40939414Y-48827516D01*
X40816928Y-48705030D01*
X40676788Y-48603212D01*
X40522445Y-48524571D01*
X40357701Y-48471042D01*
X40357699Y-48471041D01*
X40357698Y-48471041D01*
X40226271Y-48450225D01*
X40186611Y-48443944D01*
X40013389Y-48443944D01*
X39973728Y-48450225D01*
X39842302Y-48471041D01*
X39677552Y-48524572D01*
X39523211Y-48603212D01*
X39443256Y-48661303D01*
X39383072Y-48705030D01*
X39383070Y-48705032D01*
X39383069Y-48705032D01*
X39260588Y-48827513D01*
X39260588Y-48827514D01*
X39260586Y-48827516D01*
X39244598Y-48849522D01*
X39158768Y-48967655D01*
X39080128Y-49121996D01*
X39026597Y-49286746D01*
X39006834Y-49411528D01*
X38999500Y-49457833D01*
X38999500Y-49631055D01*
X34200500Y-49631055D01*
X34200500Y-49457833D01*
X34173402Y-49286743D01*
X34119873Y-49121999D01*
X34041232Y-48967656D01*
X33939414Y-48827516D01*
X33816928Y-48705030D01*
X33676788Y-48603212D01*
X33522445Y-48524571D01*
X33357701Y-48471042D01*
X33357699Y-48471041D01*
X33357698Y-48471041D01*
X33226271Y-48450225D01*
X33186611Y-48443944D01*
X33013389Y-48443944D01*
X32973728Y-48450225D01*
X32842302Y-48471041D01*
X32677552Y-48524572D01*
X32523211Y-48603212D01*
X32443256Y-48661303D01*
X32383072Y-48705030D01*
X32383070Y-48705032D01*
X32383069Y-48705032D01*
X32260588Y-48827513D01*
X32260588Y-48827514D01*
X32260586Y-48827516D01*
X32244598Y-48849522D01*
X32158768Y-48967655D01*
X32080128Y-49121996D01*
X32026597Y-49286746D01*
X32006834Y-49411528D01*
X31999500Y-49457833D01*
X31999500Y-49631055D01*
X27000500Y-49631055D01*
X27000500Y-43108832D01*
X31999500Y-43108832D01*
X32026597Y-43279919D01*
X32026597Y-43279921D01*
X32026598Y-43279923D01*
X32064716Y-43397238D01*
X32080128Y-43444669D01*
X32122810Y-43528437D01*
X32158768Y-43599010D01*
X32260586Y-43739150D01*
X32383072Y-43861636D01*
X32523212Y-43963454D01*
X32677555Y-44042095D01*
X32842299Y-44095624D01*
X33013389Y-44122722D01*
X33013390Y-44122722D01*
X33186610Y-44122722D01*
X33186611Y-44122722D01*
X33357701Y-44095624D01*
X33522445Y-44042095D01*
X33676788Y-43963454D01*
X33816928Y-43861636D01*
X33939414Y-43739150D01*
X34041232Y-43599010D01*
X34119873Y-43444667D01*
X34173402Y-43279923D01*
X34200500Y-43108833D01*
X34200500Y-43000003D01*
X37194435Y-43000003D01*
X37214630Y-43179249D01*
X37214631Y-43179254D01*
X37274211Y-43349523D01*
X37333996Y-43444669D01*
X37370184Y-43502262D01*
X37497738Y-43629816D01*
X37588080Y-43686582D01*
X37602319Y-43695529D01*
X37650478Y-43725789D01*
X37820745Y-43785368D01*
X37820750Y-43785369D01*
X37999996Y-43805565D01*
X38000000Y-43805565D01*
X38000004Y-43805565D01*
X38179249Y-43785369D01*
X38179252Y-43785368D01*
X38179255Y-43785368D01*
X38349522Y-43725789D01*
X38502262Y-43629816D01*
X38629816Y-43502262D01*
X38725789Y-43349522D01*
X38777923Y-43200529D01*
X38818643Y-43143756D01*
X38883596Y-43118008D01*
X38952158Y-43131464D01*
X39002561Y-43179851D01*
X39017437Y-43222087D01*
X39026597Y-43279920D01*
X39026598Y-43279923D01*
X39064716Y-43397238D01*
X39080128Y-43444669D01*
X39122810Y-43528437D01*
X39158768Y-43599010D01*
X39260586Y-43739150D01*
X39383072Y-43861636D01*
X39523212Y-43963454D01*
X39677555Y-44042095D01*
X39842299Y-44095624D01*
X40013389Y-44122722D01*
X40013390Y-44122722D01*
X40186610Y-44122722D01*
X40186611Y-44122722D01*
X40357701Y-44095624D01*
X40522445Y-44042095D01*
X40676788Y-43963454D01*
X40816928Y-43861636D01*
X40939414Y-43739150D01*
X41041232Y-43599010D01*
X41119873Y-43444667D01*
X41173402Y-43279923D01*
X41200500Y-43108833D01*
X41200500Y-42935611D01*
X41173402Y-42764521D01*
X41119873Y-42599777D01*
X41041232Y-42445434D01*
X40939414Y-42305294D01*
X40816928Y-42182808D01*
X40676788Y-42080990D01*
X40522445Y-42002349D01*
X40357701Y-41948820D01*
X40357699Y-41948819D01*
X40357698Y-41948819D01*
X40226271Y-41928003D01*
X40186611Y-41921722D01*
X40013389Y-41921722D01*
X39973728Y-41928003D01*
X39842302Y-41948819D01*
X39677552Y-42002350D01*
X39523211Y-42080990D01*
X39443256Y-42139081D01*
X39383072Y-42182808D01*
X39383070Y-42182810D01*
X39383069Y-42182810D01*
X39260588Y-42305291D01*
X39260588Y-42305292D01*
X39260586Y-42305294D01*
X39239774Y-42333939D01*
X39158768Y-42445433D01*
X39080128Y-42599774D01*
X39026598Y-42764521D01*
X39022283Y-42791762D01*
X38992352Y-42854896D01*
X38933040Y-42891826D01*
X38863177Y-42890826D01*
X38804945Y-42852215D01*
X38782768Y-42813315D01*
X38725789Y-42650478D01*
X38693931Y-42599777D01*
X38629816Y-42497738D01*
X38502262Y-42370184D01*
X38349523Y-42274211D01*
X38179254Y-42214631D01*
X38179249Y-42214630D01*
X38000004Y-42194435D01*
X37999996Y-42194435D01*
X37820750Y-42214630D01*
X37820745Y-42214631D01*
X37650476Y-42274211D01*
X37497737Y-42370184D01*
X37370184Y-42497737D01*
X37274211Y-42650476D01*
X37214631Y-42820745D01*
X37214630Y-42820750D01*
X37194435Y-42999996D01*
X37194435Y-43000003D01*
X34200500Y-43000003D01*
X34200500Y-42935611D01*
X34173402Y-42764521D01*
X34119873Y-42599777D01*
X34041232Y-42445434D01*
X33939414Y-42305294D01*
X33816928Y-42182808D01*
X33676788Y-42080990D01*
X33522445Y-42002349D01*
X33357701Y-41948820D01*
X33357699Y-41948819D01*
X33357698Y-41948819D01*
X33226271Y-41928003D01*
X33186611Y-41921722D01*
X33013389Y-41921722D01*
X32973728Y-41928003D01*
X32842302Y-41948819D01*
X32677552Y-42002350D01*
X32523211Y-42080990D01*
X32443256Y-42139081D01*
X32383072Y-42182808D01*
X32383070Y-42182810D01*
X32383069Y-42182810D01*
X32260588Y-42305291D01*
X32260588Y-42305292D01*
X32260586Y-42305294D01*
X32239774Y-42333939D01*
X32158768Y-42445433D01*
X32080128Y-42599774D01*
X32026597Y-42764524D01*
X31999500Y-42935611D01*
X31999500Y-43108832D01*
X27000500Y-43108832D01*
X27000500Y-40500003D01*
X38694435Y-40500003D01*
X38714630Y-40679249D01*
X38714631Y-40679254D01*
X38774211Y-40849523D01*
X38780048Y-40858812D01*
X38870184Y-41002262D01*
X38997738Y-41129816D01*
X39150478Y-41225789D01*
X39317350Y-41284180D01*
X39320745Y-41285368D01*
X39320750Y-41285369D01*
X39499996Y-41305565D01*
X39500000Y-41305565D01*
X39500004Y-41305565D01*
X39679249Y-41285369D01*
X39679252Y-41285368D01*
X39679255Y-41285368D01*
X39849522Y-41225789D01*
X40002262Y-41129816D01*
X40129816Y-41002262D01*
X40225789Y-40849522D01*
X40285368Y-40679255D01*
X40287572Y-40659698D01*
X40305565Y-40500003D01*
X40305565Y-40499996D01*
X40285369Y-40320750D01*
X40285368Y-40320745D01*
X40225789Y-40150478D01*
X40129816Y-39997738D01*
X40002262Y-39870184D01*
X39899422Y-39805565D01*
X39849523Y-39774211D01*
X39679254Y-39714631D01*
X39679249Y-39714630D01*
X39500004Y-39694435D01*
X39499996Y-39694435D01*
X39320750Y-39714630D01*
X39320745Y-39714631D01*
X39150476Y-39774211D01*
X38997737Y-39870184D01*
X38870184Y-39997737D01*
X38774211Y-40150476D01*
X38714631Y-40320745D01*
X38714630Y-40320750D01*
X38694435Y-40499996D01*
X38694435Y-40500003D01*
X27000500Y-40500003D01*
X27000500Y-39000003D01*
X33194435Y-39000003D01*
X33214630Y-39179249D01*
X33214631Y-39179254D01*
X33274211Y-39349523D01*
X33370184Y-39502262D01*
X33497738Y-39629816D01*
X33588080Y-39686582D01*
X33632721Y-39714632D01*
X33650478Y-39725789D01*
X33788860Y-39774211D01*
X33820745Y-39785368D01*
X33820750Y-39785369D01*
X33999996Y-39805565D01*
X34000000Y-39805565D01*
X34000004Y-39805565D01*
X34179249Y-39785369D01*
X34179252Y-39785368D01*
X34179255Y-39785368D01*
X34349522Y-39725789D01*
X34502262Y-39629816D01*
X34629816Y-39502262D01*
X34725789Y-39349522D01*
X34785368Y-39179255D01*
X34785369Y-39179249D01*
X34805565Y-39000003D01*
X34805565Y-38999996D01*
X34785369Y-38820750D01*
X34785368Y-38820745D01*
X34780850Y-38807832D01*
X34725789Y-38650478D01*
X34717338Y-38637029D01*
X34631239Y-38500003D01*
X44694435Y-38500003D01*
X44714630Y-38679249D01*
X44714631Y-38679254D01*
X44774211Y-38849523D01*
X44868760Y-38999996D01*
X44870184Y-39002262D01*
X44997738Y-39129816D01*
X45150478Y-39225789D01*
X45224036Y-39251528D01*
X45320745Y-39285368D01*
X45320750Y-39285369D01*
X45499996Y-39305565D01*
X45500000Y-39305565D01*
X45500004Y-39305565D01*
X45679249Y-39285369D01*
X45679252Y-39285368D01*
X45679255Y-39285368D01*
X45849522Y-39225789D01*
X46002262Y-39129816D01*
X46129816Y-39002262D01*
X46225789Y-38849522D01*
X46285368Y-38679255D01*
X46285369Y-38679249D01*
X46289280Y-38644540D01*
X46316346Y-38580126D01*
X46373941Y-38540571D01*
X46443778Y-38538433D01*
X46503684Y-38574391D01*
X46534640Y-38637029D01*
X46535720Y-38644540D01*
X46539630Y-38679249D01*
X46539631Y-38679254D01*
X46599211Y-38849523D01*
X46693760Y-38999996D01*
X46695184Y-39002262D01*
X46822738Y-39129816D01*
X46975478Y-39225789D01*
X47049036Y-39251528D01*
X47145745Y-39285368D01*
X47145750Y-39285369D01*
X47324996Y-39305565D01*
X47325000Y-39305565D01*
X47325004Y-39305565D01*
X47504249Y-39285369D01*
X47504252Y-39285368D01*
X47504255Y-39285368D01*
X47674522Y-39225789D01*
X47827262Y-39129816D01*
X47954816Y-39002262D01*
X48050789Y-38849522D01*
X48110368Y-38679255D01*
X48110369Y-38679249D01*
X48130565Y-38500003D01*
X48130565Y-38499996D01*
X48110369Y-38320750D01*
X48110368Y-38320745D01*
X48094085Y-38274211D01*
X48050789Y-38150478D01*
X47954816Y-37997738D01*
X47827262Y-37870184D01*
X47674523Y-37774211D01*
X47504254Y-37714631D01*
X47504249Y-37714630D01*
X47325004Y-37694435D01*
X47324996Y-37694435D01*
X47145750Y-37714630D01*
X47145745Y-37714631D01*
X46975476Y-37774211D01*
X46822737Y-37870184D01*
X46695184Y-37997737D01*
X46599211Y-38150476D01*
X46539631Y-38320745D01*
X46539630Y-38320749D01*
X46535720Y-38355460D01*
X46508654Y-38419873D01*
X46451059Y-38459429D01*
X46381222Y-38461566D01*
X46321315Y-38425608D01*
X46290360Y-38362970D01*
X46289280Y-38355460D01*
X46285369Y-38320749D01*
X46285368Y-38320745D01*
X46269085Y-38274211D01*
X46225789Y-38150478D01*
X46129816Y-37997738D01*
X46002262Y-37870184D01*
X45849523Y-37774211D01*
X45679254Y-37714631D01*
X45679249Y-37714630D01*
X45500004Y-37694435D01*
X45499996Y-37694435D01*
X45320750Y-37714630D01*
X45320745Y-37714631D01*
X45150476Y-37774211D01*
X44997737Y-37870184D01*
X44870184Y-37997737D01*
X44774211Y-38150476D01*
X44714631Y-38320745D01*
X44714630Y-38320750D01*
X44694435Y-38499996D01*
X44694435Y-38500003D01*
X34631239Y-38500003D01*
X34631237Y-38500000D01*
X34629816Y-38497738D01*
X34502262Y-38370184D01*
X34478829Y-38355460D01*
X34349523Y-38274211D01*
X34179254Y-38214631D01*
X34179249Y-38214630D01*
X34000004Y-38194435D01*
X33999996Y-38194435D01*
X33820750Y-38214630D01*
X33820745Y-38214631D01*
X33650476Y-38274211D01*
X33497737Y-38370184D01*
X33370184Y-38497737D01*
X33274211Y-38650476D01*
X33214631Y-38820745D01*
X33214630Y-38820750D01*
X33194435Y-38999996D01*
X33194435Y-39000003D01*
X27000500Y-39000003D01*
X27000500Y-36586610D01*
X31999500Y-36586610D01*
X32021543Y-36725789D01*
X32026598Y-36757701D01*
X32080127Y-36922445D01*
X32158768Y-37076788D01*
X32260586Y-37216928D01*
X32383072Y-37339414D01*
X32523212Y-37441232D01*
X32677555Y-37519873D01*
X32842299Y-37573402D01*
X33013389Y-37600500D01*
X33013390Y-37600500D01*
X33186610Y-37600500D01*
X33186611Y-37600500D01*
X33357701Y-37573402D01*
X33522445Y-37519873D01*
X33676788Y-37441232D01*
X33816928Y-37339414D01*
X33939414Y-37216928D01*
X34041232Y-37076788D01*
X34119873Y-36922445D01*
X34173402Y-36757701D01*
X34200500Y-36586611D01*
X34200500Y-36586610D01*
X38999500Y-36586610D01*
X39021543Y-36725789D01*
X39026598Y-36757701D01*
X39080127Y-36922445D01*
X39158768Y-37076788D01*
X39260586Y-37216928D01*
X39383072Y-37339414D01*
X39523212Y-37441232D01*
X39677555Y-37519873D01*
X39842299Y-37573402D01*
X40013389Y-37600500D01*
X40013390Y-37600500D01*
X40186610Y-37600500D01*
X40186611Y-37600500D01*
X40357701Y-37573402D01*
X40522445Y-37519873D01*
X40676788Y-37441232D01*
X40816928Y-37339414D01*
X40939414Y-37216928D01*
X41041232Y-37076788D01*
X41119873Y-36922445D01*
X41173402Y-36757701D01*
X41200500Y-36586611D01*
X41200500Y-36413389D01*
X41173402Y-36242299D01*
X41119873Y-36077555D01*
X41041232Y-35923212D01*
X40939414Y-35783072D01*
X40816928Y-35660586D01*
X40676788Y-35558768D01*
X40522445Y-35480127D01*
X40357701Y-35426598D01*
X40357699Y-35426597D01*
X40357698Y-35426597D01*
X40226271Y-35405781D01*
X40186611Y-35399500D01*
X40013389Y-35399500D01*
X39973728Y-35405781D01*
X39842302Y-35426597D01*
X39677552Y-35480128D01*
X39523211Y-35558768D01*
X39477366Y-35592077D01*
X39383072Y-35660586D01*
X39383070Y-35660588D01*
X39383069Y-35660588D01*
X39260588Y-35783069D01*
X39260588Y-35783070D01*
X39260586Y-35783072D01*
X39233215Y-35820745D01*
X39158768Y-35923211D01*
X39080128Y-36077552D01*
X39026597Y-36242302D01*
X38999500Y-36413389D01*
X38999500Y-36586610D01*
X34200500Y-36586610D01*
X34200500Y-36413389D01*
X34173402Y-36242299D01*
X34119873Y-36077555D01*
X34041232Y-35923212D01*
X33939414Y-35783072D01*
X33816928Y-35660586D01*
X33676788Y-35558768D01*
X33522445Y-35480127D01*
X33357701Y-35426598D01*
X33357699Y-35426597D01*
X33357698Y-35426597D01*
X33226271Y-35405781D01*
X33186611Y-35399500D01*
X33013389Y-35399500D01*
X32973728Y-35405781D01*
X32842302Y-35426597D01*
X32677552Y-35480128D01*
X32523211Y-35558768D01*
X32477366Y-35592077D01*
X32383072Y-35660586D01*
X32383070Y-35660588D01*
X32383069Y-35660588D01*
X32260588Y-35783069D01*
X32260588Y-35783070D01*
X32260586Y-35783072D01*
X32233215Y-35820745D01*
X32158768Y-35923211D01*
X32080128Y-36077552D01*
X32026597Y-36242302D01*
X31999500Y-36413389D01*
X31999500Y-36586610D01*
X27000500Y-36586610D01*
X27000500Y-34000003D01*
X38194435Y-34000003D01*
X38214630Y-34179249D01*
X38214631Y-34179254D01*
X38274211Y-34349523D01*
X38310284Y-34406932D01*
X38370184Y-34502262D01*
X38497738Y-34629816D01*
X38650478Y-34725789D01*
X38820745Y-34785368D01*
X38820750Y-34785369D01*
X38999996Y-34805565D01*
X39000000Y-34805565D01*
X39000004Y-34805565D01*
X39179249Y-34785369D01*
X39179252Y-34785368D01*
X39179255Y-34785368D01*
X39349522Y-34725789D01*
X39502262Y-34629816D01*
X39629816Y-34502262D01*
X39725789Y-34349522D01*
X39785368Y-34179255D01*
X39805565Y-34000000D01*
X39785368Y-33820745D01*
X39725789Y-33650478D01*
X39629816Y-33497738D01*
X39502262Y-33370184D01*
X39417743Y-33317077D01*
X39349523Y-33274211D01*
X39179254Y-33214631D01*
X39179249Y-33214630D01*
X39000004Y-33194435D01*
X38999996Y-33194435D01*
X38820750Y-33214630D01*
X38820745Y-33214631D01*
X38650476Y-33274211D01*
X38497737Y-33370184D01*
X38370184Y-33497737D01*
X38274211Y-33650476D01*
X38214631Y-33820745D01*
X38214630Y-33820750D01*
X38194435Y-33999996D01*
X38194435Y-34000003D01*
X27000500Y-34000003D01*
X27000500Y-30624000D01*
X27020185Y-30556961D01*
X27072989Y-30511206D01*
X27124500Y-30500000D01*
X49880882Y-30500000D01*
X49947921Y-30519685D01*
G37*
G04 #@! TD.AperFunction*
M02*
