G04 #@! TF.GenerationSoftware,KiCad,Pcbnew,8.0.1*
G04 #@! TF.CreationDate,2024-03-31T18:38:23-05:00*
G04 #@! TF.ProjectId,dinoctopus_v2,64696e6f-6374-46f7-9075-735f76322e6b,rev?*
G04 #@! TF.SameCoordinates,Original*
G04 #@! TF.FileFunction,Soldermask,Top*
G04 #@! TF.FilePolarity,Negative*
%FSLAX46Y46*%
G04 Gerber Fmt 4.6, Leading zero omitted, Abs format (unit mm)*
G04 Created by KiCad (PCBNEW 8.0.1) date 2024-03-31 18:38:23*
%MOMM*%
%LPD*%
G01*
G04 APERTURE LIST*
G04 Aperture macros list*
%AMRoundRect*
0 Rectangle with rounded corners*
0 $1 Rounding radius*
0 $2 $3 $4 $5 $6 $7 $8 $9 X,Y pos of 4 corners*
0 Add a 4 corners polygon primitive as box body*
4,1,4,$2,$3,$4,$5,$6,$7,$8,$9,$2,$3,0*
0 Add four circle primitives for the rounded corners*
1,1,$1+$1,$2,$3*
1,1,$1+$1,$4,$5*
1,1,$1+$1,$6,$7*
1,1,$1+$1,$8,$9*
0 Add four rect primitives between the rounded corners*
20,1,$1+$1,$2,$3,$4,$5,0*
20,1,$1+$1,$4,$5,$6,$7,0*
20,1,$1+$1,$6,$7,$8,$9,0*
20,1,$1+$1,$8,$9,$2,$3,0*%
G04 Aperture macros list end*
%ADD10RoundRect,0.250000X0.450000X-0.262500X0.450000X0.262500X-0.450000X0.262500X-0.450000X-0.262500X0*%
%ADD11RoundRect,0.218750X0.256250X-0.218750X0.256250X0.218750X-0.256250X0.218750X-0.256250X-0.218750X0*%
%ADD12RoundRect,0.250000X0.262500X0.450000X-0.262500X0.450000X-0.262500X-0.450000X0.262500X-0.450000X0*%
%ADD13RoundRect,0.250000X-0.262500X-0.450000X0.262500X-0.450000X0.262500X0.450000X-0.262500X0.450000X0*%
%ADD14C,1.700000*%
%ADD15RoundRect,0.102000X-0.700000X-1.400000X0.700000X-1.400000X0.700000X1.400000X-0.700000X1.400000X0*%
%ADD16RoundRect,0.102000X-0.800000X-1.400000X0.800000X-1.400000X0.800000X1.400000X-0.800000X1.400000X0*%
%ADD17RoundRect,0.112500X-0.112500X0.187500X-0.112500X-0.187500X0.112500X-0.187500X0.112500X0.187500X0*%
%ADD18R,2.000000X1.780000*%
%ADD19R,1.700000X1.700000*%
%ADD20O,1.700000X1.700000*%
%ADD21RoundRect,0.250000X-0.450000X0.262500X-0.450000X-0.262500X0.450000X-0.262500X0.450000X0.262500X0*%
%ADD22RoundRect,0.150000X-0.150000X-0.625000X0.150000X-0.625000X0.150000X0.625000X-0.150000X0.625000X0*%
%ADD23RoundRect,0.250000X-0.350000X-0.650000X0.350000X-0.650000X0.350000X0.650000X-0.350000X0.650000X0*%
G04 APERTURE END LIST*
D10*
X47000000Y-54500000D03*
X47000000Y-52675000D03*
D11*
X28000000Y-92212500D03*
X28000000Y-93787500D03*
D12*
X31638363Y-31751227D03*
X29813363Y-31751227D03*
D13*
X36175000Y-58000000D03*
X38000000Y-58000000D03*
D14*
X33100000Y-75633332D03*
X40100000Y-75633332D03*
D15*
X32000000Y-79333332D03*
X41400000Y-79333332D03*
X34000000Y-71933332D03*
D16*
X45400000Y-74883332D03*
D13*
X59500000Y-94000000D03*
X61325000Y-94000000D03*
X59500000Y-55375000D03*
X61325000Y-55375000D03*
D12*
X31825000Y-71000000D03*
X30000000Y-71000000D03*
D17*
X47306411Y-33880718D03*
X47306411Y-31780718D03*
D11*
X28000000Y-72287500D03*
X28000000Y-70712500D03*
X28000000Y-44425000D03*
X28000000Y-46000000D03*
X28000000Y-59075000D03*
X28000000Y-57500000D03*
D18*
X55470000Y-84570000D03*
X55470000Y-87110000D03*
X55470000Y-89650000D03*
X65000000Y-89650000D03*
X65000000Y-87110000D03*
X65000000Y-84570000D03*
D17*
X48000000Y-45000000D03*
X48000000Y-47100000D03*
D14*
X33100000Y-36500000D03*
X40100000Y-36500000D03*
D15*
X32000000Y-40200000D03*
X41400000Y-40200000D03*
X34000000Y-32800000D03*
D16*
X45400000Y-35750000D03*
D19*
X69000000Y-31866932D03*
D20*
X69000000Y-34406932D03*
X69000000Y-36946932D03*
X69000000Y-39486932D03*
X69000000Y-42026932D03*
X69000000Y-44566932D03*
X69000000Y-47106932D03*
X69000000Y-49646932D03*
X69000000Y-52186932D03*
X69000000Y-54726932D03*
X69000000Y-57266932D03*
X69000000Y-59806932D03*
X69000000Y-62346932D03*
X69000000Y-64886932D03*
X69000000Y-67426932D03*
X69000000Y-69966932D03*
X69000000Y-72506932D03*
X69000000Y-75046932D03*
X69000000Y-77586932D03*
X69000000Y-80126932D03*
D17*
X48000000Y-58000000D03*
X48000000Y-60100000D03*
D11*
X28000000Y-33075000D03*
X28000000Y-31500000D03*
D13*
X36157482Y-44906343D03*
X37982482Y-44906343D03*
D17*
X48000000Y-70950000D03*
X48000000Y-73050000D03*
D11*
X28000000Y-85287500D03*
X28000000Y-83712500D03*
D18*
X65000000Y-33430000D03*
X65000000Y-35970000D03*
X65000000Y-38510000D03*
X55470000Y-38510000D03*
X55470000Y-35970000D03*
X55470000Y-33430000D03*
D13*
X41675000Y-71000000D03*
X43500000Y-71000000D03*
X41675000Y-45000000D03*
X43500000Y-45000000D03*
D18*
X65000000Y-46215000D03*
X65000000Y-48755000D03*
X65000000Y-51295000D03*
X55470000Y-51295000D03*
X55470000Y-48755000D03*
X55470000Y-46215000D03*
X55470000Y-71785000D03*
X55470000Y-74325000D03*
X55470000Y-76865000D03*
X65000000Y-76865000D03*
X65000000Y-74325000D03*
X65000000Y-71785000D03*
D14*
X33100000Y-49544444D03*
X40100000Y-49544444D03*
D15*
X32000000Y-53244444D03*
X41400000Y-53244444D03*
X34000000Y-45844444D03*
D16*
X45400000Y-48794444D03*
D20*
X51217784Y-80125663D03*
X51217784Y-77585663D03*
X51217784Y-75045663D03*
X51217784Y-72505663D03*
X51217784Y-69965663D03*
X51217784Y-67425663D03*
X51217784Y-64885663D03*
X51217784Y-62345663D03*
X51217784Y-59805663D03*
X51217784Y-57265663D03*
X51217784Y-54725663D03*
X51217784Y-52185663D03*
X51217784Y-49645663D03*
X51217784Y-47105663D03*
X51217784Y-44565663D03*
X51217784Y-42025663D03*
X51217784Y-39485663D03*
X51217784Y-36945663D03*
X51217784Y-34405663D03*
D19*
X51217784Y-31865663D03*
D13*
X41675000Y-58000000D03*
X43500000Y-58000000D03*
X36008493Y-84091404D03*
X37833493Y-84091404D03*
D17*
X48000000Y-85400000D03*
X48000000Y-87500000D03*
D13*
X35825697Y-31730496D03*
X37650697Y-31730496D03*
D14*
X33100000Y-88677776D03*
X40100000Y-88677776D03*
D15*
X32000000Y-92377776D03*
X41400000Y-92377776D03*
X34000000Y-84977776D03*
D16*
X45400000Y-87927776D03*
D13*
X59500000Y-68250000D03*
X61325000Y-68250000D03*
D14*
X33100000Y-62588888D03*
X40100000Y-62588888D03*
D15*
X32000000Y-66288888D03*
X41400000Y-66288888D03*
X34000000Y-58888888D03*
D16*
X45400000Y-61838888D03*
D13*
X41675000Y-84000000D03*
X43500000Y-84000000D03*
D21*
X60292328Y-41284184D03*
X60292328Y-43109184D03*
D18*
X55470000Y-59000000D03*
X55470000Y-61540000D03*
X55470000Y-64080000D03*
X65000000Y-64080000D03*
X65000000Y-61540000D03*
X65000000Y-59000000D03*
D22*
X66500000Y-92500000D03*
X67500000Y-92500000D03*
X68500000Y-92500000D03*
X69500000Y-92500000D03*
D23*
X65200000Y-96375000D03*
X70800000Y-96375000D03*
D13*
X59500000Y-81125000D03*
X61325000Y-81125000D03*
D14*
X33100000Y-43022222D03*
X40100000Y-43022222D03*
D13*
X36157482Y-42936895D03*
X37982482Y-42936895D03*
D10*
X29984360Y-68905393D03*
X29984360Y-67080393D03*
D13*
X36016422Y-80158175D03*
X37841422Y-80158175D03*
D14*
X33100000Y-56066666D03*
X40100000Y-56066666D03*
X33100000Y-69111110D03*
X40100000Y-69111110D03*
D12*
X37903103Y-69120171D03*
X36078103Y-69120171D03*
D14*
X40100000Y-95199998D03*
X33100000Y-95199998D03*
D13*
X37889155Y-67165349D03*
X36064155Y-67165349D03*
D10*
X29868590Y-93020460D03*
X29868590Y-94845460D03*
D11*
X27895079Y-80582202D03*
X27895079Y-79007202D03*
D21*
X28000000Y-96675000D03*
X28000000Y-98500000D03*
D10*
X29997278Y-55755017D03*
X29997278Y-53930017D03*
D12*
X47325000Y-38500000D03*
X45500000Y-38500000D03*
D11*
X28000000Y-67500000D03*
X28000000Y-65925000D03*
D14*
X33100000Y-82155554D03*
X40100000Y-82155554D03*
D21*
X55932088Y-67605658D03*
X55932088Y-69430658D03*
D13*
X36175000Y-55500000D03*
X38000000Y-55500000D03*
D11*
X28000000Y-41787500D03*
X28000000Y-40212500D03*
X28000000Y-54575000D03*
X28000000Y-53000000D03*
D13*
X35500000Y-93500000D03*
X37325000Y-93500000D03*
D10*
X30115931Y-42806054D03*
X30115931Y-40981054D03*
D13*
X36033487Y-82108547D03*
X37858487Y-82108547D03*
M02*
