%TF.GenerationSoftware,KiCad,Pcbnew,8.0.1*%
%TF.CreationDate,2024-03-31T18:38:25-05:00*%
%TF.ProjectId,dinoctopus_v2,64696e6f-6374-46f7-9075-735f76322e6b,rev?*%
%TF.SameCoordinates,Original*%
%TF.FileFunction,Drillmap*%
%TF.FilePolarity,Positive*%
%FSLAX45Y45*%
G04 Gerber Fmt 4.5, Leading zero omitted, Abs format (unit mm)*
G04 Created by KiCad (PCBNEW 8.0.1) date 2024-03-31 18:38:25*
%MOMM*%
%LPD*%
G01*
G04 APERTURE LIST*
%ADD10C,0.050000*%
%ADD11C,0.200000*%
%ADD12C,0.170000*%
G04 APERTURE END LIST*
D10*
X2650000Y-2950000D02*
X7200000Y-2950000D01*
X7200000Y-10100000D01*
X2650000Y-10100000D01*
X2650000Y-2950000D01*
D11*
D12*
X3225000Y-3565000D02*
X3395000Y-3735000D01*
X3395000Y-3565000D02*
X3225000Y-3735000D01*
X3225000Y-4217222D02*
X3395000Y-4387222D01*
X3395000Y-4217222D02*
X3225000Y-4387222D01*
X3225000Y-4869444D02*
X3395000Y-5039444D01*
X3395000Y-4869444D02*
X3225000Y-5039444D01*
X3225000Y-5521667D02*
X3395000Y-5691667D01*
X3395000Y-5521667D02*
X3225000Y-5691667D01*
X3225000Y-6173889D02*
X3395000Y-6343889D01*
X3395000Y-6173889D02*
X3225000Y-6343889D01*
X3225000Y-6826111D02*
X3395000Y-6996111D01*
X3395000Y-6826111D02*
X3225000Y-6996111D01*
X3225000Y-7478333D02*
X3395000Y-7648333D01*
X3395000Y-7478333D02*
X3225000Y-7648333D01*
X3225000Y-8130555D02*
X3395000Y-8300555D01*
X3395000Y-8130555D02*
X3225000Y-8300555D01*
X3225000Y-8782778D02*
X3395000Y-8952778D01*
X3395000Y-8782778D02*
X3225000Y-8952778D01*
X3225000Y-9435000D02*
X3395000Y-9605000D01*
X3395000Y-9435000D02*
X3225000Y-9605000D01*
X3925000Y-3565000D02*
X4095000Y-3735000D01*
X4095000Y-3565000D02*
X3925000Y-3735000D01*
X3925000Y-4217222D02*
X4095000Y-4387222D01*
X4095000Y-4217222D02*
X3925000Y-4387222D01*
X3925000Y-4869444D02*
X4095000Y-5039444D01*
X4095000Y-4869444D02*
X3925000Y-5039444D01*
X3925000Y-5521667D02*
X4095000Y-5691667D01*
X4095000Y-5521667D02*
X3925000Y-5691667D01*
X3925000Y-6173889D02*
X4095000Y-6343889D01*
X4095000Y-6173889D02*
X3925000Y-6343889D01*
X3925000Y-6826111D02*
X4095000Y-6996111D01*
X4095000Y-6826111D02*
X3925000Y-6996111D01*
X3925000Y-7478333D02*
X4095000Y-7648333D01*
X4095000Y-7478333D02*
X3925000Y-7648333D01*
X3925000Y-8130555D02*
X4095000Y-8300555D01*
X4095000Y-8130555D02*
X3925000Y-8300555D01*
X3925000Y-8782778D02*
X4095000Y-8952778D01*
X4095000Y-8782778D02*
X3925000Y-8952778D01*
X3925000Y-9435000D02*
X4095000Y-9605000D01*
X4095000Y-9435000D02*
X3925000Y-9605000D01*
D11*
X2908277Y-10413984D02*
X2908277Y-10213984D01*
X2908277Y-10213984D02*
X2955896Y-10213984D01*
X2955896Y-10213984D02*
X2984467Y-10223508D01*
X2984467Y-10223508D02*
X3003515Y-10242555D01*
X3003515Y-10242555D02*
X3013039Y-10261603D01*
X3013039Y-10261603D02*
X3022562Y-10299698D01*
X3022562Y-10299698D02*
X3022562Y-10328270D01*
X3022562Y-10328270D02*
X3013039Y-10366365D01*
X3013039Y-10366365D02*
X3003515Y-10385412D01*
X3003515Y-10385412D02*
X2984467Y-10404460D01*
X2984467Y-10404460D02*
X2955896Y-10413984D01*
X2955896Y-10413984D02*
X2908277Y-10413984D01*
X3108277Y-10413984D02*
X3108277Y-10280650D01*
X3108277Y-10318746D02*
X3117801Y-10299698D01*
X3117801Y-10299698D02*
X3127324Y-10290174D01*
X3127324Y-10290174D02*
X3146372Y-10280650D01*
X3146372Y-10280650D02*
X3165420Y-10280650D01*
X3232086Y-10413984D02*
X3232086Y-10280650D01*
X3232086Y-10213984D02*
X3222562Y-10223508D01*
X3222562Y-10223508D02*
X3232086Y-10233031D01*
X3232086Y-10233031D02*
X3241610Y-10223508D01*
X3241610Y-10223508D02*
X3232086Y-10213984D01*
X3232086Y-10213984D02*
X3232086Y-10233031D01*
X3355896Y-10413984D02*
X3336848Y-10404460D01*
X3336848Y-10404460D02*
X3327324Y-10385412D01*
X3327324Y-10385412D02*
X3327324Y-10213984D01*
X3460658Y-10413984D02*
X3441610Y-10404460D01*
X3441610Y-10404460D02*
X3432086Y-10385412D01*
X3432086Y-10385412D02*
X3432086Y-10213984D01*
X3689229Y-10413984D02*
X3689229Y-10213984D01*
X3689229Y-10213984D02*
X3755896Y-10356841D01*
X3755896Y-10356841D02*
X3822562Y-10213984D01*
X3822562Y-10213984D02*
X3822562Y-10413984D01*
X4003515Y-10413984D02*
X4003515Y-10309222D01*
X4003515Y-10309222D02*
X3993991Y-10290174D01*
X3993991Y-10290174D02*
X3974943Y-10280650D01*
X3974943Y-10280650D02*
X3936848Y-10280650D01*
X3936848Y-10280650D02*
X3917801Y-10290174D01*
X4003515Y-10404460D02*
X3984467Y-10413984D01*
X3984467Y-10413984D02*
X3936848Y-10413984D01*
X3936848Y-10413984D02*
X3917801Y-10404460D01*
X3917801Y-10404460D02*
X3908277Y-10385412D01*
X3908277Y-10385412D02*
X3908277Y-10366365D01*
X3908277Y-10366365D02*
X3917801Y-10347317D01*
X3917801Y-10347317D02*
X3936848Y-10337793D01*
X3936848Y-10337793D02*
X3984467Y-10337793D01*
X3984467Y-10337793D02*
X4003515Y-10328270D01*
X4098753Y-10280650D02*
X4098753Y-10480650D01*
X4098753Y-10290174D02*
X4117801Y-10280650D01*
X4117801Y-10280650D02*
X4155896Y-10280650D01*
X4155896Y-10280650D02*
X4174943Y-10290174D01*
X4174943Y-10290174D02*
X4184467Y-10299698D01*
X4184467Y-10299698D02*
X4193991Y-10318746D01*
X4193991Y-10318746D02*
X4193991Y-10375889D01*
X4193991Y-10375889D02*
X4184467Y-10394936D01*
X4184467Y-10394936D02*
X4174943Y-10404460D01*
X4174943Y-10404460D02*
X4155896Y-10413984D01*
X4155896Y-10413984D02*
X4117801Y-10413984D01*
X4117801Y-10413984D02*
X4098753Y-10404460D01*
X4279705Y-10394936D02*
X4289229Y-10404460D01*
X4289229Y-10404460D02*
X4279705Y-10413984D01*
X4279705Y-10413984D02*
X4270182Y-10404460D01*
X4270182Y-10404460D02*
X4279705Y-10394936D01*
X4279705Y-10394936D02*
X4279705Y-10413984D01*
X4279705Y-10290174D02*
X4289229Y-10299698D01*
X4289229Y-10299698D02*
X4279705Y-10309222D01*
X4279705Y-10309222D02*
X4270182Y-10299698D01*
X4270182Y-10299698D02*
X4279705Y-10290174D01*
X4279705Y-10290174D02*
X4279705Y-10309222D01*
D12*
X2477500Y-10657500D02*
X2647500Y-10827500D01*
X2647500Y-10657500D02*
X2477500Y-10827500D01*
D11*
X3013039Y-10833984D02*
X2898753Y-10833984D01*
X2955896Y-10833984D02*
X2955896Y-10633984D01*
X2955896Y-10633984D02*
X2936848Y-10662555D01*
X2936848Y-10662555D02*
X2917801Y-10681603D01*
X2917801Y-10681603D02*
X2898753Y-10691127D01*
X3098753Y-10814936D02*
X3108277Y-10824460D01*
X3108277Y-10824460D02*
X3098753Y-10833984D01*
X3098753Y-10833984D02*
X3089229Y-10824460D01*
X3089229Y-10824460D02*
X3098753Y-10814936D01*
X3098753Y-10814936D02*
X3098753Y-10833984D01*
X3174943Y-10633984D02*
X3308277Y-10633984D01*
X3308277Y-10633984D02*
X3222562Y-10833984D01*
X3422562Y-10633984D02*
X3441610Y-10633984D01*
X3441610Y-10633984D02*
X3460658Y-10643508D01*
X3460658Y-10643508D02*
X3470182Y-10653031D01*
X3470182Y-10653031D02*
X3479705Y-10672079D01*
X3479705Y-10672079D02*
X3489229Y-10710174D01*
X3489229Y-10710174D02*
X3489229Y-10757793D01*
X3489229Y-10757793D02*
X3479705Y-10795889D01*
X3479705Y-10795889D02*
X3470182Y-10814936D01*
X3470182Y-10814936D02*
X3460658Y-10824460D01*
X3460658Y-10824460D02*
X3441610Y-10833984D01*
X3441610Y-10833984D02*
X3422562Y-10833984D01*
X3422562Y-10833984D02*
X3403515Y-10824460D01*
X3403515Y-10824460D02*
X3393991Y-10814936D01*
X3393991Y-10814936D02*
X3384467Y-10795889D01*
X3384467Y-10795889D02*
X3374943Y-10757793D01*
X3374943Y-10757793D02*
X3374943Y-10710174D01*
X3374943Y-10710174D02*
X3384467Y-10672079D01*
X3384467Y-10672079D02*
X3393991Y-10653031D01*
X3393991Y-10653031D02*
X3403515Y-10643508D01*
X3403515Y-10643508D02*
X3422562Y-10633984D01*
X3613039Y-10633984D02*
X3632086Y-10633984D01*
X3632086Y-10633984D02*
X3651134Y-10643508D01*
X3651134Y-10643508D02*
X3660658Y-10653031D01*
X3660658Y-10653031D02*
X3670182Y-10672079D01*
X3670182Y-10672079D02*
X3679705Y-10710174D01*
X3679705Y-10710174D02*
X3679705Y-10757793D01*
X3679705Y-10757793D02*
X3670182Y-10795889D01*
X3670182Y-10795889D02*
X3660658Y-10814936D01*
X3660658Y-10814936D02*
X3651134Y-10824460D01*
X3651134Y-10824460D02*
X3632086Y-10833984D01*
X3632086Y-10833984D02*
X3613039Y-10833984D01*
X3613039Y-10833984D02*
X3593991Y-10824460D01*
X3593991Y-10824460D02*
X3584467Y-10814936D01*
X3584467Y-10814936D02*
X3574943Y-10795889D01*
X3574943Y-10795889D02*
X3565420Y-10757793D01*
X3565420Y-10757793D02*
X3565420Y-10710174D01*
X3565420Y-10710174D02*
X3574943Y-10672079D01*
X3574943Y-10672079D02*
X3584467Y-10653031D01*
X3584467Y-10653031D02*
X3593991Y-10643508D01*
X3593991Y-10643508D02*
X3613039Y-10633984D01*
X3765420Y-10833984D02*
X3765420Y-10700650D01*
X3765420Y-10719698D02*
X3774943Y-10710174D01*
X3774943Y-10710174D02*
X3793991Y-10700650D01*
X3793991Y-10700650D02*
X3822563Y-10700650D01*
X3822563Y-10700650D02*
X3841610Y-10710174D01*
X3841610Y-10710174D02*
X3851134Y-10729222D01*
X3851134Y-10729222D02*
X3851134Y-10833984D01*
X3851134Y-10729222D02*
X3860658Y-10710174D01*
X3860658Y-10710174D02*
X3879705Y-10700650D01*
X3879705Y-10700650D02*
X3908277Y-10700650D01*
X3908277Y-10700650D02*
X3927324Y-10710174D01*
X3927324Y-10710174D02*
X3936848Y-10729222D01*
X3936848Y-10729222D02*
X3936848Y-10833984D01*
X4032086Y-10833984D02*
X4032086Y-10700650D01*
X4032086Y-10719698D02*
X4041610Y-10710174D01*
X4041610Y-10710174D02*
X4060658Y-10700650D01*
X4060658Y-10700650D02*
X4089229Y-10700650D01*
X4089229Y-10700650D02*
X4108277Y-10710174D01*
X4108277Y-10710174D02*
X4117801Y-10729222D01*
X4117801Y-10729222D02*
X4117801Y-10833984D01*
X4117801Y-10729222D02*
X4127324Y-10710174D01*
X4127324Y-10710174D02*
X4146372Y-10700650D01*
X4146372Y-10700650D02*
X4174943Y-10700650D01*
X4174943Y-10700650D02*
X4193991Y-10710174D01*
X4193991Y-10710174D02*
X4203515Y-10729222D01*
X4203515Y-10729222D02*
X4203515Y-10833984D01*
X4593991Y-10624460D02*
X4422563Y-10881603D01*
X4851134Y-10633984D02*
X4870182Y-10633984D01*
X4870182Y-10633984D02*
X4889229Y-10643508D01*
X4889229Y-10643508D02*
X4898753Y-10653031D01*
X4898753Y-10653031D02*
X4908277Y-10672079D01*
X4908277Y-10672079D02*
X4917801Y-10710174D01*
X4917801Y-10710174D02*
X4917801Y-10757793D01*
X4917801Y-10757793D02*
X4908277Y-10795889D01*
X4908277Y-10795889D02*
X4898753Y-10814936D01*
X4898753Y-10814936D02*
X4889229Y-10824460D01*
X4889229Y-10824460D02*
X4870182Y-10833984D01*
X4870182Y-10833984D02*
X4851134Y-10833984D01*
X4851134Y-10833984D02*
X4832087Y-10824460D01*
X4832087Y-10824460D02*
X4822563Y-10814936D01*
X4822563Y-10814936D02*
X4813039Y-10795889D01*
X4813039Y-10795889D02*
X4803515Y-10757793D01*
X4803515Y-10757793D02*
X4803515Y-10710174D01*
X4803515Y-10710174D02*
X4813039Y-10672079D01*
X4813039Y-10672079D02*
X4822563Y-10653031D01*
X4822563Y-10653031D02*
X4832087Y-10643508D01*
X4832087Y-10643508D02*
X4851134Y-10633984D01*
X5003515Y-10814936D02*
X5013039Y-10824460D01*
X5013039Y-10824460D02*
X5003515Y-10833984D01*
X5003515Y-10833984D02*
X4993991Y-10824460D01*
X4993991Y-10824460D02*
X5003515Y-10814936D01*
X5003515Y-10814936D02*
X5003515Y-10833984D01*
X5136848Y-10633984D02*
X5155896Y-10633984D01*
X5155896Y-10633984D02*
X5174944Y-10643508D01*
X5174944Y-10643508D02*
X5184468Y-10653031D01*
X5184468Y-10653031D02*
X5193991Y-10672079D01*
X5193991Y-10672079D02*
X5203515Y-10710174D01*
X5203515Y-10710174D02*
X5203515Y-10757793D01*
X5203515Y-10757793D02*
X5193991Y-10795889D01*
X5193991Y-10795889D02*
X5184468Y-10814936D01*
X5184468Y-10814936D02*
X5174944Y-10824460D01*
X5174944Y-10824460D02*
X5155896Y-10833984D01*
X5155896Y-10833984D02*
X5136848Y-10833984D01*
X5136848Y-10833984D02*
X5117801Y-10824460D01*
X5117801Y-10824460D02*
X5108277Y-10814936D01*
X5108277Y-10814936D02*
X5098753Y-10795889D01*
X5098753Y-10795889D02*
X5089229Y-10757793D01*
X5089229Y-10757793D02*
X5089229Y-10710174D01*
X5089229Y-10710174D02*
X5098753Y-10672079D01*
X5098753Y-10672079D02*
X5108277Y-10653031D01*
X5108277Y-10653031D02*
X5117801Y-10643508D01*
X5117801Y-10643508D02*
X5136848Y-10633984D01*
X5374944Y-10633984D02*
X5336848Y-10633984D01*
X5336848Y-10633984D02*
X5317801Y-10643508D01*
X5317801Y-10643508D02*
X5308277Y-10653031D01*
X5308277Y-10653031D02*
X5289229Y-10681603D01*
X5289229Y-10681603D02*
X5279706Y-10719698D01*
X5279706Y-10719698D02*
X5279706Y-10795889D01*
X5279706Y-10795889D02*
X5289229Y-10814936D01*
X5289229Y-10814936D02*
X5298753Y-10824460D01*
X5298753Y-10824460D02*
X5317801Y-10833984D01*
X5317801Y-10833984D02*
X5355896Y-10833984D01*
X5355896Y-10833984D02*
X5374944Y-10824460D01*
X5374944Y-10824460D02*
X5384468Y-10814936D01*
X5384468Y-10814936D02*
X5393991Y-10795889D01*
X5393991Y-10795889D02*
X5393991Y-10748270D01*
X5393991Y-10748270D02*
X5384468Y-10729222D01*
X5384468Y-10729222D02*
X5374944Y-10719698D01*
X5374944Y-10719698D02*
X5355896Y-10710174D01*
X5355896Y-10710174D02*
X5317801Y-10710174D01*
X5317801Y-10710174D02*
X5298753Y-10719698D01*
X5298753Y-10719698D02*
X5289229Y-10729222D01*
X5289229Y-10729222D02*
X5279706Y-10748270D01*
X5565420Y-10633984D02*
X5527325Y-10633984D01*
X5527325Y-10633984D02*
X5508277Y-10643508D01*
X5508277Y-10643508D02*
X5498753Y-10653031D01*
X5498753Y-10653031D02*
X5479706Y-10681603D01*
X5479706Y-10681603D02*
X5470182Y-10719698D01*
X5470182Y-10719698D02*
X5470182Y-10795889D01*
X5470182Y-10795889D02*
X5479706Y-10814936D01*
X5479706Y-10814936D02*
X5489229Y-10824460D01*
X5489229Y-10824460D02*
X5508277Y-10833984D01*
X5508277Y-10833984D02*
X5546372Y-10833984D01*
X5546372Y-10833984D02*
X5565420Y-10824460D01*
X5565420Y-10824460D02*
X5574944Y-10814936D01*
X5574944Y-10814936D02*
X5584468Y-10795889D01*
X5584468Y-10795889D02*
X5584468Y-10748270D01*
X5584468Y-10748270D02*
X5574944Y-10729222D01*
X5574944Y-10729222D02*
X5565420Y-10719698D01*
X5565420Y-10719698D02*
X5546372Y-10710174D01*
X5546372Y-10710174D02*
X5508277Y-10710174D01*
X5508277Y-10710174D02*
X5489229Y-10719698D01*
X5489229Y-10719698D02*
X5479706Y-10729222D01*
X5479706Y-10729222D02*
X5470182Y-10748270D01*
X5679706Y-10833984D02*
X5717801Y-10833984D01*
X5717801Y-10833984D02*
X5736848Y-10824460D01*
X5736848Y-10824460D02*
X5746372Y-10814936D01*
X5746372Y-10814936D02*
X5765420Y-10786365D01*
X5765420Y-10786365D02*
X5774944Y-10748270D01*
X5774944Y-10748270D02*
X5774944Y-10672079D01*
X5774944Y-10672079D02*
X5765420Y-10653031D01*
X5765420Y-10653031D02*
X5755896Y-10643508D01*
X5755896Y-10643508D02*
X5736848Y-10633984D01*
X5736848Y-10633984D02*
X5698753Y-10633984D01*
X5698753Y-10633984D02*
X5679706Y-10643508D01*
X5679706Y-10643508D02*
X5670182Y-10653031D01*
X5670182Y-10653031D02*
X5660658Y-10672079D01*
X5660658Y-10672079D02*
X5660658Y-10719698D01*
X5660658Y-10719698D02*
X5670182Y-10738746D01*
X5670182Y-10738746D02*
X5679706Y-10748270D01*
X5679706Y-10748270D02*
X5698753Y-10757793D01*
X5698753Y-10757793D02*
X5736848Y-10757793D01*
X5736848Y-10757793D02*
X5755896Y-10748270D01*
X5755896Y-10748270D02*
X5765420Y-10738746D01*
X5765420Y-10738746D02*
X5774944Y-10719698D01*
X5851134Y-10633984D02*
X5851134Y-10672079D01*
X5927325Y-10633984D02*
X5927325Y-10672079D01*
X6222563Y-10910174D02*
X6213039Y-10900650D01*
X6213039Y-10900650D02*
X6193991Y-10872079D01*
X6193991Y-10872079D02*
X6184468Y-10853031D01*
X6184468Y-10853031D02*
X6174944Y-10824460D01*
X6174944Y-10824460D02*
X6165420Y-10776841D01*
X6165420Y-10776841D02*
X6165420Y-10738746D01*
X6165420Y-10738746D02*
X6174944Y-10691127D01*
X6174944Y-10691127D02*
X6184468Y-10662555D01*
X6184468Y-10662555D02*
X6193991Y-10643508D01*
X6193991Y-10643508D02*
X6213039Y-10614936D01*
X6213039Y-10614936D02*
X6222563Y-10605412D01*
X6289229Y-10653031D02*
X6298753Y-10643508D01*
X6298753Y-10643508D02*
X6317801Y-10633984D01*
X6317801Y-10633984D02*
X6365420Y-10633984D01*
X6365420Y-10633984D02*
X6384468Y-10643508D01*
X6384468Y-10643508D02*
X6393991Y-10653031D01*
X6393991Y-10653031D02*
X6403515Y-10672079D01*
X6403515Y-10672079D02*
X6403515Y-10691127D01*
X6403515Y-10691127D02*
X6393991Y-10719698D01*
X6393991Y-10719698D02*
X6279706Y-10833984D01*
X6279706Y-10833984D02*
X6403515Y-10833984D01*
X6527325Y-10633984D02*
X6546372Y-10633984D01*
X6546372Y-10633984D02*
X6565420Y-10643508D01*
X6565420Y-10643508D02*
X6574944Y-10653031D01*
X6574944Y-10653031D02*
X6584468Y-10672079D01*
X6584468Y-10672079D02*
X6593991Y-10710174D01*
X6593991Y-10710174D02*
X6593991Y-10757793D01*
X6593991Y-10757793D02*
X6584468Y-10795889D01*
X6584468Y-10795889D02*
X6574944Y-10814936D01*
X6574944Y-10814936D02*
X6565420Y-10824460D01*
X6565420Y-10824460D02*
X6546372Y-10833984D01*
X6546372Y-10833984D02*
X6527325Y-10833984D01*
X6527325Y-10833984D02*
X6508277Y-10824460D01*
X6508277Y-10824460D02*
X6498753Y-10814936D01*
X6498753Y-10814936D02*
X6489229Y-10795889D01*
X6489229Y-10795889D02*
X6479706Y-10757793D01*
X6479706Y-10757793D02*
X6479706Y-10710174D01*
X6479706Y-10710174D02*
X6489229Y-10672079D01*
X6489229Y-10672079D02*
X6498753Y-10653031D01*
X6498753Y-10653031D02*
X6508277Y-10643508D01*
X6508277Y-10643508D02*
X6527325Y-10633984D01*
X6832087Y-10833984D02*
X6832087Y-10633984D01*
X6917801Y-10833984D02*
X6917801Y-10729222D01*
X6917801Y-10729222D02*
X6908277Y-10710174D01*
X6908277Y-10710174D02*
X6889230Y-10700650D01*
X6889230Y-10700650D02*
X6860658Y-10700650D01*
X6860658Y-10700650D02*
X6841610Y-10710174D01*
X6841610Y-10710174D02*
X6832087Y-10719698D01*
X7041610Y-10833984D02*
X7022563Y-10824460D01*
X7022563Y-10824460D02*
X7013039Y-10814936D01*
X7013039Y-10814936D02*
X7003515Y-10795889D01*
X7003515Y-10795889D02*
X7003515Y-10738746D01*
X7003515Y-10738746D02*
X7013039Y-10719698D01*
X7013039Y-10719698D02*
X7022563Y-10710174D01*
X7022563Y-10710174D02*
X7041610Y-10700650D01*
X7041610Y-10700650D02*
X7070182Y-10700650D01*
X7070182Y-10700650D02*
X7089230Y-10710174D01*
X7089230Y-10710174D02*
X7098753Y-10719698D01*
X7098753Y-10719698D02*
X7108277Y-10738746D01*
X7108277Y-10738746D02*
X7108277Y-10795889D01*
X7108277Y-10795889D02*
X7098753Y-10814936D01*
X7098753Y-10814936D02*
X7089230Y-10824460D01*
X7089230Y-10824460D02*
X7070182Y-10833984D01*
X7070182Y-10833984D02*
X7041610Y-10833984D01*
X7222563Y-10833984D02*
X7203515Y-10824460D01*
X7203515Y-10824460D02*
X7193991Y-10805412D01*
X7193991Y-10805412D02*
X7193991Y-10633984D01*
X7374944Y-10824460D02*
X7355896Y-10833984D01*
X7355896Y-10833984D02*
X7317801Y-10833984D01*
X7317801Y-10833984D02*
X7298753Y-10824460D01*
X7298753Y-10824460D02*
X7289230Y-10805412D01*
X7289230Y-10805412D02*
X7289230Y-10729222D01*
X7289230Y-10729222D02*
X7298753Y-10710174D01*
X7298753Y-10710174D02*
X7317801Y-10700650D01*
X7317801Y-10700650D02*
X7355896Y-10700650D01*
X7355896Y-10700650D02*
X7374944Y-10710174D01*
X7374944Y-10710174D02*
X7384468Y-10729222D01*
X7384468Y-10729222D02*
X7384468Y-10748270D01*
X7384468Y-10748270D02*
X7289230Y-10767317D01*
X7460658Y-10824460D02*
X7479706Y-10833984D01*
X7479706Y-10833984D02*
X7517801Y-10833984D01*
X7517801Y-10833984D02*
X7536849Y-10824460D01*
X7536849Y-10824460D02*
X7546372Y-10805412D01*
X7546372Y-10805412D02*
X7546372Y-10795889D01*
X7546372Y-10795889D02*
X7536849Y-10776841D01*
X7536849Y-10776841D02*
X7517801Y-10767317D01*
X7517801Y-10767317D02*
X7489230Y-10767317D01*
X7489230Y-10767317D02*
X7470182Y-10757793D01*
X7470182Y-10757793D02*
X7460658Y-10738746D01*
X7460658Y-10738746D02*
X7460658Y-10729222D01*
X7460658Y-10729222D02*
X7470182Y-10710174D01*
X7470182Y-10710174D02*
X7489230Y-10700650D01*
X7489230Y-10700650D02*
X7517801Y-10700650D01*
X7517801Y-10700650D02*
X7536849Y-10710174D01*
X7613039Y-10910174D02*
X7622563Y-10900650D01*
X7622563Y-10900650D02*
X7641611Y-10872079D01*
X7641611Y-10872079D02*
X7651134Y-10853031D01*
X7651134Y-10853031D02*
X7660658Y-10824460D01*
X7660658Y-10824460D02*
X7670182Y-10776841D01*
X7670182Y-10776841D02*
X7670182Y-10738746D01*
X7670182Y-10738746D02*
X7660658Y-10691127D01*
X7660658Y-10691127D02*
X7651134Y-10662555D01*
X7651134Y-10662555D02*
X7641611Y-10643508D01*
X7641611Y-10643508D02*
X7622563Y-10614936D01*
X7622563Y-10614936D02*
X7613039Y-10605412D01*
X7974944Y-10910174D02*
X7965420Y-10900650D01*
X7965420Y-10900650D02*
X7946372Y-10872079D01*
X7946372Y-10872079D02*
X7936849Y-10853031D01*
X7936849Y-10853031D02*
X7927325Y-10824460D01*
X7927325Y-10824460D02*
X7917801Y-10776841D01*
X7917801Y-10776841D02*
X7917801Y-10738746D01*
X7917801Y-10738746D02*
X7927325Y-10691127D01*
X7927325Y-10691127D02*
X7936849Y-10662555D01*
X7936849Y-10662555D02*
X7946372Y-10643508D01*
X7946372Y-10643508D02*
X7965420Y-10614936D01*
X7965420Y-10614936D02*
X7974944Y-10605412D01*
X8051134Y-10700650D02*
X8051134Y-10833984D01*
X8051134Y-10719698D02*
X8060658Y-10710174D01*
X8060658Y-10710174D02*
X8079706Y-10700650D01*
X8079706Y-10700650D02*
X8108277Y-10700650D01*
X8108277Y-10700650D02*
X8127325Y-10710174D01*
X8127325Y-10710174D02*
X8136849Y-10729222D01*
X8136849Y-10729222D02*
X8136849Y-10833984D01*
X8260658Y-10833984D02*
X8241611Y-10824460D01*
X8241611Y-10824460D02*
X8232087Y-10814936D01*
X8232087Y-10814936D02*
X8222563Y-10795889D01*
X8222563Y-10795889D02*
X8222563Y-10738746D01*
X8222563Y-10738746D02*
X8232087Y-10719698D01*
X8232087Y-10719698D02*
X8241611Y-10710174D01*
X8241611Y-10710174D02*
X8260658Y-10700650D01*
X8260658Y-10700650D02*
X8289230Y-10700650D01*
X8289230Y-10700650D02*
X8308277Y-10710174D01*
X8308277Y-10710174D02*
X8317801Y-10719698D01*
X8317801Y-10719698D02*
X8327325Y-10738746D01*
X8327325Y-10738746D02*
X8327325Y-10795889D01*
X8327325Y-10795889D02*
X8317801Y-10814936D01*
X8317801Y-10814936D02*
X8308277Y-10824460D01*
X8308277Y-10824460D02*
X8289230Y-10833984D01*
X8289230Y-10833984D02*
X8260658Y-10833984D01*
X8384468Y-10700650D02*
X8460658Y-10700650D01*
X8413039Y-10633984D02*
X8413039Y-10805412D01*
X8413039Y-10805412D02*
X8422563Y-10824460D01*
X8422563Y-10824460D02*
X8441611Y-10833984D01*
X8441611Y-10833984D02*
X8460658Y-10833984D01*
X8679706Y-10700650D02*
X8679706Y-10900650D01*
X8679706Y-10710174D02*
X8698754Y-10700650D01*
X8698754Y-10700650D02*
X8736849Y-10700650D01*
X8736849Y-10700650D02*
X8755896Y-10710174D01*
X8755896Y-10710174D02*
X8765420Y-10719698D01*
X8765420Y-10719698D02*
X8774944Y-10738746D01*
X8774944Y-10738746D02*
X8774944Y-10795889D01*
X8774944Y-10795889D02*
X8765420Y-10814936D01*
X8765420Y-10814936D02*
X8755896Y-10824460D01*
X8755896Y-10824460D02*
X8736849Y-10833984D01*
X8736849Y-10833984D02*
X8698754Y-10833984D01*
X8698754Y-10833984D02*
X8679706Y-10824460D01*
X8889230Y-10833984D02*
X8870182Y-10824460D01*
X8870182Y-10824460D02*
X8860658Y-10805412D01*
X8860658Y-10805412D02*
X8860658Y-10633984D01*
X9051135Y-10833984D02*
X9051135Y-10729222D01*
X9051135Y-10729222D02*
X9041611Y-10710174D01*
X9041611Y-10710174D02*
X9022563Y-10700650D01*
X9022563Y-10700650D02*
X8984468Y-10700650D01*
X8984468Y-10700650D02*
X8965420Y-10710174D01*
X9051135Y-10824460D02*
X9032087Y-10833984D01*
X9032087Y-10833984D02*
X8984468Y-10833984D01*
X8984468Y-10833984D02*
X8965420Y-10824460D01*
X8965420Y-10824460D02*
X8955896Y-10805412D01*
X8955896Y-10805412D02*
X8955896Y-10786365D01*
X8955896Y-10786365D02*
X8965420Y-10767317D01*
X8965420Y-10767317D02*
X8984468Y-10757793D01*
X8984468Y-10757793D02*
X9032087Y-10757793D01*
X9032087Y-10757793D02*
X9051135Y-10748270D01*
X9117801Y-10700650D02*
X9193992Y-10700650D01*
X9146373Y-10633984D02*
X9146373Y-10805412D01*
X9146373Y-10805412D02*
X9155896Y-10824460D01*
X9155896Y-10824460D02*
X9174944Y-10833984D01*
X9174944Y-10833984D02*
X9193992Y-10833984D01*
X9336849Y-10824460D02*
X9317801Y-10833984D01*
X9317801Y-10833984D02*
X9279706Y-10833984D01*
X9279706Y-10833984D02*
X9260658Y-10824460D01*
X9260658Y-10824460D02*
X9251135Y-10805412D01*
X9251135Y-10805412D02*
X9251135Y-10729222D01*
X9251135Y-10729222D02*
X9260658Y-10710174D01*
X9260658Y-10710174D02*
X9279706Y-10700650D01*
X9279706Y-10700650D02*
X9317801Y-10700650D01*
X9317801Y-10700650D02*
X9336849Y-10710174D01*
X9336849Y-10710174D02*
X9346373Y-10729222D01*
X9346373Y-10729222D02*
X9346373Y-10748270D01*
X9346373Y-10748270D02*
X9251135Y-10767317D01*
X9517801Y-10833984D02*
X9517801Y-10633984D01*
X9517801Y-10824460D02*
X9498754Y-10833984D01*
X9498754Y-10833984D02*
X9460658Y-10833984D01*
X9460658Y-10833984D02*
X9441611Y-10824460D01*
X9441611Y-10824460D02*
X9432087Y-10814936D01*
X9432087Y-10814936D02*
X9422563Y-10795889D01*
X9422563Y-10795889D02*
X9422563Y-10738746D01*
X9422563Y-10738746D02*
X9432087Y-10719698D01*
X9432087Y-10719698D02*
X9441611Y-10710174D01*
X9441611Y-10710174D02*
X9460658Y-10700650D01*
X9460658Y-10700650D02*
X9498754Y-10700650D01*
X9498754Y-10700650D02*
X9517801Y-10710174D01*
X9593992Y-10910174D02*
X9603516Y-10900650D01*
X9603516Y-10900650D02*
X9622563Y-10872079D01*
X9622563Y-10872079D02*
X9632087Y-10853031D01*
X9632087Y-10853031D02*
X9641611Y-10824460D01*
X9641611Y-10824460D02*
X9651135Y-10776841D01*
X9651135Y-10776841D02*
X9651135Y-10738746D01*
X9651135Y-10738746D02*
X9641611Y-10691127D01*
X9641611Y-10691127D02*
X9632087Y-10662555D01*
X9632087Y-10662555D02*
X9622563Y-10643508D01*
X9622563Y-10643508D02*
X9603516Y-10614936D01*
X9603516Y-10614936D02*
X9593992Y-10605412D01*
M02*
