M48
; DRILL file {KiCad 8.0.1} date 2024-03-31T18:38:26-0500
; FORMAT={-:-/ absolute / metric / decimal}
; #@! TF.CreationDate,2024-03-31T18:38:26-05:00
; #@! TF.GenerationSoftware,Kicad,Pcbnew,8.0.1
; #@! TF.FileFunction,Plated,1,4,PTH
FMAT,2
METRIC
; #@! TA.AperFunction,Plated,PTH,ViaDrill
T1C0.300
; #@! TA.AperFunction,Plated,PTH,ComponentDrill
T2C1.000
%
G90
G05
T1
X28.0Y-85.287
X30.0Y-43.0
X30.0Y-55.5
X30.0Y-69.0
X30.0Y-94.5
X31.5Y-31.5
X32.0Y-71.0
X33.5Y-52.0
X33.5Y-65.0
X34.0Y-39.0
X34.0Y-78.0
X34.0Y-87.278
X34.0Y-91.0
X34.5Y-56.5
X34.5Y-83.0
X35.5Y-93.5
X36.0Y-43.0
X36.0Y-45.0
X36.0Y-82.0
X36.0Y-84.0
X36.078Y-69.12
X36.107Y-74.607
X36.175Y-55.5
X36.175Y-58.0
X37.5Y-80.0
X37.5Y-93.5
X38.0Y-43.0
X38.0Y-69.0
X39.0Y-34.0
X39.5Y-40.5
X41.4Y-64.389
X41.4Y-90.478
X41.675Y-84.0
X43.0Y-89.5
X43.5Y-51.0
X45.5Y-38.5
X47.0Y-52.5
X47.325Y-38.5
X48.0Y-74.0
X48.0Y-77.5
X49.0Y-61.0
X55.47Y-61.54
X55.5Y-79.5
X56.0Y-67.5
X59.5Y-55.375
X59.5Y-68.25
X59.5Y-81.125
X60.292Y-41.284
X60.5Y-43.0
X61.5Y-55.5
X61.5Y-68.0
X61.5Y-81.0
X61.5Y-94.0
X65.0Y-33.5
X65.0Y-36.0
X65.0Y-46.0
X65.0Y-48.5
X65.0Y-59.0
X65.0Y-61.5
X65.0Y-68.5
X65.0Y-71.5
X65.0Y-74.5
X65.0Y-84.5
X65.0Y-87.5
T2
X51.218Y-31.866
X51.218Y-34.406
X51.218Y-36.946
X51.218Y-39.486
X51.218Y-42.026
X51.218Y-44.566
X51.218Y-47.106
X51.218Y-49.646
X51.218Y-52.186
X51.218Y-54.726
X51.218Y-57.266
X51.218Y-59.806
X51.218Y-62.346
X51.218Y-64.886
X51.218Y-67.426
X51.218Y-69.966
X51.218Y-72.506
X51.218Y-75.046
X51.218Y-77.586
X51.218Y-80.126
X69.0Y-31.867
X69.0Y-34.407
X69.0Y-36.947
X69.0Y-39.487
X69.0Y-42.027
X69.0Y-44.567
X69.0Y-47.107
X69.0Y-49.647
X69.0Y-52.187
X69.0Y-54.727
X69.0Y-57.267
X69.0Y-59.807
X69.0Y-62.347
X69.0Y-64.887
X69.0Y-67.427
X69.0Y-69.967
X69.0Y-72.507
X69.0Y-75.047
X69.0Y-77.587
X69.0Y-80.127
M30
