G04 #@! TF.GenerationSoftware,KiCad,Pcbnew,8.0.1*
G04 #@! TF.CreationDate,2024-03-31T18:38:22-05:00*
G04 #@! TF.ProjectId,dinoctopus_v2,64696e6f-6374-46f7-9075-735f76322e6b,rev?*
G04 #@! TF.SameCoordinates,Original*
G04 #@! TF.FileFunction,Copper,L1,Top*
G04 #@! TF.FilePolarity,Positive*
%FSLAX46Y46*%
G04 Gerber Fmt 4.6, Leading zero omitted, Abs format (unit mm)*
G04 Created by KiCad (PCBNEW 8.0.1) date 2024-03-31 18:38:22*
%MOMM*%
%LPD*%
G01*
G04 APERTURE LIST*
G04 Aperture macros list*
%AMRoundRect*
0 Rectangle with rounded corners*
0 $1 Rounding radius*
0 $2 $3 $4 $5 $6 $7 $8 $9 X,Y pos of 4 corners*
0 Add a 4 corners polygon primitive as box body*
4,1,4,$2,$3,$4,$5,$6,$7,$8,$9,$2,$3,0*
0 Add four circle primitives for the rounded corners*
1,1,$1+$1,$2,$3*
1,1,$1+$1,$4,$5*
1,1,$1+$1,$6,$7*
1,1,$1+$1,$8,$9*
0 Add four rect primitives between the rounded corners*
20,1,$1+$1,$2,$3,$4,$5,0*
20,1,$1+$1,$4,$5,$6,$7,0*
20,1,$1+$1,$6,$7,$8,$9,0*
20,1,$1+$1,$8,$9,$2,$3,0*%
G04 Aperture macros list end*
G04 #@! TA.AperFunction,SMDPad,CuDef*
%ADD10RoundRect,0.250000X0.450000X-0.262500X0.450000X0.262500X-0.450000X0.262500X-0.450000X-0.262500X0*%
G04 #@! TD*
G04 #@! TA.AperFunction,SMDPad,CuDef*
%ADD11RoundRect,0.218750X0.256250X-0.218750X0.256250X0.218750X-0.256250X0.218750X-0.256250X-0.218750X0*%
G04 #@! TD*
G04 #@! TA.AperFunction,SMDPad,CuDef*
%ADD12RoundRect,0.250000X0.262500X0.450000X-0.262500X0.450000X-0.262500X-0.450000X0.262500X-0.450000X0*%
G04 #@! TD*
G04 #@! TA.AperFunction,SMDPad,CuDef*
%ADD13RoundRect,0.250000X-0.262500X-0.450000X0.262500X-0.450000X0.262500X0.450000X-0.262500X0.450000X0*%
G04 #@! TD*
G04 #@! TA.AperFunction,SMDPad,CuDef*
%ADD14R,1.400000X2.800000*%
G04 #@! TD*
G04 #@! TA.AperFunction,SMDPad,CuDef*
%ADD15R,1.600000X2.800000*%
G04 #@! TD*
G04 #@! TA.AperFunction,SMDPad,CuDef*
%ADD16RoundRect,0.112500X-0.112500X0.187500X-0.112500X-0.187500X0.112500X-0.187500X0.112500X0.187500X0*%
G04 #@! TD*
G04 #@! TA.AperFunction,SMDPad,CuDef*
%ADD17R,2.000000X1.780000*%
G04 #@! TD*
G04 #@! TA.AperFunction,ComponentPad*
%ADD18R,1.700000X1.700000*%
G04 #@! TD*
G04 #@! TA.AperFunction,ComponentPad*
%ADD19O,1.700000X1.700000*%
G04 #@! TD*
G04 #@! TA.AperFunction,SMDPad,CuDef*
%ADD20RoundRect,0.250000X-0.450000X0.262500X-0.450000X-0.262500X0.450000X-0.262500X0.450000X0.262500X0*%
G04 #@! TD*
G04 #@! TA.AperFunction,SMDPad,CuDef*
%ADD21RoundRect,0.150000X-0.150000X-0.625000X0.150000X-0.625000X0.150000X0.625000X-0.150000X0.625000X0*%
G04 #@! TD*
G04 #@! TA.AperFunction,SMDPad,CuDef*
%ADD22RoundRect,0.250000X-0.350000X-0.650000X0.350000X-0.650000X0.350000X0.650000X-0.350000X0.650000X0*%
G04 #@! TD*
G04 #@! TA.AperFunction,ViaPad*
%ADD23C,0.600000*%
G04 #@! TD*
G04 #@! TA.AperFunction,Conductor*
%ADD24C,0.200000*%
G04 #@! TD*
G04 APERTURE END LIST*
D10*
X47000000Y-54500000D03*
X47000000Y-52675000D03*
D11*
X28000000Y-92212500D03*
X28000000Y-93787500D03*
D12*
X31638363Y-31751227D03*
X29813363Y-31751227D03*
D13*
X36175000Y-58000000D03*
X38000000Y-58000000D03*
D14*
X32000000Y-79333332D03*
X41400000Y-79333332D03*
X34000000Y-71933332D03*
D15*
X45400000Y-74883332D03*
D13*
X59500000Y-94000000D03*
X61325000Y-94000000D03*
X59500000Y-55375000D03*
X61325000Y-55375000D03*
D12*
X31825000Y-71000000D03*
X30000000Y-71000000D03*
D16*
X47306411Y-33880718D03*
X47306411Y-31780718D03*
D11*
X28000000Y-72287500D03*
X28000000Y-70712500D03*
X28000000Y-44425000D03*
X28000000Y-46000000D03*
X28000000Y-59075000D03*
X28000000Y-57500000D03*
D17*
X55470000Y-84570000D03*
X55470000Y-87110000D03*
X55470000Y-89650000D03*
X65000000Y-89650000D03*
X65000000Y-87110000D03*
X65000000Y-84570000D03*
D16*
X48000000Y-45000000D03*
X48000000Y-47100000D03*
D14*
X32000000Y-40200000D03*
X41400000Y-40200000D03*
X34000000Y-32800000D03*
D15*
X45400000Y-35750000D03*
D18*
X69000000Y-31866932D03*
D19*
X69000000Y-34406932D03*
X69000000Y-36946932D03*
X69000000Y-39486932D03*
X69000000Y-42026932D03*
X69000000Y-44566932D03*
X69000000Y-47106932D03*
X69000000Y-49646932D03*
X69000000Y-52186932D03*
X69000000Y-54726932D03*
X69000000Y-57266932D03*
X69000000Y-59806932D03*
X69000000Y-62346932D03*
X69000000Y-64886932D03*
X69000000Y-67426932D03*
X69000000Y-69966932D03*
X69000000Y-72506932D03*
X69000000Y-75046932D03*
X69000000Y-77586932D03*
X69000000Y-80126932D03*
D16*
X48000000Y-58000000D03*
X48000000Y-60100000D03*
D11*
X28000000Y-33075000D03*
X28000000Y-31500000D03*
D13*
X36157482Y-44906343D03*
X37982482Y-44906343D03*
D16*
X48000000Y-70950000D03*
X48000000Y-73050000D03*
D11*
X28000000Y-85287500D03*
X28000000Y-83712500D03*
D17*
X65000000Y-33430000D03*
X65000000Y-35970000D03*
X65000000Y-38510000D03*
X55470000Y-38510000D03*
X55470000Y-35970000D03*
X55470000Y-33430000D03*
D13*
X41675000Y-71000000D03*
X43500000Y-71000000D03*
X41675000Y-45000000D03*
X43500000Y-45000000D03*
D17*
X65000000Y-46215000D03*
X65000000Y-48755000D03*
X65000000Y-51295000D03*
X55470000Y-51295000D03*
X55470000Y-48755000D03*
X55470000Y-46215000D03*
X55470000Y-71785000D03*
X55470000Y-74325000D03*
X55470000Y-76865000D03*
X65000000Y-76865000D03*
X65000000Y-74325000D03*
X65000000Y-71785000D03*
D14*
X32000000Y-53244444D03*
X41400000Y-53244444D03*
X34000000Y-45844444D03*
D15*
X45400000Y-48794444D03*
D19*
X51217784Y-80125663D03*
X51217784Y-77585663D03*
X51217784Y-75045663D03*
X51217784Y-72505663D03*
X51217784Y-69965663D03*
X51217784Y-67425663D03*
X51217784Y-64885663D03*
X51217784Y-62345663D03*
X51217784Y-59805663D03*
X51217784Y-57265663D03*
X51217784Y-54725663D03*
X51217784Y-52185663D03*
X51217784Y-49645663D03*
X51217784Y-47105663D03*
X51217784Y-44565663D03*
X51217784Y-42025663D03*
X51217784Y-39485663D03*
X51217784Y-36945663D03*
X51217784Y-34405663D03*
D18*
X51217784Y-31865663D03*
D13*
X41675000Y-58000000D03*
X43500000Y-58000000D03*
X36008493Y-84091404D03*
X37833493Y-84091404D03*
D16*
X48000000Y-85400000D03*
X48000000Y-87500000D03*
D13*
X35825697Y-31730496D03*
X37650697Y-31730496D03*
D14*
X32000000Y-92377776D03*
X41400000Y-92377776D03*
X34000000Y-84977776D03*
D15*
X45400000Y-87927776D03*
D13*
X59500000Y-68250000D03*
X61325000Y-68250000D03*
D14*
X32000000Y-66288888D03*
X41400000Y-66288888D03*
X34000000Y-58888888D03*
D15*
X45400000Y-61838888D03*
D13*
X41675000Y-84000000D03*
X43500000Y-84000000D03*
D20*
X60292328Y-41284184D03*
X60292328Y-43109184D03*
D17*
X55470000Y-59000000D03*
X55470000Y-61540000D03*
X55470000Y-64080000D03*
X65000000Y-64080000D03*
X65000000Y-61540000D03*
X65000000Y-59000000D03*
D21*
X66500000Y-92500000D03*
X67500000Y-92500000D03*
X68500000Y-92500000D03*
X69500000Y-92500000D03*
D22*
X65200000Y-96375000D03*
X70800000Y-96375000D03*
D13*
X59500000Y-81125000D03*
X61325000Y-81125000D03*
X36157482Y-42936895D03*
X37982482Y-42936895D03*
D10*
X29984360Y-68905393D03*
X29984360Y-67080393D03*
D13*
X36016422Y-80158175D03*
X37841422Y-80158175D03*
D12*
X37903103Y-69120171D03*
X36078103Y-69120171D03*
D13*
X37889155Y-67165349D03*
X36064155Y-67165349D03*
D10*
X29868590Y-93020460D03*
X29868590Y-94845460D03*
D11*
X27895079Y-80582202D03*
X27895079Y-79007202D03*
D20*
X28000000Y-96675000D03*
X28000000Y-98500000D03*
D10*
X29997278Y-55755017D03*
X29997278Y-53930017D03*
D12*
X47325000Y-38500000D03*
X45500000Y-38500000D03*
D11*
X28000000Y-67500000D03*
X28000000Y-65925000D03*
D20*
X55932088Y-67605658D03*
X55932088Y-69430658D03*
D13*
X36175000Y-55500000D03*
X38000000Y-55500000D03*
D11*
X28000000Y-41787500D03*
X28000000Y-40212500D03*
X28000000Y-54575000D03*
X28000000Y-53000000D03*
D13*
X35500000Y-93500000D03*
X37325000Y-93500000D03*
D10*
X30115931Y-42806054D03*
X30115931Y-40981054D03*
D13*
X36033487Y-82108547D03*
X37858487Y-82108547D03*
D23*
X47000000Y-52500000D03*
X34500000Y-83000000D03*
X41675000Y-84000000D03*
X34500000Y-56500000D03*
X65000000Y-68500000D03*
X32000000Y-71000000D03*
X36078103Y-69120171D03*
X38000000Y-69000000D03*
X36106555Y-74606555D03*
X48000000Y-74000000D03*
X48000000Y-77500000D03*
X43000000Y-89500000D03*
X34000000Y-87277776D03*
X36000000Y-82000000D03*
X36000000Y-84000000D03*
X30000000Y-94500000D03*
X37500000Y-80000000D03*
X49000000Y-61000000D03*
X55470000Y-61540000D03*
X41400000Y-64388886D03*
X30000000Y-69000000D03*
X30000000Y-55500000D03*
X59500000Y-81125000D03*
X59500000Y-68250000D03*
X60292328Y-41284184D03*
X55500000Y-79500000D03*
X56000000Y-67500000D03*
X34000000Y-78000000D03*
X37500000Y-93500000D03*
X35500000Y-93500000D03*
X41400000Y-90477774D03*
X36175000Y-58000000D03*
X36175000Y-55500000D03*
X43500000Y-51000000D03*
X59500000Y-55375000D03*
X39500000Y-40500000D03*
X39000000Y-34000000D03*
X60500000Y-43000000D03*
X61500000Y-55500000D03*
X61500000Y-68000000D03*
X61500000Y-81000000D03*
X61500000Y-94000000D03*
X65000000Y-87500000D03*
X65000000Y-84500000D03*
X65000000Y-74500000D03*
X65000000Y-71500000D03*
X65000000Y-61500000D03*
X65000000Y-59000000D03*
X65000000Y-48500000D03*
X65000000Y-46000000D03*
X65000000Y-36000000D03*
X65000000Y-33500000D03*
X28000000Y-85287500D03*
X38000000Y-43000000D03*
X36000000Y-45000000D03*
X36000000Y-43000000D03*
X34000000Y-91000000D03*
X33500000Y-65000000D03*
X33500000Y-52000000D03*
X34000000Y-39000000D03*
X47325000Y-38500000D03*
X45500000Y-38500000D03*
X30000000Y-43000000D03*
X31500000Y-31500000D03*
D24*
X47000000Y-54500000D02*
X43677756Y-54500000D01*
X43677756Y-54500000D02*
X42062093Y-56115663D01*
X47000000Y-52675000D02*
X47000000Y-52500000D01*
X32545832Y-76833332D02*
X28000000Y-72287500D01*
X36106555Y-74606555D02*
X33879778Y-76833332D01*
X33879778Y-76833332D02*
X32545832Y-76833332D01*
X48000000Y-70950000D02*
X50337716Y-68612284D01*
X50337716Y-68612284D02*
X56973940Y-68612284D01*
X56973940Y-68612284D02*
X56973940Y-68976696D01*
X56973940Y-68976696D02*
X57000000Y-69002756D01*
X57000000Y-69002756D02*
X57000000Y-70255000D01*
X57000000Y-70255000D02*
X55470000Y-71785000D01*
X34000000Y-83500000D02*
X34500000Y-83000000D01*
X34000000Y-84977776D02*
X34000000Y-83500000D01*
X37000000Y-56500000D02*
X34500000Y-56500000D01*
X38000000Y-55500000D02*
X37000000Y-56500000D01*
X69500000Y-92500000D02*
X71350000Y-90650000D01*
X71350000Y-90650000D02*
X71350000Y-54536932D01*
X71350000Y-54536932D02*
X69000000Y-52186932D01*
X68500000Y-92500000D02*
X68500000Y-81253278D01*
X68500000Y-81253278D02*
X67850000Y-80603278D01*
X67850000Y-80603278D02*
X67850000Y-76870586D01*
X67500000Y-56226932D02*
X69000000Y-54726932D01*
X67850000Y-76870586D02*
X68523654Y-76196932D01*
X68523654Y-76196932D02*
X69476346Y-76196932D01*
X69476346Y-76196932D02*
X70950000Y-74723278D01*
X70950000Y-74723278D02*
X70950000Y-60130586D01*
X70950000Y-60130586D02*
X69476346Y-58656932D01*
X69476346Y-58656932D02*
X68763654Y-58656932D01*
X68763654Y-58656932D02*
X67500000Y-57393278D01*
X67500000Y-57393278D02*
X67500000Y-56226932D01*
X65000000Y-84570000D02*
X67500000Y-87070000D01*
X67500000Y-87070000D02*
X67500000Y-92500000D01*
X66500000Y-92500000D02*
X66500000Y-88610000D01*
X66500000Y-88610000D02*
X65000000Y-87110000D01*
X36064155Y-67165349D02*
X37090603Y-68191797D01*
X58687500Y-68934744D02*
X59002756Y-69250000D01*
X37090603Y-68191797D02*
X37090603Y-69804915D01*
X37596798Y-70311110D02*
X40597056Y-70311110D01*
X37090603Y-69804915D02*
X37596798Y-70311110D01*
X40597056Y-70311110D02*
X44872503Y-66035663D01*
X44872503Y-66035663D02*
X56719977Y-66035663D01*
X58687500Y-68003186D02*
X58687500Y-68934744D01*
X56719977Y-66035663D02*
X58687500Y-68003186D01*
X59002756Y-69250000D02*
X64250000Y-69250000D01*
X64250000Y-69250000D02*
X65000000Y-68500000D01*
X30000000Y-71000000D02*
X28287500Y-71000000D01*
X28287500Y-71000000D02*
X28000000Y-70712500D01*
X31825000Y-71000000D02*
X32000000Y-71000000D01*
X27895079Y-79007202D02*
X28904393Y-79007202D01*
X28904393Y-79007202D02*
X30678264Y-77233332D01*
X50615663Y-71115663D02*
X53649337Y-71115663D01*
X30678264Y-77233332D02*
X36266668Y-77233332D01*
X49281326Y-72450000D02*
X50615663Y-71115663D01*
X36266668Y-77233332D02*
X41050000Y-72450000D01*
X41050000Y-72450000D02*
X49281326Y-72450000D01*
X53649337Y-71115663D02*
X55265000Y-69500000D01*
X55265000Y-69500000D02*
X56000000Y-69500000D01*
X36078103Y-69120171D02*
X36078103Y-69078103D01*
X37903103Y-69096897D02*
X38000000Y-69000000D01*
X37903103Y-69120171D02*
X37903103Y-69096897D01*
X41675000Y-71000000D02*
X40640088Y-72034912D01*
X40640088Y-72034912D02*
X34101580Y-72034912D01*
X34101580Y-72034912D02*
X34000000Y-71933332D01*
X43500000Y-71000000D02*
X44000000Y-71000000D01*
X44000000Y-71000000D02*
X44050000Y-70950000D01*
X44050000Y-70950000D02*
X48000000Y-70950000D01*
X41400000Y-79333332D02*
X43233332Y-77500000D01*
X43233332Y-77500000D02*
X48000000Y-77500000D01*
X55470000Y-74325000D02*
X53599337Y-76195663D01*
X53599337Y-76195663D02*
X49304337Y-76195663D01*
X49304337Y-76195663D02*
X48000000Y-77500000D01*
X48000000Y-74000000D02*
X48000000Y-73050000D01*
X48000000Y-87500000D02*
X55080000Y-87500000D01*
X55080000Y-87500000D02*
X55470000Y-87110000D01*
X48000000Y-85400000D02*
X54640000Y-85400000D01*
X54640000Y-85400000D02*
X55470000Y-84570000D01*
X47500000Y-94000000D02*
X43000000Y-89500000D01*
X59500000Y-94000000D02*
X47500000Y-94000000D01*
X28000000Y-93787500D02*
X27225000Y-93012500D01*
X27225000Y-93012500D02*
X27225000Y-90775000D01*
X54579337Y-78975663D02*
X55500000Y-78055000D01*
X27225000Y-90775000D02*
X28000000Y-90000000D01*
X70550000Y-64810586D02*
X69476346Y-63736932D01*
X28000000Y-90000000D02*
X37080720Y-90000000D01*
X70550000Y-72583278D02*
X70550000Y-64810586D01*
X37080720Y-90000000D02*
X42080720Y-85000000D01*
X42080720Y-85000000D02*
X42372244Y-85000000D01*
X55500000Y-78055000D02*
X58320000Y-78055000D01*
X67850000Y-60956932D02*
X69000000Y-59806932D01*
X42372244Y-85000000D02*
X42687500Y-84684744D01*
X42687500Y-84684744D02*
X42687500Y-83315256D01*
X42687500Y-83315256D02*
X47027093Y-78975663D01*
X47027093Y-78975663D02*
X54579337Y-78975663D01*
X69476346Y-73656932D02*
X70550000Y-72583278D01*
X58320000Y-78055000D02*
X60860000Y-75515000D01*
X69476346Y-63736932D02*
X68523654Y-63736932D01*
X60860000Y-75515000D02*
X66665586Y-75515000D01*
X66665586Y-75515000D02*
X68523654Y-73656932D01*
X68523654Y-73656932D02*
X69476346Y-73656932D01*
X68523654Y-63736932D02*
X67850000Y-63063278D01*
X67850000Y-63063278D02*
X67850000Y-60956932D01*
X28000000Y-92212500D02*
X29060630Y-92212500D01*
X29060630Y-92212500D02*
X29868590Y-93020460D01*
X48000000Y-87500000D02*
X46727776Y-86227776D01*
X40800000Y-91777776D02*
X41400000Y-92377776D01*
X46727776Y-86227776D02*
X44300000Y-86227776D01*
X44300000Y-86227776D02*
X40800000Y-89727776D01*
X40800000Y-89727776D02*
X40800000Y-91777776D01*
X28000000Y-98500000D02*
X29900000Y-100400000D01*
X43000000Y-91277776D02*
X42199998Y-90477774D01*
X29900000Y-100400000D02*
X40400000Y-100400000D01*
X40400000Y-100400000D02*
X43000000Y-97800000D01*
X43000000Y-97800000D02*
X43000000Y-91277776D01*
X42199998Y-90477774D02*
X41400000Y-90477774D01*
X28000000Y-93787500D02*
X28000000Y-96675000D01*
X43500000Y-84000000D02*
X46600000Y-84000000D01*
X46600000Y-84000000D02*
X48000000Y-85400000D01*
X37858487Y-82108547D02*
X38645993Y-82896053D01*
X38645993Y-82896053D02*
X38645993Y-84776148D01*
X38645993Y-84776148D02*
X36144365Y-87277776D01*
X36144365Y-87277776D02*
X34000000Y-87277776D01*
X37833493Y-84091404D02*
X35247121Y-86677776D01*
X35247121Y-86677776D02*
X30965276Y-86677776D01*
X30965276Y-86677776D02*
X28000000Y-83712500D01*
X36033487Y-82033487D02*
X36000000Y-82000000D01*
X36033487Y-82108547D02*
X36033487Y-82033487D01*
X36008493Y-84008493D02*
X36000000Y-84000000D01*
X36008493Y-84091404D02*
X36008493Y-84008493D01*
X29868590Y-94631410D02*
X30000000Y-94500000D01*
X29868590Y-94845460D02*
X29868590Y-94631410D01*
X35871424Y-80075215D02*
X39113307Y-76833332D01*
X68523654Y-71116932D02*
X69476346Y-71116932D01*
X39113307Y-76833332D02*
X46250000Y-76833332D01*
X53489337Y-73655663D02*
X54170000Y-72975000D01*
X70150000Y-70443278D02*
X70150000Y-66036932D01*
X46250000Y-76833332D02*
X49427669Y-73655663D01*
X49427669Y-73655663D02*
X53489337Y-73655663D01*
X54170000Y-72975000D02*
X66665586Y-72975000D01*
X66665586Y-72975000D02*
X68523654Y-71116932D01*
X69476346Y-71116932D02*
X70150000Y-70443278D01*
X70150000Y-66036932D02*
X69000000Y-64886932D01*
X35871424Y-80075215D02*
X33000000Y-80075215D01*
X33000000Y-77633332D02*
X30843949Y-77633332D01*
X33000000Y-80075215D02*
X33000000Y-77633332D01*
X30843949Y-77633332D02*
X27895079Y-80582202D01*
X37575215Y-80075215D02*
X37500000Y-80000000D01*
X37696424Y-80075215D02*
X37575215Y-80075215D01*
X48000000Y-62000000D02*
X49000000Y-61000000D01*
X48000000Y-62038888D02*
X48000000Y-62000000D01*
X48000000Y-62000000D02*
X48000000Y-60100000D01*
X43500000Y-58000000D02*
X44100000Y-58600000D01*
X44100000Y-58600000D02*
X55070000Y-58600000D01*
X55070000Y-58600000D02*
X55470000Y-59000000D01*
X43500000Y-58000000D02*
X48000000Y-58000000D01*
X41675000Y-58000000D02*
X39497244Y-58000000D01*
X39497244Y-58000000D02*
X38497244Y-57000000D01*
X38497244Y-57000000D02*
X35188888Y-57000000D01*
X35188888Y-57000000D02*
X34000000Y-58188888D01*
X34000000Y-58188888D02*
X34000000Y-58888888D01*
X28000000Y-59075000D02*
X29913888Y-60988888D01*
X29913888Y-60988888D02*
X35576798Y-60988888D01*
X35576798Y-60988888D02*
X37565686Y-59000000D01*
X37565686Y-59000000D02*
X48785775Y-59000000D01*
X48785775Y-59000000D02*
X50741438Y-60955663D01*
X52205663Y-60955663D02*
X54170000Y-62920000D01*
X50741438Y-60955663D02*
X52205663Y-60955663D01*
X54170000Y-62920000D02*
X54170000Y-65270000D01*
X54170000Y-65270000D02*
X56520000Y-65270000D01*
X56520000Y-65270000D02*
X59500000Y-68250000D01*
X41400000Y-66288888D02*
X43750000Y-66288888D01*
X43750000Y-66288888D02*
X48000000Y-62038888D01*
X37889155Y-67165349D02*
X40665618Y-64388886D01*
X40665618Y-64388886D02*
X41400000Y-64388886D01*
X28000000Y-67500000D02*
X27225000Y-66725000D01*
X27225000Y-66725000D02*
X27225000Y-65485314D01*
X27225000Y-65485314D02*
X28310314Y-64400000D01*
X28310314Y-64400000D02*
X33748529Y-64400000D01*
X33748529Y-64400000D02*
X36064155Y-66715626D01*
X36064155Y-66715626D02*
X36064155Y-67165349D01*
X28000000Y-65925000D02*
X28828967Y-65925000D01*
X28828967Y-65925000D02*
X29984360Y-67080393D01*
X29984360Y-68984360D02*
X30000000Y-69000000D01*
X29984360Y-68905393D02*
X29984360Y-68984360D01*
X28000000Y-57500000D02*
X31088888Y-60588888D01*
X31088888Y-60588888D02*
X35411112Y-60588888D01*
X35411112Y-60588888D02*
X38000000Y-58000000D01*
X28000000Y-54575000D02*
X28167517Y-54742517D01*
X61160000Y-57810000D02*
X63700000Y-60350000D01*
X28167517Y-54742517D02*
X30798073Y-54742517D01*
X30798073Y-54742517D02*
X31000000Y-54944444D01*
X38812500Y-54815256D02*
X38812500Y-56476222D01*
X31000000Y-54944444D02*
X31000000Y-51544444D01*
X31000000Y-51544444D02*
X31144444Y-51400000D01*
X40677756Y-57500000D02*
X42062093Y-56115663D01*
X31144444Y-51400000D02*
X35397244Y-51400000D01*
X35397244Y-51400000D02*
X38812500Y-54815256D01*
X38812500Y-56476222D02*
X39836278Y-57500000D01*
X39836278Y-57500000D02*
X40677756Y-57500000D01*
X42062093Y-56115663D02*
X54115663Y-56115663D01*
X54115663Y-56115663D02*
X55810000Y-57810000D01*
X55810000Y-57810000D02*
X61160000Y-57810000D01*
X63700000Y-60350000D02*
X66300000Y-60350000D01*
X66300000Y-60350000D02*
X66300000Y-67266932D01*
X66300000Y-67266932D02*
X69000000Y-69966932D01*
X29997278Y-55502722D02*
X30000000Y-55500000D01*
X29997278Y-55755017D02*
X29997278Y-55502722D01*
X28000000Y-53000000D02*
X29067261Y-53000000D01*
X29067261Y-53000000D02*
X29997278Y-53930017D01*
X55500000Y-79675000D02*
X55500000Y-79500000D01*
X56000000Y-67675000D02*
X56000000Y-67500000D01*
X37325000Y-93500000D02*
X37500000Y-93500000D01*
X36078103Y-69078103D02*
X36000000Y-69000000D01*
X40844444Y-48344444D02*
X43500000Y-51000000D01*
X30344444Y-48344444D02*
X40844444Y-48344444D01*
X28000000Y-46000000D02*
X30344444Y-48344444D01*
X47306411Y-33880718D02*
X41619282Y-33880718D01*
X39500000Y-40500000D02*
X39800000Y-40200000D01*
X39800000Y-40200000D02*
X41400000Y-40200000D01*
X41619282Y-33880718D02*
X41500000Y-34000000D01*
X41500000Y-34000000D02*
X39000000Y-34000000D01*
X60390816Y-43109184D02*
X60500000Y-43000000D01*
X60292328Y-43109184D02*
X60390816Y-43109184D01*
X59500000Y-55375000D02*
X63580000Y-51295000D01*
X63580000Y-51295000D02*
X65000000Y-51295000D01*
X61375000Y-55375000D02*
X61500000Y-55500000D01*
X61325000Y-55375000D02*
X61375000Y-55375000D01*
X59500000Y-68250000D02*
X63670000Y-64080000D01*
X63670000Y-64080000D02*
X65000000Y-64080000D01*
X61325000Y-68175000D02*
X61500000Y-68000000D01*
X61325000Y-68250000D02*
X61325000Y-68175000D01*
X61375000Y-81125000D02*
X61500000Y-81000000D01*
X61325000Y-81125000D02*
X61375000Y-81125000D01*
X59500000Y-81125000D02*
X63760000Y-76865000D01*
X63760000Y-76865000D02*
X65000000Y-76865000D01*
X59500000Y-94000000D02*
X63850000Y-89650000D01*
X63850000Y-89650000D02*
X65000000Y-89650000D01*
X61325000Y-94000000D02*
X61500000Y-94000000D01*
X65000000Y-87110000D02*
X65000000Y-87500000D01*
X65000000Y-84570000D02*
X65000000Y-84500000D01*
X65000000Y-74325000D02*
X65000000Y-74500000D01*
X65000000Y-71785000D02*
X65000000Y-71500000D01*
X65000000Y-61540000D02*
X65000000Y-61500000D01*
X65000000Y-48755000D02*
X65000000Y-48500000D01*
X65000000Y-46215000D02*
X65000000Y-46000000D01*
X65000000Y-35970000D02*
X65000000Y-36000000D01*
X65000000Y-33430000D02*
X65000000Y-33500000D01*
X48000000Y-47100000D02*
X49155663Y-48255663D01*
X49155663Y-48255663D02*
X54970663Y-48255663D01*
X54970663Y-48255663D02*
X55470000Y-48755000D01*
X48000000Y-47100000D02*
X48000000Y-48994444D01*
X48000000Y-48994444D02*
X43750000Y-53244444D01*
X43750000Y-53244444D02*
X41400000Y-53244444D01*
X48000000Y-45000000D02*
X48715663Y-45715663D01*
X48715663Y-45715663D02*
X54970663Y-45715663D01*
X54970663Y-45715663D02*
X55470000Y-46215000D01*
X43500000Y-45000000D02*
X48000000Y-45000000D01*
X41675000Y-45000000D02*
X38794982Y-45000000D01*
X35000000Y-44844444D02*
X34000000Y-45844444D01*
X38794982Y-45000000D02*
X38794982Y-42252151D01*
X38794982Y-42252151D02*
X38479726Y-41936895D01*
X38479726Y-41936895D02*
X35660238Y-41936895D01*
X35660238Y-41936895D02*
X35000000Y-42597133D01*
X35000000Y-42597133D02*
X35000000Y-44844444D01*
X55470000Y-35970000D02*
X55055663Y-35555663D01*
X55055663Y-35555663D02*
X48981356Y-35555663D01*
X48981356Y-35555663D02*
X47306411Y-33880718D01*
X37982482Y-44906343D02*
X35344381Y-47544444D01*
X35344381Y-47544444D02*
X31119444Y-47544444D01*
X31119444Y-47544444D02*
X28000000Y-44425000D01*
X37982482Y-42982482D02*
X38000000Y-43000000D01*
X37982482Y-42936895D02*
X37982482Y-42982482D01*
X36093657Y-44906343D02*
X36000000Y-45000000D01*
X36157482Y-44906343D02*
X36093657Y-44906343D01*
X36063105Y-42936895D02*
X36000000Y-43000000D01*
X36157482Y-42936895D02*
X36063105Y-42936895D01*
X28000000Y-41787500D02*
X27225000Y-41012500D01*
X44812500Y-41012500D02*
X45512500Y-41012500D01*
X27225000Y-41012500D02*
X27225000Y-39772814D01*
X41700000Y-37900000D02*
X44812500Y-41012500D01*
X27225000Y-39772814D02*
X29497814Y-37500000D01*
X29497814Y-37500000D02*
X32402944Y-37500000D01*
X45512500Y-41012500D02*
X47325000Y-39200000D01*
X32402944Y-37500000D02*
X32802944Y-37900000D01*
X32802944Y-37900000D02*
X41700000Y-37900000D01*
X47325000Y-39200000D02*
X47325000Y-38500000D01*
X47325000Y-38500000D02*
X47325000Y-38175000D01*
X30115931Y-42884069D02*
X30000000Y-43000000D01*
X30115931Y-42806054D02*
X30115931Y-42884069D01*
X28000000Y-40212500D02*
X29347377Y-40212500D01*
X29347377Y-40212500D02*
X30115931Y-40981054D01*
X60292328Y-41284184D02*
X54642651Y-41284184D01*
X29925000Y-35000000D02*
X28000000Y-33075000D01*
X54642651Y-41284184D02*
X51454130Y-38095663D01*
X51454130Y-38095663D02*
X49095663Y-38095663D01*
X49095663Y-38095663D02*
X48500000Y-37500000D01*
X48500000Y-37500000D02*
X41500000Y-37500000D01*
X41500000Y-37500000D02*
X41500000Y-36202944D01*
X41500000Y-36202944D02*
X40297056Y-35000000D01*
X40297056Y-35000000D02*
X29925000Y-35000000D01*
X60292328Y-41284184D02*
X62225816Y-41284184D01*
X62225816Y-41284184D02*
X65000000Y-38510000D01*
X47306411Y-31780718D02*
X48371466Y-30715663D01*
X48371466Y-30715663D02*
X52755663Y-30715663D01*
X52755663Y-30715663D02*
X55470000Y-33430000D01*
X37650697Y-31730496D02*
X47256189Y-31730496D01*
X47256189Y-31730496D02*
X47306411Y-31780718D01*
X34000000Y-32800000D02*
X35069504Y-31730496D01*
X35069504Y-31730496D02*
X35825697Y-31730496D01*
X31638363Y-31638363D02*
X31500000Y-31500000D01*
X31638363Y-31751227D02*
X31638363Y-31638363D01*
X28000000Y-31500000D02*
X29562136Y-31500000D01*
X29562136Y-31500000D02*
X29813363Y-31751227D01*
M02*
