%TF.GenerationSoftware,KiCad,Pcbnew,7.0.1-1.fc37*%
%TF.CreationDate,2023-03-21T22:33:27-05:00*%
%TF.ProjectId,midi_rx_board,6d696469-5f72-4785-9f62-6f6172642e6b,rev?*%
%TF.SameCoordinates,Original*%
%TF.FileFunction,Legend,Top*%
%TF.FilePolarity,Positive*%
%FSLAX46Y46*%
G04 Gerber Fmt 4.6, Leading zero omitted, Abs format (unit mm)*
G04 Created by KiCad (PCBNEW 7.0.1-1.fc37) date 2023-03-21 22:33:27*
%MOMM*%
%LPD*%
G01*
G04 APERTURE LIST*
%ADD10C,0.150000*%
%ADD11C,0.146304*%
%ADD12C,0.127000*%
%ADD13C,0.120000*%
%ADD14C,0.203200*%
G04 APERTURE END LIST*
D10*
%TO.C,U4*%
X158332619Y-46761904D02*
X159142142Y-46761904D01*
X159142142Y-46761904D02*
X159237380Y-46714285D01*
X159237380Y-46714285D02*
X159285000Y-46666666D01*
X159285000Y-46666666D02*
X159332619Y-46571428D01*
X159332619Y-46571428D02*
X159332619Y-46380952D01*
X159332619Y-46380952D02*
X159285000Y-46285714D01*
X159285000Y-46285714D02*
X159237380Y-46238095D01*
X159237380Y-46238095D02*
X159142142Y-46190476D01*
X159142142Y-46190476D02*
X158332619Y-46190476D01*
X158665952Y-45285714D02*
X159332619Y-45285714D01*
X158285000Y-45523809D02*
X158999285Y-45761904D01*
X158999285Y-45761904D02*
X158999285Y-45142857D01*
%TO.C,D3*%
X140803681Y-38767968D02*
X139803681Y-38767968D01*
X139803681Y-38767968D02*
X139803681Y-38529873D01*
X139803681Y-38529873D02*
X139851300Y-38387016D01*
X139851300Y-38387016D02*
X139946538Y-38291778D01*
X139946538Y-38291778D02*
X140041776Y-38244159D01*
X140041776Y-38244159D02*
X140232252Y-38196540D01*
X140232252Y-38196540D02*
X140375109Y-38196540D01*
X140375109Y-38196540D02*
X140565585Y-38244159D01*
X140565585Y-38244159D02*
X140660823Y-38291778D01*
X140660823Y-38291778D02*
X140756062Y-38387016D01*
X140756062Y-38387016D02*
X140803681Y-38529873D01*
X140803681Y-38529873D02*
X140803681Y-38767968D01*
X139803681Y-37863206D02*
X139803681Y-37244159D01*
X139803681Y-37244159D02*
X140184633Y-37577492D01*
X140184633Y-37577492D02*
X140184633Y-37434635D01*
X140184633Y-37434635D02*
X140232252Y-37339397D01*
X140232252Y-37339397D02*
X140279871Y-37291778D01*
X140279871Y-37291778D02*
X140375109Y-37244159D01*
X140375109Y-37244159D02*
X140613204Y-37244159D01*
X140613204Y-37244159D02*
X140708442Y-37291778D01*
X140708442Y-37291778D02*
X140756062Y-37339397D01*
X140756062Y-37339397D02*
X140803681Y-37434635D01*
X140803681Y-37434635D02*
X140803681Y-37720349D01*
X140803681Y-37720349D02*
X140756062Y-37815587D01*
X140756062Y-37815587D02*
X140708442Y-37863206D01*
D11*
%TO.C,RX4*%
X169398433Y-26359467D02*
X169081054Y-26581632D01*
X169398433Y-26740322D02*
X168731937Y-26740322D01*
X168731937Y-26740322D02*
X168731937Y-26486419D01*
X168731937Y-26486419D02*
X168763675Y-26422943D01*
X168763675Y-26422943D02*
X168795413Y-26391205D01*
X168795413Y-26391205D02*
X168858889Y-26359467D01*
X168858889Y-26359467D02*
X168954103Y-26359467D01*
X168954103Y-26359467D02*
X169017579Y-26391205D01*
X169017579Y-26391205D02*
X169049316Y-26422943D01*
X169049316Y-26422943D02*
X169081054Y-26486419D01*
X169081054Y-26486419D02*
X169081054Y-26740322D01*
X168731937Y-26137302D02*
X169398433Y-25692971D01*
X168731937Y-25692971D02*
X169398433Y-26137302D01*
X168954103Y-25153427D02*
X169398433Y-25153427D01*
X168700200Y-25312116D02*
X169176268Y-25470806D01*
X169176268Y-25470806D02*
X169176268Y-25058213D01*
D12*
X159432285Y-32485118D02*
X160139857Y-32485118D01*
X160139857Y-32485118D02*
X159758857Y-32920547D01*
X159758857Y-32920547D02*
X159922142Y-32920547D01*
X159922142Y-32920547D02*
X160031000Y-32974975D01*
X160031000Y-32974975D02*
X160085428Y-33029404D01*
X160085428Y-33029404D02*
X160139857Y-33138261D01*
X160139857Y-33138261D02*
X160139857Y-33410404D01*
X160139857Y-33410404D02*
X160085428Y-33519261D01*
X160085428Y-33519261D02*
X160031000Y-33573690D01*
X160031000Y-33573690D02*
X159922142Y-33628118D01*
X159922142Y-33628118D02*
X159595571Y-33628118D01*
X159595571Y-33628118D02*
X159486714Y-33573690D01*
X159486714Y-33573690D02*
X159432285Y-33519261D01*
X160684142Y-33573690D02*
X160684142Y-33628118D01*
X160684142Y-33628118D02*
X160629713Y-33736975D01*
X160629713Y-33736975D02*
X160575285Y-33791404D01*
X161718285Y-32485118D02*
X161173999Y-32485118D01*
X161173999Y-32485118D02*
X161119571Y-33029404D01*
X161119571Y-33029404D02*
X161173999Y-32974975D01*
X161173999Y-32974975D02*
X161282857Y-32920547D01*
X161282857Y-32920547D02*
X161554999Y-32920547D01*
X161554999Y-32920547D02*
X161663857Y-32974975D01*
X161663857Y-32974975D02*
X161718285Y-33029404D01*
X161718285Y-33029404D02*
X161772714Y-33138261D01*
X161772714Y-33138261D02*
X161772714Y-33410404D01*
X161772714Y-33410404D02*
X161718285Y-33519261D01*
X161718285Y-33519261D02*
X161663857Y-33573690D01*
X161663857Y-33573690D02*
X161554999Y-33628118D01*
X161554999Y-33628118D02*
X161282857Y-33628118D01*
X161282857Y-33628118D02*
X161173999Y-33573690D01*
X161173999Y-33573690D02*
X161119571Y-33519261D01*
X162262570Y-33628118D02*
X162262570Y-32485118D01*
X162262570Y-32485118D02*
X162643570Y-33301547D01*
X162643570Y-33301547D02*
X163024570Y-32485118D01*
X163024570Y-32485118D02*
X163024570Y-33628118D01*
X163568856Y-33628118D02*
X163568856Y-32485118D01*
X163568856Y-32485118D02*
X163949856Y-33301547D01*
X163949856Y-33301547D02*
X164330856Y-32485118D01*
X164330856Y-32485118D02*
X164330856Y-33628118D01*
D10*
%TO.C,U2*%
X135567619Y-46761904D02*
X136377142Y-46761904D01*
X136377142Y-46761904D02*
X136472380Y-46714285D01*
X136472380Y-46714285D02*
X136520000Y-46666666D01*
X136520000Y-46666666D02*
X136567619Y-46571428D01*
X136567619Y-46571428D02*
X136567619Y-46380952D01*
X136567619Y-46380952D02*
X136520000Y-46285714D01*
X136520000Y-46285714D02*
X136472380Y-46238095D01*
X136472380Y-46238095D02*
X136377142Y-46190476D01*
X136377142Y-46190476D02*
X135567619Y-46190476D01*
X135662857Y-45761904D02*
X135615238Y-45714285D01*
X135615238Y-45714285D02*
X135567619Y-45619047D01*
X135567619Y-45619047D02*
X135567619Y-45380952D01*
X135567619Y-45380952D02*
X135615238Y-45285714D01*
X135615238Y-45285714D02*
X135662857Y-45238095D01*
X135662857Y-45238095D02*
X135758095Y-45190476D01*
X135758095Y-45190476D02*
X135853333Y-45190476D01*
X135853333Y-45190476D02*
X135996190Y-45238095D01*
X135996190Y-45238095D02*
X136567619Y-45809523D01*
X136567619Y-45809523D02*
X136567619Y-45190476D01*
%TO.C,U6*%
X190462619Y-43761904D02*
X191272142Y-43761904D01*
X191272142Y-43761904D02*
X191367380Y-43714285D01*
X191367380Y-43714285D02*
X191415000Y-43666666D01*
X191415000Y-43666666D02*
X191462619Y-43571428D01*
X191462619Y-43571428D02*
X191462619Y-43380952D01*
X191462619Y-43380952D02*
X191415000Y-43285714D01*
X191415000Y-43285714D02*
X191367380Y-43238095D01*
X191367380Y-43238095D02*
X191272142Y-43190476D01*
X191272142Y-43190476D02*
X190462619Y-43190476D01*
X190462619Y-42285714D02*
X190462619Y-42476190D01*
X190462619Y-42476190D02*
X190510238Y-42571428D01*
X190510238Y-42571428D02*
X190557857Y-42619047D01*
X190557857Y-42619047D02*
X190700714Y-42714285D01*
X190700714Y-42714285D02*
X190891190Y-42761904D01*
X190891190Y-42761904D02*
X191272142Y-42761904D01*
X191272142Y-42761904D02*
X191367380Y-42714285D01*
X191367380Y-42714285D02*
X191415000Y-42666666D01*
X191415000Y-42666666D02*
X191462619Y-42571428D01*
X191462619Y-42571428D02*
X191462619Y-42380952D01*
X191462619Y-42380952D02*
X191415000Y-42285714D01*
X191415000Y-42285714D02*
X191367380Y-42238095D01*
X191367380Y-42238095D02*
X191272142Y-42190476D01*
X191272142Y-42190476D02*
X191034047Y-42190476D01*
X191034047Y-42190476D02*
X190938809Y-42238095D01*
X190938809Y-42238095D02*
X190891190Y-42285714D01*
X190891190Y-42285714D02*
X190843571Y-42380952D01*
X190843571Y-42380952D02*
X190843571Y-42571428D01*
X190843571Y-42571428D02*
X190891190Y-42666666D01*
X190891190Y-42666666D02*
X190938809Y-42714285D01*
X190938809Y-42714285D02*
X191034047Y-42761904D01*
%TO.C,R3*%
X130823050Y-37053445D02*
X130489717Y-36577254D01*
X130251622Y-37053445D02*
X130251622Y-36053445D01*
X130251622Y-36053445D02*
X130632574Y-36053445D01*
X130632574Y-36053445D02*
X130727812Y-36101064D01*
X130727812Y-36101064D02*
X130775431Y-36148683D01*
X130775431Y-36148683D02*
X130823050Y-36243921D01*
X130823050Y-36243921D02*
X130823050Y-36386778D01*
X130823050Y-36386778D02*
X130775431Y-36482016D01*
X130775431Y-36482016D02*
X130727812Y-36529635D01*
X130727812Y-36529635D02*
X130632574Y-36577254D01*
X130632574Y-36577254D02*
X130251622Y-36577254D01*
X131156384Y-36053445D02*
X131775431Y-36053445D01*
X131775431Y-36053445D02*
X131442098Y-36434397D01*
X131442098Y-36434397D02*
X131584955Y-36434397D01*
X131584955Y-36434397D02*
X131680193Y-36482016D01*
X131680193Y-36482016D02*
X131727812Y-36529635D01*
X131727812Y-36529635D02*
X131775431Y-36624873D01*
X131775431Y-36624873D02*
X131775431Y-36862968D01*
X131775431Y-36862968D02*
X131727812Y-36958206D01*
X131727812Y-36958206D02*
X131680193Y-37005826D01*
X131680193Y-37005826D02*
X131584955Y-37053445D01*
X131584955Y-37053445D02*
X131299241Y-37053445D01*
X131299241Y-37053445D02*
X131204003Y-37005826D01*
X131204003Y-37005826D02*
X131156384Y-36958206D01*
%TO.C,U3*%
X147332619Y-46761904D02*
X148142142Y-46761904D01*
X148142142Y-46761904D02*
X148237380Y-46714285D01*
X148237380Y-46714285D02*
X148285000Y-46666666D01*
X148285000Y-46666666D02*
X148332619Y-46571428D01*
X148332619Y-46571428D02*
X148332619Y-46380952D01*
X148332619Y-46380952D02*
X148285000Y-46285714D01*
X148285000Y-46285714D02*
X148237380Y-46238095D01*
X148237380Y-46238095D02*
X148142142Y-46190476D01*
X148142142Y-46190476D02*
X147332619Y-46190476D01*
X147332619Y-45809523D02*
X147332619Y-45190476D01*
X147332619Y-45190476D02*
X147713571Y-45523809D01*
X147713571Y-45523809D02*
X147713571Y-45380952D01*
X147713571Y-45380952D02*
X147761190Y-45285714D01*
X147761190Y-45285714D02*
X147808809Y-45238095D01*
X147808809Y-45238095D02*
X147904047Y-45190476D01*
X147904047Y-45190476D02*
X148142142Y-45190476D01*
X148142142Y-45190476D02*
X148237380Y-45238095D01*
X148237380Y-45238095D02*
X148285000Y-45285714D01*
X148285000Y-45285714D02*
X148332619Y-45380952D01*
X148332619Y-45380952D02*
X148332619Y-45666666D01*
X148332619Y-45666666D02*
X148285000Y-45761904D01*
X148285000Y-45761904D02*
X148237380Y-45809523D01*
%TO.C,J2*%
X193132848Y-56677549D02*
X193132848Y-57391834D01*
X193132848Y-57391834D02*
X193085229Y-57534691D01*
X193085229Y-57534691D02*
X192989991Y-57629930D01*
X192989991Y-57629930D02*
X192847134Y-57677549D01*
X192847134Y-57677549D02*
X192751896Y-57677549D01*
X193561420Y-56772787D02*
X193609039Y-56725168D01*
X193609039Y-56725168D02*
X193704277Y-56677549D01*
X193704277Y-56677549D02*
X193942372Y-56677549D01*
X193942372Y-56677549D02*
X194037610Y-56725168D01*
X194037610Y-56725168D02*
X194085229Y-56772787D01*
X194085229Y-56772787D02*
X194132848Y-56868025D01*
X194132848Y-56868025D02*
X194132848Y-56963263D01*
X194132848Y-56963263D02*
X194085229Y-57106120D01*
X194085229Y-57106120D02*
X193513801Y-57677549D01*
X193513801Y-57677549D02*
X194132848Y-57677549D01*
D11*
%TO.C,RX5*%
X183518433Y-26359467D02*
X183201054Y-26581632D01*
X183518433Y-26740322D02*
X182851937Y-26740322D01*
X182851937Y-26740322D02*
X182851937Y-26486419D01*
X182851937Y-26486419D02*
X182883675Y-26422943D01*
X182883675Y-26422943D02*
X182915413Y-26391205D01*
X182915413Y-26391205D02*
X182978889Y-26359467D01*
X182978889Y-26359467D02*
X183074103Y-26359467D01*
X183074103Y-26359467D02*
X183137579Y-26391205D01*
X183137579Y-26391205D02*
X183169316Y-26422943D01*
X183169316Y-26422943D02*
X183201054Y-26486419D01*
X183201054Y-26486419D02*
X183201054Y-26740322D01*
X182851937Y-26137302D02*
X183518433Y-25692971D01*
X182851937Y-25692971D02*
X183518433Y-26137302D01*
X182851937Y-25121689D02*
X182851937Y-25439068D01*
X182851937Y-25439068D02*
X183169316Y-25470806D01*
X183169316Y-25470806D02*
X183137579Y-25439068D01*
X183137579Y-25439068D02*
X183105841Y-25375592D01*
X183105841Y-25375592D02*
X183105841Y-25216903D01*
X183105841Y-25216903D02*
X183137579Y-25153427D01*
X183137579Y-25153427D02*
X183169316Y-25121689D01*
X183169316Y-25121689D02*
X183232792Y-25089951D01*
X183232792Y-25089951D02*
X183391482Y-25089951D01*
X183391482Y-25089951D02*
X183454958Y-25121689D01*
X183454958Y-25121689D02*
X183486696Y-25153427D01*
X183486696Y-25153427D02*
X183518433Y-25216903D01*
X183518433Y-25216903D02*
X183518433Y-25375592D01*
X183518433Y-25375592D02*
X183486696Y-25439068D01*
X183486696Y-25439068D02*
X183454958Y-25470806D01*
D12*
X173432285Y-32485118D02*
X174139857Y-32485118D01*
X174139857Y-32485118D02*
X173758857Y-32920547D01*
X173758857Y-32920547D02*
X173922142Y-32920547D01*
X173922142Y-32920547D02*
X174031000Y-32974975D01*
X174031000Y-32974975D02*
X174085428Y-33029404D01*
X174085428Y-33029404D02*
X174139857Y-33138261D01*
X174139857Y-33138261D02*
X174139857Y-33410404D01*
X174139857Y-33410404D02*
X174085428Y-33519261D01*
X174085428Y-33519261D02*
X174031000Y-33573690D01*
X174031000Y-33573690D02*
X173922142Y-33628118D01*
X173922142Y-33628118D02*
X173595571Y-33628118D01*
X173595571Y-33628118D02*
X173486714Y-33573690D01*
X173486714Y-33573690D02*
X173432285Y-33519261D01*
X174684142Y-33573690D02*
X174684142Y-33628118D01*
X174684142Y-33628118D02*
X174629713Y-33736975D01*
X174629713Y-33736975D02*
X174575285Y-33791404D01*
X175718285Y-32485118D02*
X175173999Y-32485118D01*
X175173999Y-32485118D02*
X175119571Y-33029404D01*
X175119571Y-33029404D02*
X175173999Y-32974975D01*
X175173999Y-32974975D02*
X175282857Y-32920547D01*
X175282857Y-32920547D02*
X175554999Y-32920547D01*
X175554999Y-32920547D02*
X175663857Y-32974975D01*
X175663857Y-32974975D02*
X175718285Y-33029404D01*
X175718285Y-33029404D02*
X175772714Y-33138261D01*
X175772714Y-33138261D02*
X175772714Y-33410404D01*
X175772714Y-33410404D02*
X175718285Y-33519261D01*
X175718285Y-33519261D02*
X175663857Y-33573690D01*
X175663857Y-33573690D02*
X175554999Y-33628118D01*
X175554999Y-33628118D02*
X175282857Y-33628118D01*
X175282857Y-33628118D02*
X175173999Y-33573690D01*
X175173999Y-33573690D02*
X175119571Y-33519261D01*
X176262570Y-33628118D02*
X176262570Y-32485118D01*
X176262570Y-32485118D02*
X176643570Y-33301547D01*
X176643570Y-33301547D02*
X177024570Y-32485118D01*
X177024570Y-32485118D02*
X177024570Y-33628118D01*
X177568856Y-33628118D02*
X177568856Y-32485118D01*
X177568856Y-32485118D02*
X177949856Y-33301547D01*
X177949856Y-33301547D02*
X178330856Y-32485118D01*
X178330856Y-32485118D02*
X178330856Y-33628118D01*
D10*
%TO.C,R7*%
X163110879Y-36875511D02*
X162777546Y-36399320D01*
X162539451Y-36875511D02*
X162539451Y-35875511D01*
X162539451Y-35875511D02*
X162920403Y-35875511D01*
X162920403Y-35875511D02*
X163015641Y-35923130D01*
X163015641Y-35923130D02*
X163063260Y-35970749D01*
X163063260Y-35970749D02*
X163110879Y-36065987D01*
X163110879Y-36065987D02*
X163110879Y-36208844D01*
X163110879Y-36208844D02*
X163063260Y-36304082D01*
X163063260Y-36304082D02*
X163015641Y-36351701D01*
X163015641Y-36351701D02*
X162920403Y-36399320D01*
X162920403Y-36399320D02*
X162539451Y-36399320D01*
X163444213Y-35875511D02*
X164110879Y-35875511D01*
X164110879Y-35875511D02*
X163682308Y-36875511D01*
D11*
%TO.C,RX6*%
X197458433Y-26359467D02*
X197141054Y-26581632D01*
X197458433Y-26740322D02*
X196791937Y-26740322D01*
X196791937Y-26740322D02*
X196791937Y-26486419D01*
X196791937Y-26486419D02*
X196823675Y-26422943D01*
X196823675Y-26422943D02*
X196855413Y-26391205D01*
X196855413Y-26391205D02*
X196918889Y-26359467D01*
X196918889Y-26359467D02*
X197014103Y-26359467D01*
X197014103Y-26359467D02*
X197077579Y-26391205D01*
X197077579Y-26391205D02*
X197109316Y-26422943D01*
X197109316Y-26422943D02*
X197141054Y-26486419D01*
X197141054Y-26486419D02*
X197141054Y-26740322D01*
X196791937Y-26137302D02*
X197458433Y-25692971D01*
X196791937Y-25692971D02*
X197458433Y-26137302D01*
X196791937Y-25153427D02*
X196791937Y-25280378D01*
X196791937Y-25280378D02*
X196823675Y-25343854D01*
X196823675Y-25343854D02*
X196855413Y-25375592D01*
X196855413Y-25375592D02*
X196950627Y-25439068D01*
X196950627Y-25439068D02*
X197077579Y-25470806D01*
X197077579Y-25470806D02*
X197331482Y-25470806D01*
X197331482Y-25470806D02*
X197394958Y-25439068D01*
X197394958Y-25439068D02*
X197426696Y-25407330D01*
X197426696Y-25407330D02*
X197458433Y-25343854D01*
X197458433Y-25343854D02*
X197458433Y-25216903D01*
X197458433Y-25216903D02*
X197426696Y-25153427D01*
X197426696Y-25153427D02*
X197394958Y-25121689D01*
X197394958Y-25121689D02*
X197331482Y-25089951D01*
X197331482Y-25089951D02*
X197172792Y-25089951D01*
X197172792Y-25089951D02*
X197109316Y-25121689D01*
X197109316Y-25121689D02*
X197077579Y-25153427D01*
X197077579Y-25153427D02*
X197045841Y-25216903D01*
X197045841Y-25216903D02*
X197045841Y-25343854D01*
X197045841Y-25343854D02*
X197077579Y-25407330D01*
X197077579Y-25407330D02*
X197109316Y-25439068D01*
X197109316Y-25439068D02*
X197172792Y-25470806D01*
D12*
X187432285Y-32485118D02*
X188139857Y-32485118D01*
X188139857Y-32485118D02*
X187758857Y-32920547D01*
X187758857Y-32920547D02*
X187922142Y-32920547D01*
X187922142Y-32920547D02*
X188031000Y-32974975D01*
X188031000Y-32974975D02*
X188085428Y-33029404D01*
X188085428Y-33029404D02*
X188139857Y-33138261D01*
X188139857Y-33138261D02*
X188139857Y-33410404D01*
X188139857Y-33410404D02*
X188085428Y-33519261D01*
X188085428Y-33519261D02*
X188031000Y-33573690D01*
X188031000Y-33573690D02*
X187922142Y-33628118D01*
X187922142Y-33628118D02*
X187595571Y-33628118D01*
X187595571Y-33628118D02*
X187486714Y-33573690D01*
X187486714Y-33573690D02*
X187432285Y-33519261D01*
X188684142Y-33573690D02*
X188684142Y-33628118D01*
X188684142Y-33628118D02*
X188629713Y-33736975D01*
X188629713Y-33736975D02*
X188575285Y-33791404D01*
X189718285Y-32485118D02*
X189173999Y-32485118D01*
X189173999Y-32485118D02*
X189119571Y-33029404D01*
X189119571Y-33029404D02*
X189173999Y-32974975D01*
X189173999Y-32974975D02*
X189282857Y-32920547D01*
X189282857Y-32920547D02*
X189554999Y-32920547D01*
X189554999Y-32920547D02*
X189663857Y-32974975D01*
X189663857Y-32974975D02*
X189718285Y-33029404D01*
X189718285Y-33029404D02*
X189772714Y-33138261D01*
X189772714Y-33138261D02*
X189772714Y-33410404D01*
X189772714Y-33410404D02*
X189718285Y-33519261D01*
X189718285Y-33519261D02*
X189663857Y-33573690D01*
X189663857Y-33573690D02*
X189554999Y-33628118D01*
X189554999Y-33628118D02*
X189282857Y-33628118D01*
X189282857Y-33628118D02*
X189173999Y-33573690D01*
X189173999Y-33573690D02*
X189119571Y-33519261D01*
X190262570Y-33628118D02*
X190262570Y-32485118D01*
X190262570Y-32485118D02*
X190643570Y-33301547D01*
X190643570Y-33301547D02*
X191024570Y-32485118D01*
X191024570Y-32485118D02*
X191024570Y-33628118D01*
X191568856Y-33628118D02*
X191568856Y-32485118D01*
X191568856Y-32485118D02*
X191949856Y-33301547D01*
X191949856Y-33301547D02*
X192330856Y-32485118D01*
X192330856Y-32485118D02*
X192330856Y-33628118D01*
D10*
%TO.C,D5*%
X171304688Y-37037659D02*
X171304688Y-36037659D01*
X171304688Y-36037659D02*
X171542783Y-36037659D01*
X171542783Y-36037659D02*
X171685640Y-36085278D01*
X171685640Y-36085278D02*
X171780878Y-36180516D01*
X171780878Y-36180516D02*
X171828497Y-36275754D01*
X171828497Y-36275754D02*
X171876116Y-36466230D01*
X171876116Y-36466230D02*
X171876116Y-36609087D01*
X171876116Y-36609087D02*
X171828497Y-36799563D01*
X171828497Y-36799563D02*
X171780878Y-36894801D01*
X171780878Y-36894801D02*
X171685640Y-36990040D01*
X171685640Y-36990040D02*
X171542783Y-37037659D01*
X171542783Y-37037659D02*
X171304688Y-37037659D01*
X172780878Y-36037659D02*
X172304688Y-36037659D01*
X172304688Y-36037659D02*
X172257069Y-36513849D01*
X172257069Y-36513849D02*
X172304688Y-36466230D01*
X172304688Y-36466230D02*
X172399926Y-36418611D01*
X172399926Y-36418611D02*
X172638021Y-36418611D01*
X172638021Y-36418611D02*
X172733259Y-36466230D01*
X172733259Y-36466230D02*
X172780878Y-36513849D01*
X172780878Y-36513849D02*
X172828497Y-36609087D01*
X172828497Y-36609087D02*
X172828497Y-36847182D01*
X172828497Y-36847182D02*
X172780878Y-36942420D01*
X172780878Y-36942420D02*
X172733259Y-36990040D01*
X172733259Y-36990040D02*
X172638021Y-37037659D01*
X172638021Y-37037659D02*
X172399926Y-37037659D01*
X172399926Y-37037659D02*
X172304688Y-36990040D01*
X172304688Y-36990040D02*
X172257069Y-36942420D01*
%TO.C,R9*%
X183806956Y-38875167D02*
X183473623Y-38398976D01*
X183235528Y-38875167D02*
X183235528Y-37875167D01*
X183235528Y-37875167D02*
X183616480Y-37875167D01*
X183616480Y-37875167D02*
X183711718Y-37922786D01*
X183711718Y-37922786D02*
X183759337Y-37970405D01*
X183759337Y-37970405D02*
X183806956Y-38065643D01*
X183806956Y-38065643D02*
X183806956Y-38208500D01*
X183806956Y-38208500D02*
X183759337Y-38303738D01*
X183759337Y-38303738D02*
X183711718Y-38351357D01*
X183711718Y-38351357D02*
X183616480Y-38398976D01*
X183616480Y-38398976D02*
X183235528Y-38398976D01*
X184283147Y-38875167D02*
X184473623Y-38875167D01*
X184473623Y-38875167D02*
X184568861Y-38827548D01*
X184568861Y-38827548D02*
X184616480Y-38779928D01*
X184616480Y-38779928D02*
X184711718Y-38637071D01*
X184711718Y-38637071D02*
X184759337Y-38446595D01*
X184759337Y-38446595D02*
X184759337Y-38065643D01*
X184759337Y-38065643D02*
X184711718Y-37970405D01*
X184711718Y-37970405D02*
X184664099Y-37922786D01*
X184664099Y-37922786D02*
X184568861Y-37875167D01*
X184568861Y-37875167D02*
X184378385Y-37875167D01*
X184378385Y-37875167D02*
X184283147Y-37922786D01*
X184283147Y-37922786D02*
X184235528Y-37970405D01*
X184235528Y-37970405D02*
X184187909Y-38065643D01*
X184187909Y-38065643D02*
X184187909Y-38303738D01*
X184187909Y-38303738D02*
X184235528Y-38398976D01*
X184235528Y-38398976D02*
X184283147Y-38446595D01*
X184283147Y-38446595D02*
X184378385Y-38494214D01*
X184378385Y-38494214D02*
X184568861Y-38494214D01*
X184568861Y-38494214D02*
X184664099Y-38446595D01*
X184664099Y-38446595D02*
X184711718Y-38398976D01*
X184711718Y-38398976D02*
X184759337Y-38303738D01*
%TO.C,J1*%
X175086809Y-52470220D02*
X175086809Y-53184505D01*
X175086809Y-53184505D02*
X175039190Y-53327362D01*
X175039190Y-53327362D02*
X174943952Y-53422601D01*
X174943952Y-53422601D02*
X174801095Y-53470220D01*
X174801095Y-53470220D02*
X174705857Y-53470220D01*
X176086809Y-53470220D02*
X175515381Y-53470220D01*
X175801095Y-53470220D02*
X175801095Y-52470220D01*
X175801095Y-52470220D02*
X175705857Y-52613077D01*
X175705857Y-52613077D02*
X175610619Y-52708315D01*
X175610619Y-52708315D02*
X175515381Y-52755934D01*
%TO.C,D4*%
X155890516Y-38860366D02*
X154890516Y-38860366D01*
X154890516Y-38860366D02*
X154890516Y-38622271D01*
X154890516Y-38622271D02*
X154938135Y-38479414D01*
X154938135Y-38479414D02*
X155033373Y-38384176D01*
X155033373Y-38384176D02*
X155128611Y-38336557D01*
X155128611Y-38336557D02*
X155319087Y-38288938D01*
X155319087Y-38288938D02*
X155461944Y-38288938D01*
X155461944Y-38288938D02*
X155652420Y-38336557D01*
X155652420Y-38336557D02*
X155747658Y-38384176D01*
X155747658Y-38384176D02*
X155842897Y-38479414D01*
X155842897Y-38479414D02*
X155890516Y-38622271D01*
X155890516Y-38622271D02*
X155890516Y-38860366D01*
X155223849Y-37431795D02*
X155890516Y-37431795D01*
X154842897Y-37669890D02*
X155557182Y-37907985D01*
X155557182Y-37907985D02*
X155557182Y-37288938D01*
%TO.C,D2*%
X124190797Y-38441751D02*
X123190797Y-38441751D01*
X123190797Y-38441751D02*
X123190797Y-38203656D01*
X123190797Y-38203656D02*
X123238416Y-38060799D01*
X123238416Y-38060799D02*
X123333654Y-37965561D01*
X123333654Y-37965561D02*
X123428892Y-37917942D01*
X123428892Y-37917942D02*
X123619368Y-37870323D01*
X123619368Y-37870323D02*
X123762225Y-37870323D01*
X123762225Y-37870323D02*
X123952701Y-37917942D01*
X123952701Y-37917942D02*
X124047939Y-37965561D01*
X124047939Y-37965561D02*
X124143178Y-38060799D01*
X124143178Y-38060799D02*
X124190797Y-38203656D01*
X124190797Y-38203656D02*
X124190797Y-38441751D01*
X123286035Y-37489370D02*
X123238416Y-37441751D01*
X123238416Y-37441751D02*
X123190797Y-37346513D01*
X123190797Y-37346513D02*
X123190797Y-37108418D01*
X123190797Y-37108418D02*
X123238416Y-37013180D01*
X123238416Y-37013180D02*
X123286035Y-36965561D01*
X123286035Y-36965561D02*
X123381273Y-36917942D01*
X123381273Y-36917942D02*
X123476511Y-36917942D01*
X123476511Y-36917942D02*
X123619368Y-36965561D01*
X123619368Y-36965561D02*
X124190797Y-37536989D01*
X124190797Y-37536989D02*
X124190797Y-36917942D01*
%TO.C,R6*%
X142833333Y-52642619D02*
X142500000Y-52166428D01*
X142261905Y-52642619D02*
X142261905Y-51642619D01*
X142261905Y-51642619D02*
X142642857Y-51642619D01*
X142642857Y-51642619D02*
X142738095Y-51690238D01*
X142738095Y-51690238D02*
X142785714Y-51737857D01*
X142785714Y-51737857D02*
X142833333Y-51833095D01*
X142833333Y-51833095D02*
X142833333Y-51975952D01*
X142833333Y-51975952D02*
X142785714Y-52071190D01*
X142785714Y-52071190D02*
X142738095Y-52118809D01*
X142738095Y-52118809D02*
X142642857Y-52166428D01*
X142642857Y-52166428D02*
X142261905Y-52166428D01*
X143690476Y-51642619D02*
X143500000Y-51642619D01*
X143500000Y-51642619D02*
X143404762Y-51690238D01*
X143404762Y-51690238D02*
X143357143Y-51737857D01*
X143357143Y-51737857D02*
X143261905Y-51880714D01*
X143261905Y-51880714D02*
X143214286Y-52071190D01*
X143214286Y-52071190D02*
X143214286Y-52452142D01*
X143214286Y-52452142D02*
X143261905Y-52547380D01*
X143261905Y-52547380D02*
X143309524Y-52595000D01*
X143309524Y-52595000D02*
X143404762Y-52642619D01*
X143404762Y-52642619D02*
X143595238Y-52642619D01*
X143595238Y-52642619D02*
X143690476Y-52595000D01*
X143690476Y-52595000D02*
X143738095Y-52547380D01*
X143738095Y-52547380D02*
X143785714Y-52452142D01*
X143785714Y-52452142D02*
X143785714Y-52214047D01*
X143785714Y-52214047D02*
X143738095Y-52118809D01*
X143738095Y-52118809D02*
X143690476Y-52071190D01*
X143690476Y-52071190D02*
X143595238Y-52023571D01*
X143595238Y-52023571D02*
X143404762Y-52023571D01*
X143404762Y-52023571D02*
X143309524Y-52071190D01*
X143309524Y-52071190D02*
X143261905Y-52118809D01*
X143261905Y-52118809D02*
X143214286Y-52214047D01*
D11*
%TO.C,RX3*%
X155458433Y-26359467D02*
X155141054Y-26581632D01*
X155458433Y-26740322D02*
X154791937Y-26740322D01*
X154791937Y-26740322D02*
X154791937Y-26486419D01*
X154791937Y-26486419D02*
X154823675Y-26422943D01*
X154823675Y-26422943D02*
X154855413Y-26391205D01*
X154855413Y-26391205D02*
X154918889Y-26359467D01*
X154918889Y-26359467D02*
X155014103Y-26359467D01*
X155014103Y-26359467D02*
X155077579Y-26391205D01*
X155077579Y-26391205D02*
X155109316Y-26422943D01*
X155109316Y-26422943D02*
X155141054Y-26486419D01*
X155141054Y-26486419D02*
X155141054Y-26740322D01*
X154791937Y-26137302D02*
X155458433Y-25692971D01*
X154791937Y-25692971D02*
X155458433Y-26137302D01*
X154791937Y-25502544D02*
X154791937Y-25089951D01*
X154791937Y-25089951D02*
X155045841Y-25312116D01*
X155045841Y-25312116D02*
X155045841Y-25216903D01*
X155045841Y-25216903D02*
X155077579Y-25153427D01*
X155077579Y-25153427D02*
X155109316Y-25121689D01*
X155109316Y-25121689D02*
X155172792Y-25089951D01*
X155172792Y-25089951D02*
X155331482Y-25089951D01*
X155331482Y-25089951D02*
X155394958Y-25121689D01*
X155394958Y-25121689D02*
X155426696Y-25153427D01*
X155426696Y-25153427D02*
X155458433Y-25216903D01*
X155458433Y-25216903D02*
X155458433Y-25407330D01*
X155458433Y-25407330D02*
X155426696Y-25470806D01*
X155426696Y-25470806D02*
X155394958Y-25502544D01*
D12*
X145432285Y-32485118D02*
X146139857Y-32485118D01*
X146139857Y-32485118D02*
X145758857Y-32920547D01*
X145758857Y-32920547D02*
X145922142Y-32920547D01*
X145922142Y-32920547D02*
X146031000Y-32974975D01*
X146031000Y-32974975D02*
X146085428Y-33029404D01*
X146085428Y-33029404D02*
X146139857Y-33138261D01*
X146139857Y-33138261D02*
X146139857Y-33410404D01*
X146139857Y-33410404D02*
X146085428Y-33519261D01*
X146085428Y-33519261D02*
X146031000Y-33573690D01*
X146031000Y-33573690D02*
X145922142Y-33628118D01*
X145922142Y-33628118D02*
X145595571Y-33628118D01*
X145595571Y-33628118D02*
X145486714Y-33573690D01*
X145486714Y-33573690D02*
X145432285Y-33519261D01*
X146684142Y-33573690D02*
X146684142Y-33628118D01*
X146684142Y-33628118D02*
X146629713Y-33736975D01*
X146629713Y-33736975D02*
X146575285Y-33791404D01*
X147718285Y-32485118D02*
X147173999Y-32485118D01*
X147173999Y-32485118D02*
X147119571Y-33029404D01*
X147119571Y-33029404D02*
X147173999Y-32974975D01*
X147173999Y-32974975D02*
X147282857Y-32920547D01*
X147282857Y-32920547D02*
X147554999Y-32920547D01*
X147554999Y-32920547D02*
X147663857Y-32974975D01*
X147663857Y-32974975D02*
X147718285Y-33029404D01*
X147718285Y-33029404D02*
X147772714Y-33138261D01*
X147772714Y-33138261D02*
X147772714Y-33410404D01*
X147772714Y-33410404D02*
X147718285Y-33519261D01*
X147718285Y-33519261D02*
X147663857Y-33573690D01*
X147663857Y-33573690D02*
X147554999Y-33628118D01*
X147554999Y-33628118D02*
X147282857Y-33628118D01*
X147282857Y-33628118D02*
X147173999Y-33573690D01*
X147173999Y-33573690D02*
X147119571Y-33519261D01*
X148262570Y-33628118D02*
X148262570Y-32485118D01*
X148262570Y-32485118D02*
X148643570Y-33301547D01*
X148643570Y-33301547D02*
X149024570Y-32485118D01*
X149024570Y-32485118D02*
X149024570Y-33628118D01*
X149568856Y-33628118D02*
X149568856Y-32485118D01*
X149568856Y-32485118D02*
X149949856Y-33301547D01*
X149949856Y-33301547D02*
X150330856Y-32485118D01*
X150330856Y-32485118D02*
X150330856Y-33628118D01*
D10*
%TO.C,R4*%
X131383333Y-52642619D02*
X131050000Y-52166428D01*
X130811905Y-52642619D02*
X130811905Y-51642619D01*
X130811905Y-51642619D02*
X131192857Y-51642619D01*
X131192857Y-51642619D02*
X131288095Y-51690238D01*
X131288095Y-51690238D02*
X131335714Y-51737857D01*
X131335714Y-51737857D02*
X131383333Y-51833095D01*
X131383333Y-51833095D02*
X131383333Y-51975952D01*
X131383333Y-51975952D02*
X131335714Y-52071190D01*
X131335714Y-52071190D02*
X131288095Y-52118809D01*
X131288095Y-52118809D02*
X131192857Y-52166428D01*
X131192857Y-52166428D02*
X130811905Y-52166428D01*
X132240476Y-51975952D02*
X132240476Y-52642619D01*
X132002381Y-51595000D02*
X131764286Y-52309285D01*
X131764286Y-52309285D02*
X132383333Y-52309285D01*
%TO.C,R11*%
X198907073Y-38726626D02*
X198430882Y-39059959D01*
X198907073Y-39298054D02*
X197907073Y-39298054D01*
X197907073Y-39298054D02*
X197907073Y-38917102D01*
X197907073Y-38917102D02*
X197954692Y-38821864D01*
X197954692Y-38821864D02*
X198002311Y-38774245D01*
X198002311Y-38774245D02*
X198097549Y-38726626D01*
X198097549Y-38726626D02*
X198240406Y-38726626D01*
X198240406Y-38726626D02*
X198335644Y-38774245D01*
X198335644Y-38774245D02*
X198383263Y-38821864D01*
X198383263Y-38821864D02*
X198430882Y-38917102D01*
X198430882Y-38917102D02*
X198430882Y-39298054D01*
X198907073Y-37774245D02*
X198907073Y-38345673D01*
X198907073Y-38059959D02*
X197907073Y-38059959D01*
X197907073Y-38059959D02*
X198049930Y-38155197D01*
X198049930Y-38155197D02*
X198145168Y-38250435D01*
X198145168Y-38250435D02*
X198192787Y-38345673D01*
X198907073Y-36821864D02*
X198907073Y-37393292D01*
X198907073Y-37107578D02*
X197907073Y-37107578D01*
X197907073Y-37107578D02*
X198049930Y-37202816D01*
X198049930Y-37202816D02*
X198145168Y-37298054D01*
X198145168Y-37298054D02*
X198192787Y-37393292D01*
D11*
%TO.C,RX2*%
X141458433Y-26359467D02*
X141141054Y-26581632D01*
X141458433Y-26740322D02*
X140791937Y-26740322D01*
X140791937Y-26740322D02*
X140791937Y-26486419D01*
X140791937Y-26486419D02*
X140823675Y-26422943D01*
X140823675Y-26422943D02*
X140855413Y-26391205D01*
X140855413Y-26391205D02*
X140918889Y-26359467D01*
X140918889Y-26359467D02*
X141014103Y-26359467D01*
X141014103Y-26359467D02*
X141077579Y-26391205D01*
X141077579Y-26391205D02*
X141109316Y-26422943D01*
X141109316Y-26422943D02*
X141141054Y-26486419D01*
X141141054Y-26486419D02*
X141141054Y-26740322D01*
X140791937Y-26137302D02*
X141458433Y-25692971D01*
X140791937Y-25692971D02*
X141458433Y-26137302D01*
X140855413Y-25470806D02*
X140823675Y-25439068D01*
X140823675Y-25439068D02*
X140791937Y-25375592D01*
X140791937Y-25375592D02*
X140791937Y-25216903D01*
X140791937Y-25216903D02*
X140823675Y-25153427D01*
X140823675Y-25153427D02*
X140855413Y-25121689D01*
X140855413Y-25121689D02*
X140918889Y-25089951D01*
X140918889Y-25089951D02*
X140982365Y-25089951D01*
X140982365Y-25089951D02*
X141077579Y-25121689D01*
X141077579Y-25121689D02*
X141458433Y-25502544D01*
X141458433Y-25502544D02*
X141458433Y-25089951D01*
D12*
X131432285Y-32485118D02*
X132139857Y-32485118D01*
X132139857Y-32485118D02*
X131758857Y-32920547D01*
X131758857Y-32920547D02*
X131922142Y-32920547D01*
X131922142Y-32920547D02*
X132031000Y-32974975D01*
X132031000Y-32974975D02*
X132085428Y-33029404D01*
X132085428Y-33029404D02*
X132139857Y-33138261D01*
X132139857Y-33138261D02*
X132139857Y-33410404D01*
X132139857Y-33410404D02*
X132085428Y-33519261D01*
X132085428Y-33519261D02*
X132031000Y-33573690D01*
X132031000Y-33573690D02*
X131922142Y-33628118D01*
X131922142Y-33628118D02*
X131595571Y-33628118D01*
X131595571Y-33628118D02*
X131486714Y-33573690D01*
X131486714Y-33573690D02*
X131432285Y-33519261D01*
X132684142Y-33573690D02*
X132684142Y-33628118D01*
X132684142Y-33628118D02*
X132629713Y-33736975D01*
X132629713Y-33736975D02*
X132575285Y-33791404D01*
X133718285Y-32485118D02*
X133173999Y-32485118D01*
X133173999Y-32485118D02*
X133119571Y-33029404D01*
X133119571Y-33029404D02*
X133173999Y-32974975D01*
X133173999Y-32974975D02*
X133282857Y-32920547D01*
X133282857Y-32920547D02*
X133554999Y-32920547D01*
X133554999Y-32920547D02*
X133663857Y-32974975D01*
X133663857Y-32974975D02*
X133718285Y-33029404D01*
X133718285Y-33029404D02*
X133772714Y-33138261D01*
X133772714Y-33138261D02*
X133772714Y-33410404D01*
X133772714Y-33410404D02*
X133718285Y-33519261D01*
X133718285Y-33519261D02*
X133663857Y-33573690D01*
X133663857Y-33573690D02*
X133554999Y-33628118D01*
X133554999Y-33628118D02*
X133282857Y-33628118D01*
X133282857Y-33628118D02*
X133173999Y-33573690D01*
X133173999Y-33573690D02*
X133119571Y-33519261D01*
X134262570Y-33628118D02*
X134262570Y-32485118D01*
X134262570Y-32485118D02*
X134643570Y-33301547D01*
X134643570Y-33301547D02*
X135024570Y-32485118D01*
X135024570Y-32485118D02*
X135024570Y-33628118D01*
X135568856Y-33628118D02*
X135568856Y-32485118D01*
X135568856Y-32485118D02*
X135949856Y-33301547D01*
X135949856Y-33301547D02*
X136330856Y-32485118D01*
X136330856Y-32485118D02*
X136330856Y-33628118D01*
D10*
%TO.C,R5*%
X147840625Y-36982271D02*
X147507292Y-36506080D01*
X147269197Y-36982271D02*
X147269197Y-35982271D01*
X147269197Y-35982271D02*
X147650149Y-35982271D01*
X147650149Y-35982271D02*
X147745387Y-36029890D01*
X147745387Y-36029890D02*
X147793006Y-36077509D01*
X147793006Y-36077509D02*
X147840625Y-36172747D01*
X147840625Y-36172747D02*
X147840625Y-36315604D01*
X147840625Y-36315604D02*
X147793006Y-36410842D01*
X147793006Y-36410842D02*
X147745387Y-36458461D01*
X147745387Y-36458461D02*
X147650149Y-36506080D01*
X147650149Y-36506080D02*
X147269197Y-36506080D01*
X148745387Y-35982271D02*
X148269197Y-35982271D01*
X148269197Y-35982271D02*
X148221578Y-36458461D01*
X148221578Y-36458461D02*
X148269197Y-36410842D01*
X148269197Y-36410842D02*
X148364435Y-36363223D01*
X148364435Y-36363223D02*
X148602530Y-36363223D01*
X148602530Y-36363223D02*
X148697768Y-36410842D01*
X148697768Y-36410842D02*
X148745387Y-36458461D01*
X148745387Y-36458461D02*
X148793006Y-36553699D01*
X148793006Y-36553699D02*
X148793006Y-36791794D01*
X148793006Y-36791794D02*
X148745387Y-36887032D01*
X148745387Y-36887032D02*
X148697768Y-36934652D01*
X148697768Y-36934652D02*
X148602530Y-36982271D01*
X148602530Y-36982271D02*
X148364435Y-36982271D01*
X148364435Y-36982271D02*
X148269197Y-36934652D01*
X148269197Y-36934652D02*
X148221578Y-36887032D01*
%TO.C,U5*%
X183332619Y-46761904D02*
X184142142Y-46761904D01*
X184142142Y-46761904D02*
X184237380Y-46714285D01*
X184237380Y-46714285D02*
X184285000Y-46666666D01*
X184285000Y-46666666D02*
X184332619Y-46571428D01*
X184332619Y-46571428D02*
X184332619Y-46380952D01*
X184332619Y-46380952D02*
X184285000Y-46285714D01*
X184285000Y-46285714D02*
X184237380Y-46238095D01*
X184237380Y-46238095D02*
X184142142Y-46190476D01*
X184142142Y-46190476D02*
X183332619Y-46190476D01*
X183332619Y-45238095D02*
X183332619Y-45714285D01*
X183332619Y-45714285D02*
X183808809Y-45761904D01*
X183808809Y-45761904D02*
X183761190Y-45714285D01*
X183761190Y-45714285D02*
X183713571Y-45619047D01*
X183713571Y-45619047D02*
X183713571Y-45380952D01*
X183713571Y-45380952D02*
X183761190Y-45285714D01*
X183761190Y-45285714D02*
X183808809Y-45238095D01*
X183808809Y-45238095D02*
X183904047Y-45190476D01*
X183904047Y-45190476D02*
X184142142Y-45190476D01*
X184142142Y-45190476D02*
X184237380Y-45238095D01*
X184237380Y-45238095D02*
X184285000Y-45285714D01*
X184285000Y-45285714D02*
X184332619Y-45380952D01*
X184332619Y-45380952D02*
X184332619Y-45619047D01*
X184332619Y-45619047D02*
X184285000Y-45714285D01*
X184285000Y-45714285D02*
X184237380Y-45761904D01*
%TO.C,R10*%
X179357142Y-53642619D02*
X179023809Y-53166428D01*
X178785714Y-53642619D02*
X178785714Y-52642619D01*
X178785714Y-52642619D02*
X179166666Y-52642619D01*
X179166666Y-52642619D02*
X179261904Y-52690238D01*
X179261904Y-52690238D02*
X179309523Y-52737857D01*
X179309523Y-52737857D02*
X179357142Y-52833095D01*
X179357142Y-52833095D02*
X179357142Y-52975952D01*
X179357142Y-52975952D02*
X179309523Y-53071190D01*
X179309523Y-53071190D02*
X179261904Y-53118809D01*
X179261904Y-53118809D02*
X179166666Y-53166428D01*
X179166666Y-53166428D02*
X178785714Y-53166428D01*
X180309523Y-53642619D02*
X179738095Y-53642619D01*
X180023809Y-53642619D02*
X180023809Y-52642619D01*
X180023809Y-52642619D02*
X179928571Y-52785476D01*
X179928571Y-52785476D02*
X179833333Y-52880714D01*
X179833333Y-52880714D02*
X179738095Y-52928333D01*
X180928571Y-52642619D02*
X181023809Y-52642619D01*
X181023809Y-52642619D02*
X181119047Y-52690238D01*
X181119047Y-52690238D02*
X181166666Y-52737857D01*
X181166666Y-52737857D02*
X181214285Y-52833095D01*
X181214285Y-52833095D02*
X181261904Y-53023571D01*
X181261904Y-53023571D02*
X181261904Y-53261666D01*
X181261904Y-53261666D02*
X181214285Y-53452142D01*
X181214285Y-53452142D02*
X181166666Y-53547380D01*
X181166666Y-53547380D02*
X181119047Y-53595000D01*
X181119047Y-53595000D02*
X181023809Y-53642619D01*
X181023809Y-53642619D02*
X180928571Y-53642619D01*
X180928571Y-53642619D02*
X180833333Y-53595000D01*
X180833333Y-53595000D02*
X180785714Y-53547380D01*
X180785714Y-53547380D02*
X180738095Y-53452142D01*
X180738095Y-53452142D02*
X180690476Y-53261666D01*
X180690476Y-53261666D02*
X180690476Y-53023571D01*
X180690476Y-53023571D02*
X180738095Y-52833095D01*
X180738095Y-52833095D02*
X180785714Y-52737857D01*
X180785714Y-52737857D02*
X180833333Y-52690238D01*
X180833333Y-52690238D02*
X180928571Y-52642619D01*
%TO.C,R12*%
X189642619Y-47642857D02*
X189166428Y-47976190D01*
X189642619Y-48214285D02*
X188642619Y-48214285D01*
X188642619Y-48214285D02*
X188642619Y-47833333D01*
X188642619Y-47833333D02*
X188690238Y-47738095D01*
X188690238Y-47738095D02*
X188737857Y-47690476D01*
X188737857Y-47690476D02*
X188833095Y-47642857D01*
X188833095Y-47642857D02*
X188975952Y-47642857D01*
X188975952Y-47642857D02*
X189071190Y-47690476D01*
X189071190Y-47690476D02*
X189118809Y-47738095D01*
X189118809Y-47738095D02*
X189166428Y-47833333D01*
X189166428Y-47833333D02*
X189166428Y-48214285D01*
X189642619Y-46690476D02*
X189642619Y-47261904D01*
X189642619Y-46976190D02*
X188642619Y-46976190D01*
X188642619Y-46976190D02*
X188785476Y-47071428D01*
X188785476Y-47071428D02*
X188880714Y-47166666D01*
X188880714Y-47166666D02*
X188928333Y-47261904D01*
X188737857Y-46309523D02*
X188690238Y-46261904D01*
X188690238Y-46261904D02*
X188642619Y-46166666D01*
X188642619Y-46166666D02*
X188642619Y-45928571D01*
X188642619Y-45928571D02*
X188690238Y-45833333D01*
X188690238Y-45833333D02*
X188737857Y-45785714D01*
X188737857Y-45785714D02*
X188833095Y-45738095D01*
X188833095Y-45738095D02*
X188928333Y-45738095D01*
X188928333Y-45738095D02*
X189071190Y-45785714D01*
X189071190Y-45785714D02*
X189642619Y-46357142D01*
X189642619Y-46357142D02*
X189642619Y-45738095D01*
%TO.C,R8*%
X154833333Y-52642619D02*
X154500000Y-52166428D01*
X154261905Y-52642619D02*
X154261905Y-51642619D01*
X154261905Y-51642619D02*
X154642857Y-51642619D01*
X154642857Y-51642619D02*
X154738095Y-51690238D01*
X154738095Y-51690238D02*
X154785714Y-51737857D01*
X154785714Y-51737857D02*
X154833333Y-51833095D01*
X154833333Y-51833095D02*
X154833333Y-51975952D01*
X154833333Y-51975952D02*
X154785714Y-52071190D01*
X154785714Y-52071190D02*
X154738095Y-52118809D01*
X154738095Y-52118809D02*
X154642857Y-52166428D01*
X154642857Y-52166428D02*
X154261905Y-52166428D01*
X155404762Y-52071190D02*
X155309524Y-52023571D01*
X155309524Y-52023571D02*
X155261905Y-51975952D01*
X155261905Y-51975952D02*
X155214286Y-51880714D01*
X155214286Y-51880714D02*
X155214286Y-51833095D01*
X155214286Y-51833095D02*
X155261905Y-51737857D01*
X155261905Y-51737857D02*
X155309524Y-51690238D01*
X155309524Y-51690238D02*
X155404762Y-51642619D01*
X155404762Y-51642619D02*
X155595238Y-51642619D01*
X155595238Y-51642619D02*
X155690476Y-51690238D01*
X155690476Y-51690238D02*
X155738095Y-51737857D01*
X155738095Y-51737857D02*
X155785714Y-51833095D01*
X155785714Y-51833095D02*
X155785714Y-51880714D01*
X155785714Y-51880714D02*
X155738095Y-51975952D01*
X155738095Y-51975952D02*
X155690476Y-52023571D01*
X155690476Y-52023571D02*
X155595238Y-52071190D01*
X155595238Y-52071190D02*
X155404762Y-52071190D01*
X155404762Y-52071190D02*
X155309524Y-52118809D01*
X155309524Y-52118809D02*
X155261905Y-52166428D01*
X155261905Y-52166428D02*
X155214286Y-52261666D01*
X155214286Y-52261666D02*
X155214286Y-52452142D01*
X155214286Y-52452142D02*
X155261905Y-52547380D01*
X155261905Y-52547380D02*
X155309524Y-52595000D01*
X155309524Y-52595000D02*
X155404762Y-52642619D01*
X155404762Y-52642619D02*
X155595238Y-52642619D01*
X155595238Y-52642619D02*
X155690476Y-52595000D01*
X155690476Y-52595000D02*
X155738095Y-52547380D01*
X155738095Y-52547380D02*
X155785714Y-52452142D01*
X155785714Y-52452142D02*
X155785714Y-52261666D01*
X155785714Y-52261666D02*
X155738095Y-52166428D01*
X155738095Y-52166428D02*
X155690476Y-52118809D01*
X155690476Y-52118809D02*
X155595238Y-52071190D01*
%TO.C,D6*%
X184598442Y-40811395D02*
X183598442Y-40811395D01*
X183598442Y-40811395D02*
X183598442Y-40573300D01*
X183598442Y-40573300D02*
X183646061Y-40430443D01*
X183646061Y-40430443D02*
X183741299Y-40335205D01*
X183741299Y-40335205D02*
X183836537Y-40287586D01*
X183836537Y-40287586D02*
X184027013Y-40239967D01*
X184027013Y-40239967D02*
X184169870Y-40239967D01*
X184169870Y-40239967D02*
X184360346Y-40287586D01*
X184360346Y-40287586D02*
X184455584Y-40335205D01*
X184455584Y-40335205D02*
X184550823Y-40430443D01*
X184550823Y-40430443D02*
X184598442Y-40573300D01*
X184598442Y-40573300D02*
X184598442Y-40811395D01*
X183598442Y-39382824D02*
X183598442Y-39573300D01*
X183598442Y-39573300D02*
X183646061Y-39668538D01*
X183646061Y-39668538D02*
X183693680Y-39716157D01*
X183693680Y-39716157D02*
X183836537Y-39811395D01*
X183836537Y-39811395D02*
X184027013Y-39859014D01*
X184027013Y-39859014D02*
X184407965Y-39859014D01*
X184407965Y-39859014D02*
X184503203Y-39811395D01*
X184503203Y-39811395D02*
X184550823Y-39763776D01*
X184550823Y-39763776D02*
X184598442Y-39668538D01*
X184598442Y-39668538D02*
X184598442Y-39478062D01*
X184598442Y-39478062D02*
X184550823Y-39382824D01*
X184550823Y-39382824D02*
X184503203Y-39335205D01*
X184503203Y-39335205D02*
X184407965Y-39287586D01*
X184407965Y-39287586D02*
X184169870Y-39287586D01*
X184169870Y-39287586D02*
X184074632Y-39335205D01*
X184074632Y-39335205D02*
X184027013Y-39382824D01*
X184027013Y-39382824D02*
X183979394Y-39478062D01*
X183979394Y-39478062D02*
X183979394Y-39668538D01*
X183979394Y-39668538D02*
X184027013Y-39763776D01*
X184027013Y-39763776D02*
X184074632Y-39811395D01*
X184074632Y-39811395D02*
X184169870Y-39859014D01*
D13*
%TO.C,U4*%
X157870000Y-42765000D02*
X150130000Y-42765000D01*
X150130000Y-42765000D02*
X150130000Y-49235000D01*
X157870000Y-45000000D02*
X157870000Y-42765000D01*
X157870000Y-49235000D02*
X157870000Y-47000000D01*
X150130000Y-49235000D02*
X157870000Y-49235000D01*
X157870000Y-45000000D02*
G75*
G03*
X157870000Y-47000000I0J-1000000D01*
G01*
%TO.C,D3*%
X144973172Y-39265821D02*
X144973172Y-37565821D01*
X144973172Y-39265821D02*
X141713172Y-39265821D01*
X144973172Y-37565821D02*
X141713172Y-37565821D01*
D14*
%TO.C,RX4*%
X159460000Y-19510000D02*
X164540000Y-19510000D01*
X165048000Y-20018000D02*
X164540000Y-19510000D01*
X158952000Y-20018000D02*
X159460000Y-19510000D01*
X158952000Y-20018000D02*
X165048000Y-20018000D01*
X158952000Y-20018000D02*
X158952000Y-22766000D01*
X165048000Y-22766000D02*
X165048000Y-20018000D01*
X165048000Y-22766000D02*
X168042000Y-22766000D01*
X158952000Y-22766000D02*
X165048000Y-22766000D01*
X155958000Y-22766000D02*
X158952000Y-22766000D01*
X155958000Y-22766000D02*
X155958000Y-27884000D01*
X155958000Y-30043000D02*
X155958000Y-34490000D01*
X168042000Y-32583000D02*
X168042000Y-22766000D01*
X168042000Y-34490000D02*
X168042000Y-34488000D01*
X168042000Y-34490000D02*
X155958000Y-34490000D01*
D13*
%TO.C,U2*%
X135105000Y-42765000D02*
X127365000Y-42765000D01*
X127365000Y-42765000D02*
X127365000Y-49235000D01*
X135105000Y-45000000D02*
X135105000Y-42765000D01*
X135105000Y-49235000D02*
X135105000Y-47000000D01*
X127365000Y-49235000D02*
X135105000Y-49235000D01*
X135105000Y-45000000D02*
G75*
G03*
X135105000Y-47000000I0J-1000000D01*
G01*
%TO.C,U6*%
X200870000Y-42765000D02*
X193130000Y-42765000D01*
X193130000Y-42765000D02*
X193130000Y-49235000D01*
X200870000Y-45000000D02*
X200870000Y-42765000D01*
X200870000Y-49235000D02*
X200870000Y-47000000D01*
X193130000Y-49235000D02*
X200870000Y-49235000D01*
X200870000Y-45000000D02*
G75*
G03*
X200870000Y-47000000I0J-1000000D01*
G01*
%TO.C,R3*%
X135237789Y-39199033D02*
X133783661Y-39199033D01*
X135237789Y-37379033D02*
X133783661Y-37379033D01*
%TO.C,U3*%
X146870000Y-42765000D02*
X139130000Y-42765000D01*
X139130000Y-42765000D02*
X139130000Y-49235000D01*
X146870000Y-45000000D02*
X146870000Y-42765000D01*
X146870000Y-49235000D02*
X146870000Y-47000000D01*
X139130000Y-49235000D02*
X146870000Y-49235000D01*
X146870000Y-45000000D02*
G75*
G03*
X146870000Y-47000000I0J-1000000D01*
G01*
%TO.C,J2*%
X184150000Y-51250000D02*
X184150000Y-53750000D01*
X184450000Y-51550000D02*
X184450000Y-52300000D01*
X184450000Y-51550000D02*
X184450000Y-57500000D01*
X184450000Y-52300000D02*
X186250000Y-52300000D01*
X184450000Y-53800000D02*
X185200000Y-53800000D01*
X184450000Y-57500000D02*
X192050000Y-57500000D01*
X185200000Y-53800000D02*
X185200000Y-56750000D01*
X185200000Y-56750000D02*
X188250000Y-56750000D01*
X186250000Y-51550000D02*
X184450000Y-51550000D01*
X186250000Y-52300000D02*
X186250000Y-51550000D01*
X186650000Y-51250000D02*
X184150000Y-51250000D01*
X187750000Y-51550000D02*
X187750000Y-52300000D01*
X187750000Y-52300000D02*
X188750000Y-52300000D01*
X188750000Y-51550000D02*
X187750000Y-51550000D01*
X188750000Y-52300000D02*
X188750000Y-51550000D01*
X190250000Y-51550000D02*
X190250000Y-52300000D01*
X190250000Y-52300000D02*
X192050000Y-52300000D01*
X191300000Y-53800000D02*
X191300000Y-56750000D01*
X191300000Y-56750000D02*
X188250000Y-56750000D01*
X192050000Y-51550000D02*
X184450000Y-51550000D01*
X192050000Y-51550000D02*
X190250000Y-51550000D01*
X192050000Y-52300000D02*
X192050000Y-51550000D01*
X192050000Y-53800000D02*
X191300000Y-53800000D01*
X192050000Y-57500000D02*
X192050000Y-51550000D01*
D14*
%TO.C,RX5*%
X173460000Y-19510000D02*
X178540000Y-19510000D01*
X179048000Y-20018000D02*
X178540000Y-19510000D01*
X172952000Y-20018000D02*
X173460000Y-19510000D01*
X172952000Y-20018000D02*
X179048000Y-20018000D01*
X172952000Y-20018000D02*
X172952000Y-22766000D01*
X179048000Y-22766000D02*
X179048000Y-20018000D01*
X179048000Y-22766000D02*
X182042000Y-22766000D01*
X172952000Y-22766000D02*
X179048000Y-22766000D01*
X169958000Y-22766000D02*
X172952000Y-22766000D01*
X169958000Y-22766000D02*
X169958000Y-27884000D01*
X169958000Y-30043000D02*
X169958000Y-34490000D01*
X182042000Y-32583000D02*
X182042000Y-22766000D01*
X182042000Y-34490000D02*
X182042000Y-34488000D01*
X182042000Y-34490000D02*
X169958000Y-34490000D01*
D13*
%TO.C,R7*%
X166264748Y-39391381D02*
X164810620Y-39391381D01*
X166264748Y-37571381D02*
X164810620Y-37571381D01*
D14*
%TO.C,RX6*%
X187460000Y-19510000D02*
X192540000Y-19510000D01*
X193048000Y-20018000D02*
X192540000Y-19510000D01*
X186952000Y-20018000D02*
X187460000Y-19510000D01*
X186952000Y-20018000D02*
X193048000Y-20018000D01*
X186952000Y-20018000D02*
X186952000Y-22766000D01*
X193048000Y-22766000D02*
X193048000Y-20018000D01*
X193048000Y-22766000D02*
X196042000Y-22766000D01*
X186952000Y-22766000D02*
X193048000Y-22766000D01*
X183958000Y-22766000D02*
X186952000Y-22766000D01*
X183958000Y-22766000D02*
X183958000Y-27884000D01*
X183958000Y-30043000D02*
X183958000Y-34490000D01*
X196042000Y-32583000D02*
X196042000Y-22766000D01*
X196042000Y-34490000D02*
X196042000Y-34488000D01*
X196042000Y-34490000D02*
X183958000Y-34490000D01*
D13*
%TO.C,D5*%
X174387757Y-39355397D02*
X174387757Y-37655397D01*
X174387757Y-39355397D02*
X171127757Y-39355397D01*
X174387757Y-37655397D02*
X171127757Y-37655397D01*
%TO.C,R9*%
X180824621Y-39353251D02*
X179370493Y-39353251D01*
X180824621Y-37533251D02*
X179370493Y-37533251D01*
%TO.C,J1*%
X158650000Y-51250000D02*
X158650000Y-53750000D01*
X158950000Y-51550000D02*
X158950000Y-52300000D01*
X158950000Y-51550000D02*
X158950000Y-57500000D01*
X158950000Y-52300000D02*
X160750000Y-52300000D01*
X158950000Y-53800000D02*
X159700000Y-53800000D01*
X158950000Y-57500000D02*
X174050000Y-57500000D01*
X159700000Y-53800000D02*
X159700000Y-56750000D01*
X159700000Y-56750000D02*
X166500000Y-56750000D01*
X160750000Y-51550000D02*
X158950000Y-51550000D01*
X160750000Y-52300000D02*
X160750000Y-51550000D01*
X161150000Y-51250000D02*
X158650000Y-51250000D01*
X162250000Y-51550000D02*
X162250000Y-52300000D01*
X162250000Y-52300000D02*
X170750000Y-52300000D01*
X170750000Y-51550000D02*
X162250000Y-51550000D01*
X170750000Y-52300000D02*
X170750000Y-51550000D01*
X172250000Y-51550000D02*
X172250000Y-52300000D01*
X172250000Y-52300000D02*
X174050000Y-52300000D01*
X173300000Y-53800000D02*
X173300000Y-56750000D01*
X173300000Y-56750000D02*
X166500000Y-56750000D01*
X174050000Y-51550000D02*
X158950000Y-51550000D01*
X174050000Y-51550000D02*
X172250000Y-51550000D01*
X174050000Y-52300000D02*
X174050000Y-51550000D01*
X174050000Y-53800000D02*
X173300000Y-53800000D01*
X174050000Y-57500000D02*
X174050000Y-51550000D01*
%TO.C,D4*%
X159964422Y-39216051D02*
X159964422Y-37516051D01*
X159964422Y-39216051D02*
X156704422Y-39216051D01*
X159964422Y-37516051D02*
X156704422Y-37516051D01*
%TO.C,D2*%
X129124410Y-39078809D02*
X129124410Y-37378809D01*
X129124410Y-39078809D02*
X125864410Y-39078809D01*
X129124410Y-37378809D02*
X125864410Y-37378809D01*
%TO.C,R6*%
X142272936Y-53090000D02*
X143727064Y-53090000D01*
X142272936Y-54910000D02*
X143727064Y-54910000D01*
D14*
%TO.C,RX3*%
X145460000Y-19510000D02*
X150540000Y-19510000D01*
X151048000Y-20018000D02*
X150540000Y-19510000D01*
X144952000Y-20018000D02*
X145460000Y-19510000D01*
X144952000Y-20018000D02*
X151048000Y-20018000D01*
X144952000Y-20018000D02*
X144952000Y-22766000D01*
X151048000Y-22766000D02*
X151048000Y-20018000D01*
X151048000Y-22766000D02*
X154042000Y-22766000D01*
X144952000Y-22766000D02*
X151048000Y-22766000D01*
X141958000Y-22766000D02*
X144952000Y-22766000D01*
X141958000Y-22766000D02*
X141958000Y-27884000D01*
X141958000Y-30043000D02*
X141958000Y-34490000D01*
X154042000Y-32583000D02*
X154042000Y-22766000D01*
X154042000Y-34490000D02*
X154042000Y-34488000D01*
X154042000Y-34490000D02*
X141958000Y-34490000D01*
D13*
%TO.C,R4*%
X130822936Y-53090000D02*
X132277064Y-53090000D01*
X130822936Y-54910000D02*
X132277064Y-54910000D01*
%TO.C,R11*%
X195220983Y-39061209D02*
X193766855Y-39061209D01*
X195220983Y-37241209D02*
X193766855Y-37241209D01*
D14*
%TO.C,RX2*%
X131460000Y-19510000D02*
X136540000Y-19510000D01*
X137048000Y-20018000D02*
X136540000Y-19510000D01*
X130952000Y-20018000D02*
X131460000Y-19510000D01*
X130952000Y-20018000D02*
X137048000Y-20018000D01*
X130952000Y-20018000D02*
X130952000Y-22766000D01*
X137048000Y-22766000D02*
X137048000Y-20018000D01*
X137048000Y-22766000D02*
X140042000Y-22766000D01*
X130952000Y-22766000D02*
X137048000Y-22766000D01*
X127958000Y-22766000D02*
X130952000Y-22766000D01*
X127958000Y-22766000D02*
X127958000Y-27884000D01*
X127958000Y-30043000D02*
X127958000Y-34490000D01*
X140042000Y-32583000D02*
X140042000Y-22766000D01*
X140042000Y-34490000D02*
X140042000Y-34488000D01*
X140042000Y-34490000D02*
X127958000Y-34490000D01*
D13*
%TO.C,R5*%
X151286450Y-39401197D02*
X149832322Y-39401197D01*
X151286450Y-37581197D02*
X149832322Y-37581197D01*
%TO.C,U5*%
X182870000Y-42765000D02*
X175130000Y-42765000D01*
X175130000Y-42765000D02*
X175130000Y-49235000D01*
X182870000Y-45000000D02*
X182870000Y-42765000D01*
X182870000Y-49235000D02*
X182870000Y-47000000D01*
X175130000Y-49235000D02*
X182870000Y-49235000D01*
X182870000Y-45000000D02*
G75*
G03*
X182870000Y-47000000I0J-1000000D01*
G01*
%TO.C,R10*%
X178272936Y-54090000D02*
X179727064Y-54090000D01*
X178272936Y-55910000D02*
X179727064Y-55910000D01*
%TO.C,R12*%
X190090000Y-48727064D02*
X190090000Y-47272936D01*
X191910000Y-48727064D02*
X191910000Y-47272936D01*
%TO.C,R8*%
X153272936Y-53090000D02*
X154727064Y-53090000D01*
X153272936Y-54910000D02*
X154727064Y-54910000D01*
%TO.C,D6*%
X188927684Y-38922617D02*
X188927684Y-37222617D01*
X188927684Y-38922617D02*
X185667684Y-38922617D01*
X188927684Y-37222617D02*
X185667684Y-37222617D01*
%TD*%
M02*
