%TF.GenerationSoftware,KiCad,Pcbnew,7.0.1-1.fc37*%
%TF.CreationDate,2023-03-21T22:33:27-05:00*%
%TF.ProjectId,midi_rx_board,6d696469-5f72-4785-9f62-6f6172642e6b,rev?*%
%TF.SameCoordinates,Original*%
%TF.FileFunction,Copper,L1,Top*%
%TF.FilePolarity,Positive*%
%FSLAX46Y46*%
G04 Gerber Fmt 4.6, Leading zero omitted, Abs format (unit mm)*
G04 Created by KiCad (PCBNEW 7.0.1-1.fc37) date 2023-03-21 22:33:27*
%MOMM*%
%LPD*%
G01*
G04 APERTURE LIST*
G04 Aperture macros list*
%AMRoundRect*
0 Rectangle with rounded corners*
0 $1 Rounding radius*
0 $2 $3 $4 $5 $6 $7 $8 $9 X,Y pos of 4 corners*
0 Add a 4 corners polygon primitive as box body*
4,1,4,$2,$3,$4,$5,$6,$7,$8,$9,$2,$3,0*
0 Add four circle primitives for the rounded corners*
1,1,$1+$1,$2,$3*
1,1,$1+$1,$4,$5*
1,1,$1+$1,$6,$7*
1,1,$1+$1,$8,$9*
0 Add four rect primitives between the rounded corners*
20,1,$1+$1,$2,$3,$4,$5,0*
20,1,$1+$1,$4,$5,$6,$7,0*
20,1,$1+$1,$6,$7,$8,$9,0*
20,1,$1+$1,$8,$9,$2,$3,0*%
G04 Aperture macros list end*
%TA.AperFunction,SMDPad,CuDef*%
%ADD10R,1.780000X2.000000*%
%TD*%
%TA.AperFunction,SMDPad,CuDef*%
%ADD11RoundRect,0.250000X0.250000X0.250000X-0.250000X0.250000X-0.250000X-0.250000X0.250000X-0.250000X0*%
%TD*%
%TA.AperFunction,ComponentPad*%
%ADD12C,2.540000*%
%TD*%
%TA.AperFunction,ComponentPad*%
%ADD13C,2.250000*%
%TD*%
%TA.AperFunction,SMDPad,CuDef*%
%ADD14RoundRect,0.250000X0.400000X0.625000X-0.400000X0.625000X-0.400000X-0.625000X0.400000X-0.625000X0*%
%TD*%
%TA.AperFunction,ComponentPad*%
%ADD15R,1.750000X1.750000*%
%TD*%
%TA.AperFunction,ComponentPad*%
%ADD16C,1.750000*%
%TD*%
%TA.AperFunction,SMDPad,CuDef*%
%ADD17RoundRect,0.250000X-0.400000X-0.625000X0.400000X-0.625000X0.400000X0.625000X-0.400000X0.625000X0*%
%TD*%
%TA.AperFunction,SMDPad,CuDef*%
%ADD18RoundRect,0.250000X0.625000X-0.400000X0.625000X0.400000X-0.625000X0.400000X-0.625000X-0.400000X0*%
%TD*%
%TA.AperFunction,ViaPad*%
%ADD19C,0.800000*%
%TD*%
%TA.AperFunction,Conductor*%
%ADD20C,0.250000*%
%TD*%
G04 APERTURE END LIST*
D10*
%TO.P,U4,1*%
%TO.N,Net-(D4-K)*%
X156540000Y-41235000D03*
%TO.P,U4,2*%
%TO.N,Net-(D4-A)*%
X154000000Y-41235000D03*
%TO.P,U4,3*%
%TO.N,unconnected-(U4-Pad3)*%
X151460000Y-41235000D03*
%TO.P,U4,4*%
%TO.N,/RX3/RX*%
X151460000Y-50765000D03*
%TO.P,U4,5*%
%TO.N,GND*%
X154000000Y-50765000D03*
%TO.P,U4,6*%
%TO.N,+3V3*%
X156540000Y-50765000D03*
%TD*%
D11*
%TO.P,D3,1,K*%
%TO.N,Net-(D3-K)*%
X144213172Y-38415821D03*
%TO.P,D3,2,A*%
%TO.N,Net-(D3-A)*%
X141713172Y-38415821D03*
%TD*%
D12*
%TO.P,RX4,1,1*%
%TO.N,unconnected-(RX4-Pad1)*%
X162000000Y-25678000D03*
D13*
%TO.P,RX4,2,2*%
%TO.N,Net-(R7-Pad1)*%
X167100000Y-30678000D03*
%TO.P,RX4,3,3*%
X164400000Y-30678000D03*
%TO.P,RX4,4,4*%
%TO.N,Net-(D4-A)*%
X159600000Y-30678000D03*
%TO.P,RX4,5,5*%
X156900000Y-30678000D03*
%TD*%
D10*
%TO.P,U2,1*%
%TO.N,Net-(D2-K)*%
X133775000Y-41235000D03*
%TO.P,U2,2*%
%TO.N,Net-(D2-A)*%
X131235000Y-41235000D03*
%TO.P,U2,3*%
%TO.N,unconnected-(U2-Pad3)*%
X128695000Y-41235000D03*
%TO.P,U2,4*%
%TO.N,/RX1/RX*%
X128695000Y-50765000D03*
%TO.P,U2,5*%
%TO.N,GND*%
X131235000Y-50765000D03*
%TO.P,U2,6*%
%TO.N,+3V3*%
X133775000Y-50765000D03*
%TD*%
%TO.P,U6,1*%
%TO.N,Net-(D6-K)*%
X199540000Y-41235000D03*
%TO.P,U6,2*%
%TO.N,Net-(D6-A)*%
X197000000Y-41235000D03*
%TO.P,U6,3*%
%TO.N,unconnected-(U6-Pad3)*%
X194460000Y-41235000D03*
%TO.P,U6,4*%
%TO.N,/RX5/RX*%
X194460000Y-50765000D03*
%TO.P,U6,5*%
%TO.N,GND*%
X197000000Y-50765000D03*
%TO.P,U6,6*%
%TO.N,+3V3*%
X199540000Y-50765000D03*
%TD*%
D14*
%TO.P,R3,1*%
%TO.N,Net-(R3-Pad1)*%
X136060725Y-38289033D03*
%TO.P,R3,2*%
%TO.N,Net-(D2-K)*%
X132960725Y-38289033D03*
%TD*%
D10*
%TO.P,U3,1*%
%TO.N,Net-(D3-K)*%
X145540000Y-41235000D03*
%TO.P,U3,2*%
%TO.N,Net-(D3-A)*%
X143000000Y-41235000D03*
%TO.P,U3,3*%
%TO.N,unconnected-(U3-Pad3)*%
X140460000Y-41235000D03*
%TO.P,U3,4*%
%TO.N,/RX2/RX*%
X140460000Y-50765000D03*
%TO.P,U3,5*%
%TO.N,GND*%
X143000000Y-50765000D03*
%TO.P,U3,6*%
%TO.N,+3V3*%
X145540000Y-50765000D03*
%TD*%
D15*
%TO.P,J2,1,Pin_1*%
%TO.N,+3V3*%
X187000000Y-54000000D03*
D16*
%TO.P,J2,2,Pin_2*%
%TO.N,GND*%
X189500000Y-54000000D03*
%TD*%
D12*
%TO.P,RX5,1,1*%
%TO.N,unconnected-(RX5-Pad1)*%
X176000000Y-25678000D03*
D13*
%TO.P,RX5,2,2*%
%TO.N,Net-(R9-Pad1)*%
X181100000Y-30678000D03*
%TO.P,RX5,3,3*%
X178400000Y-30678000D03*
%TO.P,RX5,4,4*%
%TO.N,Net-(D5-A)*%
X173600000Y-30678000D03*
%TO.P,RX5,5,5*%
X170900000Y-30678000D03*
%TD*%
D14*
%TO.P,R7,1*%
%TO.N,Net-(R7-Pad1)*%
X167087684Y-38481381D03*
%TO.P,R7,2*%
%TO.N,Net-(D4-K)*%
X163987684Y-38481381D03*
%TD*%
D12*
%TO.P,RX6,1,1*%
%TO.N,unconnected-(RX6-Pad1)*%
X190000000Y-25678000D03*
D13*
%TO.P,RX6,2,2*%
%TO.N,Net-(R11-Pad1)*%
X195100000Y-30678000D03*
%TO.P,RX6,3,3*%
X192400000Y-30678000D03*
%TO.P,RX6,4,4*%
%TO.N,Net-(D6-A)*%
X187600000Y-30678000D03*
%TO.P,RX6,5,5*%
X184900000Y-30678000D03*
%TD*%
D11*
%TO.P,D5,1,K*%
%TO.N,Net-(D5-K)*%
X173627757Y-38505397D03*
%TO.P,D5,2,A*%
%TO.N,Net-(D5-A)*%
X171127757Y-38505397D03*
%TD*%
D14*
%TO.P,R9,1*%
%TO.N,Net-(R9-Pad1)*%
X181647557Y-38443251D03*
%TO.P,R9,2*%
%TO.N,Net-(D5-K)*%
X178547557Y-38443251D03*
%TD*%
D15*
%TO.P,J1,1,Pin_1*%
%TO.N,/RX1/RX*%
X161500000Y-54000000D03*
D16*
%TO.P,J1,2,Pin_2*%
%TO.N,/RX2/RX*%
X164000000Y-54000000D03*
%TO.P,J1,3,Pin_3*%
%TO.N,/RX3/RX*%
X166500000Y-54000000D03*
%TO.P,J1,4,Pin_4*%
%TO.N,/RX4/RX*%
X169000000Y-54000000D03*
%TO.P,J1,5,Pin_5*%
%TO.N,/RX5/RX*%
X171500000Y-54000000D03*
%TD*%
D11*
%TO.P,D4,1,K*%
%TO.N,Net-(D4-K)*%
X159204422Y-38366051D03*
%TO.P,D4,2,A*%
%TO.N,Net-(D4-A)*%
X156704422Y-38366051D03*
%TD*%
%TO.P,D2,1,K*%
%TO.N,Net-(D2-K)*%
X128364410Y-38228809D03*
%TO.P,D2,2,A*%
%TO.N,Net-(D2-A)*%
X125864410Y-38228809D03*
%TD*%
D17*
%TO.P,R6,1*%
%TO.N,/RX2/RX*%
X141450000Y-54000000D03*
%TO.P,R6,2*%
%TO.N,+3V3*%
X144550000Y-54000000D03*
%TD*%
D12*
%TO.P,RX3,1,1*%
%TO.N,unconnected-(RX3-Pad1)*%
X148000000Y-25678000D03*
D13*
%TO.P,RX3,2,2*%
%TO.N,Net-(R5-Pad1)*%
X153100000Y-30678000D03*
%TO.P,RX3,3,3*%
X150400000Y-30678000D03*
%TO.P,RX3,4,4*%
%TO.N,Net-(D3-A)*%
X145600000Y-30678000D03*
%TO.P,RX3,5,5*%
X142900000Y-30678000D03*
%TD*%
D17*
%TO.P,R4,1*%
%TO.N,/RX1/RX*%
X130000000Y-54000000D03*
%TO.P,R4,2*%
%TO.N,+3V3*%
X133100000Y-54000000D03*
%TD*%
D14*
%TO.P,R11,1*%
%TO.N,Net-(R11-Pad1)*%
X196043919Y-38151209D03*
%TO.P,R11,2*%
%TO.N,Net-(D6-K)*%
X192943919Y-38151209D03*
%TD*%
D12*
%TO.P,RX2,1,1*%
%TO.N,unconnected-(RX2-Pad1)*%
X134000000Y-25678000D03*
D13*
%TO.P,RX2,2,2*%
%TO.N,Net-(R3-Pad1)*%
X139100000Y-30678000D03*
%TO.P,RX2,3,3*%
X136400000Y-30678000D03*
%TO.P,RX2,4,4*%
%TO.N,Net-(D2-A)*%
X131600000Y-30678000D03*
%TO.P,RX2,5,5*%
X128900000Y-30678000D03*
%TD*%
D14*
%TO.P,R5,1*%
%TO.N,Net-(R5-Pad1)*%
X152109386Y-38491197D03*
%TO.P,R5,2*%
%TO.N,Net-(D3-K)*%
X149009386Y-38491197D03*
%TD*%
D10*
%TO.P,U5,1*%
%TO.N,Net-(D5-K)*%
X181540000Y-41235000D03*
%TO.P,U5,2*%
%TO.N,Net-(D5-A)*%
X179000000Y-41235000D03*
%TO.P,U5,3*%
%TO.N,unconnected-(U5-Pad3)*%
X176460000Y-41235000D03*
%TO.P,U5,4*%
%TO.N,/RX4/RX*%
X176460000Y-50765000D03*
%TO.P,U5,5*%
%TO.N,GND*%
X179000000Y-50765000D03*
%TO.P,U5,6*%
%TO.N,+3V3*%
X181540000Y-50765000D03*
%TD*%
D17*
%TO.P,R10,1*%
%TO.N,/RX4/RX*%
X177450000Y-55000000D03*
%TO.P,R10,2*%
%TO.N,+3V3*%
X180550000Y-55000000D03*
%TD*%
D18*
%TO.P,R12,1*%
%TO.N,/RX5/RX*%
X191000000Y-49550000D03*
%TO.P,R12,2*%
%TO.N,+3V3*%
X191000000Y-46450000D03*
%TD*%
D17*
%TO.P,R8,1*%
%TO.N,/RX3/RX*%
X152450000Y-54000000D03*
%TO.P,R8,2*%
%TO.N,+3V3*%
X155550000Y-54000000D03*
%TD*%
D11*
%TO.P,D6,1,K*%
%TO.N,Net-(D6-K)*%
X188167684Y-38072617D03*
%TO.P,D6,2,A*%
%TO.N,Net-(D6-A)*%
X185667684Y-38072617D03*
%TD*%
D19*
%TO.N,GND*%
X196000000Y-53000000D03*
X153000000Y-49000000D03*
X131000000Y-49000000D03*
X179000000Y-49000000D03*
X142000000Y-49000000D03*
%TD*%
D20*
%TO.N,Net-(D2-K)*%
X132960725Y-38289033D02*
X133775000Y-39103308D01*
X133775000Y-39103308D02*
X133775000Y-41235000D01*
X128364410Y-38228809D02*
X132900501Y-38228809D01*
X132900501Y-38228809D02*
X132960725Y-38289033D01*
%TO.N,Net-(D2-A)*%
X125864410Y-38228809D02*
X126689410Y-39053809D01*
X131600000Y-30678000D02*
X128900000Y-30678000D01*
X128900000Y-30678000D02*
X128900000Y-35193219D01*
X126689410Y-39053809D02*
X129053809Y-39053809D01*
X129053809Y-39053809D02*
X131235000Y-41235000D01*
X128900000Y-35193219D02*
X125864410Y-38228809D01*
%TO.N,Net-(D3-K)*%
X145540000Y-41235000D02*
X148283803Y-38491197D01*
X148283803Y-38491197D02*
X149009386Y-38491197D01*
X144213172Y-38415821D02*
X145540000Y-39742649D01*
X145540000Y-39742649D02*
X145540000Y-41235000D01*
%TO.N,Net-(D3-A)*%
X145600000Y-30678000D02*
X142900000Y-30678000D01*
X142900000Y-30678000D02*
X142900000Y-37228993D01*
X143000000Y-39702649D02*
X143000000Y-41235000D01*
X142900000Y-37228993D02*
X141713172Y-38415821D01*
X141713172Y-38415821D02*
X143000000Y-39702649D01*
%TO.N,Net-(D4-K)*%
X156540000Y-41030473D02*
X159204422Y-38366051D01*
X159204422Y-38366051D02*
X163872354Y-38366051D01*
X156540000Y-41235000D02*
X156540000Y-41030473D01*
X163872354Y-38366051D02*
X163987684Y-38481381D01*
%TO.N,Net-(D4-A)*%
X154000000Y-41070473D02*
X156704422Y-38366051D01*
X156900000Y-38170473D02*
X156704422Y-38366051D01*
X154000000Y-41235000D02*
X154000000Y-41070473D01*
X159600000Y-30678000D02*
X156900000Y-30678000D01*
X156900000Y-30678000D02*
X156900000Y-38170473D01*
%TO.N,Net-(D5-K)*%
X173627757Y-38505397D02*
X178485411Y-38505397D01*
X181540000Y-40173867D02*
X181540000Y-41235000D01*
X178485411Y-38505397D02*
X178547557Y-38443251D01*
X178547557Y-38443251D02*
X179809384Y-38443251D01*
X179809384Y-38443251D02*
X181540000Y-40173867D01*
%TO.N,Net-(D5-A)*%
X170900000Y-38277640D02*
X171127757Y-38505397D01*
X177675000Y-39910000D02*
X179000000Y-41235000D01*
X172532360Y-39910000D02*
X177675000Y-39910000D01*
X170900000Y-30678000D02*
X170900000Y-38277640D01*
X171127757Y-38505397D02*
X172532360Y-39910000D01*
X173600000Y-30678000D02*
X170900000Y-30678000D01*
%TO.N,Net-(D6-K)*%
X197765000Y-39460000D02*
X199540000Y-41235000D01*
X188167684Y-38072617D02*
X192865327Y-38072617D01*
X192943919Y-38151209D02*
X194252710Y-39460000D01*
X194252710Y-39460000D02*
X197765000Y-39460000D01*
X192865327Y-38072617D02*
X192943919Y-38151209D01*
%TO.N,Net-(D6-A)*%
X187505067Y-39910000D02*
X195675000Y-39910000D01*
X195675000Y-39910000D02*
X197000000Y-41235000D01*
X184900000Y-37304933D02*
X185667684Y-38072617D01*
X184900000Y-30678000D02*
X184900000Y-37304933D01*
X187600000Y-30678000D02*
X184900000Y-30678000D01*
X185667684Y-38072617D02*
X187505067Y-39910000D01*
%TO.N,Net-(R3-Pad1)*%
X136400000Y-30678000D02*
X139100000Y-30678000D01*
X136060725Y-38289033D02*
X136400000Y-37949758D01*
X136400000Y-37949758D02*
X136400000Y-30678000D01*
%TO.N,/RX1/RX*%
X133711827Y-56450000D02*
X159050000Y-56450000D01*
X131261827Y-54000000D02*
X133711827Y-56450000D01*
X159050000Y-56450000D02*
X161500000Y-54000000D01*
X130000000Y-54000000D02*
X131261827Y-54000000D01*
X128695000Y-52695000D02*
X130000000Y-54000000D01*
X128695000Y-50765000D02*
X128695000Y-52695000D01*
%TO.N,+3V3*%
X180275000Y-47275000D02*
X187000000Y-54000000D01*
X133775000Y-49225000D02*
X133775000Y-50765000D01*
X148305000Y-48000000D02*
X145540000Y-50765000D01*
X177000000Y-47685000D02*
X177410000Y-47275000D01*
X153775000Y-48000000D02*
X148305000Y-48000000D01*
X145540000Y-50765000D02*
X142775000Y-48000000D01*
X187000000Y-54000000D02*
X183765000Y-50765000D01*
X191000000Y-46450000D02*
X195225000Y-46450000D01*
X185112500Y-52112500D02*
X183437500Y-52112500D01*
X145540000Y-50765000D02*
X145540000Y-53010000D01*
X183437500Y-52112500D02*
X180550000Y-55000000D01*
X133775000Y-53325000D02*
X133100000Y-54000000D01*
X142775000Y-48000000D02*
X135000000Y-48000000D01*
X156540000Y-50765000D02*
X158305000Y-49000000D01*
X156540000Y-53010000D02*
X155550000Y-54000000D01*
X195225000Y-46450000D02*
X199540000Y-50765000D01*
X187000000Y-50450000D02*
X191000000Y-46450000D01*
X187000000Y-54000000D02*
X185112500Y-52112500D01*
X177000000Y-49000000D02*
X177000000Y-47685000D01*
X183765000Y-50765000D02*
X181540000Y-50765000D01*
X135000000Y-48000000D02*
X133775000Y-49225000D01*
X158305000Y-49000000D02*
X177000000Y-49000000D01*
X145540000Y-53010000D02*
X144550000Y-54000000D01*
X187000000Y-54000000D02*
X187000000Y-50450000D01*
X133775000Y-50765000D02*
X133775000Y-53325000D01*
X156540000Y-50765000D02*
X153775000Y-48000000D01*
X156540000Y-50765000D02*
X156540000Y-53010000D01*
X177410000Y-47275000D02*
X180275000Y-47275000D01*
%TO.N,Net-(R5-Pad1)*%
X153100000Y-37500583D02*
X152109386Y-38491197D01*
X150400000Y-30678000D02*
X153100000Y-30678000D01*
X153100000Y-30678000D02*
X153100000Y-37500583D01*
%TO.N,/RX2/RX*%
X162000000Y-52000000D02*
X164000000Y-54000000D01*
X153013604Y-55200000D02*
X153463604Y-55650000D01*
X142650000Y-55200000D02*
X153013604Y-55200000D01*
X153463604Y-55650000D02*
X156374569Y-55650000D01*
X160024569Y-52000000D02*
X162000000Y-52000000D01*
X156374569Y-55650000D02*
X160024569Y-52000000D01*
X141450000Y-54000000D02*
X142650000Y-55200000D01*
X140460000Y-50765000D02*
X140460000Y-53010000D01*
X140460000Y-53010000D02*
X141450000Y-54000000D01*
%TO.N,Net-(R7-Pad1)*%
X167100000Y-30678000D02*
X164400000Y-30678000D01*
X167100000Y-38469065D02*
X167100000Y-30678000D01*
X167087684Y-38481381D02*
X167100000Y-38469065D01*
%TO.N,/RX3/RX*%
X156990000Y-52090000D02*
X157755000Y-52090000D01*
X151460000Y-50765000D02*
X151460000Y-53010000D01*
X151460000Y-53010000D02*
X152450000Y-54000000D01*
X158395000Y-51450000D02*
X163950000Y-51450000D01*
X157755000Y-52090000D02*
X158395000Y-51450000D01*
X156188173Y-55200000D02*
X156990000Y-54398173D01*
X153650000Y-55200000D02*
X156188173Y-55200000D01*
X163950000Y-51450000D02*
X166500000Y-54000000D01*
X152450000Y-54000000D02*
X153650000Y-55200000D01*
X156990000Y-54398173D02*
X156990000Y-52090000D01*
%TO.N,Net-(R9-Pad1)*%
X181100000Y-30678000D02*
X181100000Y-37895694D01*
X181100000Y-37895694D02*
X181647557Y-38443251D01*
X178400000Y-30678000D02*
X181100000Y-30678000D01*
%TO.N,/RX4/RX*%
X169000000Y-54000000D02*
X172235000Y-50765000D01*
X176460000Y-50765000D02*
X176460000Y-54010000D01*
X176460000Y-54010000D02*
X177450000Y-55000000D01*
X172235000Y-50765000D02*
X176460000Y-50765000D01*
%TO.N,Net-(R11-Pad1)*%
X195100000Y-37207290D02*
X196043919Y-38151209D01*
X192400000Y-30678000D02*
X195100000Y-30678000D01*
X195100000Y-30678000D02*
X195100000Y-37207290D01*
%TO.N,/RX5/RX*%
X192215000Y-50765000D02*
X194460000Y-50765000D01*
X194460000Y-50765000D02*
X189025000Y-56200000D01*
X191000000Y-49550000D02*
X192215000Y-50765000D01*
X189025000Y-56200000D02*
X173700000Y-56200000D01*
X173700000Y-56200000D02*
X171500000Y-54000000D01*
%TO.N,GND*%
X179000000Y-49000000D02*
X179000000Y-50765000D01*
X143000000Y-50000000D02*
X142000000Y-49000000D01*
X131235000Y-49235000D02*
X131000000Y-49000000D01*
X154000000Y-50000000D02*
X153000000Y-49000000D01*
X131235000Y-50765000D02*
X131235000Y-49235000D01*
X197000000Y-52000000D02*
X196000000Y-53000000D01*
X197000000Y-50765000D02*
X197000000Y-52000000D01*
X154000000Y-50765000D02*
X154000000Y-50000000D01*
X143000000Y-50765000D02*
X143000000Y-50000000D01*
%TD*%
M02*
