M48
; DRILL file {KiCad 7.0.1-1.fc37} date Tue 21 Mar 2023 10:35:11 PM CDT
; FORMAT={-:-/ absolute / inch / decimal}
; #@! TF.CreationDate,2023-03-21T22:35:11-05:00
; #@! TF.GenerationSoftware,Kicad,Pcbnew,7.0.1-1.fc37
; #@! TF.FileFunction,MixedPlating,1,2
FMAT,2
INCH
; #@! TA.AperFunction,Plated,PTH,ViaDrill
T1C0.0157
; #@! TA.AperFunction,Plated,PTH,ComponentDrill
T2C0.0394
; #@! TA.AperFunction,Plated,PTH,ComponentDrill
T3C0.0413
; #@! TA.AperFunction,Plated,PTH,ComponentDrill
T4C0.0591
; #@! TA.AperFunction,NonPlated,NPTH,ComponentDrill
T5C0.0591
; #@! TA.AperFunction,NonPlated,NPTH,ComponentDrill
T6C0.0984
%
G90
G05
T1
X5.1575Y-1.9291
X5.5906Y-1.9291
X6.0236Y-1.9291
X7.0472Y-1.9291
X7.7165Y-2.0866
T2
X6.3583Y-2.126
X6.4567Y-2.126
X6.5551Y-2.126
X6.6535Y-2.126
X6.752Y-2.126
T3
X7.3622Y-2.126
X7.4606Y-2.126
T4
X5.0748Y-1.2078
X5.1811Y-1.2078
X5.2756Y-1.0109
X5.3701Y-1.2078
X5.4764Y-1.2078
X5.626Y-1.2078
X5.7323Y-1.2078
X5.8268Y-1.0109
X5.9213Y-1.2078
X6.0276Y-1.2078
X6.1772Y-1.2078
X6.2835Y-1.2078
X6.378Y-1.0109
X6.4724Y-1.2078
X6.5787Y-1.2078
X6.7283Y-1.2078
X6.8346Y-1.2078
X6.9291Y-1.0109
X7.0236Y-1.2078
X7.1299Y-1.2078
X7.2795Y-1.2078
X7.3858Y-1.2078
X7.4803Y-1.0109
X7.5748Y-1.2078
X7.6811Y-1.2078
T5
X5.0787Y-1.0109
X5.2756Y-1.2078
X5.4724Y-1.0109
X5.6299Y-1.0109
X5.8268Y-1.2078
X6.0236Y-1.0109
X6.1811Y-1.0109
X6.378Y-1.2078
X6.5748Y-1.0109
X6.7323Y-1.0109
X6.9291Y-1.2078
X7.126Y-1.0109
X7.2835Y-1.0109
X7.4803Y-1.2078
X7.6772Y-1.0109
T6
X4.9213Y-0.8661
X4.9213Y-2.2047
X7.8346Y-0.8661
X7.8346Y-2.2047
T0
M30
