%TF.GenerationSoftware,KiCad,Pcbnew,7.0.1-1.fc37*%
%TF.CreationDate,2023-03-22T20:46:38-05:00*%
%TF.ProjectId,midi_tx_board,6d696469-5f74-4785-9f62-6f6172642e6b,rev?*%
%TF.SameCoordinates,Original*%
%TF.FileFunction,Soldermask,Top*%
%TF.FilePolarity,Negative*%
%FSLAX46Y46*%
G04 Gerber Fmt 4.6, Leading zero omitted, Abs format (unit mm)*
G04 Created by KiCad (PCBNEW 7.0.1-1.fc37) date 2023-03-22 20:46:38*
%MOMM*%
%LPD*%
G01*
G04 APERTURE LIST*
G04 Aperture macros list*
%AMRoundRect*
0 Rectangle with rounded corners*
0 $1 Rounding radius*
0 $2 $3 $4 $5 $6 $7 $8 $9 X,Y pos of 4 corners*
0 Add a 4 corners polygon primitive as box body*
4,1,4,$2,$3,$4,$5,$6,$7,$8,$9,$2,$3,0*
0 Add four circle primitives for the rounded corners*
1,1,$1+$1,$2,$3*
1,1,$1+$1,$4,$5*
1,1,$1+$1,$6,$7*
1,1,$1+$1,$8,$9*
0 Add four rect primitives between the rounded corners*
20,1,$1+$1,$2,$3,$4,$5,0*
20,1,$1+$1,$4,$5,$6,$7,0*
20,1,$1+$1,$6,$7,$8,$9,0*
20,1,$1+$1,$8,$9,$2,$3,0*%
G04 Aperture macros list end*
%ADD10C,0.150000*%
%ADD11C,2.351600*%
%ADD12C,2.641600*%
%ADD13C,1.500000*%
%ADD14RoundRect,0.250000X0.400000X0.625000X-0.400000X0.625000X-0.400000X-0.625000X0.400000X-0.625000X0*%
%ADD15C,2.500000*%
%ADD16R,1.750000X1.750000*%
%ADD17C,1.750000*%
G04 APERTURE END LIST*
D10*
G36*
X129659213Y-45616934D02*
G01*
X129688010Y-45619196D01*
X129716152Y-45622937D01*
X129743619Y-45628134D01*
X129770391Y-45634764D01*
X129796450Y-45642805D01*
X129821775Y-45652232D01*
X129846347Y-45663024D01*
X129870146Y-45675157D01*
X129893152Y-45688607D01*
X129915347Y-45703353D01*
X129936710Y-45719370D01*
X129957222Y-45736636D01*
X129976863Y-45755127D01*
X129995614Y-45774821D01*
X130013455Y-45795694D01*
X130030366Y-45817723D01*
X130046328Y-45840886D01*
X130061322Y-45865159D01*
X130075327Y-45890519D01*
X130088325Y-45916943D01*
X130100295Y-45944408D01*
X130111218Y-45972891D01*
X130121074Y-46002369D01*
X130129844Y-46032819D01*
X130137509Y-46064217D01*
X130144048Y-46096540D01*
X130149442Y-46129767D01*
X130153671Y-46163872D01*
X130156716Y-46198834D01*
X130158558Y-46234629D01*
X130159176Y-46271235D01*
X130159176Y-47002009D01*
X130158558Y-47038666D01*
X130156716Y-47074523D01*
X130153671Y-47109557D01*
X130149442Y-47143744D01*
X130144048Y-47177059D01*
X130137509Y-47209479D01*
X130129844Y-47240980D01*
X130121074Y-47271539D01*
X130111218Y-47301131D01*
X130100295Y-47329732D01*
X130088325Y-47357318D01*
X130075327Y-47383867D01*
X130061322Y-47409353D01*
X130046328Y-47433753D01*
X130030366Y-47457043D01*
X130013455Y-47479199D01*
X129995614Y-47500197D01*
X129976863Y-47520014D01*
X129957222Y-47538625D01*
X129936710Y-47556006D01*
X129915347Y-47572135D01*
X129893152Y-47586986D01*
X129870146Y-47600536D01*
X129846347Y-47612761D01*
X129821775Y-47623638D01*
X129796450Y-47633141D01*
X129770391Y-47641249D01*
X129743619Y-47647935D01*
X129716152Y-47653178D01*
X129688010Y-47656952D01*
X129659213Y-47659234D01*
X129629780Y-47660000D01*
X129132257Y-47660000D01*
X129132257Y-45994263D01*
X129447330Y-45994263D01*
X129447330Y-47282400D01*
X129629780Y-47282400D01*
X129652956Y-47281070D01*
X129675173Y-47277144D01*
X129696358Y-47270715D01*
X129716436Y-47261876D01*
X129735334Y-47250722D01*
X129752977Y-47237346D01*
X129769291Y-47221842D01*
X129784202Y-47204303D01*
X129797637Y-47184824D01*
X129809520Y-47163499D01*
X129819778Y-47140420D01*
X129828338Y-47115681D01*
X129835124Y-47089377D01*
X129840063Y-47061602D01*
X129843080Y-47032448D01*
X129844103Y-47002009D01*
X129844103Y-46271235D01*
X129843080Y-46240915D01*
X129840063Y-46211929D01*
X129835124Y-46184363D01*
X129828338Y-46158303D01*
X129819778Y-46133834D01*
X129809520Y-46111042D01*
X129797637Y-46090013D01*
X129784202Y-46070833D01*
X129769291Y-46053589D01*
X129752977Y-46038364D01*
X129735334Y-46025247D01*
X129716436Y-46014322D01*
X129696358Y-46005675D01*
X129675173Y-45999392D01*
X129652956Y-45995560D01*
X129629780Y-45994263D01*
X129447330Y-45994263D01*
X129132257Y-45994263D01*
X129132257Y-45616175D01*
X129629780Y-45616175D01*
X129659213Y-45616934D01*
G37*
G36*
X130426622Y-47660000D02*
G01*
X131350593Y-47660000D01*
X131350593Y-47282400D01*
X131046144Y-47282400D01*
X131046144Y-45994263D01*
X131350593Y-45994263D01*
X131350593Y-45616175D01*
X130426622Y-45616175D01*
X130426622Y-45994263D01*
X130731071Y-45994263D01*
X130731071Y-47282400D01*
X130426622Y-47282400D01*
X130426622Y-47660000D01*
G37*
G36*
X131643318Y-47660000D02*
G01*
X131920655Y-47660000D01*
X131920655Y-46764117D01*
X131920463Y-46726587D01*
X131920229Y-46706878D01*
X131919907Y-46686602D01*
X131919502Y-46665806D01*
X131919018Y-46644537D01*
X131918459Y-46622840D01*
X131917828Y-46600764D01*
X131917129Y-46578354D01*
X131916367Y-46555658D01*
X131915544Y-46532721D01*
X131914666Y-46509591D01*
X131913736Y-46486314D01*
X131912758Y-46462937D01*
X131911735Y-46439507D01*
X131910672Y-46416071D01*
X131909573Y-46392674D01*
X131908440Y-46369364D01*
X131907280Y-46346188D01*
X131906094Y-46323192D01*
X131904887Y-46300422D01*
X131903664Y-46277926D01*
X131902427Y-46255751D01*
X131901181Y-46233942D01*
X131899930Y-46212547D01*
X131898677Y-46191612D01*
X131897426Y-46171184D01*
X131896182Y-46151310D01*
X131893728Y-46113409D01*
X131891346Y-46078283D01*
X132284089Y-47660000D01*
X132651552Y-47660000D01*
X132651552Y-45616175D01*
X132374214Y-45616175D01*
X132374214Y-46456371D01*
X132374432Y-46494253D01*
X132374697Y-46514391D01*
X132375062Y-46535257D01*
X132375520Y-46556797D01*
X132376069Y-46578958D01*
X132376704Y-46601686D01*
X132377420Y-46624929D01*
X132378214Y-46648632D01*
X132379080Y-46672743D01*
X132380015Y-46697208D01*
X132381015Y-46721973D01*
X132382075Y-46746987D01*
X132383190Y-46772194D01*
X132384357Y-46797543D01*
X132385572Y-46822979D01*
X132386829Y-46848450D01*
X132388125Y-46873902D01*
X132389455Y-46899281D01*
X132390815Y-46924535D01*
X132392201Y-46949610D01*
X132393609Y-46974452D01*
X132395034Y-46999009D01*
X132396471Y-47023228D01*
X132397917Y-47047054D01*
X132399368Y-47070435D01*
X132400818Y-47093317D01*
X132402264Y-47115647D01*
X132403702Y-47137372D01*
X132405126Y-47158438D01*
X132406534Y-47178792D01*
X132407920Y-47198381D01*
X132011147Y-45616175D01*
X131643318Y-45616175D01*
X131643318Y-47660000D01*
G37*
G36*
X133434882Y-46092679D02*
G01*
X133462820Y-46094821D01*
X133490063Y-46098363D01*
X133516596Y-46103281D01*
X133542404Y-46109555D01*
X133567471Y-46117160D01*
X133591783Y-46126074D01*
X133615325Y-46136275D01*
X133638082Y-46147740D01*
X133660038Y-46160445D01*
X133681180Y-46174369D01*
X133701491Y-46189488D01*
X133720958Y-46205780D01*
X133739565Y-46223222D01*
X133757296Y-46241791D01*
X133774138Y-46261465D01*
X133790075Y-46282221D01*
X133805092Y-46304036D01*
X133819175Y-46326888D01*
X133832308Y-46350753D01*
X133844476Y-46375609D01*
X133855664Y-46401434D01*
X133865858Y-46428204D01*
X133875043Y-46455898D01*
X133883203Y-46484491D01*
X133890323Y-46513962D01*
X133896389Y-46544287D01*
X133901386Y-46575445D01*
X133905298Y-46607412D01*
X133908111Y-46640165D01*
X133909810Y-46673682D01*
X133910380Y-46707941D01*
X133910380Y-47072351D01*
X133909810Y-47106610D01*
X133908111Y-47140127D01*
X133905298Y-47172880D01*
X133901386Y-47204847D01*
X133896389Y-47236005D01*
X133890323Y-47266330D01*
X133883203Y-47295801D01*
X133875043Y-47324395D01*
X133865858Y-47352088D01*
X133855664Y-47378858D01*
X133844476Y-47404683D01*
X133832308Y-47429539D01*
X133819175Y-47453405D01*
X133805092Y-47476256D01*
X133790075Y-47498071D01*
X133774138Y-47518827D01*
X133757296Y-47538501D01*
X133739565Y-47557070D01*
X133720958Y-47574512D01*
X133701491Y-47590804D01*
X133681180Y-47605923D01*
X133660038Y-47619847D01*
X133638082Y-47632552D01*
X133615325Y-47644017D01*
X133591783Y-47654218D01*
X133567471Y-47663132D01*
X133542404Y-47670737D01*
X133516596Y-47677011D01*
X133490063Y-47681930D01*
X133462820Y-47685471D01*
X133434882Y-47687613D01*
X133406263Y-47688332D01*
X133377676Y-47687613D01*
X133349765Y-47685471D01*
X133322546Y-47681930D01*
X133296034Y-47677011D01*
X133270244Y-47670737D01*
X133245190Y-47663132D01*
X133220889Y-47654218D01*
X133197355Y-47644017D01*
X133174603Y-47632552D01*
X133152649Y-47619847D01*
X133131508Y-47605923D01*
X133111195Y-47590804D01*
X133091725Y-47574512D01*
X133073113Y-47557070D01*
X133055374Y-47538501D01*
X133038524Y-47518827D01*
X133022578Y-47498071D01*
X133007551Y-47476256D01*
X132993458Y-47453405D01*
X132980314Y-47429539D01*
X132968134Y-47404683D01*
X132956935Y-47378858D01*
X132946729Y-47352088D01*
X132937534Y-47324395D01*
X132929363Y-47295801D01*
X132922233Y-47266330D01*
X132916158Y-47236005D01*
X132911154Y-47204847D01*
X132907236Y-47172880D01*
X132904418Y-47140127D01*
X132902716Y-47106610D01*
X132902145Y-47072351D01*
X133217219Y-47072351D01*
X133218005Y-47101908D01*
X133220353Y-47129744D01*
X133224241Y-47155835D01*
X133229652Y-47180154D01*
X133236565Y-47202675D01*
X133244962Y-47223373D01*
X133254823Y-47242223D01*
X133266128Y-47259197D01*
X133278859Y-47274271D01*
X133292996Y-47287418D01*
X133308520Y-47298614D01*
X133325411Y-47307832D01*
X133343650Y-47315046D01*
X133363218Y-47320231D01*
X133384095Y-47323361D01*
X133406263Y-47324410D01*
X133428491Y-47323361D01*
X133449413Y-47320231D01*
X133469011Y-47315046D01*
X133487269Y-47307832D01*
X133504168Y-47298614D01*
X133519690Y-47287418D01*
X133533818Y-47274271D01*
X133546534Y-47259197D01*
X133557821Y-47242223D01*
X133567660Y-47223373D01*
X133576034Y-47202675D01*
X133582925Y-47180154D01*
X133588315Y-47155835D01*
X133592187Y-47129744D01*
X133594524Y-47101908D01*
X133595307Y-47072351D01*
X133595307Y-46707941D01*
X133594524Y-46678390D01*
X133592187Y-46650569D01*
X133588315Y-46624502D01*
X133582925Y-46600215D01*
X133576034Y-46577730D01*
X133567660Y-46557073D01*
X133557821Y-46538268D01*
X133546534Y-46521339D01*
X133533818Y-46506311D01*
X133519690Y-46493208D01*
X133504168Y-46482053D01*
X133487269Y-46472872D01*
X133469011Y-46465689D01*
X133449413Y-46460529D01*
X133428491Y-46457414D01*
X133406263Y-46456371D01*
X133384095Y-46457414D01*
X133363218Y-46460529D01*
X133343650Y-46465689D01*
X133325411Y-46472872D01*
X133308520Y-46482053D01*
X133292996Y-46493208D01*
X133278859Y-46506311D01*
X133266128Y-46521339D01*
X133254823Y-46538268D01*
X133244962Y-46557073D01*
X133236565Y-46577730D01*
X133229652Y-46600215D01*
X133224241Y-46624502D01*
X133220353Y-46650569D01*
X133218005Y-46678390D01*
X133217219Y-46707941D01*
X133217219Y-47072351D01*
X132902145Y-47072351D01*
X132902145Y-46707941D01*
X132902716Y-46673682D01*
X132904418Y-46640165D01*
X132907236Y-46607412D01*
X132911154Y-46575445D01*
X132916158Y-46544287D01*
X132922233Y-46513962D01*
X132929363Y-46484491D01*
X132937534Y-46455898D01*
X132946729Y-46428204D01*
X132956935Y-46401434D01*
X132968134Y-46375609D01*
X132980314Y-46350753D01*
X132993458Y-46326888D01*
X133007551Y-46304036D01*
X133022578Y-46282221D01*
X133038524Y-46261465D01*
X133055374Y-46241791D01*
X133073113Y-46223222D01*
X133091725Y-46205780D01*
X133111195Y-46189488D01*
X133131508Y-46174369D01*
X133152649Y-46160445D01*
X133174603Y-46147740D01*
X133197355Y-46136275D01*
X133220889Y-46126074D01*
X133245190Y-46117160D01*
X133270244Y-46109555D01*
X133296034Y-46103281D01*
X133322546Y-46098363D01*
X133349765Y-46094821D01*
X133377676Y-46092679D01*
X133406263Y-46091960D01*
X133434882Y-46092679D01*
G37*
G36*
X134684141Y-47688332D02*
G01*
X134712361Y-47687694D01*
X134739927Y-47685793D01*
X134766826Y-47682641D01*
X134793044Y-47678255D01*
X134818567Y-47672648D01*
X134843381Y-47665837D01*
X134867473Y-47657835D01*
X134890828Y-47648657D01*
X134913433Y-47638319D01*
X134935273Y-47626836D01*
X134956336Y-47614221D01*
X134976607Y-47600490D01*
X134996073Y-47585658D01*
X135014719Y-47569740D01*
X135032532Y-47552750D01*
X135049498Y-47534703D01*
X135065603Y-47515614D01*
X135080834Y-47495499D01*
X135095176Y-47474371D01*
X135108616Y-47452246D01*
X135121139Y-47429139D01*
X135132733Y-47405064D01*
X135143383Y-47380036D01*
X135153076Y-47354070D01*
X135161797Y-47327181D01*
X135169533Y-47299384D01*
X135176270Y-47270694D01*
X135181994Y-47241125D01*
X135186692Y-47210692D01*
X135190349Y-47179411D01*
X135192952Y-47147296D01*
X135194487Y-47114361D01*
X134887840Y-47114361D01*
X134885431Y-47138857D01*
X134881401Y-47161955D01*
X134875802Y-47183629D01*
X134868686Y-47203853D01*
X134860106Y-47222604D01*
X134850114Y-47239855D01*
X134838764Y-47255582D01*
X134826107Y-47269760D01*
X134812197Y-47282364D01*
X134797086Y-47293369D01*
X134780826Y-47302749D01*
X134763470Y-47310480D01*
X134745072Y-47316537D01*
X134725682Y-47320894D01*
X134705354Y-47323527D01*
X134684141Y-47324410D01*
X134661179Y-47323361D01*
X134639566Y-47320231D01*
X134619321Y-47315046D01*
X134600461Y-47307832D01*
X134583005Y-47298614D01*
X134566972Y-47287418D01*
X134552379Y-47274271D01*
X134539244Y-47259197D01*
X134527586Y-47242223D01*
X134517424Y-47223373D01*
X134508775Y-47202675D01*
X134501657Y-47180154D01*
X134496090Y-47155835D01*
X134492090Y-47129744D01*
X134489677Y-47101908D01*
X134488869Y-47072351D01*
X134488869Y-46707941D01*
X134489677Y-46678390D01*
X134492090Y-46650569D01*
X134496090Y-46624502D01*
X134501657Y-46600215D01*
X134508775Y-46577730D01*
X134517424Y-46557073D01*
X134527586Y-46538268D01*
X134539244Y-46521339D01*
X134552379Y-46506311D01*
X134566972Y-46493208D01*
X134583005Y-46482053D01*
X134600461Y-46472872D01*
X134619321Y-46465689D01*
X134639566Y-46460529D01*
X134661179Y-46457414D01*
X134684141Y-46456371D01*
X134704992Y-46457281D01*
X134725051Y-46459986D01*
X134744255Y-46464450D01*
X134762543Y-46470636D01*
X134779852Y-46478508D01*
X134796120Y-46488030D01*
X134811284Y-46499164D01*
X134825283Y-46511875D01*
X134838054Y-46526126D01*
X134849535Y-46541880D01*
X134859663Y-46559101D01*
X134868377Y-46577752D01*
X134875613Y-46597797D01*
X134881311Y-46619200D01*
X134885407Y-46641923D01*
X134887840Y-46665931D01*
X135194487Y-46665931D01*
X135192952Y-46632997D01*
X135190349Y-46600881D01*
X135186692Y-46569600D01*
X135181994Y-46539167D01*
X135176270Y-46509598D01*
X135169533Y-46480908D01*
X135161797Y-46453111D01*
X135153076Y-46426222D01*
X135143383Y-46400256D01*
X135132733Y-46375228D01*
X135121139Y-46351153D01*
X135108616Y-46328046D01*
X135095176Y-46305921D01*
X135080834Y-46284793D01*
X135065603Y-46264678D01*
X135049498Y-46245589D01*
X135032532Y-46227542D01*
X135014719Y-46210552D01*
X134996073Y-46194634D01*
X134976607Y-46179802D01*
X134956336Y-46166071D01*
X134935273Y-46153456D01*
X134913433Y-46141973D01*
X134890828Y-46131635D01*
X134867473Y-46122457D01*
X134843381Y-46114455D01*
X134818567Y-46107644D01*
X134793044Y-46102037D01*
X134766826Y-46097651D01*
X134739927Y-46094499D01*
X134712361Y-46092598D01*
X134684141Y-46091960D01*
X134655504Y-46092671D01*
X134627514Y-46094789D01*
X134600186Y-46098293D01*
X134573540Y-46103161D01*
X134547591Y-46109374D01*
X134522358Y-46116909D01*
X134497857Y-46125746D01*
X134474106Y-46135863D01*
X134451121Y-46147240D01*
X134428921Y-46159855D01*
X134407522Y-46173687D01*
X134386942Y-46188715D01*
X134367197Y-46204918D01*
X134348306Y-46222275D01*
X134330285Y-46240765D01*
X134313152Y-46260366D01*
X134296923Y-46281058D01*
X134281616Y-46302819D01*
X134267249Y-46325628D01*
X134253838Y-46349465D01*
X134241402Y-46374308D01*
X134229956Y-46400135D01*
X134219518Y-46426927D01*
X134210106Y-46454661D01*
X134201736Y-46483317D01*
X134194427Y-46512873D01*
X134188195Y-46543309D01*
X134183057Y-46574603D01*
X134179031Y-46606735D01*
X134176134Y-46639682D01*
X134174383Y-46673425D01*
X134173796Y-46707941D01*
X134173796Y-47072351D01*
X134174383Y-47106868D01*
X134176134Y-47140610D01*
X134179031Y-47173557D01*
X134183057Y-47205689D01*
X134188195Y-47236983D01*
X134194427Y-47267419D01*
X134201736Y-47296975D01*
X134210106Y-47325631D01*
X134219518Y-47353365D01*
X134229956Y-47380157D01*
X134241402Y-47405984D01*
X134253838Y-47430827D01*
X134267249Y-47454664D01*
X134281616Y-47477473D01*
X134296923Y-47499234D01*
X134313152Y-47519926D01*
X134330285Y-47539527D01*
X134348306Y-47558017D01*
X134367197Y-47575374D01*
X134386942Y-47591577D01*
X134407522Y-47606605D01*
X134428921Y-47620437D01*
X134451121Y-47633052D01*
X134474106Y-47644429D01*
X134497857Y-47654546D01*
X134522358Y-47663383D01*
X134547591Y-47670918D01*
X134573540Y-47677131D01*
X134600186Y-47682000D01*
X134627514Y-47685503D01*
X134655504Y-47687621D01*
X134684141Y-47688332D01*
G37*
G36*
X136039689Y-47660000D02*
G01*
X136417411Y-47660000D01*
X136417411Y-47282400D01*
X136070830Y-47282400D01*
X136054455Y-47280872D01*
X136039557Y-47276411D01*
X136022043Y-47266217D01*
X136007277Y-47251569D01*
X135995327Y-47232902D01*
X135986263Y-47210652D01*
X135981399Y-47191875D01*
X135978226Y-47171510D01*
X135976772Y-47149741D01*
X135976674Y-47142205D01*
X135976674Y-46498381D01*
X136428035Y-46498381D01*
X136428035Y-46120293D01*
X135976674Y-46120293D01*
X135976674Y-45686029D01*
X135661601Y-45686029D01*
X135661601Y-46120293D01*
X135350558Y-46120293D01*
X135350558Y-46498381D01*
X135661601Y-46498381D01*
X135661601Y-47156371D01*
X135662017Y-47185407D01*
X135663259Y-47213708D01*
X135665318Y-47241260D01*
X135668185Y-47268051D01*
X135671851Y-47294069D01*
X135676306Y-47319303D01*
X135681542Y-47343739D01*
X135687550Y-47367366D01*
X135694320Y-47390172D01*
X135701844Y-47412144D01*
X135710113Y-47433270D01*
X135719117Y-47453538D01*
X135728847Y-47472936D01*
X135739295Y-47491452D01*
X135750450Y-47509073D01*
X135762305Y-47525788D01*
X135774851Y-47541584D01*
X135788077Y-47556449D01*
X135801975Y-47570371D01*
X135816537Y-47583338D01*
X135831752Y-47595337D01*
X135847612Y-47606357D01*
X135864108Y-47616385D01*
X135881231Y-47625409D01*
X135898971Y-47633417D01*
X135917320Y-47640396D01*
X135936269Y-47646335D01*
X135955808Y-47651222D01*
X135975929Y-47655044D01*
X135996622Y-47657789D01*
X136017878Y-47659445D01*
X136039689Y-47660000D01*
G37*
G36*
X137211364Y-46092679D02*
G01*
X137239303Y-46094821D01*
X137266546Y-46098363D01*
X137293079Y-46103281D01*
X137318887Y-46109555D01*
X137343954Y-46117160D01*
X137368266Y-46126074D01*
X137391808Y-46136275D01*
X137414565Y-46147740D01*
X137436521Y-46160445D01*
X137457663Y-46174369D01*
X137477974Y-46189488D01*
X137497441Y-46205780D01*
X137516047Y-46223222D01*
X137533779Y-46241791D01*
X137550621Y-46261465D01*
X137566558Y-46282221D01*
X137581575Y-46304036D01*
X137595658Y-46326888D01*
X137608791Y-46350753D01*
X137620959Y-46375609D01*
X137632147Y-46401434D01*
X137642341Y-46428204D01*
X137651526Y-46455898D01*
X137659686Y-46484491D01*
X137666806Y-46513962D01*
X137672872Y-46544287D01*
X137677869Y-46575445D01*
X137681781Y-46607412D01*
X137684594Y-46640165D01*
X137686293Y-46673682D01*
X137686863Y-46707941D01*
X137686863Y-47072351D01*
X137686293Y-47106610D01*
X137684594Y-47140127D01*
X137681781Y-47172880D01*
X137677869Y-47204847D01*
X137672872Y-47236005D01*
X137666806Y-47266330D01*
X137659686Y-47295801D01*
X137651526Y-47324395D01*
X137642341Y-47352088D01*
X137632147Y-47378858D01*
X137620959Y-47404683D01*
X137608791Y-47429539D01*
X137595658Y-47453405D01*
X137581575Y-47476256D01*
X137566558Y-47498071D01*
X137550621Y-47518827D01*
X137533779Y-47538501D01*
X137516047Y-47557070D01*
X137497441Y-47574512D01*
X137477974Y-47590804D01*
X137457663Y-47605923D01*
X137436521Y-47619847D01*
X137414565Y-47632552D01*
X137391808Y-47644017D01*
X137368266Y-47654218D01*
X137343954Y-47663132D01*
X137318887Y-47670737D01*
X137293079Y-47677011D01*
X137266546Y-47681930D01*
X137239303Y-47685471D01*
X137211364Y-47687613D01*
X137182745Y-47688332D01*
X137154159Y-47687613D01*
X137126248Y-47685471D01*
X137099029Y-47681930D01*
X137072517Y-47677011D01*
X137046727Y-47670737D01*
X137021673Y-47663132D01*
X136997372Y-47654218D01*
X136973838Y-47644017D01*
X136951086Y-47632552D01*
X136929132Y-47619847D01*
X136907991Y-47605923D01*
X136887678Y-47590804D01*
X136868208Y-47574512D01*
X136849596Y-47557070D01*
X136831857Y-47538501D01*
X136815007Y-47518827D01*
X136799061Y-47498071D01*
X136784034Y-47476256D01*
X136769941Y-47453405D01*
X136756797Y-47429539D01*
X136744617Y-47404683D01*
X136733417Y-47378858D01*
X136723212Y-47352088D01*
X136714017Y-47324395D01*
X136705846Y-47295801D01*
X136698716Y-47266330D01*
X136692641Y-47236005D01*
X136687637Y-47204847D01*
X136683718Y-47172880D01*
X136680901Y-47140127D01*
X136679199Y-47106610D01*
X136678628Y-47072351D01*
X136993702Y-47072351D01*
X136994488Y-47101908D01*
X136996836Y-47129744D01*
X137000724Y-47155835D01*
X137006135Y-47180154D01*
X137013048Y-47202675D01*
X137021445Y-47223373D01*
X137031306Y-47242223D01*
X137042611Y-47259197D01*
X137055342Y-47274271D01*
X137069479Y-47287418D01*
X137085002Y-47298614D01*
X137101893Y-47307832D01*
X137120133Y-47315046D01*
X137139701Y-47320231D01*
X137160578Y-47323361D01*
X137182745Y-47324410D01*
X137204973Y-47323361D01*
X137225896Y-47320231D01*
X137245494Y-47315046D01*
X137263752Y-47307832D01*
X137280651Y-47298614D01*
X137296173Y-47287418D01*
X137310301Y-47274271D01*
X137323017Y-47259197D01*
X137334304Y-47242223D01*
X137344143Y-47223373D01*
X137352516Y-47202675D01*
X137359407Y-47180154D01*
X137364798Y-47155835D01*
X137368670Y-47129744D01*
X137371007Y-47101908D01*
X137371789Y-47072351D01*
X137371789Y-46707941D01*
X137371007Y-46678390D01*
X137368670Y-46650569D01*
X137364798Y-46624502D01*
X137359407Y-46600215D01*
X137352516Y-46577730D01*
X137344143Y-46557073D01*
X137334304Y-46538268D01*
X137323017Y-46521339D01*
X137310301Y-46506311D01*
X137296173Y-46493208D01*
X137280651Y-46482053D01*
X137263752Y-46472872D01*
X137245494Y-46465689D01*
X137225896Y-46460529D01*
X137204973Y-46457414D01*
X137182745Y-46456371D01*
X137160578Y-46457414D01*
X137139701Y-46460529D01*
X137120133Y-46465689D01*
X137101893Y-46472872D01*
X137085002Y-46482053D01*
X137069479Y-46493208D01*
X137055342Y-46506311D01*
X137042611Y-46521339D01*
X137031306Y-46538268D01*
X137021445Y-46557073D01*
X137013048Y-46577730D01*
X137006135Y-46600215D01*
X137000724Y-46624502D01*
X136996836Y-46650569D01*
X136994488Y-46678390D01*
X136993702Y-46707941D01*
X136993702Y-47072351D01*
X136678628Y-47072351D01*
X136678628Y-46707941D01*
X136679199Y-46673682D01*
X136680901Y-46640165D01*
X136683718Y-46607412D01*
X136687637Y-46575445D01*
X136692641Y-46544287D01*
X136698716Y-46513962D01*
X136705846Y-46484491D01*
X136714017Y-46455898D01*
X136723212Y-46428204D01*
X136733417Y-46401434D01*
X136744617Y-46375609D01*
X136756797Y-46350753D01*
X136769941Y-46326888D01*
X136784034Y-46304036D01*
X136799061Y-46282221D01*
X136815007Y-46261465D01*
X136831857Y-46241791D01*
X136849596Y-46223222D01*
X136868208Y-46205780D01*
X136887678Y-46189488D01*
X136907991Y-46174369D01*
X136929132Y-46160445D01*
X136951086Y-46147740D01*
X136973838Y-46136275D01*
X136997372Y-46126074D01*
X137021673Y-46117160D01*
X137046727Y-46109555D01*
X137072517Y-46103281D01*
X137099029Y-46098363D01*
X137126248Y-46094821D01*
X137154159Y-46092679D01*
X137182745Y-46091960D01*
X137211364Y-46092679D01*
G37*
G36*
X138592637Y-46092679D02*
G01*
X138612843Y-46094818D01*
X138632604Y-46098351D01*
X138651904Y-46103255D01*
X138670729Y-46109503D01*
X138689064Y-46117070D01*
X138706895Y-46125931D01*
X138724206Y-46136062D01*
X138740983Y-46147435D01*
X138757212Y-46160028D01*
X138772877Y-46173813D01*
X138787964Y-46188766D01*
X138802458Y-46204863D01*
X138816345Y-46222076D01*
X138829610Y-46240382D01*
X138842238Y-46259755D01*
X138854215Y-46280170D01*
X138865525Y-46301602D01*
X138876154Y-46324025D01*
X138886088Y-46347414D01*
X138895312Y-46371744D01*
X138903810Y-46396989D01*
X138911569Y-46423126D01*
X138918574Y-46450127D01*
X138924809Y-46477969D01*
X138930261Y-46506625D01*
X138934914Y-46536071D01*
X138938754Y-46566282D01*
X138941767Y-46597232D01*
X138943937Y-46628895D01*
X138945250Y-46661247D01*
X138945690Y-46694263D01*
X138945690Y-47086029D01*
X138945250Y-47119045D01*
X138943937Y-47151397D01*
X138941767Y-47183061D01*
X138938754Y-47214010D01*
X138934914Y-47244221D01*
X138930261Y-47273667D01*
X138924809Y-47302323D01*
X138918574Y-47330165D01*
X138911569Y-47357166D01*
X138903810Y-47383303D01*
X138895312Y-47408548D01*
X138886088Y-47432878D01*
X138876154Y-47456268D01*
X138865525Y-47478690D01*
X138854215Y-47500122D01*
X138842238Y-47520537D01*
X138829610Y-47539910D01*
X138816345Y-47558216D01*
X138802458Y-47575429D01*
X138787964Y-47591526D01*
X138772877Y-47606479D01*
X138757212Y-47620264D01*
X138740983Y-47632857D01*
X138724206Y-47644231D01*
X138706895Y-47654361D01*
X138689064Y-47663222D01*
X138670729Y-47670789D01*
X138651904Y-47677037D01*
X138632604Y-47681941D01*
X138612843Y-47685474D01*
X138592637Y-47687613D01*
X138571999Y-47688332D01*
X138543715Y-47687029D01*
X138516446Y-47683153D01*
X138490221Y-47676753D01*
X138465066Y-47667876D01*
X138441011Y-47656573D01*
X138418083Y-47642891D01*
X138396310Y-47626879D01*
X138375719Y-47608586D01*
X138356339Y-47588061D01*
X138338198Y-47565352D01*
X138321324Y-47540507D01*
X138305744Y-47513576D01*
X138291486Y-47484607D01*
X138278578Y-47453649D01*
X138267049Y-47420750D01*
X138256926Y-47385959D01*
X138265352Y-47744019D01*
X138265352Y-48164117D01*
X137950279Y-48164117D01*
X137950279Y-47058185D01*
X138265352Y-47058185D01*
X138266109Y-47089350D01*
X138268372Y-47118712D01*
X138272126Y-47146241D01*
X138277356Y-47171911D01*
X138284048Y-47195691D01*
X138292187Y-47217554D01*
X138301760Y-47237470D01*
X138312750Y-47255411D01*
X138325145Y-47271349D01*
X138338929Y-47285255D01*
X138354088Y-47297099D01*
X138370607Y-47306855D01*
X138388473Y-47314492D01*
X138407669Y-47319983D01*
X138428183Y-47323298D01*
X138450000Y-47324410D01*
X138471046Y-47323361D01*
X138490894Y-47320231D01*
X138509522Y-47315046D01*
X138526907Y-47307832D01*
X138543028Y-47298614D01*
X138557863Y-47287418D01*
X138571389Y-47274271D01*
X138583585Y-47259197D01*
X138594429Y-47242223D01*
X138603898Y-47223373D01*
X138611970Y-47202675D01*
X138618624Y-47180154D01*
X138623838Y-47155835D01*
X138627590Y-47129744D01*
X138629857Y-47101908D01*
X138630617Y-47072351D01*
X138630617Y-46707941D01*
X138629857Y-46678390D01*
X138627590Y-46650569D01*
X138623838Y-46624502D01*
X138618624Y-46600215D01*
X138611970Y-46577730D01*
X138603898Y-46557073D01*
X138594429Y-46538268D01*
X138583585Y-46521339D01*
X138571389Y-46506311D01*
X138557863Y-46493208D01*
X138543028Y-46482053D01*
X138526907Y-46472872D01*
X138509522Y-46465689D01*
X138490894Y-46460529D01*
X138471046Y-46457414D01*
X138450000Y-46456371D01*
X138428183Y-46457477D01*
X138407669Y-46460777D01*
X138388473Y-46466243D01*
X138370607Y-46473849D01*
X138354088Y-46483568D01*
X138338929Y-46495371D01*
X138325145Y-46509233D01*
X138312750Y-46525125D01*
X138301760Y-46543021D01*
X138292187Y-46562893D01*
X138284048Y-46584714D01*
X138277356Y-46608458D01*
X138272126Y-46634096D01*
X138268372Y-46661602D01*
X138266109Y-46690948D01*
X138265352Y-46722107D01*
X138265352Y-47058185D01*
X137950279Y-47058185D01*
X137950279Y-46120293D01*
X138254727Y-46120293D01*
X138254727Y-46400195D01*
X138264936Y-46364453D01*
X138276580Y-46330711D01*
X138289626Y-46299011D01*
X138304043Y-46269395D01*
X138319798Y-46241906D01*
X138336857Y-46216586D01*
X138355187Y-46193477D01*
X138374757Y-46172622D01*
X138395534Y-46154061D01*
X138417484Y-46137839D01*
X138440575Y-46123996D01*
X138464774Y-46112576D01*
X138490049Y-46103620D01*
X138516367Y-46097171D01*
X138543694Y-46093270D01*
X138571999Y-46091960D01*
X138592637Y-46092679D01*
G37*
G36*
X139700401Y-47688332D02*
G01*
X139728802Y-47687644D01*
X139756501Y-47685592D01*
X139783485Y-47682189D01*
X139809741Y-47677450D01*
X139835255Y-47671389D01*
X139860015Y-47664021D01*
X139884008Y-47655360D01*
X139907219Y-47645421D01*
X139929637Y-47634219D01*
X139951248Y-47621767D01*
X139972039Y-47608081D01*
X139991997Y-47593174D01*
X140011110Y-47577062D01*
X140029363Y-47559759D01*
X140046743Y-47541278D01*
X140063239Y-47521636D01*
X140078836Y-47500846D01*
X140093522Y-47478922D01*
X140107283Y-47455880D01*
X140120106Y-47431734D01*
X140131979Y-47406497D01*
X140142888Y-47380186D01*
X140152820Y-47352813D01*
X140161762Y-47324395D01*
X140169701Y-47294944D01*
X140176624Y-47264476D01*
X140182518Y-47233005D01*
X140187370Y-47200546D01*
X140191166Y-47167113D01*
X140193894Y-47132721D01*
X140195540Y-47097384D01*
X140196092Y-47061116D01*
X140196092Y-46120293D01*
X139881018Y-46120293D01*
X139881018Y-47058185D01*
X139880262Y-47089752D01*
X139878006Y-47119413D01*
X139874271Y-47147148D01*
X139869077Y-47172941D01*
X139862445Y-47196773D01*
X139854395Y-47218627D01*
X139844948Y-47238484D01*
X139834124Y-47256327D01*
X139821943Y-47272138D01*
X139808425Y-47285899D01*
X139793592Y-47297591D01*
X139777463Y-47307198D01*
X139760059Y-47314702D01*
X139741401Y-47320083D01*
X139721508Y-47323325D01*
X139700401Y-47324410D01*
X139678992Y-47323325D01*
X139658875Y-47320083D01*
X139640062Y-47314702D01*
X139622566Y-47307198D01*
X139606398Y-47297591D01*
X139591571Y-47285899D01*
X139578098Y-47272138D01*
X139565991Y-47256327D01*
X139555262Y-47238484D01*
X139545923Y-47218627D01*
X139537987Y-47196773D01*
X139531467Y-47172941D01*
X139526374Y-47147148D01*
X139522721Y-47119413D01*
X139520520Y-47089752D01*
X139519783Y-47058185D01*
X139519783Y-46120293D01*
X139204710Y-46120293D01*
X139204710Y-47061116D01*
X139205250Y-47097169D01*
X139206864Y-47132318D01*
X139209539Y-47166549D01*
X139213267Y-47199845D01*
X139218034Y-47232190D01*
X139223832Y-47263569D01*
X139230648Y-47293966D01*
X139238473Y-47323364D01*
X139247294Y-47351749D01*
X139257102Y-47379103D01*
X139267885Y-47405413D01*
X139279633Y-47430660D01*
X139292334Y-47454831D01*
X139305978Y-47477908D01*
X139320554Y-47499876D01*
X139336051Y-47520720D01*
X139352459Y-47540423D01*
X139369765Y-47558970D01*
X139387960Y-47576344D01*
X139407033Y-47592530D01*
X139426973Y-47607513D01*
X139447768Y-47621275D01*
X139469408Y-47633802D01*
X139491882Y-47645078D01*
X139515180Y-47655086D01*
X139539290Y-47663811D01*
X139564201Y-47671238D01*
X139589903Y-47677349D01*
X139616385Y-47682130D01*
X139643636Y-47685565D01*
X139671645Y-47687637D01*
X139700401Y-47688332D01*
G37*
G36*
X140910868Y-47688332D02*
G01*
X141003558Y-47688332D01*
X141032626Y-47687824D01*
X141060819Y-47686305D01*
X141088134Y-47683784D01*
X141114568Y-47680269D01*
X141140117Y-47675768D01*
X141164780Y-47670290D01*
X141188552Y-47663843D01*
X141211430Y-47656435D01*
X141233412Y-47648075D01*
X141254493Y-47638771D01*
X141274672Y-47628530D01*
X141293944Y-47617363D01*
X141312307Y-47605276D01*
X141329758Y-47592279D01*
X141346293Y-47578379D01*
X141361909Y-47563585D01*
X141376602Y-47547905D01*
X141390371Y-47531347D01*
X141403212Y-47513920D01*
X141415121Y-47495633D01*
X141426095Y-47476492D01*
X141436132Y-47456508D01*
X141445228Y-47435687D01*
X141453379Y-47414039D01*
X141460584Y-47391572D01*
X141466838Y-47368294D01*
X141472139Y-47344212D01*
X141476483Y-47319337D01*
X141479867Y-47293676D01*
X141482288Y-47267236D01*
X141483743Y-47240028D01*
X141484228Y-47212058D01*
X141483890Y-47185351D01*
X141482877Y-47159271D01*
X141481189Y-47133828D01*
X141478827Y-47109028D01*
X141475791Y-47084878D01*
X141472083Y-47061386D01*
X141467704Y-47038559D01*
X141462653Y-47016404D01*
X141456932Y-46994930D01*
X141450541Y-46974142D01*
X141443482Y-46954049D01*
X141435755Y-46934657D01*
X141427360Y-46915975D01*
X141418298Y-46898009D01*
X141408571Y-46880767D01*
X141398179Y-46864256D01*
X141387122Y-46848484D01*
X141375401Y-46833457D01*
X141363018Y-46819184D01*
X141349972Y-46805670D01*
X141336265Y-46792925D01*
X141321898Y-46780955D01*
X141306870Y-46769767D01*
X141291183Y-46759369D01*
X141274838Y-46749768D01*
X141257835Y-46740972D01*
X141240174Y-46732988D01*
X141221858Y-46725822D01*
X141202886Y-46719483D01*
X141183259Y-46713978D01*
X141162978Y-46709314D01*
X141142044Y-46705498D01*
X140889986Y-46663489D01*
X140873553Y-46660754D01*
X140858065Y-46657803D01*
X140843535Y-46654545D01*
X140823576Y-46648881D01*
X140805866Y-46642013D01*
X140790460Y-46633636D01*
X140777413Y-46623442D01*
X140763778Y-46606493D01*
X140754562Y-46585042D01*
X140750626Y-46565561D01*
X140749302Y-46542833D01*
X140750633Y-46520032D01*
X140754617Y-46498966D01*
X140761242Y-46479744D01*
X140770496Y-46462479D01*
X140782365Y-46447281D01*
X140796836Y-46434261D01*
X140813898Y-46423530D01*
X140833537Y-46415201D01*
X140848055Y-46411036D01*
X140863710Y-46408020D01*
X140880496Y-46406187D01*
X140898412Y-46405568D01*
X140996964Y-46405568D01*
X141015014Y-46406161D01*
X141032055Y-46407926D01*
X141048065Y-46410846D01*
X141063024Y-46414903D01*
X141083443Y-46423081D01*
X141101374Y-46433717D01*
X141116746Y-46446751D01*
X141129485Y-46462121D01*
X141139519Y-46479768D01*
X141146776Y-46499631D01*
X141151184Y-46521649D01*
X141152669Y-46545764D01*
X141461147Y-46545764D01*
X141460615Y-46520308D01*
X141459030Y-46495426D01*
X141456405Y-46471133D01*
X141452758Y-46447444D01*
X141448102Y-46424375D01*
X141442453Y-46401941D01*
X141435827Y-46380158D01*
X141428238Y-46359040D01*
X141419702Y-46338603D01*
X141410233Y-46318863D01*
X141399849Y-46299835D01*
X141388562Y-46281535D01*
X141376390Y-46263977D01*
X141363346Y-46247177D01*
X141349446Y-46231151D01*
X141334706Y-46215914D01*
X141319140Y-46201481D01*
X141302765Y-46187867D01*
X141285594Y-46175089D01*
X141267643Y-46163161D01*
X141248929Y-46152099D01*
X141229464Y-46141918D01*
X141209266Y-46132634D01*
X141188349Y-46124262D01*
X141166729Y-46116817D01*
X141144420Y-46110314D01*
X141121438Y-46104770D01*
X141097798Y-46100200D01*
X141073515Y-46096618D01*
X141048605Y-46094041D01*
X141023083Y-46092483D01*
X140996964Y-46091960D01*
X140898412Y-46091960D01*
X140871078Y-46092428D01*
X140844581Y-46093830D01*
X140818922Y-46096163D01*
X140794105Y-46099426D01*
X140770132Y-46103617D01*
X140747003Y-46108733D01*
X140724721Y-46114773D01*
X140703289Y-46121735D01*
X140682707Y-46129616D01*
X140662979Y-46138415D01*
X140644106Y-46148129D01*
X140626090Y-46158756D01*
X140608934Y-46170295D01*
X140592638Y-46182742D01*
X140577206Y-46196097D01*
X140562639Y-46210357D01*
X140548939Y-46225520D01*
X140536109Y-46241584D01*
X140524150Y-46258547D01*
X140513064Y-46276407D01*
X140502853Y-46295161D01*
X140493520Y-46314809D01*
X140485066Y-46335346D01*
X140477494Y-46356773D01*
X140470805Y-46379086D01*
X140465001Y-46402284D01*
X140460084Y-46426364D01*
X140456057Y-46451325D01*
X140452921Y-46477164D01*
X140450679Y-46503879D01*
X140449332Y-46531468D01*
X140448883Y-46559930D01*
X140449215Y-46583575D01*
X140450208Y-46606783D01*
X140451858Y-46629539D01*
X140454161Y-46651830D01*
X140457112Y-46673641D01*
X140460707Y-46694959D01*
X140464941Y-46715770D01*
X140469812Y-46736059D01*
X140475313Y-46755813D01*
X140481441Y-46775018D01*
X140488191Y-46793660D01*
X140495560Y-46811725D01*
X140503543Y-46829199D01*
X140512135Y-46846067D01*
X140521333Y-46862317D01*
X140531132Y-46877934D01*
X140541527Y-46892904D01*
X140552515Y-46907213D01*
X140564092Y-46920847D01*
X140576252Y-46933793D01*
X140588992Y-46946036D01*
X140602307Y-46957562D01*
X140616193Y-46968358D01*
X140630645Y-46978409D01*
X140645661Y-46987702D01*
X140661234Y-46996222D01*
X140677361Y-47003956D01*
X140694038Y-47010890D01*
X140711260Y-47017009D01*
X140729023Y-47022300D01*
X140747322Y-47026749D01*
X140766154Y-47030341D01*
X141030669Y-47072351D01*
X141049359Y-47075709D01*
X141066823Y-47079588D01*
X141083064Y-47084041D01*
X141098086Y-47089120D01*
X141118337Y-47098027D01*
X141135859Y-47108636D01*
X141150660Y-47121125D01*
X141162750Y-47135668D01*
X141172138Y-47152443D01*
X141178832Y-47171626D01*
X141182841Y-47193393D01*
X141184176Y-47217920D01*
X141182469Y-47244218D01*
X141177397Y-47268128D01*
X141169035Y-47289608D01*
X141157457Y-47308612D01*
X141142736Y-47325099D01*
X141124948Y-47339024D01*
X141111422Y-47346863D01*
X141096587Y-47353531D01*
X141080466Y-47359016D01*
X141063081Y-47363304D01*
X141044453Y-47366383D01*
X141024605Y-47368240D01*
X141003558Y-47368862D01*
X140910868Y-47368862D01*
X140891354Y-47368239D01*
X140872944Y-47366372D01*
X140855658Y-47363266D01*
X140839519Y-47358924D01*
X140824547Y-47353352D01*
X140810765Y-47346554D01*
X140792368Y-47334066D01*
X140776768Y-47318843D01*
X140764037Y-47300898D01*
X140754248Y-47280248D01*
X140747472Y-47256905D01*
X140743783Y-47230885D01*
X140743073Y-47212058D01*
X140434228Y-47212058D01*
X140434786Y-47238567D01*
X140436446Y-47264499D01*
X140439191Y-47289839D01*
X140443003Y-47314569D01*
X140447865Y-47338670D01*
X140453758Y-47362126D01*
X140460666Y-47384919D01*
X140468569Y-47407033D01*
X140477451Y-47428448D01*
X140487294Y-47449148D01*
X140498079Y-47469116D01*
X140509789Y-47488334D01*
X140522406Y-47506784D01*
X140535913Y-47524450D01*
X140550292Y-47541313D01*
X140565524Y-47557356D01*
X140581593Y-47572563D01*
X140598480Y-47586914D01*
X140616167Y-47600394D01*
X140634638Y-47612984D01*
X140653873Y-47624667D01*
X140673855Y-47635425D01*
X140694567Y-47645242D01*
X140715991Y-47654100D01*
X140738109Y-47661980D01*
X140760903Y-47668867D01*
X140784355Y-47674742D01*
X140808447Y-47679588D01*
X140833163Y-47683387D01*
X140858483Y-47686122D01*
X140884391Y-47687776D01*
X140910868Y-47688332D01*
G37*
G36*
X143319347Y-47660000D02*
G01*
X143634420Y-47660000D01*
X143634420Y-45994263D01*
X144023133Y-45994263D01*
X144023133Y-45616175D01*
X142931001Y-45616175D01*
X142931001Y-45994263D01*
X143319347Y-45994263D01*
X143319347Y-47660000D01*
G37*
G36*
X144147697Y-47660000D02*
G01*
X144485851Y-47660000D01*
X144670865Y-47156371D01*
X144678883Y-47133549D01*
X144686436Y-47111095D01*
X144693505Y-47089199D01*
X144700070Y-47068048D01*
X144706111Y-47047831D01*
X144711608Y-47028736D01*
X144718057Y-47005348D01*
X144723456Y-46984736D01*
X144728657Y-46963555D01*
X144729483Y-46960000D01*
X144735352Y-46980069D01*
X144741265Y-46999917D01*
X144748182Y-47022653D01*
X144753984Y-47041332D01*
X144760279Y-47061196D01*
X144767035Y-47082057D01*
X144774223Y-47103725D01*
X144781811Y-47126014D01*
X144789768Y-47148734D01*
X144792498Y-47156371D01*
X144977145Y-47660000D01*
X145323726Y-47660000D01*
X144912299Y-46604382D01*
X145296615Y-45616175D01*
X144958461Y-45616175D01*
X144794696Y-46064117D01*
X144786641Y-46086676D01*
X144779172Y-46108631D01*
X144772298Y-46129815D01*
X144766025Y-46150061D01*
X144760361Y-46169202D01*
X144753767Y-46192718D01*
X144748286Y-46213579D01*
X144743024Y-46235320D01*
X144740108Y-46248764D01*
X144734915Y-46227245D01*
X144729851Y-46208634D01*
X144723555Y-46187072D01*
X144716069Y-46162955D01*
X144709700Y-46143427D01*
X144702704Y-46122850D01*
X144695100Y-46101390D01*
X144686905Y-46079215D01*
X144681123Y-46064117D01*
X144521755Y-45616175D01*
X144175174Y-45616175D01*
X144559490Y-46604382D01*
X144147697Y-47660000D01*
G37*
G36*
X147058094Y-47660000D02*
G01*
X147453035Y-47660000D01*
X147832955Y-46120293D01*
X147503227Y-46120293D01*
X147306123Y-46988332D01*
X147301760Y-47007423D01*
X147297474Y-47026916D01*
X147293284Y-47046745D01*
X147289207Y-47066840D01*
X147285261Y-47087137D01*
X147281464Y-47107566D01*
X147277833Y-47128061D01*
X147274387Y-47148555D01*
X147271142Y-47168980D01*
X147268116Y-47189269D01*
X147265328Y-47209355D01*
X147262795Y-47229170D01*
X147260534Y-47248648D01*
X147257693Y-47277084D01*
X147255565Y-47304382D01*
X147253381Y-47277082D01*
X147250381Y-47248629D01*
X147247963Y-47229125D01*
X147245236Y-47209266D01*
X147242221Y-47189115D01*
X147238940Y-47168735D01*
X147235415Y-47148189D01*
X147231666Y-47127540D01*
X147227715Y-47106851D01*
X147223584Y-47086184D01*
X147219295Y-47065604D01*
X147214868Y-47045173D01*
X147210324Y-47024953D01*
X147205687Y-47005008D01*
X147200976Y-46985401D01*
X146999476Y-46120293D01*
X146673778Y-46120293D01*
X147058094Y-47660000D01*
G37*
G36*
X148520384Y-46447767D02*
G01*
X148536221Y-46449269D01*
X148551298Y-46452258D01*
X148565574Y-46456717D01*
X148585392Y-46466126D01*
X148603169Y-46478750D01*
X148618760Y-46494534D01*
X148632024Y-46513422D01*
X148642816Y-46535358D01*
X148650994Y-46560287D01*
X148656415Y-46588154D01*
X148658426Y-46608336D01*
X148659106Y-46629783D01*
X148658935Y-46640894D01*
X148657585Y-46662177D01*
X148654923Y-46682192D01*
X148648568Y-46709788D01*
X148639502Y-46734409D01*
X148627870Y-46755982D01*
X148613815Y-46774435D01*
X148597479Y-46789695D01*
X148579006Y-46801691D01*
X148558539Y-46810349D01*
X148543857Y-46814230D01*
X148528394Y-46816575D01*
X148512194Y-46817362D01*
X148504004Y-46817165D01*
X148488168Y-46815596D01*
X148473090Y-46812480D01*
X148451990Y-46804951D01*
X148432837Y-46794060D01*
X148415773Y-46779880D01*
X148400941Y-46762483D01*
X148388485Y-46741942D01*
X148378549Y-46718329D01*
X148371274Y-46691717D01*
X148367973Y-46672344D01*
X148365962Y-46651693D01*
X148365282Y-46629783D01*
X148365453Y-46618903D01*
X148366804Y-46598086D01*
X148369465Y-46578542D01*
X148375821Y-46551648D01*
X148384886Y-46527710D01*
X148396518Y-46506784D01*
X148410574Y-46488925D01*
X148426909Y-46474188D01*
X148445382Y-46462629D01*
X148465850Y-46454305D01*
X148480532Y-46450579D01*
X148495994Y-46448331D01*
X148512194Y-46447578D01*
X148520384Y-46447767D01*
G37*
G36*
X148540813Y-45589049D02*
G01*
X148568752Y-45591187D01*
X148595995Y-45594722D01*
X148622528Y-45599633D01*
X148648335Y-45605896D01*
X148673403Y-45613490D01*
X148697715Y-45622391D01*
X148721257Y-45632578D01*
X148744013Y-45644028D01*
X148765970Y-45656718D01*
X148787111Y-45670626D01*
X148807423Y-45685730D01*
X148826890Y-45702007D01*
X148845496Y-45719435D01*
X148863228Y-45737991D01*
X148880070Y-45757653D01*
X148896007Y-45778398D01*
X148911024Y-45800204D01*
X148925107Y-45823049D01*
X148938239Y-45846909D01*
X148950408Y-45871764D01*
X148961596Y-45897589D01*
X148971790Y-45924363D01*
X148980974Y-45952063D01*
X148989134Y-45980666D01*
X148996255Y-46010152D01*
X149002321Y-46040496D01*
X149007318Y-46071676D01*
X149011230Y-46103670D01*
X149014043Y-46136456D01*
X149015742Y-46170011D01*
X149016311Y-46204312D01*
X149016311Y-47072351D01*
X149015742Y-47106610D01*
X149014043Y-47140127D01*
X149011230Y-47172880D01*
X149007318Y-47204847D01*
X149002321Y-47236005D01*
X148996255Y-47266330D01*
X148989134Y-47295801D01*
X148980974Y-47324395D01*
X148971790Y-47352088D01*
X148961596Y-47378858D01*
X148950408Y-47404683D01*
X148938239Y-47429539D01*
X148925107Y-47453405D01*
X148911024Y-47476256D01*
X148896007Y-47498071D01*
X148880070Y-47518827D01*
X148863228Y-47538501D01*
X148845496Y-47557070D01*
X148826890Y-47574512D01*
X148807423Y-47590804D01*
X148787111Y-47605923D01*
X148765970Y-47619847D01*
X148744013Y-47632552D01*
X148721257Y-47644017D01*
X148697715Y-47654218D01*
X148673403Y-47663132D01*
X148648335Y-47670737D01*
X148622528Y-47677011D01*
X148595995Y-47681930D01*
X148568752Y-47685471D01*
X148540813Y-47687613D01*
X148512194Y-47688332D01*
X148483607Y-47687613D01*
X148455697Y-47685471D01*
X148428478Y-47681930D01*
X148401966Y-47677011D01*
X148376175Y-47670737D01*
X148351122Y-47663132D01*
X148326820Y-47654218D01*
X148303286Y-47644017D01*
X148280535Y-47632552D01*
X148258581Y-47619847D01*
X148237440Y-47605923D01*
X148217126Y-47590804D01*
X148197656Y-47574512D01*
X148179044Y-47557070D01*
X148161306Y-47538501D01*
X148144456Y-47518827D01*
X148128510Y-47498071D01*
X148113483Y-47476256D01*
X148099390Y-47453405D01*
X148086246Y-47429539D01*
X148074066Y-47404683D01*
X148062866Y-47378858D01*
X148052661Y-47352088D01*
X148043465Y-47324395D01*
X148035295Y-47295801D01*
X148028165Y-47266330D01*
X148022090Y-47236005D01*
X148017086Y-47204847D01*
X148013167Y-47172880D01*
X148010349Y-47140127D01*
X148008648Y-47106610D01*
X148008077Y-47072351D01*
X148302267Y-47072351D01*
X148303196Y-47101022D01*
X148305953Y-47128202D01*
X148310495Y-47153840D01*
X148316779Y-47177887D01*
X148324761Y-47200294D01*
X148334397Y-47221012D01*
X148345644Y-47239991D01*
X148358459Y-47257182D01*
X148372798Y-47272535D01*
X148388617Y-47286002D01*
X148405874Y-47297532D01*
X148424524Y-47307076D01*
X148444525Y-47314586D01*
X148465833Y-47320011D01*
X148488404Y-47323302D01*
X148512194Y-47324410D01*
X148536045Y-47323302D01*
X148558661Y-47320011D01*
X148579999Y-47314586D01*
X148600019Y-47307076D01*
X148618677Y-47297532D01*
X148635932Y-47286002D01*
X148651743Y-47272535D01*
X148666067Y-47257182D01*
X148678863Y-47239991D01*
X148690088Y-47221012D01*
X148699702Y-47200294D01*
X148707661Y-47177887D01*
X148713924Y-47153840D01*
X148718450Y-47128202D01*
X148721196Y-47101022D01*
X148722121Y-47072351D01*
X148722121Y-46204312D01*
X148721216Y-46175641D01*
X148718525Y-46148462D01*
X148714081Y-46122824D01*
X148707919Y-46098776D01*
X148700071Y-46076369D01*
X148690571Y-46055651D01*
X148679455Y-46036672D01*
X148666754Y-46019481D01*
X148652504Y-46004128D01*
X148636737Y-45990662D01*
X148619489Y-45979132D01*
X148600791Y-45969587D01*
X148580680Y-45962078D01*
X148559187Y-45956653D01*
X148536347Y-45953362D01*
X148512194Y-45952254D01*
X148488041Y-45953362D01*
X148465202Y-45956653D01*
X148443709Y-45962078D01*
X148423597Y-45969587D01*
X148404900Y-45979132D01*
X148387651Y-45990662D01*
X148371885Y-46004128D01*
X148357634Y-46019481D01*
X148344934Y-46036672D01*
X148333817Y-46055651D01*
X148324318Y-46076369D01*
X148316470Y-46098776D01*
X148310307Y-46122824D01*
X148305863Y-46148462D01*
X148303172Y-46175641D01*
X148302267Y-46204312D01*
X148302267Y-47072351D01*
X148008077Y-47072351D01*
X148008077Y-46204312D01*
X148008648Y-46170011D01*
X148010349Y-46136456D01*
X148013167Y-46103670D01*
X148017086Y-46071676D01*
X148022090Y-46040496D01*
X148028165Y-46010152D01*
X148035295Y-45980666D01*
X148043465Y-45952063D01*
X148052661Y-45924363D01*
X148062866Y-45897589D01*
X148074066Y-45871764D01*
X148086246Y-45846909D01*
X148099390Y-45823049D01*
X148113483Y-45800204D01*
X148128510Y-45778398D01*
X148144456Y-45757653D01*
X148161306Y-45737991D01*
X148179044Y-45719435D01*
X148197656Y-45702007D01*
X148217126Y-45685730D01*
X148237440Y-45670626D01*
X148258581Y-45656718D01*
X148280535Y-45644028D01*
X148303286Y-45632578D01*
X148326820Y-45622391D01*
X148351122Y-45613490D01*
X148376175Y-45605896D01*
X148401966Y-45599633D01*
X148428478Y-45594722D01*
X148455697Y-45591187D01*
X148483607Y-45589049D01*
X148512194Y-45588332D01*
X148540813Y-45589049D01*
G37*
G36*
X149771022Y-47688332D02*
G01*
X149794173Y-47687001D01*
X149816321Y-47683071D01*
X149837397Y-47676630D01*
X149857335Y-47667769D01*
X149876066Y-47656579D01*
X149893523Y-47643149D01*
X149909639Y-47627569D01*
X149924345Y-47609930D01*
X149937575Y-47590321D01*
X149949259Y-47568834D01*
X149959332Y-47545558D01*
X149967725Y-47520583D01*
X149974371Y-47493999D01*
X149979201Y-47465897D01*
X149982149Y-47436367D01*
X149983147Y-47405498D01*
X149982149Y-47374630D01*
X149979201Y-47345100D01*
X149974371Y-47316998D01*
X149967725Y-47290414D01*
X149959332Y-47265439D01*
X149949259Y-47242163D01*
X149937575Y-47220676D01*
X149924345Y-47201067D01*
X149909639Y-47183428D01*
X149893523Y-47167848D01*
X149876066Y-47154418D01*
X149857335Y-47143227D01*
X149837397Y-47134367D01*
X149816321Y-47127926D01*
X149794173Y-47123995D01*
X149771022Y-47122665D01*
X149747871Y-47123995D01*
X149725723Y-47127926D01*
X149704646Y-47134367D01*
X149684709Y-47143227D01*
X149665977Y-47154418D01*
X149648520Y-47167848D01*
X149632405Y-47183428D01*
X149617698Y-47201067D01*
X149604469Y-47220676D01*
X149592784Y-47242163D01*
X149582711Y-47265439D01*
X149574319Y-47290414D01*
X149567673Y-47316998D01*
X149562842Y-47345100D01*
X149559895Y-47374630D01*
X149558897Y-47405498D01*
X149559895Y-47436367D01*
X149562842Y-47465897D01*
X149567673Y-47493999D01*
X149574319Y-47520583D01*
X149582711Y-47545558D01*
X149592784Y-47568834D01*
X149604469Y-47590321D01*
X149617698Y-47609930D01*
X149632405Y-47627569D01*
X149648520Y-47643149D01*
X149665977Y-47656579D01*
X149684709Y-47667769D01*
X149704646Y-47676630D01*
X149725723Y-47683071D01*
X149747871Y-47687001D01*
X149771022Y-47688332D01*
G37*
G36*
X151038039Y-46447767D02*
G01*
X151053876Y-46449269D01*
X151068953Y-46452258D01*
X151083229Y-46456717D01*
X151103048Y-46466126D01*
X151120824Y-46478750D01*
X151136416Y-46494534D01*
X151149679Y-46513422D01*
X151160471Y-46535358D01*
X151168650Y-46560287D01*
X151174070Y-46588154D01*
X151176082Y-46608336D01*
X151176762Y-46629783D01*
X151176591Y-46640894D01*
X151175240Y-46662177D01*
X151172579Y-46682192D01*
X151166223Y-46709788D01*
X151157157Y-46734409D01*
X151145525Y-46755982D01*
X151131470Y-46774435D01*
X151115134Y-46789695D01*
X151096661Y-46801691D01*
X151076194Y-46810349D01*
X151061512Y-46814230D01*
X151046050Y-46816575D01*
X151029849Y-46817362D01*
X151021660Y-46817165D01*
X151005823Y-46815596D01*
X150990746Y-46812480D01*
X150969646Y-46804951D01*
X150950492Y-46794060D01*
X150933428Y-46779880D01*
X150918596Y-46762483D01*
X150906141Y-46741942D01*
X150896204Y-46718329D01*
X150888929Y-46691717D01*
X150885629Y-46672344D01*
X150883617Y-46651693D01*
X150882937Y-46629783D01*
X150883108Y-46618903D01*
X150884459Y-46598086D01*
X150887120Y-46578542D01*
X150893476Y-46551648D01*
X150902541Y-46527710D01*
X150914173Y-46506784D01*
X150928229Y-46488925D01*
X150944565Y-46474188D01*
X150963038Y-46462629D01*
X150983505Y-46454305D01*
X150998187Y-46450579D01*
X151013649Y-46448331D01*
X151029849Y-46447578D01*
X151038039Y-46447767D01*
G37*
G36*
X151058468Y-45589049D02*
G01*
X151086407Y-45591187D01*
X151113650Y-45594722D01*
X151140183Y-45599633D01*
X151165991Y-45605896D01*
X151191058Y-45613490D01*
X151215370Y-45622391D01*
X151238912Y-45632578D01*
X151261669Y-45644028D01*
X151283625Y-45656718D01*
X151304767Y-45670626D01*
X151325078Y-45685730D01*
X151344545Y-45702007D01*
X151363151Y-45719435D01*
X151380883Y-45737991D01*
X151397725Y-45757653D01*
X151413662Y-45778398D01*
X151428679Y-45800204D01*
X151442762Y-45823049D01*
X151455895Y-45846909D01*
X151468063Y-45871764D01*
X151479251Y-45897589D01*
X151489445Y-45924363D01*
X151498630Y-45952063D01*
X151506790Y-45980666D01*
X151513910Y-46010152D01*
X151519976Y-46040496D01*
X151524973Y-46071676D01*
X151528885Y-46103670D01*
X151531698Y-46136456D01*
X151533397Y-46170011D01*
X151533967Y-46204312D01*
X151533967Y-47072351D01*
X151533397Y-47106610D01*
X151531698Y-47140127D01*
X151528885Y-47172880D01*
X151524973Y-47204847D01*
X151519976Y-47236005D01*
X151513910Y-47266330D01*
X151506790Y-47295801D01*
X151498630Y-47324395D01*
X151489445Y-47352088D01*
X151479251Y-47378858D01*
X151468063Y-47404683D01*
X151455895Y-47429539D01*
X151442762Y-47453405D01*
X151428679Y-47476256D01*
X151413662Y-47498071D01*
X151397725Y-47518827D01*
X151380883Y-47538501D01*
X151363151Y-47557070D01*
X151344545Y-47574512D01*
X151325078Y-47590804D01*
X151304767Y-47605923D01*
X151283625Y-47619847D01*
X151261669Y-47632552D01*
X151238912Y-47644017D01*
X151215370Y-47654218D01*
X151191058Y-47663132D01*
X151165991Y-47670737D01*
X151140183Y-47677011D01*
X151113650Y-47681930D01*
X151086407Y-47685471D01*
X151058468Y-47687613D01*
X151029849Y-47688332D01*
X151001263Y-47687613D01*
X150973352Y-47685471D01*
X150946133Y-47681930D01*
X150919621Y-47677011D01*
X150893831Y-47670737D01*
X150868777Y-47663132D01*
X150844476Y-47654218D01*
X150820942Y-47644017D01*
X150798190Y-47632552D01*
X150776236Y-47619847D01*
X150755095Y-47605923D01*
X150734782Y-47590804D01*
X150715312Y-47574512D01*
X150696700Y-47557070D01*
X150678961Y-47538501D01*
X150662111Y-47518827D01*
X150646165Y-47498071D01*
X150631138Y-47476256D01*
X150617045Y-47453405D01*
X150603901Y-47429539D01*
X150591721Y-47404683D01*
X150580521Y-47378858D01*
X150570316Y-47352088D01*
X150561121Y-47324395D01*
X150552950Y-47295801D01*
X150545820Y-47266330D01*
X150539745Y-47236005D01*
X150534741Y-47204847D01*
X150530822Y-47172880D01*
X150528005Y-47140127D01*
X150526303Y-47106610D01*
X150525732Y-47072351D01*
X150819923Y-47072351D01*
X150820851Y-47101022D01*
X150823609Y-47128202D01*
X150828151Y-47153840D01*
X150834434Y-47177887D01*
X150842416Y-47200294D01*
X150852052Y-47221012D01*
X150863299Y-47239991D01*
X150876114Y-47257182D01*
X150890453Y-47272535D01*
X150906272Y-47286002D01*
X150923529Y-47297532D01*
X150942180Y-47307076D01*
X150962180Y-47314586D01*
X150983488Y-47320011D01*
X151006059Y-47323302D01*
X151029849Y-47324410D01*
X151053701Y-47323302D01*
X151076316Y-47320011D01*
X151097655Y-47314586D01*
X151117674Y-47307076D01*
X151136332Y-47297532D01*
X151153588Y-47286002D01*
X151169398Y-47272535D01*
X151183722Y-47257182D01*
X151196518Y-47239991D01*
X151207744Y-47221012D01*
X151217357Y-47200294D01*
X151225316Y-47177887D01*
X151231580Y-47153840D01*
X151236105Y-47128202D01*
X151238852Y-47101022D01*
X151239776Y-47072351D01*
X151239776Y-46204312D01*
X151238872Y-46175641D01*
X151236181Y-46148462D01*
X151231737Y-46122824D01*
X151225574Y-46098776D01*
X151217726Y-46076369D01*
X151208227Y-46055651D01*
X151197110Y-46036672D01*
X151184409Y-46019481D01*
X151170159Y-46004128D01*
X151154393Y-45990662D01*
X151137144Y-45979132D01*
X151118447Y-45969587D01*
X151098335Y-45962078D01*
X151076842Y-45956653D01*
X151054002Y-45953362D01*
X151029849Y-45952254D01*
X151005697Y-45953362D01*
X150982857Y-45956653D01*
X150961364Y-45962078D01*
X150941252Y-45969587D01*
X150922555Y-45979132D01*
X150905306Y-45990662D01*
X150889540Y-46004128D01*
X150875290Y-46019481D01*
X150862589Y-46036672D01*
X150851472Y-46055651D01*
X150841973Y-46076369D01*
X150834125Y-46098776D01*
X150827962Y-46122824D01*
X150823518Y-46148462D01*
X150820827Y-46175641D01*
X150819923Y-46204312D01*
X150819923Y-47072351D01*
X150525732Y-47072351D01*
X150525732Y-46204312D01*
X150526303Y-46170011D01*
X150528005Y-46136456D01*
X150530822Y-46103670D01*
X150534741Y-46071676D01*
X150539745Y-46040496D01*
X150545820Y-46010152D01*
X150552950Y-45980666D01*
X150561121Y-45952063D01*
X150570316Y-45924363D01*
X150580521Y-45897589D01*
X150591721Y-45871764D01*
X150603901Y-45846909D01*
X150617045Y-45823049D01*
X150631138Y-45800204D01*
X150646165Y-45778398D01*
X150662111Y-45757653D01*
X150678961Y-45737991D01*
X150696700Y-45719435D01*
X150715312Y-45702007D01*
X150734782Y-45685730D01*
X150755095Y-45670626D01*
X150776236Y-45656718D01*
X150798190Y-45644028D01*
X150820942Y-45632578D01*
X150844476Y-45622391D01*
X150868777Y-45613490D01*
X150893831Y-45605896D01*
X150919621Y-45599633D01*
X150946133Y-45594722D01*
X150973352Y-45591187D01*
X151001263Y-45589049D01*
X151029849Y-45588332D01*
X151058468Y-45589049D01*
G37*
G36*
X151826692Y-47660000D02*
G01*
X152834926Y-47660000D01*
X152834926Y-47282400D01*
X152528279Y-47282400D01*
X152528279Y-45616175D01*
X152181699Y-45616175D01*
X151822662Y-45952254D01*
X151822662Y-46416803D01*
X152213206Y-46041646D01*
X152213206Y-47282400D01*
X151826692Y-47282400D01*
X151826692Y-47660000D01*
G37*
D11*
%TO.C,TX5*%
X184900000Y-30678000D03*
X187600000Y-30678000D03*
X192400000Y-30678000D03*
X195100000Y-30678000D03*
D12*
X190000000Y-25678000D03*
D13*
X190000000Y-30678000D03*
X185000000Y-25678000D03*
X195000000Y-25678000D03*
%TD*%
%TO.C,TX4*%
X181000000Y-25656177D03*
X171000000Y-25656177D03*
X176000000Y-30656177D03*
D12*
X176000000Y-25656177D03*
D11*
X181100000Y-30656177D03*
X178400000Y-30656177D03*
X173600000Y-30656177D03*
X170900000Y-30656177D03*
%TD*%
D13*
%TO.C,TX3*%
X167000000Y-25656177D03*
X157000000Y-25656177D03*
X162000000Y-30656177D03*
D12*
X162000000Y-25656177D03*
D11*
X167100000Y-30656177D03*
X164400000Y-30656177D03*
X159600000Y-30656177D03*
X156900000Y-30656177D03*
%TD*%
%TO.C,TX2*%
X142900000Y-30656177D03*
X145600000Y-30656177D03*
X150400000Y-30656177D03*
X153100000Y-30656177D03*
D12*
X148000000Y-25656177D03*
D13*
X148000000Y-30656177D03*
X143000000Y-25656177D03*
X153000000Y-25656177D03*
%TD*%
%TO.C,TX1*%
X138970261Y-25667645D03*
X128970261Y-25667645D03*
X133970261Y-30667645D03*
D12*
X133970261Y-25667645D03*
D11*
X139070261Y-30667645D03*
X136370261Y-30667645D03*
X131570261Y-30667645D03*
X128870261Y-30667645D03*
%TD*%
D14*
%TO.C,R10*%
X187550000Y-38000000D03*
X184450000Y-38000000D03*
%TD*%
%TO.C,R9*%
X190450000Y-38000000D03*
X193550000Y-38000000D03*
%TD*%
%TO.C,R8*%
X174550000Y-38000000D03*
X171450000Y-38000000D03*
%TD*%
%TO.C,R7*%
X180550000Y-38000000D03*
X177450000Y-38000000D03*
%TD*%
%TO.C,R6*%
X160550000Y-38000000D03*
X157450000Y-38000000D03*
%TD*%
%TO.C,R5*%
X167100000Y-38000000D03*
X164000000Y-38000000D03*
%TD*%
%TO.C,R4*%
X143450000Y-38000000D03*
X146550000Y-38000000D03*
%TD*%
%TO.C,R3*%
X149450000Y-38000000D03*
X152550000Y-38000000D03*
%TD*%
%TO.C,R2*%
X131550000Y-38000000D03*
X128450000Y-38000000D03*
%TD*%
%TO.C,R1*%
X138550000Y-38000000D03*
X135450000Y-38000000D03*
%TD*%
D15*
%TO.C,REF\u002A\u002A*%
X125000000Y-46000000D03*
%TD*%
D16*
%TO.C,J2*%
X187000000Y-44000000D03*
D17*
X189500000Y-44000000D03*
%TD*%
D16*
%TO.C,J1*%
X161500000Y-44000000D03*
D17*
X164000000Y-44000000D03*
X166500000Y-44000000D03*
X169000000Y-44000000D03*
X171500000Y-44000000D03*
%TD*%
D15*
%TO.C,REF\u002A\u002A*%
X125000000Y-22000000D03*
%TD*%
%TO.C,REF\u002A\u002A*%
X199000000Y-46000000D03*
%TD*%
%TO.C,REF\u002A\u002A*%
X199000000Y-22000000D03*
%TD*%
M02*
