M48
; DRILL file {KiCad 7.0.1-1.fc37} date Wed 22 Mar 2023 08:46:41 PM CDT
; FORMAT={-:-/ absolute / inch / decimal}
; #@! TF.CreationDate,2023-03-22T20:46:41-05:00
; #@! TF.GenerationSoftware,Kicad,Pcbnew,7.0.1-1.fc37
; #@! TF.FileFunction,MixedPlating,1,2
FMAT,2
INCH
; #@! TA.AperFunction,Plated,PTH,ComponentDrill
T1C0.0394
; #@! TA.AperFunction,Plated,PTH,ComponentDrill
T2C0.0413
; #@! TA.AperFunction,Plated,PTH,ComponentDrill
T3C0.0591
; #@! TA.AperFunction,NonPlated,NPTH,ComponentDrill
T4C0.0591
; #@! TA.AperFunction,NonPlated,NPTH,ComponentDrill
T5C0.0984
%
G90
G05
T1
X6.3583Y-1.7323
X6.4567Y-1.7323
X6.5551Y-1.7323
X6.6535Y-1.7323
X6.752Y-1.7323
T2
X7.3622Y-1.7323
X7.4606Y-1.7323
T3
X5.0736Y-1.2074
X5.1799Y-1.2074
X5.2744Y-1.0105
X5.3689Y-1.2074
X5.4752Y-1.2074
X5.626Y-1.2069
X5.7323Y-1.2069
X5.8268Y-1.0101
X5.9213Y-1.2069
X6.0276Y-1.2069
X6.1772Y-1.2069
X6.2835Y-1.2069
X6.378Y-1.0101
X6.4724Y-1.2069
X6.5787Y-1.2069
X6.7283Y-1.2069
X6.8346Y-1.2069
X6.9291Y-1.0101
X7.0236Y-1.2069
X7.1299Y-1.2069
X7.2795Y-1.2078
X7.3858Y-1.2078
X7.4803Y-1.0109
X7.5748Y-1.2078
X7.6811Y-1.2078
T4
X5.0776Y-1.0105
X5.2744Y-1.2074
X5.4713Y-1.0105
X5.6299Y-1.0101
X5.8268Y-1.2069
X6.0236Y-1.0101
X6.1811Y-1.0101
X6.378Y-1.2069
X6.5748Y-1.0101
X6.7323Y-1.0101
X6.9291Y-1.2069
X7.126Y-1.0101
X7.2835Y-1.0109
X7.4803Y-1.2078
X7.6772Y-1.0109
T5
X4.9213Y-0.8661
X4.9213Y-1.811
X7.8346Y-0.8661
X7.8346Y-1.811
T0
M30
