%TF.GenerationSoftware,KiCad,Pcbnew,7.0.1-1.fc37*%
%TF.CreationDate,2023-03-22T21:56:34-05:00*%
%TF.ProjectId,main_board,6d61696e-5f62-46f6-9172-642e6b696361,rev?*%
%TF.SameCoordinates,Original*%
%TF.FileFunction,Soldermask,Bot*%
%TF.FilePolarity,Negative*%
%FSLAX46Y46*%
G04 Gerber Fmt 4.6, Leading zero omitted, Abs format (unit mm)*
G04 Created by KiCad (PCBNEW 7.0.1-1.fc37) date 2023-03-22 21:56:34*
%MOMM*%
%LPD*%
G01*
G04 APERTURE LIST*
G04 Aperture macros list*
%AMRoundRect*
0 Rectangle with rounded corners*
0 $1 Rounding radius*
0 $2 $3 $4 $5 $6 $7 $8 $9 X,Y pos of 4 corners*
0 Add a 4 corners polygon primitive as box body*
4,1,4,$2,$3,$4,$5,$6,$7,$8,$9,$2,$3,0*
0 Add four circle primitives for the rounded corners*
1,1,$1+$1,$2,$3*
1,1,$1+$1,$4,$5*
1,1,$1+$1,$6,$7*
1,1,$1+$1,$8,$9*
0 Add four rect primitives between the rounded corners*
20,1,$1+$1,$2,$3,$4,$5,0*
20,1,$1+$1,$4,$5,$6,$7,0*
20,1,$1+$1,$6,$7,$8,$9,0*
20,1,$1+$1,$8,$9,$2,$3,0*%
G04 Aperture macros list end*
%ADD10R,1.750000X1.750000*%
%ADD11C,1.750000*%
%ADD12C,2.500000*%
%ADD13RoundRect,0.250000X0.600000X-0.600000X0.600000X0.600000X-0.600000X0.600000X-0.600000X-0.600000X0*%
%ADD14C,1.700000*%
%ADD15RoundRect,0.250000X-0.600000X0.600000X-0.600000X-0.600000X0.600000X-0.600000X0.600000X0.600000X0*%
%ADD16O,1.800000X1.800000*%
%ADD17O,1.500000X1.500000*%
%ADD18O,1.700000X1.700000*%
%ADD19R,1.700000X1.700000*%
G04 APERTURE END LIST*
D10*
%TO.C,J12*%
X62741601Y-60228297D03*
D11*
X60241601Y-60228297D03*
X57741601Y-60228297D03*
X55241601Y-60228297D03*
X52741601Y-60228297D03*
%TD*%
D12*
%TO.C,REF\u002A\u002A*%
X89250000Y-59000000D03*
%TD*%
D10*
%TO.C,J8*%
X62095641Y-26831617D03*
D11*
X59595641Y-26831617D03*
X57095641Y-26831617D03*
X54595641Y-26831617D03*
X52095641Y-26831617D03*
%TD*%
D12*
%TO.C,REF\u002A\u002A*%
X89250000Y-26000000D03*
%TD*%
D10*
%TO.C,J5*%
X80107542Y-59228823D03*
D11*
X82607542Y-59228823D03*
%TD*%
D12*
%TO.C,REF\u002A\u002A*%
X27736213Y-50000000D03*
%TD*%
D13*
%TO.C,J10*%
X31081671Y-29113830D03*
D14*
X31081671Y-26573830D03*
X33621671Y-29113830D03*
X33621671Y-26573830D03*
X36161671Y-29113830D03*
X36161671Y-26573830D03*
X38701671Y-29113830D03*
X38701671Y-26573830D03*
X41241671Y-29113830D03*
X41241671Y-26573830D03*
%TD*%
D10*
%TO.C,J3*%
X70905936Y-59166929D03*
D11*
X73405936Y-59166929D03*
%TD*%
D15*
%TO.C,J9*%
X41027765Y-56779055D03*
D14*
X41027765Y-59319055D03*
X38487765Y-56779055D03*
X38487765Y-59319055D03*
X35947765Y-56779055D03*
X35947765Y-59319055D03*
X33407765Y-56779055D03*
X33407765Y-59319055D03*
X30867765Y-56779055D03*
X30867765Y-59319055D03*
%TD*%
D16*
%TO.C,U2*%
X97000000Y-38825114D03*
D17*
X93970000Y-39125114D03*
X93970000Y-43975114D03*
D16*
X97000000Y-44275114D03*
D18*
X97130000Y-32660114D03*
X94590000Y-32660114D03*
D19*
X92050000Y-32660114D03*
D18*
X89510000Y-32660114D03*
X86970000Y-32660114D03*
X84430000Y-32660114D03*
X81890000Y-32660114D03*
D19*
X79350000Y-32660114D03*
D18*
X76810000Y-32660114D03*
X74270000Y-32660114D03*
X71730000Y-32660114D03*
X69190000Y-32660114D03*
D19*
X66650000Y-32660114D03*
D18*
X64110000Y-32660114D03*
X61570000Y-32660114D03*
X59030000Y-32660114D03*
X56490000Y-32660114D03*
D19*
X53950000Y-32660114D03*
D18*
X51410000Y-32660114D03*
X48870000Y-32660114D03*
X48870000Y-50440114D03*
X51410000Y-50440114D03*
D19*
X53950000Y-50440114D03*
D18*
X56490000Y-50440114D03*
X59030000Y-50440114D03*
X61570000Y-50440114D03*
X64110000Y-50440114D03*
D19*
X66650000Y-50440114D03*
D18*
X69190000Y-50440114D03*
X71730000Y-50440114D03*
X74270000Y-50440114D03*
X76810000Y-50440114D03*
D19*
X79350000Y-50440114D03*
D18*
X81890000Y-50440114D03*
X84430000Y-50440114D03*
X86970000Y-50440114D03*
X89510000Y-50440114D03*
D19*
X92050000Y-50440114D03*
D18*
X94590000Y-50440114D03*
X97130000Y-50440114D03*
X49100000Y-39010114D03*
D19*
X49100000Y-41550114D03*
D18*
X49100000Y-44090114D03*
%TD*%
D12*
%TO.C,REF\u002A\u002A*%
X27736213Y-36000000D03*
%TD*%
D19*
%TO.C,J1*%
X96916842Y-22939838D03*
D18*
X96916842Y-25479838D03*
X96916842Y-28019838D03*
%TD*%
M02*
