%TF.GenerationSoftware,KiCad,Pcbnew,7.0.1-1.fc37*%
%TF.CreationDate,2023-03-22T21:56:34-05:00*%
%TF.ProjectId,main_board,6d61696e-5f62-46f6-9172-642e6b696361,rev?*%
%TF.SameCoordinates,Original*%
%TF.FileFunction,Legend,Top*%
%TF.FilePolarity,Positive*%
%FSLAX46Y46*%
G04 Gerber Fmt 4.6, Leading zero omitted, Abs format (unit mm)*
G04 Created by KiCad (PCBNEW 7.0.1-1.fc37) date 2023-03-22 21:56:34*
%MOMM*%
%LPD*%
G01*
G04 APERTURE LIST*
%ADD10C,0.150000*%
%ADD11C,0.120000*%
G04 APERTURE END LIST*
D10*
G36*
X25940008Y-46340337D02*
G01*
X25957010Y-46341433D01*
X25973597Y-46343248D01*
X25989759Y-46345771D01*
X26005486Y-46348993D01*
X26020768Y-46352903D01*
X26035596Y-46357492D01*
X26049960Y-46362749D01*
X26063852Y-46368665D01*
X26077260Y-46375230D01*
X26090175Y-46382434D01*
X26102589Y-46390266D01*
X26114490Y-46398717D01*
X26125870Y-46407777D01*
X26136719Y-46417436D01*
X26147028Y-46427683D01*
X26156786Y-46438510D01*
X26165984Y-46449905D01*
X26174613Y-46461860D01*
X26182663Y-46474363D01*
X26190124Y-46487405D01*
X26196987Y-46500977D01*
X26203241Y-46515067D01*
X26208879Y-46529666D01*
X26213889Y-46544765D01*
X26218262Y-46560352D01*
X26221988Y-46576419D01*
X26225059Y-46592955D01*
X26227464Y-46609950D01*
X26229194Y-46627395D01*
X26230239Y-46645279D01*
X26230590Y-46663592D01*
X26230590Y-46928107D01*
X25208677Y-46928107D01*
X25208677Y-46802077D01*
X25320541Y-46802077D01*
X26118726Y-46802077D01*
X26118726Y-46663592D01*
X26118514Y-46652173D01*
X26117879Y-46641046D01*
X26116825Y-46630217D01*
X26115358Y-46619688D01*
X26113480Y-46609466D01*
X26111196Y-46599555D01*
X26108510Y-46589959D01*
X26101949Y-46571731D01*
X26093828Y-46554819D01*
X26084180Y-46539261D01*
X26073038Y-46525093D01*
X26060434Y-46512352D01*
X26046401Y-46501075D01*
X26030971Y-46491298D01*
X26014177Y-46483059D01*
X25996052Y-46476395D01*
X25986501Y-46473664D01*
X25976628Y-46471341D01*
X25966439Y-46469430D01*
X25955938Y-46467936D01*
X25945128Y-46466863D01*
X25934014Y-46466216D01*
X25922599Y-46465999D01*
X25515202Y-46465999D01*
X25503942Y-46466216D01*
X25492972Y-46466863D01*
X25482295Y-46467936D01*
X25471916Y-46469430D01*
X25461840Y-46471341D01*
X25452071Y-46473664D01*
X25433472Y-46479528D01*
X25416156Y-46486984D01*
X25400158Y-46495997D01*
X25385514Y-46506528D01*
X25372259Y-46518542D01*
X25360430Y-46532001D01*
X25350062Y-46546869D01*
X25341190Y-46563108D01*
X25333852Y-46580683D01*
X25330769Y-46589959D01*
X25328082Y-46599555D01*
X25325796Y-46609466D01*
X25323916Y-46619688D01*
X25322446Y-46630217D01*
X25321390Y-46641046D01*
X25320754Y-46652173D01*
X25320541Y-46663592D01*
X25320541Y-46802077D01*
X25208677Y-46802077D01*
X25208677Y-46663592D01*
X25209029Y-46645279D01*
X25210075Y-46627395D01*
X25211807Y-46609950D01*
X25214215Y-46592955D01*
X25217288Y-46576419D01*
X25221016Y-46560352D01*
X25225390Y-46544765D01*
X25230400Y-46529666D01*
X25236035Y-46515067D01*
X25242285Y-46500977D01*
X25249140Y-46487405D01*
X25256591Y-46474363D01*
X25264627Y-46461860D01*
X25273239Y-46449905D01*
X25282415Y-46438510D01*
X25292147Y-46427683D01*
X25302425Y-46417436D01*
X25313237Y-46407777D01*
X25324575Y-46398717D01*
X25336428Y-46390266D01*
X25348786Y-46382434D01*
X25361639Y-46375230D01*
X25374978Y-46368665D01*
X25388791Y-46362749D01*
X25403070Y-46357492D01*
X25417804Y-46352903D01*
X25432983Y-46348993D01*
X25448596Y-46345771D01*
X25464635Y-46343248D01*
X25481089Y-46341433D01*
X25497948Y-46340337D01*
X25515202Y-46339970D01*
X25922599Y-46339970D01*
X25940008Y-46340337D01*
G37*
G36*
X26230590Y-46070814D02*
G01*
X26230590Y-45524687D01*
X26115795Y-45524687D01*
X26115795Y-45733271D01*
X25323472Y-45733271D01*
X25323472Y-45524687D01*
X25208677Y-45524687D01*
X25208677Y-46070814D01*
X25323472Y-46070814D01*
X25323472Y-45861986D01*
X26115795Y-45861986D01*
X26115795Y-46070814D01*
X26230590Y-46070814D01*
G37*
G36*
X26230590Y-45252601D02*
G01*
X26230590Y-45130723D01*
X25656619Y-45130723D01*
X25637169Y-45130804D01*
X25627238Y-45130903D01*
X25617192Y-45131038D01*
X25607047Y-45131209D01*
X25596820Y-45131412D01*
X25586526Y-45131648D01*
X25576183Y-45131914D01*
X25565806Y-45132209D01*
X25555413Y-45132530D01*
X25545019Y-45132877D01*
X25534641Y-45133248D01*
X25524295Y-45133641D01*
X25513999Y-45134054D01*
X25503767Y-45134487D01*
X25493617Y-45134937D01*
X25483565Y-45135402D01*
X25473628Y-45135882D01*
X25463821Y-45136374D01*
X25444666Y-45137390D01*
X25426232Y-45138436D01*
X25408649Y-45139500D01*
X25392049Y-45140569D01*
X25376563Y-45141631D01*
X25362323Y-45142671D01*
X25355712Y-45143180D01*
X26230590Y-44832503D01*
X26230590Y-44664464D01*
X25208677Y-44664464D01*
X25208677Y-44786341D01*
X25782648Y-44786341D01*
X25802141Y-44786244D01*
X25812091Y-44786125D01*
X25822155Y-44785963D01*
X25832317Y-44785759D01*
X25842560Y-44785515D01*
X25852869Y-44785234D01*
X25863225Y-44784918D01*
X25873614Y-44784568D01*
X25884019Y-44784187D01*
X25894423Y-44783777D01*
X25904811Y-44783340D01*
X25915165Y-44782878D01*
X25925469Y-44782394D01*
X25935707Y-44781888D01*
X25945863Y-44781365D01*
X25955921Y-44780824D01*
X25965863Y-44780270D01*
X25975673Y-44779703D01*
X25994835Y-44778541D01*
X26013274Y-44777355D01*
X26030860Y-44776162D01*
X26047461Y-44774979D01*
X26062948Y-44773823D01*
X26077188Y-44772710D01*
X26083800Y-44772175D01*
X25208677Y-45084562D01*
X25208677Y-45252601D01*
X26230590Y-45252601D01*
G37*
G36*
X25951845Y-43817284D02*
G01*
X25969373Y-43818306D01*
X25986412Y-43819998D01*
X26002958Y-43822350D01*
X26019003Y-43825355D01*
X26034543Y-43829002D01*
X26049570Y-43833282D01*
X26064081Y-43838186D01*
X26078068Y-43843706D01*
X26091525Y-43849831D01*
X26104448Y-43856553D01*
X26116829Y-43863863D01*
X26128664Y-43871751D01*
X26139946Y-43880208D01*
X26150669Y-43889225D01*
X26160828Y-43898793D01*
X26170416Y-43908903D01*
X26179429Y-43919545D01*
X26187859Y-43930710D01*
X26195701Y-43942390D01*
X26202950Y-43954575D01*
X26209599Y-43967255D01*
X26215643Y-43980422D01*
X26221075Y-43994067D01*
X26225891Y-44008180D01*
X26230083Y-44022752D01*
X26233646Y-44037774D01*
X26236575Y-44053237D01*
X26238863Y-44069132D01*
X26240504Y-44085449D01*
X26241494Y-44102179D01*
X26241825Y-44119314D01*
X26241494Y-44136427D01*
X26240504Y-44153139D01*
X26238863Y-44169439D01*
X26236575Y-44185320D01*
X26233646Y-44200772D01*
X26230083Y-44215785D01*
X26225891Y-44230350D01*
X26221075Y-44244458D01*
X26215643Y-44258099D01*
X26209599Y-44271264D01*
X26202950Y-44283945D01*
X26195701Y-44296130D01*
X26187859Y-44307812D01*
X26179429Y-44318981D01*
X26170416Y-44329628D01*
X26160828Y-44339743D01*
X26150669Y-44349317D01*
X26139946Y-44358341D01*
X26128664Y-44366805D01*
X26116829Y-44374700D01*
X26104448Y-44382017D01*
X26091525Y-44388747D01*
X26078068Y-44394880D01*
X26064081Y-44400407D01*
X26049570Y-44405318D01*
X26034543Y-44409605D01*
X26019003Y-44413258D01*
X26002958Y-44416267D01*
X25986412Y-44418624D01*
X25969373Y-44420319D01*
X25951845Y-44421343D01*
X25933834Y-44421686D01*
X25757491Y-44421686D01*
X25739352Y-44421347D01*
X25721711Y-44420335D01*
X25704575Y-44418659D01*
X25687947Y-44416327D01*
X25671834Y-44413348D01*
X25656239Y-44409731D01*
X25641168Y-44405483D01*
X25626627Y-44400613D01*
X25612619Y-44395130D01*
X25599151Y-44389042D01*
X25586227Y-44382358D01*
X25573852Y-44375087D01*
X25562032Y-44367236D01*
X25550771Y-44358814D01*
X25540075Y-44349830D01*
X25529948Y-44340292D01*
X25520396Y-44330210D01*
X25511424Y-44319590D01*
X25503036Y-44308442D01*
X25495238Y-44296774D01*
X25488034Y-44284595D01*
X25481431Y-44271914D01*
X25475433Y-44258738D01*
X25470044Y-44245076D01*
X25465270Y-44230937D01*
X25461117Y-44216329D01*
X25457589Y-44201261D01*
X25454691Y-44185741D01*
X25452428Y-44169778D01*
X25450805Y-44153380D01*
X25449828Y-44136556D01*
X25449501Y-44119314D01*
X25561364Y-44119314D01*
X25561549Y-44129425D01*
X25563020Y-44148891D01*
X25565953Y-44167317D01*
X25570339Y-44184667D01*
X25576166Y-44200903D01*
X25583425Y-44215988D01*
X25592105Y-44229886D01*
X25602198Y-44242560D01*
X25613692Y-44253973D01*
X25626578Y-44264088D01*
X25640846Y-44272869D01*
X25656485Y-44280278D01*
X25673486Y-44286278D01*
X25691839Y-44290834D01*
X25701519Y-44292558D01*
X25711534Y-44293907D01*
X25721881Y-44294876D01*
X25732560Y-44295461D01*
X25743569Y-44295657D01*
X25948001Y-44295657D01*
X25958988Y-44295461D01*
X25969646Y-44294876D01*
X25979974Y-44293907D01*
X25989970Y-44292558D01*
X26008962Y-44288739D01*
X26026612Y-44283456D01*
X26042910Y-44276747D01*
X26057845Y-44268648D01*
X26071407Y-44259195D01*
X26083586Y-44248427D01*
X26094370Y-44236379D01*
X26103751Y-44223088D01*
X26111716Y-44208592D01*
X26118257Y-44192926D01*
X26123362Y-44176129D01*
X26127021Y-44158237D01*
X26129225Y-44139286D01*
X26129777Y-44129425D01*
X26129961Y-44119314D01*
X26129777Y-44109202D01*
X26128306Y-44089730D01*
X26125373Y-44071294D01*
X26120990Y-44053931D01*
X26115165Y-44037678D01*
X26107911Y-44022573D01*
X26099237Y-44008653D01*
X26089153Y-43995957D01*
X26077670Y-43984521D01*
X26064799Y-43974383D01*
X26050549Y-43965581D01*
X26034931Y-43958153D01*
X26017956Y-43952135D01*
X25999633Y-43947566D01*
X25989970Y-43945836D01*
X25979974Y-43944483D01*
X25969646Y-43943510D01*
X25958988Y-43942923D01*
X25948001Y-43942726D01*
X25743569Y-43942726D01*
X25732560Y-43942923D01*
X25721881Y-43943510D01*
X25711534Y-43944483D01*
X25701519Y-43945836D01*
X25682494Y-43949667D01*
X25664816Y-43954965D01*
X25648495Y-43961693D01*
X25633540Y-43969813D01*
X25619962Y-43979287D01*
X25607770Y-43990079D01*
X25596976Y-44002150D01*
X25587588Y-44015462D01*
X25579617Y-44029979D01*
X25573072Y-44045663D01*
X25567965Y-44062476D01*
X25564305Y-44080380D01*
X25562101Y-44099339D01*
X25561549Y-44109202D01*
X25561364Y-44119314D01*
X25449501Y-44119314D01*
X25449828Y-44102050D01*
X25450805Y-44085207D01*
X25452428Y-44068793D01*
X25454691Y-44052816D01*
X25457589Y-44037285D01*
X25461117Y-44022208D01*
X25465270Y-44007593D01*
X25470044Y-43993449D01*
X25475433Y-43979783D01*
X25481431Y-43966606D01*
X25488034Y-43953924D01*
X25495238Y-43941746D01*
X25503036Y-43930081D01*
X25511424Y-43918936D01*
X25520396Y-43908321D01*
X25529948Y-43898243D01*
X25540075Y-43888712D01*
X25550771Y-43879735D01*
X25562032Y-43871320D01*
X25573852Y-43863477D01*
X25586227Y-43856212D01*
X25599151Y-43849536D01*
X25612619Y-43843456D01*
X25626627Y-43837980D01*
X25641168Y-43833118D01*
X25656239Y-43828876D01*
X25671834Y-43825264D01*
X25687947Y-43822290D01*
X25704575Y-43819962D01*
X25721711Y-43818290D01*
X25739352Y-43817280D01*
X25757491Y-43816941D01*
X25933834Y-43816941D01*
X25951845Y-43817284D01*
G37*
G36*
X26244756Y-43268860D02*
G01*
X26244457Y-43252368D01*
X26243566Y-43236238D01*
X26242091Y-43220479D01*
X26240039Y-43205100D01*
X26237417Y-43190111D01*
X26234233Y-43175523D01*
X26230494Y-43161343D01*
X26226208Y-43147582D01*
X26221383Y-43134250D01*
X26216026Y-43121355D01*
X26210144Y-43108907D01*
X26203746Y-43096917D01*
X26196838Y-43085392D01*
X26189427Y-43074344D01*
X26181523Y-43063781D01*
X26173131Y-43053713D01*
X26164260Y-43044149D01*
X26154918Y-43035100D01*
X26145110Y-43026573D01*
X26134846Y-43018580D01*
X26124133Y-43011130D01*
X26112978Y-43004232D01*
X26101388Y-42997895D01*
X26089371Y-42992129D01*
X26076936Y-42986944D01*
X26064088Y-42982350D01*
X26050836Y-42978355D01*
X26037187Y-42974969D01*
X26023149Y-42972202D01*
X26008730Y-42970063D01*
X25993936Y-42968562D01*
X25978775Y-42967709D01*
X25978775Y-43093738D01*
X25996643Y-43095493D01*
X26013507Y-43098628D01*
X26029345Y-43103111D01*
X26044137Y-43108908D01*
X26057863Y-43115986D01*
X26070502Y-43124311D01*
X26082035Y-43133850D01*
X26092440Y-43144571D01*
X26101697Y-43156439D01*
X26109786Y-43169422D01*
X26116687Y-43183486D01*
X26122378Y-43198598D01*
X26126841Y-43214725D01*
X26130054Y-43231833D01*
X26131996Y-43249889D01*
X26132648Y-43268860D01*
X26132456Y-43279117D01*
X26131882Y-43289137D01*
X26130928Y-43298915D01*
X26127894Y-43317721D01*
X26123375Y-43335489D01*
X26117394Y-43352171D01*
X26109973Y-43367720D01*
X26101134Y-43382090D01*
X26090899Y-43395234D01*
X26079291Y-43407105D01*
X26066331Y-43417655D01*
X26052042Y-43426839D01*
X26036447Y-43434609D01*
X26019566Y-43440918D01*
X26001423Y-43445720D01*
X25982040Y-43448967D01*
X25971890Y-43449993D01*
X25961438Y-43450613D01*
X25950687Y-43450821D01*
X25739173Y-43450821D01*
X25728555Y-43450613D01*
X25718228Y-43449993D01*
X25708195Y-43448967D01*
X25698459Y-43447541D01*
X25679888Y-43443510D01*
X25662542Y-43437949D01*
X25646443Y-43430903D01*
X25631616Y-43422421D01*
X25618086Y-43412548D01*
X25605877Y-43401331D01*
X25595014Y-43388818D01*
X25585519Y-43375056D01*
X25577419Y-43360090D01*
X25570737Y-43343969D01*
X25565497Y-43326738D01*
X25561725Y-43308445D01*
X25559443Y-43289137D01*
X25558869Y-43279117D01*
X25558677Y-43268860D01*
X25559330Y-43249889D01*
X25561273Y-43231833D01*
X25564486Y-43214725D01*
X25568951Y-43198598D01*
X25574646Y-43183486D01*
X25581552Y-43169422D01*
X25589649Y-43156439D01*
X25598916Y-43144571D01*
X25609334Y-43133850D01*
X25620883Y-43124311D01*
X25633542Y-43115986D01*
X25647292Y-43108908D01*
X25662112Y-43103111D01*
X25677982Y-43098628D01*
X25694883Y-43095493D01*
X25712795Y-43093738D01*
X25712795Y-42967709D01*
X25697612Y-42968562D01*
X25682797Y-42970063D01*
X25668358Y-42972202D01*
X25654302Y-42974969D01*
X25640636Y-42978355D01*
X25627369Y-42982350D01*
X25614506Y-42986944D01*
X25602057Y-42992129D01*
X25590028Y-42997895D01*
X25578427Y-43004232D01*
X25567262Y-43011130D01*
X25556539Y-43018580D01*
X25546266Y-43026573D01*
X25536451Y-43035100D01*
X25527102Y-43044149D01*
X25518225Y-43053713D01*
X25509828Y-43063781D01*
X25501919Y-43074344D01*
X25494504Y-43085392D01*
X25487593Y-43096917D01*
X25481191Y-43108907D01*
X25475307Y-43121355D01*
X25469948Y-43134250D01*
X25465121Y-43147582D01*
X25460834Y-43161343D01*
X25457095Y-43175523D01*
X25453910Y-43190111D01*
X25451287Y-43205100D01*
X25449235Y-43220479D01*
X25447759Y-43236238D01*
X25446869Y-43252368D01*
X25446570Y-43268860D01*
X25446893Y-43286118D01*
X25447857Y-43302990D01*
X25449456Y-43319463D01*
X25451682Y-43335529D01*
X25454529Y-43351176D01*
X25457990Y-43366394D01*
X25462057Y-43381172D01*
X25466724Y-43395500D01*
X25471984Y-43409367D01*
X25477829Y-43422763D01*
X25484254Y-43435677D01*
X25491251Y-43448098D01*
X25498812Y-43460016D01*
X25506932Y-43471421D01*
X25515604Y-43482302D01*
X25524819Y-43492648D01*
X25534572Y-43502448D01*
X25544856Y-43511693D01*
X25555662Y-43520372D01*
X25566986Y-43528473D01*
X25578819Y-43535987D01*
X25591155Y-43542903D01*
X25603987Y-43549211D01*
X25617307Y-43554899D01*
X25631110Y-43559958D01*
X25645387Y-43564376D01*
X25660133Y-43568144D01*
X25675339Y-43571250D01*
X25691000Y-43573684D01*
X25707108Y-43575436D01*
X25723657Y-43576495D01*
X25740638Y-43576850D01*
X25950687Y-43576850D01*
X25967669Y-43576495D01*
X25984217Y-43575436D01*
X26000326Y-43573684D01*
X26015986Y-43571250D01*
X26031193Y-43568144D01*
X26045939Y-43564376D01*
X26060216Y-43559958D01*
X26074018Y-43554899D01*
X26087339Y-43549211D01*
X26100171Y-43542903D01*
X26112506Y-43535987D01*
X26124340Y-43528473D01*
X26135663Y-43520372D01*
X26146470Y-43511693D01*
X26156753Y-43502448D01*
X26166506Y-43492648D01*
X26175722Y-43482302D01*
X26184393Y-43471421D01*
X26192513Y-43460016D01*
X26200075Y-43448098D01*
X26207072Y-43435677D01*
X26213496Y-43422763D01*
X26219342Y-43409367D01*
X26224602Y-43395500D01*
X26229269Y-43381172D01*
X26233336Y-43366394D01*
X26236796Y-43351176D01*
X26239643Y-43335529D01*
X26241869Y-43319463D01*
X26243468Y-43302990D01*
X26244433Y-43286118D01*
X26244756Y-43268860D01*
G37*
G36*
X26230590Y-42363696D02*
G01*
X26230590Y-42139726D01*
X26115795Y-42139726D01*
X26115795Y-42363696D01*
X26114888Y-42377451D01*
X26112221Y-42390224D01*
X26107877Y-42401933D01*
X26101936Y-42412498D01*
X26094483Y-42421838D01*
X26085598Y-42429872D01*
X26075364Y-42436519D01*
X26063863Y-42441697D01*
X26051177Y-42445327D01*
X26037388Y-42447328D01*
X26027624Y-42447716D01*
X25575530Y-42447716D01*
X25575530Y-42132887D01*
X25460736Y-42132887D01*
X25460736Y-42447716D01*
X25243604Y-42447716D01*
X25243604Y-42573745D01*
X25460736Y-42573745D01*
X25460736Y-42795029D01*
X25575530Y-42795029D01*
X25575530Y-42573745D01*
X26027624Y-42573745D01*
X26039058Y-42573504D01*
X26050229Y-42572787D01*
X26061131Y-42571599D01*
X26071758Y-42569949D01*
X26082101Y-42567842D01*
X26092156Y-42565286D01*
X26101915Y-42562288D01*
X26111372Y-42558854D01*
X26120520Y-42554991D01*
X26129353Y-42550707D01*
X26146047Y-42540901D01*
X26161400Y-42529491D01*
X26175360Y-42516531D01*
X26187875Y-42502078D01*
X26198892Y-42486185D01*
X26203822Y-42477716D01*
X26208358Y-42468908D01*
X26212493Y-42459768D01*
X26216221Y-42450303D01*
X26219535Y-42440519D01*
X26222428Y-42430424D01*
X26224895Y-42420024D01*
X26226927Y-42409327D01*
X26228520Y-42398338D01*
X26229665Y-42387066D01*
X26230357Y-42375516D01*
X26230590Y-42363696D01*
G37*
G36*
X25951845Y-41299629D02*
G01*
X25969373Y-41300650D01*
X25986412Y-41302342D01*
X26002958Y-41304695D01*
X26019003Y-41307699D01*
X26034543Y-41311346D01*
X26049570Y-41315627D01*
X26064081Y-41320531D01*
X26078068Y-41326051D01*
X26091525Y-41332176D01*
X26104448Y-41338898D01*
X26116829Y-41346208D01*
X26128664Y-41354096D01*
X26139946Y-41362553D01*
X26150669Y-41371570D01*
X26160828Y-41381138D01*
X26170416Y-41391247D01*
X26179429Y-41401890D01*
X26187859Y-41413055D01*
X26195701Y-41424735D01*
X26202950Y-41436919D01*
X26209599Y-41449600D01*
X26215643Y-41462767D01*
X26221075Y-41476412D01*
X26225891Y-41490525D01*
X26230083Y-41505097D01*
X26233646Y-41520119D01*
X26236575Y-41535582D01*
X26238863Y-41551476D01*
X26240504Y-41567793D01*
X26241494Y-41584524D01*
X26241825Y-41601659D01*
X26241494Y-41618772D01*
X26240504Y-41635483D01*
X26238863Y-41651784D01*
X26236575Y-41667665D01*
X26233646Y-41683117D01*
X26230083Y-41698130D01*
X26225891Y-41712695D01*
X26221075Y-41726802D01*
X26215643Y-41740444D01*
X26209599Y-41753609D01*
X26202950Y-41766289D01*
X26195701Y-41778475D01*
X26187859Y-41790157D01*
X26179429Y-41801326D01*
X26170416Y-41811973D01*
X26160828Y-41822088D01*
X26150669Y-41831662D01*
X26139946Y-41840685D01*
X26128664Y-41849150D01*
X26116829Y-41857045D01*
X26104448Y-41864362D01*
X26091525Y-41871092D01*
X26078068Y-41877225D01*
X26064081Y-41882751D01*
X26049570Y-41887663D01*
X26034543Y-41891950D01*
X26019003Y-41895603D01*
X26002958Y-41898612D01*
X25986412Y-41900969D01*
X25969373Y-41902664D01*
X25951845Y-41903688D01*
X25933834Y-41904031D01*
X25757491Y-41904031D01*
X25739352Y-41903692D01*
X25721711Y-41902680D01*
X25704575Y-41901004D01*
X25687947Y-41898672D01*
X25671834Y-41895693D01*
X25656239Y-41892075D01*
X25641168Y-41887827D01*
X25626627Y-41882958D01*
X25612619Y-41877475D01*
X25599151Y-41871387D01*
X25586227Y-41864703D01*
X25573852Y-41857431D01*
X25562032Y-41849580D01*
X25550771Y-41841159D01*
X25540075Y-41832175D01*
X25529948Y-41822637D01*
X25520396Y-41812554D01*
X25511424Y-41801935D01*
X25503036Y-41790787D01*
X25495238Y-41779119D01*
X25488034Y-41766940D01*
X25481431Y-41754258D01*
X25475433Y-41741082D01*
X25470044Y-41727421D01*
X25465270Y-41713282D01*
X25461117Y-41698674D01*
X25457589Y-41683606D01*
X25454691Y-41668086D01*
X25452428Y-41652123D01*
X25450805Y-41635725D01*
X25449828Y-41618901D01*
X25449501Y-41601659D01*
X25561364Y-41601659D01*
X25561549Y-41611770D01*
X25563020Y-41631236D01*
X25565953Y-41649662D01*
X25570339Y-41667012D01*
X25576166Y-41683247D01*
X25583425Y-41698333D01*
X25592105Y-41712231D01*
X25602198Y-41724905D01*
X25613692Y-41736318D01*
X25626578Y-41746433D01*
X25640846Y-41755214D01*
X25656485Y-41762623D01*
X25673486Y-41768623D01*
X25691839Y-41773178D01*
X25701519Y-41774903D01*
X25711534Y-41776252D01*
X25721881Y-41777221D01*
X25732560Y-41777806D01*
X25743569Y-41778002D01*
X25948001Y-41778002D01*
X25958988Y-41777806D01*
X25969646Y-41777221D01*
X25979974Y-41776252D01*
X25989970Y-41774903D01*
X26008962Y-41771084D01*
X26026612Y-41765801D01*
X26042910Y-41759092D01*
X26057845Y-41750992D01*
X26071407Y-41741540D01*
X26083586Y-41730771D01*
X26094370Y-41718723D01*
X26103751Y-41705433D01*
X26111716Y-41690936D01*
X26118257Y-41675271D01*
X26123362Y-41658474D01*
X26127021Y-41640581D01*
X26129225Y-41621631D01*
X26129777Y-41611770D01*
X26129961Y-41601659D01*
X26129777Y-41591546D01*
X26128306Y-41572075D01*
X26125373Y-41553639D01*
X26120990Y-41536275D01*
X26115165Y-41520022D01*
X26107911Y-41504917D01*
X26099237Y-41490998D01*
X26089153Y-41478301D01*
X26077670Y-41466866D01*
X26064799Y-41456728D01*
X26050549Y-41447926D01*
X26034931Y-41440497D01*
X26017956Y-41434480D01*
X25999633Y-41429910D01*
X25989970Y-41428181D01*
X25979974Y-41426827D01*
X25969646Y-41425855D01*
X25958988Y-41425268D01*
X25948001Y-41425071D01*
X25743569Y-41425071D01*
X25732560Y-41425268D01*
X25721881Y-41425855D01*
X25711534Y-41426827D01*
X25701519Y-41428181D01*
X25682494Y-41432012D01*
X25664816Y-41437310D01*
X25648495Y-41444038D01*
X25633540Y-41452158D01*
X25619962Y-41461632D01*
X25607770Y-41472424D01*
X25596976Y-41484494D01*
X25587588Y-41497807D01*
X25579617Y-41512324D01*
X25573072Y-41528008D01*
X25567965Y-41544821D01*
X25564305Y-41562725D01*
X25562101Y-41581684D01*
X25561549Y-41591546D01*
X25561364Y-41601659D01*
X25449501Y-41601659D01*
X25449828Y-41584395D01*
X25450805Y-41567552D01*
X25452428Y-41551138D01*
X25454691Y-41535161D01*
X25457589Y-41519630D01*
X25461117Y-41504552D01*
X25465270Y-41489938D01*
X25470044Y-41475793D01*
X25475433Y-41462128D01*
X25481431Y-41448950D01*
X25488034Y-41436268D01*
X25495238Y-41424091D01*
X25503036Y-41412425D01*
X25511424Y-41401281D01*
X25520396Y-41390666D01*
X25529948Y-41380588D01*
X25540075Y-41371057D01*
X25550771Y-41362079D01*
X25562032Y-41353665D01*
X25573852Y-41345821D01*
X25586227Y-41338557D01*
X25599151Y-41331881D01*
X25612619Y-41325801D01*
X25626627Y-41320325D01*
X25641168Y-41315462D01*
X25656239Y-41311221D01*
X25671834Y-41307609D01*
X25687947Y-41304635D01*
X25704575Y-41302307D01*
X25721711Y-41300634D01*
X25739352Y-41299624D01*
X25757491Y-41299286D01*
X25933834Y-41299286D01*
X25951845Y-41299629D01*
G37*
G36*
X25974238Y-40464505D02*
G01*
X25990295Y-40465357D01*
X26005936Y-40466769D01*
X26021152Y-40468731D01*
X26035937Y-40471238D01*
X26050282Y-40474282D01*
X26064180Y-40477855D01*
X26077625Y-40481950D01*
X26090608Y-40486560D01*
X26103122Y-40491676D01*
X26115159Y-40497292D01*
X26126713Y-40503401D01*
X26137775Y-40509994D01*
X26148339Y-40517064D01*
X26158397Y-40524605D01*
X26167941Y-40532608D01*
X26176965Y-40541066D01*
X26185460Y-40549971D01*
X26193419Y-40559317D01*
X26200835Y-40569096D01*
X26207700Y-40579300D01*
X26214008Y-40589922D01*
X26219749Y-40600955D01*
X26224918Y-40612391D01*
X26229507Y-40624223D01*
X26233508Y-40636442D01*
X26236914Y-40649043D01*
X26239717Y-40662017D01*
X26241910Y-40675357D01*
X26243486Y-40689056D01*
X26244437Y-40703106D01*
X26244756Y-40717499D01*
X26244576Y-40728158D01*
X26244040Y-40738606D01*
X26243152Y-40748839D01*
X26241917Y-40758849D01*
X26238420Y-40778183D01*
X26233585Y-40796562D01*
X26227447Y-40813940D01*
X26220039Y-40830272D01*
X26211397Y-40845514D01*
X26201555Y-40859618D01*
X26190549Y-40872541D01*
X26178412Y-40884236D01*
X26165179Y-40894658D01*
X26150886Y-40903761D01*
X26135567Y-40911501D01*
X26119256Y-40917831D01*
X26101989Y-40922707D01*
X26083800Y-40926083D01*
X26083800Y-40930479D01*
X26258677Y-40927548D01*
X26482648Y-40927548D01*
X26482648Y-41053578D01*
X25460736Y-41053578D01*
X25460736Y-40927548D01*
X25607770Y-40927548D01*
X25607770Y-40926083D01*
X25589337Y-40922723D01*
X25571882Y-40917892D01*
X25555436Y-40911627D01*
X25540027Y-40903967D01*
X25525684Y-40894953D01*
X25512437Y-40884622D01*
X25500313Y-40873014D01*
X25489343Y-40860168D01*
X25479555Y-40846122D01*
X25470978Y-40830916D01*
X25463640Y-40814589D01*
X25457572Y-40797180D01*
X25452802Y-40778727D01*
X25450913Y-40769122D01*
X25449397Y-40759509D01*
X25555747Y-40759509D01*
X25556546Y-40778503D01*
X25558923Y-40796532D01*
X25562847Y-40813563D01*
X25568287Y-40829557D01*
X25575213Y-40844480D01*
X25583593Y-40858294D01*
X25593397Y-40870965D01*
X25604595Y-40882455D01*
X25617155Y-40892729D01*
X25631047Y-40901750D01*
X25646239Y-40909482D01*
X25662702Y-40915889D01*
X25680404Y-40920936D01*
X25699315Y-40924585D01*
X25709213Y-40925875D01*
X25719403Y-40926802D01*
X25729879Y-40927361D01*
X25740638Y-40927548D01*
X25950687Y-40927548D01*
X25961446Y-40927361D01*
X25971923Y-40926802D01*
X25982112Y-40925875D01*
X25992011Y-40924585D01*
X26010922Y-40920936D01*
X26028624Y-40915889D01*
X26045086Y-40909482D01*
X26060279Y-40901750D01*
X26074170Y-40892729D01*
X26086730Y-40882455D01*
X26097928Y-40870965D01*
X26107732Y-40858294D01*
X26116113Y-40844480D01*
X26123039Y-40829557D01*
X26128479Y-40813563D01*
X26132403Y-40796532D01*
X26134780Y-40778503D01*
X26135579Y-40759509D01*
X26135427Y-40749676D01*
X26134195Y-40730784D01*
X26131701Y-40712948D01*
X26127911Y-40696199D01*
X26122792Y-40680563D01*
X26116311Y-40666072D01*
X26108436Y-40652753D01*
X26099133Y-40640636D01*
X26088369Y-40629749D01*
X26076113Y-40620122D01*
X26062330Y-40611783D01*
X26046988Y-40604762D01*
X26030053Y-40599088D01*
X26011494Y-40594789D01*
X26001595Y-40593164D01*
X25991277Y-40591894D01*
X25980536Y-40590983D01*
X25969369Y-40590433D01*
X25957770Y-40590249D01*
X25733555Y-40590249D01*
X25721978Y-40590433D01*
X25710830Y-40590983D01*
X25700105Y-40591894D01*
X25689801Y-40593164D01*
X25679913Y-40594789D01*
X25661370Y-40599088D01*
X25644444Y-40604762D01*
X25629104Y-40611783D01*
X25615318Y-40620122D01*
X25603053Y-40629749D01*
X25592278Y-40640636D01*
X25582962Y-40652753D01*
X25575071Y-40666072D01*
X25568576Y-40680563D01*
X25563442Y-40696199D01*
X25559640Y-40712948D01*
X25557136Y-40730784D01*
X25555900Y-40749676D01*
X25555747Y-40759509D01*
X25449397Y-40759509D01*
X25449359Y-40759270D01*
X25448144Y-40749177D01*
X25447272Y-40738848D01*
X25446746Y-40728287D01*
X25446570Y-40717499D01*
X25446889Y-40703235D01*
X25447839Y-40689297D01*
X25449414Y-40675696D01*
X25451606Y-40662438D01*
X25454407Y-40649532D01*
X25457809Y-40636987D01*
X25461806Y-40624810D01*
X25466388Y-40613009D01*
X25471549Y-40601594D01*
X25477281Y-40590572D01*
X25483576Y-40579951D01*
X25490426Y-40569740D01*
X25497825Y-40559947D01*
X25505764Y-40550580D01*
X25514235Y-40541647D01*
X25523232Y-40533157D01*
X25532746Y-40525118D01*
X25542769Y-40517537D01*
X25553295Y-40510424D01*
X25564315Y-40503787D01*
X25575821Y-40497633D01*
X25587807Y-40491971D01*
X25600264Y-40486809D01*
X25613186Y-40482156D01*
X25626563Y-40478019D01*
X25640389Y-40474408D01*
X25654655Y-40471329D01*
X25669355Y-40468791D01*
X25684481Y-40466804D01*
X25700024Y-40465374D01*
X25715978Y-40464509D01*
X25732334Y-40464220D01*
X25957770Y-40464220D01*
X25974238Y-40464505D01*
G37*
G36*
X26244756Y-39924687D02*
G01*
X26244424Y-39908174D01*
X26243436Y-39892026D01*
X26241799Y-39876254D01*
X26239523Y-39860868D01*
X26236615Y-39845878D01*
X26233085Y-39831296D01*
X26228940Y-39817131D01*
X26224190Y-39803394D01*
X26218842Y-39790095D01*
X26212906Y-39777245D01*
X26206390Y-39764854D01*
X26199302Y-39752932D01*
X26191651Y-39741491D01*
X26183446Y-39730540D01*
X26174695Y-39720089D01*
X26165407Y-39710150D01*
X26155590Y-39700733D01*
X26145253Y-39691847D01*
X26134404Y-39683504D01*
X26123052Y-39675714D01*
X26111205Y-39668488D01*
X26098872Y-39661835D01*
X26086061Y-39655766D01*
X26072782Y-39650292D01*
X26059042Y-39645423D01*
X26044850Y-39641169D01*
X26030215Y-39637541D01*
X26015145Y-39634549D01*
X25999649Y-39632204D01*
X25983734Y-39630516D01*
X25967411Y-39629496D01*
X25950687Y-39629153D01*
X25460736Y-39629153D01*
X25460736Y-39755183D01*
X25950687Y-39755183D01*
X25961077Y-39755374D01*
X25971222Y-39755946D01*
X25981117Y-39756892D01*
X26000134Y-39759889D01*
X26018083Y-39764325D01*
X26034919Y-39770160D01*
X26050599Y-39777352D01*
X26065076Y-39785862D01*
X26078307Y-39795649D01*
X26090246Y-39806672D01*
X26100849Y-39818892D01*
X26110072Y-39832268D01*
X26117868Y-39846759D01*
X26124195Y-39862325D01*
X26129006Y-39878925D01*
X26132258Y-39896520D01*
X26133906Y-39915068D01*
X26134114Y-39924687D01*
X26133285Y-39943382D01*
X26130830Y-39961157D01*
X26126793Y-39977971D01*
X26121218Y-39993785D01*
X26114151Y-40008560D01*
X26105636Y-40022257D01*
X26095718Y-40034837D01*
X26084441Y-40046259D01*
X26071850Y-40056485D01*
X26057990Y-40065475D01*
X26042906Y-40073190D01*
X26026643Y-40079591D01*
X26009244Y-40084637D01*
X25990756Y-40088291D01*
X25971222Y-40090512D01*
X25961077Y-40091073D01*
X25950687Y-40091261D01*
X25460736Y-40091261D01*
X25460736Y-40217290D01*
X25950687Y-40217290D01*
X25967411Y-40216955D01*
X25983734Y-40215957D01*
X25999649Y-40214306D01*
X26015145Y-40212010D01*
X26030215Y-40209080D01*
X26044850Y-40205524D01*
X26059042Y-40201353D01*
X26072782Y-40196575D01*
X26086061Y-40191201D01*
X26098872Y-40185239D01*
X26111205Y-40178700D01*
X26123052Y-40171592D01*
X26134404Y-40163925D01*
X26145253Y-40155709D01*
X26155590Y-40146953D01*
X26165407Y-40137667D01*
X26174695Y-40127860D01*
X26183446Y-40117541D01*
X26191651Y-40106720D01*
X26199302Y-40095407D01*
X26206390Y-40083611D01*
X26212906Y-40071341D01*
X26218842Y-40058608D01*
X26224190Y-40045419D01*
X26228940Y-40031786D01*
X26233085Y-40017717D01*
X26236615Y-40003222D01*
X26239523Y-39988310D01*
X26241799Y-39972992D01*
X26243436Y-39957275D01*
X26244424Y-39941171D01*
X26244756Y-39924687D01*
G37*
G36*
X26241825Y-39114778D02*
G01*
X26241825Y-39053229D01*
X26241583Y-39037303D01*
X26240862Y-39021816D01*
X26239665Y-39006771D01*
X26237996Y-38992173D01*
X26235858Y-38978027D01*
X26233256Y-38964336D01*
X26230194Y-38951105D01*
X26226674Y-38938339D01*
X26222702Y-38926042D01*
X26218280Y-38914219D01*
X26213413Y-38902873D01*
X26208105Y-38892010D01*
X26202359Y-38881633D01*
X26196180Y-38871748D01*
X26189570Y-38862358D01*
X26182535Y-38853469D01*
X26175077Y-38845083D01*
X26167201Y-38837207D01*
X26158911Y-38829844D01*
X26150210Y-38822999D01*
X26141102Y-38816676D01*
X26131591Y-38810879D01*
X26121681Y-38805614D01*
X26111376Y-38800884D01*
X26100680Y-38796694D01*
X26089595Y-38793048D01*
X26078128Y-38789951D01*
X26066280Y-38787407D01*
X26054056Y-38785421D01*
X26041460Y-38783997D01*
X26028496Y-38783139D01*
X26015167Y-38782852D01*
X26002720Y-38783045D01*
X25990610Y-38783624D01*
X25978838Y-38784589D01*
X25967405Y-38785940D01*
X25956310Y-38787675D01*
X25945555Y-38789796D01*
X25935138Y-38792301D01*
X25925061Y-38795190D01*
X25915323Y-38798463D01*
X25905925Y-38802120D01*
X25896867Y-38806160D01*
X25888149Y-38810582D01*
X25871735Y-38820576D01*
X25856684Y-38832097D01*
X25842999Y-38845144D01*
X25830680Y-38859714D01*
X25819731Y-38875805D01*
X25814770Y-38884420D01*
X25810152Y-38893414D01*
X25805877Y-38902787D01*
X25801946Y-38912538D01*
X25798358Y-38922668D01*
X25795114Y-38933175D01*
X25792213Y-38944060D01*
X25789657Y-38955323D01*
X25787446Y-38966963D01*
X25785579Y-38978979D01*
X25757491Y-39177792D01*
X25754839Y-39190911D01*
X25750883Y-39202784D01*
X25745643Y-39213401D01*
X25739141Y-39222752D01*
X25731400Y-39230829D01*
X25722441Y-39237620D01*
X25712286Y-39243117D01*
X25700957Y-39247310D01*
X25688474Y-39250189D01*
X25674861Y-39251745D01*
X25665167Y-39252042D01*
X25652829Y-39251453D01*
X25641111Y-39249701D01*
X25630037Y-39246805D01*
X25619631Y-39242788D01*
X25609918Y-39237670D01*
X25600922Y-39231473D01*
X25592667Y-39224218D01*
X25585178Y-39215925D01*
X25578479Y-39206616D01*
X25572594Y-39196312D01*
X25567547Y-39185035D01*
X25563364Y-39172805D01*
X25560068Y-39159643D01*
X25557683Y-39145570D01*
X25556235Y-39130608D01*
X25555747Y-39114778D01*
X25555747Y-39053229D01*
X25556218Y-39039077D01*
X25557603Y-39025583D01*
X25559862Y-39012775D01*
X25562952Y-39000682D01*
X25566832Y-38989332D01*
X25571460Y-38978752D01*
X25576796Y-38968972D01*
X25582796Y-38960019D01*
X25589421Y-38951923D01*
X25596629Y-38944710D01*
X25604377Y-38938410D01*
X25612625Y-38933050D01*
X25625842Y-38926835D01*
X25639949Y-38922897D01*
X25649780Y-38921582D01*
X25649780Y-38794087D01*
X25638719Y-38795028D01*
X25627889Y-38796517D01*
X25617298Y-38798545D01*
X25606954Y-38801105D01*
X25596864Y-38804186D01*
X25587037Y-38807781D01*
X25577481Y-38811881D01*
X25568203Y-38816477D01*
X25559211Y-38821561D01*
X25550513Y-38827124D01*
X25542118Y-38833157D01*
X25534032Y-38839652D01*
X25526264Y-38846600D01*
X25518821Y-38853993D01*
X25511712Y-38861821D01*
X25504944Y-38870077D01*
X25498525Y-38878751D01*
X25492464Y-38887836D01*
X25486767Y-38897321D01*
X25481443Y-38907200D01*
X25476500Y-38917462D01*
X25471945Y-38928100D01*
X25467787Y-38939104D01*
X25464033Y-38950467D01*
X25460692Y-38962180D01*
X25457770Y-38974233D01*
X25455276Y-38986619D01*
X25453218Y-38999328D01*
X25451604Y-39012352D01*
X25450441Y-39025683D01*
X25449737Y-39039311D01*
X25449501Y-39053229D01*
X25449501Y-39114778D01*
X25449738Y-39129815D01*
X25450444Y-39144468D01*
X25451616Y-39158731D01*
X25453248Y-39172598D01*
X25455335Y-39186063D01*
X25457871Y-39199119D01*
X25460853Y-39211760D01*
X25464274Y-39223981D01*
X25468130Y-39235775D01*
X25472415Y-39247136D01*
X25477125Y-39258058D01*
X25482255Y-39268535D01*
X25487799Y-39278560D01*
X25493752Y-39288128D01*
X25500110Y-39297233D01*
X25506867Y-39305867D01*
X25514019Y-39314026D01*
X25521560Y-39321703D01*
X25529484Y-39328892D01*
X25537788Y-39335586D01*
X25546467Y-39341780D01*
X25555514Y-39347468D01*
X25564925Y-39352643D01*
X25574694Y-39357300D01*
X25584818Y-39361431D01*
X25595291Y-39365032D01*
X25606107Y-39368095D01*
X25617262Y-39370615D01*
X25628750Y-39372586D01*
X25640568Y-39374001D01*
X25652708Y-39374855D01*
X25665167Y-39375141D01*
X25676054Y-39374965D01*
X25686685Y-39374440D01*
X25697056Y-39373569D01*
X25707166Y-39372354D01*
X25717010Y-39370798D01*
X25735894Y-39366674D01*
X25753685Y-39361219D01*
X25770359Y-39354457D01*
X25785895Y-39346408D01*
X25800268Y-39337094D01*
X25813456Y-39326539D01*
X25825436Y-39314765D01*
X25836186Y-39301793D01*
X25845682Y-39287645D01*
X25853901Y-39272345D01*
X25860821Y-39255913D01*
X25866418Y-39238373D01*
X25870671Y-39219746D01*
X25872285Y-39210033D01*
X25903060Y-38997053D01*
X25904990Y-38985889D01*
X25907576Y-38975477D01*
X25910824Y-38965812D01*
X25916945Y-38952706D01*
X25924578Y-38941257D01*
X25933737Y-38931449D01*
X25944437Y-38923270D01*
X25956692Y-38916703D01*
X25970517Y-38911736D01*
X25980612Y-38909305D01*
X25991417Y-38907574D01*
X26002933Y-38906539D01*
X26015167Y-38906194D01*
X26028723Y-38906815D01*
X26041533Y-38908665D01*
X26053581Y-38911726D01*
X26064848Y-38915979D01*
X26075316Y-38921406D01*
X26084968Y-38927987D01*
X26093786Y-38935705D01*
X26101751Y-38944541D01*
X26108847Y-38954475D01*
X26115054Y-38965490D01*
X26120355Y-38977567D01*
X26124733Y-38990687D01*
X26128169Y-39004832D01*
X26130646Y-39019983D01*
X26132144Y-39036121D01*
X26132648Y-39053229D01*
X26132648Y-39114778D01*
X26132159Y-39131369D01*
X26130704Y-39147056D01*
X26128301Y-39161816D01*
X26124970Y-39175625D01*
X26120728Y-39188461D01*
X26115595Y-39200301D01*
X26109589Y-39211122D01*
X26102728Y-39220901D01*
X26095032Y-39229616D01*
X26086519Y-39237243D01*
X26077207Y-39243759D01*
X26067115Y-39249142D01*
X26056261Y-39253368D01*
X26044665Y-39256416D01*
X26032345Y-39258261D01*
X26019319Y-39258881D01*
X26019319Y-39384910D01*
X26032529Y-39384624D01*
X26045365Y-39383768D01*
X26057824Y-39382348D01*
X26069903Y-39380366D01*
X26081600Y-39377827D01*
X26092911Y-39374737D01*
X26103833Y-39371098D01*
X26114364Y-39366917D01*
X26124500Y-39362196D01*
X26134239Y-39356940D01*
X26143577Y-39351153D01*
X26152511Y-39344841D01*
X26161039Y-39338006D01*
X26169157Y-39330655D01*
X26176863Y-39322790D01*
X26184153Y-39314416D01*
X26191024Y-39305538D01*
X26197474Y-39296159D01*
X26203499Y-39286285D01*
X26209097Y-39275919D01*
X26214264Y-39265067D01*
X26218997Y-39253731D01*
X26223294Y-39241917D01*
X26227151Y-39229629D01*
X26230566Y-39216871D01*
X26233535Y-39203648D01*
X26236055Y-39189964D01*
X26238124Y-39175823D01*
X26239739Y-39161229D01*
X26240896Y-39146188D01*
X26241592Y-39130703D01*
X26241825Y-39114778D01*
G37*
G36*
X27910590Y-44625629D02*
G01*
X27910590Y-44453438D01*
X26888677Y-44188923D01*
X26888677Y-44319104D01*
X27583060Y-44487144D01*
X27601116Y-44491535D01*
X27618971Y-44495817D01*
X27636563Y-44499977D01*
X27653829Y-44504004D01*
X27670706Y-44507885D01*
X27687130Y-44511607D01*
X27703039Y-44515159D01*
X27718370Y-44518529D01*
X27733060Y-44521704D01*
X27747046Y-44524672D01*
X27760265Y-44527421D01*
X27772653Y-44529939D01*
X27784149Y-44532214D01*
X27794689Y-44534234D01*
X27808568Y-44536757D01*
X27812648Y-44537458D01*
X27799611Y-44539699D01*
X27789623Y-44541467D01*
X27778669Y-44543450D01*
X27766808Y-44545645D01*
X27754099Y-44548049D01*
X27740602Y-44550659D01*
X27726378Y-44553471D01*
X27711485Y-44556482D01*
X27695985Y-44559688D01*
X27679935Y-44563088D01*
X27663397Y-44566677D01*
X27646429Y-44570452D01*
X27629092Y-44574410D01*
X27611445Y-44578548D01*
X27593549Y-44582862D01*
X27584525Y-44585085D01*
X26888677Y-44759963D01*
X26888677Y-44888923D01*
X27910590Y-44625629D01*
G37*
G36*
X27404925Y-43616073D02*
G01*
X27418081Y-43618073D01*
X27429996Y-43621703D01*
X27440636Y-43626882D01*
X27449966Y-43633529D01*
X27457954Y-43641563D01*
X27464566Y-43650902D01*
X27469767Y-43661467D01*
X27473524Y-43673177D01*
X27475803Y-43685949D01*
X27476570Y-43699705D01*
X27476228Y-43708940D01*
X27474449Y-43722008D01*
X27471181Y-43734059D01*
X27466458Y-43745009D01*
X27460313Y-43754773D01*
X27452780Y-43763267D01*
X27443893Y-43770406D01*
X27433686Y-43776106D01*
X27422192Y-43780282D01*
X27409446Y-43782850D01*
X27395481Y-43783724D01*
X27386309Y-43783333D01*
X27373547Y-43781321D01*
X27362005Y-43777672D01*
X27351712Y-43772470D01*
X27342698Y-43765802D01*
X27334991Y-43757750D01*
X27328620Y-43748400D01*
X27323614Y-43737835D01*
X27320003Y-43726142D01*
X27317815Y-43713403D01*
X27317079Y-43699705D01*
X27317407Y-43690429D01*
X27319114Y-43677320D01*
X27322254Y-43665247D01*
X27326798Y-43654292D01*
X27332717Y-43644535D01*
X27339982Y-43636057D01*
X27348564Y-43628939D01*
X27358434Y-43623262D01*
X27369562Y-43619106D01*
X27381921Y-43616554D01*
X27395481Y-43615685D01*
X27404925Y-43616073D01*
G37*
G36*
X27640499Y-43392066D02*
G01*
X27657013Y-43393112D01*
X27673136Y-43394845D01*
X27688857Y-43397255D01*
X27704167Y-43400330D01*
X27719056Y-43404063D01*
X27733512Y-43408443D01*
X27747527Y-43413460D01*
X27761089Y-43419104D01*
X27774189Y-43425366D01*
X27786816Y-43432237D01*
X27798961Y-43439705D01*
X27810612Y-43447762D01*
X27821761Y-43456398D01*
X27832396Y-43465603D01*
X27842507Y-43475368D01*
X27852084Y-43485681D01*
X27861118Y-43496535D01*
X27869597Y-43507919D01*
X27877512Y-43519823D01*
X27884852Y-43532237D01*
X27891607Y-43545152D01*
X27897768Y-43558559D01*
X27903323Y-43572446D01*
X27908263Y-43586806D01*
X27912578Y-43601627D01*
X27916256Y-43616900D01*
X27919289Y-43632615D01*
X27921665Y-43648763D01*
X27923375Y-43665334D01*
X27924409Y-43682318D01*
X27924756Y-43699705D01*
X27924412Y-43717221D01*
X27923389Y-43734317D01*
X27921694Y-43750985D01*
X27919339Y-43767215D01*
X27916332Y-43782999D01*
X27912682Y-43798327D01*
X27908400Y-43813191D01*
X27903495Y-43827581D01*
X27897976Y-43841489D01*
X27891853Y-43854906D01*
X27885136Y-43867823D01*
X27877834Y-43880231D01*
X27869956Y-43892120D01*
X27861512Y-43903483D01*
X27852512Y-43914309D01*
X27842965Y-43924591D01*
X27832880Y-43934319D01*
X27822268Y-43943484D01*
X27811137Y-43952078D01*
X27799498Y-43960090D01*
X27787359Y-43967514D01*
X27774730Y-43974338D01*
X27761622Y-43980555D01*
X27748042Y-43986156D01*
X27734001Y-43991131D01*
X27719509Y-43995472D01*
X27704575Y-43999169D01*
X27689208Y-44002215D01*
X27673418Y-44004599D01*
X27657214Y-44006313D01*
X27640606Y-44007348D01*
X27623604Y-44007695D01*
X27175663Y-44007695D01*
X27158661Y-44007348D01*
X27142056Y-44006313D01*
X27125855Y-44004599D01*
X27110070Y-44002215D01*
X27094708Y-43999169D01*
X27079780Y-43995472D01*
X27065295Y-43991131D01*
X27051263Y-43986156D01*
X27037692Y-43980555D01*
X27024593Y-43974338D01*
X27011975Y-43967514D01*
X26999847Y-43960090D01*
X26988218Y-43952078D01*
X26977098Y-43943484D01*
X26966497Y-43934319D01*
X26956424Y-43924591D01*
X26946889Y-43914309D01*
X26937900Y-43903483D01*
X26929467Y-43892120D01*
X26921600Y-43880231D01*
X26914308Y-43867823D01*
X26907601Y-43854906D01*
X26901488Y-43841489D01*
X26895978Y-43827581D01*
X26891081Y-43813191D01*
X26886806Y-43798327D01*
X26883164Y-43782999D01*
X26880162Y-43767215D01*
X26877811Y-43750985D01*
X26876120Y-43734317D01*
X26875098Y-43717221D01*
X26874756Y-43699705D01*
X26982467Y-43699705D01*
X26982699Y-43710080D01*
X26983391Y-43720229D01*
X26984534Y-43730144D01*
X26988139Y-43749246D01*
X26993446Y-43767332D01*
X27000387Y-43784348D01*
X27008894Y-43800242D01*
X27018899Y-43814959D01*
X27030334Y-43828445D01*
X27043131Y-43840647D01*
X27057222Y-43851512D01*
X27072539Y-43860985D01*
X27089015Y-43869013D01*
X27106580Y-43875542D01*
X27125168Y-43880519D01*
X27134824Y-43882409D01*
X27144710Y-43883890D01*
X27154817Y-43884957D01*
X27165138Y-43885601D01*
X27175663Y-43885818D01*
X27623604Y-43885818D01*
X27634151Y-43885601D01*
X27644490Y-43884957D01*
X27654614Y-43883890D01*
X27664513Y-43882409D01*
X27683607Y-43878228D01*
X27701705Y-43872468D01*
X27718739Y-43865183D01*
X27734643Y-43856426D01*
X27749349Y-43846250D01*
X27762792Y-43834710D01*
X27774904Y-43821859D01*
X27785618Y-43807751D01*
X27794867Y-43792439D01*
X27802585Y-43775977D01*
X27808704Y-43758419D01*
X27813157Y-43739819D01*
X27814738Y-43730144D01*
X27815878Y-43720229D01*
X27816568Y-43710080D01*
X27816800Y-43699705D01*
X27816568Y-43689307D01*
X27815878Y-43679137D01*
X27814738Y-43669203D01*
X27811143Y-43650066D01*
X27805848Y-43631950D01*
X27798921Y-43614907D01*
X27790430Y-43598992D01*
X27780440Y-43584258D01*
X27769018Y-43570757D01*
X27756233Y-43558543D01*
X27742150Y-43547670D01*
X27726836Y-43538190D01*
X27710359Y-43530158D01*
X27692785Y-43523625D01*
X27674181Y-43518647D01*
X27664513Y-43516757D01*
X27654614Y-43515275D01*
X27644490Y-43514209D01*
X27634151Y-43513564D01*
X27623604Y-43513347D01*
X27175663Y-43513347D01*
X27165138Y-43513564D01*
X27154817Y-43514209D01*
X27144710Y-43515275D01*
X27134824Y-43516757D01*
X27115750Y-43520938D01*
X27097665Y-43526701D01*
X27080636Y-43533990D01*
X27064732Y-43542752D01*
X27050019Y-43552935D01*
X27036566Y-43564486D01*
X27024442Y-43577350D01*
X27013714Y-43591474D01*
X27004449Y-43606806D01*
X26996717Y-43623291D01*
X26990584Y-43640877D01*
X26986120Y-43659510D01*
X26984534Y-43669203D01*
X26983391Y-43679137D01*
X26982699Y-43689307D01*
X26982467Y-43699705D01*
X26874756Y-43699705D01*
X26875098Y-43682189D01*
X26876120Y-43665092D01*
X26877811Y-43648425D01*
X26880162Y-43632194D01*
X26883164Y-43616411D01*
X26886806Y-43601083D01*
X26891081Y-43586219D01*
X26895978Y-43571828D01*
X26901488Y-43557920D01*
X26907601Y-43544503D01*
X26914308Y-43531586D01*
X26921600Y-43519179D01*
X26929467Y-43507289D01*
X26937900Y-43495926D01*
X26946889Y-43485100D01*
X26956424Y-43474818D01*
X26966497Y-43465090D01*
X26977098Y-43455925D01*
X26988218Y-43447332D01*
X26999847Y-43439319D01*
X27011975Y-43431896D01*
X27024593Y-43425071D01*
X27037692Y-43418854D01*
X27051263Y-43413254D01*
X27065295Y-43408278D01*
X27079780Y-43403938D01*
X27094708Y-43400240D01*
X27110070Y-43397195D01*
X27125855Y-43394810D01*
X27142056Y-43393096D01*
X27158661Y-43392061D01*
X27175663Y-43391714D01*
X27623604Y-43391714D01*
X27640499Y-43392066D01*
G37*
G36*
X27924756Y-42860486D02*
G01*
X27924235Y-42847887D01*
X27922696Y-42835849D01*
X27920175Y-42824407D01*
X27916707Y-42813595D01*
X27912327Y-42803450D01*
X27907071Y-42794004D01*
X27900975Y-42785293D01*
X27894073Y-42777352D01*
X27886401Y-42770215D01*
X27877994Y-42763917D01*
X27868888Y-42758493D01*
X27859119Y-42753977D01*
X27848722Y-42750405D01*
X27837731Y-42747810D01*
X27826183Y-42746227D01*
X27814114Y-42745692D01*
X27801498Y-42746227D01*
X27789413Y-42747810D01*
X27777899Y-42750405D01*
X27766994Y-42753977D01*
X27756737Y-42758493D01*
X27747168Y-42763917D01*
X27738325Y-42770215D01*
X27730247Y-42777352D01*
X27722973Y-42785293D01*
X27716543Y-42794004D01*
X27710995Y-42803450D01*
X27706368Y-42813595D01*
X27702702Y-42824407D01*
X27700035Y-42835849D01*
X27698406Y-42847887D01*
X27697854Y-42860486D01*
X27698406Y-42873086D01*
X27700035Y-42885124D01*
X27702702Y-42896566D01*
X27706368Y-42907377D01*
X27710995Y-42917523D01*
X27716543Y-42926968D01*
X27722973Y-42935679D01*
X27730247Y-42943620D01*
X27738325Y-42950757D01*
X27747168Y-42957055D01*
X27756737Y-42962479D01*
X27766994Y-42966995D01*
X27777899Y-42970568D01*
X27789413Y-42973163D01*
X27801498Y-42974745D01*
X27814114Y-42975280D01*
X27826183Y-42974745D01*
X27837731Y-42973163D01*
X27848722Y-42970568D01*
X27859119Y-42966995D01*
X27868888Y-42962479D01*
X27877994Y-42957055D01*
X27886401Y-42950757D01*
X27894073Y-42943620D01*
X27900975Y-42935679D01*
X27907071Y-42926968D01*
X27912327Y-42917523D01*
X27916707Y-42907377D01*
X27920175Y-42896566D01*
X27922696Y-42885124D01*
X27924235Y-42873086D01*
X27924756Y-42860486D01*
G37*
G36*
X27404925Y-41937636D02*
G01*
X27418081Y-41939637D01*
X27429996Y-41943267D01*
X27440636Y-41948445D01*
X27449966Y-41955092D01*
X27457954Y-41963126D01*
X27464566Y-41972465D01*
X27469767Y-41983030D01*
X27473524Y-41994740D01*
X27475803Y-42007513D01*
X27476570Y-42021268D01*
X27476228Y-42030503D01*
X27474449Y-42043571D01*
X27471181Y-42055622D01*
X27466458Y-42066572D01*
X27460313Y-42076336D01*
X27452780Y-42084830D01*
X27443893Y-42091969D01*
X27433686Y-42097669D01*
X27422192Y-42101845D01*
X27409446Y-42104413D01*
X27395481Y-42105287D01*
X27386309Y-42104897D01*
X27373547Y-42102884D01*
X27362005Y-42099235D01*
X27351712Y-42094033D01*
X27342698Y-42087365D01*
X27334991Y-42079313D01*
X27328620Y-42069963D01*
X27323614Y-42059399D01*
X27320003Y-42047705D01*
X27317815Y-42034967D01*
X27317079Y-42021268D01*
X27317407Y-42011992D01*
X27319114Y-41998883D01*
X27322254Y-41986810D01*
X27326798Y-41975855D01*
X27332717Y-41966098D01*
X27339982Y-41957620D01*
X27348564Y-41950502D01*
X27358434Y-41944825D01*
X27369562Y-41940669D01*
X27381921Y-41938117D01*
X27395481Y-41937248D01*
X27404925Y-41937636D01*
G37*
G36*
X27640499Y-41713629D02*
G01*
X27657013Y-41714676D01*
X27673136Y-41716409D01*
X27688857Y-41718818D01*
X27704167Y-41721894D01*
X27719056Y-41725626D01*
X27733512Y-41730006D01*
X27747527Y-41735023D01*
X27761089Y-41740667D01*
X27774189Y-41746930D01*
X27786816Y-41753800D01*
X27798961Y-41761268D01*
X27810612Y-41769326D01*
X27821761Y-41777961D01*
X27832396Y-41787166D01*
X27842507Y-41796931D01*
X27852084Y-41807245D01*
X27861118Y-41818098D01*
X27869597Y-41829482D01*
X27877512Y-41841386D01*
X27884852Y-41853800D01*
X27891607Y-41866716D01*
X27897768Y-41880122D01*
X27903323Y-41894010D01*
X27908263Y-41908369D01*
X27912578Y-41923190D01*
X27916256Y-41938463D01*
X27919289Y-41954178D01*
X27921665Y-41970326D01*
X27923375Y-41986897D01*
X27924409Y-42003881D01*
X27924756Y-42021268D01*
X27924412Y-42038784D01*
X27923389Y-42055880D01*
X27921694Y-42072548D01*
X27919339Y-42088778D01*
X27916332Y-42104562D01*
X27912682Y-42119890D01*
X27908400Y-42134754D01*
X27903495Y-42149144D01*
X27897976Y-42163052D01*
X27891853Y-42176469D01*
X27885136Y-42189386D01*
X27877834Y-42201794D01*
X27869956Y-42213683D01*
X27861512Y-42225046D01*
X27852512Y-42235873D01*
X27842965Y-42246154D01*
X27832880Y-42255882D01*
X27822268Y-42265047D01*
X27811137Y-42273641D01*
X27799498Y-42281654D01*
X27787359Y-42289077D01*
X27774730Y-42295901D01*
X27761622Y-42302118D01*
X27748042Y-42307719D01*
X27734001Y-42312694D01*
X27719509Y-42317035D01*
X27704575Y-42320732D01*
X27689208Y-42323778D01*
X27673418Y-42326162D01*
X27657214Y-42327876D01*
X27640606Y-42328911D01*
X27623604Y-42329258D01*
X27175663Y-42329258D01*
X27158661Y-42328911D01*
X27142056Y-42327876D01*
X27125855Y-42326162D01*
X27110070Y-42323778D01*
X27094708Y-42320732D01*
X27079780Y-42317035D01*
X27065295Y-42312694D01*
X27051263Y-42307719D01*
X27037692Y-42302118D01*
X27024593Y-42295901D01*
X27011975Y-42289077D01*
X26999847Y-42281654D01*
X26988218Y-42273641D01*
X26977098Y-42265047D01*
X26966497Y-42255882D01*
X26956424Y-42246154D01*
X26946889Y-42235873D01*
X26937900Y-42225046D01*
X26929467Y-42213683D01*
X26921600Y-42201794D01*
X26914308Y-42189386D01*
X26907601Y-42176469D01*
X26901488Y-42163052D01*
X26895978Y-42149144D01*
X26891081Y-42134754D01*
X26886806Y-42119890D01*
X26883164Y-42104562D01*
X26880162Y-42088778D01*
X26877811Y-42072548D01*
X26876120Y-42055880D01*
X26875098Y-42038784D01*
X26874756Y-42021268D01*
X26982467Y-42021268D01*
X26982699Y-42031644D01*
X26983391Y-42041792D01*
X26984534Y-42051707D01*
X26988139Y-42070809D01*
X26993446Y-42088895D01*
X27000387Y-42105911D01*
X27008894Y-42121805D01*
X27018899Y-42136522D01*
X27030334Y-42150008D01*
X27043131Y-42162210D01*
X27057222Y-42173075D01*
X27072539Y-42182548D01*
X27089015Y-42190576D01*
X27106580Y-42197105D01*
X27125168Y-42202082D01*
X27134824Y-42203972D01*
X27144710Y-42205453D01*
X27154817Y-42206520D01*
X27165138Y-42207164D01*
X27175663Y-42207381D01*
X27623604Y-42207381D01*
X27634151Y-42207164D01*
X27644490Y-42206520D01*
X27654614Y-42205453D01*
X27664513Y-42203972D01*
X27683607Y-42199791D01*
X27701705Y-42194031D01*
X27718739Y-42186746D01*
X27734643Y-42177989D01*
X27749349Y-42167813D01*
X27762792Y-42156273D01*
X27774904Y-42143422D01*
X27785618Y-42129314D01*
X27794867Y-42114002D01*
X27802585Y-42097540D01*
X27808704Y-42079982D01*
X27813157Y-42061382D01*
X27814738Y-42051707D01*
X27815878Y-42041792D01*
X27816568Y-42031644D01*
X27816800Y-42021268D01*
X27816568Y-42010870D01*
X27815878Y-42000700D01*
X27814738Y-41990766D01*
X27811143Y-41971629D01*
X27805848Y-41953513D01*
X27798921Y-41936471D01*
X27790430Y-41920555D01*
X27780440Y-41905821D01*
X27769018Y-41892320D01*
X27756233Y-41880106D01*
X27742150Y-41869233D01*
X27726836Y-41859753D01*
X27710359Y-41851721D01*
X27692785Y-41845188D01*
X27674181Y-41840210D01*
X27664513Y-41838320D01*
X27654614Y-41836838D01*
X27644490Y-41835772D01*
X27634151Y-41835127D01*
X27623604Y-41834910D01*
X27175663Y-41834910D01*
X27165138Y-41835127D01*
X27154817Y-41835772D01*
X27144710Y-41836838D01*
X27134824Y-41838320D01*
X27115750Y-41842502D01*
X27097665Y-41848264D01*
X27080636Y-41855553D01*
X27064732Y-41864316D01*
X27050019Y-41874499D01*
X27036566Y-41886049D01*
X27024442Y-41898913D01*
X27013714Y-41913037D01*
X27004449Y-41928369D01*
X26996717Y-41944854D01*
X26990584Y-41962440D01*
X26986120Y-41981073D01*
X26984534Y-41990766D01*
X26983391Y-42000700D01*
X26982699Y-42010870D01*
X26982467Y-42021268D01*
X26874756Y-42021268D01*
X26875098Y-42003752D01*
X26876120Y-41986655D01*
X26877811Y-41969988D01*
X26880162Y-41953758D01*
X26883164Y-41937974D01*
X26886806Y-41922646D01*
X26891081Y-41907782D01*
X26895978Y-41893391D01*
X26901488Y-41879483D01*
X26907601Y-41866066D01*
X26914308Y-41853149D01*
X26921600Y-41840742D01*
X26929467Y-41828852D01*
X26937900Y-41817490D01*
X26946889Y-41806663D01*
X26956424Y-41796381D01*
X26966497Y-41786653D01*
X26977098Y-41777488D01*
X26988218Y-41768895D01*
X26999847Y-41760882D01*
X27011975Y-41753459D01*
X27024593Y-41746634D01*
X27037692Y-41740417D01*
X27051263Y-41734817D01*
X27065295Y-41729842D01*
X27079780Y-41725501D01*
X27094708Y-41721803D01*
X27110070Y-41718758D01*
X27125855Y-41716374D01*
X27142056Y-41714660D01*
X27158661Y-41713625D01*
X27175663Y-41713278D01*
X27623604Y-41713278D01*
X27640499Y-41713629D01*
G37*
G36*
X27910590Y-41476118D02*
G01*
X27910590Y-40845971D01*
X27795795Y-40845971D01*
X27795795Y-41072873D01*
X26888677Y-41072873D01*
X26888677Y-41245064D01*
X27060869Y-41476118D01*
X27204972Y-41476118D01*
X26997854Y-41198902D01*
X27795795Y-41198902D01*
X27795795Y-41476118D01*
X27910590Y-41476118D01*
G37*
%TO.C,J12*%
X47578851Y-61733425D02*
X47578851Y-62447710D01*
X47578851Y-62447710D02*
X47531232Y-62590567D01*
X47531232Y-62590567D02*
X47435994Y-62685806D01*
X47435994Y-62685806D02*
X47293137Y-62733425D01*
X47293137Y-62733425D02*
X47197899Y-62733425D01*
X48578851Y-62733425D02*
X48007423Y-62733425D01*
X48293137Y-62733425D02*
X48293137Y-61733425D01*
X48293137Y-61733425D02*
X48197899Y-61876282D01*
X48197899Y-61876282D02*
X48102661Y-61971520D01*
X48102661Y-61971520D02*
X48007423Y-62019139D01*
X48959804Y-61828663D02*
X49007423Y-61781044D01*
X49007423Y-61781044D02*
X49102661Y-61733425D01*
X49102661Y-61733425D02*
X49340756Y-61733425D01*
X49340756Y-61733425D02*
X49435994Y-61781044D01*
X49435994Y-61781044D02*
X49483613Y-61828663D01*
X49483613Y-61828663D02*
X49531232Y-61923901D01*
X49531232Y-61923901D02*
X49531232Y-62019139D01*
X49531232Y-62019139D02*
X49483613Y-62161996D01*
X49483613Y-62161996D02*
X48912185Y-62733425D01*
X48912185Y-62733425D02*
X49531232Y-62733425D01*
%TO.C,C1*%
X35348635Y-45803168D02*
X35396255Y-45850787D01*
X35396255Y-45850787D02*
X35443874Y-45993644D01*
X35443874Y-45993644D02*
X35443874Y-46088882D01*
X35443874Y-46088882D02*
X35396255Y-46231739D01*
X35396255Y-46231739D02*
X35301016Y-46326977D01*
X35301016Y-46326977D02*
X35205778Y-46374596D01*
X35205778Y-46374596D02*
X35015302Y-46422215D01*
X35015302Y-46422215D02*
X34872445Y-46422215D01*
X34872445Y-46422215D02*
X34681969Y-46374596D01*
X34681969Y-46374596D02*
X34586731Y-46326977D01*
X34586731Y-46326977D02*
X34491493Y-46231739D01*
X34491493Y-46231739D02*
X34443874Y-46088882D01*
X34443874Y-46088882D02*
X34443874Y-45993644D01*
X34443874Y-45993644D02*
X34491493Y-45850787D01*
X34491493Y-45850787D02*
X34539112Y-45803168D01*
X35443874Y-44850787D02*
X35443874Y-45422215D01*
X35443874Y-45136501D02*
X34443874Y-45136501D01*
X34443874Y-45136501D02*
X34586731Y-45231739D01*
X34586731Y-45231739D02*
X34681969Y-45326977D01*
X34681969Y-45326977D02*
X34729588Y-45422215D01*
%TO.C,J7*%
X91279897Y-59664980D02*
X91994182Y-59664980D01*
X91994182Y-59664980D02*
X92137039Y-59712599D01*
X92137039Y-59712599D02*
X92232278Y-59807837D01*
X92232278Y-59807837D02*
X92279897Y-59950694D01*
X92279897Y-59950694D02*
X92279897Y-60045932D01*
X91279897Y-59284027D02*
X91279897Y-58617361D01*
X91279897Y-58617361D02*
X92279897Y-59045932D01*
%TO.C,J8*%
X66535124Y-23299547D02*
X66535124Y-24013832D01*
X66535124Y-24013832D02*
X66487505Y-24156689D01*
X66487505Y-24156689D02*
X66392267Y-24251928D01*
X66392267Y-24251928D02*
X66249410Y-24299547D01*
X66249410Y-24299547D02*
X66154172Y-24299547D01*
X67154172Y-23728118D02*
X67058934Y-23680499D01*
X67058934Y-23680499D02*
X67011315Y-23632880D01*
X67011315Y-23632880D02*
X66963696Y-23537642D01*
X66963696Y-23537642D02*
X66963696Y-23490023D01*
X66963696Y-23490023D02*
X67011315Y-23394785D01*
X67011315Y-23394785D02*
X67058934Y-23347166D01*
X67058934Y-23347166D02*
X67154172Y-23299547D01*
X67154172Y-23299547D02*
X67344648Y-23299547D01*
X67344648Y-23299547D02*
X67439886Y-23347166D01*
X67439886Y-23347166D02*
X67487505Y-23394785D01*
X67487505Y-23394785D02*
X67535124Y-23490023D01*
X67535124Y-23490023D02*
X67535124Y-23537642D01*
X67535124Y-23537642D02*
X67487505Y-23632880D01*
X67487505Y-23632880D02*
X67439886Y-23680499D01*
X67439886Y-23680499D02*
X67344648Y-23728118D01*
X67344648Y-23728118D02*
X67154172Y-23728118D01*
X67154172Y-23728118D02*
X67058934Y-23775737D01*
X67058934Y-23775737D02*
X67011315Y-23823356D01*
X67011315Y-23823356D02*
X66963696Y-23918594D01*
X66963696Y-23918594D02*
X66963696Y-24109070D01*
X66963696Y-24109070D02*
X67011315Y-24204308D01*
X67011315Y-24204308D02*
X67058934Y-24251928D01*
X67058934Y-24251928D02*
X67154172Y-24299547D01*
X67154172Y-24299547D02*
X67344648Y-24299547D01*
X67344648Y-24299547D02*
X67439886Y-24251928D01*
X67439886Y-24251928D02*
X67487505Y-24204308D01*
X67487505Y-24204308D02*
X67535124Y-24109070D01*
X67535124Y-24109070D02*
X67535124Y-23918594D01*
X67535124Y-23918594D02*
X67487505Y-23823356D01*
X67487505Y-23823356D02*
X67439886Y-23775737D01*
X67439886Y-23775737D02*
X67344648Y-23728118D01*
%TO.C,R22*%
X33580225Y-35844848D02*
X33104034Y-36178181D01*
X33580225Y-36416276D02*
X32580225Y-36416276D01*
X32580225Y-36416276D02*
X32580225Y-36035324D01*
X32580225Y-36035324D02*
X32627844Y-35940086D01*
X32627844Y-35940086D02*
X32675463Y-35892467D01*
X32675463Y-35892467D02*
X32770701Y-35844848D01*
X32770701Y-35844848D02*
X32913558Y-35844848D01*
X32913558Y-35844848D02*
X33008796Y-35892467D01*
X33008796Y-35892467D02*
X33056415Y-35940086D01*
X33056415Y-35940086D02*
X33104034Y-36035324D01*
X33104034Y-36035324D02*
X33104034Y-36416276D01*
X32675463Y-35463895D02*
X32627844Y-35416276D01*
X32627844Y-35416276D02*
X32580225Y-35321038D01*
X32580225Y-35321038D02*
X32580225Y-35082943D01*
X32580225Y-35082943D02*
X32627844Y-34987705D01*
X32627844Y-34987705D02*
X32675463Y-34940086D01*
X32675463Y-34940086D02*
X32770701Y-34892467D01*
X32770701Y-34892467D02*
X32865939Y-34892467D01*
X32865939Y-34892467D02*
X33008796Y-34940086D01*
X33008796Y-34940086D02*
X33580225Y-35511514D01*
X33580225Y-35511514D02*
X33580225Y-34892467D01*
X32675463Y-34511514D02*
X32627844Y-34463895D01*
X32627844Y-34463895D02*
X32580225Y-34368657D01*
X32580225Y-34368657D02*
X32580225Y-34130562D01*
X32580225Y-34130562D02*
X32627844Y-34035324D01*
X32627844Y-34035324D02*
X32675463Y-33987705D01*
X32675463Y-33987705D02*
X32770701Y-33940086D01*
X32770701Y-33940086D02*
X32865939Y-33940086D01*
X32865939Y-33940086D02*
X33008796Y-33987705D01*
X33008796Y-33987705D02*
X33580225Y-34559133D01*
X33580225Y-34559133D02*
X33580225Y-33940086D01*
%TO.C,R24*%
X37054620Y-48029003D02*
X36721287Y-47552812D01*
X36483192Y-48029003D02*
X36483192Y-47029003D01*
X36483192Y-47029003D02*
X36864144Y-47029003D01*
X36864144Y-47029003D02*
X36959382Y-47076622D01*
X36959382Y-47076622D02*
X37007001Y-47124241D01*
X37007001Y-47124241D02*
X37054620Y-47219479D01*
X37054620Y-47219479D02*
X37054620Y-47362336D01*
X37054620Y-47362336D02*
X37007001Y-47457574D01*
X37007001Y-47457574D02*
X36959382Y-47505193D01*
X36959382Y-47505193D02*
X36864144Y-47552812D01*
X36864144Y-47552812D02*
X36483192Y-47552812D01*
X37435573Y-47124241D02*
X37483192Y-47076622D01*
X37483192Y-47076622D02*
X37578430Y-47029003D01*
X37578430Y-47029003D02*
X37816525Y-47029003D01*
X37816525Y-47029003D02*
X37911763Y-47076622D01*
X37911763Y-47076622D02*
X37959382Y-47124241D01*
X37959382Y-47124241D02*
X38007001Y-47219479D01*
X38007001Y-47219479D02*
X38007001Y-47314717D01*
X38007001Y-47314717D02*
X37959382Y-47457574D01*
X37959382Y-47457574D02*
X37387954Y-48029003D01*
X37387954Y-48029003D02*
X38007001Y-48029003D01*
X38864144Y-47362336D02*
X38864144Y-48029003D01*
X38626049Y-46981384D02*
X38387954Y-47695669D01*
X38387954Y-47695669D02*
X39007001Y-47695669D01*
%TO.C,R1*%
X39816293Y-49968158D02*
X39340102Y-50301491D01*
X39816293Y-50539586D02*
X38816293Y-50539586D01*
X38816293Y-50539586D02*
X38816293Y-50158634D01*
X38816293Y-50158634D02*
X38863912Y-50063396D01*
X38863912Y-50063396D02*
X38911531Y-50015777D01*
X38911531Y-50015777D02*
X39006769Y-49968158D01*
X39006769Y-49968158D02*
X39149626Y-49968158D01*
X39149626Y-49968158D02*
X39244864Y-50015777D01*
X39244864Y-50015777D02*
X39292483Y-50063396D01*
X39292483Y-50063396D02*
X39340102Y-50158634D01*
X39340102Y-50158634D02*
X39340102Y-50539586D01*
X39816293Y-49015777D02*
X39816293Y-49587205D01*
X39816293Y-49301491D02*
X38816293Y-49301491D01*
X38816293Y-49301491D02*
X38959150Y-49396729D01*
X38959150Y-49396729D02*
X39054388Y-49491967D01*
X39054388Y-49491967D02*
X39102007Y-49587205D01*
%TO.C,R25*%
X34779913Y-33543520D02*
X34446580Y-33067329D01*
X34208485Y-33543520D02*
X34208485Y-32543520D01*
X34208485Y-32543520D02*
X34589437Y-32543520D01*
X34589437Y-32543520D02*
X34684675Y-32591139D01*
X34684675Y-32591139D02*
X34732294Y-32638758D01*
X34732294Y-32638758D02*
X34779913Y-32733996D01*
X34779913Y-32733996D02*
X34779913Y-32876853D01*
X34779913Y-32876853D02*
X34732294Y-32972091D01*
X34732294Y-32972091D02*
X34684675Y-33019710D01*
X34684675Y-33019710D02*
X34589437Y-33067329D01*
X34589437Y-33067329D02*
X34208485Y-33067329D01*
X35160866Y-32638758D02*
X35208485Y-32591139D01*
X35208485Y-32591139D02*
X35303723Y-32543520D01*
X35303723Y-32543520D02*
X35541818Y-32543520D01*
X35541818Y-32543520D02*
X35637056Y-32591139D01*
X35637056Y-32591139D02*
X35684675Y-32638758D01*
X35684675Y-32638758D02*
X35732294Y-32733996D01*
X35732294Y-32733996D02*
X35732294Y-32829234D01*
X35732294Y-32829234D02*
X35684675Y-32972091D01*
X35684675Y-32972091D02*
X35113247Y-33543520D01*
X35113247Y-33543520D02*
X35732294Y-33543520D01*
X36637056Y-32543520D02*
X36160866Y-32543520D01*
X36160866Y-32543520D02*
X36113247Y-33019710D01*
X36113247Y-33019710D02*
X36160866Y-32972091D01*
X36160866Y-32972091D02*
X36256104Y-32924472D01*
X36256104Y-32924472D02*
X36494199Y-32924472D01*
X36494199Y-32924472D02*
X36589437Y-32972091D01*
X36589437Y-32972091D02*
X36637056Y-33019710D01*
X36637056Y-33019710D02*
X36684675Y-33114948D01*
X36684675Y-33114948D02*
X36684675Y-33353043D01*
X36684675Y-33353043D02*
X36637056Y-33448281D01*
X36637056Y-33448281D02*
X36589437Y-33495901D01*
X36589437Y-33495901D02*
X36494199Y-33543520D01*
X36494199Y-33543520D02*
X36256104Y-33543520D01*
X36256104Y-33543520D02*
X36160866Y-33495901D01*
X36160866Y-33495901D02*
X36113247Y-33448281D01*
%TO.C,C2*%
X45950994Y-46553008D02*
X45998614Y-46600627D01*
X45998614Y-46600627D02*
X46046233Y-46743484D01*
X46046233Y-46743484D02*
X46046233Y-46838722D01*
X46046233Y-46838722D02*
X45998614Y-46981579D01*
X45998614Y-46981579D02*
X45903375Y-47076817D01*
X45903375Y-47076817D02*
X45808137Y-47124436D01*
X45808137Y-47124436D02*
X45617661Y-47172055D01*
X45617661Y-47172055D02*
X45474804Y-47172055D01*
X45474804Y-47172055D02*
X45284328Y-47124436D01*
X45284328Y-47124436D02*
X45189090Y-47076817D01*
X45189090Y-47076817D02*
X45093852Y-46981579D01*
X45093852Y-46981579D02*
X45046233Y-46838722D01*
X45046233Y-46838722D02*
X45046233Y-46743484D01*
X45046233Y-46743484D02*
X45093852Y-46600627D01*
X45093852Y-46600627D02*
X45141471Y-46553008D01*
X45141471Y-46172055D02*
X45093852Y-46124436D01*
X45093852Y-46124436D02*
X45046233Y-46029198D01*
X45046233Y-46029198D02*
X45046233Y-45791103D01*
X45046233Y-45791103D02*
X45093852Y-45695865D01*
X45093852Y-45695865D02*
X45141471Y-45648246D01*
X45141471Y-45648246D02*
X45236709Y-45600627D01*
X45236709Y-45600627D02*
X45331947Y-45600627D01*
X45331947Y-45600627D02*
X45474804Y-45648246D01*
X45474804Y-45648246D02*
X46046233Y-46219674D01*
X46046233Y-46219674D02*
X46046233Y-45600627D01*
%TO.C,J5*%
X86029123Y-60011852D02*
X86029123Y-60726137D01*
X86029123Y-60726137D02*
X85981504Y-60868994D01*
X85981504Y-60868994D02*
X85886266Y-60964233D01*
X85886266Y-60964233D02*
X85743409Y-61011852D01*
X85743409Y-61011852D02*
X85648171Y-61011852D01*
X86981504Y-60011852D02*
X86505314Y-60011852D01*
X86505314Y-60011852D02*
X86457695Y-60488042D01*
X86457695Y-60488042D02*
X86505314Y-60440423D01*
X86505314Y-60440423D02*
X86600552Y-60392804D01*
X86600552Y-60392804D02*
X86838647Y-60392804D01*
X86838647Y-60392804D02*
X86933885Y-60440423D01*
X86933885Y-60440423D02*
X86981504Y-60488042D01*
X86981504Y-60488042D02*
X87029123Y-60583280D01*
X87029123Y-60583280D02*
X87029123Y-60821375D01*
X87029123Y-60821375D02*
X86981504Y-60916613D01*
X86981504Y-60916613D02*
X86933885Y-60964233D01*
X86933885Y-60964233D02*
X86838647Y-61011852D01*
X86838647Y-61011852D02*
X86600552Y-61011852D01*
X86600552Y-61011852D02*
X86505314Y-60964233D01*
X86505314Y-60964233D02*
X86457695Y-60916613D01*
%TO.C,R23*%
X45449619Y-38699916D02*
X44973428Y-39033249D01*
X45449619Y-39271344D02*
X44449619Y-39271344D01*
X44449619Y-39271344D02*
X44449619Y-38890392D01*
X44449619Y-38890392D02*
X44497238Y-38795154D01*
X44497238Y-38795154D02*
X44544857Y-38747535D01*
X44544857Y-38747535D02*
X44640095Y-38699916D01*
X44640095Y-38699916D02*
X44782952Y-38699916D01*
X44782952Y-38699916D02*
X44878190Y-38747535D01*
X44878190Y-38747535D02*
X44925809Y-38795154D01*
X44925809Y-38795154D02*
X44973428Y-38890392D01*
X44973428Y-38890392D02*
X44973428Y-39271344D01*
X44544857Y-38318963D02*
X44497238Y-38271344D01*
X44497238Y-38271344D02*
X44449619Y-38176106D01*
X44449619Y-38176106D02*
X44449619Y-37938011D01*
X44449619Y-37938011D02*
X44497238Y-37842773D01*
X44497238Y-37842773D02*
X44544857Y-37795154D01*
X44544857Y-37795154D02*
X44640095Y-37747535D01*
X44640095Y-37747535D02*
X44735333Y-37747535D01*
X44735333Y-37747535D02*
X44878190Y-37795154D01*
X44878190Y-37795154D02*
X45449619Y-38366582D01*
X45449619Y-38366582D02*
X45449619Y-37747535D01*
X44449619Y-37414201D02*
X44449619Y-36795154D01*
X44449619Y-36795154D02*
X44830571Y-37128487D01*
X44830571Y-37128487D02*
X44830571Y-36985630D01*
X44830571Y-36985630D02*
X44878190Y-36890392D01*
X44878190Y-36890392D02*
X44925809Y-36842773D01*
X44925809Y-36842773D02*
X45021047Y-36795154D01*
X45021047Y-36795154D02*
X45259142Y-36795154D01*
X45259142Y-36795154D02*
X45354380Y-36842773D01*
X45354380Y-36842773D02*
X45402000Y-36890392D01*
X45402000Y-36890392D02*
X45449619Y-36985630D01*
X45449619Y-36985630D02*
X45449619Y-37271344D01*
X45449619Y-37271344D02*
X45402000Y-37366582D01*
X45402000Y-37366582D02*
X45354380Y-37414201D01*
%TO.C,R27*%
X31223752Y-50195166D02*
X30747561Y-50528499D01*
X31223752Y-50766594D02*
X30223752Y-50766594D01*
X30223752Y-50766594D02*
X30223752Y-50385642D01*
X30223752Y-50385642D02*
X30271371Y-50290404D01*
X30271371Y-50290404D02*
X30318990Y-50242785D01*
X30318990Y-50242785D02*
X30414228Y-50195166D01*
X30414228Y-50195166D02*
X30557085Y-50195166D01*
X30557085Y-50195166D02*
X30652323Y-50242785D01*
X30652323Y-50242785D02*
X30699942Y-50290404D01*
X30699942Y-50290404D02*
X30747561Y-50385642D01*
X30747561Y-50385642D02*
X30747561Y-50766594D01*
X30318990Y-49814213D02*
X30271371Y-49766594D01*
X30271371Y-49766594D02*
X30223752Y-49671356D01*
X30223752Y-49671356D02*
X30223752Y-49433261D01*
X30223752Y-49433261D02*
X30271371Y-49338023D01*
X30271371Y-49338023D02*
X30318990Y-49290404D01*
X30318990Y-49290404D02*
X30414228Y-49242785D01*
X30414228Y-49242785D02*
X30509466Y-49242785D01*
X30509466Y-49242785D02*
X30652323Y-49290404D01*
X30652323Y-49290404D02*
X31223752Y-49861832D01*
X31223752Y-49861832D02*
X31223752Y-49242785D01*
X30223752Y-48909451D02*
X30223752Y-48242785D01*
X30223752Y-48242785D02*
X31223752Y-48671356D01*
%TO.C,R26*%
X40000968Y-33895663D02*
X39667635Y-33419472D01*
X39429540Y-33895663D02*
X39429540Y-32895663D01*
X39429540Y-32895663D02*
X39810492Y-32895663D01*
X39810492Y-32895663D02*
X39905730Y-32943282D01*
X39905730Y-32943282D02*
X39953349Y-32990901D01*
X39953349Y-32990901D02*
X40000968Y-33086139D01*
X40000968Y-33086139D02*
X40000968Y-33228996D01*
X40000968Y-33228996D02*
X39953349Y-33324234D01*
X39953349Y-33324234D02*
X39905730Y-33371853D01*
X39905730Y-33371853D02*
X39810492Y-33419472D01*
X39810492Y-33419472D02*
X39429540Y-33419472D01*
X40381921Y-32990901D02*
X40429540Y-32943282D01*
X40429540Y-32943282D02*
X40524778Y-32895663D01*
X40524778Y-32895663D02*
X40762873Y-32895663D01*
X40762873Y-32895663D02*
X40858111Y-32943282D01*
X40858111Y-32943282D02*
X40905730Y-32990901D01*
X40905730Y-32990901D02*
X40953349Y-33086139D01*
X40953349Y-33086139D02*
X40953349Y-33181377D01*
X40953349Y-33181377D02*
X40905730Y-33324234D01*
X40905730Y-33324234D02*
X40334302Y-33895663D01*
X40334302Y-33895663D02*
X40953349Y-33895663D01*
X41810492Y-32895663D02*
X41620016Y-32895663D01*
X41620016Y-32895663D02*
X41524778Y-32943282D01*
X41524778Y-32943282D02*
X41477159Y-32990901D01*
X41477159Y-32990901D02*
X41381921Y-33133758D01*
X41381921Y-33133758D02*
X41334302Y-33324234D01*
X41334302Y-33324234D02*
X41334302Y-33705186D01*
X41334302Y-33705186D02*
X41381921Y-33800424D01*
X41381921Y-33800424D02*
X41429540Y-33848044D01*
X41429540Y-33848044D02*
X41524778Y-33895663D01*
X41524778Y-33895663D02*
X41715254Y-33895663D01*
X41715254Y-33895663D02*
X41810492Y-33848044D01*
X41810492Y-33848044D02*
X41858111Y-33800424D01*
X41858111Y-33800424D02*
X41905730Y-33705186D01*
X41905730Y-33705186D02*
X41905730Y-33467091D01*
X41905730Y-33467091D02*
X41858111Y-33371853D01*
X41858111Y-33371853D02*
X41810492Y-33324234D01*
X41810492Y-33324234D02*
X41715254Y-33276615D01*
X41715254Y-33276615D02*
X41524778Y-33276615D01*
X41524778Y-33276615D02*
X41429540Y-33324234D01*
X41429540Y-33324234D02*
X41381921Y-33371853D01*
X41381921Y-33371853D02*
X41334302Y-33467091D01*
%TO.C,C5*%
X38020097Y-52481244D02*
X37972478Y-52528864D01*
X37972478Y-52528864D02*
X37829621Y-52576483D01*
X37829621Y-52576483D02*
X37734383Y-52576483D01*
X37734383Y-52576483D02*
X37591526Y-52528864D01*
X37591526Y-52528864D02*
X37496288Y-52433625D01*
X37496288Y-52433625D02*
X37448669Y-52338387D01*
X37448669Y-52338387D02*
X37401050Y-52147911D01*
X37401050Y-52147911D02*
X37401050Y-52005054D01*
X37401050Y-52005054D02*
X37448669Y-51814578D01*
X37448669Y-51814578D02*
X37496288Y-51719340D01*
X37496288Y-51719340D02*
X37591526Y-51624102D01*
X37591526Y-51624102D02*
X37734383Y-51576483D01*
X37734383Y-51576483D02*
X37829621Y-51576483D01*
X37829621Y-51576483D02*
X37972478Y-51624102D01*
X37972478Y-51624102D02*
X38020097Y-51671721D01*
X38924859Y-51576483D02*
X38448669Y-51576483D01*
X38448669Y-51576483D02*
X38401050Y-52052673D01*
X38401050Y-52052673D02*
X38448669Y-52005054D01*
X38448669Y-52005054D02*
X38543907Y-51957435D01*
X38543907Y-51957435D02*
X38782002Y-51957435D01*
X38782002Y-51957435D02*
X38877240Y-52005054D01*
X38877240Y-52005054D02*
X38924859Y-52052673D01*
X38924859Y-52052673D02*
X38972478Y-52147911D01*
X38972478Y-52147911D02*
X38972478Y-52386006D01*
X38972478Y-52386006D02*
X38924859Y-52481244D01*
X38924859Y-52481244D02*
X38877240Y-52528864D01*
X38877240Y-52528864D02*
X38782002Y-52576483D01*
X38782002Y-52576483D02*
X38543907Y-52576483D01*
X38543907Y-52576483D02*
X38448669Y-52528864D01*
X38448669Y-52528864D02*
X38401050Y-52481244D01*
%TO.C,U1*%
X36013551Y-45295427D02*
X36013551Y-46104950D01*
X36013551Y-46104950D02*
X36061170Y-46200188D01*
X36061170Y-46200188D02*
X36108789Y-46247808D01*
X36108789Y-46247808D02*
X36204027Y-46295427D01*
X36204027Y-46295427D02*
X36394503Y-46295427D01*
X36394503Y-46295427D02*
X36489741Y-46247808D01*
X36489741Y-46247808D02*
X36537360Y-46200188D01*
X36537360Y-46200188D02*
X36584979Y-46104950D01*
X36584979Y-46104950D02*
X36584979Y-45295427D01*
X37584979Y-46295427D02*
X37013551Y-46295427D01*
X37299265Y-46295427D02*
X37299265Y-45295427D01*
X37299265Y-45295427D02*
X37204027Y-45438284D01*
X37204027Y-45438284D02*
X37108789Y-45533522D01*
X37108789Y-45533522D02*
X37013551Y-45581141D01*
%TO.C,C3*%
X86580004Y-57588925D02*
X86627624Y-57636544D01*
X86627624Y-57636544D02*
X86675243Y-57779401D01*
X86675243Y-57779401D02*
X86675243Y-57874639D01*
X86675243Y-57874639D02*
X86627624Y-58017496D01*
X86627624Y-58017496D02*
X86532385Y-58112734D01*
X86532385Y-58112734D02*
X86437147Y-58160353D01*
X86437147Y-58160353D02*
X86246671Y-58207972D01*
X86246671Y-58207972D02*
X86103814Y-58207972D01*
X86103814Y-58207972D02*
X85913338Y-58160353D01*
X85913338Y-58160353D02*
X85818100Y-58112734D01*
X85818100Y-58112734D02*
X85722862Y-58017496D01*
X85722862Y-58017496D02*
X85675243Y-57874639D01*
X85675243Y-57874639D02*
X85675243Y-57779401D01*
X85675243Y-57779401D02*
X85722862Y-57636544D01*
X85722862Y-57636544D02*
X85770481Y-57588925D01*
X85675243Y-57255591D02*
X85675243Y-56636544D01*
X85675243Y-56636544D02*
X86056195Y-56969877D01*
X86056195Y-56969877D02*
X86056195Y-56827020D01*
X86056195Y-56827020D02*
X86103814Y-56731782D01*
X86103814Y-56731782D02*
X86151433Y-56684163D01*
X86151433Y-56684163D02*
X86246671Y-56636544D01*
X86246671Y-56636544D02*
X86484766Y-56636544D01*
X86484766Y-56636544D02*
X86580004Y-56684163D01*
X86580004Y-56684163D02*
X86627624Y-56731782D01*
X86627624Y-56731782D02*
X86675243Y-56827020D01*
X86675243Y-56827020D02*
X86675243Y-57112734D01*
X86675243Y-57112734D02*
X86627624Y-57207972D01*
X86627624Y-57207972D02*
X86580004Y-57255591D01*
%TO.C,J10*%
X47260196Y-26410352D02*
X47974481Y-26410352D01*
X47974481Y-26410352D02*
X48117338Y-26457971D01*
X48117338Y-26457971D02*
X48212577Y-26553209D01*
X48212577Y-26553209D02*
X48260196Y-26696066D01*
X48260196Y-26696066D02*
X48260196Y-26791304D01*
X48260196Y-25410352D02*
X48260196Y-25981780D01*
X48260196Y-25696066D02*
X47260196Y-25696066D01*
X47260196Y-25696066D02*
X47403053Y-25791304D01*
X47403053Y-25791304D02*
X47498291Y-25886542D01*
X47498291Y-25886542D02*
X47545910Y-25981780D01*
X47260196Y-24791304D02*
X47260196Y-24696066D01*
X47260196Y-24696066D02*
X47307815Y-24600828D01*
X47307815Y-24600828D02*
X47355434Y-24553209D01*
X47355434Y-24553209D02*
X47450672Y-24505590D01*
X47450672Y-24505590D02*
X47641148Y-24457971D01*
X47641148Y-24457971D02*
X47879243Y-24457971D01*
X47879243Y-24457971D02*
X48069719Y-24505590D01*
X48069719Y-24505590D02*
X48164957Y-24553209D01*
X48164957Y-24553209D02*
X48212577Y-24600828D01*
X48212577Y-24600828D02*
X48260196Y-24696066D01*
X48260196Y-24696066D02*
X48260196Y-24791304D01*
X48260196Y-24791304D02*
X48212577Y-24886542D01*
X48212577Y-24886542D02*
X48164957Y-24934161D01*
X48164957Y-24934161D02*
X48069719Y-24981780D01*
X48069719Y-24981780D02*
X47879243Y-25029399D01*
X47879243Y-25029399D02*
X47641148Y-25029399D01*
X47641148Y-25029399D02*
X47450672Y-24981780D01*
X47450672Y-24981780D02*
X47355434Y-24934161D01*
X47355434Y-24934161D02*
X47307815Y-24886542D01*
X47307815Y-24886542D02*
X47260196Y-24791304D01*
%TO.C,J3*%
X66697499Y-59929326D02*
X66697499Y-60643611D01*
X66697499Y-60643611D02*
X66649880Y-60786468D01*
X66649880Y-60786468D02*
X66554642Y-60881707D01*
X66554642Y-60881707D02*
X66411785Y-60929326D01*
X66411785Y-60929326D02*
X66316547Y-60929326D01*
X67078452Y-59929326D02*
X67697499Y-59929326D01*
X67697499Y-59929326D02*
X67364166Y-60310278D01*
X67364166Y-60310278D02*
X67507023Y-60310278D01*
X67507023Y-60310278D02*
X67602261Y-60357897D01*
X67602261Y-60357897D02*
X67649880Y-60405516D01*
X67649880Y-60405516D02*
X67697499Y-60500754D01*
X67697499Y-60500754D02*
X67697499Y-60738849D01*
X67697499Y-60738849D02*
X67649880Y-60834087D01*
X67649880Y-60834087D02*
X67602261Y-60881707D01*
X67602261Y-60881707D02*
X67507023Y-60929326D01*
X67507023Y-60929326D02*
X67221309Y-60929326D01*
X67221309Y-60929326D02*
X67126071Y-60881707D01*
X67126071Y-60881707D02*
X67078452Y-60834087D01*
%TO.C,J9*%
X43453301Y-55461241D02*
X43453301Y-56175526D01*
X43453301Y-56175526D02*
X43405682Y-56318383D01*
X43405682Y-56318383D02*
X43310444Y-56413622D01*
X43310444Y-56413622D02*
X43167587Y-56461241D01*
X43167587Y-56461241D02*
X43072349Y-56461241D01*
X43977111Y-56461241D02*
X44167587Y-56461241D01*
X44167587Y-56461241D02*
X44262825Y-56413622D01*
X44262825Y-56413622D02*
X44310444Y-56366002D01*
X44310444Y-56366002D02*
X44405682Y-56223145D01*
X44405682Y-56223145D02*
X44453301Y-56032669D01*
X44453301Y-56032669D02*
X44453301Y-55651717D01*
X44453301Y-55651717D02*
X44405682Y-55556479D01*
X44405682Y-55556479D02*
X44358063Y-55508860D01*
X44358063Y-55508860D02*
X44262825Y-55461241D01*
X44262825Y-55461241D02*
X44072349Y-55461241D01*
X44072349Y-55461241D02*
X43977111Y-55508860D01*
X43977111Y-55508860D02*
X43929492Y-55556479D01*
X43929492Y-55556479D02*
X43881873Y-55651717D01*
X43881873Y-55651717D02*
X43881873Y-55889812D01*
X43881873Y-55889812D02*
X43929492Y-55985050D01*
X43929492Y-55985050D02*
X43977111Y-56032669D01*
X43977111Y-56032669D02*
X44072349Y-56080288D01*
X44072349Y-56080288D02*
X44262825Y-56080288D01*
X44262825Y-56080288D02*
X44358063Y-56032669D01*
X44358063Y-56032669D02*
X44405682Y-55985050D01*
X44405682Y-55985050D02*
X44453301Y-55889812D01*
%TO.C,C6*%
X50671163Y-55388934D02*
X50718783Y-55436553D01*
X50718783Y-55436553D02*
X50766402Y-55579410D01*
X50766402Y-55579410D02*
X50766402Y-55674648D01*
X50766402Y-55674648D02*
X50718783Y-55817505D01*
X50718783Y-55817505D02*
X50623544Y-55912743D01*
X50623544Y-55912743D02*
X50528306Y-55960362D01*
X50528306Y-55960362D02*
X50337830Y-56007981D01*
X50337830Y-56007981D02*
X50194973Y-56007981D01*
X50194973Y-56007981D02*
X50004497Y-55960362D01*
X50004497Y-55960362D02*
X49909259Y-55912743D01*
X49909259Y-55912743D02*
X49814021Y-55817505D01*
X49814021Y-55817505D02*
X49766402Y-55674648D01*
X49766402Y-55674648D02*
X49766402Y-55579410D01*
X49766402Y-55579410D02*
X49814021Y-55436553D01*
X49814021Y-55436553D02*
X49861640Y-55388934D01*
X49766402Y-54531791D02*
X49766402Y-54722267D01*
X49766402Y-54722267D02*
X49814021Y-54817505D01*
X49814021Y-54817505D02*
X49861640Y-54865124D01*
X49861640Y-54865124D02*
X50004497Y-54960362D01*
X50004497Y-54960362D02*
X50194973Y-55007981D01*
X50194973Y-55007981D02*
X50575925Y-55007981D01*
X50575925Y-55007981D02*
X50671163Y-54960362D01*
X50671163Y-54960362D02*
X50718783Y-54912743D01*
X50718783Y-54912743D02*
X50766402Y-54817505D01*
X50766402Y-54817505D02*
X50766402Y-54627029D01*
X50766402Y-54627029D02*
X50718783Y-54531791D01*
X50718783Y-54531791D02*
X50671163Y-54484172D01*
X50671163Y-54484172D02*
X50575925Y-54436553D01*
X50575925Y-54436553D02*
X50337830Y-54436553D01*
X50337830Y-54436553D02*
X50242592Y-54484172D01*
X50242592Y-54484172D02*
X50194973Y-54531791D01*
X50194973Y-54531791D02*
X50147354Y-54627029D01*
X50147354Y-54627029D02*
X50147354Y-54817505D01*
X50147354Y-54817505D02*
X50194973Y-54912743D01*
X50194973Y-54912743D02*
X50242592Y-54960362D01*
X50242592Y-54960362D02*
X50337830Y-55007981D01*
%TO.C,U2*%
X72462619Y-42312018D02*
X73272142Y-42312018D01*
X73272142Y-42312018D02*
X73367380Y-42264399D01*
X73367380Y-42264399D02*
X73415000Y-42216780D01*
X73415000Y-42216780D02*
X73462619Y-42121542D01*
X73462619Y-42121542D02*
X73462619Y-41931066D01*
X73462619Y-41931066D02*
X73415000Y-41835828D01*
X73415000Y-41835828D02*
X73367380Y-41788209D01*
X73367380Y-41788209D02*
X73272142Y-41740590D01*
X73272142Y-41740590D02*
X72462619Y-41740590D01*
X72557857Y-41312018D02*
X72510238Y-41264399D01*
X72510238Y-41264399D02*
X72462619Y-41169161D01*
X72462619Y-41169161D02*
X72462619Y-40931066D01*
X72462619Y-40931066D02*
X72510238Y-40835828D01*
X72510238Y-40835828D02*
X72557857Y-40788209D01*
X72557857Y-40788209D02*
X72653095Y-40740590D01*
X72653095Y-40740590D02*
X72748333Y-40740590D01*
X72748333Y-40740590D02*
X72891190Y-40788209D01*
X72891190Y-40788209D02*
X73462619Y-41359637D01*
X73462619Y-41359637D02*
X73462619Y-40740590D01*
X79196053Y-28042064D02*
X79169115Y-27961252D01*
X79169115Y-27961252D02*
X79088303Y-27880440D01*
X79088303Y-27880440D02*
X78980553Y-27826565D01*
X78980553Y-27826565D02*
X78872804Y-27826565D01*
X78872804Y-27826565D02*
X78791992Y-27853503D01*
X78791992Y-27853503D02*
X78657305Y-27934315D01*
X78657305Y-27934315D02*
X78576492Y-28015127D01*
X78576492Y-28015127D02*
X78495680Y-28149814D01*
X78495680Y-28149814D02*
X78468743Y-28230626D01*
X78468743Y-28230626D02*
X78468743Y-28338376D01*
X78468743Y-28338376D02*
X78522618Y-28446125D01*
X78522618Y-28446125D02*
X78576492Y-28500000D01*
X78576492Y-28500000D02*
X78684242Y-28553875D01*
X78684242Y-28553875D02*
X78738117Y-28553875D01*
X78738117Y-28553875D02*
X78926679Y-28365313D01*
X78926679Y-28365313D02*
X78818929Y-28257564D01*
X78926679Y-28850186D02*
X79492364Y-28284501D01*
X79492364Y-28284501D02*
X79249927Y-29173435D01*
X79249927Y-29173435D02*
X79815613Y-28607750D01*
X79519301Y-29442809D02*
X80084987Y-28877124D01*
X80084987Y-28877124D02*
X80219674Y-29011811D01*
X80219674Y-29011811D02*
X80273549Y-29119560D01*
X80273549Y-29119560D02*
X80273549Y-29227310D01*
X80273549Y-29227310D02*
X80246611Y-29308122D01*
X80246611Y-29308122D02*
X80165799Y-29442809D01*
X80165799Y-29442809D02*
X80084987Y-29523621D01*
X80084987Y-29523621D02*
X79950300Y-29604433D01*
X79950300Y-29604433D02*
X79869488Y-29631371D01*
X79869488Y-29631371D02*
X79761738Y-29631371D01*
X79761738Y-29631371D02*
X79653988Y-29577496D01*
X79653988Y-29577496D02*
X79519301Y-29442809D01*
X66464668Y-34686667D02*
X66437730Y-34605855D01*
X66437730Y-34605855D02*
X66356918Y-34525043D01*
X66356918Y-34525043D02*
X66249168Y-34471168D01*
X66249168Y-34471168D02*
X66141419Y-34471168D01*
X66141419Y-34471168D02*
X66060607Y-34498106D01*
X66060607Y-34498106D02*
X65925920Y-34578918D01*
X65925920Y-34578918D02*
X65845107Y-34659730D01*
X65845107Y-34659730D02*
X65764295Y-34794417D01*
X65764295Y-34794417D02*
X65737358Y-34875229D01*
X65737358Y-34875229D02*
X65737358Y-34982979D01*
X65737358Y-34982979D02*
X65791233Y-35090728D01*
X65791233Y-35090728D02*
X65845107Y-35144603D01*
X65845107Y-35144603D02*
X65952857Y-35198478D01*
X65952857Y-35198478D02*
X66006732Y-35198478D01*
X66006732Y-35198478D02*
X66195294Y-35009916D01*
X66195294Y-35009916D02*
X66087544Y-34902167D01*
X66195294Y-35494789D02*
X66760979Y-34929104D01*
X66760979Y-34929104D02*
X66518542Y-35818038D01*
X66518542Y-35818038D02*
X67084228Y-35252353D01*
X66787916Y-36087412D02*
X67353602Y-35521727D01*
X67353602Y-35521727D02*
X67488289Y-35656414D01*
X67488289Y-35656414D02*
X67542164Y-35764163D01*
X67542164Y-35764163D02*
X67542164Y-35871913D01*
X67542164Y-35871913D02*
X67515226Y-35952725D01*
X67515226Y-35952725D02*
X67434414Y-36087412D01*
X67434414Y-36087412D02*
X67353602Y-36168224D01*
X67353602Y-36168224D02*
X67218915Y-36249036D01*
X67218915Y-36249036D02*
X67138103Y-36275974D01*
X67138103Y-36275974D02*
X67030353Y-36275974D01*
X67030353Y-36275974D02*
X66922603Y-36222099D01*
X66922603Y-36222099D02*
X66787916Y-36087412D01*
X89382990Y-27969002D02*
X89356053Y-27888189D01*
X89356053Y-27888189D02*
X89275240Y-27807377D01*
X89275240Y-27807377D02*
X89167491Y-27753502D01*
X89167491Y-27753502D02*
X89059741Y-27753502D01*
X89059741Y-27753502D02*
X88978929Y-27780440D01*
X88978929Y-27780440D02*
X88844242Y-27861252D01*
X88844242Y-27861252D02*
X88763430Y-27942064D01*
X88763430Y-27942064D02*
X88682617Y-28076751D01*
X88682617Y-28076751D02*
X88655680Y-28157563D01*
X88655680Y-28157563D02*
X88655680Y-28265313D01*
X88655680Y-28265313D02*
X88709555Y-28373063D01*
X88709555Y-28373063D02*
X88763430Y-28426937D01*
X88763430Y-28426937D02*
X88871179Y-28480812D01*
X88871179Y-28480812D02*
X88925054Y-28480812D01*
X88925054Y-28480812D02*
X89113616Y-28292250D01*
X89113616Y-28292250D02*
X89005866Y-28184501D01*
X89113616Y-28777124D02*
X89679301Y-28211438D01*
X89679301Y-28211438D02*
X89894801Y-28426937D01*
X89894801Y-28426937D02*
X89921738Y-28507750D01*
X89921738Y-28507750D02*
X89921738Y-28561624D01*
X89921738Y-28561624D02*
X89894801Y-28642437D01*
X89894801Y-28642437D02*
X89813988Y-28723249D01*
X89813988Y-28723249D02*
X89733176Y-28750186D01*
X89733176Y-28750186D02*
X89679301Y-28750186D01*
X89679301Y-28750186D02*
X89598489Y-28723249D01*
X89598489Y-28723249D02*
X89382990Y-28507750D01*
X90164175Y-28804061D02*
X90218049Y-28804061D01*
X90218049Y-28804061D02*
X90298862Y-28830998D01*
X90298862Y-28830998D02*
X90433549Y-28965685D01*
X90433549Y-28965685D02*
X90460486Y-29046498D01*
X90460486Y-29046498D02*
X90460486Y-29100372D01*
X90460486Y-29100372D02*
X90433549Y-29181185D01*
X90433549Y-29181185D02*
X90379674Y-29235059D01*
X90379674Y-29235059D02*
X90271924Y-29288934D01*
X90271924Y-29288934D02*
X89625427Y-29288934D01*
X89625427Y-29288934D02*
X89975613Y-29639120D01*
X96903581Y-34878951D02*
X96876644Y-34798138D01*
X96876644Y-34798138D02*
X96795831Y-34717326D01*
X96795831Y-34717326D02*
X96688082Y-34663451D01*
X96688082Y-34663451D02*
X96580332Y-34663451D01*
X96580332Y-34663451D02*
X96499520Y-34690389D01*
X96499520Y-34690389D02*
X96364833Y-34771201D01*
X96364833Y-34771201D02*
X96284021Y-34852013D01*
X96284021Y-34852013D02*
X96203208Y-34986700D01*
X96203208Y-34986700D02*
X96176271Y-35067512D01*
X96176271Y-35067512D02*
X96176271Y-35175262D01*
X96176271Y-35175262D02*
X96230146Y-35283012D01*
X96230146Y-35283012D02*
X96284021Y-35336886D01*
X96284021Y-35336886D02*
X96391770Y-35390761D01*
X96391770Y-35390761D02*
X96445645Y-35390761D01*
X96445645Y-35390761D02*
X96634207Y-35202199D01*
X96634207Y-35202199D02*
X96526457Y-35094450D01*
X96634207Y-35687073D02*
X97199892Y-35121387D01*
X97199892Y-35121387D02*
X97415392Y-35336886D01*
X97415392Y-35336886D02*
X97442329Y-35417699D01*
X97442329Y-35417699D02*
X97442329Y-35471573D01*
X97442329Y-35471573D02*
X97415392Y-35552386D01*
X97415392Y-35552386D02*
X97334579Y-35633198D01*
X97334579Y-35633198D02*
X97253767Y-35660135D01*
X97253767Y-35660135D02*
X97199892Y-35660135D01*
X97199892Y-35660135D02*
X97119080Y-35633198D01*
X97119080Y-35633198D02*
X96903581Y-35417699D01*
X97873327Y-35794822D02*
X97927202Y-35848697D01*
X97927202Y-35848697D02*
X97954140Y-35929509D01*
X97954140Y-35929509D02*
X97954140Y-35983384D01*
X97954140Y-35983384D02*
X97927202Y-36064196D01*
X97927202Y-36064196D02*
X97846390Y-36198883D01*
X97846390Y-36198883D02*
X97711703Y-36333570D01*
X97711703Y-36333570D02*
X97577016Y-36414382D01*
X97577016Y-36414382D02*
X97496204Y-36441320D01*
X97496204Y-36441320D02*
X97442329Y-36441320D01*
X97442329Y-36441320D02*
X97361517Y-36414382D01*
X97361517Y-36414382D02*
X97307642Y-36360508D01*
X97307642Y-36360508D02*
X97280705Y-36279695D01*
X97280705Y-36279695D02*
X97280705Y-36225821D01*
X97280705Y-36225821D02*
X97307642Y-36145008D01*
X97307642Y-36145008D02*
X97388454Y-36010321D01*
X97388454Y-36010321D02*
X97523141Y-35875634D01*
X97523141Y-35875634D02*
X97657828Y-35794822D01*
X97657828Y-35794822D02*
X97738640Y-35767885D01*
X97738640Y-35767885D02*
X97792515Y-35767885D01*
X97792515Y-35767885D02*
X97873327Y-35794822D01*
X87572113Y-45673316D02*
X87922299Y-46023502D01*
X87922299Y-46023502D02*
X87518238Y-46050439D01*
X87518238Y-46050439D02*
X87599050Y-46131252D01*
X87599050Y-46131252D02*
X87625988Y-46212064D01*
X87625988Y-46212064D02*
X87625988Y-46265939D01*
X87625988Y-46265939D02*
X87599050Y-46346751D01*
X87599050Y-46346751D02*
X87464363Y-46481438D01*
X87464363Y-46481438D02*
X87383551Y-46508375D01*
X87383551Y-46508375D02*
X87329676Y-46508375D01*
X87329676Y-46508375D02*
X87248864Y-46481438D01*
X87248864Y-46481438D02*
X87087240Y-46319813D01*
X87087240Y-46319813D02*
X87060302Y-46239001D01*
X87060302Y-46239001D02*
X87060302Y-46185126D01*
X88083924Y-46185126D02*
X87706800Y-46939374D01*
X87706800Y-46939374D02*
X88461047Y-46562250D01*
X88595734Y-46696937D02*
X88945920Y-47047123D01*
X88945920Y-47047123D02*
X88541859Y-47074061D01*
X88541859Y-47074061D02*
X88622671Y-47154873D01*
X88622671Y-47154873D02*
X88649609Y-47235685D01*
X88649609Y-47235685D02*
X88649609Y-47289560D01*
X88649609Y-47289560D02*
X88622671Y-47370372D01*
X88622671Y-47370372D02*
X88487984Y-47505059D01*
X88487984Y-47505059D02*
X88407172Y-47531996D01*
X88407172Y-47531996D02*
X88353297Y-47531996D01*
X88353297Y-47531996D02*
X88272485Y-47505059D01*
X88272485Y-47505059D02*
X88110861Y-47343435D01*
X88110861Y-47343435D02*
X88083923Y-47262622D01*
X88083923Y-47262622D02*
X88083923Y-47208748D01*
X88434110Y-47774433D02*
X88865108Y-48205432D01*
X89349982Y-47989932D02*
X89538543Y-48178494D01*
X89323044Y-48555618D02*
X89053670Y-48286244D01*
X89053670Y-48286244D02*
X89619356Y-47720558D01*
X89619356Y-47720558D02*
X89888730Y-47989932D01*
X89565481Y-48798055D02*
X90131167Y-48232369D01*
X90131167Y-48232369D02*
X89888730Y-49121304D01*
X89888730Y-49121304D02*
X90454415Y-48555618D01*
X69062990Y-28069002D02*
X69036053Y-27988189D01*
X69036053Y-27988189D02*
X68955240Y-27907377D01*
X68955240Y-27907377D02*
X68847491Y-27853502D01*
X68847491Y-27853502D02*
X68739741Y-27853502D01*
X68739741Y-27853502D02*
X68658929Y-27880440D01*
X68658929Y-27880440D02*
X68524242Y-27961252D01*
X68524242Y-27961252D02*
X68443430Y-28042064D01*
X68443430Y-28042064D02*
X68362617Y-28176751D01*
X68362617Y-28176751D02*
X68335680Y-28257563D01*
X68335680Y-28257563D02*
X68335680Y-28365313D01*
X68335680Y-28365313D02*
X68389555Y-28473063D01*
X68389555Y-28473063D02*
X68443430Y-28526937D01*
X68443430Y-28526937D02*
X68551179Y-28580812D01*
X68551179Y-28580812D02*
X68605054Y-28580812D01*
X68605054Y-28580812D02*
X68793616Y-28392250D01*
X68793616Y-28392250D02*
X68685866Y-28284501D01*
X68793616Y-28877124D02*
X69359301Y-28311438D01*
X69359301Y-28311438D02*
X69574801Y-28526937D01*
X69574801Y-28526937D02*
X69601738Y-28607750D01*
X69601738Y-28607750D02*
X69601738Y-28661624D01*
X69601738Y-28661624D02*
X69574801Y-28742437D01*
X69574801Y-28742437D02*
X69493988Y-28823249D01*
X69493988Y-28823249D02*
X69413176Y-28850186D01*
X69413176Y-28850186D02*
X69359301Y-28850186D01*
X69359301Y-28850186D02*
X69278489Y-28823249D01*
X69278489Y-28823249D02*
X69062990Y-28607750D01*
X69386239Y-29469746D02*
X69493988Y-29577496D01*
X69493988Y-29577496D02*
X69574801Y-29604433D01*
X69574801Y-29604433D02*
X69628675Y-29604433D01*
X69628675Y-29604433D02*
X69763362Y-29577496D01*
X69763362Y-29577496D02*
X69898049Y-29496684D01*
X69898049Y-29496684D02*
X70113549Y-29281185D01*
X70113549Y-29281185D02*
X70140486Y-29200372D01*
X70140486Y-29200372D02*
X70140486Y-29146498D01*
X70140486Y-29146498D02*
X70113549Y-29065685D01*
X70113549Y-29065685D02*
X70005799Y-28957936D01*
X70005799Y-28957936D02*
X69924987Y-28930998D01*
X69924987Y-28930998D02*
X69871112Y-28930998D01*
X69871112Y-28930998D02*
X69790300Y-28957936D01*
X69790300Y-28957936D02*
X69655613Y-29092623D01*
X69655613Y-29092623D02*
X69628675Y-29173435D01*
X69628675Y-29173435D02*
X69628675Y-29227310D01*
X69628675Y-29227310D02*
X69655613Y-29308122D01*
X69655613Y-29308122D02*
X69763362Y-29415872D01*
X69763362Y-29415872D02*
X69844175Y-29442809D01*
X69844175Y-29442809D02*
X69898049Y-29442809D01*
X69898049Y-29442809D02*
X69978862Y-29415872D01*
X47132000Y-37659638D02*
X47170095Y-37545352D01*
X47170095Y-37545352D02*
X47170095Y-37354876D01*
X47170095Y-37354876D02*
X47132000Y-37278685D01*
X47132000Y-37278685D02*
X47093904Y-37240590D01*
X47093904Y-37240590D02*
X47017714Y-37202495D01*
X47017714Y-37202495D02*
X46941523Y-37202495D01*
X46941523Y-37202495D02*
X46865333Y-37240590D01*
X46865333Y-37240590D02*
X46827238Y-37278685D01*
X46827238Y-37278685D02*
X46789142Y-37354876D01*
X46789142Y-37354876D02*
X46751047Y-37507257D01*
X46751047Y-37507257D02*
X46712952Y-37583447D01*
X46712952Y-37583447D02*
X46674857Y-37621542D01*
X46674857Y-37621542D02*
X46598666Y-37659638D01*
X46598666Y-37659638D02*
X46522476Y-37659638D01*
X46522476Y-37659638D02*
X46446285Y-37621542D01*
X46446285Y-37621542D02*
X46408190Y-37583447D01*
X46408190Y-37583447D02*
X46370095Y-37507257D01*
X46370095Y-37507257D02*
X46370095Y-37316780D01*
X46370095Y-37316780D02*
X46408190Y-37202495D01*
X46370095Y-36935828D02*
X47170095Y-36745352D01*
X47170095Y-36745352D02*
X46598666Y-36592971D01*
X46598666Y-36592971D02*
X47170095Y-36440590D01*
X47170095Y-36440590D02*
X46370095Y-36250114D01*
X47093904Y-35488208D02*
X47132000Y-35526304D01*
X47132000Y-35526304D02*
X47170095Y-35640589D01*
X47170095Y-35640589D02*
X47170095Y-35716780D01*
X47170095Y-35716780D02*
X47132000Y-35831066D01*
X47132000Y-35831066D02*
X47055809Y-35907256D01*
X47055809Y-35907256D02*
X46979619Y-35945351D01*
X46979619Y-35945351D02*
X46827238Y-35983447D01*
X46827238Y-35983447D02*
X46712952Y-35983447D01*
X46712952Y-35983447D02*
X46560571Y-35945351D01*
X46560571Y-35945351D02*
X46484380Y-35907256D01*
X46484380Y-35907256D02*
X46408190Y-35831066D01*
X46408190Y-35831066D02*
X46370095Y-35716780D01*
X46370095Y-35716780D02*
X46370095Y-35640589D01*
X46370095Y-35640589D02*
X46408190Y-35526304D01*
X46408190Y-35526304D02*
X46446285Y-35488208D01*
X47170095Y-34764399D02*
X47170095Y-35145351D01*
X47170095Y-35145351D02*
X46370095Y-35145351D01*
X47170095Y-34497732D02*
X46370095Y-34497732D01*
X47170095Y-34040589D02*
X46712952Y-34383447D01*
X46370095Y-34040589D02*
X46827238Y-34497732D01*
X96466898Y-53509035D02*
X96089775Y-54263282D01*
X96089775Y-54263282D02*
X96844022Y-53886159D01*
X96951771Y-54532656D02*
X97005646Y-54640406D01*
X97005646Y-54640406D02*
X97005646Y-54694281D01*
X97005646Y-54694281D02*
X96978709Y-54775093D01*
X96978709Y-54775093D02*
X96897896Y-54855905D01*
X96897896Y-54855905D02*
X96817084Y-54882842D01*
X96817084Y-54882842D02*
X96763209Y-54882842D01*
X96763209Y-54882842D02*
X96682397Y-54855905D01*
X96682397Y-54855905D02*
X96466898Y-54640406D01*
X96466898Y-54640406D02*
X97032583Y-54074720D01*
X97032583Y-54074720D02*
X97221145Y-54263282D01*
X97221145Y-54263282D02*
X97248083Y-54344094D01*
X97248083Y-54344094D02*
X97248083Y-54397969D01*
X97248083Y-54397969D02*
X97221145Y-54478781D01*
X97221145Y-54478781D02*
X97167270Y-54532656D01*
X97167270Y-54532656D02*
X97086458Y-54559594D01*
X97086458Y-54559594D02*
X97032583Y-54559594D01*
X97032583Y-54559594D02*
X96951771Y-54532656D01*
X96951771Y-54532656D02*
X96763209Y-54344094D01*
X97598269Y-54640406D02*
X97140333Y-55098342D01*
X97140333Y-55098342D02*
X97113396Y-55179154D01*
X97113396Y-55179154D02*
X97113396Y-55233029D01*
X97113396Y-55233029D02*
X97140333Y-55313841D01*
X97140333Y-55313841D02*
X97248083Y-55421590D01*
X97248083Y-55421590D02*
X97328895Y-55448528D01*
X97328895Y-55448528D02*
X97382770Y-55448528D01*
X97382770Y-55448528D02*
X97463582Y-55421590D01*
X97463582Y-55421590D02*
X97921518Y-54963655D01*
X97625206Y-55744839D02*
X97679081Y-55852589D01*
X97679081Y-55852589D02*
X97813768Y-55987276D01*
X97813768Y-55987276D02*
X97894580Y-56014213D01*
X97894580Y-56014213D02*
X97948455Y-56014213D01*
X97948455Y-56014213D02*
X98029267Y-55987276D01*
X98029267Y-55987276D02*
X98083142Y-55933401D01*
X98083142Y-55933401D02*
X98110079Y-55852589D01*
X98110079Y-55852589D02*
X98110079Y-55798714D01*
X98110079Y-55798714D02*
X98083142Y-55717902D01*
X98083142Y-55717902D02*
X98002330Y-55583215D01*
X98002330Y-55583215D02*
X97975392Y-55502402D01*
X97975392Y-55502402D02*
X97975392Y-55448528D01*
X97975392Y-55448528D02*
X98002330Y-55367715D01*
X98002330Y-55367715D02*
X98056205Y-55313841D01*
X98056205Y-55313841D02*
X98137017Y-55286903D01*
X98137017Y-55286903D02*
X98190892Y-55286903D01*
X98190892Y-55286903D02*
X98271704Y-55313841D01*
X98271704Y-55313841D02*
X98406391Y-55448528D01*
X98406391Y-55448528D02*
X98460266Y-55556277D01*
X50667842Y-47249702D02*
X50640905Y-47168890D01*
X50640905Y-47168890D02*
X50560093Y-47088078D01*
X50560093Y-47088078D02*
X50452343Y-47034203D01*
X50452343Y-47034203D02*
X50344594Y-47034203D01*
X50344594Y-47034203D02*
X50263781Y-47061140D01*
X50263781Y-47061140D02*
X50129094Y-47141953D01*
X50129094Y-47141953D02*
X50048282Y-47222765D01*
X50048282Y-47222765D02*
X49967470Y-47357452D01*
X49967470Y-47357452D02*
X49940533Y-47438264D01*
X49940533Y-47438264D02*
X49940533Y-47546014D01*
X49940533Y-47546014D02*
X49994407Y-47653763D01*
X49994407Y-47653763D02*
X50048282Y-47707638D01*
X50048282Y-47707638D02*
X50156032Y-47761513D01*
X50156032Y-47761513D02*
X50209907Y-47761513D01*
X50209907Y-47761513D02*
X50398468Y-47572951D01*
X50398468Y-47572951D02*
X50290719Y-47465201D01*
X50398468Y-48057824D02*
X50964154Y-47492139D01*
X50964154Y-47492139D02*
X51179653Y-47707638D01*
X51179653Y-47707638D02*
X51206590Y-47788450D01*
X51206590Y-47788450D02*
X51206590Y-47842325D01*
X51206590Y-47842325D02*
X51179653Y-47923137D01*
X51179653Y-47923137D02*
X51098841Y-48003949D01*
X51098841Y-48003949D02*
X51018029Y-48030887D01*
X51018029Y-48030887D02*
X50964154Y-48030887D01*
X50964154Y-48030887D02*
X50883342Y-48003949D01*
X50883342Y-48003949D02*
X50667842Y-47788450D01*
X51260465Y-48919821D02*
X50937216Y-48596572D01*
X51098841Y-48758197D02*
X51664526Y-48192511D01*
X51664526Y-48192511D02*
X51529839Y-48219449D01*
X51529839Y-48219449D02*
X51422090Y-48219449D01*
X51422090Y-48219449D02*
X51341278Y-48192511D01*
X52014713Y-48542698D02*
X52391836Y-48919821D01*
X52391836Y-48919821D02*
X51583714Y-49243070D01*
X84302990Y-28069002D02*
X84276053Y-27988189D01*
X84276053Y-27988189D02*
X84195240Y-27907377D01*
X84195240Y-27907377D02*
X84087491Y-27853502D01*
X84087491Y-27853502D02*
X83979741Y-27853502D01*
X83979741Y-27853502D02*
X83898929Y-27880440D01*
X83898929Y-27880440D02*
X83764242Y-27961252D01*
X83764242Y-27961252D02*
X83683430Y-28042064D01*
X83683430Y-28042064D02*
X83602617Y-28176751D01*
X83602617Y-28176751D02*
X83575680Y-28257563D01*
X83575680Y-28257563D02*
X83575680Y-28365313D01*
X83575680Y-28365313D02*
X83629555Y-28473063D01*
X83629555Y-28473063D02*
X83683430Y-28526937D01*
X83683430Y-28526937D02*
X83791179Y-28580812D01*
X83791179Y-28580812D02*
X83845054Y-28580812D01*
X83845054Y-28580812D02*
X84033616Y-28392250D01*
X84033616Y-28392250D02*
X83925866Y-28284501D01*
X84033616Y-28877124D02*
X84599301Y-28311438D01*
X84599301Y-28311438D02*
X84814801Y-28526937D01*
X84814801Y-28526937D02*
X84841738Y-28607750D01*
X84841738Y-28607750D02*
X84841738Y-28661624D01*
X84841738Y-28661624D02*
X84814801Y-28742437D01*
X84814801Y-28742437D02*
X84733988Y-28823249D01*
X84733988Y-28823249D02*
X84653176Y-28850186D01*
X84653176Y-28850186D02*
X84599301Y-28850186D01*
X84599301Y-28850186D02*
X84518489Y-28823249D01*
X84518489Y-28823249D02*
X84302990Y-28607750D01*
X85218862Y-29308122D02*
X84841738Y-29685246D01*
X85299674Y-28957936D02*
X84760926Y-29227310D01*
X84760926Y-29227310D02*
X85111112Y-29577496D01*
X51427128Y-43350221D02*
X51465223Y-43235935D01*
X51465223Y-43235935D02*
X51465223Y-43045459D01*
X51465223Y-43045459D02*
X51427128Y-42969268D01*
X51427128Y-42969268D02*
X51389032Y-42931173D01*
X51389032Y-42931173D02*
X51312842Y-42893078D01*
X51312842Y-42893078D02*
X51236651Y-42893078D01*
X51236651Y-42893078D02*
X51160461Y-42931173D01*
X51160461Y-42931173D02*
X51122366Y-42969268D01*
X51122366Y-42969268D02*
X51084270Y-43045459D01*
X51084270Y-43045459D02*
X51046175Y-43197840D01*
X51046175Y-43197840D02*
X51008080Y-43274030D01*
X51008080Y-43274030D02*
X50969985Y-43312125D01*
X50969985Y-43312125D02*
X50893794Y-43350221D01*
X50893794Y-43350221D02*
X50817604Y-43350221D01*
X50817604Y-43350221D02*
X50741413Y-43312125D01*
X50741413Y-43312125D02*
X50703318Y-43274030D01*
X50703318Y-43274030D02*
X50665223Y-43197840D01*
X50665223Y-43197840D02*
X50665223Y-43007363D01*
X50665223Y-43007363D02*
X50703318Y-42893078D01*
X50665223Y-42626411D02*
X51465223Y-42435935D01*
X51465223Y-42435935D02*
X50893794Y-42283554D01*
X50893794Y-42283554D02*
X51465223Y-42131173D01*
X51465223Y-42131173D02*
X50665223Y-41940697D01*
X51465223Y-41635934D02*
X50665223Y-41635934D01*
X50665223Y-41635934D02*
X50665223Y-41445458D01*
X50665223Y-41445458D02*
X50703318Y-41331172D01*
X50703318Y-41331172D02*
X50779508Y-41254982D01*
X50779508Y-41254982D02*
X50855699Y-41216887D01*
X50855699Y-41216887D02*
X51008080Y-41178791D01*
X51008080Y-41178791D02*
X51122366Y-41178791D01*
X51122366Y-41178791D02*
X51274747Y-41216887D01*
X51274747Y-41216887D02*
X51350937Y-41254982D01*
X51350937Y-41254982D02*
X51427128Y-41331172D01*
X51427128Y-41331172D02*
X51465223Y-41445458D01*
X51465223Y-41445458D02*
X51465223Y-41635934D01*
X51465223Y-40835934D02*
X50665223Y-40835934D01*
X50665223Y-40302601D02*
X50665223Y-40150220D01*
X50665223Y-40150220D02*
X50703318Y-40074030D01*
X50703318Y-40074030D02*
X50779508Y-39997839D01*
X50779508Y-39997839D02*
X50931889Y-39959744D01*
X50931889Y-39959744D02*
X51198556Y-39959744D01*
X51198556Y-39959744D02*
X51350937Y-39997839D01*
X51350937Y-39997839D02*
X51427128Y-40074030D01*
X51427128Y-40074030D02*
X51465223Y-40150220D01*
X51465223Y-40150220D02*
X51465223Y-40302601D01*
X51465223Y-40302601D02*
X51427128Y-40378792D01*
X51427128Y-40378792D02*
X51350937Y-40454982D01*
X51350937Y-40454982D02*
X51198556Y-40493078D01*
X51198556Y-40493078D02*
X50931889Y-40493078D01*
X50931889Y-40493078D02*
X50779508Y-40454982D01*
X50779508Y-40454982D02*
X50703318Y-40378792D01*
X50703318Y-40378792D02*
X50665223Y-40302601D01*
X53796053Y-28042064D02*
X53769115Y-27961252D01*
X53769115Y-27961252D02*
X53688303Y-27880440D01*
X53688303Y-27880440D02*
X53580553Y-27826565D01*
X53580553Y-27826565D02*
X53472804Y-27826565D01*
X53472804Y-27826565D02*
X53391992Y-27853503D01*
X53391992Y-27853503D02*
X53257305Y-27934315D01*
X53257305Y-27934315D02*
X53176492Y-28015127D01*
X53176492Y-28015127D02*
X53095680Y-28149814D01*
X53095680Y-28149814D02*
X53068743Y-28230626D01*
X53068743Y-28230626D02*
X53068743Y-28338376D01*
X53068743Y-28338376D02*
X53122618Y-28446125D01*
X53122618Y-28446125D02*
X53176492Y-28500000D01*
X53176492Y-28500000D02*
X53284242Y-28553875D01*
X53284242Y-28553875D02*
X53338117Y-28553875D01*
X53338117Y-28553875D02*
X53526679Y-28365313D01*
X53526679Y-28365313D02*
X53418929Y-28257564D01*
X53526679Y-28850186D02*
X54092364Y-28284501D01*
X54092364Y-28284501D02*
X53849927Y-29173435D01*
X53849927Y-29173435D02*
X54415613Y-28607750D01*
X54119301Y-29442809D02*
X54684987Y-28877124D01*
X54684987Y-28877124D02*
X54819674Y-29011811D01*
X54819674Y-29011811D02*
X54873549Y-29119560D01*
X54873549Y-29119560D02*
X54873549Y-29227310D01*
X54873549Y-29227310D02*
X54846611Y-29308122D01*
X54846611Y-29308122D02*
X54765799Y-29442809D01*
X54765799Y-29442809D02*
X54684987Y-29523621D01*
X54684987Y-29523621D02*
X54550300Y-29604433D01*
X54550300Y-29604433D02*
X54469488Y-29631371D01*
X54469488Y-29631371D02*
X54361738Y-29631371D01*
X54361738Y-29631371D02*
X54253988Y-29577496D01*
X54253988Y-29577496D02*
X54119301Y-29442809D01*
X80672213Y-45510665D02*
X80941587Y-45780039D01*
X80456714Y-45618415D02*
X81210961Y-45241291D01*
X81210961Y-45241291D02*
X80833838Y-45995538D01*
X81022399Y-46184100D02*
X81588085Y-45618415D01*
X81588085Y-45618415D02*
X81722772Y-45753102D01*
X81722772Y-45753102D02*
X81776646Y-45860851D01*
X81776646Y-45860851D02*
X81776646Y-45968601D01*
X81776646Y-45968601D02*
X81749709Y-46049413D01*
X81749709Y-46049413D02*
X81668897Y-46184100D01*
X81668897Y-46184100D02*
X81588085Y-46264912D01*
X81588085Y-46264912D02*
X81453398Y-46345724D01*
X81453398Y-46345724D02*
X81372585Y-46372662D01*
X81372585Y-46372662D02*
X81264836Y-46372662D01*
X81264836Y-46372662D02*
X81157086Y-46318787D01*
X81157086Y-46318787D02*
X81022399Y-46184100D01*
X81965208Y-47019159D02*
X81911333Y-47019159D01*
X81911333Y-47019159D02*
X81803584Y-46965285D01*
X81803584Y-46965285D02*
X81749709Y-46911410D01*
X81749709Y-46911410D02*
X81695834Y-46803660D01*
X81695834Y-46803660D02*
X81695834Y-46695911D01*
X81695834Y-46695911D02*
X81722772Y-46615098D01*
X81722772Y-46615098D02*
X81803584Y-46480411D01*
X81803584Y-46480411D02*
X81884396Y-46399599D01*
X81884396Y-46399599D02*
X82019083Y-46318787D01*
X82019083Y-46318787D02*
X82099895Y-46291850D01*
X82099895Y-46291850D02*
X82207645Y-46291850D01*
X82207645Y-46291850D02*
X82315395Y-46345724D01*
X82315395Y-46345724D02*
X82369269Y-46399599D01*
X82369269Y-46399599D02*
X82423144Y-46507349D01*
X82423144Y-46507349D02*
X82423144Y-46561224D01*
X81965208Y-47234659D02*
X82396207Y-47665657D01*
X83069642Y-47099972D02*
X82692518Y-47854219D01*
X82692518Y-47854219D02*
X83446765Y-47477095D01*
X83392890Y-48554591D02*
X83473703Y-48096655D01*
X83069642Y-48231342D02*
X83635327Y-47665657D01*
X83635327Y-47665657D02*
X83850826Y-47881156D01*
X83850826Y-47881156D02*
X83877764Y-47961968D01*
X83877764Y-47961968D02*
X83877764Y-48015843D01*
X83877764Y-48015843D02*
X83850826Y-48096655D01*
X83850826Y-48096655D02*
X83770014Y-48177468D01*
X83770014Y-48177468D02*
X83689202Y-48204405D01*
X83689202Y-48204405D02*
X83635327Y-48204405D01*
X83635327Y-48204405D02*
X83554515Y-48177468D01*
X83554515Y-48177468D02*
X83339016Y-47961968D01*
X83931639Y-48500716D02*
X84120200Y-48689278D01*
X83904701Y-49066402D02*
X83635327Y-48797028D01*
X83635327Y-48797028D02*
X84201013Y-48231342D01*
X84201013Y-48231342D02*
X84470387Y-48500716D01*
X84632011Y-49201089D02*
X84443449Y-49012527D01*
X84147138Y-49308839D02*
X84712823Y-48743153D01*
X84712823Y-48743153D02*
X84982197Y-49012527D01*
X93924242Y-53476379D02*
X93547118Y-54230626D01*
X93547118Y-54230626D02*
X94301365Y-53853502D01*
X93924241Y-54553874D02*
X93978116Y-54661624D01*
X93978116Y-54661624D02*
X94112803Y-54796311D01*
X94112803Y-54796311D02*
X94193615Y-54823248D01*
X94193615Y-54823248D02*
X94247490Y-54823248D01*
X94247490Y-54823248D02*
X94328302Y-54796311D01*
X94328302Y-54796311D02*
X94382177Y-54742436D01*
X94382177Y-54742436D02*
X94409115Y-54661624D01*
X94409115Y-54661624D02*
X94409115Y-54607749D01*
X94409115Y-54607749D02*
X94382177Y-54526937D01*
X94382177Y-54526937D02*
X94301365Y-54392250D01*
X94301365Y-54392250D02*
X94274428Y-54311438D01*
X94274428Y-54311438D02*
X94274428Y-54257563D01*
X94274428Y-54257563D02*
X94301365Y-54176751D01*
X94301365Y-54176751D02*
X94355240Y-54122876D01*
X94355240Y-54122876D02*
X94436052Y-54095939D01*
X94436052Y-54095939D02*
X94489927Y-54095939D01*
X94489927Y-54095939D02*
X94570739Y-54122876D01*
X94570739Y-54122876D02*
X94705426Y-54257563D01*
X94705426Y-54257563D02*
X94759301Y-54365313D01*
X94840113Y-54984873D02*
X94570739Y-55254247D01*
X94947863Y-54500000D02*
X94840113Y-54984873D01*
X94840113Y-54984873D02*
X95324986Y-54877123D01*
X94947863Y-55577496D02*
X95001737Y-55685245D01*
X95001737Y-55685245D02*
X95136424Y-55819932D01*
X95136424Y-55819932D02*
X95217237Y-55846870D01*
X95217237Y-55846870D02*
X95271111Y-55846870D01*
X95271111Y-55846870D02*
X95351924Y-55819932D01*
X95351924Y-55819932D02*
X95405798Y-55766057D01*
X95405798Y-55766057D02*
X95432736Y-55685245D01*
X95432736Y-55685245D02*
X95432736Y-55631370D01*
X95432736Y-55631370D02*
X95405798Y-55550558D01*
X95405798Y-55550558D02*
X95324986Y-55415871D01*
X95324986Y-55415871D02*
X95298049Y-55335059D01*
X95298049Y-55335059D02*
X95298049Y-55281184D01*
X95298049Y-55281184D02*
X95324986Y-55200372D01*
X95324986Y-55200372D02*
X95378861Y-55146497D01*
X95378861Y-55146497D02*
X95459673Y-55119560D01*
X95459673Y-55119560D02*
X95513548Y-55119560D01*
X95513548Y-55119560D02*
X95594360Y-55146497D01*
X95594360Y-55146497D02*
X95729047Y-55281184D01*
X95729047Y-55281184D02*
X95782922Y-55388934D01*
X74172990Y-28169002D02*
X74146053Y-28088189D01*
X74146053Y-28088189D02*
X74065240Y-28007377D01*
X74065240Y-28007377D02*
X73957491Y-27953502D01*
X73957491Y-27953502D02*
X73849741Y-27953502D01*
X73849741Y-27953502D02*
X73768929Y-27980440D01*
X73768929Y-27980440D02*
X73634242Y-28061252D01*
X73634242Y-28061252D02*
X73553430Y-28142064D01*
X73553430Y-28142064D02*
X73472617Y-28276751D01*
X73472617Y-28276751D02*
X73445680Y-28357563D01*
X73445680Y-28357563D02*
X73445680Y-28465313D01*
X73445680Y-28465313D02*
X73499555Y-28573063D01*
X73499555Y-28573063D02*
X73553430Y-28626937D01*
X73553430Y-28626937D02*
X73661179Y-28680812D01*
X73661179Y-28680812D02*
X73715054Y-28680812D01*
X73715054Y-28680812D02*
X73903616Y-28492250D01*
X73903616Y-28492250D02*
X73795866Y-28384501D01*
X73903616Y-28977124D02*
X74469301Y-28411438D01*
X74469301Y-28411438D02*
X74684801Y-28626937D01*
X74684801Y-28626937D02*
X74711738Y-28707750D01*
X74711738Y-28707750D02*
X74711738Y-28761624D01*
X74711738Y-28761624D02*
X74684801Y-28842437D01*
X74684801Y-28842437D02*
X74603988Y-28923249D01*
X74603988Y-28923249D02*
X74523176Y-28950186D01*
X74523176Y-28950186D02*
X74469301Y-28950186D01*
X74469301Y-28950186D02*
X74388489Y-28923249D01*
X74388489Y-28923249D02*
X74172990Y-28707750D01*
X74981112Y-28923249D02*
X75358236Y-29300372D01*
X75358236Y-29300372D02*
X74550114Y-29623621D01*
X86842990Y-28069002D02*
X86816053Y-27988189D01*
X86816053Y-27988189D02*
X86735240Y-27907377D01*
X86735240Y-27907377D02*
X86627491Y-27853502D01*
X86627491Y-27853502D02*
X86519741Y-27853502D01*
X86519741Y-27853502D02*
X86438929Y-27880440D01*
X86438929Y-27880440D02*
X86304242Y-27961252D01*
X86304242Y-27961252D02*
X86223430Y-28042064D01*
X86223430Y-28042064D02*
X86142617Y-28176751D01*
X86142617Y-28176751D02*
X86115680Y-28257563D01*
X86115680Y-28257563D02*
X86115680Y-28365313D01*
X86115680Y-28365313D02*
X86169555Y-28473063D01*
X86169555Y-28473063D02*
X86223430Y-28526937D01*
X86223430Y-28526937D02*
X86331179Y-28580812D01*
X86331179Y-28580812D02*
X86385054Y-28580812D01*
X86385054Y-28580812D02*
X86573616Y-28392250D01*
X86573616Y-28392250D02*
X86465866Y-28284501D01*
X86573616Y-28877124D02*
X87139301Y-28311438D01*
X87139301Y-28311438D02*
X87354801Y-28526937D01*
X87354801Y-28526937D02*
X87381738Y-28607750D01*
X87381738Y-28607750D02*
X87381738Y-28661624D01*
X87381738Y-28661624D02*
X87354801Y-28742437D01*
X87354801Y-28742437D02*
X87273988Y-28823249D01*
X87273988Y-28823249D02*
X87193176Y-28850186D01*
X87193176Y-28850186D02*
X87139301Y-28850186D01*
X87139301Y-28850186D02*
X87058489Y-28823249D01*
X87058489Y-28823249D02*
X86842990Y-28607750D01*
X87651112Y-28823249D02*
X88001298Y-29173435D01*
X88001298Y-29173435D02*
X87597237Y-29200372D01*
X87597237Y-29200372D02*
X87678049Y-29281185D01*
X87678049Y-29281185D02*
X87704987Y-29361997D01*
X87704987Y-29361997D02*
X87704987Y-29415872D01*
X87704987Y-29415872D02*
X87678049Y-29496684D01*
X87678049Y-29496684D02*
X87543362Y-29631371D01*
X87543362Y-29631371D02*
X87462550Y-29658308D01*
X87462550Y-29658308D02*
X87408675Y-29658308D01*
X87408675Y-29658308D02*
X87327863Y-29631371D01*
X87327863Y-29631371D02*
X87166239Y-29469746D01*
X87166239Y-29469746D02*
X87139301Y-29388934D01*
X87139301Y-29388934D02*
X87139301Y-29335059D01*
X58768021Y-34012995D02*
X58741084Y-33932183D01*
X58741084Y-33932183D02*
X58660272Y-33851371D01*
X58660272Y-33851371D02*
X58552522Y-33797496D01*
X58552522Y-33797496D02*
X58444773Y-33797496D01*
X58444773Y-33797496D02*
X58363960Y-33824433D01*
X58363960Y-33824433D02*
X58229273Y-33905246D01*
X58229273Y-33905246D02*
X58148461Y-33986058D01*
X58148461Y-33986058D02*
X58067649Y-34120745D01*
X58067649Y-34120745D02*
X58040712Y-34201557D01*
X58040712Y-34201557D02*
X58040712Y-34309307D01*
X58040712Y-34309307D02*
X58094586Y-34417056D01*
X58094586Y-34417056D02*
X58148461Y-34470931D01*
X58148461Y-34470931D02*
X58256211Y-34524806D01*
X58256211Y-34524806D02*
X58310086Y-34524806D01*
X58310086Y-34524806D02*
X58498647Y-34336244D01*
X58498647Y-34336244D02*
X58390898Y-34228494D01*
X58498647Y-34821117D02*
X59064333Y-34255432D01*
X59064333Y-34255432D02*
X59279832Y-34470931D01*
X59279832Y-34470931D02*
X59306769Y-34551743D01*
X59306769Y-34551743D02*
X59306769Y-34605618D01*
X59306769Y-34605618D02*
X59279832Y-34686430D01*
X59279832Y-34686430D02*
X59199020Y-34767242D01*
X59199020Y-34767242D02*
X59118208Y-34794180D01*
X59118208Y-34794180D02*
X59064333Y-34794180D01*
X59064333Y-34794180D02*
X58983521Y-34767242D01*
X58983521Y-34767242D02*
X58768021Y-34551743D01*
X59360644Y-35683114D02*
X59037395Y-35359865D01*
X59199020Y-35521490D02*
X59764705Y-34955804D01*
X59764705Y-34955804D02*
X59630018Y-34982742D01*
X59630018Y-34982742D02*
X59522269Y-34982742D01*
X59522269Y-34982742D02*
X59441457Y-34955804D01*
X60087954Y-35386803D02*
X60141829Y-35386803D01*
X60141829Y-35386803D02*
X60222641Y-35413740D01*
X60222641Y-35413740D02*
X60357328Y-35548427D01*
X60357328Y-35548427D02*
X60384266Y-35629239D01*
X60384266Y-35629239D02*
X60384266Y-35683114D01*
X60384266Y-35683114D02*
X60357328Y-35763926D01*
X60357328Y-35763926D02*
X60303454Y-35817801D01*
X60303454Y-35817801D02*
X60195704Y-35871676D01*
X60195704Y-35871676D02*
X59549206Y-35871676D01*
X59549206Y-35871676D02*
X59899392Y-36221862D01*
X73873615Y-53653627D02*
X73846678Y-53572815D01*
X73846678Y-53572815D02*
X73765866Y-53492003D01*
X73765866Y-53492003D02*
X73658116Y-53438128D01*
X73658116Y-53438128D02*
X73550367Y-53438128D01*
X73550367Y-53438128D02*
X73469554Y-53465065D01*
X73469554Y-53465065D02*
X73334867Y-53545878D01*
X73334867Y-53545878D02*
X73254055Y-53626690D01*
X73254055Y-53626690D02*
X73173243Y-53761377D01*
X73173243Y-53761377D02*
X73146306Y-53842189D01*
X73146306Y-53842189D02*
X73146306Y-53949939D01*
X73146306Y-53949939D02*
X73200180Y-54057688D01*
X73200180Y-54057688D02*
X73254055Y-54111563D01*
X73254055Y-54111563D02*
X73361805Y-54165438D01*
X73361805Y-54165438D02*
X73415680Y-54165438D01*
X73415680Y-54165438D02*
X73604241Y-53976876D01*
X73604241Y-53976876D02*
X73496492Y-53869126D01*
X73604241Y-54461749D02*
X74169927Y-53896064D01*
X74169927Y-53896064D02*
X74385426Y-54111563D01*
X74385426Y-54111563D02*
X74412363Y-54192375D01*
X74412363Y-54192375D02*
X74412363Y-54246250D01*
X74412363Y-54246250D02*
X74385426Y-54327062D01*
X74385426Y-54327062D02*
X74304614Y-54407874D01*
X74304614Y-54407874D02*
X74223802Y-54434812D01*
X74223802Y-54434812D02*
X74169927Y-54434812D01*
X74169927Y-54434812D02*
X74089115Y-54407874D01*
X74089115Y-54407874D02*
X73873615Y-54192375D01*
X74654800Y-54488687D02*
X74708675Y-54488687D01*
X74708675Y-54488687D02*
X74789487Y-54515624D01*
X74789487Y-54515624D02*
X74924174Y-54650311D01*
X74924174Y-54650311D02*
X74951112Y-54731123D01*
X74951112Y-54731123D02*
X74951112Y-54784998D01*
X74951112Y-54784998D02*
X74924174Y-54865810D01*
X74924174Y-54865810D02*
X74870299Y-54919685D01*
X74870299Y-54919685D02*
X74762550Y-54973560D01*
X74762550Y-54973560D02*
X74116052Y-54973560D01*
X74116052Y-54973560D02*
X74466238Y-55323746D01*
X75516797Y-55242934D02*
X75409048Y-55135184D01*
X75409048Y-55135184D02*
X75328235Y-55108247D01*
X75328235Y-55108247D02*
X75274361Y-55108247D01*
X75274361Y-55108247D02*
X75139673Y-55135184D01*
X75139673Y-55135184D02*
X75004986Y-55215997D01*
X75004986Y-55215997D02*
X74789487Y-55431496D01*
X74789487Y-55431496D02*
X74762550Y-55512308D01*
X74762550Y-55512308D02*
X74762550Y-55566183D01*
X74762550Y-55566183D02*
X74789487Y-55646995D01*
X74789487Y-55646995D02*
X74897237Y-55754745D01*
X74897237Y-55754745D02*
X74978049Y-55781682D01*
X74978049Y-55781682D02*
X75031924Y-55781682D01*
X75031924Y-55781682D02*
X75112736Y-55754745D01*
X75112736Y-55754745D02*
X75247423Y-55620058D01*
X75247423Y-55620058D02*
X75274361Y-55539245D01*
X75274361Y-55539245D02*
X75274361Y-55485371D01*
X75274361Y-55485371D02*
X75247423Y-55404558D01*
X75247423Y-55404558D02*
X75139673Y-55296809D01*
X75139673Y-55296809D02*
X75058861Y-55269871D01*
X75058861Y-55269871D02*
X75004986Y-55269871D01*
X75004986Y-55269871D02*
X74924174Y-55296809D01*
X63067315Y-47022757D02*
X63040378Y-46941945D01*
X63040378Y-46941945D02*
X62959566Y-46861133D01*
X62959566Y-46861133D02*
X62851816Y-46807258D01*
X62851816Y-46807258D02*
X62744067Y-46807258D01*
X62744067Y-46807258D02*
X62663254Y-46834195D01*
X62663254Y-46834195D02*
X62528567Y-46915008D01*
X62528567Y-46915008D02*
X62447755Y-46995820D01*
X62447755Y-46995820D02*
X62366943Y-47130507D01*
X62366943Y-47130507D02*
X62340006Y-47211319D01*
X62340006Y-47211319D02*
X62340006Y-47319069D01*
X62340006Y-47319069D02*
X62393880Y-47426818D01*
X62393880Y-47426818D02*
X62447755Y-47480693D01*
X62447755Y-47480693D02*
X62555505Y-47534568D01*
X62555505Y-47534568D02*
X62609380Y-47534568D01*
X62609380Y-47534568D02*
X62797941Y-47346006D01*
X62797941Y-47346006D02*
X62690192Y-47238256D01*
X62797941Y-47830879D02*
X63363627Y-47265194D01*
X63363627Y-47265194D02*
X63579126Y-47480693D01*
X63579126Y-47480693D02*
X63606063Y-47561505D01*
X63606063Y-47561505D02*
X63606063Y-47615380D01*
X63606063Y-47615380D02*
X63579126Y-47696192D01*
X63579126Y-47696192D02*
X63498314Y-47777004D01*
X63498314Y-47777004D02*
X63417502Y-47803942D01*
X63417502Y-47803942D02*
X63363627Y-47803942D01*
X63363627Y-47803942D02*
X63282815Y-47777004D01*
X63282815Y-47777004D02*
X63067315Y-47561505D01*
X63848500Y-47857817D02*
X63902375Y-47857817D01*
X63902375Y-47857817D02*
X63983187Y-47884754D01*
X63983187Y-47884754D02*
X64117874Y-48019441D01*
X64117874Y-48019441D02*
X64144812Y-48100253D01*
X64144812Y-48100253D02*
X64144812Y-48154128D01*
X64144812Y-48154128D02*
X64117874Y-48234940D01*
X64117874Y-48234940D02*
X64063999Y-48288815D01*
X64063999Y-48288815D02*
X63956250Y-48342690D01*
X63956250Y-48342690D02*
X63309752Y-48342690D01*
X63309752Y-48342690D02*
X63659938Y-48692876D01*
X64198686Y-49231624D02*
X63875438Y-48908375D01*
X64037062Y-49070000D02*
X64602748Y-48504314D01*
X64602748Y-48504314D02*
X64468061Y-48531252D01*
X64468061Y-48531252D02*
X64360311Y-48531252D01*
X64360311Y-48531252D02*
X64279499Y-48504314D01*
X70530991Y-47763540D02*
X70611803Y-47305604D01*
X70207742Y-47440291D02*
X70773428Y-46874606D01*
X70773428Y-46874606D02*
X70988927Y-47090105D01*
X70988927Y-47090105D02*
X71015864Y-47170917D01*
X71015864Y-47170917D02*
X71015864Y-47224792D01*
X71015864Y-47224792D02*
X70988927Y-47305604D01*
X70988927Y-47305604D02*
X70908115Y-47386416D01*
X70908115Y-47386416D02*
X70827303Y-47413354D01*
X70827303Y-47413354D02*
X70773428Y-47413354D01*
X70773428Y-47413354D02*
X70692616Y-47386416D01*
X70692616Y-47386416D02*
X70477116Y-47170917D01*
X71339113Y-47440291D02*
X70881177Y-47898227D01*
X70881177Y-47898227D02*
X70854240Y-47979039D01*
X70854240Y-47979039D02*
X70854240Y-48032914D01*
X70854240Y-48032914D02*
X70881177Y-48113726D01*
X70881177Y-48113726D02*
X70988927Y-48221476D01*
X70988927Y-48221476D02*
X71069739Y-48248413D01*
X71069739Y-48248413D02*
X71123614Y-48248413D01*
X71123614Y-48248413D02*
X71204426Y-48221476D01*
X71204426Y-48221476D02*
X71662362Y-47763540D01*
X71366050Y-48598599D02*
X71931736Y-48032914D01*
X71931736Y-48032914D02*
X71689299Y-48921848D01*
X71689299Y-48921848D02*
X72254985Y-48356162D01*
X91896053Y-53642064D02*
X91869115Y-53561252D01*
X91869115Y-53561252D02*
X91788303Y-53480440D01*
X91788303Y-53480440D02*
X91680553Y-53426565D01*
X91680553Y-53426565D02*
X91572804Y-53426565D01*
X91572804Y-53426565D02*
X91491992Y-53453503D01*
X91491992Y-53453503D02*
X91357305Y-53534315D01*
X91357305Y-53534315D02*
X91276492Y-53615127D01*
X91276492Y-53615127D02*
X91195680Y-53749814D01*
X91195680Y-53749814D02*
X91168743Y-53830626D01*
X91168743Y-53830626D02*
X91168743Y-53938376D01*
X91168743Y-53938376D02*
X91222618Y-54046125D01*
X91222618Y-54046125D02*
X91276492Y-54100000D01*
X91276492Y-54100000D02*
X91384242Y-54153875D01*
X91384242Y-54153875D02*
X91438117Y-54153875D01*
X91438117Y-54153875D02*
X91626679Y-53965313D01*
X91626679Y-53965313D02*
X91518929Y-53857564D01*
X91626679Y-54450186D02*
X92192364Y-53884501D01*
X92192364Y-53884501D02*
X91949927Y-54773435D01*
X91949927Y-54773435D02*
X92515613Y-54207750D01*
X92219301Y-55042809D02*
X92784987Y-54477124D01*
X92784987Y-54477124D02*
X92919674Y-54611811D01*
X92919674Y-54611811D02*
X92973549Y-54719560D01*
X92973549Y-54719560D02*
X92973549Y-54827310D01*
X92973549Y-54827310D02*
X92946611Y-54908122D01*
X92946611Y-54908122D02*
X92865799Y-55042809D01*
X92865799Y-55042809D02*
X92784987Y-55123621D01*
X92784987Y-55123621D02*
X92650300Y-55204433D01*
X92650300Y-55204433D02*
X92569488Y-55231371D01*
X92569488Y-55231371D02*
X92461738Y-55231371D01*
X92461738Y-55231371D02*
X92353988Y-55177496D01*
X92353988Y-55177496D02*
X92219301Y-55042809D01*
X63450004Y-33951390D02*
X63423067Y-33870578D01*
X63423067Y-33870578D02*
X63342255Y-33789766D01*
X63342255Y-33789766D02*
X63234505Y-33735891D01*
X63234505Y-33735891D02*
X63126756Y-33735891D01*
X63126756Y-33735891D02*
X63045943Y-33762828D01*
X63045943Y-33762828D02*
X62911256Y-33843641D01*
X62911256Y-33843641D02*
X62830444Y-33924453D01*
X62830444Y-33924453D02*
X62749632Y-34059140D01*
X62749632Y-34059140D02*
X62722695Y-34139952D01*
X62722695Y-34139952D02*
X62722695Y-34247702D01*
X62722695Y-34247702D02*
X62776569Y-34355451D01*
X62776569Y-34355451D02*
X62830444Y-34409326D01*
X62830444Y-34409326D02*
X62938194Y-34463201D01*
X62938194Y-34463201D02*
X62992069Y-34463201D01*
X62992069Y-34463201D02*
X63180630Y-34274639D01*
X63180630Y-34274639D02*
X63072881Y-34166889D01*
X63180630Y-34759512D02*
X63746316Y-34193827D01*
X63746316Y-34193827D02*
X63961815Y-34409326D01*
X63961815Y-34409326D02*
X63988752Y-34490138D01*
X63988752Y-34490138D02*
X63988752Y-34544013D01*
X63988752Y-34544013D02*
X63961815Y-34624825D01*
X63961815Y-34624825D02*
X63881003Y-34705637D01*
X63881003Y-34705637D02*
X63800191Y-34732575D01*
X63800191Y-34732575D02*
X63746316Y-34732575D01*
X63746316Y-34732575D02*
X63665504Y-34705637D01*
X63665504Y-34705637D02*
X63450004Y-34490138D01*
X64042627Y-35621509D02*
X63719378Y-35298260D01*
X63881003Y-35459885D02*
X64446688Y-34894199D01*
X64446688Y-34894199D02*
X64312001Y-34921137D01*
X64312001Y-34921137D02*
X64204252Y-34921137D01*
X64204252Y-34921137D02*
X64123440Y-34894199D01*
X64958499Y-35406010D02*
X65012374Y-35459885D01*
X65012374Y-35459885D02*
X65039311Y-35540697D01*
X65039311Y-35540697D02*
X65039311Y-35594572D01*
X65039311Y-35594572D02*
X65012374Y-35675384D01*
X65012374Y-35675384D02*
X64931562Y-35810071D01*
X64931562Y-35810071D02*
X64796875Y-35944758D01*
X64796875Y-35944758D02*
X64662188Y-36025570D01*
X64662188Y-36025570D02*
X64581375Y-36052508D01*
X64581375Y-36052508D02*
X64527501Y-36052508D01*
X64527501Y-36052508D02*
X64446688Y-36025570D01*
X64446688Y-36025570D02*
X64392814Y-35971695D01*
X64392814Y-35971695D02*
X64365876Y-35890883D01*
X64365876Y-35890883D02*
X64365876Y-35837008D01*
X64365876Y-35837008D02*
X64392814Y-35756196D01*
X64392814Y-35756196D02*
X64473626Y-35621509D01*
X64473626Y-35621509D02*
X64608313Y-35486822D01*
X64608313Y-35486822D02*
X64743000Y-35406010D01*
X64743000Y-35406010D02*
X64823812Y-35379073D01*
X64823812Y-35379073D02*
X64877687Y-35379073D01*
X64877687Y-35379073D02*
X64958499Y-35406010D01*
X76682990Y-28069002D02*
X76656053Y-27988189D01*
X76656053Y-27988189D02*
X76575240Y-27907377D01*
X76575240Y-27907377D02*
X76467491Y-27853502D01*
X76467491Y-27853502D02*
X76359741Y-27853502D01*
X76359741Y-27853502D02*
X76278929Y-27880440D01*
X76278929Y-27880440D02*
X76144242Y-27961252D01*
X76144242Y-27961252D02*
X76063430Y-28042064D01*
X76063430Y-28042064D02*
X75982617Y-28176751D01*
X75982617Y-28176751D02*
X75955680Y-28257563D01*
X75955680Y-28257563D02*
X75955680Y-28365313D01*
X75955680Y-28365313D02*
X76009555Y-28473063D01*
X76009555Y-28473063D02*
X76063430Y-28526937D01*
X76063430Y-28526937D02*
X76171179Y-28580812D01*
X76171179Y-28580812D02*
X76225054Y-28580812D01*
X76225054Y-28580812D02*
X76413616Y-28392250D01*
X76413616Y-28392250D02*
X76305866Y-28284501D01*
X76413616Y-28877124D02*
X76979301Y-28311438D01*
X76979301Y-28311438D02*
X77194801Y-28526937D01*
X77194801Y-28526937D02*
X77221738Y-28607750D01*
X77221738Y-28607750D02*
X77221738Y-28661624D01*
X77221738Y-28661624D02*
X77194801Y-28742437D01*
X77194801Y-28742437D02*
X77113988Y-28823249D01*
X77113988Y-28823249D02*
X77033176Y-28850186D01*
X77033176Y-28850186D02*
X76979301Y-28850186D01*
X76979301Y-28850186D02*
X76898489Y-28823249D01*
X76898489Y-28823249D02*
X76682990Y-28607750D01*
X77787423Y-29119560D02*
X77679674Y-29011811D01*
X77679674Y-29011811D02*
X77598862Y-28984873D01*
X77598862Y-28984873D02*
X77544987Y-28984873D01*
X77544987Y-28984873D02*
X77410300Y-29011811D01*
X77410300Y-29011811D02*
X77275613Y-29092623D01*
X77275613Y-29092623D02*
X77060114Y-29308122D01*
X77060114Y-29308122D02*
X77033176Y-29388934D01*
X77033176Y-29388934D02*
X77033176Y-29442809D01*
X77033176Y-29442809D02*
X77060114Y-29523621D01*
X77060114Y-29523621D02*
X77167863Y-29631371D01*
X77167863Y-29631371D02*
X77248675Y-29658308D01*
X77248675Y-29658308D02*
X77302550Y-29658308D01*
X77302550Y-29658308D02*
X77383362Y-29631371D01*
X77383362Y-29631371D02*
X77518049Y-29496684D01*
X77518049Y-29496684D02*
X77544987Y-29415872D01*
X77544987Y-29415872D02*
X77544987Y-29361997D01*
X77544987Y-29361997D02*
X77518049Y-29281185D01*
X77518049Y-29281185D02*
X77410300Y-29173435D01*
X77410300Y-29173435D02*
X77329488Y-29146498D01*
X77329488Y-29146498D02*
X77275613Y-29146498D01*
X77275613Y-29146498D02*
X77194801Y-29173435D01*
X91896053Y-28042064D02*
X91869115Y-27961252D01*
X91869115Y-27961252D02*
X91788303Y-27880440D01*
X91788303Y-27880440D02*
X91680553Y-27826565D01*
X91680553Y-27826565D02*
X91572804Y-27826565D01*
X91572804Y-27826565D02*
X91491992Y-27853503D01*
X91491992Y-27853503D02*
X91357305Y-27934315D01*
X91357305Y-27934315D02*
X91276492Y-28015127D01*
X91276492Y-28015127D02*
X91195680Y-28149814D01*
X91195680Y-28149814D02*
X91168743Y-28230626D01*
X91168743Y-28230626D02*
X91168743Y-28338376D01*
X91168743Y-28338376D02*
X91222618Y-28446125D01*
X91222618Y-28446125D02*
X91276492Y-28500000D01*
X91276492Y-28500000D02*
X91384242Y-28553875D01*
X91384242Y-28553875D02*
X91438117Y-28553875D01*
X91438117Y-28553875D02*
X91626679Y-28365313D01*
X91626679Y-28365313D02*
X91518929Y-28257564D01*
X91626679Y-28850186D02*
X92192364Y-28284501D01*
X92192364Y-28284501D02*
X91949927Y-29173435D01*
X91949927Y-29173435D02*
X92515613Y-28607750D01*
X92219301Y-29442809D02*
X92784987Y-28877124D01*
X92784987Y-28877124D02*
X92919674Y-29011811D01*
X92919674Y-29011811D02*
X92973549Y-29119560D01*
X92973549Y-29119560D02*
X92973549Y-29227310D01*
X92973549Y-29227310D02*
X92946611Y-29308122D01*
X92946611Y-29308122D02*
X92865799Y-29442809D01*
X92865799Y-29442809D02*
X92784987Y-29523621D01*
X92784987Y-29523621D02*
X92650300Y-29604433D01*
X92650300Y-29604433D02*
X92569488Y-29631371D01*
X92569488Y-29631371D02*
X92461738Y-29631371D01*
X92461738Y-29631371D02*
X92353988Y-29577496D01*
X92353988Y-29577496D02*
X92219301Y-29442809D01*
X48460282Y-46878337D02*
X48433345Y-46797525D01*
X48433345Y-46797525D02*
X48352533Y-46716713D01*
X48352533Y-46716713D02*
X48244783Y-46662838D01*
X48244783Y-46662838D02*
X48137034Y-46662838D01*
X48137034Y-46662838D02*
X48056221Y-46689775D01*
X48056221Y-46689775D02*
X47921534Y-46770588D01*
X47921534Y-46770588D02*
X47840722Y-46851400D01*
X47840722Y-46851400D02*
X47759910Y-46986087D01*
X47759910Y-46986087D02*
X47732973Y-47066899D01*
X47732973Y-47066899D02*
X47732973Y-47174649D01*
X47732973Y-47174649D02*
X47786847Y-47282398D01*
X47786847Y-47282398D02*
X47840722Y-47336273D01*
X47840722Y-47336273D02*
X47948472Y-47390148D01*
X47948472Y-47390148D02*
X48002347Y-47390148D01*
X48002347Y-47390148D02*
X48190908Y-47201586D01*
X48190908Y-47201586D02*
X48083159Y-47093836D01*
X48190908Y-47686459D02*
X48756594Y-47120774D01*
X48756594Y-47120774D02*
X48972093Y-47336273D01*
X48972093Y-47336273D02*
X48999030Y-47417085D01*
X48999030Y-47417085D02*
X48999030Y-47470960D01*
X48999030Y-47470960D02*
X48972093Y-47551772D01*
X48972093Y-47551772D02*
X48891281Y-47632584D01*
X48891281Y-47632584D02*
X48810469Y-47659522D01*
X48810469Y-47659522D02*
X48756594Y-47659522D01*
X48756594Y-47659522D02*
X48675782Y-47632584D01*
X48675782Y-47632584D02*
X48460282Y-47417085D01*
X49052905Y-48548456D02*
X48729656Y-48225207D01*
X48891281Y-48386832D02*
X49456966Y-47821146D01*
X49456966Y-47821146D02*
X49322279Y-47848084D01*
X49322279Y-47848084D02*
X49214530Y-47848084D01*
X49214530Y-47848084D02*
X49133718Y-47821146D01*
X50103464Y-48467644D02*
X49995715Y-48359894D01*
X49995715Y-48359894D02*
X49914902Y-48332957D01*
X49914902Y-48332957D02*
X49861028Y-48332957D01*
X49861028Y-48332957D02*
X49726340Y-48359894D01*
X49726340Y-48359894D02*
X49591653Y-48440707D01*
X49591653Y-48440707D02*
X49376154Y-48656206D01*
X49376154Y-48656206D02*
X49349217Y-48737018D01*
X49349217Y-48737018D02*
X49349217Y-48790893D01*
X49349217Y-48790893D02*
X49376154Y-48871705D01*
X49376154Y-48871705D02*
X49483904Y-48979455D01*
X49483904Y-48979455D02*
X49564716Y-49006392D01*
X49564716Y-49006392D02*
X49618591Y-49006392D01*
X49618591Y-49006392D02*
X49699403Y-48979455D01*
X49699403Y-48979455D02*
X49834090Y-48844768D01*
X49834090Y-48844768D02*
X49861028Y-48763955D01*
X49861028Y-48763955D02*
X49861028Y-48710081D01*
X49861028Y-48710081D02*
X49834090Y-48629268D01*
X49834090Y-48629268D02*
X49726340Y-48521519D01*
X49726340Y-48521519D02*
X49645528Y-48494581D01*
X49645528Y-48494581D02*
X49591653Y-48494581D01*
X49591653Y-48494581D02*
X49510841Y-48521519D01*
X61170617Y-33951390D02*
X61143680Y-33870578D01*
X61143680Y-33870578D02*
X61062868Y-33789766D01*
X61062868Y-33789766D02*
X60955118Y-33735891D01*
X60955118Y-33735891D02*
X60847369Y-33735891D01*
X60847369Y-33735891D02*
X60766556Y-33762828D01*
X60766556Y-33762828D02*
X60631869Y-33843641D01*
X60631869Y-33843641D02*
X60551057Y-33924453D01*
X60551057Y-33924453D02*
X60470245Y-34059140D01*
X60470245Y-34059140D02*
X60443308Y-34139952D01*
X60443308Y-34139952D02*
X60443308Y-34247702D01*
X60443308Y-34247702D02*
X60497182Y-34355451D01*
X60497182Y-34355451D02*
X60551057Y-34409326D01*
X60551057Y-34409326D02*
X60658807Y-34463201D01*
X60658807Y-34463201D02*
X60712682Y-34463201D01*
X60712682Y-34463201D02*
X60901243Y-34274639D01*
X60901243Y-34274639D02*
X60793494Y-34166889D01*
X60901243Y-34759512D02*
X61466929Y-34193827D01*
X61466929Y-34193827D02*
X61682428Y-34409326D01*
X61682428Y-34409326D02*
X61709365Y-34490138D01*
X61709365Y-34490138D02*
X61709365Y-34544013D01*
X61709365Y-34544013D02*
X61682428Y-34624825D01*
X61682428Y-34624825D02*
X61601616Y-34705637D01*
X61601616Y-34705637D02*
X61520804Y-34732575D01*
X61520804Y-34732575D02*
X61466929Y-34732575D01*
X61466929Y-34732575D02*
X61386117Y-34705637D01*
X61386117Y-34705637D02*
X61170617Y-34490138D01*
X61763240Y-35621509D02*
X61439991Y-35298260D01*
X61601616Y-35459885D02*
X62167301Y-34894199D01*
X62167301Y-34894199D02*
X62032614Y-34921137D01*
X62032614Y-34921137D02*
X61924865Y-34921137D01*
X61924865Y-34921137D02*
X61844053Y-34894199D01*
X62301988Y-36160257D02*
X61978740Y-35837008D01*
X62140364Y-35998633D02*
X62706050Y-35432947D01*
X62706050Y-35432947D02*
X62571363Y-35459885D01*
X62571363Y-35459885D02*
X62463613Y-35459885D01*
X62463613Y-35459885D02*
X62382801Y-35432947D01*
X68191926Y-47126487D02*
X68164989Y-47045675D01*
X68164989Y-47045675D02*
X68084177Y-46964863D01*
X68084177Y-46964863D02*
X67976427Y-46910988D01*
X67976427Y-46910988D02*
X67868678Y-46910988D01*
X67868678Y-46910988D02*
X67787865Y-46937925D01*
X67787865Y-46937925D02*
X67653178Y-47018738D01*
X67653178Y-47018738D02*
X67572366Y-47099550D01*
X67572366Y-47099550D02*
X67491554Y-47234237D01*
X67491554Y-47234237D02*
X67464617Y-47315049D01*
X67464617Y-47315049D02*
X67464617Y-47422799D01*
X67464617Y-47422799D02*
X67518491Y-47530548D01*
X67518491Y-47530548D02*
X67572366Y-47584423D01*
X67572366Y-47584423D02*
X67680116Y-47638298D01*
X67680116Y-47638298D02*
X67733991Y-47638298D01*
X67733991Y-47638298D02*
X67922552Y-47449736D01*
X67922552Y-47449736D02*
X67814803Y-47341986D01*
X67922552Y-47934609D02*
X68488238Y-47368924D01*
X68488238Y-47368924D02*
X68703737Y-47584423D01*
X68703737Y-47584423D02*
X68730674Y-47665235D01*
X68730674Y-47665235D02*
X68730674Y-47719110D01*
X68730674Y-47719110D02*
X68703737Y-47799922D01*
X68703737Y-47799922D02*
X68622925Y-47880734D01*
X68622925Y-47880734D02*
X68542113Y-47907672D01*
X68542113Y-47907672D02*
X68488238Y-47907672D01*
X68488238Y-47907672D02*
X68407426Y-47880734D01*
X68407426Y-47880734D02*
X68191926Y-47665235D01*
X68973111Y-47961547D02*
X69026986Y-47961547D01*
X69026986Y-47961547D02*
X69107798Y-47988484D01*
X69107798Y-47988484D02*
X69242485Y-48123171D01*
X69242485Y-48123171D02*
X69269423Y-48203983D01*
X69269423Y-48203983D02*
X69269423Y-48257858D01*
X69269423Y-48257858D02*
X69242485Y-48338670D01*
X69242485Y-48338670D02*
X69188610Y-48392545D01*
X69188610Y-48392545D02*
X69080861Y-48446420D01*
X69080861Y-48446420D02*
X68434363Y-48446420D01*
X68434363Y-48446420D02*
X68784549Y-48796606D01*
X69511859Y-48500295D02*
X69565734Y-48500295D01*
X69565734Y-48500295D02*
X69646546Y-48527232D01*
X69646546Y-48527232D02*
X69781233Y-48661919D01*
X69781233Y-48661919D02*
X69808171Y-48742731D01*
X69808171Y-48742731D02*
X69808171Y-48796606D01*
X69808171Y-48796606D02*
X69781233Y-48877418D01*
X69781233Y-48877418D02*
X69727359Y-48931293D01*
X69727359Y-48931293D02*
X69619609Y-48985168D01*
X69619609Y-48985168D02*
X68973111Y-48985168D01*
X68973111Y-48985168D02*
X69323297Y-49335354D01*
X86503616Y-47212697D02*
X86853802Y-47562884D01*
X86853802Y-47562884D02*
X86449741Y-47589821D01*
X86449741Y-47589821D02*
X86530553Y-47670633D01*
X86530553Y-47670633D02*
X86557490Y-47751445D01*
X86557490Y-47751445D02*
X86557490Y-47805320D01*
X86557490Y-47805320D02*
X86530553Y-47886132D01*
X86530553Y-47886132D02*
X86395866Y-48020819D01*
X86395866Y-48020819D02*
X86315054Y-48047757D01*
X86315054Y-48047757D02*
X86261179Y-48047757D01*
X86261179Y-48047757D02*
X86180367Y-48020819D01*
X86180367Y-48020819D02*
X86018742Y-47859195D01*
X86018742Y-47859195D02*
X85991805Y-47778383D01*
X85991805Y-47778383D02*
X85991805Y-47724508D01*
X87015426Y-47724508D02*
X86638303Y-48478755D01*
X86638303Y-48478755D02*
X87392550Y-48101632D01*
X87527237Y-48236319D02*
X87877423Y-48586505D01*
X87877423Y-48586505D02*
X87473362Y-48613442D01*
X87473362Y-48613442D02*
X87554174Y-48694254D01*
X87554174Y-48694254D02*
X87581112Y-48775067D01*
X87581112Y-48775067D02*
X87581112Y-48828941D01*
X87581112Y-48828941D02*
X87554174Y-48909754D01*
X87554174Y-48909754D02*
X87419487Y-49044441D01*
X87419487Y-49044441D02*
X87338675Y-49071378D01*
X87338675Y-49071378D02*
X87284800Y-49071378D01*
X87284800Y-49071378D02*
X87203988Y-49044441D01*
X87203988Y-49044441D02*
X87042364Y-48882816D01*
X87042364Y-48882816D02*
X87015426Y-48802004D01*
X87015426Y-48802004D02*
X87015426Y-48748129D01*
X58053884Y-47064020D02*
X58026947Y-46983208D01*
X58026947Y-46983208D02*
X57946135Y-46902396D01*
X57946135Y-46902396D02*
X57838385Y-46848521D01*
X57838385Y-46848521D02*
X57730636Y-46848521D01*
X57730636Y-46848521D02*
X57649823Y-46875458D01*
X57649823Y-46875458D02*
X57515136Y-46956271D01*
X57515136Y-46956271D02*
X57434324Y-47037083D01*
X57434324Y-47037083D02*
X57353512Y-47171770D01*
X57353512Y-47171770D02*
X57326575Y-47252582D01*
X57326575Y-47252582D02*
X57326575Y-47360332D01*
X57326575Y-47360332D02*
X57380449Y-47468081D01*
X57380449Y-47468081D02*
X57434324Y-47521956D01*
X57434324Y-47521956D02*
X57542074Y-47575831D01*
X57542074Y-47575831D02*
X57595949Y-47575831D01*
X57595949Y-47575831D02*
X57784510Y-47387269D01*
X57784510Y-47387269D02*
X57676761Y-47279519D01*
X57784510Y-47872142D02*
X58350196Y-47306457D01*
X58350196Y-47306457D02*
X58565695Y-47521956D01*
X58565695Y-47521956D02*
X58592632Y-47602768D01*
X58592632Y-47602768D02*
X58592632Y-47656643D01*
X58592632Y-47656643D02*
X58565695Y-47737455D01*
X58565695Y-47737455D02*
X58484883Y-47818267D01*
X58484883Y-47818267D02*
X58404071Y-47845205D01*
X58404071Y-47845205D02*
X58350196Y-47845205D01*
X58350196Y-47845205D02*
X58269384Y-47818267D01*
X58269384Y-47818267D02*
X58053884Y-47602768D01*
X58646507Y-48734139D02*
X58323258Y-48410890D01*
X58484883Y-48572515D02*
X59050568Y-48006829D01*
X59050568Y-48006829D02*
X58915881Y-48033767D01*
X58915881Y-48033767D02*
X58808132Y-48033767D01*
X58808132Y-48033767D02*
X58727320Y-48006829D01*
X58915881Y-49003513D02*
X59023631Y-49111263D01*
X59023631Y-49111263D02*
X59104443Y-49138200D01*
X59104443Y-49138200D02*
X59158318Y-49138200D01*
X59158318Y-49138200D02*
X59293005Y-49111263D01*
X59293005Y-49111263D02*
X59427692Y-49030451D01*
X59427692Y-49030451D02*
X59643191Y-48814951D01*
X59643191Y-48814951D02*
X59670129Y-48734139D01*
X59670129Y-48734139D02*
X59670129Y-48680264D01*
X59670129Y-48680264D02*
X59643191Y-48599452D01*
X59643191Y-48599452D02*
X59535442Y-48491703D01*
X59535442Y-48491703D02*
X59454630Y-48464765D01*
X59454630Y-48464765D02*
X59400755Y-48464765D01*
X59400755Y-48464765D02*
X59319942Y-48491703D01*
X59319942Y-48491703D02*
X59185255Y-48626390D01*
X59185255Y-48626390D02*
X59158318Y-48707202D01*
X59158318Y-48707202D02*
X59158318Y-48761077D01*
X59158318Y-48761077D02*
X59185255Y-48841889D01*
X59185255Y-48841889D02*
X59293005Y-48949638D01*
X59293005Y-48949638D02*
X59373817Y-48976576D01*
X59373817Y-48976576D02*
X59427692Y-48976576D01*
X59427692Y-48976576D02*
X59508504Y-48949638D01*
X94290270Y-34517902D02*
X94263333Y-34437089D01*
X94263333Y-34437089D02*
X94182520Y-34356277D01*
X94182520Y-34356277D02*
X94074771Y-34302402D01*
X94074771Y-34302402D02*
X93967021Y-34302402D01*
X93967021Y-34302402D02*
X93886209Y-34329340D01*
X93886209Y-34329340D02*
X93751522Y-34410152D01*
X93751522Y-34410152D02*
X93670710Y-34490964D01*
X93670710Y-34490964D02*
X93589897Y-34625651D01*
X93589897Y-34625651D02*
X93562960Y-34706463D01*
X93562960Y-34706463D02*
X93562960Y-34814213D01*
X93562960Y-34814213D02*
X93616835Y-34921963D01*
X93616835Y-34921963D02*
X93670710Y-34975837D01*
X93670710Y-34975837D02*
X93778459Y-35029712D01*
X93778459Y-35029712D02*
X93832334Y-35029712D01*
X93832334Y-35029712D02*
X94020896Y-34841150D01*
X94020896Y-34841150D02*
X93913146Y-34733401D01*
X94020896Y-35326024D02*
X94586581Y-34760338D01*
X94586581Y-34760338D02*
X94802081Y-34975837D01*
X94802081Y-34975837D02*
X94829018Y-35056650D01*
X94829018Y-35056650D02*
X94829018Y-35110524D01*
X94829018Y-35110524D02*
X94802081Y-35191337D01*
X94802081Y-35191337D02*
X94721268Y-35272149D01*
X94721268Y-35272149D02*
X94640456Y-35299086D01*
X94640456Y-35299086D02*
X94586581Y-35299086D01*
X94586581Y-35299086D02*
X94505769Y-35272149D01*
X94505769Y-35272149D02*
X94290270Y-35056650D01*
X94882893Y-36188020D02*
X94559644Y-35864772D01*
X94721268Y-36026396D02*
X95286954Y-35460711D01*
X95286954Y-35460711D02*
X95152267Y-35487648D01*
X95152267Y-35487648D02*
X95044517Y-35487648D01*
X95044517Y-35487648D02*
X94963705Y-35460711D01*
X78253244Y-53707503D02*
X78522618Y-53976877D01*
X78037745Y-53815252D02*
X78791992Y-53438129D01*
X78791992Y-53438129D02*
X78414868Y-54192376D01*
X79438489Y-54138501D02*
X79411552Y-54057689D01*
X79411552Y-54057689D02*
X79330740Y-53976876D01*
X79330740Y-53976876D02*
X79222990Y-53923002D01*
X79222990Y-53923002D02*
X79115240Y-53923002D01*
X79115240Y-53923002D02*
X79034428Y-53949939D01*
X79034428Y-53949939D02*
X78899741Y-54030751D01*
X78899741Y-54030751D02*
X78818929Y-54111563D01*
X78818929Y-54111563D02*
X78738117Y-54246250D01*
X78738117Y-54246250D02*
X78711179Y-54327063D01*
X78711179Y-54327063D02*
X78711179Y-54434812D01*
X78711179Y-54434812D02*
X78765054Y-54542562D01*
X78765054Y-54542562D02*
X78818929Y-54596437D01*
X78818929Y-54596437D02*
X78926679Y-54650311D01*
X78926679Y-54650311D02*
X78980553Y-54650311D01*
X78980553Y-54650311D02*
X79169115Y-54461750D01*
X79169115Y-54461750D02*
X79061366Y-54354000D01*
X79169115Y-54946623D02*
X79734801Y-54380937D01*
X79734801Y-54380937D02*
X79492364Y-55269872D01*
X79492364Y-55269872D02*
X80058049Y-54704186D01*
X79761738Y-55539246D02*
X80327423Y-54973560D01*
X80327423Y-54973560D02*
X80462110Y-55108247D01*
X80462110Y-55108247D02*
X80515985Y-55215997D01*
X80515985Y-55215997D02*
X80515985Y-55323746D01*
X80515985Y-55323746D02*
X80489048Y-55404559D01*
X80489048Y-55404559D02*
X80408235Y-55539246D01*
X80408235Y-55539246D02*
X80327423Y-55620058D01*
X80327423Y-55620058D02*
X80192736Y-55700870D01*
X80192736Y-55700870D02*
X80111924Y-55727807D01*
X80111924Y-55727807D02*
X80004174Y-55727807D01*
X80004174Y-55727807D02*
X79896425Y-55673933D01*
X79896425Y-55673933D02*
X79761738Y-55539246D01*
X51666485Y-34148955D02*
X51639548Y-34068143D01*
X51639548Y-34068143D02*
X51558736Y-33987331D01*
X51558736Y-33987331D02*
X51450986Y-33933456D01*
X51450986Y-33933456D02*
X51343237Y-33933456D01*
X51343237Y-33933456D02*
X51262424Y-33960393D01*
X51262424Y-33960393D02*
X51127737Y-34041206D01*
X51127737Y-34041206D02*
X51046925Y-34122018D01*
X51046925Y-34122018D02*
X50966113Y-34256705D01*
X50966113Y-34256705D02*
X50939176Y-34337517D01*
X50939176Y-34337517D02*
X50939176Y-34445267D01*
X50939176Y-34445267D02*
X50993050Y-34553016D01*
X50993050Y-34553016D02*
X51046925Y-34606891D01*
X51046925Y-34606891D02*
X51154675Y-34660766D01*
X51154675Y-34660766D02*
X51208550Y-34660766D01*
X51208550Y-34660766D02*
X51397111Y-34472204D01*
X51397111Y-34472204D02*
X51289362Y-34364454D01*
X51397111Y-34957077D02*
X51962797Y-34391392D01*
X51962797Y-34391392D02*
X52178296Y-34606891D01*
X52178296Y-34606891D02*
X52205233Y-34687703D01*
X52205233Y-34687703D02*
X52205233Y-34741578D01*
X52205233Y-34741578D02*
X52178296Y-34822390D01*
X52178296Y-34822390D02*
X52097484Y-34903202D01*
X52097484Y-34903202D02*
X52016672Y-34930140D01*
X52016672Y-34930140D02*
X51962797Y-34930140D01*
X51962797Y-34930140D02*
X51881985Y-34903202D01*
X51881985Y-34903202D02*
X51666485Y-34687703D01*
X52259108Y-35819074D02*
X51935859Y-35495825D01*
X52097484Y-35657450D02*
X52663169Y-35091764D01*
X52663169Y-35091764D02*
X52528482Y-35118702D01*
X52528482Y-35118702D02*
X52420733Y-35118702D01*
X52420733Y-35118702D02*
X52339921Y-35091764D01*
X53121105Y-35926824D02*
X52743982Y-36303947D01*
X53201918Y-35576638D02*
X52663169Y-35846012D01*
X52663169Y-35846012D02*
X53013356Y-36196198D01*
X56365424Y-34259415D02*
X56338487Y-34178603D01*
X56338487Y-34178603D02*
X56257675Y-34097791D01*
X56257675Y-34097791D02*
X56149925Y-34043916D01*
X56149925Y-34043916D02*
X56042176Y-34043916D01*
X56042176Y-34043916D02*
X55961363Y-34070853D01*
X55961363Y-34070853D02*
X55826676Y-34151666D01*
X55826676Y-34151666D02*
X55745864Y-34232478D01*
X55745864Y-34232478D02*
X55665052Y-34367165D01*
X55665052Y-34367165D02*
X55638115Y-34447977D01*
X55638115Y-34447977D02*
X55638115Y-34555727D01*
X55638115Y-34555727D02*
X55691989Y-34663476D01*
X55691989Y-34663476D02*
X55745864Y-34717351D01*
X55745864Y-34717351D02*
X55853614Y-34771226D01*
X55853614Y-34771226D02*
X55907489Y-34771226D01*
X55907489Y-34771226D02*
X56096050Y-34582664D01*
X56096050Y-34582664D02*
X55988301Y-34474914D01*
X56096050Y-35067537D02*
X56661736Y-34501852D01*
X56661736Y-34501852D02*
X56877235Y-34717351D01*
X56877235Y-34717351D02*
X56904172Y-34798163D01*
X56904172Y-34798163D02*
X56904172Y-34852038D01*
X56904172Y-34852038D02*
X56877235Y-34932850D01*
X56877235Y-34932850D02*
X56796423Y-35013662D01*
X56796423Y-35013662D02*
X56715611Y-35040600D01*
X56715611Y-35040600D02*
X56661736Y-35040600D01*
X56661736Y-35040600D02*
X56580924Y-35013662D01*
X56580924Y-35013662D02*
X56365424Y-34798163D01*
X56958047Y-35929534D02*
X56634798Y-35606285D01*
X56796423Y-35767910D02*
X57362108Y-35202224D01*
X57362108Y-35202224D02*
X57227421Y-35229162D01*
X57227421Y-35229162D02*
X57119672Y-35229162D01*
X57119672Y-35229162D02*
X57038860Y-35202224D01*
X57712295Y-35552411D02*
X58062481Y-35902597D01*
X58062481Y-35902597D02*
X57658420Y-35929534D01*
X57658420Y-35929534D02*
X57739232Y-36010346D01*
X57739232Y-36010346D02*
X57766170Y-36091159D01*
X57766170Y-36091159D02*
X57766170Y-36145033D01*
X57766170Y-36145033D02*
X57739232Y-36225846D01*
X57739232Y-36225846D02*
X57604545Y-36360533D01*
X57604545Y-36360533D02*
X57523733Y-36387470D01*
X57523733Y-36387470D02*
X57469858Y-36387470D01*
X57469858Y-36387470D02*
X57389046Y-36360533D01*
X57389046Y-36360533D02*
X57227421Y-36198908D01*
X57227421Y-36198908D02*
X57200484Y-36118096D01*
X57200484Y-36118096D02*
X57200484Y-36064221D01*
X66496053Y-53642064D02*
X66469115Y-53561252D01*
X66469115Y-53561252D02*
X66388303Y-53480440D01*
X66388303Y-53480440D02*
X66280553Y-53426565D01*
X66280553Y-53426565D02*
X66172804Y-53426565D01*
X66172804Y-53426565D02*
X66091992Y-53453503D01*
X66091992Y-53453503D02*
X65957305Y-53534315D01*
X65957305Y-53534315D02*
X65876492Y-53615127D01*
X65876492Y-53615127D02*
X65795680Y-53749814D01*
X65795680Y-53749814D02*
X65768743Y-53830626D01*
X65768743Y-53830626D02*
X65768743Y-53938376D01*
X65768743Y-53938376D02*
X65822618Y-54046125D01*
X65822618Y-54046125D02*
X65876492Y-54100000D01*
X65876492Y-54100000D02*
X65984242Y-54153875D01*
X65984242Y-54153875D02*
X66038117Y-54153875D01*
X66038117Y-54153875D02*
X66226679Y-53965313D01*
X66226679Y-53965313D02*
X66118929Y-53857564D01*
X66226679Y-54450186D02*
X66792364Y-53884501D01*
X66792364Y-53884501D02*
X66549927Y-54773435D01*
X66549927Y-54773435D02*
X67115613Y-54207750D01*
X66819301Y-55042809D02*
X67384987Y-54477124D01*
X67384987Y-54477124D02*
X67519674Y-54611811D01*
X67519674Y-54611811D02*
X67573549Y-54719560D01*
X67573549Y-54719560D02*
X67573549Y-54827310D01*
X67573549Y-54827310D02*
X67546611Y-54908122D01*
X67546611Y-54908122D02*
X67465799Y-55042809D01*
X67465799Y-55042809D02*
X67384987Y-55123621D01*
X67384987Y-55123621D02*
X67250300Y-55204433D01*
X67250300Y-55204433D02*
X67169488Y-55231371D01*
X67169488Y-55231371D02*
X67061738Y-55231371D01*
X67061738Y-55231371D02*
X66953988Y-55177496D01*
X66953988Y-55177496D02*
X66819301Y-55042809D01*
X55557484Y-47084651D02*
X55530547Y-47003839D01*
X55530547Y-47003839D02*
X55449735Y-46923027D01*
X55449735Y-46923027D02*
X55341985Y-46869152D01*
X55341985Y-46869152D02*
X55234236Y-46869152D01*
X55234236Y-46869152D02*
X55153423Y-46896089D01*
X55153423Y-46896089D02*
X55018736Y-46976902D01*
X55018736Y-46976902D02*
X54937924Y-47057714D01*
X54937924Y-47057714D02*
X54857112Y-47192401D01*
X54857112Y-47192401D02*
X54830175Y-47273213D01*
X54830175Y-47273213D02*
X54830175Y-47380963D01*
X54830175Y-47380963D02*
X54884049Y-47488712D01*
X54884049Y-47488712D02*
X54937924Y-47542587D01*
X54937924Y-47542587D02*
X55045674Y-47596462D01*
X55045674Y-47596462D02*
X55099549Y-47596462D01*
X55099549Y-47596462D02*
X55288110Y-47407900D01*
X55288110Y-47407900D02*
X55180361Y-47300150D01*
X55288110Y-47892773D02*
X55853796Y-47327088D01*
X55853796Y-47327088D02*
X56069295Y-47542587D01*
X56069295Y-47542587D02*
X56096232Y-47623399D01*
X56096232Y-47623399D02*
X56096232Y-47677274D01*
X56096232Y-47677274D02*
X56069295Y-47758086D01*
X56069295Y-47758086D02*
X55988483Y-47838898D01*
X55988483Y-47838898D02*
X55907671Y-47865836D01*
X55907671Y-47865836D02*
X55853796Y-47865836D01*
X55853796Y-47865836D02*
X55772984Y-47838898D01*
X55772984Y-47838898D02*
X55557484Y-47623399D01*
X56150107Y-48754770D02*
X55826858Y-48431521D01*
X55988483Y-48593146D02*
X56554168Y-48027460D01*
X56554168Y-48027460D02*
X56419481Y-48054398D01*
X56419481Y-48054398D02*
X56311732Y-48054398D01*
X56311732Y-48054398D02*
X56230920Y-48027460D01*
X56796605Y-48754770D02*
X56769668Y-48673958D01*
X56769668Y-48673958D02*
X56769668Y-48620083D01*
X56769668Y-48620083D02*
X56796605Y-48539271D01*
X56796605Y-48539271D02*
X56823542Y-48512334D01*
X56823542Y-48512334D02*
X56904355Y-48485396D01*
X56904355Y-48485396D02*
X56958230Y-48485396D01*
X56958230Y-48485396D02*
X57039042Y-48512334D01*
X57039042Y-48512334D02*
X57146791Y-48620083D01*
X57146791Y-48620083D02*
X57173729Y-48700895D01*
X57173729Y-48700895D02*
X57173729Y-48754770D01*
X57173729Y-48754770D02*
X57146791Y-48835582D01*
X57146791Y-48835582D02*
X57119854Y-48862520D01*
X57119854Y-48862520D02*
X57039042Y-48889457D01*
X57039042Y-48889457D02*
X56985167Y-48889457D01*
X56985167Y-48889457D02*
X56904355Y-48862520D01*
X56904355Y-48862520D02*
X56796605Y-48754770D01*
X56796605Y-48754770D02*
X56715793Y-48727833D01*
X56715793Y-48727833D02*
X56661918Y-48727833D01*
X56661918Y-48727833D02*
X56581106Y-48754770D01*
X56581106Y-48754770D02*
X56473356Y-48862520D01*
X56473356Y-48862520D02*
X56446419Y-48943332D01*
X56446419Y-48943332D02*
X56446419Y-48997207D01*
X56446419Y-48997207D02*
X56473356Y-49078019D01*
X56473356Y-49078019D02*
X56581106Y-49185769D01*
X56581106Y-49185769D02*
X56661918Y-49212706D01*
X56661918Y-49212706D02*
X56715793Y-49212706D01*
X56715793Y-49212706D02*
X56796605Y-49185769D01*
X56796605Y-49185769D02*
X56904355Y-49078019D01*
X56904355Y-49078019D02*
X56931292Y-48997207D01*
X56931292Y-48997207D02*
X56931292Y-48943332D01*
X56931292Y-48943332D02*
X56904355Y-48862520D01*
X76403615Y-53653627D02*
X76376678Y-53572815D01*
X76376678Y-53572815D02*
X76295866Y-53492003D01*
X76295866Y-53492003D02*
X76188116Y-53438128D01*
X76188116Y-53438128D02*
X76080367Y-53438128D01*
X76080367Y-53438128D02*
X75999554Y-53465065D01*
X75999554Y-53465065D02*
X75864867Y-53545878D01*
X75864867Y-53545878D02*
X75784055Y-53626690D01*
X75784055Y-53626690D02*
X75703243Y-53761377D01*
X75703243Y-53761377D02*
X75676306Y-53842189D01*
X75676306Y-53842189D02*
X75676306Y-53949939D01*
X75676306Y-53949939D02*
X75730180Y-54057688D01*
X75730180Y-54057688D02*
X75784055Y-54111563D01*
X75784055Y-54111563D02*
X75891805Y-54165438D01*
X75891805Y-54165438D02*
X75945680Y-54165438D01*
X75945680Y-54165438D02*
X76134241Y-53976876D01*
X76134241Y-53976876D02*
X76026492Y-53869126D01*
X76134241Y-54461749D02*
X76699927Y-53896064D01*
X76699927Y-53896064D02*
X76915426Y-54111563D01*
X76915426Y-54111563D02*
X76942363Y-54192375D01*
X76942363Y-54192375D02*
X76942363Y-54246250D01*
X76942363Y-54246250D02*
X76915426Y-54327062D01*
X76915426Y-54327062D02*
X76834614Y-54407874D01*
X76834614Y-54407874D02*
X76753802Y-54434812D01*
X76753802Y-54434812D02*
X76699927Y-54434812D01*
X76699927Y-54434812D02*
X76619115Y-54407874D01*
X76619115Y-54407874D02*
X76403615Y-54192375D01*
X77184800Y-54488687D02*
X77238675Y-54488687D01*
X77238675Y-54488687D02*
X77319487Y-54515624D01*
X77319487Y-54515624D02*
X77454174Y-54650311D01*
X77454174Y-54650311D02*
X77481112Y-54731123D01*
X77481112Y-54731123D02*
X77481112Y-54784998D01*
X77481112Y-54784998D02*
X77454174Y-54865810D01*
X77454174Y-54865810D02*
X77400299Y-54919685D01*
X77400299Y-54919685D02*
X77292550Y-54973560D01*
X77292550Y-54973560D02*
X76646052Y-54973560D01*
X76646052Y-54973560D02*
X76996238Y-55323746D01*
X77750486Y-54946623D02*
X78127609Y-55323746D01*
X78127609Y-55323746D02*
X77319487Y-55646995D01*
X60612178Y-47146545D02*
X60585241Y-47065733D01*
X60585241Y-47065733D02*
X60504429Y-46984921D01*
X60504429Y-46984921D02*
X60396679Y-46931046D01*
X60396679Y-46931046D02*
X60288930Y-46931046D01*
X60288930Y-46931046D02*
X60208117Y-46957983D01*
X60208117Y-46957983D02*
X60073430Y-47038796D01*
X60073430Y-47038796D02*
X59992618Y-47119608D01*
X59992618Y-47119608D02*
X59911806Y-47254295D01*
X59911806Y-47254295D02*
X59884869Y-47335107D01*
X59884869Y-47335107D02*
X59884869Y-47442857D01*
X59884869Y-47442857D02*
X59938743Y-47550606D01*
X59938743Y-47550606D02*
X59992618Y-47604481D01*
X59992618Y-47604481D02*
X60100368Y-47658356D01*
X60100368Y-47658356D02*
X60154243Y-47658356D01*
X60154243Y-47658356D02*
X60342804Y-47469794D01*
X60342804Y-47469794D02*
X60235055Y-47362044D01*
X60342804Y-47954667D02*
X60908490Y-47388982D01*
X60908490Y-47388982D02*
X61123989Y-47604481D01*
X61123989Y-47604481D02*
X61150926Y-47685293D01*
X61150926Y-47685293D02*
X61150926Y-47739168D01*
X61150926Y-47739168D02*
X61123989Y-47819980D01*
X61123989Y-47819980D02*
X61043177Y-47900792D01*
X61043177Y-47900792D02*
X60962365Y-47927730D01*
X60962365Y-47927730D02*
X60908490Y-47927730D01*
X60908490Y-47927730D02*
X60827678Y-47900792D01*
X60827678Y-47900792D02*
X60612178Y-47685293D01*
X61393363Y-47981605D02*
X61447238Y-47981605D01*
X61447238Y-47981605D02*
X61528050Y-48008542D01*
X61528050Y-48008542D02*
X61662737Y-48143229D01*
X61662737Y-48143229D02*
X61689675Y-48224041D01*
X61689675Y-48224041D02*
X61689675Y-48277916D01*
X61689675Y-48277916D02*
X61662737Y-48358728D01*
X61662737Y-48358728D02*
X61608862Y-48412603D01*
X61608862Y-48412603D02*
X61501113Y-48466478D01*
X61501113Y-48466478D02*
X60854615Y-48466478D01*
X60854615Y-48466478D02*
X61204801Y-48816664D01*
X62120673Y-48601165D02*
X62174548Y-48655040D01*
X62174548Y-48655040D02*
X62201485Y-48735852D01*
X62201485Y-48735852D02*
X62201485Y-48789727D01*
X62201485Y-48789727D02*
X62174548Y-48870539D01*
X62174548Y-48870539D02*
X62093736Y-49005226D01*
X62093736Y-49005226D02*
X61959049Y-49139913D01*
X61959049Y-49139913D02*
X61824362Y-49220725D01*
X61824362Y-49220725D02*
X61743549Y-49247663D01*
X61743549Y-49247663D02*
X61689675Y-49247663D01*
X61689675Y-49247663D02*
X61608862Y-49220725D01*
X61608862Y-49220725D02*
X61554988Y-49166850D01*
X61554988Y-49166850D02*
X61528050Y-49086038D01*
X61528050Y-49086038D02*
X61528050Y-49032163D01*
X61528050Y-49032163D02*
X61554988Y-48951351D01*
X61554988Y-48951351D02*
X61635800Y-48816664D01*
X61635800Y-48816664D02*
X61770487Y-48681977D01*
X61770487Y-48681977D02*
X61905174Y-48601165D01*
X61905174Y-48601165D02*
X61985986Y-48574228D01*
X61985986Y-48574228D02*
X62039861Y-48574228D01*
X62039861Y-48574228D02*
X62120673Y-48601165D01*
X81762990Y-28069002D02*
X81736053Y-27988189D01*
X81736053Y-27988189D02*
X81655240Y-27907377D01*
X81655240Y-27907377D02*
X81547491Y-27853502D01*
X81547491Y-27853502D02*
X81439741Y-27853502D01*
X81439741Y-27853502D02*
X81358929Y-27880440D01*
X81358929Y-27880440D02*
X81224242Y-27961252D01*
X81224242Y-27961252D02*
X81143430Y-28042064D01*
X81143430Y-28042064D02*
X81062617Y-28176751D01*
X81062617Y-28176751D02*
X81035680Y-28257563D01*
X81035680Y-28257563D02*
X81035680Y-28365313D01*
X81035680Y-28365313D02*
X81089555Y-28473063D01*
X81089555Y-28473063D02*
X81143430Y-28526937D01*
X81143430Y-28526937D02*
X81251179Y-28580812D01*
X81251179Y-28580812D02*
X81305054Y-28580812D01*
X81305054Y-28580812D02*
X81493616Y-28392250D01*
X81493616Y-28392250D02*
X81385866Y-28284501D01*
X81493616Y-28877124D02*
X82059301Y-28311438D01*
X82059301Y-28311438D02*
X82274801Y-28526937D01*
X82274801Y-28526937D02*
X82301738Y-28607750D01*
X82301738Y-28607750D02*
X82301738Y-28661624D01*
X82301738Y-28661624D02*
X82274801Y-28742437D01*
X82274801Y-28742437D02*
X82193988Y-28823249D01*
X82193988Y-28823249D02*
X82113176Y-28850186D01*
X82113176Y-28850186D02*
X82059301Y-28850186D01*
X82059301Y-28850186D02*
X81978489Y-28823249D01*
X81978489Y-28823249D02*
X81762990Y-28607750D01*
X82894361Y-29146498D02*
X82624987Y-28877124D01*
X82624987Y-28877124D02*
X82328675Y-29119560D01*
X82328675Y-29119560D02*
X82382550Y-29119560D01*
X82382550Y-29119560D02*
X82463362Y-29146498D01*
X82463362Y-29146498D02*
X82598049Y-29281185D01*
X82598049Y-29281185D02*
X82624987Y-29361997D01*
X82624987Y-29361997D02*
X82624987Y-29415872D01*
X82624987Y-29415872D02*
X82598049Y-29496684D01*
X82598049Y-29496684D02*
X82463362Y-29631371D01*
X82463362Y-29631371D02*
X82382550Y-29658308D01*
X82382550Y-29658308D02*
X82328675Y-29658308D01*
X82328675Y-29658308D02*
X82247863Y-29631371D01*
X82247863Y-29631371D02*
X82113176Y-29496684D01*
X82113176Y-29496684D02*
X82086239Y-29415872D01*
X82086239Y-29415872D02*
X82086239Y-29361997D01*
X48827895Y-34269575D02*
X48800958Y-34188763D01*
X48800958Y-34188763D02*
X48720146Y-34107951D01*
X48720146Y-34107951D02*
X48612396Y-34054076D01*
X48612396Y-34054076D02*
X48504647Y-34054076D01*
X48504647Y-34054076D02*
X48423834Y-34081013D01*
X48423834Y-34081013D02*
X48289147Y-34161826D01*
X48289147Y-34161826D02*
X48208335Y-34242638D01*
X48208335Y-34242638D02*
X48127523Y-34377325D01*
X48127523Y-34377325D02*
X48100586Y-34458137D01*
X48100586Y-34458137D02*
X48100586Y-34565887D01*
X48100586Y-34565887D02*
X48154460Y-34673636D01*
X48154460Y-34673636D02*
X48208335Y-34727511D01*
X48208335Y-34727511D02*
X48316085Y-34781386D01*
X48316085Y-34781386D02*
X48369960Y-34781386D01*
X48369960Y-34781386D02*
X48558521Y-34592824D01*
X48558521Y-34592824D02*
X48450772Y-34485074D01*
X48558521Y-35077697D02*
X49124207Y-34512012D01*
X49124207Y-34512012D02*
X49339706Y-34727511D01*
X49339706Y-34727511D02*
X49366643Y-34808323D01*
X49366643Y-34808323D02*
X49366643Y-34862198D01*
X49366643Y-34862198D02*
X49339706Y-34943010D01*
X49339706Y-34943010D02*
X49258894Y-35023822D01*
X49258894Y-35023822D02*
X49178082Y-35050760D01*
X49178082Y-35050760D02*
X49124207Y-35050760D01*
X49124207Y-35050760D02*
X49043395Y-35023822D01*
X49043395Y-35023822D02*
X48827895Y-34808323D01*
X49420518Y-35939694D02*
X49097269Y-35616445D01*
X49258894Y-35778070D02*
X49824579Y-35212384D01*
X49824579Y-35212384D02*
X49689892Y-35239322D01*
X49689892Y-35239322D02*
X49582143Y-35239322D01*
X49582143Y-35239322D02*
X49501331Y-35212384D01*
X50498015Y-35885819D02*
X50228641Y-35616445D01*
X50228641Y-35616445D02*
X49932329Y-35858882D01*
X49932329Y-35858882D02*
X49986204Y-35858882D01*
X49986204Y-35858882D02*
X50067016Y-35885819D01*
X50067016Y-35885819D02*
X50201703Y-36020506D01*
X50201703Y-36020506D02*
X50228641Y-36101319D01*
X50228641Y-36101319D02*
X50228641Y-36155193D01*
X50228641Y-36155193D02*
X50201703Y-36236006D01*
X50201703Y-36236006D02*
X50067016Y-36370693D01*
X50067016Y-36370693D02*
X49986204Y-36397630D01*
X49986204Y-36397630D02*
X49932329Y-36397630D01*
X49932329Y-36397630D02*
X49851517Y-36370693D01*
X49851517Y-36370693D02*
X49716830Y-36236006D01*
X49716830Y-36236006D02*
X49689892Y-36155193D01*
X49689892Y-36155193D02*
X49689892Y-36101319D01*
X80150615Y-47266572D02*
X80123678Y-47185760D01*
X80123678Y-47185760D02*
X80042866Y-47104948D01*
X80042866Y-47104948D02*
X79935116Y-47051073D01*
X79935116Y-47051073D02*
X79827367Y-47051073D01*
X79827367Y-47051073D02*
X79746554Y-47078010D01*
X79746554Y-47078010D02*
X79611867Y-47158823D01*
X79611867Y-47158823D02*
X79531055Y-47239635D01*
X79531055Y-47239635D02*
X79450243Y-47374322D01*
X79450243Y-47374322D02*
X79423306Y-47455134D01*
X79423306Y-47455134D02*
X79423306Y-47562884D01*
X79423306Y-47562884D02*
X79477180Y-47670633D01*
X79477180Y-47670633D02*
X79531055Y-47724508D01*
X79531055Y-47724508D02*
X79638805Y-47778383D01*
X79638805Y-47778383D02*
X79692680Y-47778383D01*
X79692680Y-47778383D02*
X79881241Y-47589821D01*
X79881241Y-47589821D02*
X79773492Y-47482071D01*
X79881241Y-48074694D02*
X80446927Y-47509009D01*
X80446927Y-47509009D02*
X80662426Y-47724508D01*
X80662426Y-47724508D02*
X80689363Y-47805320D01*
X80689363Y-47805320D02*
X80689363Y-47859195D01*
X80689363Y-47859195D02*
X80662426Y-47940007D01*
X80662426Y-47940007D02*
X80581614Y-48020819D01*
X80581614Y-48020819D02*
X80500802Y-48047757D01*
X80500802Y-48047757D02*
X80446927Y-48047757D01*
X80446927Y-48047757D02*
X80366115Y-48020819D01*
X80366115Y-48020819D02*
X80150615Y-47805320D01*
X80931800Y-48101632D02*
X80985675Y-48101632D01*
X80985675Y-48101632D02*
X81066487Y-48128569D01*
X81066487Y-48128569D02*
X81201174Y-48263256D01*
X81201174Y-48263256D02*
X81228112Y-48344068D01*
X81228112Y-48344068D02*
X81228112Y-48397943D01*
X81228112Y-48397943D02*
X81201174Y-48478755D01*
X81201174Y-48478755D02*
X81147299Y-48532630D01*
X81147299Y-48532630D02*
X81039550Y-48586505D01*
X81039550Y-48586505D02*
X80393052Y-48586505D01*
X80393052Y-48586505D02*
X80743238Y-48936691D01*
X81389736Y-48936691D02*
X81362799Y-48855879D01*
X81362799Y-48855879D02*
X81362799Y-48802004D01*
X81362799Y-48802004D02*
X81389736Y-48721192D01*
X81389736Y-48721192D02*
X81416673Y-48694255D01*
X81416673Y-48694255D02*
X81497486Y-48667317D01*
X81497486Y-48667317D02*
X81551361Y-48667317D01*
X81551361Y-48667317D02*
X81632173Y-48694255D01*
X81632173Y-48694255D02*
X81739922Y-48802004D01*
X81739922Y-48802004D02*
X81766860Y-48882816D01*
X81766860Y-48882816D02*
X81766860Y-48936691D01*
X81766860Y-48936691D02*
X81739922Y-49017503D01*
X81739922Y-49017503D02*
X81712985Y-49044441D01*
X81712985Y-49044441D02*
X81632173Y-49071378D01*
X81632173Y-49071378D02*
X81578298Y-49071378D01*
X81578298Y-49071378D02*
X81497486Y-49044441D01*
X81497486Y-49044441D02*
X81389736Y-48936691D01*
X81389736Y-48936691D02*
X81308924Y-48909754D01*
X81308924Y-48909754D02*
X81255049Y-48909754D01*
X81255049Y-48909754D02*
X81174237Y-48936691D01*
X81174237Y-48936691D02*
X81066487Y-49044441D01*
X81066487Y-49044441D02*
X81039550Y-49125253D01*
X81039550Y-49125253D02*
X81039550Y-49179128D01*
X81039550Y-49179128D02*
X81066487Y-49259940D01*
X81066487Y-49259940D02*
X81174237Y-49367690D01*
X81174237Y-49367690D02*
X81255049Y-49394627D01*
X81255049Y-49394627D02*
X81308924Y-49394627D01*
X81308924Y-49394627D02*
X81389736Y-49367690D01*
X81389736Y-49367690D02*
X81497486Y-49259940D01*
X81497486Y-49259940D02*
X81524423Y-49179128D01*
X81524423Y-49179128D02*
X81524423Y-49125253D01*
X81524423Y-49125253D02*
X81497486Y-49044441D01*
X71602990Y-28069002D02*
X71576053Y-27988189D01*
X71576053Y-27988189D02*
X71495240Y-27907377D01*
X71495240Y-27907377D02*
X71387491Y-27853502D01*
X71387491Y-27853502D02*
X71279741Y-27853502D01*
X71279741Y-27853502D02*
X71198929Y-27880440D01*
X71198929Y-27880440D02*
X71064242Y-27961252D01*
X71064242Y-27961252D02*
X70983430Y-28042064D01*
X70983430Y-28042064D02*
X70902617Y-28176751D01*
X70902617Y-28176751D02*
X70875680Y-28257563D01*
X70875680Y-28257563D02*
X70875680Y-28365313D01*
X70875680Y-28365313D02*
X70929555Y-28473063D01*
X70929555Y-28473063D02*
X70983430Y-28526937D01*
X70983430Y-28526937D02*
X71091179Y-28580812D01*
X71091179Y-28580812D02*
X71145054Y-28580812D01*
X71145054Y-28580812D02*
X71333616Y-28392250D01*
X71333616Y-28392250D02*
X71225866Y-28284501D01*
X71333616Y-28877124D02*
X71899301Y-28311438D01*
X71899301Y-28311438D02*
X72114801Y-28526937D01*
X72114801Y-28526937D02*
X72141738Y-28607750D01*
X72141738Y-28607750D02*
X72141738Y-28661624D01*
X72141738Y-28661624D02*
X72114801Y-28742437D01*
X72114801Y-28742437D02*
X72033988Y-28823249D01*
X72033988Y-28823249D02*
X71953176Y-28850186D01*
X71953176Y-28850186D02*
X71899301Y-28850186D01*
X71899301Y-28850186D02*
X71818489Y-28823249D01*
X71818489Y-28823249D02*
X71602990Y-28607750D01*
X72303362Y-29200372D02*
X72276425Y-29119560D01*
X72276425Y-29119560D02*
X72276425Y-29065685D01*
X72276425Y-29065685D02*
X72303362Y-28984873D01*
X72303362Y-28984873D02*
X72330300Y-28957936D01*
X72330300Y-28957936D02*
X72411112Y-28930998D01*
X72411112Y-28930998D02*
X72464987Y-28930998D01*
X72464987Y-28930998D02*
X72545799Y-28957936D01*
X72545799Y-28957936D02*
X72653549Y-29065685D01*
X72653549Y-29065685D02*
X72680486Y-29146498D01*
X72680486Y-29146498D02*
X72680486Y-29200372D01*
X72680486Y-29200372D02*
X72653549Y-29281185D01*
X72653549Y-29281185D02*
X72626611Y-29308122D01*
X72626611Y-29308122D02*
X72545799Y-29335059D01*
X72545799Y-29335059D02*
X72491924Y-29335059D01*
X72491924Y-29335059D02*
X72411112Y-29308122D01*
X72411112Y-29308122D02*
X72303362Y-29200372D01*
X72303362Y-29200372D02*
X72222550Y-29173435D01*
X72222550Y-29173435D02*
X72168675Y-29173435D01*
X72168675Y-29173435D02*
X72087863Y-29200372D01*
X72087863Y-29200372D02*
X71980114Y-29308122D01*
X71980114Y-29308122D02*
X71953176Y-29388934D01*
X71953176Y-29388934D02*
X71953176Y-29442809D01*
X71953176Y-29442809D02*
X71980114Y-29523621D01*
X71980114Y-29523621D02*
X72087863Y-29631371D01*
X72087863Y-29631371D02*
X72168675Y-29658308D01*
X72168675Y-29658308D02*
X72222550Y-29658308D01*
X72222550Y-29658308D02*
X72303362Y-29631371D01*
X72303362Y-29631371D02*
X72411112Y-29523621D01*
X72411112Y-29523621D02*
X72438049Y-29442809D01*
X72438049Y-29442809D02*
X72438049Y-29388934D01*
X72438049Y-29388934D02*
X72411112Y-29308122D01*
X66496053Y-28042064D02*
X66469115Y-27961252D01*
X66469115Y-27961252D02*
X66388303Y-27880440D01*
X66388303Y-27880440D02*
X66280553Y-27826565D01*
X66280553Y-27826565D02*
X66172804Y-27826565D01*
X66172804Y-27826565D02*
X66091992Y-27853503D01*
X66091992Y-27853503D02*
X65957305Y-27934315D01*
X65957305Y-27934315D02*
X65876492Y-28015127D01*
X65876492Y-28015127D02*
X65795680Y-28149814D01*
X65795680Y-28149814D02*
X65768743Y-28230626D01*
X65768743Y-28230626D02*
X65768743Y-28338376D01*
X65768743Y-28338376D02*
X65822618Y-28446125D01*
X65822618Y-28446125D02*
X65876492Y-28500000D01*
X65876492Y-28500000D02*
X65984242Y-28553875D01*
X65984242Y-28553875D02*
X66038117Y-28553875D01*
X66038117Y-28553875D02*
X66226679Y-28365313D01*
X66226679Y-28365313D02*
X66118929Y-28257564D01*
X66226679Y-28850186D02*
X66792364Y-28284501D01*
X66792364Y-28284501D02*
X66549927Y-29173435D01*
X66549927Y-29173435D02*
X67115613Y-28607750D01*
X66819301Y-29442809D02*
X67384987Y-28877124D01*
X67384987Y-28877124D02*
X67519674Y-29011811D01*
X67519674Y-29011811D02*
X67573549Y-29119560D01*
X67573549Y-29119560D02*
X67573549Y-29227310D01*
X67573549Y-29227310D02*
X67546611Y-29308122D01*
X67546611Y-29308122D02*
X67465799Y-29442809D01*
X67465799Y-29442809D02*
X67384987Y-29523621D01*
X67384987Y-29523621D02*
X67250300Y-29604433D01*
X67250300Y-29604433D02*
X67169488Y-29631371D01*
X67169488Y-29631371D02*
X67061738Y-29631371D01*
X67061738Y-29631371D02*
X66953988Y-29577496D01*
X66953988Y-29577496D02*
X66819301Y-29442809D01*
%TO.C,J1*%
X92441990Y-25558326D02*
X93156275Y-25558326D01*
X93156275Y-25558326D02*
X93299132Y-25605945D01*
X93299132Y-25605945D02*
X93394371Y-25701183D01*
X93394371Y-25701183D02*
X93441990Y-25844040D01*
X93441990Y-25844040D02*
X93441990Y-25939278D01*
X93441990Y-24558326D02*
X93441990Y-25129754D01*
X93441990Y-24844040D02*
X92441990Y-24844040D01*
X92441990Y-24844040D02*
X92584847Y-24939278D01*
X92584847Y-24939278D02*
X92680085Y-25034516D01*
X92680085Y-25034516D02*
X92727704Y-25129754D01*
D11*
%TO.C,J12*%
X65591601Y-62978297D02*
X65591601Y-60478297D01*
X65291601Y-62678297D02*
X65291601Y-61928297D01*
X65291601Y-62678297D02*
X65291601Y-56728297D01*
X65291601Y-61928297D02*
X63491601Y-61928297D01*
X65291601Y-60428297D02*
X64541601Y-60428297D01*
X65291601Y-56728297D02*
X50191601Y-56728297D01*
X64541601Y-60428297D02*
X64541601Y-57478297D01*
X64541601Y-57478297D02*
X57741601Y-57478297D01*
X63491601Y-62678297D02*
X65291601Y-62678297D01*
X63491601Y-61928297D02*
X63491601Y-62678297D01*
X63091601Y-62978297D02*
X65591601Y-62978297D01*
X61991601Y-62678297D02*
X61991601Y-61928297D01*
X61991601Y-61928297D02*
X53491601Y-61928297D01*
X53491601Y-62678297D02*
X61991601Y-62678297D01*
X53491601Y-61928297D02*
X53491601Y-62678297D01*
X51991601Y-62678297D02*
X51991601Y-61928297D01*
X51991601Y-61928297D02*
X50191601Y-61928297D01*
X50941601Y-60428297D02*
X50941601Y-57478297D01*
X50941601Y-57478297D02*
X57741601Y-57478297D01*
X50191601Y-62678297D02*
X65291601Y-62678297D01*
X50191601Y-62678297D02*
X51991601Y-62678297D01*
X50191601Y-61928297D02*
X50191601Y-62678297D01*
X50191601Y-60428297D02*
X50941601Y-60428297D01*
X50191601Y-56728297D02*
X50191601Y-62678297D01*
%TO.C,C1*%
X34064595Y-41957527D02*
X34064595Y-40535023D01*
X35884595Y-41957527D02*
X35884595Y-40535023D01*
%TO.C,J7*%
X94012278Y-62441647D02*
X94012278Y-61391647D01*
X96512278Y-62441647D02*
X94012278Y-62441647D01*
X94012278Y-61391647D02*
X93022278Y-61391647D01*
X98482278Y-61271647D02*
X98482278Y-57391647D01*
X94012278Y-56221647D02*
X94012278Y-57271647D01*
X96512278Y-56221647D02*
X94012278Y-56221647D01*
%TO.C,J8*%
X64945641Y-29581617D02*
X64945641Y-27081617D01*
X64645641Y-29281617D02*
X64645641Y-28531617D01*
X64645641Y-29281617D02*
X64645641Y-23331617D01*
X64645641Y-28531617D02*
X62845641Y-28531617D01*
X64645641Y-27031617D02*
X63895641Y-27031617D01*
X64645641Y-23331617D02*
X49545641Y-23331617D01*
X63895641Y-27031617D02*
X63895641Y-24081617D01*
X63895641Y-24081617D02*
X57095641Y-24081617D01*
X62845641Y-29281617D02*
X64645641Y-29281617D01*
X62845641Y-28531617D02*
X62845641Y-29281617D01*
X62445641Y-29581617D02*
X64945641Y-29581617D01*
X61345641Y-29281617D02*
X61345641Y-28531617D01*
X61345641Y-28531617D02*
X52845641Y-28531617D01*
X52845641Y-29281617D02*
X61345641Y-29281617D01*
X52845641Y-28531617D02*
X52845641Y-29281617D01*
X51345641Y-29281617D02*
X51345641Y-28531617D01*
X51345641Y-28531617D02*
X49545641Y-28531617D01*
X50295641Y-27031617D02*
X50295641Y-24081617D01*
X50295641Y-24081617D02*
X57095641Y-24081617D01*
X49545641Y-29281617D02*
X64645641Y-29281617D01*
X49545641Y-29281617D02*
X51345641Y-29281617D01*
X49545641Y-28531617D02*
X49545641Y-29281617D01*
X49545641Y-27031617D02*
X50295641Y-27031617D01*
X49545641Y-23331617D02*
X49545641Y-29281617D01*
%TO.C,R22*%
X34031117Y-36548652D02*
X34031117Y-35126148D01*
X35851117Y-36548652D02*
X35851117Y-35126148D01*
%TO.C,R24*%
X38530641Y-50373968D02*
X37108137Y-50373968D01*
X38530641Y-48553968D02*
X37108137Y-48553968D01*
%TO.C,R1*%
X40588529Y-48418356D02*
X40588529Y-46995852D01*
X42408529Y-48418356D02*
X42408529Y-46995852D01*
%TO.C,R25*%
X38610231Y-34623497D02*
X38610231Y-36046001D01*
X36790231Y-34623497D02*
X36790231Y-36046001D01*
%TO.C,C2*%
X44573465Y-50766511D02*
X44573465Y-49344007D01*
X46393465Y-50766511D02*
X46393465Y-49344007D01*
%TO.C,J5*%
X77257542Y-56478823D02*
X77257542Y-58978823D01*
X77557542Y-56778823D02*
X77557542Y-57528823D01*
X77557542Y-56778823D02*
X77557542Y-62728823D01*
X77557542Y-57528823D02*
X79357542Y-57528823D01*
X77557542Y-59028823D02*
X78307542Y-59028823D01*
X77557542Y-62728823D02*
X85157542Y-62728823D01*
X78307542Y-59028823D02*
X78307542Y-61978823D01*
X78307542Y-61978823D02*
X81357542Y-61978823D01*
X79357542Y-56778823D02*
X77557542Y-56778823D01*
X79357542Y-57528823D02*
X79357542Y-56778823D01*
X79757542Y-56478823D02*
X77257542Y-56478823D01*
X80857542Y-56778823D02*
X80857542Y-57528823D01*
X80857542Y-57528823D02*
X81857542Y-57528823D01*
X81857542Y-56778823D02*
X80857542Y-56778823D01*
X81857542Y-57528823D02*
X81857542Y-56778823D01*
X83357542Y-56778823D02*
X83357542Y-57528823D01*
X83357542Y-57528823D02*
X85157542Y-57528823D01*
X84407542Y-59028823D02*
X84407542Y-61978823D01*
X84407542Y-61978823D02*
X81357542Y-61978823D01*
X85157542Y-56778823D02*
X77557542Y-56778823D01*
X85157542Y-56778823D02*
X83357542Y-56778823D01*
X85157542Y-57528823D02*
X85157542Y-56778823D01*
X85157542Y-59028823D02*
X84407542Y-59028823D01*
X85157542Y-62728823D02*
X85157542Y-56778823D01*
%TO.C,R23*%
X42424432Y-37654807D02*
X41001928Y-37654807D01*
X42424432Y-35834807D02*
X41001928Y-35834807D01*
%TO.C,R27*%
X32183697Y-50875779D02*
X32183697Y-49453275D01*
X34003697Y-50875779D02*
X34003697Y-49453275D01*
%TO.C,R26*%
X43523803Y-33243418D02*
X44946307Y-33243418D01*
X43523803Y-35063418D02*
X44946307Y-35063418D01*
%TO.C,C5*%
X40989530Y-50878156D02*
X42412034Y-50878156D01*
X40989530Y-52698156D02*
X42412034Y-52698156D01*
D10*
%TO.C,U1*%
X43709358Y-44982010D02*
X37984358Y-44982010D01*
X42634358Y-38157010D02*
X42634358Y-38182010D01*
X42634358Y-38157010D02*
X37984358Y-38157010D01*
X37984358Y-44982010D02*
X37984358Y-44882010D01*
X37984358Y-38157010D02*
X37984358Y-38182010D01*
D11*
%TO.C,C3*%
X84970821Y-56099997D02*
X83548317Y-56099997D01*
X84970821Y-54279997D02*
X83548317Y-54279997D01*
%TO.C,J10*%
X30581671Y-33793830D02*
X31581671Y-33793830D01*
X31581671Y-33793830D02*
X31081671Y-32793830D01*
X31081671Y-32793830D02*
X30581671Y-33793830D01*
X25871671Y-32403830D02*
X25871671Y-23283830D01*
X34111671Y-32403830D02*
X34111671Y-31093830D01*
X46451671Y-32403830D02*
X25871671Y-32403830D01*
X27171671Y-31093830D02*
X27171671Y-24593830D01*
X34111671Y-31093830D02*
X27171671Y-31093830D01*
X38211671Y-31093830D02*
X38211671Y-32403830D01*
X38211671Y-31093830D02*
X38211671Y-31093830D01*
X45151671Y-31093830D02*
X38211671Y-31093830D01*
X27171671Y-24593830D02*
X45151671Y-24593830D01*
X45151671Y-24593830D02*
X45151671Y-31093830D01*
X25871671Y-23283830D02*
X46451671Y-23283830D01*
X46451671Y-23283830D02*
X46451671Y-32403830D01*
%TO.C,J3*%
X68055936Y-56416929D02*
X68055936Y-58916929D01*
X68355936Y-56716929D02*
X68355936Y-57466929D01*
X68355936Y-56716929D02*
X68355936Y-62666929D01*
X68355936Y-57466929D02*
X70155936Y-57466929D01*
X68355936Y-58966929D02*
X69105936Y-58966929D01*
X68355936Y-62666929D02*
X75955936Y-62666929D01*
X69105936Y-58966929D02*
X69105936Y-61916929D01*
X69105936Y-61916929D02*
X72155936Y-61916929D01*
X70155936Y-56716929D02*
X68355936Y-56716929D01*
X70155936Y-57466929D02*
X70155936Y-56716929D01*
X70555936Y-56416929D02*
X68055936Y-56416929D01*
X71655936Y-56716929D02*
X71655936Y-57466929D01*
X71655936Y-57466929D02*
X72655936Y-57466929D01*
X72655936Y-56716929D02*
X71655936Y-56716929D01*
X72655936Y-57466929D02*
X72655936Y-56716929D01*
X74155936Y-56716929D02*
X74155936Y-57466929D01*
X74155936Y-57466929D02*
X75955936Y-57466929D01*
X75205936Y-58966929D02*
X75205936Y-61916929D01*
X75205936Y-61916929D02*
X72155936Y-61916929D01*
X75955936Y-56716929D02*
X68355936Y-56716929D01*
X75955936Y-56716929D02*
X74155936Y-56716929D01*
X75955936Y-57466929D02*
X75955936Y-56716929D01*
X75955936Y-58966929D02*
X75205936Y-58966929D01*
X75955936Y-62666929D02*
X75955936Y-56716929D01*
%TO.C,J9*%
X41527765Y-52099055D02*
X40527765Y-52099055D01*
X40527765Y-52099055D02*
X41027765Y-53099055D01*
X41027765Y-53099055D02*
X41527765Y-52099055D01*
X46237765Y-53489055D02*
X46237765Y-62609055D01*
X37997765Y-53489055D02*
X37997765Y-54799055D01*
X25657765Y-53489055D02*
X46237765Y-53489055D01*
X44937765Y-54799055D02*
X44937765Y-61299055D01*
X37997765Y-54799055D02*
X44937765Y-54799055D01*
X33897765Y-54799055D02*
X33897765Y-53489055D01*
X33897765Y-54799055D02*
X33897765Y-54799055D01*
X26957765Y-54799055D02*
X33897765Y-54799055D01*
X44937765Y-61299055D02*
X26957765Y-61299055D01*
X26957765Y-61299055D02*
X26957765Y-54799055D01*
X46237765Y-62609055D02*
X25657765Y-62609055D01*
X25657765Y-62609055D02*
X25657765Y-53489055D01*
%TO.C,C6*%
X49072538Y-56597868D02*
X49072538Y-58020372D01*
X47252538Y-56597868D02*
X47252538Y-58020372D01*
%TO.C,U2*%
X98500000Y-31050114D02*
X98200000Y-31050114D01*
X98500000Y-31050114D02*
X98500000Y-52050114D01*
X96100000Y-31050114D02*
X95700000Y-31050114D01*
X95833000Y-31050114D02*
X95833000Y-34057114D01*
X93500000Y-31050114D02*
X93100000Y-31050114D01*
X91000000Y-31050114D02*
X90600000Y-31050114D01*
X88400000Y-31050114D02*
X88000000Y-31050114D01*
X85900000Y-31050114D02*
X85500000Y-31050114D01*
X83400000Y-31050114D02*
X83000000Y-31050114D01*
X80800000Y-31050114D02*
X80400000Y-31050114D01*
X78300000Y-31050114D02*
X77900000Y-31050114D01*
X75700000Y-31050114D02*
X75300000Y-31050114D01*
X73200000Y-31050114D02*
X72800000Y-31050114D01*
X70700000Y-31050114D02*
X70300000Y-31050114D01*
X68100000Y-31050114D02*
X67700000Y-31050114D01*
X65600000Y-31050114D02*
X65200000Y-31050114D01*
X63000000Y-31050114D02*
X62600000Y-31050114D01*
X60500000Y-31050114D02*
X60100000Y-31050114D01*
X57900000Y-31050114D02*
X57500000Y-31050114D01*
X55400000Y-31050114D02*
X55000000Y-31050114D01*
X52900000Y-31050114D02*
X52500000Y-31050114D01*
X50300000Y-31050114D02*
X49900000Y-31050114D01*
X95833000Y-34057114D02*
X98500000Y-34057114D01*
X47500000Y-37850114D02*
X47500000Y-31050114D01*
X47500000Y-40050114D02*
X47500000Y-40450114D01*
X47500000Y-42650114D02*
X47500000Y-43050114D01*
X98500000Y-52050114D02*
X98200000Y-52050114D01*
X96100000Y-52050114D02*
X95700000Y-52050114D01*
X93500000Y-52050114D02*
X93100000Y-52050114D01*
X91000000Y-52050114D02*
X90600000Y-52050114D01*
X88400000Y-52050114D02*
X88000000Y-52050114D01*
X85900000Y-52050114D02*
X85500000Y-52050114D01*
X83400000Y-52050114D02*
X83000000Y-52050114D01*
X80800000Y-52050114D02*
X80400000Y-52050114D01*
X78300000Y-52050114D02*
X77900000Y-52050114D01*
X75700000Y-52050114D02*
X75300000Y-52050114D01*
X73200000Y-52050114D02*
X72800000Y-52050114D01*
X70700000Y-52050114D02*
X70300000Y-52050114D01*
X68100000Y-52050114D02*
X67700000Y-52050114D01*
X65600000Y-52050114D02*
X65200000Y-52050114D01*
X63000000Y-52050114D02*
X62600000Y-52050114D01*
X60500000Y-52050114D02*
X60100000Y-52050114D01*
X57900000Y-52050114D02*
X57500000Y-52050114D01*
X55400000Y-52050114D02*
X55000000Y-52050114D01*
X52900000Y-52050114D02*
X52500000Y-52050114D01*
X50300000Y-52050114D02*
X49900000Y-52050114D01*
X47500000Y-52050114D02*
X47500000Y-45250114D01*
%TO.C,J1*%
X95586842Y-21609838D02*
X96916842Y-21609838D01*
X95586842Y-22939838D02*
X95586842Y-21609838D01*
X95586842Y-24209838D02*
X95586842Y-29349838D01*
X95586842Y-24209838D02*
X98246842Y-24209838D01*
X95586842Y-29349838D02*
X98246842Y-29349838D01*
X98246842Y-24209838D02*
X98246842Y-29349838D01*
%TD*%
M02*
