M48
; DRILL file {KiCad 7.0.1-1.fc37} date Wed 22 Mar 2023 09:56:36 PM CDT
; FORMAT={-:-/ absolute / inch / decimal}
; #@! TF.CreationDate,2023-03-22T21:56:36-05:00
; #@! TF.GenerationSoftware,Kicad,Pcbnew,7.0.1-1.fc37
; #@! TF.FileFunction,MixedPlating,1,2
FMAT,2
INCH
; #@! TA.AperFunction,Plated,PTH,ViaDrill
T1C0.0157
; #@! TA.AperFunction,Plated,PTH,ComponentDrill
T2C0.0394
; #@! TA.AperFunction,Plated,PTH,ComponentDrill
T3C0.0402
; #@! TA.AperFunction,Plated,PTH,ComponentDrill
T4C0.0413
; #@! TA.AperFunction,NonPlated,NPTH,ComponentDrill
T5C0.0591
; #@! TA.AperFunction,NonPlated,NPTH,ComponentDrill
T6C0.0709
; #@! TA.AperFunction,NonPlated,NPTH,ComponentDrill
T7C0.0984
%
G90
G05
T1
X1.2171Y-2.1362
X1.2974Y-1.4725
X1.3031Y-1.6884
X1.3069Y-1.7859
X1.4321Y-1.5016
X1.5199Y-1.5251
X1.5256Y-1.5711
X1.5757Y-1.5257
X1.6802Y-2.1198
X1.7324Y-2.1308
X1.8994Y-2.3838
X1.9025Y-1.3992
X2.6409Y-1.8311
X2.6511Y-1.8747
X3.5116Y-2.1528
X3.5166Y-2.1138
X3.6253Y-1.128
T2
X1.2153Y-2.2354
X1.2153Y-2.3354
X1.2237Y-1.0462
X1.2237Y-1.1462
X1.3153Y-2.2354
X1.3153Y-2.3354
X1.3237Y-1.0462
X1.3237Y-1.1462
X1.4153Y-2.2354
X1.4153Y-2.3354
X1.4237Y-1.0462
X1.4237Y-1.1462
X1.5153Y-2.2354
X1.5153Y-2.3354
X1.5237Y-1.0462
X1.5237Y-1.1462
X1.6153Y-2.2354
X1.6153Y-2.3354
X1.6237Y-1.0462
X1.6237Y-1.1462
X2.051Y-1.0564
X2.0764Y-2.3712
X2.1494Y-1.0564
X2.1749Y-2.3712
X2.2479Y-1.0564
X2.2733Y-2.3712
X2.3463Y-1.0564
X2.3717Y-2.3712
X2.4447Y-1.0564
X2.4701Y-2.3712
X3.8156Y-0.9031
X3.8156Y-1.0031
X3.8156Y-1.1031
T3
X1.924Y-1.2858
X1.924Y-1.9858
X1.9331Y-1.5358
X1.9331Y-1.6358
X1.9331Y-1.7358
X2.024Y-1.2858
X2.024Y-1.9858
X2.124Y-1.2858
X2.124Y-1.9858
X2.224Y-1.2858
X2.224Y-1.9858
X2.324Y-1.2858
X2.324Y-1.9858
X2.424Y-1.2858
X2.424Y-1.9858
X2.524Y-1.2858
X2.524Y-1.9858
X2.624Y-1.2858
X2.624Y-1.9858
X2.724Y-1.2858
X2.724Y-1.9858
X2.824Y-1.2858
X2.824Y-1.9858
X2.924Y-1.2858
X2.924Y-1.9858
X3.024Y-1.2858
X3.024Y-1.9858
X3.124Y-1.2858
X3.124Y-1.9858
X3.224Y-1.2858
X3.224Y-1.9858
X3.324Y-1.2858
X3.324Y-1.9858
X3.424Y-1.2858
X3.424Y-1.9858
X3.524Y-1.2858
X3.524Y-1.9858
X3.624Y-1.2858
X3.624Y-1.9858
X3.724Y-1.2858
X3.724Y-1.9858
X3.824Y-1.2858
X3.824Y-1.9858
T4
X2.7916Y-2.3294
X2.89Y-2.3294
X3.1538Y-2.3318
X3.2523Y-2.3318
T5
X3.6996Y-1.5404
X3.6996Y-1.7313
T6
X3.8189Y-1.5285
X3.8189Y-1.7431
T7
X1.092Y-1.4173
X1.092Y-1.9685
X3.5138Y-1.0236
X3.5138Y-2.3228
T0
M30
