%TF.GenerationSoftware,KiCad,Pcbnew,7.0.1-1.fc37*%
%TF.CreationDate,2023-03-22T21:56:34-05:00*%
%TF.ProjectId,main_board,6d61696e-5f62-46f6-9172-642e6b696361,rev?*%
%TF.SameCoordinates,Original*%
%TF.FileFunction,Copper,L1,Top*%
%TF.FilePolarity,Positive*%
%FSLAX46Y46*%
G04 Gerber Fmt 4.6, Leading zero omitted, Abs format (unit mm)*
G04 Created by KiCad (PCBNEW 7.0.1-1.fc37) date 2023-03-22 21:56:34*
%MOMM*%
%LPD*%
G01*
G04 APERTURE LIST*
G04 Aperture macros list*
%AMRoundRect*
0 Rectangle with rounded corners*
0 $1 Rounding radius*
0 $2 $3 $4 $5 $6 $7 $8 $9 X,Y pos of 4 corners*
0 Add a 4 corners polygon primitive as box body*
4,1,4,$2,$3,$4,$5,$6,$7,$8,$9,$2,$3,0*
0 Add four circle primitives for the rounded corners*
1,1,$1+$1,$2,$3*
1,1,$1+$1,$4,$5*
1,1,$1+$1,$6,$7*
1,1,$1+$1,$8,$9*
0 Add four rect primitives between the rounded corners*
20,1,$1+$1,$2,$3,$4,$5,0*
20,1,$1+$1,$4,$5,$6,$7,0*
20,1,$1+$1,$6,$7,$8,$9,0*
20,1,$1+$1,$8,$9,$2,$3,0*%
G04 Aperture macros list end*
%TA.AperFunction,ComponentPad*%
%ADD10R,1.750000X1.750000*%
%TD*%
%TA.AperFunction,ComponentPad*%
%ADD11C,1.750000*%
%TD*%
%TA.AperFunction,SMDPad,CuDef*%
%ADD12RoundRect,0.250000X0.650000X-0.412500X0.650000X0.412500X-0.650000X0.412500X-0.650000X-0.412500X0*%
%TD*%
%TA.AperFunction,SMDPad,CuDef*%
%ADD13RoundRect,0.150000X0.625000X-0.150000X0.625000X0.150000X-0.625000X0.150000X-0.625000X-0.150000X0*%
%TD*%
%TA.AperFunction,SMDPad,CuDef*%
%ADD14RoundRect,0.250000X0.650000X-0.350000X0.650000X0.350000X-0.650000X0.350000X-0.650000X-0.350000X0*%
%TD*%
%TA.AperFunction,SMDPad,CuDef*%
%ADD15RoundRect,0.250000X0.412500X0.650000X-0.412500X0.650000X-0.412500X-0.650000X0.412500X-0.650000X0*%
%TD*%
%TA.AperFunction,SMDPad,CuDef*%
%ADD16RoundRect,0.250000X-0.650000X0.412500X-0.650000X-0.412500X0.650000X-0.412500X0.650000X0.412500X0*%
%TD*%
%TA.AperFunction,SMDPad,CuDef*%
%ADD17RoundRect,0.250000X-0.412500X-0.650000X0.412500X-0.650000X0.412500X0.650000X-0.412500X0.650000X0*%
%TD*%
%TA.AperFunction,SMDPad,CuDef*%
%ADD18R,1.000000X0.400000*%
%TD*%
%TA.AperFunction,ComponentPad*%
%ADD19RoundRect,0.250000X0.600000X-0.600000X0.600000X0.600000X-0.600000X0.600000X-0.600000X-0.600000X0*%
%TD*%
%TA.AperFunction,ComponentPad*%
%ADD20C,1.700000*%
%TD*%
%TA.AperFunction,ComponentPad*%
%ADD21RoundRect,0.250000X-0.600000X0.600000X-0.600000X-0.600000X0.600000X-0.600000X0.600000X0.600000X0*%
%TD*%
%TA.AperFunction,ComponentPad*%
%ADD22O,1.700000X1.700000*%
%TD*%
%TA.AperFunction,SMDPad,CuDef*%
%ADD23R,1.700000X3.500000*%
%TD*%
%TA.AperFunction,ComponentPad*%
%ADD24R,1.700000X1.700000*%
%TD*%
%TA.AperFunction,SMDPad,CuDef*%
%ADD25R,3.500000X1.700000*%
%TD*%
%TA.AperFunction,ViaPad*%
%ADD26C,0.800000*%
%TD*%
%TA.AperFunction,Conductor*%
%ADD27C,0.250000*%
%TD*%
G04 APERTURE END LIST*
D10*
%TO.P,J12,1,Pin_1*%
%TO.N,Net-(J12-Pin_1)*%
X62741601Y-60228297D03*
D11*
%TO.P,J12,2,Pin_2*%
%TO.N,Net-(J12-Pin_2)*%
X60241601Y-60228297D03*
%TO.P,J12,3,Pin_3*%
%TO.N,Net-(J12-Pin_3)*%
X57741601Y-60228297D03*
%TO.P,J12,4,Pin_4*%
%TO.N,Net-(J12-Pin_4)*%
X55241601Y-60228297D03*
%TO.P,J12,5,Pin_5*%
%TO.N,Net-(J12-Pin_5)*%
X52741601Y-60228297D03*
%TD*%
D12*
%TO.P,C1,1*%
%TO.N,+5V*%
X34974595Y-42808775D03*
%TO.P,C1,2*%
%TO.N,GND*%
X34974595Y-39683775D03*
%TD*%
D13*
%TO.P,J7,1,Pin_1*%
%TO.N,GND*%
X93797278Y-60831647D03*
%TO.P,J7,2,Pin_2*%
%TO.N,3.3V*%
X93797278Y-59831647D03*
%TO.P,J7,3,Pin_3*%
%TO.N,Net-(J7-Pin_3)*%
X93797278Y-58831647D03*
%TO.P,J7,4,Pin_4*%
%TO.N,Net-(J7-Pin_4)*%
X93797278Y-57831647D03*
D14*
%TO.P,J7,MP*%
%TO.N,N/C*%
X97672278Y-62131647D03*
X97672278Y-56531647D03*
%TD*%
D10*
%TO.P,J8,1,Pin_1*%
%TO.N,Net-(J8-Pin_1)*%
X62095641Y-26831617D03*
D11*
%TO.P,J8,2,Pin_2*%
%TO.N,Net-(J8-Pin_2)*%
X59595641Y-26831617D03*
%TO.P,J8,3,Pin_3*%
%TO.N,Net-(J8-Pin_3)*%
X57095641Y-26831617D03*
%TO.P,J8,4,Pin_4*%
%TO.N,Net-(J8-Pin_4)*%
X54595641Y-26831617D03*
%TO.P,J8,5,Pin_5*%
%TO.N,Net-(J8-Pin_5)*%
X52095641Y-26831617D03*
%TD*%
D12*
%TO.P,R22,1*%
%TO.N,3.3V*%
X34941117Y-37399900D03*
%TO.P,R22,2*%
%TO.N,Encoder B*%
X34941117Y-34274900D03*
%TD*%
D15*
%TO.P,R24,1*%
%TO.N,3.3V*%
X39381889Y-49463968D03*
%TO.P,R24,2*%
%TO.N,Encoder Push*%
X36256889Y-49463968D03*
%TD*%
D12*
%TO.P,R1,1*%
%TO.N,3.3V*%
X41498529Y-49269604D03*
%TO.P,R1,2*%
%TO.N,Net-(U1-OE)*%
X41498529Y-46144604D03*
%TD*%
D16*
%TO.P,R25,1*%
%TO.N,Encoder B*%
X37700231Y-33772249D03*
%TO.P,R25,2*%
%TO.N,Net-(U2-GPIO17)*%
X37700231Y-36897249D03*
%TD*%
D12*
%TO.P,C2,1*%
%TO.N,GND*%
X45483465Y-51617759D03*
%TO.P,C2,2*%
%TO.N,3.3V*%
X45483465Y-48492759D03*
%TD*%
D10*
%TO.P,J5,1,Pin_1*%
%TO.N,3.3V*%
X80107542Y-59228823D03*
D11*
%TO.P,J5,2,Pin_2*%
%TO.N,GND*%
X82607542Y-59228823D03*
%TD*%
D15*
%TO.P,R23,1*%
%TO.N,3.3V*%
X43275680Y-36744807D03*
%TO.P,R23,2*%
%TO.N,Encoder A*%
X40150680Y-36744807D03*
%TD*%
D12*
%TO.P,R27,1*%
%TO.N,Encoder Push*%
X33093697Y-51727027D03*
%TO.P,R27,2*%
%TO.N,Net-(U2-GPIO28_ADC2)*%
X33093697Y-48602027D03*
%TD*%
D17*
%TO.P,R26,1*%
%TO.N,Encoder A*%
X42672555Y-34153418D03*
%TO.P,R26,2*%
%TO.N,Net-(U2-GPIO16)*%
X45797555Y-34153418D03*
%TD*%
%TO.P,C5,1*%
%TO.N,GND*%
X40138282Y-51788156D03*
%TO.P,C5,2*%
%TO.N,Net-(U2-GPIO16)*%
X43263282Y-51788156D03*
%TD*%
D18*
%TO.P,U1,1,A1*%
%TO.N,Net-(U1-A1)*%
X43209358Y-44457010D03*
%TO.P,U1,2,A2*%
%TO.N,Net-(U1-A2)*%
X43209358Y-43807010D03*
%TO.P,U1,3,A3*%
%TO.N,Net-(U1-A3)*%
X43209358Y-43157010D03*
%TO.P,U1,4,A4*%
%TO.N,Net-(U1-A4)*%
X43209358Y-42507010D03*
%TO.P,U1,5,VCCA*%
%TO.N,3.3V*%
X43209358Y-41857010D03*
%TO.P,U1,6,OE*%
%TO.N,Net-(U1-OE)*%
X43209358Y-41207010D03*
%TO.P,U1,7,A5*%
%TO.N,Net-(U1-A5)*%
X43209358Y-40557010D03*
%TO.P,U1,8,A6*%
%TO.N,Net-(U1-A6)*%
X43209358Y-39907010D03*
%TO.P,U1,9,A7*%
%TO.N,Net-(U1-A7)*%
X43209358Y-39257010D03*
%TO.P,U1,10,A8*%
%TO.N,Net-(U1-A8)*%
X43209358Y-38607010D03*
%TO.P,U1,11,B8*%
%TO.N,5V Backlight*%
X37409358Y-38607010D03*
%TO.P,U1,12,B7*%
%TO.N,5V Buzz*%
X37409358Y-39257010D03*
%TO.P,U1,13,B6*%
%TO.N,5V LCD Reset*%
X37409358Y-39907010D03*
%TO.P,U1,14,B5*%
%TO.N,5V LCD RS*%
X37409358Y-40557010D03*
%TO.P,U1,15,GND*%
%TO.N,GND*%
X37409358Y-41207010D03*
%TO.P,U1,16,VCCB*%
%TO.N,+5V*%
X37409358Y-41857010D03*
%TO.P,U1,17,B4*%
%TO.N,5V LCD CS*%
X37409358Y-42507010D03*
%TO.P,U1,18,B3*%
%TO.N,unconnected-(U1-B3-Pad18)*%
X37409358Y-43157010D03*
%TO.P,U1,19,B2*%
%TO.N,5V LCD MOSI*%
X37409358Y-43807010D03*
%TO.P,U1,20,B1*%
%TO.N,5V LCD CLK*%
X37409358Y-44457010D03*
%TD*%
D15*
%TO.P,C3,1*%
%TO.N,GND*%
X85822069Y-55189997D03*
%TO.P,C3,2*%
%TO.N,Net-(U2-GPIO28_ADC2)*%
X82697069Y-55189997D03*
%TD*%
D19*
%TO.P,J10,1,Pin_1*%
%TO.N,unconnected-(J10-Pin_1-Pad1)*%
X31081671Y-29113830D03*
D20*
%TO.P,J10,2,Pin_2*%
%TO.N,5V LCD CLK*%
X31081671Y-26573830D03*
%TO.P,J10,3,Pin_3*%
%TO.N,Encoder B*%
X33621671Y-29113830D03*
%TO.P,J10,4,Pin_4*%
%TO.N,unconnected-(J10-Pin_4-Pad4)*%
X33621671Y-26573830D03*
%TO.P,J10,5,Pin_5*%
%TO.N,Encoder A*%
X36161671Y-29113830D03*
%TO.P,J10,6,Pin_6*%
%TO.N,5V LCD MOSI*%
X36161671Y-26573830D03*
%TO.P,J10,7,Pin_7*%
%TO.N,unconnected-(J10-Pin_7-Pad7)*%
X38701671Y-29113830D03*
%TO.P,J10,8,Pin_8*%
%TO.N,Reset*%
X38701671Y-26573830D03*
%TO.P,J10,9,Pin_9*%
%TO.N,GND*%
X41241671Y-29113830D03*
%TO.P,J10,10,Pin_10*%
%TO.N,unconnected-(J10-Pin_10-Pad10)*%
X41241671Y-26573830D03*
%TD*%
D10*
%TO.P,J3,1,Pin_1*%
%TO.N,3.3V*%
X70905936Y-59166929D03*
D11*
%TO.P,J3,2,Pin_2*%
%TO.N,GND*%
X73405936Y-59166929D03*
%TD*%
D21*
%TO.P,J9,1,Pin_1*%
%TO.N,5V Buzz*%
X41027765Y-56779055D03*
D20*
%TO.P,J9,2,Pin_2*%
%TO.N,Encoder Push*%
X41027765Y-59319055D03*
%TO.P,J9,3,Pin_3*%
%TO.N,5V LCD CS*%
X38487765Y-56779055D03*
%TO.P,J9,4,Pin_4*%
%TO.N,5V LCD RS*%
X38487765Y-59319055D03*
%TO.P,J9,5,Pin_5*%
%TO.N,5V LCD Reset*%
X35947765Y-56779055D03*
%TO.P,J9,6,Pin_6*%
%TO.N,5V Backlight*%
X35947765Y-59319055D03*
%TO.P,J9,7,Pin_7*%
%TO.N,unconnected-(J9-Pin_7-Pad7)*%
X33407765Y-56779055D03*
%TO.P,J9,8,Pin_8*%
%TO.N,unconnected-(J9-Pin_8-Pad8)*%
X33407765Y-59319055D03*
%TO.P,J9,9,Pin_9*%
%TO.N,GND*%
X30867765Y-56779055D03*
%TO.P,J9,10,Pin_10*%
%TO.N,+5V*%
X30867765Y-59319055D03*
%TD*%
D16*
%TO.P,C6,1*%
%TO.N,GND*%
X48162538Y-55746620D03*
%TO.P,C6,2*%
%TO.N,Net-(U2-GPIO17)*%
X48162538Y-58871620D03*
%TD*%
D22*
%TO.P,U2,1,GPIO0*%
%TO.N,unconnected-(U2-GPIO0-Pad1)*%
X97130000Y-32660114D03*
D23*
X97130000Y-31760114D03*
D22*
%TO.P,U2,2,GPIO1*%
%TO.N,unconnected-(U2-GPIO1-Pad2)*%
X94590000Y-32660114D03*
D23*
X94590000Y-31760114D03*
D24*
%TO.P,U2,3,GND*%
%TO.N,GND*%
X92050000Y-32660114D03*
D23*
X92050000Y-31760114D03*
D22*
%TO.P,U2,4,GPIO2*%
%TO.N,Net-(U1-A1)*%
X89510000Y-32660114D03*
D23*
X89510000Y-31760114D03*
D22*
%TO.P,U2,5,GPIO3*%
%TO.N,Net-(U1-A2)*%
X86970000Y-32660114D03*
D23*
X86970000Y-31760114D03*
D22*
%TO.P,U2,6,GPIO4*%
%TO.N,Net-(U1-A3)*%
X84430000Y-32660114D03*
D23*
X84430000Y-31760114D03*
D22*
%TO.P,U2,7,GPIO5*%
%TO.N,Net-(U1-A4)*%
X81890000Y-32660114D03*
D23*
X81890000Y-31760114D03*
D24*
%TO.P,U2,8,GND*%
%TO.N,GND*%
X79350000Y-32660114D03*
D23*
X79350000Y-31760114D03*
D22*
%TO.P,U2,9,GPIO6*%
%TO.N,Net-(U1-A5)*%
X76810000Y-32660114D03*
D23*
X76810000Y-31760114D03*
D22*
%TO.P,U2,10,GPIO7*%
%TO.N,Net-(U1-A6)*%
X74270000Y-32660114D03*
D23*
X74270000Y-31760114D03*
D22*
%TO.P,U2,11,GPIO8*%
%TO.N,Net-(U1-A7)*%
X71730000Y-32660114D03*
D23*
X71730000Y-31760114D03*
D22*
%TO.P,U2,12,GPIO9*%
%TO.N,Net-(U1-A8)*%
X69190000Y-32660114D03*
D23*
X69190000Y-31760114D03*
D24*
%TO.P,U2,13,GND*%
%TO.N,GND*%
X66650000Y-32660114D03*
D23*
X66650000Y-31760114D03*
D22*
%TO.P,U2,14,GPIO10*%
%TO.N,Net-(J8-Pin_1)*%
X64110000Y-32660114D03*
D23*
X64110000Y-31760114D03*
D22*
%TO.P,U2,15,GPIO11*%
%TO.N,Net-(J8-Pin_2)*%
X61570000Y-32660114D03*
D23*
X61570000Y-31760114D03*
D22*
%TO.P,U2,16,GPIO12*%
%TO.N,Net-(J8-Pin_3)*%
X59030000Y-32660114D03*
D23*
X59030000Y-31760114D03*
D22*
%TO.P,U2,17,GPIO13*%
%TO.N,Net-(J8-Pin_4)*%
X56490000Y-32660114D03*
D23*
X56490000Y-31760114D03*
D24*
%TO.P,U2,18,GND*%
%TO.N,GND*%
X53950000Y-32660114D03*
D23*
X53950000Y-31760114D03*
D22*
%TO.P,U2,19,GPIO14*%
%TO.N,Net-(J8-Pin_5)*%
X51410000Y-32660114D03*
D23*
X51410000Y-31760114D03*
D22*
%TO.P,U2,20,GPIO15*%
%TO.N,unconnected-(U2-GPIO15-Pad20)*%
X48870000Y-32660114D03*
D23*
X48870000Y-31760114D03*
D22*
%TO.P,U2,21,GPIO16*%
%TO.N,Net-(U2-GPIO16)*%
X48870000Y-50440114D03*
D23*
X48870000Y-51340114D03*
D22*
%TO.P,U2,22,GPIO17*%
%TO.N,Net-(U2-GPIO17)*%
X51410000Y-50440114D03*
D23*
X51410000Y-51340114D03*
D24*
%TO.P,U2,23,GND*%
%TO.N,GND*%
X53950000Y-50440114D03*
D23*
X53950000Y-51340114D03*
D22*
%TO.P,U2,24,GPIO18*%
%TO.N,Net-(J12-Pin_5)*%
X56490000Y-50440114D03*
D23*
X56490000Y-51340114D03*
D22*
%TO.P,U2,25,GPIO19*%
%TO.N,Net-(J12-Pin_4)*%
X59030000Y-50440114D03*
D23*
X59030000Y-51340114D03*
D22*
%TO.P,U2,26,GPIO20*%
%TO.N,Net-(J12-Pin_3)*%
X61570000Y-50440114D03*
D23*
X61570000Y-51340114D03*
D22*
%TO.P,U2,27,GPIO21*%
%TO.N,Net-(J12-Pin_2)*%
X64110000Y-50440114D03*
D23*
X64110000Y-51340114D03*
D24*
%TO.P,U2,28,GND*%
%TO.N,unconnected-(U2-GND-Pad28)*%
X66650000Y-50440114D03*
D23*
X66650000Y-51340114D03*
D22*
%TO.P,U2,29,GPIO22*%
%TO.N,Net-(J12-Pin_1)*%
X69190000Y-50440114D03*
D23*
X69190000Y-51340114D03*
D22*
%TO.P,U2,30,RUN*%
%TO.N,Reset*%
X71730000Y-50440114D03*
D23*
X71730000Y-51340114D03*
D22*
%TO.P,U2,31,GPIO26_ADC0*%
%TO.N,Net-(J7-Pin_3)*%
X74270000Y-50440114D03*
D23*
X74270000Y-51340114D03*
D22*
%TO.P,U2,32,GPIO27_ADC1*%
%TO.N,Net-(J7-Pin_4)*%
X76810000Y-50440114D03*
D23*
X76810000Y-51340114D03*
D24*
%TO.P,U2,33,AGND*%
%TO.N,unconnected-(U2-AGND-Pad33)*%
X79350000Y-50440114D03*
D23*
X79350000Y-51340114D03*
D22*
%TO.P,U2,34,GPIO28_ADC2*%
%TO.N,Net-(U2-GPIO28_ADC2)*%
X81890000Y-50440114D03*
D23*
X81890000Y-51340114D03*
D22*
%TO.P,U2,35,ADC_VREF*%
%TO.N,unconnected-(U2-ADC_VREF-Pad35)*%
X84430000Y-50440114D03*
D23*
X84430000Y-51340114D03*
D22*
%TO.P,U2,36,3V3*%
%TO.N,3.3V*%
X86970000Y-50440114D03*
D23*
X86970000Y-51340114D03*
D22*
%TO.P,U2,37,3V3_EN*%
%TO.N,unconnected-(U2-3V3_EN-Pad37)*%
X89510000Y-50440114D03*
D23*
X89510000Y-51340114D03*
D24*
%TO.P,U2,38,GND*%
%TO.N,GND*%
X92050000Y-50440114D03*
D23*
X92050000Y-51340114D03*
D22*
%TO.P,U2,39,VSYS*%
%TO.N,unconnected-(U2-VSYS-Pad39)*%
X94590000Y-50440114D03*
D23*
X94590000Y-51340114D03*
D22*
%TO.P,U2,40,VBUS*%
%TO.N,+5V*%
X97130000Y-50440114D03*
D23*
X97130000Y-51340114D03*
D22*
%TO.P,U2,41,SWCLK*%
%TO.N,Net-(J1-Pin_1)*%
X49100000Y-39010114D03*
D25*
X48200000Y-39010114D03*
D24*
%TO.P,U2,42,GND*%
%TO.N,Net-(J1-Pin_2)*%
X49100000Y-41550114D03*
D25*
X48200000Y-41550114D03*
D22*
%TO.P,U2,43,SWDIO*%
%TO.N,Net-(J1-Pin_3)*%
X49100000Y-44090114D03*
D25*
X48200000Y-44090114D03*
%TD*%
D24*
%TO.P,J1,1,Pin_1*%
%TO.N,Net-(J1-Pin_1)*%
X96916842Y-22939838D03*
D22*
%TO.P,J1,2,Pin_2*%
%TO.N,Net-(J1-Pin_2)*%
X96916842Y-25479838D03*
%TO.P,J1,3,Pin_3*%
%TO.N,Net-(J1-Pin_3)*%
X96916842Y-28019838D03*
%TD*%
D26*
%TO.N,+5V*%
X33097486Y-42885560D03*
X33196517Y-45361329D03*
%TO.N,Net-(J1-Pin_2)*%
X67337307Y-47616213D03*
%TO.N,Net-(J1-Pin_1)*%
X67078176Y-46510369D03*
%TO.N,Net-(J7-Pin_3)*%
X89194466Y-54681090D03*
%TO.N,Net-(J7-Pin_4)*%
X89320898Y-53689616D03*
%TO.N,Net-(U2-GPIO16)*%
X48322838Y-35539848D03*
%TO.N,Net-(U2-GPIO17)*%
X48245064Y-60548250D03*
X40023249Y-38752502D03*
%TO.N,5V Buzz*%
X44003246Y-54121423D03*
X38605988Y-38736782D03*
%TO.N,5V LCD Reset*%
X38751152Y-39906545D03*
%TO.N,5V Backlight*%
X36374241Y-38141593D03*
%TO.N,GND*%
X92082636Y-28652067D03*
X30915522Y-54259827D03*
X32954439Y-37401062D03*
X42675899Y-53841945D03*
%TD*%
D27*
%TO.N,+5V*%
X33097486Y-42885560D02*
X34897810Y-42885560D01*
X96447278Y-51122836D02*
X97130000Y-50440114D01*
X31275695Y-53594695D02*
X31275695Y-47282151D01*
X96447278Y-60853496D02*
X96447278Y-51122836D01*
X32042765Y-54361765D02*
X31275695Y-53594695D01*
X30867765Y-59319055D02*
X33872394Y-62323684D01*
X31275695Y-47282151D02*
X33196517Y-45361329D01*
X32042765Y-58144055D02*
X32042765Y-54361765D01*
X30867765Y-59319055D02*
X32042765Y-58144055D01*
X33872394Y-62323684D02*
X94977090Y-62323684D01*
X94977090Y-62323684D02*
X96447278Y-60853496D01*
X34897810Y-42885560D02*
X34974595Y-42808775D01*
X35926360Y-41857010D02*
X37409358Y-41857010D01*
X34974595Y-42808775D02*
X35926360Y-41857010D01*
%TO.N,Net-(J1-Pin_2)*%
X93415000Y-33585000D02*
X93415000Y-28981680D01*
X79383787Y-47616213D02*
X93415000Y-33585000D01*
X93415000Y-28981680D02*
X96916842Y-25479838D01*
X67337307Y-47616213D02*
X79383787Y-47616213D01*
%TO.N,Net-(U1-OE)*%
X42593955Y-41207010D02*
X41498529Y-42302436D01*
X43209358Y-41207010D02*
X42593955Y-41207010D01*
X41498529Y-42302436D02*
X41498529Y-46144604D01*
%TO.N,Net-(U1-A1)*%
X44537717Y-45785369D02*
X76384745Y-45785369D01*
X43209358Y-44457010D02*
X44537717Y-45785369D01*
X76384745Y-45785369D02*
X89510000Y-32660114D01*
%TO.N,Net-(U1-A2)*%
X45463636Y-45311288D02*
X74318826Y-45311288D01*
X43209358Y-43807010D02*
X43959358Y-43807010D01*
X43959358Y-43807010D02*
X45463636Y-45311288D01*
X74318826Y-45311288D02*
X86970000Y-32660114D01*
%TO.N,Net-(U1-A3)*%
X74353625Y-42736489D02*
X84430000Y-32660114D01*
X45883104Y-43157010D02*
X46303625Y-42736489D01*
X43209358Y-43157010D02*
X45883104Y-43157010D01*
X46303625Y-42736489D02*
X74353625Y-42736489D01*
%TO.N,Net-(U1-A4)*%
X74365000Y-40185114D02*
X81890000Y-32660114D01*
X46315000Y-40185114D02*
X74365000Y-40185114D01*
X43993104Y-42507010D02*
X46315000Y-40185114D01*
X43209358Y-42507010D02*
X43993104Y-42507010D01*
%TO.N,Net-(U1-A5)*%
X43209358Y-40557010D02*
X45306708Y-40557010D01*
X45306708Y-40557010D02*
X45306708Y-38653406D01*
X46175161Y-37784953D02*
X71685161Y-37784953D01*
X71685161Y-37784953D02*
X76810000Y-32660114D01*
X45306708Y-38653406D02*
X46175161Y-37784953D01*
%TO.N,Net-(U1-A6)*%
X44162409Y-39907010D02*
X44856708Y-39212711D01*
X45988765Y-37334953D02*
X69595161Y-37334953D01*
X44856708Y-39212711D02*
X44856708Y-38467010D01*
X43209358Y-39907010D02*
X44162409Y-39907010D01*
X69595161Y-37334953D02*
X74270000Y-32660114D01*
X44856708Y-38467010D02*
X45988765Y-37334953D01*
%TO.N,Net-(J1-Pin_1)*%
X96438502Y-22939838D02*
X90875000Y-28503340D01*
X67417846Y-46850039D02*
X67078176Y-46510369D01*
X96916842Y-22939838D02*
X96438502Y-22939838D01*
X77670075Y-46850039D02*
X67417846Y-46850039D01*
X90875000Y-28503340D02*
X90875000Y-33645114D01*
X90875000Y-33645114D02*
X77670075Y-46850039D01*
%TO.N,Net-(J7-Pin_3)*%
X89194466Y-54681090D02*
X93310527Y-58797151D01*
X93310527Y-58797151D02*
X93789537Y-58797151D01*
X93789537Y-58797151D02*
X93822500Y-58830114D01*
%TO.N,Net-(J7-Pin_4)*%
X93461396Y-57830114D02*
X93822500Y-57830114D01*
X89320898Y-53689616D02*
X93461396Y-57830114D01*
%TO.N,Net-(U2-GPIO16)*%
X44421179Y-50630259D02*
X48679855Y-50630259D01*
X46936408Y-34153418D02*
X48322838Y-35539848D01*
X43263282Y-51788156D02*
X44421179Y-50630259D01*
X45797555Y-34153418D02*
X46936408Y-34153418D01*
X48679855Y-50630259D02*
X48870000Y-50440114D01*
%TO.N,Net-(U2-GPIO17)*%
X38706176Y-36918500D02*
X37588814Y-36918500D01*
X39646306Y-38752502D02*
X38706176Y-37812372D01*
X40023249Y-38752502D02*
X39646306Y-38752502D01*
X48162538Y-58871620D02*
X48162538Y-60465724D01*
X38706176Y-37812372D02*
X38706176Y-36918500D01*
X48162538Y-60465724D02*
X48245064Y-60548250D01*
%TO.N,Encoder Push*%
X37122765Y-59615756D02*
X38189302Y-60682293D01*
X39664527Y-60682293D02*
X41027765Y-59319055D01*
X33993830Y-51727027D02*
X33093697Y-51727027D01*
X36256889Y-49463968D02*
X33993830Y-51727027D01*
X36256889Y-49463968D02*
X37122765Y-50329844D01*
X37122765Y-50329844D02*
X37122765Y-59615756D01*
X38189302Y-60682293D02*
X39664527Y-60682293D01*
%TO.N,Encoder A*%
X41201259Y-34153418D02*
X36161671Y-29113830D01*
X40150680Y-36675293D02*
X42672555Y-34153418D01*
X42672555Y-34153418D02*
X41201259Y-34153418D01*
X40150680Y-36744807D02*
X40150680Y-36675293D01*
%TO.N,Encoder B*%
X33621671Y-32955454D02*
X33621671Y-29113830D01*
X37096491Y-33793500D02*
X37588814Y-33793500D01*
X34941117Y-34274900D02*
X36615091Y-34274900D01*
X36615091Y-34274900D02*
X37096491Y-33793500D01*
X34941117Y-34274900D02*
X33621671Y-32955454D01*
%TO.N,Net-(J8-Pin_5)*%
X52095641Y-31974473D02*
X51410000Y-32660114D01*
X52095641Y-26831617D02*
X52095641Y-31974473D01*
%TO.N,Net-(J8-Pin_4)*%
X56490000Y-28725976D02*
X56490000Y-32660114D01*
X54595641Y-26831617D02*
X56490000Y-28725976D01*
%TO.N,Net-(J8-Pin_3)*%
X57095641Y-26831617D02*
X59030000Y-28765976D01*
X59030000Y-28765976D02*
X59030000Y-32660114D01*
%TO.N,Net-(J8-Pin_2)*%
X59595641Y-26831617D02*
X61570000Y-28805976D01*
X61570000Y-28805976D02*
X61570000Y-32660114D01*
%TO.N,Net-(J8-Pin_1)*%
X64110000Y-28845976D02*
X64110000Y-32660114D01*
X62095641Y-26831617D02*
X64110000Y-28845976D01*
%TO.N,5V Buzz*%
X43685397Y-54121423D02*
X44003246Y-54121423D01*
X37409358Y-39257010D02*
X38085760Y-39257010D01*
X38085760Y-39257010D02*
X38605988Y-38736782D01*
X41027765Y-56779055D02*
X43685397Y-54121423D01*
%TO.N,5V LCD CS*%
X38159358Y-42507010D02*
X38234358Y-42582010D01*
X37572765Y-50143448D02*
X37572765Y-55864055D01*
X37367000Y-49937683D02*
X37572765Y-50143448D01*
X38234358Y-42582010D02*
X38234358Y-44982010D01*
X37367000Y-45849368D02*
X37367000Y-49937683D01*
X38234358Y-44982010D02*
X37367000Y-45849368D01*
X37409358Y-42507010D02*
X38159358Y-42507010D01*
X37572765Y-55864055D02*
X38487765Y-56779055D01*
%TO.N,5V LCD RS*%
X37409358Y-40557010D02*
X38159358Y-40557010D01*
X37817000Y-46035764D02*
X37817000Y-49751287D01*
X38022765Y-54652354D02*
X39662765Y-56292354D01*
X38684358Y-45168406D02*
X37817000Y-46035764D01*
X38159358Y-40557010D02*
X38684358Y-41082010D01*
X38022765Y-49957052D02*
X38022765Y-54652354D01*
X37817000Y-49751287D02*
X38022765Y-49957052D01*
X38684358Y-41082010D02*
X38684358Y-45168406D01*
X39662765Y-56292354D02*
X39662765Y-58144055D01*
X39662765Y-58144055D02*
X38487765Y-59319055D01*
%TO.N,5V LCD Reset*%
X37409358Y-39907010D02*
X38750687Y-39907010D01*
X38750687Y-39907010D02*
X38751152Y-39906545D01*
%TO.N,5V Backlight*%
X36374241Y-38141593D02*
X36943941Y-38141593D01*
X36943941Y-38141593D02*
X37409358Y-38607010D01*
%TO.N,5V LCD CLK*%
X31526049Y-43909218D02*
X32073841Y-44457010D01*
X29906671Y-32980016D02*
X31526049Y-34599394D01*
X31081671Y-26573830D02*
X29906671Y-27748830D01*
X31526049Y-34599394D02*
X31526049Y-43909218D01*
X32073841Y-44457010D02*
X37409358Y-44457010D01*
X29906671Y-27748830D02*
X29906671Y-32980016D01*
%TO.N,5V LCD MOSI*%
X31976049Y-43722822D02*
X32060237Y-43807010D01*
X32256671Y-34132376D02*
X31976049Y-34412998D01*
X32060237Y-43807010D02*
X37409358Y-43807010D01*
X36161671Y-26573830D02*
X34986671Y-27748830D01*
X32491797Y-27748830D02*
X32256671Y-27983956D01*
X32256671Y-27983956D02*
X32256671Y-34132376D01*
X34986671Y-27748830D02*
X32491797Y-27748830D01*
X31976049Y-34412998D02*
X31976049Y-43722822D01*
%TO.N,Net-(U1-A7)*%
X45802369Y-36884953D02*
X67505161Y-36884953D01*
X44406708Y-38280614D02*
X45802369Y-36884953D01*
X43209358Y-39257010D02*
X44176013Y-39257010D01*
X67505161Y-36884953D02*
X71730000Y-32660114D01*
X44176013Y-39257010D02*
X44406708Y-39026315D01*
X44406708Y-39026315D02*
X44406708Y-38280614D01*
%TO.N,Net-(U1-A8)*%
X43209358Y-38607010D02*
X43823203Y-38607010D01*
X43823203Y-38607010D02*
X43956708Y-38473505D01*
X45627646Y-36423280D02*
X65426834Y-36423280D01*
X43956708Y-38473505D02*
X43956708Y-38094218D01*
X65426834Y-36423280D02*
X69190000Y-32660114D01*
X43956708Y-38094218D02*
X45627646Y-36423280D01*
%TO.N,Net-(J12-Pin_1)*%
X62741601Y-60228297D02*
X69190000Y-53779898D01*
X69190000Y-53779898D02*
X69190000Y-50440114D01*
%TO.N,Net-(J12-Pin_2)*%
X60241601Y-60228297D02*
X64110000Y-56359898D01*
X64110000Y-56359898D02*
X64110000Y-50440114D01*
%TO.N,Net-(J12-Pin_3)*%
X57741601Y-60228297D02*
X61570000Y-56399898D01*
X61570000Y-56399898D02*
X61570000Y-50440114D01*
%TO.N,Net-(J12-Pin_4)*%
X59030000Y-56439898D02*
X59030000Y-50440114D01*
X55241601Y-60228297D02*
X59030000Y-56439898D01*
%TO.N,Net-(J12-Pin_5)*%
X56490000Y-56479898D02*
X52741601Y-60228297D01*
X56490000Y-50440114D02*
X56490000Y-56479898D01*
%TO.N,GND*%
X48162538Y-54296832D02*
X45483465Y-51617759D01*
X42675899Y-53841945D02*
X42675899Y-53018122D01*
X40138282Y-51788156D02*
X41363282Y-53013156D01*
X41363282Y-53013156D02*
X43798210Y-53013156D01*
X95666567Y-60960469D02*
X95666567Y-55491156D01*
X94399606Y-60960469D02*
X95666567Y-60960469D01*
X30867765Y-54307584D02*
X30915522Y-54259827D01*
X39876671Y-27748830D02*
X41241671Y-29113830D01*
X92050000Y-51874589D02*
X92050000Y-50440114D01*
X38024970Y-27748830D02*
X39876671Y-27748830D01*
X29456671Y-33165851D02*
X29456671Y-26505765D01*
X30736213Y-56647503D02*
X30736213Y-34445393D01*
X81407542Y-60428823D02*
X82607542Y-59228823D01*
X92050000Y-28684703D02*
X92082636Y-28652067D01*
X43798210Y-53013156D02*
X44088068Y-53013156D01*
X73405936Y-59166929D02*
X74667830Y-60428823D01*
X42675899Y-53018122D02*
X42680865Y-53013156D01*
X48162538Y-55746620D02*
X48162538Y-54296832D01*
X85822069Y-55189997D02*
X85822069Y-56014296D01*
X85822069Y-56014296D02*
X82607542Y-59228823D01*
X92050000Y-32660114D02*
X92050000Y-28684703D01*
X29456671Y-26505765D02*
X30563606Y-25398830D01*
X44088068Y-53013156D02*
X45483465Y-51617759D01*
X52585000Y-53415114D02*
X53950000Y-52050114D01*
X36497830Y-41207010D02*
X37409358Y-41207010D01*
X45483465Y-51617759D02*
X47280820Y-53415114D01*
X30736213Y-34445393D02*
X29456671Y-33165851D01*
X93822500Y-60830114D02*
X94269251Y-60830114D01*
X94269251Y-60830114D02*
X94399606Y-60960469D01*
X34974595Y-39683775D02*
X36497830Y-41207010D01*
X30867765Y-56779055D02*
X30867765Y-54307584D01*
X37336671Y-26087129D02*
X37336671Y-27060531D01*
X34974595Y-39683775D02*
X34974595Y-39421218D01*
X30867765Y-56779055D02*
X30736213Y-56647503D01*
X53950000Y-52050114D02*
X53950000Y-50440114D01*
X74667830Y-60428823D02*
X81407542Y-60428823D01*
X30563606Y-25398830D02*
X36648372Y-25398830D01*
X42680865Y-53013156D02*
X43798210Y-53013156D01*
X95666567Y-55491156D02*
X92050000Y-51874589D01*
X37336671Y-27060531D02*
X38024970Y-27748830D01*
X36648372Y-25398830D02*
X37336671Y-26087129D01*
X47280820Y-53415114D02*
X52585000Y-53415114D01*
X34974595Y-39421218D02*
X32954439Y-37401062D01*
%TO.N,3.3V*%
X94897278Y-57484896D02*
X94897278Y-59178398D01*
X83684569Y-55239490D02*
X86970000Y-51954059D01*
X39381889Y-49463968D02*
X41304165Y-49463968D01*
X41498529Y-49269604D02*
X42723529Y-48044604D01*
X42723529Y-48044604D02*
X42723529Y-45175639D01*
X42122865Y-44574975D02*
X42122865Y-42323172D01*
X72105936Y-57966929D02*
X78845648Y-57966929D01*
X78845648Y-57966929D02*
X80107542Y-59228823D01*
X40273529Y-39746958D02*
X40273529Y-48044604D01*
X42723529Y-45175639D02*
X42122865Y-44574975D01*
X70905936Y-59166929D02*
X72105936Y-57966929D01*
X41992485Y-38028002D02*
X43275680Y-36744807D01*
X41498529Y-49269604D02*
X44706620Y-49269604D01*
X86970000Y-50440114D02*
X85022645Y-48492759D01*
X82509062Y-56414997D02*
X83347742Y-56414997D01*
X94244029Y-59831647D02*
X93797278Y-59831647D01*
X36212223Y-36128794D02*
X36212223Y-34781000D01*
X90555934Y-49265114D02*
X90736213Y-49445393D01*
X90736213Y-53323831D02*
X94897278Y-57484896D01*
X88145000Y-49265114D02*
X90555934Y-49265114D01*
X41304165Y-49463968D02*
X41498529Y-49269604D01*
X86970000Y-50440114D02*
X88145000Y-49265114D01*
X80107542Y-58816517D02*
X82509062Y-56414997D01*
X39156176Y-37625976D02*
X39558202Y-38028002D01*
X36212223Y-34781000D02*
X39156176Y-34781000D01*
X40273529Y-48044604D02*
X41498529Y-49269604D01*
X86970000Y-51954059D02*
X86970000Y-50440114D01*
X83684569Y-56078170D02*
X83684569Y-55239490D01*
X42589027Y-41857010D02*
X43209358Y-41857010D01*
X42122865Y-42323172D02*
X42589027Y-41857010D01*
X39558202Y-38028002D02*
X41992485Y-38028002D01*
X90736213Y-49445393D02*
X90736213Y-53323831D01*
X80107542Y-59228823D02*
X80107542Y-58816517D01*
X44706620Y-49269604D02*
X45483465Y-48492759D01*
X43275680Y-36744807D02*
X40273529Y-39746958D01*
X85022645Y-48492759D02*
X45483465Y-48492759D01*
X34941117Y-37399900D02*
X36212223Y-36128794D01*
X83347742Y-56414997D02*
X83684569Y-56078170D01*
X39156176Y-34781000D02*
X39156176Y-37625976D01*
X94897278Y-59178398D02*
X94244029Y-59831647D01*
%TO.N,Net-(U2-GPIO28_ADC2)*%
X34989450Y-61428297D02*
X66428579Y-61428297D01*
X33093697Y-48602027D02*
X31868697Y-49827027D01*
X31868697Y-49827027D02*
X31725695Y-49970029D01*
X81890000Y-54382928D02*
X82697069Y-55189997D01*
X34772765Y-61211612D02*
X34989450Y-61428297D01*
X34772765Y-56292354D02*
X34772765Y-61211612D01*
X81890000Y-50440114D02*
X81890000Y-54382928D01*
X31725695Y-53245284D02*
X34772765Y-56292354D01*
X66428579Y-61428297D02*
X72666879Y-55189997D01*
X31725695Y-49970029D02*
X31725695Y-53245284D01*
X72666879Y-55189997D02*
X82697069Y-55189997D01*
%TD*%
M02*
