%TF.GenerationSoftware,KiCad,Pcbnew,7.0.1-1.fc37*%
%TF.CreationDate,2023-03-22T21:56:34-05:00*%
%TF.ProjectId,main_board,6d61696e-5f62-46f6-9172-642e6b696361,rev?*%
%TF.SameCoordinates,Original*%
%TF.FileFunction,Soldermask,Top*%
%TF.FilePolarity,Negative*%
%FSLAX46Y46*%
G04 Gerber Fmt 4.6, Leading zero omitted, Abs format (unit mm)*
G04 Created by KiCad (PCBNEW 7.0.1-1.fc37) date 2023-03-22 21:56:34*
%MOMM*%
%LPD*%
G01*
G04 APERTURE LIST*
G04 Aperture macros list*
%AMRoundRect*
0 Rectangle with rounded corners*
0 $1 Rounding radius*
0 $2 $3 $4 $5 $6 $7 $8 $9 X,Y pos of 4 corners*
0 Add a 4 corners polygon primitive as box body*
4,1,4,$2,$3,$4,$5,$6,$7,$8,$9,$2,$3,0*
0 Add four circle primitives for the rounded corners*
1,1,$1+$1,$2,$3*
1,1,$1+$1,$4,$5*
1,1,$1+$1,$6,$7*
1,1,$1+$1,$8,$9*
0 Add four rect primitives between the rounded corners*
20,1,$1+$1,$2,$3,$4,$5,0*
20,1,$1+$1,$4,$5,$6,$7,0*
20,1,$1+$1,$6,$7,$8,$9,0*
20,1,$1+$1,$8,$9,$2,$3,0*%
G04 Aperture macros list end*
%ADD10R,1.750000X1.750000*%
%ADD11C,1.750000*%
%ADD12RoundRect,0.250000X0.650000X-0.412500X0.650000X0.412500X-0.650000X0.412500X-0.650000X-0.412500X0*%
%ADD13C,2.500000*%
%ADD14RoundRect,0.150000X0.625000X-0.150000X0.625000X0.150000X-0.625000X0.150000X-0.625000X-0.150000X0*%
%ADD15RoundRect,0.250000X0.650000X-0.350000X0.650000X0.350000X-0.650000X0.350000X-0.650000X-0.350000X0*%
%ADD16RoundRect,0.250000X0.412500X0.650000X-0.412500X0.650000X-0.412500X-0.650000X0.412500X-0.650000X0*%
%ADD17RoundRect,0.250000X-0.650000X0.412500X-0.650000X-0.412500X0.650000X-0.412500X0.650000X0.412500X0*%
%ADD18RoundRect,0.250000X-0.412500X-0.650000X0.412500X-0.650000X0.412500X0.650000X-0.412500X0.650000X0*%
%ADD19R,1.000000X0.400000*%
%ADD20RoundRect,0.250000X0.600000X-0.600000X0.600000X0.600000X-0.600000X0.600000X-0.600000X-0.600000X0*%
%ADD21C,1.700000*%
%ADD22RoundRect,0.250000X-0.600000X0.600000X-0.600000X-0.600000X0.600000X-0.600000X0.600000X0.600000X0*%
%ADD23O,1.800000X1.800000*%
%ADD24O,1.500000X1.500000*%
%ADD25O,1.700000X1.700000*%
%ADD26R,1.700000X3.500000*%
%ADD27R,1.700000X1.700000*%
%ADD28R,3.500000X1.700000*%
G04 APERTURE END LIST*
D10*
%TO.C,J12*%
X62741601Y-60228297D03*
D11*
X60241601Y-60228297D03*
X57741601Y-60228297D03*
X55241601Y-60228297D03*
X52741601Y-60228297D03*
%TD*%
D12*
%TO.C,C1*%
X34974595Y-42808775D03*
X34974595Y-39683775D03*
%TD*%
D13*
%TO.C,REF\u002A\u002A*%
X89250000Y-59000000D03*
%TD*%
D14*
%TO.C,J7*%
X93797278Y-60831647D03*
X93797278Y-59831647D03*
X93797278Y-58831647D03*
X93797278Y-57831647D03*
D15*
X97672278Y-62131647D03*
X97672278Y-56531647D03*
%TD*%
D10*
%TO.C,J8*%
X62095641Y-26831617D03*
D11*
X59595641Y-26831617D03*
X57095641Y-26831617D03*
X54595641Y-26831617D03*
X52095641Y-26831617D03*
%TD*%
D12*
%TO.C,R22*%
X34941117Y-37399900D03*
X34941117Y-34274900D03*
%TD*%
D16*
%TO.C,R24*%
X39381889Y-49463968D03*
X36256889Y-49463968D03*
%TD*%
D12*
%TO.C,R1*%
X41498529Y-49269604D03*
X41498529Y-46144604D03*
%TD*%
D13*
%TO.C,REF\u002A\u002A*%
X89250000Y-26000000D03*
%TD*%
D17*
%TO.C,R25*%
X37700231Y-33772249D03*
X37700231Y-36897249D03*
%TD*%
D12*
%TO.C,C2*%
X45483465Y-51617759D03*
X45483465Y-48492759D03*
%TD*%
D10*
%TO.C,J5*%
X80107542Y-59228823D03*
D11*
X82607542Y-59228823D03*
%TD*%
D16*
%TO.C,R23*%
X43275680Y-36744807D03*
X40150680Y-36744807D03*
%TD*%
D12*
%TO.C,R27*%
X33093697Y-51727027D03*
X33093697Y-48602027D03*
%TD*%
D18*
%TO.C,R26*%
X42672555Y-34153418D03*
X45797555Y-34153418D03*
%TD*%
%TO.C,C5*%
X40138282Y-51788156D03*
X43263282Y-51788156D03*
%TD*%
D13*
%TO.C,REF\u002A\u002A*%
X27736213Y-50000000D03*
%TD*%
D19*
%TO.C,U1*%
X43209358Y-44457010D03*
X43209358Y-43807010D03*
X43209358Y-43157010D03*
X43209358Y-42507010D03*
X43209358Y-41857010D03*
X43209358Y-41207010D03*
X43209358Y-40557010D03*
X43209358Y-39907010D03*
X43209358Y-39257010D03*
X43209358Y-38607010D03*
X37409358Y-38607010D03*
X37409358Y-39257010D03*
X37409358Y-39907010D03*
X37409358Y-40557010D03*
X37409358Y-41207010D03*
X37409358Y-41857010D03*
X37409358Y-42507010D03*
X37409358Y-43157010D03*
X37409358Y-43807010D03*
X37409358Y-44457010D03*
%TD*%
D16*
%TO.C,C3*%
X85822069Y-55189997D03*
X82697069Y-55189997D03*
%TD*%
D20*
%TO.C,J10*%
X31081671Y-29113830D03*
D21*
X31081671Y-26573830D03*
X33621671Y-29113830D03*
X33621671Y-26573830D03*
X36161671Y-29113830D03*
X36161671Y-26573830D03*
X38701671Y-29113830D03*
X38701671Y-26573830D03*
X41241671Y-29113830D03*
X41241671Y-26573830D03*
%TD*%
D10*
%TO.C,J3*%
X70905936Y-59166929D03*
D11*
X73405936Y-59166929D03*
%TD*%
D22*
%TO.C,J9*%
X41027765Y-56779055D03*
D21*
X41027765Y-59319055D03*
X38487765Y-56779055D03*
X38487765Y-59319055D03*
X35947765Y-56779055D03*
X35947765Y-59319055D03*
X33407765Y-56779055D03*
X33407765Y-59319055D03*
X30867765Y-56779055D03*
X30867765Y-59319055D03*
%TD*%
D17*
%TO.C,C6*%
X48162538Y-55746620D03*
X48162538Y-58871620D03*
%TD*%
D23*
%TO.C,U2*%
X97000000Y-38825114D03*
D24*
X93970000Y-39125114D03*
X93970000Y-43975114D03*
D23*
X97000000Y-44275114D03*
D25*
X97130000Y-32660114D03*
D26*
X97130000Y-31760114D03*
D25*
X94590000Y-32660114D03*
D26*
X94590000Y-31760114D03*
D27*
X92050000Y-32660114D03*
D26*
X92050000Y-31760114D03*
D25*
X89510000Y-32660114D03*
D26*
X89510000Y-31760114D03*
D25*
X86970000Y-32660114D03*
D26*
X86970000Y-31760114D03*
D25*
X84430000Y-32660114D03*
D26*
X84430000Y-31760114D03*
D25*
X81890000Y-32660114D03*
D26*
X81890000Y-31760114D03*
D27*
X79350000Y-32660114D03*
D26*
X79350000Y-31760114D03*
D25*
X76810000Y-32660114D03*
D26*
X76810000Y-31760114D03*
D25*
X74270000Y-32660114D03*
D26*
X74270000Y-31760114D03*
D25*
X71730000Y-32660114D03*
D26*
X71730000Y-31760114D03*
D25*
X69190000Y-32660114D03*
D26*
X69190000Y-31760114D03*
D27*
X66650000Y-32660114D03*
D26*
X66650000Y-31760114D03*
D25*
X64110000Y-32660114D03*
D26*
X64110000Y-31760114D03*
D25*
X61570000Y-32660114D03*
D26*
X61570000Y-31760114D03*
D25*
X59030000Y-32660114D03*
D26*
X59030000Y-31760114D03*
D25*
X56490000Y-32660114D03*
D26*
X56490000Y-31760114D03*
D27*
X53950000Y-32660114D03*
D26*
X53950000Y-31760114D03*
D25*
X51410000Y-32660114D03*
D26*
X51410000Y-31760114D03*
D25*
X48870000Y-32660114D03*
D26*
X48870000Y-31760114D03*
D25*
X48870000Y-50440114D03*
D26*
X48870000Y-51340114D03*
D25*
X51410000Y-50440114D03*
D26*
X51410000Y-51340114D03*
D27*
X53950000Y-50440114D03*
D26*
X53950000Y-51340114D03*
D25*
X56490000Y-50440114D03*
D26*
X56490000Y-51340114D03*
D25*
X59030000Y-50440114D03*
D26*
X59030000Y-51340114D03*
D25*
X61570000Y-50440114D03*
D26*
X61570000Y-51340114D03*
D25*
X64110000Y-50440114D03*
D26*
X64110000Y-51340114D03*
D27*
X66650000Y-50440114D03*
D26*
X66650000Y-51340114D03*
D25*
X69190000Y-50440114D03*
D26*
X69190000Y-51340114D03*
D25*
X71730000Y-50440114D03*
D26*
X71730000Y-51340114D03*
D25*
X74270000Y-50440114D03*
D26*
X74270000Y-51340114D03*
D25*
X76810000Y-50440114D03*
D26*
X76810000Y-51340114D03*
D27*
X79350000Y-50440114D03*
D26*
X79350000Y-51340114D03*
D25*
X81890000Y-50440114D03*
D26*
X81890000Y-51340114D03*
D25*
X84430000Y-50440114D03*
D26*
X84430000Y-51340114D03*
D25*
X86970000Y-50440114D03*
D26*
X86970000Y-51340114D03*
D25*
X89510000Y-50440114D03*
D26*
X89510000Y-51340114D03*
D27*
X92050000Y-50440114D03*
D26*
X92050000Y-51340114D03*
D25*
X94590000Y-50440114D03*
D26*
X94590000Y-51340114D03*
D25*
X97130000Y-50440114D03*
D26*
X97130000Y-51340114D03*
D25*
X49100000Y-39010114D03*
D28*
X48200000Y-39010114D03*
D27*
X49100000Y-41550114D03*
D28*
X48200000Y-41550114D03*
D25*
X49100000Y-44090114D03*
D28*
X48200000Y-44090114D03*
%TD*%
D13*
%TO.C,REF\u002A\u002A*%
X27736213Y-36000000D03*
%TD*%
D27*
%TO.C,J1*%
X96916842Y-22939838D03*
D25*
X96916842Y-25479838D03*
X96916842Y-28019838D03*
%TD*%
M02*
