%TF.GenerationSoftware,KiCad,Pcbnew,7.0.1-1.fc37*%
%TF.CreationDate,2023-03-22T21:52:04-05:00*%
%TF.ProjectId,midi_rx_board,6d696469-5f72-4785-9f62-6f6172642e6b,rev?*%
%TF.SameCoordinates,Original*%
%TF.FileFunction,Soldermask,Bot*%
%TF.FilePolarity,Negative*%
%FSLAX46Y46*%
G04 Gerber Fmt 4.6, Leading zero omitted, Abs format (unit mm)*
G04 Created by KiCad (PCBNEW 7.0.1-1.fc37) date 2023-03-22 21:52:04*
%MOMM*%
%LPD*%
G01*
G04 APERTURE LIST*
%ADD10C,2.500000*%
%ADD11C,1.500000*%
%ADD12C,2.641600*%
%ADD13C,2.351600*%
%ADD14R,1.750000X1.750000*%
%ADD15C,1.750000*%
G04 APERTURE END LIST*
D10*
%TO.C,REF\u002A\u002A*%
X125000000Y-56000000D03*
%TD*%
D11*
%TO.C,RX3*%
X167000000Y-25678000D03*
X157000000Y-25678000D03*
X162000000Y-30678000D03*
D12*
X162000000Y-25678000D03*
D13*
X167100000Y-30678000D03*
X164400000Y-30678000D03*
X159600000Y-30678000D03*
X156900000Y-30678000D03*
%TD*%
D14*
%TO.C,J2*%
X187000000Y-54000000D03*
D15*
X189500000Y-54000000D03*
%TD*%
D11*
%TO.C,RX4*%
X181000000Y-25678000D03*
X171000000Y-25678000D03*
X176000000Y-30678000D03*
D12*
X176000000Y-25678000D03*
D13*
X181100000Y-30678000D03*
X178400000Y-30678000D03*
X173600000Y-30678000D03*
X170900000Y-30678000D03*
%TD*%
D11*
%TO.C,RX5*%
X195000000Y-25678000D03*
X185000000Y-25678000D03*
X190000000Y-30678000D03*
D12*
X190000000Y-25678000D03*
D13*
X195100000Y-30678000D03*
X192400000Y-30678000D03*
X187600000Y-30678000D03*
X184900000Y-30678000D03*
%TD*%
D14*
%TO.C,J1*%
X161500000Y-54000000D03*
D15*
X164000000Y-54000000D03*
X166500000Y-54000000D03*
X169000000Y-54000000D03*
X171500000Y-54000000D03*
%TD*%
D11*
%TO.C,RX2*%
X153000000Y-25678000D03*
X143000000Y-25678000D03*
X148000000Y-30678000D03*
D12*
X148000000Y-25678000D03*
D13*
X153100000Y-30678000D03*
X150400000Y-30678000D03*
X145600000Y-30678000D03*
X142900000Y-30678000D03*
%TD*%
D11*
%TO.C,RX1*%
X139000000Y-25678000D03*
X129000000Y-25678000D03*
X134000000Y-30678000D03*
D12*
X134000000Y-25678000D03*
D13*
X139100000Y-30678000D03*
X136400000Y-30678000D03*
X131600000Y-30678000D03*
X128900000Y-30678000D03*
%TD*%
D10*
%TO.C,REF\u002A\u002A*%
X125000000Y-22000000D03*
%TD*%
%TO.C,REF\u002A\u002A*%
X199000000Y-56000000D03*
%TD*%
%TO.C,REF\u002A\u002A*%
X199000000Y-22000000D03*
%TD*%
M02*
